<?xml version="1.0" encoding="UTF-8" standalone="no"?>
<!DOCTYPE svg PUBLIC "-//W3C//DTD SVG 1.1//EN"
 "http://www.w3.org/Graphics/SVG/1.1/DTD/svg11.dtd">
<!-- Generated by graphviz version 2.36.0 (20140111.2315)
 -->
<!-- Title: schedule_types.h Pages: 1 -->
<svg width="245pt" height="196pt"
 viewBox="0.00 0.00 245.00 196.00" xmlns="http://www.w3.org/2000/svg" xmlns:xlink="http://www.w3.org/1999/xlink">
<g id="graph0" class="graph" transform="scale(1 1) rotate(0) translate(4 192)">
<title>schedule_types.h</title>
<polygon fill="white" stroke="none" points="-4,4 -4,-192 241,-192 241,4 -4,4"/>
<!-- Node0 -->
<g id="node1" class="node"><title>Node0</title>
<polygon fill="#bfbfbf" stroke="black" points="67.5,-168.5 67.5,-187.5 160.5,-187.5 160.5,-168.5 67.5,-168.5"/>
<text text-anchor="middle" x="114" y="-175.5" font-family="Helvetica,sans-Serif" font-size="10.00">schedule_types.h</text>
</g>
<!-- Node1 -->
<g id="node2" class="node"><title>Node1</title>
<g id="a_node2"><a xlink:href="visibility__begin_8h_source.html" target="_top" xlink:title="odp/visibility_begin.h">
<polygon fill="white" stroke="black" points="-0.5,-0.5 -0.5,-19.5 106.5,-19.5 106.5,-0.5 -0.5,-0.5"/>
<text text-anchor="middle" x="53" y="-7.5" font-family="Helvetica,sans-Serif" font-size="10.00">odp/visibility_begin.h</text>
</a>
</g>
</g>
<!-- Node0&#45;&gt;Node1 -->
<g id="edge1" class="edge"><title>Node0&#45;&gt;Node1</title>
<path fill="none" stroke="midnightblue" d="M98.4796,-168.368C85.868,-160.53 68.6426,-147.795 59,-132 39.7077,-100.397 44.111,-55.0413 48.7439,-29.7906"/>
<polygon fill="midnightblue" stroke="midnightblue" points="52.2277,-30.2242 50.8044,-19.7254 45.3699,-28.8203 52.2277,-30.2242"/>
</g>
<!-- Node2 -->
<g id="node3" class="node"><title>Node2</title>
<g id="a_node3"><a xlink:href="support_8h.html" target="_top" xlink:title="ODP support API &#45; platform specific header. ">
<polygon fill="white" stroke="black" points="68,-112.5 68,-131.5 160,-131.5 160,-112.5 68,-112.5"/>
<text text-anchor="middle" x="114" y="-119.5" font-family="Helvetica,sans-Serif" font-size="10.00">odp/api/support.h</text>
</a>
</g>
</g>
<!-- Node0&#45;&gt;Node2 -->
<g id="edge2" class="edge"><title>Node0&#45;&gt;Node2</title>
<path fill="none" stroke="midnightblue" d="M114,-168.083C114,-161.006 114,-150.861 114,-141.986"/>
<polygon fill="midnightblue" stroke="midnightblue" points="117.5,-141.751 114,-131.751 110.5,-141.751 117.5,-141.751"/>
</g>
<!-- Node4 -->
<g id="node5" class="node"><title>Node4</title>
<g id="a_node5"><a xlink:href="visibility__end_8h_source.html" target="_top" xlink:title="odp/visibility_end.h">
<polygon fill="white" stroke="black" points="137,-0.5 137,-19.5 237,-19.5 237,-0.5 137,-0.5"/>
<text text-anchor="middle" x="187" y="-7.5" font-family="Helvetica,sans-Serif" font-size="10.00">odp/visibility_end.h</text>
</a>
</g>
</g>
<!-- Node0&#45;&gt;Node4 -->
<g id="edge6" class="edge"><title>Node0&#45;&gt;Node4</title>
<path fill="none" stroke="midnightblue" d="M129.59,-168.41C142.244,-160.598 159.493,-147.877 169,-132 188.207,-99.9232 189.51,-54.745 188.45,-29.6518"/>
<polygon fill="midnightblue" stroke="midnightblue" points="191.943,-29.4285 187.853,-19.6551 184.956,-29.8461 191.943,-29.4285"/>
</g>
<!-- Node3 -->
<g id="node4" class="node"><title>Node3</title>
<g id="a_node4"><a xlink:href="spec_2support_8h.html" target="_top" xlink:title="ODP support API. ">
<polygon fill="white" stroke="black" points="56,-56.5 56,-75.5 172,-75.5 172,-56.5 56,-56.5"/>
<text text-anchor="middle" x="114" y="-63.5" font-family="Helvetica,sans-Serif" font-size="10.00">odp/api/spec/support.h</text>
</a>
</g>
</g>
<!-- Node2&#45;&gt;Node3 -->
<g id="edge3" class="edge"><title>Node2&#45;&gt;Node3</title>
<path fill="none" stroke="midnightblue" d="M114,-112.083C114,-105.006 114,-94.8611 114,-85.9865"/>
<polygon fill="midnightblue" stroke="midnightblue" points="117.5,-85.751 114,-75.7511 110.5,-85.7511 117.5,-85.751"/>
</g>
<!-- Node3&#45;&gt;Node1 -->
<g id="edge4" class="edge"><title>Node3&#45;&gt;Node1</title>
<path fill="none" stroke="midnightblue" d="M104.199,-56.324C95.1819,-48.3414 81.594,-36.3128 70.682,-26.6529"/>
<polygon fill="midnightblue" stroke="midnightblue" points="72.7866,-23.8416 62.979,-19.8339 68.1467,-29.083 72.7866,-23.8416"/>
</g>
<!-- Node3&#45;&gt;Node4 -->
<g id="edge5" class="edge"><title>Node3&#45;&gt;Node4</title>
<path fill="none" stroke="midnightblue" d="M125.729,-56.324C136.837,-48.1066 153.742,-35.6017 166.983,-25.8069"/>
<polygon fill="midnightblue" stroke="midnightblue" points="169.1,-28.5948 175.058,-19.8339 164.937,-22.9671 169.1,-28.5948"/>
</g>
</g>
</svg>
