<?xml version="1.0" encoding="UTF-8" standalone="no"?>
<!DOCTYPE svg PUBLIC "-//W3C//DTD SVG 1.1//EN"
 "http://www.w3.org/Graphics/SVG/1.1/DTD/svg11.dtd">
<!-- Generated by graphviz version 2.36.0 (20140111.2315)
 -->
<!-- Title: crypto.h Pages: 1 -->
<svg width="1179pt" height="364pt"
 viewBox="0.00 0.00 1178.81 364.00" xmlns="http://www.w3.org/2000/svg" xmlns:xlink="http://www.w3.org/1999/xlink">
<g id="graph0" class="graph" transform="scale(1 1) rotate(0) translate(4 360)">
<title>crypto.h</title>
<polygon fill="white" stroke="none" points="-4,4 -4,-360 1174.81,-360 1174.81,4 -4,4"/>
<!-- Node0 -->
<g id="node1" class="node"><title>Node0</title>
<polygon fill="#bfbfbf" stroke="black" points="202.814,-336.5 202.814,-355.5 254.814,-355.5 254.814,-336.5 202.814,-336.5"/>
<text text-anchor="middle" x="228.814" y="-343.5" font-family="Helvetica,sans-Serif" font-size="10.00">crypto.h</text>
</g>
<!-- Node1 -->
<g id="node2" class="node"><title>Node1</title>
<g id="a_node2"><a xlink:href="visibility__begin_8h_source.html" target="_top" xlink:title="odp/visibility_begin.h">
<polygon fill="white" stroke="black" points="199.314,-0.5 199.314,-19.5 306.314,-19.5 306.314,-0.5 199.314,-0.5"/>
<text text-anchor="middle" x="252.814" y="-7.5" font-family="Helvetica,sans-Serif" font-size="10.00">odp/visibility_begin.h</text>
</a>
</g>
</g>
<!-- Node0&#45;&gt;Node1 -->
<g id="edge1" class="edge"><title>Node0&#45;&gt;Node1</title>
<path fill="none" stroke="midnightblue" d="M202.659,-344.232C142.771,-340.941 0.813675,-323.778 0.813675,-235 0.813675,-235 0.813675,-235 0.813675,-121 0.813675,-90.9022 -2.44103,-76.2634 19.8137,-56 44.1472,-33.8438 128.85,-21.816 189.098,-15.9038"/>
<polygon fill="midnightblue" stroke="midnightblue" points="189.667,-19.3657 199.293,-14.9384 189.007,-12.3969 189.667,-19.3657"/>
</g>
<!-- Node2 -->
<g id="node3" class="node"><title>Node2</title>
<g id="a_node3"><a xlink:href="deprecated_8h.html" target="_top" xlink:title="Control deprecated API definitions. ">
<polygon fill="white" stroke="black" points="175.314,-168.5 175.314,-187.5 282.314,-187.5 282.314,-168.5 175.314,-168.5"/>
<text text-anchor="middle" x="228.814" y="-175.5" font-family="Helvetica,sans-Serif" font-size="10.00">odp/api/deprecated.h</text>
</a>
</g>
</g>
<!-- Node0&#45;&gt;Node2 -->
<g id="edge2" class="edge"><title>Node0&#45;&gt;Node2</title>
<path fill="none" stroke="midnightblue" d="M228.814,-336.075C228.814,-309.945 228.814,-233.211 228.814,-197.577"/>
<polygon fill="midnightblue" stroke="midnightblue" points="232.314,-197.568 228.814,-187.568 225.314,-197.568 232.314,-197.568"/>
</g>
<!-- Node4 -->
<g id="node5" class="node"><title>Node4</title>
<g id="a_node5"><a xlink:href="visibility__end_8h_source.html" target="_top" xlink:title="odp/visibility_end.h">
<polygon fill="white" stroke="black" points="349.814,-0.5 349.814,-19.5 449.814,-19.5 449.814,-0.5 349.814,-0.5"/>
<text text-anchor="middle" x="399.814" y="-7.5" font-family="Helvetica,sans-Serif" font-size="10.00">odp/visibility_end.h</text>
</a>
</g>
</g>
<!-- Node0&#45;&gt;Node4 -->
<g id="edge31" class="edge"><title>Node0&#45;&gt;Node4</title>
<path fill="none" stroke="midnightblue" d="M233.213,-336.408C255.846,-292.201 359.331,-90.0719 390.745,-28.7129"/>
<polygon fill="midnightblue" stroke="midnightblue" points="394.002,-30.0313 395.444,-19.5351 387.771,-26.8413 394.002,-30.0313"/>
</g>
<!-- Node5 -->
<g id="node6" class="node"><title>Node5</title>
<g id="a_node6"><a xlink:href="support_8h.html" target="_top" xlink:title="ODP support API &#45; platform specific header. ">
<polygon fill="white" stroke="black" points="91.8137,-280.5 91.8137,-299.5 183.814,-299.5 183.814,-280.5 91.8137,-280.5"/>
<text text-anchor="middle" x="137.814" y="-287.5" font-family="Helvetica,sans-Serif" font-size="10.00">odp/api/support.h</text>
</a>
</g>
</g>
<!-- Node0&#45;&gt;Node5 -->
<g id="edge6" class="edge"><title>Node0&#45;&gt;Node5</title>
<path fill="none" stroke="midnightblue" d="M214.193,-336.324C199.865,-327.822 177.801,-314.729 161.065,-304.797"/>
<polygon fill="midnightblue" stroke="midnightblue" points="162.784,-301.748 152.398,-299.655 159.212,-307.768 162.784,-301.748"/>
</g>
<!-- Node7 -->
<g id="node8" class="node"><title>Node7</title>
<g id="a_node8"><a xlink:href="api_2packet_8h.html" target="_top" xlink:title="ODP packet descriptor. ">
<polygon fill="white" stroke="black" points="698.314,-280.5 698.314,-299.5 787.314,-299.5 787.314,-280.5 698.314,-280.5"/>
<text text-anchor="middle" x="742.814" y="-287.5" font-family="Helvetica,sans-Serif" font-size="10.00">odp/api/packet.h</text>
</a>
</g>
</g>
<!-- Node0&#45;&gt;Node7 -->
<g id="edge10" class="edge"><title>Node0&#45;&gt;Node7</title>
<path fill="none" stroke="midnightblue" d="M255.01,-342.248C335.175,-333.826 578.368,-308.276 688.084,-296.75"/>
<polygon fill="midnightblue" stroke="midnightblue" points="688.696,-300.205 698.275,-295.679 687.964,-293.243 688.696,-300.205"/>
</g>
<!-- Node3 -->
<g id="node4" class="node"><title>Node3</title>
<g id="a_node4"><a xlink:href="spec_2deprecated_8h.html" target="_top" xlink:title="Macro for deprecated API definitions. ">
<polygon fill="white" stroke="black" points="163.314,-56.5 163.314,-75.5 294.314,-75.5 294.314,-56.5 163.314,-56.5"/>
<text text-anchor="middle" x="228.814" y="-63.5" font-family="Helvetica,sans-Serif" font-size="10.00">odp/api/spec/deprecated.h</text>
</a>
</g>
</g>
<!-- Node2&#45;&gt;Node3 -->
<g id="edge3" class="edge"><title>Node2&#45;&gt;Node3</title>
<path fill="none" stroke="midnightblue" d="M228.814,-168.368C228.814,-150.617 228.814,-109.666 228.814,-85.5974"/>
<polygon fill="midnightblue" stroke="midnightblue" points="232.314,-85.5914 228.814,-75.5914 225.314,-85.5915 232.314,-85.5914"/>
</g>
<!-- Node3&#45;&gt;Node1 -->
<g id="edge4" class="edge"><title>Node3&#45;&gt;Node1</title>
<path fill="none" stroke="midnightblue" d="M232.777,-56.083C236.027,-48.77 240.733,-38.1814 244.768,-29.1034"/>
<polygon fill="midnightblue" stroke="midnightblue" points="248.061,-30.3107 248.924,-19.7511 241.665,-27.4677 248.061,-30.3107"/>
</g>
<!-- Node3&#45;&gt;Node4 -->
<g id="edge5" class="edge"><title>Node3&#45;&gt;Node4</title>
<path fill="none" stroke="midnightblue" d="M255.909,-56.4435C284.802,-47.3196 330.738,-32.8133 362.919,-22.6509"/>
<polygon fill="midnightblue" stroke="midnightblue" points="364.363,-25.8654 372.845,-19.5164 362.255,-19.1903 364.363,-25.8654"/>
</g>
<!-- Node6 -->
<g id="node7" class="node"><title>Node6</title>
<g id="a_node7"><a xlink:href="spec_2support_8h.html" target="_top" xlink:title="ODP support API. ">
<polygon fill="white" stroke="black" points="28.8137,-56.5 28.8137,-75.5 144.814,-75.5 144.814,-56.5 28.8137,-56.5"/>
<text text-anchor="middle" x="86.8137" y="-63.5" font-family="Helvetica,sans-Serif" font-size="10.00">odp/api/spec/support.h</text>
</a>
</g>
</g>
<!-- Node5&#45;&gt;Node6 -->
<g id="edge7" class="edge"><title>Node5&#45;&gt;Node6</title>
<path fill="none" stroke="midnightblue" d="M135.814,-280.297C128.294,-247.563 101.603,-131.375 91.1019,-85.6664"/>
<polygon fill="midnightblue" stroke="midnightblue" points="94.5047,-84.8462 88.8545,-75.8837 87.6824,-86.4135 94.5047,-84.8462"/>
</g>
<!-- Node6&#45;&gt;Node1 -->
<g id="edge8" class="edge"><title>Node6&#45;&gt;Node1</title>
<path fill="none" stroke="midnightblue" d="M113.117,-56.4435C141.165,-47.3196 185.758,-32.8133 216.998,-22.6509"/>
<polygon fill="midnightblue" stroke="midnightblue" points="218.207,-25.9383 226.634,-19.5164 216.041,-19.2816 218.207,-25.9383"/>
</g>
<!-- Node6&#45;&gt;Node4 -->
<g id="edge9" class="edge"><title>Node6&#45;&gt;Node4</title>
<path fill="none" stroke="midnightblue" d="M136.409,-56.4435C191.813,-46.8851 281.456,-31.4195 340.519,-21.2298"/>
<polygon fill="midnightblue" stroke="midnightblue" points="341.191,-24.6657 350.45,-19.5164 340,-17.7676 341.191,-24.6657"/>
</g>
<!-- Node8 -->
<g id="node9" class="node"><title>Node8</title>
<g id="a_node9"><a xlink:href="api_2std__types_8h.html" target="_top" xlink:title="Standard C language types and definitions for ODP. ">
<polygon fill="white" stroke="black" points="656.814,-112.5 656.814,-131.5 758.814,-131.5 758.814,-112.5 656.814,-112.5"/>
<text text-anchor="middle" x="707.814" y="-119.5" font-family="Helvetica,sans-Serif" font-size="10.00">odp/api/std_types.h</text>
</a>
</g>
</g>
<!-- Node7&#45;&gt;Node8 -->
<g id="edge11" class="edge"><title>Node7&#45;&gt;Node8</title>
<path fill="none" stroke="midnightblue" d="M749.447,-280.308C758.04,-267.97 771.304,-244.588 765.814,-224 757.177,-191.617 735.41,-158.828 721.136,-139.733"/>
<polygon fill="midnightblue" stroke="midnightblue" points="723.869,-137.545 715,-131.748 718.318,-141.81 723.869,-137.545"/>
</g>
<!-- Node12 -->
<g id="node13" class="node"><title>Node12</title>
<polygon fill="white" stroke="#bfbfbf" points="814.314,-224.5 814.314,-243.5 913.314,-243.5 913.314,-224.5 814.314,-224.5"/>
<text text-anchor="middle" x="863.814" y="-231.5" font-family="Helvetica,sans-Serif" font-size="10.00">odp/api/abi/event.h</text>
</g>
<!-- Node7&#45;&gt;Node12 -->
<g id="edge17" class="edge"><title>Node7&#45;&gt;Node12</title>
<path fill="none" stroke="midnightblue" d="M761.986,-280.444C781.723,-271.636 812.699,-257.812 835.307,-247.722"/>
<polygon fill="midnightblue" stroke="midnightblue" points="837.025,-250.788 844.731,-243.516 834.172,-244.396 837.025,-250.788"/>
</g>
<!-- Node13 -->
<g id="node14" class="node"><title>Node13</title>
<polygon fill="white" stroke="#bfbfbf" points="931.314,-224.5 931.314,-243.5 1048.31,-243.5 1048.31,-224.5 931.314,-224.5"/>
<text text-anchor="middle" x="989.814" y="-231.5" font-family="Helvetica,sans-Serif" font-size="10.00">odp/api/abi/packet_io.h</text>
</g>
<!-- Node7&#45;&gt;Node13 -->
<g id="edge18" class="edge"><title>Node7&#45;&gt;Node13</title>
<path fill="none" stroke="midnightblue" d="M781.952,-280.444C825.04,-271.023 894.373,-255.866 940.985,-245.675"/>
<polygon fill="midnightblue" stroke="midnightblue" points="941.837,-249.072 950.859,-243.516 940.342,-242.233 941.837,-249.072"/>
</g>
<!-- Node14 -->
<g id="node15" class="node"><title>Node14</title>
<polygon fill="white" stroke="#bfbfbf" points="1066.81,-224.5 1066.81,-243.5 1170.81,-243.5 1170.81,-224.5 1066.81,-224.5"/>
<text text-anchor="middle" x="1118.81" y="-231.5" font-family="Helvetica,sans-Serif" font-size="10.00">odp/api/abi/packet.h</text>
</g>
<!-- Node7&#45;&gt;Node14 -->
<g id="edge19" class="edge"><title>Node7&#45;&gt;Node14</title>
<path fill="none" stroke="midnightblue" d="M787.536,-282.617C848.442,-273.918 960.882,-257.837 1056.81,-244 1056.91,-243.985 1057.02,-243.971 1057.12,-243.956"/>
<polygon fill="midnightblue" stroke="midnightblue" points="1057.32,-247.463 1066.72,-242.569 1056.32,-240.535 1057.32,-247.463"/>
</g>
<!-- Node15 -->
<g id="node16" class="node"><title>Node15</title>
<polygon fill="white" stroke="#bfbfbf" points="414.814,-224.5 414.814,-243.5 514.814,-243.5 514.814,-224.5 414.814,-224.5"/>
<text text-anchor="middle" x="464.814" y="-231.5" font-family="Helvetica,sans-Serif" font-size="10.00">odp/api/abi/buffer.h</text>
</g>
<!-- Node7&#45;&gt;Node15 -->
<g id="edge20" class="edge"><title>Node7&#45;&gt;Node15</title>
<path fill="none" stroke="midnightblue" d="M698.764,-280.444C649.962,-270.964 571.25,-255.675 518.784,-245.483"/>
<polygon fill="midnightblue" stroke="midnightblue" points="519.141,-241.988 508.658,-243.516 517.807,-248.859 519.141,-241.988"/>
</g>
<!-- Node16 -->
<g id="node17" class="node"><title>Node16</title>
<polygon fill="white" stroke="#bfbfbf" points="533.314,-224.5 533.314,-243.5 626.314,-243.5 626.314,-224.5 533.314,-224.5"/>
<text text-anchor="middle" x="579.814" y="-231.5" font-family="Helvetica,sans-Serif" font-size="10.00">odp/api/abi/pool.h</text>
</g>
<!-- Node7&#45;&gt;Node16 -->
<g id="edge21" class="edge"><title>Node7&#45;&gt;Node16</title>
<path fill="none" stroke="midnightblue" d="M716.986,-280.444C689.564,-271.359 646.036,-256.939 615.381,-246.783"/>
<polygon fill="midnightblue" stroke="midnightblue" points="616.114,-243.339 605.521,-243.516 613.913,-249.984 616.114,-243.339"/>
</g>
<!-- Node17 -->
<g id="node18" class="node"><title>Node17</title>
<g id="a_node18"><a xlink:href="api_2spec_2packet_8h.html" target="_top" xlink:title="ODP packet descriptor. ">
<polygon fill="white" stroke="black" points="644.314,-224.5 644.314,-243.5 757.314,-243.5 757.314,-224.5 644.314,-224.5"/>
<text text-anchor="middle" x="700.814" y="-231.5" font-family="Helvetica,sans-Serif" font-size="10.00">odp/api/spec/packet.h</text>
</a>
</g>
</g>
<!-- Node7&#45;&gt;Node17 -->
<g id="edge22" class="edge"><title>Node7&#45;&gt;Node17</title>
<path fill="none" stroke="midnightblue" d="M735.878,-280.083C729.885,-272.377 721.062,-261.033 713.766,-251.653"/>
<polygon fill="midnightblue" stroke="midnightblue" points="716.522,-249.496 707.62,-243.751 710.997,-253.793 716.522,-249.496"/>
</g>
<!-- Node9 -->
<g id="node10" class="node"><title>Node9</title>
<polygon fill="white" stroke="#bfbfbf" points="508.814,-56.5 508.814,-75.5 626.814,-75.5 626.814,-56.5 508.814,-56.5"/>
<text text-anchor="middle" x="567.814" y="-63.5" font-family="Helvetica,sans-Serif" font-size="10.00">odp/api/abi/std_types.h</text>
</g>
<!-- Node8&#45;&gt;Node9 -->
<g id="edge12" class="edge"><title>Node8&#45;&gt;Node9</title>
<path fill="none" stroke="midnightblue" d="M685.63,-112.444C662.385,-103.478 625.665,-89.314 599.398,-79.1827"/>
<polygon fill="midnightblue" stroke="midnightblue" points="600.483,-75.8497 589.893,-75.5164 597.964,-82.3807 600.483,-75.8497"/>
</g>
<!-- Node10 -->
<g id="node11" class="node"><title>Node10</title>
<g id="a_node11"><a xlink:href="api_2spec_2std__types_8h.html" target="_top" xlink:title="Standard C language types and definitions for ODP. ">
<polygon fill="white" stroke="black" points="644.814,-56.5 644.814,-75.5 770.814,-75.5 770.814,-56.5 644.814,-56.5"/>
<text text-anchor="middle" x="707.814" y="-63.5" font-family="Helvetica,sans-Serif" font-size="10.00">odp/api/spec/std_types.h</text>
</a>
</g>
</g>
<!-- Node8&#45;&gt;Node10 -->
<g id="edge13" class="edge"><title>Node8&#45;&gt;Node10</title>
<path fill="none" stroke="midnightblue" d="M707.814,-112.083C707.814,-105.006 707.814,-94.8611 707.814,-85.9865"/>
<polygon fill="midnightblue" stroke="midnightblue" points="711.314,-85.751 707.814,-75.7511 704.314,-85.7511 711.314,-85.751"/>
</g>
<!-- Node10&#45;&gt;Node1 -->
<g id="edge14" class="edge"><title>Node10&#45;&gt;Node1</title>
<path fill="none" stroke="midnightblue" d="M644.601,-57.0716C641.631,-56.7075 638.69,-56.3487 635.814,-56 523.616,-42.3966 392.849,-27.1665 316.789,-18.3702"/>
<polygon fill="midnightblue" stroke="midnightblue" points="316.763,-14.844 306.427,-17.1726 315.959,-21.7977 316.763,-14.844"/>
</g>
<!-- Node10&#45;&gt;Node4 -->
<g id="edge16" class="edge"><title>Node10&#45;&gt;Node4</title>
<path fill="none" stroke="midnightblue" d="M659.01,-56.4435C604.604,-46.9049 516.645,-31.4834 458.522,-21.293"/>
<polygon fill="midnightblue" stroke="midnightblue" points="458.843,-17.796 448.389,-19.5164 457.634,-24.6908 458.843,-17.796"/>
</g>
<!-- Node11 -->
<g id="node12" class="node"><title>Node11</title>
<polygon fill="white" stroke="#bfbfbf" points="683.314,-0.5 683.314,-19.5 732.314,-19.5 732.314,-0.5 683.314,-0.5"/>
<text text-anchor="middle" x="707.814" y="-7.5" font-family="Helvetica,sans-Serif" font-size="10.00">stdint.h</text>
</g>
<!-- Node10&#45;&gt;Node11 -->
<g id="edge15" class="edge"><title>Node10&#45;&gt;Node11</title>
<path fill="none" stroke="midnightblue" d="M707.814,-56.083C707.814,-49.0059 707.814,-38.8611 707.814,-29.9865"/>
<polygon fill="midnightblue" stroke="midnightblue" points="711.314,-29.751 707.814,-19.7511 704.314,-29.7511 711.314,-29.751"/>
</g>
<!-- Node17&#45;&gt;Node1 -->
<g id="edge23" class="edge"><title>Node17&#45;&gt;Node1</title>
<path fill="none" stroke="midnightblue" d="M677.351,-224.379C654.482,-215.788 618.861,-201.906 588.814,-188 469.148,-132.619 331.391,-55.7437 276.841,-24.7568"/>
<polygon fill="midnightblue" stroke="midnightblue" points="278.359,-21.5935 267.937,-19.6862 274.895,-27.6763 278.359,-21.5935"/>
</g>
<!-- Node17&#45;&gt;Node4 -->
<g id="edge30" class="edge"><title>Node17&#45;&gt;Node4</title>
<path fill="none" stroke="midnightblue" d="M710.781,-224.231C741.118,-196.533 827.423,-109.58 779.814,-56 758.963,-32.5342 561.759,-19.1888 459.977,-13.8111"/>
<polygon fill="midnightblue" stroke="midnightblue" points="460.007,-10.3081 449.839,-13.2852 459.644,-17.2987 460.007,-10.3081"/>
</g>
<!-- Node18 -->
<g id="node19" class="node"><title>Node18</title>
<g id="a_node19"><a xlink:href="api_2time_8h.html" target="_top" xlink:title="ODP time. ">
<polygon fill="white" stroke="black" points="597.814,-168.5 597.814,-187.5 675.814,-187.5 675.814,-168.5 597.814,-168.5"/>
<text text-anchor="middle" x="636.814" y="-175.5" font-family="Helvetica,sans-Serif" font-size="10.00">odp/api/time.h</text>
</a>
</g>
</g>
<!-- Node17&#45;&gt;Node18 -->
<g id="edge24" class="edge"><title>Node17&#45;&gt;Node18</title>
<path fill="none" stroke="midnightblue" d="M690.531,-224.324C680.977,-216.263 666.534,-204.077 655.029,-194.369"/>
<polygon fill="midnightblue" stroke="midnightblue" points="657.183,-191.608 647.283,-187.834 652.669,-196.958 657.183,-191.608"/>
</g>
<!-- Node18&#45;&gt;Node8 -->
<g id="edge25" class="edge"><title>Node18&#45;&gt;Node8</title>
<path fill="none" stroke="midnightblue" d="M648.221,-168.324C658.922,-160.185 675.154,-147.839 687.976,-138.087"/>
<polygon fill="midnightblue" stroke="midnightblue" points="690.358,-140.673 696.199,-131.834 686.12,-135.102 690.358,-140.673"/>
</g>
<!-- Node19 -->
<g id="node20" class="node"><title>Node19</title>
<polygon fill="white" stroke="#bfbfbf" points="544.814,-112.5 544.814,-131.5 638.814,-131.5 638.814,-112.5 544.814,-112.5"/>
<text text-anchor="middle" x="591.814" y="-119.5" font-family="Helvetica,sans-Serif" font-size="10.00">odp/api/abi/time.h</text>
</g>
<!-- Node18&#45;&gt;Node19 -->
<g id="edge26" class="edge"><title>Node18&#45;&gt;Node19</title>
<path fill="none" stroke="midnightblue" d="M629.383,-168.083C622.961,-160.377 613.508,-149.033 605.691,-139.653"/>
<polygon fill="midnightblue" stroke="midnightblue" points="608.197,-137.193 599.106,-131.751 602.819,-141.674 608.197,-137.193"/>
</g>
<!-- Node20 -->
<g id="node21" class="node"><title>Node20</title>
<g id="a_node21"><a xlink:href="api_2spec_2time_8h.html" target="_top" xlink:title="ODP time. ">
<polygon fill="white" stroke="black" points="388.814,-56.5 388.814,-75.5 490.814,-75.5 490.814,-56.5 388.814,-56.5"/>
<text text-anchor="middle" x="439.814" y="-63.5" font-family="Helvetica,sans-Serif" font-size="10.00">odp/api/spec/time.h</text>
</a>
</g>
</g>
<!-- Node18&#45;&gt;Node20 -->
<g id="edge27" class="edge"><title>Node18&#45;&gt;Node20</title>
<path fill="none" stroke="midnightblue" d="M614.603,-168.423C593.77,-160.073 561.991,-146.545 535.814,-132 508.17,-116.64 478.298,-95.6504 459.345,-81.7268"/>
<polygon fill="midnightblue" stroke="midnightblue" points="461.33,-78.8418 451.214,-75.6937 457.159,-84.4633 461.33,-78.8418"/>
</g>
<!-- Node20&#45;&gt;Node1 -->
<g id="edge28" class="edge"><title>Node20&#45;&gt;Node1</title>
<path fill="none" stroke="midnightblue" d="M410.183,-56.4435C378.314,-47.2406 327.481,-32.5617 292.25,-22.3879"/>
<polygon fill="midnightblue" stroke="midnightblue" points="292.884,-18.9282 282.306,-19.5164 290.942,-25.6534 292.884,-18.9282"/>
</g>
<!-- Node20&#45;&gt;Node4 -->
<g id="edge29" class="edge"><title>Node20&#45;&gt;Node4</title>
<path fill="none" stroke="midnightblue" d="M433.208,-56.083C427.558,-48.4554 419.269,-37.2645 412.362,-27.9408"/>
<polygon fill="midnightblue" stroke="midnightblue" points="415.061,-25.7034 406.296,-19.7511 409.436,-29.87 415.061,-25.7034"/>
</g>
</g>
</svg>
