<?xml version="1.0" encoding="UTF-8" standalone="no"?>
<!DOCTYPE svg PUBLIC "-//W3C//DTD SVG 1.1//EN"
 "http://www.w3.org/Graphics/SVG/1.1/DTD/svg11.dtd">
<!-- Generated by graphviz version 2.36.0 (20140111.2315)
 -->
<!-- Title: init.h Pages: 1 -->
<svg width="392pt" height="364pt"
 viewBox="0.00 0.00 392.00 364.00" xmlns="http://www.w3.org/2000/svg" xmlns:xlink="http://www.w3.org/1999/xlink">
<g id="graph0" class="graph" transform="scale(1 1) rotate(0) translate(4 360)">
<title>init.h</title>
<polygon fill="white" stroke="none" points="-4,4 -4,-360 388,-360 388,4 -4,4"/>
<!-- Node7 -->
<g id="node1" class="node"><title>Node7</title>
<polygon fill="#bfbfbf" stroke="black" points="168,-336.5 168,-355.5 206,-355.5 206,-336.5 168,-336.5"/>
<text text-anchor="middle" x="187" y="-343.5" font-family="Helvetica,sans-Serif" font-size="10.00">init.h</text>
</g>
<!-- Node8 -->
<g id="node2" class="node"><title>Node8</title>
<g id="a_node2"><a xlink:href="arch_2arm32-linux_2odp_2api_2abi_2init_8h_source.html" target="_top" xlink:title="init.h">
<polygon fill="white" stroke="black" points="0,-280.5 0,-299.5 38,-299.5 38,-280.5 0,-280.5"/>
<text text-anchor="middle" x="19" y="-287.5" font-family="Helvetica,sans-Serif" font-size="10.00">init.h</text>
</a>
</g>
</g>
<!-- Node7&#45;&gt;Node8 -->
<g id="edge1" class="edge"><title>Node7&#45;&gt;Node8</title>
<path fill="none" stroke="midnightblue" d="M157.808,-335.617C123.418,-324.563 67.2782,-306.518 38.047,-297.122"/>
<polygon fill="midnightblue" stroke="midnightblue" points="157.137,-339.077 167.728,-338.806 159.279,-332.413 157.137,-339.077"/>
</g>
<!-- Node9 -->
<g id="node3" class="node"><title>Node9</title>
<g id="a_node3"><a xlink:href="arch_2arm64-linux_2odp_2api_2abi_2init_8h_source.html" target="_top" xlink:title="init.h">
<polygon fill="white" stroke="black" points="56,-280.5 56,-299.5 94,-299.5 94,-280.5 56,-280.5"/>
<text text-anchor="middle" x="75" y="-287.5" font-family="Helvetica,sans-Serif" font-size="10.00">init.h</text>
</a>
</g>
</g>
<!-- Node7&#45;&gt;Node9 -->
<g id="edge2" class="edge"><title>Node7&#45;&gt;Node9</title>
<path fill="none" stroke="midnightblue" d="M159.751,-331.862C138.984,-321.849 110.977,-308.346 92.9501,-299.655"/>
<polygon fill="midnightblue" stroke="midnightblue" points="158.477,-335.134 169.005,-336.324 161.518,-328.828 158.477,-335.134"/>
</g>
<!-- Node10 -->
<g id="node4" class="node"><title>Node10</title>
<g id="a_node4"><a xlink:href="arch_2default-linux_2odp_2api_2abi_2init_8h_source.html" target="_top" xlink:title="init.h">
<polygon fill="white" stroke="black" points="112,-280.5 112,-299.5 150,-299.5 150,-280.5 112,-280.5"/>
<text text-anchor="middle" x="131" y="-287.5" font-family="Helvetica,sans-Serif" font-size="10.00">init.h</text>
</a>
</g>
</g>
<!-- Node7&#45;&gt;Node10 -->
<g id="edge3" class="edge"><title>Node7&#45;&gt;Node10</title>
<path fill="none" stroke="midnightblue" d="M170.67,-329.253C160.735,-319.673 148.412,-307.791 140.161,-299.834"/>
<polygon fill="midnightblue" stroke="midnightblue" points="168.375,-331.902 178.003,-336.324 173.234,-326.863 168.375,-331.902"/>
</g>
<!-- Node11 -->
<g id="node5" class="node"><title>Node11</title>
<g id="a_node5"><a xlink:href="arch_2mips64-linux_2odp_2api_2abi_2init_8h_source.html" target="_top" xlink:title="init.h">
<polygon fill="white" stroke="black" points="168,-280.5 168,-299.5 206,-299.5 206,-280.5 168,-280.5"/>
<text text-anchor="middle" x="187" y="-287.5" font-family="Helvetica,sans-Serif" font-size="10.00">init.h</text>
</a>
</g>
</g>
<!-- Node7&#45;&gt;Node11 -->
<g id="edge4" class="edge"><title>Node7&#45;&gt;Node11</title>
<path fill="none" stroke="midnightblue" d="M187,-325.805C187,-316.91 187,-306.78 187,-299.751"/>
<polygon fill="midnightblue" stroke="midnightblue" points="183.5,-326.083 187,-336.083 190.5,-326.083 183.5,-326.083"/>
</g>
<!-- Node12 -->
<g id="node6" class="node"><title>Node12</title>
<g id="a_node6"><a xlink:href="arch_2power64-linux_2odp_2api_2abi_2init_8h_source.html" target="_top" xlink:title="init.h">
<polygon fill="white" stroke="black" points="224,-280.5 224,-299.5 262,-299.5 262,-280.5 224,-280.5"/>
<text text-anchor="middle" x="243" y="-287.5" font-family="Helvetica,sans-Serif" font-size="10.00">init.h</text>
</a>
</g>
</g>
<!-- Node7&#45;&gt;Node12 -->
<g id="edge5" class="edge"><title>Node7&#45;&gt;Node12</title>
<path fill="none" stroke="midnightblue" d="M203.33,-329.253C213.265,-319.673 225.588,-307.791 233.839,-299.834"/>
<polygon fill="midnightblue" stroke="midnightblue" points="200.766,-326.863 195.997,-336.324 205.625,-331.902 200.766,-326.863"/>
</g>
<!-- Node13 -->
<g id="node7" class="node"><title>Node13</title>
<g id="a_node7"><a xlink:href="arch_2x86__32-linux_2odp_2api_2abi_2init_8h_source.html" target="_top" xlink:title="init.h">
<polygon fill="white" stroke="black" points="280,-280.5 280,-299.5 318,-299.5 318,-280.5 280,-280.5"/>
<text text-anchor="middle" x="299" y="-287.5" font-family="Helvetica,sans-Serif" font-size="10.00">init.h</text>
</a>
</g>
</g>
<!-- Node7&#45;&gt;Node13 -->
<g id="edge6" class="edge"><title>Node7&#45;&gt;Node13</title>
<path fill="none" stroke="midnightblue" d="M214.249,-331.862C235.016,-321.849 263.023,-308.346 281.05,-299.655"/>
<polygon fill="midnightblue" stroke="midnightblue" points="212.482,-328.828 204.995,-336.324 215.523,-335.134 212.482,-328.828"/>
</g>
<!-- Node14 -->
<g id="node8" class="node"><title>Node14</title>
<g id="a_node8"><a xlink:href="arch_2x86__64-linux_2odp_2api_2abi_2init_8h_source.html" target="_top" xlink:title="init.h">
<polygon fill="white" stroke="black" points="336,-280.5 336,-299.5 374,-299.5 374,-280.5 336,-280.5"/>
<text text-anchor="middle" x="355" y="-287.5" font-family="Helvetica,sans-Serif" font-size="10.00">init.h</text>
</a>
</g>
</g>
<!-- Node7&#45;&gt;Node14 -->
<g id="edge7" class="edge"><title>Node7&#45;&gt;Node14</title>
<path fill="none" stroke="midnightblue" d="M216.192,-335.617C250.582,-324.563 306.722,-306.518 335.953,-297.122"/>
<polygon fill="midnightblue" stroke="midnightblue" points="214.721,-332.413 206.272,-338.806 216.863,-339.077 214.721,-332.413"/>
</g>
<!-- Node15 -->
<g id="node9" class="node"><title>Node15</title>
<g id="a_node9"><a xlink:href="api_2init_8h.html" target="_top" xlink:title="ODP initialization. ">
<polygon fill="white" stroke="black" points="336,-224.5 336,-243.5 374,-243.5 374,-224.5 336,-224.5"/>
<text text-anchor="middle" x="355" y="-231.5" font-family="Helvetica,sans-Serif" font-size="10.00">init.h</text>
</a>
</g>
</g>
<!-- Node14&#45;&gt;Node15 -->
<g id="edge8" class="edge"><title>Node14&#45;&gt;Node15</title>
<path fill="none" stroke="midnightblue" d="M355,-269.805C355,-260.91 355,-250.78 355,-243.751"/>
<polygon fill="midnightblue" stroke="midnightblue" points="351.5,-270.083 355,-280.083 358.5,-270.083 351.5,-270.083"/>
</g>
<!-- Node16 -->
<g id="node10" class="node"><title>Node16</title>
<g id="a_node10"><a xlink:href="api_2spec_2shared__memory_8h.html" target="_top" xlink:title="ODP shared memory. ">
<polygon fill="white" stroke="black" points="269.5,-168.5 269.5,-187.5 364.5,-187.5 364.5,-168.5 269.5,-168.5"/>
<text text-anchor="middle" x="317" y="-175.5" font-family="Helvetica,sans-Serif" font-size="10.00">shared_memory.h</text>
</a>
</g>
</g>
<!-- Node15&#45;&gt;Node16 -->
<g id="edge9" class="edge"><title>Node15&#45;&gt;Node16</title>
<path fill="none" stroke="midnightblue" d="M342.935,-215.855C336.355,-206.505 328.489,-195.327 323.158,-187.751"/>
<polygon fill="midnightblue" stroke="midnightblue" points="340.108,-217.919 348.725,-224.083 345.832,-213.891 340.108,-217.919"/>
</g>
<!-- Node18 -->
<g id="node12" class="node"><title>Node18</title>
<g id="a_node12"><a xlink:href="odp__api_8h.html" target="_top" xlink:title="The OpenDataPlane API. ">
<polygon fill="white" stroke="black" points="325.5,-56.5 325.5,-75.5 384.5,-75.5 384.5,-56.5 325.5,-56.5"/>
<text text-anchor="middle" x="355" y="-63.5" font-family="Helvetica,sans-Serif" font-size="10.00">odp_api.h</text>
</a>
</g>
</g>
<!-- Node15&#45;&gt;Node18 -->
<g id="edge13" class="edge"><title>Node15&#45;&gt;Node18</title>
<path fill="none" stroke="midnightblue" d="M363.939,-215.195C367.517,-207.111 371.21,-197.295 373,-188 379.388,-154.832 379.388,-145.168 373,-112 370.454,-98.78 364.059,-84.5069 359.621,-75.6611"/>
<polygon fill="midnightblue" stroke="midnightblue" points="360.727,-213.802 359.621,-224.339 367.056,-216.791 360.727,-213.802"/>
</g>
<!-- Node17 -->
<g id="node11" class="node"><title>Node17</title>
<g id="a_node11"><a xlink:href="api_2shared__memory_8h.html" target="_top" xlink:title="ODP shared memory. ">
<polygon fill="white" stroke="black" points="269.5,-112.5 269.5,-131.5 364.5,-131.5 364.5,-112.5 269.5,-112.5"/>
<text text-anchor="middle" x="317" y="-119.5" font-family="Helvetica,sans-Serif" font-size="10.00">shared_memory.h</text>
</a>
</g>
</g>
<!-- Node16&#45;&gt;Node17 -->
<g id="edge10" class="edge"><title>Node16&#45;&gt;Node17</title>
<path fill="none" stroke="midnightblue" d="M317,-157.805C317,-148.91 317,-138.78 317,-131.751"/>
<polygon fill="midnightblue" stroke="midnightblue" points="313.5,-158.083 317,-168.083 320.5,-158.083 313.5,-158.083"/>
</g>
<!-- Node17&#45;&gt;Node18 -->
<g id="edge11" class="edge"><title>Node17&#45;&gt;Node18</title>
<path fill="none" stroke="midnightblue" d="M329.065,-103.855C335.645,-94.5048 343.511,-83.3265 348.842,-75.7511"/>
<polygon fill="midnightblue" stroke="midnightblue" points="326.168,-101.891 323.275,-112.083 331.892,-105.919 326.168,-101.891"/>
</g>
<!-- Node19 -->
<g id="node13" class="node"><title>Node19</title>
<g id="a_node13"><a xlink:href="odp_8h.html" target="_top" xlink:title="WARNING: THIS FILE IS DEPRECATED AND WILL BE REMOVED!!! ODP APPLICATIONS SHOULD NOW INCLUDE odp_api...">
<polygon fill="white" stroke="black" points="334.5,-0.5 334.5,-19.5 375.5,-19.5 375.5,-0.5 334.5,-0.5"/>
<text text-anchor="middle" x="355" y="-7.5" font-family="Helvetica,sans-Serif" font-size="10.00">odp.h</text>
</a>
</g>
</g>
<!-- Node18&#45;&gt;Node19 -->
<g id="edge12" class="edge"><title>Node18&#45;&gt;Node19</title>
<path fill="none" stroke="midnightblue" d="M355,-45.8045C355,-36.9102 355,-26.7798 355,-19.7511"/>
<polygon fill="midnightblue" stroke="midnightblue" points="351.5,-46.083 355,-56.083 358.5,-46.083 351.5,-46.083"/>
</g>
</g>
</svg>
