<?xml version="1.0" encoding="UTF-8" standalone="no"?>
<!DOCTYPE svg PUBLIC "-//W3C//DTD SVG 1.1//EN"
 "http://www.w3.org/Graphics/SVG/1.1/DTD/svg11.dtd">
<!-- Generated by graphviz version 2.36.0 (20140111.2315)
 -->
<!-- Title: spinlock.h Pages: 1 -->
<svg width="307pt" height="140pt"
 viewBox="0.00 0.00 307.00 140.00" xmlns="http://www.w3.org/2000/svg" xmlns:xlink="http://www.w3.org/1999/xlink">
<g id="graph0" class="graph" transform="scale(1 1) rotate(0) translate(4 136)">
<title>spinlock.h</title>
<polygon fill="white" stroke="none" points="-4,4 -4,-136 303,-136 303,4 -4,4"/>
<!-- Node0 -->
<g id="node1" class="node"><title>Node0</title>
<polygon fill="#bfbfbf" stroke="black" points="90.5,-112.5 90.5,-131.5 151.5,-131.5 151.5,-112.5 90.5,-112.5"/>
<text text-anchor="middle" x="121" y="-119.5" font-family="Helvetica,sans-Serif" font-size="10.00">spinlock.h</text>
</g>
<!-- Node1 -->
<g id="node2" class="node"><title>Node1</title>
<polygon fill="white" stroke="#bfbfbf" points="-0.5,-56.5 -0.5,-75.5 110.5,-75.5 110.5,-56.5 -0.5,-56.5"/>
<text text-anchor="middle" x="55" y="-63.5" font-family="Helvetica,sans-Serif" font-size="10.00">odp/api/abi/spinlock.h</text>
</g>
<!-- Node0&#45;&gt;Node1 -->
<g id="edge1" class="edge"><title>Node0&#45;&gt;Node1</title>
<path fill="none" stroke="midnightblue" d="M110.396,-112.324C100.544,-104.263 85.6491,-92.0765 73.7849,-82.3695"/>
<polygon fill="midnightblue" stroke="midnightblue" points="75.7529,-79.4575 65.797,-75.8339 71.3202,-84.8752 75.7529,-79.4575"/>
</g>
<!-- Node2 -->
<g id="node3" class="node"><title>Node2</title>
<g id="a_node3"><a xlink:href="api_2spec_2spinlock_8h.html" target="_top" xlink:title="ODP spinlock. ">
<polygon fill="white" stroke="black" points="128.5,-56.5 128.5,-75.5 247.5,-75.5 247.5,-56.5 128.5,-56.5"/>
<text text-anchor="middle" x="188" y="-63.5" font-family="Helvetica,sans-Serif" font-size="10.00">odp/api/spec/spinlock.h</text>
</a>
</g>
</g>
<!-- Node0&#45;&gt;Node2 -->
<g id="edge2" class="edge"><title>Node0&#45;&gt;Node2</title>
<path fill="none" stroke="midnightblue" d="M131.765,-112.324C141.766,-104.263 156.887,-92.0765 168.93,-82.3695"/>
<polygon fill="midnightblue" stroke="midnightblue" points="171.45,-84.8343 177.039,-75.8339 167.057,-79.3841 171.45,-84.8343"/>
</g>
<!-- Node3 -->
<g id="node4" class="node"><title>Node3</title>
<g id="a_node4"><a xlink:href="visibility__begin_8h_source.html" target="_top" xlink:title="odp/visibility_begin.h">
<polygon fill="white" stroke="black" points="73.5,-0.5 73.5,-19.5 180.5,-19.5 180.5,-0.5 73.5,-0.5"/>
<text text-anchor="middle" x="127" y="-7.5" font-family="Helvetica,sans-Serif" font-size="10.00">odp/visibility_begin.h</text>
</a>
</g>
</g>
<!-- Node2&#45;&gt;Node3 -->
<g id="edge3" class="edge"><title>Node2&#45;&gt;Node3</title>
<path fill="none" stroke="midnightblue" d="M178.199,-56.324C169.182,-48.3414 155.594,-36.3128 144.682,-26.6529"/>
<polygon fill="midnightblue" stroke="midnightblue" points="146.787,-23.8416 136.979,-19.8339 142.147,-29.083 146.787,-23.8416"/>
</g>
<!-- Node4 -->
<g id="node5" class="node"><title>Node4</title>
<g id="a_node5"><a xlink:href="visibility__end_8h_source.html" target="_top" xlink:title="odp/visibility_end.h">
<polygon fill="white" stroke="black" points="199,-0.5 199,-19.5 299,-19.5 299,-0.5 199,-0.5"/>
<text text-anchor="middle" x="249" y="-7.5" font-family="Helvetica,sans-Serif" font-size="10.00">odp/visibility_end.h</text>
</a>
</g>
</g>
<!-- Node2&#45;&gt;Node4 -->
<g id="edge4" class="edge"><title>Node2&#45;&gt;Node4</title>
<path fill="none" stroke="midnightblue" d="M197.801,-56.324C206.818,-48.3414 220.406,-36.3128 231.318,-26.6529"/>
<polygon fill="midnightblue" stroke="midnightblue" points="233.853,-29.083 239.021,-19.8339 229.213,-23.8416 233.853,-29.083"/>
</g>
</g>
</svg>
