<?xml version="1.0" encoding="UTF-8" standalone="no"?>
<!DOCTYPE svg PUBLIC "-//W3C//DTD SVG 1.1//EN"
 "http://www.w3.org/Graphics/SVG/1.1/DTD/svg11.dtd">
<!-- Generated by graphviz version 2.36.0 (20140111.2315)
 -->
<!-- Title: packet_io.h Pages: 1 -->
<svg width="1011pt" height="812pt"
 viewBox="0.00 0.00 1010.84 812.00" xmlns="http://www.w3.org/2000/svg" xmlns:xlink="http://www.w3.org/1999/xlink">
<g id="graph0" class="graph" transform="scale(1 1) rotate(0) translate(4 808)">
<title>packet_io.h</title>
<polygon fill="white" stroke="none" points="-4,4 -4,-808 1006.84,-808 1006.84,4 -4,4"/>
<!-- Node7 -->
<g id="node1" class="node"><title>Node7</title>
<polygon fill="#bfbfbf" stroke="black" points="254.5,-784.5 254.5,-803.5 321.5,-803.5 321.5,-784.5 254.5,-784.5"/>
<text text-anchor="middle" x="288" y="-791.5" font-family="Helvetica,sans-Serif" font-size="10.00">packet_io.h</text>
</g>
<!-- Node8 -->
<g id="node2" class="node"><title>Node8</title>
<g id="a_node2"><a xlink:href="arch_2arm32-linux_2odp_2api_2abi_2packet__io_8h_source.html" target="_top" xlink:title="packet_io.h">
<polygon fill="white" stroke="black" points="-0.5,-728.5 -0.5,-747.5 66.5,-747.5 66.5,-728.5 -0.5,-728.5"/>
<text text-anchor="middle" x="33" y="-735.5" font-family="Helvetica,sans-Serif" font-size="10.00">packet_io.h</text>
</a>
</g>
</g>
<!-- Node7&#45;&gt;Node8 -->
<g id="edge1" class="edge"><title>Node7&#45;&gt;Node8</title>
<path fill="none" stroke="midnightblue" d="M244.564,-783.862C201.514,-774.796 133.694,-760.489 75,-748 72.3742,-747.441 69.6563,-746.862 66.9242,-746.278"/>
<polygon fill="midnightblue" stroke="midnightblue" points="243.916,-787.302 254.423,-785.937 245.358,-780.452 243.916,-787.302"/>
</g>
<!-- Node9 -->
<g id="node3" class="node"><title>Node9</title>
<g id="a_node3"><a xlink:href="arch_2arm64-linux_2odp_2api_2abi_2packet__io_8h_source.html" target="_top" xlink:title="packet_io.h">
<polygon fill="white" stroke="black" points="84.5,-728.5 84.5,-747.5 151.5,-747.5 151.5,-728.5 84.5,-728.5"/>
<text text-anchor="middle" x="118" y="-735.5" font-family="Helvetica,sans-Serif" font-size="10.00">packet_io.h</text>
</a>
</g>
</g>
<!-- Node7&#45;&gt;Node9 -->
<g id="edge2" class="edge"><title>Node7&#45;&gt;Node9</title>
<path fill="none" stroke="midnightblue" d="M251.181,-781.304C219.148,-771.129 173.485,-756.625 144.811,-747.516"/>
<polygon fill="midnightblue" stroke="midnightblue" points="250.473,-784.752 261.063,-784.444 252.592,-778.08 250.473,-784.752"/>
</g>
<!-- Node10 -->
<g id="node4" class="node"><title>Node10</title>
<g id="a_node4"><a xlink:href="arch_2default-linux_2odp_2api_2abi_2packet__io_8h_source.html" target="_top" xlink:title="packet_io.h">
<polygon fill="white" stroke="black" points="169.5,-728.5 169.5,-747.5 236.5,-747.5 236.5,-728.5 169.5,-728.5"/>
<text text-anchor="middle" x="203" y="-735.5" font-family="Helvetica,sans-Serif" font-size="10.00">packet_io.h</text>
</a>
</g>
</g>
<!-- Node7&#45;&gt;Node10 -->
<g id="edge3" class="edge"><title>Node7&#45;&gt;Node10</title>
<path fill="none" stroke="midnightblue" d="M265.806,-778.901C250.22,-768.999 229.87,-756.071 216.623,-747.655"/>
<polygon fill="midnightblue" stroke="midnightblue" points="264.026,-781.916 274.343,-784.324 267.779,-776.007 264.026,-781.916"/>
</g>
<!-- Node11 -->
<g id="node5" class="node"><title>Node11</title>
<g id="a_node5"><a xlink:href="arch_2mips64-linux_2odp_2api_2abi_2packet__io_8h_source.html" target="_top" xlink:title="packet_io.h">
<polygon fill="white" stroke="black" points="254.5,-728.5 254.5,-747.5 321.5,-747.5 321.5,-728.5 254.5,-728.5"/>
<text text-anchor="middle" x="288" y="-735.5" font-family="Helvetica,sans-Serif" font-size="10.00">packet_io.h</text>
</a>
</g>
</g>
<!-- Node7&#45;&gt;Node11 -->
<g id="edge4" class="edge"><title>Node7&#45;&gt;Node11</title>
<path fill="none" stroke="midnightblue" d="M288,-773.805C288,-764.91 288,-754.78 288,-747.751"/>
<polygon fill="midnightblue" stroke="midnightblue" points="284.5,-774.083 288,-784.083 291.5,-774.083 284.5,-774.083"/>
</g>
<!-- Node12 -->
<g id="node6" class="node"><title>Node12</title>
<g id="a_node6"><a xlink:href="arch_2power64-linux_2odp_2api_2abi_2packet__io_8h_source.html" target="_top" xlink:title="packet_io.h">
<polygon fill="white" stroke="black" points="339.5,-728.5 339.5,-747.5 406.5,-747.5 406.5,-728.5 339.5,-728.5"/>
<text text-anchor="middle" x="373" y="-735.5" font-family="Helvetica,sans-Serif" font-size="10.00">packet_io.h</text>
</a>
</g>
</g>
<!-- Node7&#45;&gt;Node12 -->
<g id="edge5" class="edge"><title>Node7&#45;&gt;Node12</title>
<path fill="none" stroke="midnightblue" d="M310.194,-778.901C325.78,-768.999 346.13,-756.071 359.377,-747.655"/>
<polygon fill="midnightblue" stroke="midnightblue" points="308.221,-776.007 301.657,-784.324 311.974,-781.916 308.221,-776.007"/>
</g>
<!-- Node13 -->
<g id="node7" class="node"><title>Node13</title>
<g id="a_node7"><a xlink:href="arch_2x86__32-linux_2odp_2api_2abi_2packet__io_8h_source.html" target="_top" xlink:title="packet_io.h">
<polygon fill="white" stroke="black" points="424.5,-728.5 424.5,-747.5 491.5,-747.5 491.5,-728.5 424.5,-728.5"/>
<text text-anchor="middle" x="458" y="-735.5" font-family="Helvetica,sans-Serif" font-size="10.00">packet_io.h</text>
</a>
</g>
</g>
<!-- Node7&#45;&gt;Node13 -->
<g id="edge6" class="edge"><title>Node7&#45;&gt;Node13</title>
<path fill="none" stroke="midnightblue" d="M324.819,-781.304C356.852,-771.129 402.515,-756.625 431.189,-747.516"/>
<polygon fill="midnightblue" stroke="midnightblue" points="323.408,-778.08 314.937,-784.444 325.527,-784.752 323.408,-778.08"/>
</g>
<!-- Node14 -->
<g id="node8" class="node"><title>Node14</title>
<g id="a_node8"><a xlink:href="arch_2x86__64-linux_2odp_2api_2abi_2packet__io_8h_source.html" target="_top" xlink:title="packet_io.h">
<polygon fill="white" stroke="black" points="509.5,-728.5 509.5,-747.5 576.5,-747.5 576.5,-728.5 509.5,-728.5"/>
<text text-anchor="middle" x="543" y="-735.5" font-family="Helvetica,sans-Serif" font-size="10.00">packet_io.h</text>
</a>
</g>
</g>
<!-- Node7&#45;&gt;Node14 -->
<g id="edge7" class="edge"><title>Node7&#45;&gt;Node14</title>
<path fill="none" stroke="midnightblue" d="M331.531,-783.782C381.857,-773.124 463.612,-755.812 509.327,-746.131"/>
<polygon fill="midnightblue" stroke="midnightblue" points="330.657,-780.389 321.599,-785.885 332.107,-787.237 330.657,-780.389"/>
</g>
<!-- Node15 -->
<g id="node9" class="node"><title>Node15</title>
<g id="a_node9"><a xlink:href="api_2classification_8h.html" target="_top" xlink:title="ODP classification descriptor. ">
<polygon fill="white" stroke="black" points="418,-224.5 418,-243.5 500,-243.5 500,-224.5 418,-224.5"/>
<text text-anchor="middle" x="459" y="-231.5" font-family="Helvetica,sans-Serif" font-size="10.00">classification.h</text>
</a>
</g>
</g>
<!-- Node14&#45;&gt;Node15 -->
<g id="edge8" class="edge"><title>Node14&#45;&gt;Node15</title>
<path fill="none" stroke="midnightblue" d="M499.809,-725.987C454.563,-711.544 390,-681.404 390,-627 390,-627 390,-627 390,-345 390,-314.902 392.982,-305.482 409,-280 418.447,-264.971 434.303,-251.925 445.626,-243.805"/>
<polygon fill="midnightblue" stroke="midnightblue" points="498.838,-729.35 509.424,-728.916 500.878,-722.653 498.838,-729.35"/>
</g>
<!-- Node20 -->
<g id="node14" class="node"><title>Node20</title>
<g id="a_node14"><a xlink:href="api_2packet_8h.html" target="_top" xlink:title="ODP packet descriptor. ">
<polygon fill="white" stroke="black" points="676,-672.5 676,-691.5 730,-691.5 730,-672.5 676,-672.5"/>
<text text-anchor="middle" x="703" y="-679.5" font-family="Helvetica,sans-Serif" font-size="10.00">packet.h</text>
</a>
</g>
</g>
<!-- Node14&#45;&gt;Node20 -->
<g id="edge14" class="edge"><title>Node14&#45;&gt;Node20</title>
<path fill="none" stroke="midnightblue" d="M578.046,-725.172C608.174,-715.004 650.896,-700.585 677.766,-691.516"/>
<polygon fill="midnightblue" stroke="midnightblue" points="576.708,-721.929 568.352,-728.444 578.947,-728.562 576.708,-721.929"/>
</g>
<!-- Node30 -->
<g id="node24" class="node"><title>Node30</title>
<g id="a_node24"><a xlink:href="api_2packet__io_8h.html" target="_top" xlink:title="ODP Packet IO. ">
<polygon fill="white" stroke="black" points="535.5,-336.5 535.5,-355.5 602.5,-355.5 602.5,-336.5 535.5,-336.5"/>
<text text-anchor="middle" x="569" y="-343.5" font-family="Helvetica,sans-Serif" font-size="10.00">packet_io.h</text>
</a>
</g>
</g>
<!-- Node14&#45;&gt;Node30 -->
<g id="edge47" class="edge"><title>Node14&#45;&gt;Node30</title>
<path fill="none" stroke="midnightblue" d="M543,-718.251C543,-696.357 543,-659.052 543,-627 543,-627 543,-627 543,-457 543,-418.342 558.397,-374.041 565.494,-355.675"/>
<polygon fill="midnightblue" stroke="midnightblue" points="539.5,-718.442 543,-728.442 546.5,-718.442 539.5,-718.442"/>
</g>
<!-- Node16 -->
<g id="node10" class="node"><title>Node16</title>
<g id="a_node10"><a xlink:href="api_2spec_2ipsec_8h.html" target="_top" xlink:title="ODP IPSEC API. ">
<polygon fill="white" stroke="black" points="516,-168.5 516,-187.5 564,-187.5 564,-168.5 516,-168.5"/>
<text text-anchor="middle" x="540" y="-175.5" font-family="Helvetica,sans-Serif" font-size="10.00">ipsec.h</text>
</a>
</g>
</g>
<!-- Node15&#45;&gt;Node16 -->
<g id="edge9" class="edge"><title>Node15&#45;&gt;Node16</title>
<path fill="none" stroke="midnightblue" d="M480.567,-218.622C495.364,-208.757 514.512,-195.992 527.018,-187.655"/>
<polygon fill="midnightblue" stroke="midnightblue" points="478.393,-215.865 472.014,-224.324 482.276,-221.689 478.393,-215.865"/>
</g>
<!-- Node18 -->
<g id="node12" class="node"><title>Node18</title>
<g id="a_node12"><a xlink:href="odp__api_8h.html" target="_top" xlink:title="The OpenDataPlane API. ">
<polygon fill="white" stroke="black" points="708.5,-56.5 708.5,-75.5 767.5,-75.5 767.5,-56.5 708.5,-56.5"/>
<text text-anchor="middle" x="738" y="-63.5" font-family="Helvetica,sans-Serif" font-size="10.00">odp_api.h</text>
</a>
</g>
</g>
<!-- Node15&#45;&gt;Node18 -->
<g id="edge13" class="edge"><title>Node15&#45;&gt;Node18</title>
<path fill="none" stroke="midnightblue" d="M464.194,-214.61C472.8,-187.664 492.669,-137.859 528,-112 582.309,-72.2511 664.432,-66.1833 708.148,-66.0615"/>
<polygon fill="midnightblue" stroke="midnightblue" points="460.801,-213.738 461.268,-224.323 467.504,-215.758 460.801,-213.738"/>
</g>
<!-- Node17 -->
<g id="node11" class="node"><title>Node17</title>
<g id="a_node11"><a xlink:href="api_2ipsec_8h.html" target="_top" xlink:title="ODP IPSEC API &#45; platform specific header. ">
<polygon fill="white" stroke="black" points="537,-112.5 537,-131.5 585,-131.5 585,-112.5 537,-112.5"/>
<text text-anchor="middle" x="561" y="-119.5" font-family="Helvetica,sans-Serif" font-size="10.00">ipsec.h</text>
</a>
</g>
</g>
<!-- Node16&#45;&gt;Node17 -->
<g id="edge10" class="edge"><title>Node16&#45;&gt;Node17</title>
<path fill="none" stroke="midnightblue" d="M547.121,-158.69C550.66,-149.589 554.772,-139.014 557.597,-131.751"/>
<polygon fill="midnightblue" stroke="midnightblue" points="543.83,-157.494 543.468,-168.083 550.354,-160.032 543.83,-157.494"/>
</g>
<!-- Node17&#45;&gt;Node18 -->
<g id="edge11" class="edge"><title>Node17&#45;&gt;Node18</title>
<path fill="none" stroke="midnightblue" d="M595.024,-110.62C628.435,-100.427 678.797,-85.0619 709.972,-75.5509"/>
<polygon fill="midnightblue" stroke="midnightblue" points="593.783,-107.339 585.24,-113.605 595.826,-114.034 593.783,-107.339"/>
</g>
<!-- Node19 -->
<g id="node13" class="node"><title>Node19</title>
<g id="a_node13"><a xlink:href="odp_8h.html" target="_top" xlink:title="WARNING: THIS FILE IS DEPRECATED AND WILL BE REMOVED!!! ODP APPLICATIONS SHOULD NOW INCLUDE odp_api...">
<polygon fill="white" stroke="black" points="717.5,-0.5 717.5,-19.5 758.5,-19.5 758.5,-0.5 717.5,-0.5"/>
<text text-anchor="middle" x="738" y="-7.5" font-family="Helvetica,sans-Serif" font-size="10.00">odp.h</text>
</a>
</g>
</g>
<!-- Node18&#45;&gt;Node19 -->
<g id="edge12" class="edge"><title>Node18&#45;&gt;Node19</title>
<path fill="none" stroke="midnightblue" d="M738,-45.8045C738,-36.9102 738,-26.7798 738,-19.7511"/>
<polygon fill="midnightblue" stroke="midnightblue" points="734.5,-46.083 738,-56.083 741.5,-46.083 734.5,-46.083"/>
</g>
<!-- Node20&#45;&gt;Node18 -->
<g id="edge46" class="edge"><title>Node20&#45;&gt;Node18</title>
<path fill="none" stroke="midnightblue" d="M740.539,-679.071C805.958,-675.017 937.298,-663.603 973,-636 998.026,-616.651 1002,-602.634 1002,-571 1002,-571 1002,-571 1002,-177 1002,-146.902 1005.35,-132.162 983,-112 951.693,-83.755 825.928,-72.4298 767.77,-68.6363"/>
<polygon fill="midnightblue" stroke="midnightblue" points="740.029,-675.595 730.254,-679.681 740.444,-682.582 740.029,-675.595"/>
</g>
<!-- Node21 -->
<g id="node15" class="node"><title>Node21</title>
<g id="a_node15"><a xlink:href="api_2spec_2comp_8h.html" target="_top" xlink:title="ODP Compression. ">
<polygon fill="white" stroke="black" points="571.5,-616.5 571.5,-635.5 620.5,-635.5 620.5,-616.5 571.5,-616.5"/>
<text text-anchor="middle" x="596" y="-623.5" font-family="Helvetica,sans-Serif" font-size="10.00">comp.h</text>
</a>
</g>
</g>
<!-- Node20&#45;&gt;Node21 -->
<g id="edge15" class="edge"><title>Node20&#45;&gt;Node21</title>
<path fill="none" stroke="midnightblue" d="M676.698,-667.726C656.885,-657.727 630.293,-644.307 613.149,-635.655"/>
<polygon fill="midnightblue" stroke="midnightblue" points="675.304,-670.943 685.809,-672.324 678.458,-664.694 675.304,-670.943"/>
</g>
<!-- Node23 -->
<g id="node17" class="node"><title>Node23</title>
<g id="a_node17"><a xlink:href="api_2spec_2crypto_8h.html" target="_top" xlink:title="ODP crypto. ">
<polygon fill="white" stroke="black" points="677,-448.5 677,-467.5 729,-467.5 729,-448.5 677,-448.5"/>
<text text-anchor="middle" x="703" y="-455.5" font-family="Helvetica,sans-Serif" font-size="10.00">crypto.h</text>
</a>
</g>
</g>
<!-- Node20&#45;&gt;Node23 -->
<g id="edge18" class="edge"><title>Node20&#45;&gt;Node23</title>
<path fill="none" stroke="midnightblue" d="M703,-662.295C703,-616.644 703,-500.854 703,-467.884"/>
<polygon fill="midnightblue" stroke="midnightblue" points="699.5,-662.297 703,-672.297 706.5,-662.297 699.5,-662.297"/>
</g>
<!-- Node25 -->
<g id="node19" class="node"><title>Node25</title>
<g id="a_node19"><a xlink:href="api_2spec_2event_8h.html" target="_top" xlink:title="ODP event. ">
<polygon fill="white" stroke="black" points="756.5,-616.5 756.5,-635.5 805.5,-635.5 805.5,-616.5 756.5,-616.5"/>
<text text-anchor="middle" x="781" y="-623.5" font-family="Helvetica,sans-Serif" font-size="10.00">event.h</text>
</a>
</g>
</g>
<!-- Node20&#45;&gt;Node25 -->
<g id="edge22" class="edge"><title>Node20&#45;&gt;Node25</title>
<path fill="none" stroke="midnightblue" d="M723.768,-666.622C738.017,-656.757 756.456,-643.992 768.499,-635.655"/>
<polygon fill="midnightblue" stroke="midnightblue" points="721.762,-663.754 715.532,-672.324 725.746,-669.51 721.762,-663.754"/>
</g>
<!-- Node29 -->
<g id="node23" class="node"><title>Node29</title>
<g id="a_node23"><a xlink:href="api_2spec_2packet__io_8h.html" target="_top" xlink:title="ODP Packet IO. ">
<polygon fill="white" stroke="black" points="604.5,-392.5 604.5,-411.5 671.5,-411.5 671.5,-392.5 604.5,-392.5"/>
<text text-anchor="middle" x="638" y="-399.5" font-family="Helvetica,sans-Serif" font-size="10.00">packet_io.h</text>
</a>
</g>
</g>
<!-- Node20&#45;&gt;Node29 -->
<g id="edge45" class="edge"><title>Node20&#45;&gt;Node29</title>
<path fill="none" stroke="midnightblue" d="M688.774,-664.294C672.775,-643.748 649,-607.137 649,-571 649,-571 649,-571 649,-513 649,-474.999 642.42,-429.978 639.438,-411.529"/>
<polygon fill="midnightblue" stroke="midnightblue" points="686.249,-666.738 695.263,-672.306 691.689,-662.332 686.249,-666.738"/>
</g>
<!-- Node36 -->
<g id="node30" class="node"><title>Node36</title>
<g id="a_node30"><a xlink:href="api_2spec_2packet__flags_8h.html" target="_top" xlink:title="ODP packet flags. ">
<polygon fill="white" stroke="black" points="884,-616.5 884,-635.5 964,-635.5 964,-616.5 884,-616.5"/>
<text text-anchor="middle" x="924" y="-623.5" font-family="Helvetica,sans-Serif" font-size="10.00">packet_flags.h</text>
</a>
</g>
</g>
<!-- Node20&#45;&gt;Node36 -->
<g id="edge42" class="edge"><title>Node20&#45;&gt;Node36</title>
<path fill="none" stroke="midnightblue" d="M739.816,-672.004C781.318,-661.863 848.299,-645.497 889.028,-635.545"/>
<polygon fill="midnightblue" stroke="midnightblue" points="738.982,-668.605 730.099,-674.379 740.644,-675.405 738.982,-668.605"/>
</g>
<!-- Node22 -->
<g id="node16" class="node"><title>Node22</title>
<g id="a_node16"><a xlink:href="api_2comp_8h.html" target="_top" xlink:title="ODP crypto. ">
<polygon fill="white" stroke="black" points="571.5,-504.5 571.5,-523.5 620.5,-523.5 620.5,-504.5 571.5,-504.5"/>
<text text-anchor="middle" x="596" y="-511.5" font-family="Helvetica,sans-Serif" font-size="10.00">comp.h</text>
</a>
</g>
</g>
<!-- Node21&#45;&gt;Node22 -->
<g id="edge16" class="edge"><title>Node21&#45;&gt;Node22</title>
<path fill="none" stroke="midnightblue" d="M596,-606.348C596,-582.254 596,-541.308 596,-523.591"/>
<polygon fill="midnightblue" stroke="midnightblue" points="592.5,-606.368 596,-616.368 599.5,-606.369 592.5,-606.368"/>
</g>
<!-- Node22&#45;&gt;Node18 -->
<g id="edge17" class="edge"><title>Node22&#45;&gt;Node18</title>
<path fill="none" stroke="midnightblue" d="M562.013,-500.606C494.943,-473.708 352,-403.217 352,-291 352,-291 352,-291 352,-177 352,-102.963 617.965,-76.0457 708.352,-69.0358"/>
<polygon fill="midnightblue" stroke="midnightblue" points="561.125,-504.017 571.712,-504.404 563.677,-497.499 561.125,-504.017"/>
</g>
<!-- Node24 -->
<g id="node18" class="node"><title>Node24</title>
<g id="a_node18"><a xlink:href="api_2crypto_8h.html" target="_top" xlink:title="ODP crypto. ">
<polygon fill="white" stroke="black" points="685,-336.5 685,-355.5 737,-355.5 737,-336.5 685,-336.5"/>
<text text-anchor="middle" x="711" y="-343.5" font-family="Helvetica,sans-Serif" font-size="10.00">crypto.h</text>
</a>
</g>
</g>
<!-- Node23&#45;&gt;Node24 -->
<g id="edge19" class="edge"><title>Node23&#45;&gt;Node24</title>
<path fill="none" stroke="midnightblue" d="M704.357,-438.348C706.109,-414.254 709.087,-373.308 710.375,-355.591"/>
<polygon fill="midnightblue" stroke="midnightblue" points="700.862,-438.141 703.628,-448.368 707.844,-438.649 700.862,-438.141"/>
</g>
<!-- Node24&#45;&gt;Node16 -->
<g id="edge20" class="edge"><title>Node24&#45;&gt;Node16</title>
<path fill="none" stroke="midnightblue" d="M694.609,-329.088C659.097,-294.615 576.063,-214.009 548.826,-187.568"/>
<polygon fill="midnightblue" stroke="midnightblue" points="692.193,-331.621 701.806,-336.075 697.069,-326.598 692.193,-331.621"/>
</g>
<!-- Node24&#45;&gt;Node18 -->
<g id="edge21" class="edge"><title>Node24&#45;&gt;Node18</title>
<path fill="none" stroke="midnightblue" d="M718.303,-326.856C726.299,-305.318 738,-268.139 738,-235 738,-235 738,-235 738,-177 738,-139.188 738,-94.0636 738,-75.5578"/>
<polygon fill="midnightblue" stroke="midnightblue" points="714.978,-325.748 714.641,-336.338 721.509,-328.27 714.978,-325.748"/>
</g>
<!-- Node26 -->
<g id="node20" class="node"><title>Node26</title>
<g id="a_node20"><a xlink:href="api_2event_8h.html" target="_top" xlink:title="ODP event. ">
<polygon fill="white" stroke="black" points="781.5,-560.5 781.5,-579.5 830.5,-579.5 830.5,-560.5 781.5,-560.5"/>
<text text-anchor="middle" x="806" y="-567.5" font-family="Helvetica,sans-Serif" font-size="10.00">event.h</text>
</a>
</g>
</g>
<!-- Node25&#45;&gt;Node26 -->
<g id="edge23" class="edge"><title>Node25&#45;&gt;Node26</title>
<path fill="none" stroke="midnightblue" d="M789.341,-606.983C793.585,-597.817 798.55,-587.092 801.949,-579.751"/>
<polygon fill="midnightblue" stroke="midnightblue" points="786.153,-605.538 785.128,-616.083 792.506,-608.479 786.153,-605.538"/>
</g>
<!-- Node26&#45;&gt;Node18 -->
<g id="edge41" class="edge"><title>Node26&#45;&gt;Node18</title>
<path fill="none" stroke="midnightblue" d="M828.896,-554.822C855.561,-536.345 896,-501.342 896,-459 896,-459 896,-459 896,-289 896,-201.344 870.383,-174.576 809,-112 793.569,-96.2686 771.639,-83.4392 756.247,-75.5614"/>
<polygon fill="midnightblue" stroke="midnightblue" points="826.842,-551.985 820.46,-560.442 830.723,-557.811 826.842,-551.985"/>
</g>
<!-- Node27 -->
<g id="node21" class="node"><title>Node27</title>
<g id="a_node21"><a xlink:href="api_2spec_2queue_8h.html" target="_top" xlink:title="ODP queue. ">
<polygon fill="white" stroke="black" points="752.5,-504.5 752.5,-523.5 803.5,-523.5 803.5,-504.5 752.5,-504.5"/>
<text text-anchor="middle" x="778" y="-511.5" font-family="Helvetica,sans-Serif" font-size="10.00">queue.h</text>
</a>
</g>
</g>
<!-- Node26&#45;&gt;Node27 -->
<g id="edge24" class="edge"><title>Node26&#45;&gt;Node27</title>
<path fill="none" stroke="midnightblue" d="M796.658,-550.983C791.905,-541.817 786.344,-531.092 782.538,-523.751"/>
<polygon fill="midnightblue" stroke="midnightblue" points="793.666,-552.817 801.376,-560.083 799.88,-549.594 793.666,-552.817"/>
</g>
<!-- Node34 -->
<g id="node28" class="node"><title>Node34</title>
<g id="a_node28"><a xlink:href="api_2spec_2schedule_8h.html" target="_top" xlink:title="ODP schedule. ">
<polygon fill="white" stroke="black" points="804,-392.5 804,-411.5 868,-411.5 868,-392.5 804,-392.5"/>
<text text-anchor="middle" x="836" y="-399.5" font-family="Helvetica,sans-Serif" font-size="10.00">schedule.h</text>
</a>
</g>
</g>
<!-- Node26&#45;&gt;Node34 -->
<g id="edge40" class="edge"><title>Node26&#45;&gt;Node34</title>
<path fill="none" stroke="midnightblue" d="M809.446,-549.93C815.954,-513.92 829.814,-437.231 834.452,-411.568"/>
<polygon fill="midnightblue" stroke="midnightblue" points="805.947,-549.612 807.613,-560.075 812.836,-550.857 805.947,-549.612"/>
</g>
<!-- Node28 -->
<g id="node22" class="node"><title>Node28</title>
<g id="a_node22"><a xlink:href="api_2queue_8h.html" target="_top" xlink:title="ODP queue. ">
<polygon fill="white" stroke="black" points="750.5,-448.5 750.5,-467.5 801.5,-467.5 801.5,-448.5 750.5,-448.5"/>
<text text-anchor="middle" x="776" y="-455.5" font-family="Helvetica,sans-Serif" font-size="10.00">queue.h</text>
</a>
</g>
</g>
<!-- Node27&#45;&gt;Node28 -->
<g id="edge25" class="edge"><title>Node27&#45;&gt;Node28</title>
<path fill="none" stroke="midnightblue" d="M777.289,-493.805C776.96,-484.91 776.584,-474.78 776.324,-467.751"/>
<polygon fill="midnightblue" stroke="midnightblue" points="773.802,-494.219 777.67,-504.083 780.797,-493.96 773.802,-494.219"/>
</g>
<!-- Node28&#45;&gt;Node18 -->
<g id="edge39" class="edge"><title>Node28&#45;&gt;Node18</title>
<path fill="none" stroke="midnightblue" d="M776,-438.251C776,-416.357 776,-379.052 776,-347 776,-347 776,-347 776,-177 776,-137.399 753.725,-93.957 743.284,-75.769"/>
<polygon fill="midnightblue" stroke="midnightblue" points="772.5,-438.442 776,-448.442 779.5,-438.442 772.5,-438.442"/>
</g>
<!-- Node28&#45;&gt;Node24 -->
<g id="edge26" class="edge"><title>Node28&#45;&gt;Node24</title>
<path fill="none" stroke="midnightblue" d="M765.742,-439.64C751.621,-415.744 726.735,-373.629 716.077,-355.591"/>
<polygon fill="midnightblue" stroke="midnightblue" points="762.799,-441.54 770.9,-448.368 768.825,-437.979 762.799,-441.54"/>
</g>
<!-- Node28&#45;&gt;Node29 -->
<g id="edge27" class="edge"><title>Node28&#45;&gt;Node29</title>
<path fill="none" stroke="midnightblue" d="M744.751,-444.772C718.829,-434.629 682.638,-420.467 659.764,-411.516"/>
<polygon fill="midnightblue" stroke="midnightblue" points="743.546,-448.059 754.133,-448.444 746.096,-441.54 743.546,-448.059"/>
</g>
<!-- Node28&#45;&gt;Node34 -->
<g id="edge36" class="edge"><title>Node28&#45;&gt;Node34</title>
<path fill="none" stroke="midnightblue" d="M793.181,-441.537C803.879,-431.909 817.256,-419.869 826.185,-411.834"/>
<polygon fill="midnightblue" stroke="midnightblue" points="790.732,-439.033 785.64,-448.324 795.414,-444.236 790.732,-439.033"/>
</g>
<!-- Node29&#45;&gt;Node30 -->
<g id="edge28" class="edge"><title>Node29&#45;&gt;Node30</title>
<path fill="none" stroke="midnightblue" d="M618.962,-386.101C606.544,-376.382 590.757,-364.027 580.288,-355.834"/>
<polygon fill="midnightblue" stroke="midnightblue" points="616.882,-388.917 626.914,-392.324 621.196,-383.405 616.882,-388.917"/>
</g>
<!-- Node30&#45;&gt;Node16 -->
<g id="edge31" class="edge"><title>Node30&#45;&gt;Node16</title>
<path fill="none" stroke="midnightblue" d="M559.013,-327.557C554.856,-319.441 550.439,-309.499 548,-300 537.477,-259.013 538.546,-207.796 539.492,-187.68"/>
<polygon fill="midnightblue" stroke="midnightblue" points="555.962,-329.273 563.803,-336.398 562.117,-325.938 555.962,-329.273"/>
</g>
<!-- Node30&#45;&gt;Node18 -->
<g id="edge35" class="edge"><title>Node30&#45;&gt;Node18</title>
<path fill="none" stroke="midnightblue" d="M604.629,-332.697C643.42,-316.765 700,-284.964 700,-235 700,-235 700,-235 700,-177 700,-137.399 722.275,-93.957 732.716,-75.769"/>
<polygon fill="midnightblue" stroke="midnightblue" points="603.22,-329.49 595.195,-336.407 605.782,-336.005 603.22,-329.49"/>
</g>
<!-- Node31 -->
<g id="node25" class="node"><title>Node31</title>
<g id="a_node25"><a xlink:href="api_2spec_2classification_8h.html" target="_top" xlink:title="ODP classification descriptor. ">
<polygon fill="white" stroke="black" points="418,-280.5 418,-299.5 500,-299.5 500,-280.5 418,-280.5"/>
<text text-anchor="middle" x="459" y="-287.5" font-family="Helvetica,sans-Serif" font-size="10.00">classification.h</text>
</a>
</g>
</g>
<!-- Node30&#45;&gt;Node31 -->
<g id="edge29" class="edge"><title>Node30&#45;&gt;Node31</title>
<path fill="none" stroke="midnightblue" d="M542.238,-331.862C521.841,-321.849 494.334,-308.346 476.63,-299.655"/>
<polygon fill="midnightblue" stroke="midnightblue" points="540.808,-335.059 551.327,-336.324 543.892,-328.775 540.808,-335.059"/>
</g>
<!-- Node32 -->
<g id="node26" class="node"><title>Node32</title>
<g id="a_node26"><a xlink:href="api_2spec_2traffic__mngr_8h.html" target="_top" xlink:title="Copyright (c) 2015&#45;2018, Linaro Limited All rights reserved. ">
<polygon fill="white" stroke="black" points="556.5,-280.5 556.5,-299.5 633.5,-299.5 633.5,-280.5 556.5,-280.5"/>
<text text-anchor="middle" x="595" y="-287.5" font-family="Helvetica,sans-Serif" font-size="10.00">traffic_mngr.h</text>
</a>
</g>
</g>
<!-- Node30&#45;&gt;Node32 -->
<g id="edge32" class="edge"><title>Node30&#45;&gt;Node32</title>
<path fill="none" stroke="midnightblue" d="M577.675,-326.983C582.088,-317.817 587.252,-307.092 590.787,-299.751"/>
<polygon fill="midnightblue" stroke="midnightblue" points="574.478,-325.555 573.293,-336.083 580.785,-328.591 574.478,-325.555"/>
</g>
<!-- Node31&#45;&gt;Node15 -->
<g id="edge30" class="edge"><title>Node31&#45;&gt;Node15</title>
<path fill="none" stroke="midnightblue" d="M459,-269.805C459,-260.91 459,-250.78 459,-243.751"/>
<polygon fill="midnightblue" stroke="midnightblue" points="455.5,-270.083 459,-280.083 462.5,-270.083 455.5,-270.083"/>
</g>
<!-- Node33 -->
<g id="node27" class="node"><title>Node33</title>
<g id="a_node27"><a xlink:href="api_2traffic__mngr_8h.html" target="_top" xlink:title="ODP Traffic manager. ">
<polygon fill="white" stroke="black" points="594.5,-168.5 594.5,-187.5 671.5,-187.5 671.5,-168.5 594.5,-168.5"/>
<text text-anchor="middle" x="633" y="-175.5" font-family="Helvetica,sans-Serif" font-size="10.00">traffic_mngr.h</text>
</a>
</g>
</g>
<!-- Node32&#45;&gt;Node33 -->
<g id="edge33" class="edge"><title>Node32&#45;&gt;Node33</title>
<path fill="none" stroke="midnightblue" d="M601.331,-270.674C609.639,-246.625 623.884,-205.388 630.032,-187.591"/>
<polygon fill="midnightblue" stroke="midnightblue" points="597.939,-269.774 597.982,-280.368 604.555,-272.059 597.939,-269.774"/>
</g>
<!-- Node33&#45;&gt;Node18 -->
<g id="edge34" class="edge"><title>Node33&#45;&gt;Node18</title>
<path fill="none" stroke="midnightblue" d="M645.691,-159.827C655.982,-146.313 671.165,-127.277 686,-112 699.142,-98.4676 715.869,-84.4978 726.751,-75.7853"/>
<polygon fill="midnightblue" stroke="midnightblue" points="642.619,-158.089 639.412,-168.187 648.216,-162.293 642.619,-158.089"/>
</g>
<!-- Node35 -->
<g id="node29" class="node"><title>Node35</title>
<g id="a_node29"><a xlink:href="api_2schedule_8h.html" target="_top" xlink:title="ODP schedule. ">
<polygon fill="white" stroke="black" points="804,-224.5 804,-243.5 868,-243.5 868,-224.5 804,-224.5"/>
<text text-anchor="middle" x="836" y="-231.5" font-family="Helvetica,sans-Serif" font-size="10.00">schedule.h</text>
</a>
</g>
</g>
<!-- Node34&#45;&gt;Node35 -->
<g id="edge37" class="edge"><title>Node34&#45;&gt;Node35</title>
<path fill="none" stroke="midnightblue" d="M836,-381.93C836,-345.92 836,-269.231 836,-243.568"/>
<polygon fill="midnightblue" stroke="midnightblue" points="832.5,-382.075 836,-392.075 839.5,-382.075 832.5,-382.075"/>
</g>
<!-- Node35&#45;&gt;Node18 -->
<g id="edge38" class="edge"><title>Node35&#45;&gt;Node18</title>
<path fill="none" stroke="midnightblue" d="M831.977,-214.448C825.917,-189.469 812.676,-144.419 790,-112 779.462,-96.9339 762.785,-83.7098 751.168,-75.5635"/>
<polygon fill="midnightblue" stroke="midnightblue" points="828.612,-215.434 834.264,-224.396 835.434,-213.866 828.612,-215.434"/>
</g>
<!-- Node37 -->
<g id="node31" class="node"><title>Node37</title>
<g id="a_node31"><a xlink:href="api_2packet__flags_8h.html" target="_top" xlink:title="ODP packet flags. ">
<polygon fill="white" stroke="black" points="894,-112.5 894,-131.5 974,-131.5 974,-112.5 894,-112.5"/>
<text text-anchor="middle" x="934" y="-119.5" font-family="Helvetica,sans-Serif" font-size="10.00">packet_flags.h</text>
</a>
</g>
</g>
<!-- Node36&#45;&gt;Node37 -->
<g id="edge43" class="edge"><title>Node36&#45;&gt;Node37</title>
<path fill="none" stroke="midnightblue" d="M926.741,-606.298C929.702,-584.448 934,-547.184 934,-515 934,-515 934,-515 934,-233 934,-195.188 934,-150.064 934,-131.558"/>
<polygon fill="midnightblue" stroke="midnightblue" points="923.238,-606.075 925.307,-616.466 930.169,-607.053 923.238,-606.075"/>
</g>
<!-- Node37&#45;&gt;Node18 -->
<g id="edge44" class="edge"><title>Node37&#45;&gt;Node18</title>
<path fill="none" stroke="midnightblue" d="M892.857,-109.665C855.393,-99.3431 800.981,-84.352 767.628,-75.1629"/>
<polygon fill="midnightblue" stroke="midnightblue" points="892.373,-113.162 902.943,-112.444 894.232,-106.413 892.373,-113.162"/>
</g>
</g>
</svg>
