<?xml version="1.0" encoding="UTF-8" standalone="no"?>
<!DOCTYPE svg PUBLIC "-//W3C//DTD SVG 1.1//EN"
 "http://www.w3.org/Graphics/SVG/1.1/DTD/svg11.dtd">
<!-- Generated by graphviz version 2.36.0 (20140111.2315)
 -->
<!-- Title: packet.h Pages: 1 -->
<svg width="638pt" height="756pt"
 viewBox="0.00 0.00 638.00 756.00" xmlns="http://www.w3.org/2000/svg" xmlns:xlink="http://www.w3.org/1999/xlink">
<g id="graph0" class="graph" transform="scale(1 1) rotate(0) translate(4 752)">
<title>packet.h</title>
<polygon fill="white" stroke="none" points="-4,4 -4,-752 634,-752 634,4 -4,4"/>
<!-- Node10 -->
<g id="node1" class="node"><title>Node10</title>
<polygon fill="#bfbfbf" stroke="black" points="223,-728.5 223,-747.5 277,-747.5 277,-728.5 223,-728.5"/>
<text text-anchor="middle" x="250" y="-735.5" font-family="Helvetica,sans-Serif" font-size="10.00">packet.h</text>
</g>
<!-- Node11 -->
<g id="node2" class="node"><title>Node11</title>
<g id="a_node2"><a xlink:href="api_2packet_8h.html" target="_top" xlink:title="ODP packet descriptor. ">
<polygon fill="white" stroke="black" points="223,-672.5 223,-691.5 277,-691.5 277,-672.5 223,-672.5"/>
<text text-anchor="middle" x="250" y="-679.5" font-family="Helvetica,sans-Serif" font-size="10.00">packet.h</text>
</a>
</g>
</g>
<!-- Node10&#45;&gt;Node11 -->
<g id="edge1" class="edge"><title>Node10&#45;&gt;Node11</title>
<path fill="none" stroke="midnightblue" d="M250,-717.805C250,-708.91 250,-698.78 250,-691.751"/>
<polygon fill="midnightblue" stroke="midnightblue" points="246.5,-718.083 250,-728.083 253.5,-718.083 246.5,-718.083"/>
</g>
<!-- Node12 -->
<g id="node3" class="node"><title>Node12</title>
<g id="a_node3"><a xlink:href="api_2spec_2comp_8h.html" target="_top" xlink:title="ODP Compression. ">
<polygon fill="white" stroke="black" points="78.5,-616.5 78.5,-635.5 127.5,-635.5 127.5,-616.5 78.5,-616.5"/>
<text text-anchor="middle" x="103" y="-623.5" font-family="Helvetica,sans-Serif" font-size="10.00">comp.h</text>
</a>
</g>
</g>
<!-- Node11&#45;&gt;Node12 -->
<g id="edge2" class="edge"><title>Node11&#45;&gt;Node12</title>
<path fill="none" stroke="midnightblue" d="M217.077,-668.906C189.44,-658.754 150.656,-644.506 126.184,-635.516"/>
<polygon fill="midnightblue" stroke="midnightblue" points="216.114,-672.281 226.707,-672.444 218.528,-665.71 216.114,-672.281"/>
</g>
<!-- Node14 -->
<g id="node5" class="node"><title>Node14</title>
<g id="a_node5"><a xlink:href="odp__api_8h.html" target="_top" xlink:title="The OpenDataPlane API. ">
<polygon fill="white" stroke="black" points="219.5,-56.5 219.5,-75.5 278.5,-75.5 278.5,-56.5 219.5,-56.5"/>
<text text-anchor="middle" x="249" y="-63.5" font-family="Helvetica,sans-Serif" font-size="10.00">odp_api.h</text>
</a>
</g>
</g>
<!-- Node11&#45;&gt;Node14 -->
<g id="edge38" class="edge"><title>Node11&#45;&gt;Node14</title>
<path fill="none" stroke="midnightblue" d="M212.641,-680.941C142.925,-678.658 0,-662.785 0,-571 0,-571 0,-571 0,-177 0,-82.0083 153.501,-68.3715 219.459,-66.8966"/>
<polygon fill="midnightblue" stroke="midnightblue" points="212.686,-684.443 222.77,-681.194 212.86,-677.445 212.686,-684.443"/>
</g>
<!-- Node16 -->
<g id="node7" class="node"><title>Node16</title>
<g id="a_node7"><a xlink:href="api_2spec_2crypto_8h.html" target="_top" xlink:title="ODP crypto. ">
<polygon fill="white" stroke="black" points="258,-448.5 258,-467.5 310,-467.5 310,-448.5 258,-448.5"/>
<text text-anchor="middle" x="284" y="-455.5" font-family="Helvetica,sans-Serif" font-size="10.00">crypto.h</text>
</a>
</g>
</g>
<!-- Node11&#45;&gt;Node16 -->
<g id="edge6" class="edge"><title>Node11&#45;&gt;Node16</title>
<path fill="none" stroke="midnightblue" d="M252.865,-662.295C259.856,-616.644 277.59,-500.854 282.639,-467.884"/>
<polygon fill="midnightblue" stroke="midnightblue" points="249.387,-661.883 251.333,-672.297 256.306,-662.942 249.387,-661.883"/>
</g>
<!-- Node20 -->
<g id="node11" class="node"><title>Node20</title>
<g id="a_node11"><a xlink:href="api_2spec_2event_8h.html" target="_top" xlink:title="ODP event. ">
<polygon fill="white" stroke="black" points="181.5,-616.5 181.5,-635.5 230.5,-635.5 230.5,-616.5 181.5,-616.5"/>
<text text-anchor="middle" x="206" y="-623.5" font-family="Helvetica,sans-Serif" font-size="10.00">event.h</text>
</a>
</g>
</g>
<!-- Node11&#45;&gt;Node20 -->
<g id="edge12" class="edge"><title>Node11&#45;&gt;Node20</title>
<path fill="none" stroke="midnightblue" d="M236.265,-664.144C228.599,-654.736 219.367,-643.405 213.131,-635.751"/>
<polygon fill="midnightblue" stroke="midnightblue" points="233.704,-666.541 242.734,-672.083 239.131,-662.12 233.704,-666.541"/>
</g>
<!-- Node24 -->
<g id="node15" class="node"><title>Node24</title>
<g id="a_node15"><a xlink:href="api_2spec_2packet__io_8h.html" target="_top" xlink:title="ODP Packet IO. ">
<polygon fill="white" stroke="black" points="315.5,-392.5 315.5,-411.5 382.5,-411.5 382.5,-392.5 315.5,-392.5"/>
<text text-anchor="middle" x="349" y="-399.5" font-family="Helvetica,sans-Serif" font-size="10.00">packet_io.h</text>
</a>
</g>
</g>
<!-- Node11&#45;&gt;Node24 -->
<g id="edge37" class="edge"><title>Node11&#45;&gt;Node24</title>
<path fill="none" stroke="midnightblue" d="M274.093,-666.72C301.649,-648.357 343,-613.689 343,-571 343,-571 343,-571 343,-513 343,-475.131 346.589,-430.038 348.216,-411.549"/>
<polygon fill="midnightblue" stroke="midnightblue" points="271.894,-663.972 265.357,-672.31 275.667,-669.868 271.894,-663.972"/>
</g>
<!-- Node32 -->
<g id="node23" class="node"><title>Node32</title>
<g id="a_node23"><a xlink:href="api_2spec_2packet__flags_8h.html" target="_top" xlink:title="ODP packet flags. ">
<polygon fill="white" stroke="black" points="468,-560.5 468,-579.5 548,-579.5 548,-560.5 468,-560.5"/>
<text text-anchor="middle" x="508" y="-567.5" font-family="Helvetica,sans-Serif" font-size="10.00">packet_flags.h</text>
</a>
</g>
</g>
<!-- Node11&#45;&gt;Node32 -->
<g id="edge34" class="edge"><title>Node11&#45;&gt;Node32</title>
<path fill="none" stroke="midnightblue" d="M279.785,-668.552C301.268,-659.555 330.949,-647.085 357,-636 404.01,-615.997 459.104,-592.188 487.994,-579.675"/>
<polygon fill="midnightblue" stroke="midnightblue" points="278.407,-665.335 270.534,-672.424 281.11,-671.792 278.407,-665.335"/>
</g>
<!-- Node13 -->
<g id="node4" class="node"><title>Node13</title>
<g id="a_node4"><a xlink:href="api_2comp_8h.html" target="_top" xlink:title="ODP crypto. ">
<polygon fill="white" stroke="black" points="28.5,-504.5 28.5,-523.5 77.5,-523.5 77.5,-504.5 28.5,-504.5"/>
<text text-anchor="middle" x="53" y="-511.5" font-family="Helvetica,sans-Serif" font-size="10.00">comp.h</text>
</a>
</g>
</g>
<!-- Node12&#45;&gt;Node13 -->
<g id="edge3" class="edge"><title>Node12&#45;&gt;Node13</title>
<path fill="none" stroke="midnightblue" d="M94.8173,-606.998C83.9076,-582.997 65.031,-541.468 56.9052,-523.591"/>
<polygon fill="midnightblue" stroke="midnightblue" points="91.7522,-608.713 99.0766,-616.368 98.1248,-605.816 91.7522,-608.713"/>
</g>
<!-- Node13&#45;&gt;Node14 -->
<g id="edge4" class="edge"><title>Node13&#45;&gt;Node14</title>
<path fill="none" stroke="midnightblue" d="M53,-494.251C53,-472.357 53,-435.052 53,-403 53,-403 53,-403 53,-177 53,-146.205 54.186,-132.685 77,-112 116.673,-76.0289 181.575,-68.1459 219.285,-66.8009"/>
<polygon fill="midnightblue" stroke="midnightblue" points="49.5001,-494.442 53,-504.442 56.5001,-494.442 49.5001,-494.442"/>
</g>
<!-- Node15 -->
<g id="node6" class="node"><title>Node15</title>
<g id="a_node6"><a xlink:href="odp_8h.html" target="_top" xlink:title="WARNING: THIS FILE IS DEPRECATED AND WILL BE REMOVED!!! ODP APPLICATIONS SHOULD NOW INCLUDE odp_api...">
<polygon fill="white" stroke="black" points="228.5,-0.5 228.5,-19.5 269.5,-19.5 269.5,-0.5 228.5,-0.5"/>
<text text-anchor="middle" x="249" y="-7.5" font-family="Helvetica,sans-Serif" font-size="10.00">odp.h</text>
</a>
</g>
</g>
<!-- Node14&#45;&gt;Node15 -->
<g id="edge5" class="edge"><title>Node14&#45;&gt;Node15</title>
<path fill="none" stroke="midnightblue" d="M249,-45.8045C249,-36.9102 249,-26.7798 249,-19.7511"/>
<polygon fill="midnightblue" stroke="midnightblue" points="245.5,-46.083 249,-56.083 252.5,-46.083 245.5,-46.083"/>
</g>
<!-- Node17 -->
<g id="node8" class="node"><title>Node17</title>
<g id="a_node8"><a xlink:href="api_2crypto_8h.html" target="_top" xlink:title="ODP crypto. ">
<polygon fill="white" stroke="black" points="250,-336.5 250,-355.5 302,-355.5 302,-336.5 250,-336.5"/>
<text text-anchor="middle" x="276" y="-343.5" font-family="Helvetica,sans-Serif" font-size="10.00">crypto.h</text>
</a>
</g>
</g>
<!-- Node16&#45;&gt;Node17 -->
<g id="edge7" class="edge"><title>Node16&#45;&gt;Node17</title>
<path fill="none" stroke="midnightblue" d="M282.643,-438.348C280.891,-414.254 277.913,-373.308 276.625,-355.591"/>
<polygon fill="midnightblue" stroke="midnightblue" points="279.156,-438.649 283.372,-448.368 286.138,-438.141 279.156,-438.649"/>
</g>
<!-- Node17&#45;&gt;Node14 -->
<g id="edge11" class="edge"><title>Node17&#45;&gt;Node14</title>
<path fill="none" stroke="midnightblue" d="M268.697,-326.856C260.701,-305.318 249,-268.139 249,-235 249,-235 249,-235 249,-177 249,-139.188 249,-94.0636 249,-75.5578"/>
<polygon fill="midnightblue" stroke="midnightblue" points="265.491,-328.27 272.359,-336.338 272.022,-325.748 265.491,-328.27"/>
</g>
<!-- Node18 -->
<g id="node9" class="node"><title>Node18</title>
<g id="a_node9"><a xlink:href="api_2spec_2ipsec_8h.html" target="_top" xlink:title="ODP IPSEC API. ">
<polygon fill="white" stroke="black" points="289,-168.5 289,-187.5 337,-187.5 337,-168.5 289,-168.5"/>
<text text-anchor="middle" x="313" y="-175.5" font-family="Helvetica,sans-Serif" font-size="10.00">ipsec.h</text>
</a>
</g>
</g>
<!-- Node17&#45;&gt;Node18 -->
<g id="edge8" class="edge"><title>Node17&#45;&gt;Node18</title>
<path fill="none" stroke="midnightblue" d="M280.251,-325.93C288.277,-289.92 305.37,-213.231 311.09,-187.568"/>
<polygon fill="midnightblue" stroke="midnightblue" points="276.749,-325.553 277.989,-336.075 283.581,-327.076 276.749,-325.553"/>
</g>
<!-- Node19 -->
<g id="node10" class="node"><title>Node19</title>
<g id="a_node10"><a xlink:href="api_2ipsec_8h.html" target="_top" xlink:title="ODP IPSEC API &#45; platform specific header. ">
<polygon fill="white" stroke="black" points="289,-112.5 289,-131.5 337,-131.5 337,-112.5 289,-112.5"/>
<text text-anchor="middle" x="313" y="-119.5" font-family="Helvetica,sans-Serif" font-size="10.00">ipsec.h</text>
</a>
</g>
</g>
<!-- Node18&#45;&gt;Node19 -->
<g id="edge9" class="edge"><title>Node18&#45;&gt;Node19</title>
<path fill="none" stroke="midnightblue" d="M313,-157.805C313,-148.91 313,-138.78 313,-131.751"/>
<polygon fill="midnightblue" stroke="midnightblue" points="309.5,-158.083 313,-168.083 316.5,-158.083 309.5,-158.083"/>
</g>
<!-- Node19&#45;&gt;Node14 -->
<g id="edge10" class="edge"><title>Node19&#45;&gt;Node14</title>
<path fill="none" stroke="midnightblue" d="M295.009,-105.82C283.542,-96.1452 269.087,-83.9481 259.47,-75.8339"/>
<polygon fill="midnightblue" stroke="midnightblue" points="292.817,-108.55 302.717,-112.324 297.331,-103.2 292.817,-108.55"/>
</g>
<!-- Node21 -->
<g id="node12" class="node"><title>Node21</title>
<g id="a_node12"><a xlink:href="api_2event_8h.html" target="_top" xlink:title="ODP event. ">
<polygon fill="white" stroke="black" points="146.5,-560.5 146.5,-579.5 195.5,-579.5 195.5,-560.5 146.5,-560.5"/>
<text text-anchor="middle" x="171" y="-567.5" font-family="Helvetica,sans-Serif" font-size="10.00">event.h</text>
</a>
</g>
</g>
<!-- Node20&#45;&gt;Node21 -->
<g id="edge13" class="edge"><title>Node20&#45;&gt;Node21</title>
<path fill="none" stroke="midnightblue" d="M194.7,-607.566C188.678,-598.275 181.531,-587.248 176.672,-579.751"/>
<polygon fill="midnightblue" stroke="midnightblue" points="191.844,-609.595 200.22,-616.083 197.719,-605.788 191.844,-609.595"/>
</g>
<!-- Node21&#45;&gt;Node14 -->
<g id="edge33" class="edge"><title>Node21&#45;&gt;Node14</title>
<path fill="none" stroke="midnightblue" d="M159.745,-551.145C137.708,-514.423 91,-427.137 91,-347 91,-347 91,-347 91,-177 91,-115.166 173.513,-85.2561 219.281,-73.4215"/>
<polygon fill="midnightblue" stroke="midnightblue" points="157.034,-553.42 165.247,-560.114 163.001,-549.76 157.034,-553.42"/>
</g>
<!-- Node22 -->
<g id="node13" class="node"><title>Node22</title>
<g id="a_node13"><a xlink:href="api_2spec_2queue_8h.html" target="_top" xlink:title="ODP queue. ">
<polygon fill="white" stroke="black" points="184.5,-504.5 184.5,-523.5 235.5,-523.5 235.5,-504.5 184.5,-504.5"/>
<text text-anchor="middle" x="210" y="-511.5" font-family="Helvetica,sans-Serif" font-size="10.00">queue.h</text>
</a>
</g>
</g>
<!-- Node21&#45;&gt;Node22 -->
<g id="edge14" class="edge"><title>Node21&#45;&gt;Node22</title>
<path fill="none" stroke="midnightblue" d="M183.382,-551.855C190.135,-542.505 198.209,-531.327 203.68,-523.751"/>
<polygon fill="midnightblue" stroke="midnightblue" points="180.458,-549.927 177.44,-560.083 186.132,-554.025 180.458,-549.927"/>
</g>
<!-- Node30 -->
<g id="node21" class="node"><title>Node30</title>
<g id="a_node21"><a xlink:href="api_2spec_2schedule_8h.html" target="_top" xlink:title="ODP schedule. ">
<polygon fill="white" stroke="black" points="119,-392.5 119,-411.5 183,-411.5 183,-392.5 119,-392.5"/>
<text text-anchor="middle" x="151" y="-399.5" font-family="Helvetica,sans-Serif" font-size="10.00">schedule.h</text>
</a>
</g>
</g>
<!-- Node21&#45;&gt;Node30 -->
<g id="edge32" class="edge"><title>Node21&#45;&gt;Node30</title>
<path fill="none" stroke="midnightblue" d="M168.702,-549.93C164.364,-513.92 155.124,-437.231 152.032,-411.568"/>
<polygon fill="midnightblue" stroke="midnightblue" points="165.254,-550.566 169.925,-560.075 172.203,-549.728 165.254,-550.566"/>
</g>
<!-- Node23 -->
<g id="node14" class="node"><title>Node23</title>
<g id="a_node14"><a xlink:href="api_2queue_8h.html" target="_top" xlink:title="ODP queue. ">
<polygon fill="white" stroke="black" points="185.5,-448.5 185.5,-467.5 236.5,-467.5 236.5,-448.5 185.5,-448.5"/>
<text text-anchor="middle" x="211" y="-455.5" font-family="Helvetica,sans-Serif" font-size="10.00">queue.h</text>
</a>
</g>
</g>
<!-- Node22&#45;&gt;Node23 -->
<g id="edge15" class="edge"><title>Node22&#45;&gt;Node23</title>
<path fill="none" stroke="midnightblue" d="M210.355,-493.805C210.52,-484.91 210.708,-474.78 210.838,-467.751"/>
<polygon fill="midnightblue" stroke="midnightblue" points="206.851,-494.02 210.165,-504.083 213.85,-494.15 206.851,-494.02"/>
</g>
<!-- Node23&#45;&gt;Node14 -->
<g id="edge31" class="edge"><title>Node23&#45;&gt;Node14</title>
<path fill="none" stroke="midnightblue" d="M211,-438.251C211,-416.357 211,-379.052 211,-347 211,-347 211,-347 211,-177 211,-137.399 233.275,-93.957 243.716,-75.769"/>
<polygon fill="midnightblue" stroke="midnightblue" points="207.5,-438.442 211,-448.442 214.5,-438.442 207.5,-438.442"/>
</g>
<!-- Node23&#45;&gt;Node17 -->
<g id="edge16" class="edge"><title>Node23&#45;&gt;Node17</title>
<path fill="none" stroke="midnightblue" d="M221.258,-439.64C235.379,-415.744 260.265,-373.629 270.923,-355.591"/>
<polygon fill="midnightblue" stroke="midnightblue" points="218.175,-437.979 216.1,-448.368 224.201,-441.54 218.175,-437.979"/>
</g>
<!-- Node23&#45;&gt;Node24 -->
<g id="edge17" class="edge"><title>Node23&#45;&gt;Node24</title>
<path fill="none" stroke="midnightblue" d="M242.249,-444.772C268.171,-434.629 304.362,-420.467 327.236,-411.516"/>
<polygon fill="midnightblue" stroke="midnightblue" points="240.904,-441.54 232.867,-448.444 243.454,-448.059 240.904,-441.54"/>
</g>
<!-- Node23&#45;&gt;Node30 -->
<g id="edge28" class="edge"><title>Node23&#45;&gt;Node30</title>
<path fill="none" stroke="midnightblue" d="M193.819,-441.537C183.121,-431.909 169.744,-419.869 160.815,-411.834"/>
<polygon fill="midnightblue" stroke="midnightblue" points="191.586,-444.236 201.36,-448.324 196.268,-439.033 191.586,-444.236"/>
</g>
<!-- Node25 -->
<g id="node16" class="node"><title>Node25</title>
<g id="a_node16"><a xlink:href="api_2packet__io_8h.html" target="_top" xlink:title="ODP Packet IO. ">
<polygon fill="white" stroke="black" points="360.5,-336.5 360.5,-355.5 427.5,-355.5 427.5,-336.5 360.5,-336.5"/>
<text text-anchor="middle" x="394" y="-343.5" font-family="Helvetica,sans-Serif" font-size="10.00">packet_io.h</text>
</a>
</g>
</g>
<!-- Node24&#45;&gt;Node25 -->
<g id="edge18" class="edge"><title>Node24&#45;&gt;Node25</title>
<path fill="none" stroke="midnightblue" d="M363.047,-384.144C370.887,-374.736 380.329,-363.405 386.707,-355.751"/>
<polygon fill="midnightblue" stroke="midnightblue" points="360.144,-382.16 356.431,-392.083 365.521,-386.641 360.144,-382.16"/>
</g>
<!-- Node25&#45;&gt;Node14 -->
<g id="edge27" class="edge"><title>Node25&#45;&gt;Node14</title>
<path fill="none" stroke="midnightblue" d="M415.641,-329.952C425.553,-322.062 436.693,-311.624 444,-300 460.018,-274.518 463,-265.098 463,-235 463,-235 463,-235 463,-177 463,-95.1238 337.557,-74.1405 278.756,-68.8022"/>
<polygon fill="midnightblue" stroke="midnightblue" points="413.245,-327.375 407.374,-336.195 417.463,-332.961 413.245,-327.375"/>
</g>
<!-- Node25&#45;&gt;Node18 -->
<g id="edge23" class="edge"><title>Node25&#45;&gt;Node18</title>
<path fill="none" stroke="midnightblue" d="M372.187,-330.058C362.235,-322.193 351.111,-311.745 344,-300 321.201,-262.342 315.067,-208.323 313.504,-187.569"/>
<polygon fill="midnightblue" stroke="midnightblue" points="370.396,-333.088 380.501,-336.272 374.587,-327.482 370.396,-333.088"/>
</g>
<!-- Node26 -->
<g id="node17" class="node"><title>Node26</title>
<g id="a_node17"><a xlink:href="api_2spec_2classification_8h.html" target="_top" xlink:title="ODP classification descriptor. ">
<polygon fill="white" stroke="black" points="353,-280.5 353,-299.5 435,-299.5 435,-280.5 353,-280.5"/>
<text text-anchor="middle" x="394" y="-287.5" font-family="Helvetica,sans-Serif" font-size="10.00">classification.h</text>
</a>
</g>
</g>
<!-- Node25&#45;&gt;Node26 -->
<g id="edge19" class="edge"><title>Node25&#45;&gt;Node26</title>
<path fill="none" stroke="midnightblue" d="M394,-325.805C394,-316.91 394,-306.78 394,-299.751"/>
<polygon fill="midnightblue" stroke="midnightblue" points="390.5,-326.083 394,-336.083 397.5,-326.083 390.5,-326.083"/>
</g>
<!-- Node28 -->
<g id="node19" class="node"><title>Node28</title>
<g id="a_node19"><a xlink:href="api_2spec_2traffic__mngr_8h.html" target="_top" xlink:title="Copyright (c) 2015&#45;2018, Linaro Limited All rights reserved. ">
<polygon fill="white" stroke="black" points="491.5,-280.5 491.5,-299.5 568.5,-299.5 568.5,-280.5 491.5,-280.5"/>
<text text-anchor="middle" x="530" y="-287.5" font-family="Helvetica,sans-Serif" font-size="10.00">traffic_mngr.h</text>
</a>
</g>
</g>
<!-- Node25&#45;&gt;Node28 -->
<g id="edge24" class="edge"><title>Node25&#45;&gt;Node28</title>
<path fill="none" stroke="midnightblue" d="M425.135,-332.638C450.657,-322.504 486.109,-308.427 508.551,-299.516"/>
<polygon fill="midnightblue" stroke="midnightblue" points="423.552,-329.5 415.55,-336.444 426.135,-336.006 423.552,-329.5"/>
</g>
<!-- Node27 -->
<g id="node18" class="node"><title>Node27</title>
<g id="a_node18"><a xlink:href="api_2classification_8h.html" target="_top" xlink:title="ODP classification descriptor. ">
<polygon fill="white" stroke="black" points="353,-224.5 353,-243.5 435,-243.5 435,-224.5 353,-224.5"/>
<text text-anchor="middle" x="394" y="-231.5" font-family="Helvetica,sans-Serif" font-size="10.00">classification.h</text>
</a>
</g>
</g>
<!-- Node26&#45;&gt;Node27 -->
<g id="edge20" class="edge"><title>Node26&#45;&gt;Node27</title>
<path fill="none" stroke="midnightblue" d="M394,-269.805C394,-260.91 394,-250.78 394,-243.751"/>
<polygon fill="midnightblue" stroke="midnightblue" points="390.5,-270.083 394,-280.083 397.5,-270.083 390.5,-270.083"/>
</g>
<!-- Node27&#45;&gt;Node14 -->
<g id="edge22" class="edge"><title>Node27&#45;&gt;Node14</title>
<path fill="none" stroke="midnightblue" d="M391.016,-214.159C386,-188.16 373.581,-141.191 346,-112 327.896,-92.8388 300.031,-81.089 278.804,-74.4241"/>
<polygon fill="midnightblue" stroke="midnightblue" points="387.603,-214.956 392.782,-224.199 394.497,-213.744 387.603,-214.956"/>
</g>
<!-- Node27&#45;&gt;Node18 -->
<g id="edge21" class="edge"><title>Node27&#45;&gt;Node18</title>
<path fill="none" stroke="midnightblue" d="M372.433,-218.622C357.636,-208.757 338.488,-195.992 325.982,-187.655"/>
<polygon fill="midnightblue" stroke="midnightblue" points="370.724,-221.689 380.986,-224.324 374.607,-215.865 370.724,-221.689"/>
</g>
<!-- Node29 -->
<g id="node20" class="node"><title>Node29</title>
<g id="a_node20"><a xlink:href="api_2traffic__mngr_8h.html" target="_top" xlink:title="ODP Traffic manager. ">
<polygon fill="white" stroke="black" points="491.5,-168.5 491.5,-187.5 568.5,-187.5 568.5,-168.5 491.5,-168.5"/>
<text text-anchor="middle" x="530" y="-175.5" font-family="Helvetica,sans-Serif" font-size="10.00">traffic_mngr.h</text>
</a>
</g>
</g>
<!-- Node28&#45;&gt;Node29 -->
<g id="edge25" class="edge"><title>Node28&#45;&gt;Node29</title>
<path fill="none" stroke="midnightblue" d="M530,-270.348C530,-246.254 530,-205.308 530,-187.591"/>
<polygon fill="midnightblue" stroke="midnightblue" points="526.5,-270.368 530,-280.368 533.5,-270.369 526.5,-270.368"/>
</g>
<!-- Node29&#45;&gt;Node14 -->
<g id="edge26" class="edge"><title>Node29&#45;&gt;Node14</title>
<path fill="none" stroke="midnightblue" d="M520.364,-159.346C511.216,-144.331 496.046,-123.438 477,-112 413.702,-73.9879 324.392,-67.3262 278.604,-66.6178"/>
<polygon fill="midnightblue" stroke="midnightblue" points="517.451,-161.3 525.487,-168.205 523.511,-157.796 517.451,-161.3"/>
</g>
<!-- Node31 -->
<g id="node22" class="node"><title>Node31</title>
<g id="a_node22"><a xlink:href="api_2schedule_8h.html" target="_top" xlink:title="ODP schedule. ">
<polygon fill="white" stroke="black" points="119,-224.5 119,-243.5 183,-243.5 183,-224.5 119,-224.5"/>
<text text-anchor="middle" x="151" y="-231.5" font-family="Helvetica,sans-Serif" font-size="10.00">schedule.h</text>
</a>
</g>
</g>
<!-- Node30&#45;&gt;Node31 -->
<g id="edge29" class="edge"><title>Node30&#45;&gt;Node31</title>
<path fill="none" stroke="midnightblue" d="M151,-381.93C151,-345.92 151,-269.231 151,-243.568"/>
<polygon fill="midnightblue" stroke="midnightblue" points="147.5,-382.075 151,-392.075 154.5,-382.075 147.5,-382.075"/>
</g>
<!-- Node31&#45;&gt;Node14 -->
<g id="edge30" class="edge"><title>Node31&#45;&gt;Node14</title>
<path fill="none" stroke="midnightblue" d="M155.023,-214.448C161.083,-189.469 174.324,-144.419 197,-112 207.538,-96.9339 224.215,-83.7098 235.832,-75.5635"/>
<polygon fill="midnightblue" stroke="midnightblue" points="151.566,-213.866 152.736,-224.396 158.388,-215.434 151.566,-213.866"/>
</g>
<!-- Node33 -->
<g id="node24" class="node"><title>Node33</title>
<g id="a_node24"><a xlink:href="api_2packet__flags_8h.html" target="_top" xlink:title="ODP packet flags. ">
<polygon fill="white" stroke="black" points="550,-112.5 550,-131.5 630,-131.5 630,-112.5 550,-112.5"/>
<text text-anchor="middle" x="590" y="-119.5" font-family="Helvetica,sans-Serif" font-size="10.00">packet_flags.h</text>
</a>
</g>
</g>
<!-- Node32&#45;&gt;Node33 -->
<g id="edge35" class="edge"><title>Node32&#45;&gt;Node33</title>
<path fill="none" stroke="midnightblue" d="M530.642,-554.761C557.01,-536.221 597,-501.154 597,-459 597,-459 597,-459 597,-233 597,-195.111 592.813,-150.029 590.915,-131.546"/>
<polygon fill="midnightblue" stroke="midnightblue" points="528.623,-551.901 522.299,-560.401 532.544,-557.7 528.623,-551.901"/>
</g>
<!-- Node33&#45;&gt;Node14 -->
<g id="edge36" class="edge"><title>Node33&#45;&gt;Node14</title>
<path fill="none" stroke="midnightblue" d="M539.67,-113.03C467.491,-101.6 336.863,-80.9138 278.525,-71.6755"/>
<polygon fill="midnightblue" stroke="midnightblue" points="539.456,-116.539 549.88,-114.647 540.551,-109.626 539.456,-116.539"/>
</g>
</g>
</svg>
