<?xml version="1.0" encoding="UTF-8" standalone="no"?>
<!DOCTYPE svg PUBLIC "-//W3C//DTD SVG 1.1//EN"
 "http://www.w3.org/Graphics/SVG/1.1/DTD/svg11.dtd">
<!-- Generated by graphviz version 2.36.0 (20140111.2315)
 -->
<!-- Title: shared_memory.h Pages: 1 -->
<svg width="1243pt" height="432pt"
 viewBox="0.00 0.00 1243.00 432.00" xmlns="http://www.w3.org/2000/svg" xmlns:xlink="http://www.w3.org/1999/xlink">
<g id="graph0" class="graph" transform="scale(1 1) rotate(0) translate(4 428)">
<title>shared_memory.h</title>
<polygon fill="white" stroke="none" points="-4,4 -4,-428 1239,-428 1239,4 -4,4"/>
<!-- Node0 -->
<g id="node1" class="node"><title>Node0</title>
<polygon fill="#bfbfbf" stroke="black" points="568.5,-404.5 568.5,-423.5 663.5,-423.5 663.5,-404.5 568.5,-404.5"/>
<text text-anchor="middle" x="616" y="-411.5" font-family="Helvetica,sans-Serif" font-size="10.00">shared_memory.h</text>
</g>
<!-- Node1 -->
<g id="node2" class="node"><title>Node1</title>
<g id="a_node2"><a xlink:href="visibility__begin_8h_source.html" target="_top" xlink:title="odp/visibility_begin.h">
<polygon fill="white" stroke="black" points="144.5,-0.5 144.5,-19.5 251.5,-19.5 251.5,-0.5 144.5,-0.5"/>
<text text-anchor="middle" x="198" y="-7.5" font-family="Helvetica,sans-Serif" font-size="10.00">odp/visibility_begin.h</text>
</a>
</g>
</g>
<!-- Node0&#45;&gt;Node1 -->
<g id="edge1" class="edge"><title>Node0&#45;&gt;Node1</title>
<path fill="none" stroke="midnightblue" d="M568.432,-409.531C423.943,-398.362 0,-360.679 0,-303 0,-303 0,-303 0,-133 0,-95.2222 7.15964,-80.4007 36,-56 63.3643,-32.8481 101.751,-21.5531 134.289,-16.0669"/>
<polygon fill="midnightblue" stroke="midnightblue" points="134.83,-19.525 144.181,-14.5441 133.765,-12.6065 134.83,-19.525"/>
</g>
<!-- Node2 -->
<g id="node3" class="node"><title>Node2</title>
<g id="a_node3"><a xlink:href="api_2init_8h.html" target="_top" xlink:title="ODP initialization. ">
<polygon fill="white" stroke="black" points="580,-348.5 580,-367.5 652,-367.5 652,-348.5 580,-348.5"/>
<text text-anchor="middle" x="616" y="-355.5" font-family="Helvetica,sans-Serif" font-size="10.00">odp/api/init.h</text>
</a>
</g>
</g>
<!-- Node0&#45;&gt;Node2 -->
<g id="edge2" class="edge"><title>Node0&#45;&gt;Node2</title>
<path fill="none" stroke="midnightblue" d="M616,-404.083C616,-397.006 616,-386.861 616,-377.986"/>
<polygon fill="midnightblue" stroke="midnightblue" points="619.5,-377.751 616,-367.751 612.5,-377.751 619.5,-377.751"/>
</g>
<!-- Node9 -->
<g id="node10" class="node"><title>Node9</title>
<g id="a_node10"><a xlink:href="visibility__end_8h_source.html" target="_top" xlink:title="odp/visibility_end.h">
<polygon fill="white" stroke="black" points="828,-0.5 828,-19.5 928,-19.5 928,-0.5 828,-0.5"/>
<text text-anchor="middle" x="878" y="-7.5" font-family="Helvetica,sans-Serif" font-size="10.00">odp/visibility_end.h</text>
</a>
</g>
</g>
<!-- Node0&#45;&gt;Node9 -->
<g id="edge33" class="edge"><title>Node0&#45;&gt;Node9</title>
<path fill="none" stroke="midnightblue" d="M663.544,-409.574C808.491,-398.499 1235,-360.985 1235,-303 1235,-303 1235,-303 1235,-133 1235,-95.59 1230.89,-78.4985 1201,-56 1155.91,-22.0603 1010.18,-27.8037 938.259,-19.9737"/>
<polygon fill="midnightblue" stroke="midnightblue" points="938.562,-16.4843 928.204,-18.7136 937.691,-23.43 938.562,-16.4843"/>
</g>
<!-- Node3 -->
<g id="node4" class="node"><title>Node3</title>
<polygon fill="white" stroke="#bfbfbf" points="517,-292.5 517,-311.5 605,-311.5 605,-292.5 517,-292.5"/>
<text text-anchor="middle" x="561" y="-299.5" font-family="Helvetica,sans-Serif" font-size="10.00">odp/api/abi/init.h</text>
</g>
<!-- Node2&#45;&gt;Node3 -->
<g id="edge3" class="edge"><title>Node2&#45;&gt;Node3</title>
<path fill="none" stroke="midnightblue" d="M606.918,-348.083C598.829,-340.141 586.805,-328.335 577.09,-318.797"/>
<polygon fill="midnightblue" stroke="midnightblue" points="579.501,-316.26 569.913,-311.751 574.597,-321.254 579.501,-316.26"/>
</g>
<!-- Node4 -->
<g id="node5" class="node"><title>Node4</title>
<g id="a_node5"><a xlink:href="api_2spec_2init_8h.html" target="_top" xlink:title="ODP initialization. ">
<polygon fill="white" stroke="black" points="623,-292.5 623,-311.5 719,-311.5 719,-292.5 623,-292.5"/>
<text text-anchor="middle" x="671" y="-299.5" font-family="Helvetica,sans-Serif" font-size="10.00">odp/api/spec/init.h</text>
</a>
</g>
</g>
<!-- Node2&#45;&gt;Node4 -->
<g id="edge4" class="edge"><title>Node2&#45;&gt;Node4</title>
<path fill="none" stroke="midnightblue" d="M625.082,-348.083C633.171,-340.141 645.195,-328.335 654.91,-318.797"/>
<polygon fill="midnightblue" stroke="midnightblue" points="657.403,-321.254 662.087,-311.751 652.499,-316.26 657.403,-321.254"/>
</g>
<!-- Node4&#45;&gt;Node1 -->
<g id="edge5" class="edge"><title>Node4&#45;&gt;Node1</title>
<path fill="none" stroke="midnightblue" d="M622.918,-293.36C619.564,-292.882 616.233,-292.424 613,-292 484.366,-275.138 38,-320.734 38,-191 38,-191 38,-191 38,-133 38,-97.7513 32.9244,-81.7455 57,-56 77.0078,-34.6045 107.157,-23.3407 134.448,-17.4279"/>
<polygon fill="midnightblue" stroke="midnightblue" points="135.211,-20.8449 144.349,-15.4827 133.861,-13.9762 135.211,-20.8449"/>
</g>
<!-- Node5 -->
<g id="node6" class="node"><title>Node5</title>
<g id="a_node6"><a xlink:href="api_2std__types_8h.html" target="_top" xlink:title="Standard C language types and definitions for ODP. ">
<polygon fill="white" stroke="black" points="916,-124.5 916,-143.5 1018,-143.5 1018,-124.5 916,-124.5"/>
<text text-anchor="middle" x="967" y="-131.5" font-family="Helvetica,sans-Serif" font-size="10.00">odp/api/std_types.h</text>
</a>
</g>
</g>
<!-- Node4&#45;&gt;Node5 -->
<g id="edge6" class="edge"><title>Node4&#45;&gt;Node5</title>
<path fill="none" stroke="midnightblue" d="M707.981,-292.474C738.1,-284.857 781.323,-272.375 817,-256 859.474,-236.505 869.938,-229.726 906,-200 923.998,-185.164 941.948,-165.267 953.667,-151.411"/>
<polygon fill="midnightblue" stroke="midnightblue" points="956.406,-153.591 960.104,-143.663 951.021,-149.118 956.406,-153.591"/>
</g>
<!-- Node4&#45;&gt;Node9 -->
<g id="edge32" class="edge"><title>Node4&#45;&gt;Node9</title>
<path fill="none" stroke="midnightblue" d="M719.073,-301.086C848.923,-300.031 1197,-288.143 1197,-191 1197,-191 1197,-191 1197,-133 1197,-97.7513 1204.06,-79.7307 1178,-56 1139.99,-21.3956 1005.24,-27.3317 938.339,-19.9734"/>
<polygon fill="midnightblue" stroke="midnightblue" points="938.575,-16.475 928.21,-18.67 937.682,-23.4177 938.575,-16.475"/>
</g>
<!-- Node10 -->
<g id="node11" class="node"><title>Node10</title>
<g id="a_node11"><a xlink:href="hints_8h.html" target="_top" xlink:title="ODP compiler hints. ">
<polygon fill="white" stroke="black" points="286,-236.5 286,-255.5 366,-255.5 366,-236.5 286,-236.5"/>
<text text-anchor="middle" x="326" y="-243.5" font-family="Helvetica,sans-Serif" font-size="10.00">odp/api/hints.h</text>
</a>
</g>
</g>
<!-- Node4&#45;&gt;Node10 -->
<g id="edge12" class="edge"><title>Node4&#45;&gt;Node10</title>
<path fill="none" stroke="midnightblue" d="M622.666,-293.435C557.623,-283.254 442.477,-265.231 376.395,-254.888"/>
<polygon fill="midnightblue" stroke="midnightblue" points="376.647,-251.385 366.226,-253.296 375.564,-258.301 376.647,-251.385"/>
</g>
<!-- Node12 -->
<g id="node13" class="node"><title>Node12</title>
<g id="a_node13"><a xlink:href="feature_8h.html" target="_top" xlink:title="ODP features. ">
<polygon fill="white" stroke="black" points="719.5,-236.5 719.5,-255.5 808.5,-255.5 808.5,-236.5 719.5,-236.5"/>
<text text-anchor="middle" x="764" y="-243.5" font-family="Helvetica,sans-Serif" font-size="10.00">odp/api/feature.h</text>
</a>
</g>
</g>
<!-- Node4&#45;&gt;Node12 -->
<g id="edge16" class="edge"><title>Node4&#45;&gt;Node12</title>
<path fill="none" stroke="midnightblue" d="M685.942,-292.324C700.585,-283.822 723.134,-270.729 740.238,-260.797"/>
<polygon fill="midnightblue" stroke="midnightblue" points="742.205,-263.703 749.095,-255.655 738.69,-257.649 742.205,-263.703"/>
</g>
<!-- Node14 -->
<g id="node15" class="node"><title>Node14</title>
<g id="a_node15"><a xlink:href="api_2thread_8h.html" target="_top" xlink:title="ODP thread API. ">
<polygon fill="white" stroke="black" points="416,-124.5 416,-143.5 502,-143.5 502,-124.5 416,-124.5"/>
<text text-anchor="middle" x="459" y="-131.5" font-family="Helvetica,sans-Serif" font-size="10.00">odp/api/thread.h</text>
</a>
</g>
</g>
<!-- Node4&#45;&gt;Node14 -->
<g id="edge21" class="edge"><title>Node4&#45;&gt;Node14</title>
<path fill="none" stroke="midnightblue" d="M659.9,-292.309C625.627,-265.472 521.187,-183.694 478,-149.878"/>
<polygon fill="midnightblue" stroke="midnightblue" points="480.021,-147.015 469.99,-143.605 475.705,-152.526 480.021,-147.015"/>
</g>
<!-- Node18 -->
<g id="node19" class="node"><title>Node18</title>
<g id="a_node19"><a xlink:href="api_2cpumask_8h.html" target="_top" xlink:title="ODP CPU masks and enumeration. ">
<polygon fill="white" stroke="black" points="621.5,-124.5 621.5,-143.5 720.5,-143.5 720.5,-124.5 621.5,-124.5"/>
<text text-anchor="middle" x="671" y="-131.5" font-family="Helvetica,sans-Serif" font-size="10.00">odp/api/cpumask.h</text>
</a>
</g>
</g>
<!-- Node4&#45;&gt;Node18 -->
<g id="edge27" class="edge"><title>Node4&#45;&gt;Node18</title>
<path fill="none" stroke="midnightblue" d="M671,-292.075C671,-265.945 671,-189.211 671,-153.577"/>
<polygon fill="midnightblue" stroke="midnightblue" points="674.5,-153.568 671,-143.568 667.5,-153.568 674.5,-153.568"/>
</g>
<!-- Node6 -->
<g id="node7" class="node"><title>Node6</title>
<polygon fill="white" stroke="#bfbfbf" points="1051,-62.5 1051,-81.5 1169,-81.5 1169,-62.5 1051,-62.5"/>
<text text-anchor="middle" x="1110" y="-69.5" font-family="Helvetica,sans-Serif" font-size="10.00">odp/api/abi/std_types.h</text>
</g>
<!-- Node5&#45;&gt;Node6 -->
<g id="edge7" class="edge"><title>Node5&#45;&gt;Node6</title>
<path fill="none" stroke="midnightblue" d="M987.488,-124.403C1011.81,-114.2 1052.55,-97.1055 1080.32,-85.4544"/>
<polygon fill="midnightblue" stroke="midnightblue" points="1081.68,-88.6771 1089.55,-81.5806 1078.97,-82.2223 1081.68,-88.6771"/>
</g>
<!-- Node7 -->
<g id="node8" class="node"><title>Node7</title>
<g id="a_node8"><a xlink:href="api_2spec_2std__types_8h.html" target="_top" xlink:title="Standard C language types and definitions for ODP. ">
<polygon fill="white" stroke="black" points="907,-62.5 907,-81.5 1033,-81.5 1033,-62.5 907,-62.5"/>
<text text-anchor="middle" x="970" y="-69.5" font-family="Helvetica,sans-Serif" font-size="10.00">odp/api/spec/std_types.h</text>
</a>
</g>
</g>
<!-- Node5&#45;&gt;Node7 -->
<g id="edge8" class="edge"><title>Node5&#45;&gt;Node7</title>
<path fill="none" stroke="midnightblue" d="M967.43,-124.403C967.853,-115.938 968.514,-102.728 969.059,-91.8199"/>
<polygon fill="midnightblue" stroke="midnightblue" points="972.567,-91.7429 969.571,-81.5806 965.576,-91.3933 972.567,-91.7429"/>
</g>
<!-- Node7&#45;&gt;Node1 -->
<g id="edge9" class="edge"><title>Node7&#45;&gt;Node1</title>
<path fill="none" stroke="midnightblue" d="M912.475,-62.4875C895.3,-60.1458 876.412,-57.7672 859,-56 640.446,-33.8181 380.096,-19.6875 261.955,-13.9409"/>
<polygon fill="midnightblue" stroke="midnightblue" points="261.809,-10.4299 251.651,-13.4435 261.471,-17.4217 261.809,-10.4299"/>
</g>
<!-- Node8 -->
<g id="node9" class="node"><title>Node8</title>
<polygon fill="white" stroke="#bfbfbf" points="946.5,-0.5 946.5,-19.5 995.5,-19.5 995.5,-0.5 946.5,-0.5"/>
<text text-anchor="middle" x="971" y="-7.5" font-family="Helvetica,sans-Serif" font-size="10.00">stdint.h</text>
</g>
<!-- Node7&#45;&gt;Node8 -->
<g id="edge10" class="edge"><title>Node7&#45;&gt;Node8</title>
<path fill="none" stroke="midnightblue" d="M970.143,-62.4035C970.284,-53.9381 970.505,-40.7283 970.686,-29.8199"/>
<polygon fill="midnightblue" stroke="midnightblue" points="974.19,-29.6376 970.857,-19.5806 967.191,-29.5208 974.19,-29.6376"/>
</g>
<!-- Node7&#45;&gt;Node9 -->
<g id="edge11" class="edge"><title>Node7&#45;&gt;Node9</title>
<path fill="none" stroke="midnightblue" d="M956.819,-62.4035C941.926,-52.6905 917.456,-36.7319 899.727,-25.1697"/>
<polygon fill="midnightblue" stroke="midnightblue" points="901.445,-22.1117 891.157,-19.5806 897.621,-27.975 901.445,-22.1117"/>
</g>
<!-- Node11 -->
<g id="node12" class="node"><title>Node11</title>
<g id="a_node12"><a xlink:href="spec_2hints_8h.html" target="_top" xlink:title="ODP compiler hints. ">
<polygon fill="white" stroke="black" points="66,-62.5 66,-81.5 170,-81.5 170,-62.5 66,-62.5"/>
<text text-anchor="middle" x="118" y="-69.5" font-family="Helvetica,sans-Serif" font-size="10.00">odp/api/spec/hints.h</text>
</a>
</g>
</g>
<!-- Node10&#45;&gt;Node11 -->
<g id="edge13" class="edge"><title>Node10&#45;&gt;Node11</title>
<path fill="none" stroke="midnightblue" d="M312,-236.401C285.708,-219.964 227.666,-182.303 184,-144 164.54,-126.93 144.638,-104.742 131.851,-89.7475"/>
<polygon fill="midnightblue" stroke="midnightblue" points="134.317,-87.2424 125.201,-81.8437 128.961,-91.749 134.317,-87.2424"/>
</g>
<!-- Node11&#45;&gt;Node1 -->
<g id="edge14" class="edge"><title>Node11&#45;&gt;Node1</title>
<path fill="none" stroke="midnightblue" d="M129.462,-62.4035C142.175,-52.8688 162.913,-37.3154 178.253,-25.8106"/>
<polygon fill="midnightblue" stroke="midnightblue" points="180.659,-28.3806 186.559,-19.5806 176.459,-22.7806 180.659,-28.3806"/>
</g>
<!-- Node11&#45;&gt;Node9 -->
<g id="edge15" class="edge"><title>Node11&#45;&gt;Node9</title>
<path fill="none" stroke="midnightblue" d="M168.768,-62.4867C184.22,-60.1172 201.275,-57.7236 217,-56 437.589,-31.8216 701.109,-18.5284 817.57,-13.4457"/>
<polygon fill="midnightblue" stroke="midnightblue" points="817.868,-16.9362 827.707,-13.0079 817.566,-9.94274 817.868,-16.9362"/>
</g>
<!-- Node13 -->
<g id="node14" class="node"><title>Node13</title>
<g id="a_node14"><a xlink:href="spec_2feature_8h.html" target="_top" xlink:title="ODP features. ">
<polygon fill="white" stroke="black" points="784.5,-180.5 784.5,-199.5 897.5,-199.5 897.5,-180.5 784.5,-180.5"/>
<text text-anchor="middle" x="841" y="-187.5" font-family="Helvetica,sans-Serif" font-size="10.00">odp/api/spec/feature.h</text>
</a>
</g>
</g>
<!-- Node12&#45;&gt;Node13 -->
<g id="edge17" class="edge"><title>Node12&#45;&gt;Node13</title>
<path fill="none" stroke="midnightblue" d="M776.371,-236.324C788.158,-228.058 806.132,-215.453 820.136,-205.632"/>
<polygon fill="midnightblue" stroke="midnightblue" points="822.482,-208.262 828.659,-199.655 818.462,-202.531 822.482,-208.262"/>
</g>
<!-- Node13&#45;&gt;Node1 -->
<g id="edge18" class="edge"><title>Node13&#45;&gt;Node1</title>
<path fill="none" stroke="midnightblue" d="M784.329,-186.441C700.988,-181.932 540.769,-170.416 407,-144 320.632,-126.944 277.844,-151.626 217,-88 202.09,-72.4083 198.314,-47.0591 197.628,-29.7364"/>
<polygon fill="midnightblue" stroke="midnightblue" points="201.127,-29.6634 197.537,-19.6953 194.128,-29.7265 201.127,-29.6634"/>
</g>
<!-- Node13&#45;&gt;Node5 -->
<g id="edge19" class="edge"><title>Node13&#45;&gt;Node5</title>
<path fill="none" stroke="midnightblue" d="M860.965,-180.444C881.609,-171.596 914.063,-157.687 937.632,-147.586"/>
<polygon fill="midnightblue" stroke="midnightblue" points="939.316,-150.673 947.128,-143.516 936.558,-144.239 939.316,-150.673"/>
</g>
<!-- Node13&#45;&gt;Node9 -->
<g id="edge20" class="edge"><title>Node13&#45;&gt;Node9</title>
<path fill="none" stroke="midnightblue" d="M842.785,-180.415C848.46,-153.11 866.187,-67.8317 874.108,-29.7237"/>
<polygon fill="midnightblue" stroke="midnightblue" points="877.538,-30.4215 876.146,-19.9185 870.684,-28.9969 877.538,-30.4215"/>
</g>
<!-- Node15 -->
<g id="node16" class="node"><title>Node15</title>
<g id="a_node16"><a xlink:href="thread__types_8h.html" target="_top" xlink:title="ODP thread API types. ">
<polygon fill="white" stroke="black" points="226,-57 226,-87 328,-87 328,-57 226,-57"/>
<text text-anchor="start" x="234" y="-75" font-family="Helvetica,sans-Serif" font-size="10.00">odp/api/spec/thread</text>
<text text-anchor="middle" x="277" y="-64" font-family="Helvetica,sans-Serif" font-size="10.00">_types.h</text>
</a>
</g>
</g>
<!-- Node14&#45;&gt;Node15 -->
<g id="edge22" class="edge"><title>Node14&#45;&gt;Node15</title>
<path fill="none" stroke="midnightblue" d="M432.924,-124.403C405.997,-115.526 363.244,-101.432 329.311,-90.2453"/>
<polygon fill="midnightblue" stroke="midnightblue" points="330.137,-86.8323 319.543,-87.0253 327.945,-93.4804 330.137,-86.8323"/>
</g>
<!-- Node16 -->
<g id="node17" class="node"><title>Node16</title>
<polygon fill="white" stroke="#bfbfbf" points="346,-62.5 346,-81.5 448,-81.5 448,-62.5 346,-62.5"/>
<text text-anchor="middle" x="397" y="-69.5" font-family="Helvetica,sans-Serif" font-size="10.00">odp/api/abi/thread.h</text>
</g>
<!-- Node14&#45;&gt;Node16 -->
<g id="edge23" class="edge"><title>Node14&#45;&gt;Node16</title>
<path fill="none" stroke="midnightblue" d="M450.117,-124.403C440.541,-115.136 425.089,-100.183 413.314,-88.7876"/>
<polygon fill="midnightblue" stroke="midnightblue" points="415.487,-86.0197 405.867,-81.5806 410.619,-91.05 415.487,-86.0197"/>
</g>
<!-- Node17 -->
<g id="node18" class="node"><title>Node17</title>
<g id="a_node18"><a xlink:href="api_2spec_2thread_8h.html" target="_top" xlink:title="ODP thread API. ">
<polygon fill="white" stroke="black" points="466,-62.5 466,-81.5 576,-81.5 576,-62.5 466,-62.5"/>
<text text-anchor="middle" x="521" y="-69.5" font-family="Helvetica,sans-Serif" font-size="10.00">odp/api/spec/thread.h</text>
</a>
</g>
</g>
<!-- Node14&#45;&gt;Node17 -->
<g id="edge24" class="edge"><title>Node14&#45;&gt;Node17</title>
<path fill="none" stroke="midnightblue" d="M467.883,-124.403C477.459,-115.136 492.911,-100.183 504.686,-88.7876"/>
<polygon fill="midnightblue" stroke="midnightblue" points="507.381,-91.05 512.133,-81.5806 502.513,-86.0197 507.381,-91.05"/>
</g>
<!-- Node17&#45;&gt;Node1 -->
<g id="edge25" class="edge"><title>Node17&#45;&gt;Node1</title>
<path fill="none" stroke="midnightblue" d="M485.654,-62.4773C476.056,-60.263 465.648,-57.9532 456,-56 389.99,-42.6369 313.992,-29.6722 261.664,-21.1188"/>
<polygon fill="midnightblue" stroke="midnightblue" points="261.956,-17.6204 251.524,-19.4681 260.831,-24.5295 261.956,-17.6204"/>
</g>
<!-- Node17&#45;&gt;Node9 -->
<g id="edge26" class="edge"><title>Node17&#45;&gt;Node9</title>
<path fill="none" stroke="midnightblue" d="M555.105,-62.4879C564.739,-60.2249 575.253,-57.8878 585,-56 665.122,-40.4825 758.408,-26.9226 817.806,-18.8492"/>
<polygon fill="midnightblue" stroke="midnightblue" points="818.324,-22.3111 827.765,-17.5038 817.387,-15.3741 818.324,-22.3111"/>
</g>
<!-- Node19 -->
<g id="node20" class="node"><title>Node19</title>
<polygon fill="white" stroke="#bfbfbf" points="594.5,-62.5 594.5,-81.5 709.5,-81.5 709.5,-62.5 594.5,-62.5"/>
<text text-anchor="middle" x="652" y="-69.5" font-family="Helvetica,sans-Serif" font-size="10.00">odp/api/abi/cpumask.h</text>
</g>
<!-- Node18&#45;&gt;Node19 -->
<g id="edge28" class="edge"><title>Node18&#45;&gt;Node19</title>
<path fill="none" stroke="midnightblue" d="M668.278,-124.403C665.541,-115.76 661.237,-102.17 657.742,-91.1341"/>
<polygon fill="midnightblue" stroke="midnightblue" points="661.073,-90.0574 654.717,-81.5806 654.399,-92.1707 661.073,-90.0574"/>
</g>
<!-- Node20 -->
<g id="node21" class="node"><title>Node20</title>
<g id="a_node21"><a xlink:href="api_2spec_2cpumask_8h.html" target="_top" xlink:title="ODP CPU masks and enumeration. ">
<polygon fill="white" stroke="black" points="727.5,-62.5 727.5,-81.5 850.5,-81.5 850.5,-62.5 727.5,-62.5"/>
<text text-anchor="middle" x="789" y="-69.5" font-family="Helvetica,sans-Serif" font-size="10.00">odp/api/spec/cpumask.h</text>
</a>
</g>
</g>
<!-- Node18&#45;&gt;Node20 -->
<g id="edge29" class="edge"><title>Node18&#45;&gt;Node20</title>
<path fill="none" stroke="midnightblue" d="M687.907,-124.403C707.534,-114.423 740.131,-97.8487 762.99,-86.2253"/>
<polygon fill="midnightblue" stroke="midnightblue" points="764.797,-89.233 772.125,-81.5806 761.625,-82.9933 764.797,-89.233"/>
</g>
<!-- Node20&#45;&gt;Node1 -->
<g id="edge30" class="edge"><title>Node20&#45;&gt;Node1</title>
<path fill="none" stroke="midnightblue" d="M752.669,-62.4351C741.59,-60.0639 729.341,-57.6822 718,-56 554.598,-31.7612 360.226,-19.2243 261.852,-14.0147"/>
<polygon fill="midnightblue" stroke="midnightblue" points="261.943,-10.5148 251.775,-13.489 261.579,-17.5053 261.943,-10.5148"/>
</g>
<!-- Node20&#45;&gt;Node9 -->
<g id="edge31" class="edge"><title>Node20&#45;&gt;Node9</title>
<path fill="none" stroke="midnightblue" d="M801.752,-62.4035C816.027,-52.7797 839.397,-37.0242 856.508,-25.4891"/>
<polygon fill="midnightblue" stroke="midnightblue" points="858.937,-28.0727 865.272,-19.5806 855.024,-22.2684 858.937,-28.0727"/>
</g>
</g>
</svg>
