<?xml version="1.0" encoding="UTF-8" standalone="no"?>
<!DOCTYPE svg PUBLIC "-//W3C//DTD SVG 1.1//EN"
 "http://www.w3.org/Graphics/SVG/1.1/DTD/svg11.dtd">
<!-- Generated by graphviz version 2.36.0 (20140111.2315)
 -->
<!-- Title: classification.h Pages: 1 -->
<svg width="1718pt" height="736pt"
 viewBox="0.00 0.00 1718.00 736.00" xmlns="http://www.w3.org/2000/svg" xmlns:xlink="http://www.w3.org/1999/xlink">
<g id="graph0" class="graph" transform="scale(1 1) rotate(0) translate(4 732)">
<title>classification.h</title>
<polygon fill="white" stroke="none" points="-4,4 -4,-732 1714,-732 1714,4 -4,4"/>
<!-- Node0 -->
<g id="node1" class="node"><title>Node0</title>
<polygon fill="#bfbfbf" stroke="black" points="1185,-708.5 1185,-727.5 1267,-727.5 1267,-708.5 1185,-708.5"/>
<text text-anchor="middle" x="1226" y="-715.5" font-family="Helvetica,sans-Serif" font-size="10.00">classification.h</text>
</g>
<!-- Node1 -->
<g id="node2" class="node"><title>Node1</title>
<g id="a_node2"><a xlink:href="visibility__begin_8h_source.html" target="_top" xlink:title="odp/visibility_begin.h">
<polygon fill="white" stroke="black" points="750.5,-0.5 750.5,-19.5 857.5,-19.5 857.5,-0.5 750.5,-0.5"/>
<text text-anchor="middle" x="804" y="-7.5" font-family="Helvetica,sans-Serif" font-size="10.00">odp/visibility_begin.h</text>
</a>
</g>
</g>
<!-- Node0&#45;&gt;Node1 -->
<g id="edge1" class="edge"><title>Node0&#45;&gt;Node1</title>
<path fill="none" stroke="midnightblue" d="M1184.79,-716.236C1023.57,-713.07 435.415,-699.826 251,-672 137.054,-654.807 0,-722.235 0,-607 0,-607 0,-607 0,-133 0,-71.8586 56.1495,-75.7886 114,-56 172.281,-36.064 580.626,-19.1698 740.257,-13.2543"/>
<polygon fill="midnightblue" stroke="midnightblue" points="740.542,-16.7463 750.406,-12.8807 740.284,-9.75108 740.542,-16.7463"/>
</g>
<!-- Node2 -->
<g id="node3" class="node"><title>Node2</title>
<g id="a_node3"><a xlink:href="api_2packet__io_8h.html" target="_top" xlink:title="ODP Packet IO. ">
<polygon fill="white" stroke="black" points="260.5,-652.5 260.5,-671.5 361.5,-671.5 361.5,-652.5 260.5,-652.5"/>
<text text-anchor="middle" x="311" y="-659.5" font-family="Helvetica,sans-Serif" font-size="10.00">odp/api/packet_io.h</text>
</a>
</g>
</g>
<!-- Node0&#45;&gt;Node2 -->
<g id="edge2" class="edge"><title>Node0&#45;&gt;Node2</title>
<path fill="none" stroke="midnightblue" d="M1184.91,-714.575C1038.97,-705.962 545.118,-676.817 371.762,-666.586"/>
<polygon fill="midnightblue" stroke="midnightblue" points="371.734,-663.078 361.545,-665.983 371.321,-670.066 371.734,-663.078"/>
</g>
<!-- Node7 -->
<g id="node8" class="node"><title>Node7</title>
<g id="a_node8"><a xlink:href="visibility__end_8h_source.html" target="_top" xlink:title="odp/visibility_end.h">
<polygon fill="white" stroke="black" points="1348,-0.5 1348,-19.5 1448,-19.5 1448,-0.5 1348,-0.5"/>
<text text-anchor="middle" x="1398" y="-7.5" font-family="Helvetica,sans-Serif" font-size="10.00">odp/visibility_end.h</text>
</a>
</g>
</g>
<!-- Node0&#45;&gt;Node7 -->
<g id="edge76" class="edge"><title>Node0&#45;&gt;Node7</title>
<path fill="none" stroke="midnightblue" d="M1267.27,-716.386C1384.31,-713.536 1710,-697.479 1710,-607 1710,-607 1710,-607 1710,-133 1710,-91.952 1693.37,-78.4357 1659,-56 1626.74,-34.9473 1524.92,-22.1769 1458.4,-15.865"/>
<polygon fill="midnightblue" stroke="midnightblue" points="1458.33,-12.343 1448.05,-14.9071 1457.68,-19.3133 1458.33,-12.343"/>
</g>
<!-- Node33 -->
<g id="node34" class="node"><title>Node33</title>
<g id="a_node34"><a xlink:href="support_8h.html" target="_top" xlink:title="ODP support API &#45; platform specific header. ">
<polygon fill="white" stroke="black" points="1400,-124.5 1400,-143.5 1492,-143.5 1492,-124.5 1400,-124.5"/>
<text text-anchor="middle" x="1446" y="-131.5" font-family="Helvetica,sans-Serif" font-size="10.00">odp/api/support.h</text>
</a>
</g>
</g>
<!-- Node0&#45;&gt;Node33 -->
<g id="edge70" class="edge"><title>Node0&#45;&gt;Node33</title>
<path fill="none" stroke="midnightblue" d="M1267.37,-714.647C1371.09,-707.622 1634,-682.38 1634,-607 1634,-607 1634,-607 1634,-549 1634,-380.38 1503.11,-204.914 1459.76,-151.426"/>
<polygon fill="midnightblue" stroke="midnightblue" points="1462.42,-149.155 1453.37,-143.649 1457.01,-153.598 1462.42,-149.155"/>
</g>
<!-- Node35 -->
<g id="node36" class="node"><title>Node35</title>
<g id="a_node36"><a xlink:href="threshold_8h.html" target="_top" xlink:title="ODP threshold API &#45; platform specific header. ">
<polygon fill="white" stroke="black" points="1176.5,-652.5 1176.5,-671.5 1275.5,-671.5 1275.5,-652.5 1176.5,-652.5"/>
<text text-anchor="middle" x="1226" y="-659.5" font-family="Helvetica,sans-Serif" font-size="10.00">odp/api/threshold.h</text>
</a>
</g>
</g>
<!-- Node0&#45;&gt;Node35 -->
<g id="edge71" class="edge"><title>Node0&#45;&gt;Node35</title>
<path fill="none" stroke="midnightblue" d="M1226,-708.083C1226,-701.006 1226,-690.861 1226,-681.986"/>
<polygon fill="midnightblue" stroke="midnightblue" points="1229.5,-681.751 1226,-671.751 1222.5,-681.751 1229.5,-681.751"/>
</g>
<!-- Node3 -->
<g id="node4" class="node"><title>Node3</title>
<g id="a_node4"><a xlink:href="api_2std__types_8h.html" target="_top" xlink:title="Standard C language types and definitions for ODP. ">
<polygon fill="white" stroke="black" points="471,-124.5 471,-143.5 573,-143.5 573,-124.5 471,-124.5"/>
<text text-anchor="middle" x="522" y="-131.5" font-family="Helvetica,sans-Serif" font-size="10.00">odp/api/std_types.h</text>
</a>
</g>
</g>
<!-- Node2&#45;&gt;Node3 -->
<g id="edge3" class="edge"><title>Node2&#45;&gt;Node3</title>
<path fill="none" stroke="midnightblue" d="M260.498,-658.197C200.793,-653.704 106.761,-642.521 85,-616 77.5725,-606.948 -32.593,-426.017 95,-248 137.52,-188.677 352.905,-155.097 460.563,-141.777"/>
<polygon fill="midnightblue" stroke="midnightblue" points="461.132,-145.234 470.636,-140.551 460.286,-138.285 461.132,-145.234"/>
</g>
<!-- Node8 -->
<g id="node9" class="node"><title>Node8</title>
<polygon fill="white" stroke="#bfbfbf" points="400.5,-248.5 400.5,-267.5 493.5,-267.5 493.5,-248.5 400.5,-248.5"/>
<text text-anchor="middle" x="447" y="-255.5" font-family="Helvetica,sans-Serif" font-size="10.00">odp/api/abi/pool.h</text>
</g>
<!-- Node2&#45;&gt;Node8 -->
<g id="edge9" class="edge"><title>Node2&#45;&gt;Node8</title>
<path fill="none" stroke="midnightblue" d="M313.562,-652.249C318.749,-633.738 330,-589.179 330,-551 330,-551 330,-551 330,-381 330,-329.631 384.701,-291.472 419.298,-272.474"/>
<polygon fill="midnightblue" stroke="midnightblue" points="421.257,-275.397 428.461,-267.629 417.985,-269.209 421.257,-275.397"/>
</g>
<!-- Node9 -->
<g id="node10" class="node"><title>Node9</title>
<polygon fill="white" stroke="#bfbfbf" points="94,-596.5 94,-615.5 226,-615.5 226,-596.5 94,-596.5"/>
<text text-anchor="middle" x="160" y="-603.5" font-family="Helvetica,sans-Serif" font-size="10.00">odp/api/abi/classification.h</text>
</g>
<!-- Node2&#45;&gt;Node9 -->
<g id="edge10" class="edge"><title>Node2&#45;&gt;Node9</title>
<path fill="none" stroke="midnightblue" d="M287.074,-652.444C261.781,-643.399 221.698,-629.064 193.32,-618.916"/>
<polygon fill="midnightblue" stroke="midnightblue" points="194.409,-615.588 183.814,-615.516 192.052,-622.179 194.409,-615.588"/>
</g>
<!-- Node10 -->
<g id="node11" class="node"><title>Node10</title>
<polygon fill="white" stroke="#bfbfbf" points="278,-248.5 278,-267.5 382,-267.5 382,-248.5 278,-248.5"/>
<text text-anchor="middle" x="330" y="-255.5" font-family="Helvetica,sans-Serif" font-size="10.00">odp/api/abi/packet.h</text>
</g>
<!-- Node2&#45;&gt;Node10 -->
<g id="edge11" class="edge"><title>Node2&#45;&gt;Node10</title>
<path fill="none" stroke="midnightblue" d="M308.438,-652.249C303.251,-633.738 292,-589.179 292,-551 292,-551 292,-551 292,-381 292,-342.351 309.599,-299.804 320.844,-276.564"/>
<polygon fill="midnightblue" stroke="midnightblue" points="323.989,-278.099 325.34,-267.59 317.731,-274.963 323.989,-278.099"/>
</g>
<!-- Node11 -->
<g id="node12" class="node"><title>Node11</title>
<polygon fill="white" stroke="#bfbfbf" points="104.5,-248.5 104.5,-267.5 221.5,-267.5 221.5,-248.5 104.5,-248.5"/>
<text text-anchor="middle" x="163" y="-255.5" font-family="Helvetica,sans-Serif" font-size="10.00">odp/api/abi/packet_io.h</text>
</g>
<!-- Node2&#45;&gt;Node11 -->
<g id="edge12" class="edge"><title>Node2&#45;&gt;Node11</title>
<path fill="none" stroke="midnightblue" d="M307.469,-652.405C303.78,-643.372 297.864,-628.734 293,-616 243.67,-486.853 187.976,-329.879 169.404,-277.21"/>
<polygon fill="midnightblue" stroke="midnightblue" points="172.644,-275.871 166.02,-267.602 166.041,-278.197 172.644,-275.871"/>
</g>
<!-- Node12 -->
<g id="node13" class="node"><title>Node12</title>
<polygon fill="white" stroke="#bfbfbf" points="434.5,-484.5 434.5,-503.5 535.5,-503.5 535.5,-484.5 434.5,-484.5"/>
<text text-anchor="middle" x="485" y="-491.5" font-family="Helvetica,sans-Serif" font-size="10.00">odp/api/abi/queue.h</text>
</g>
<!-- Node2&#45;&gt;Node12 -->
<g id="edge13" class="edge"><title>Node2&#45;&gt;Node12</title>
<path fill="none" stroke="midnightblue" d="M320.355,-652.075C348.455,-625.267 432.391,-545.19 468.349,-510.885"/>
<polygon fill="midnightblue" stroke="midnightblue" points="471.199,-513.003 476.019,-503.568 466.368,-507.939 471.199,-513.003"/>
</g>
<!-- Node13 -->
<g id="node14" class="node"><title>Node13</title>
<g id="a_node14"><a xlink:href="api_2spec_2packet__io_8h.html" target="_top" xlink:title="ODP Packet IO. ">
<polygon fill="white" stroke="black" points="759.5,-596.5 759.5,-615.5 884.5,-615.5 884.5,-596.5 759.5,-596.5"/>
<text text-anchor="middle" x="822" y="-603.5" font-family="Helvetica,sans-Serif" font-size="10.00">odp/api/spec/packet_io.h</text>
</a>
</g>
</g>
<!-- Node2&#45;&gt;Node13 -->
<g id="edge14" class="edge"><title>Node2&#45;&gt;Node13</title>
<path fill="none" stroke="midnightblue" d="M361.865,-655.625C452.992,-645.995 644.346,-625.774 749.302,-614.682"/>
<polygon fill="midnightblue" stroke="midnightblue" points="749.916,-618.137 759.493,-613.605 749.181,-611.176 749.916,-618.137"/>
</g>
<!-- Node4 -->
<g id="node5" class="node"><title>Node4</title>
<polygon fill="white" stroke="#bfbfbf" points="544,-62.5 544,-81.5 662,-81.5 662,-62.5 544,-62.5"/>
<text text-anchor="middle" x="603" y="-69.5" font-family="Helvetica,sans-Serif" font-size="10.00">odp/api/abi/std_types.h</text>
</g>
<!-- Node3&#45;&gt;Node4 -->
<g id="edge4" class="edge"><title>Node3&#45;&gt;Node4</title>
<path fill="none" stroke="midnightblue" d="M533.605,-124.403C546.477,-114.869 567.474,-99.3154 583.006,-87.8106"/>
<polygon fill="midnightblue" stroke="midnightblue" points="585.464,-90.3454 591.416,-81.5806 581.297,-84.7204 585.464,-90.3454"/>
</g>
<!-- Node5 -->
<g id="node6" class="node"><title>Node5</title>
<g id="a_node6"><a xlink:href="api_2spec_2std__types_8h.html" target="_top" xlink:title="Standard C language types and definitions for ODP. ">
<polygon fill="white" stroke="black" points="400,-62.5 400,-81.5 526,-81.5 526,-62.5 400,-62.5"/>
<text text-anchor="middle" x="463" y="-69.5" font-family="Helvetica,sans-Serif" font-size="10.00">odp/api/spec/std_types.h</text>
</a>
</g>
</g>
<!-- Node3&#45;&gt;Node5 -->
<g id="edge5" class="edge"><title>Node3&#45;&gt;Node5</title>
<path fill="none" stroke="midnightblue" d="M513.547,-124.403C504.434,-115.136 489.73,-100.183 478.524,-88.7876"/>
<polygon fill="midnightblue" stroke="midnightblue" points="480.945,-86.2569 471.438,-81.5806 475.953,-91.1649 480.945,-86.2569"/>
</g>
<!-- Node5&#45;&gt;Node1 -->
<g id="edge6" class="edge"><title>Node5&#45;&gt;Node1</title>
<path fill="none" stroke="midnightblue" d="M502.556,-62.4651C513.083,-60.2742 524.459,-57.979 535,-56 605.097,-42.8405 685.832,-29.588 740.419,-20.9076"/>
<polygon fill="midnightblue" stroke="midnightblue" points="740.971,-24.364 750.299,-19.3411 739.875,-17.4504 740.971,-24.364"/>
</g>
<!-- Node6 -->
<g id="node7" class="node"><title>Node6</title>
<polygon fill="white" stroke="#bfbfbf" points="438.5,-0.5 438.5,-19.5 487.5,-19.5 487.5,-0.5 438.5,-0.5"/>
<text text-anchor="middle" x="463" y="-7.5" font-family="Helvetica,sans-Serif" font-size="10.00">stdint.h</text>
</g>
<!-- Node5&#45;&gt;Node6 -->
<g id="edge7" class="edge"><title>Node5&#45;&gt;Node6</title>
<path fill="none" stroke="midnightblue" d="M463,-62.4035C463,-53.9381 463,-40.7283 463,-29.8199"/>
<polygon fill="midnightblue" stroke="midnightblue" points="466.5,-29.5806 463,-19.5806 459.5,-29.5806 466.5,-29.5806"/>
</g>
<!-- Node5&#45;&gt;Node7 -->
<g id="edge8" class="edge"><title>Node5&#45;&gt;Node7</title>
<path fill="none" stroke="midnightblue" d="M498.707,-62.4333C510.228,-59.9727 523.097,-57.541 535,-56 834.384,-17.2412 1196.29,-11.6104 1337.48,-10.9754"/>
<polygon fill="midnightblue" stroke="midnightblue" points="1337.67,-14.4748 1347.66,-10.9367 1337.65,-7.47484 1337.67,-14.4748"/>
</g>
<!-- Node13&#45;&gt;Node1 -->
<g id="edge15" class="edge"><title>Node13&#45;&gt;Node1</title>
<path fill="none" stroke="midnightblue" d="M759.497,-605.796C573.76,-604.597 38,-573.849 38,-259 38,-259 38,-259 38,-133 38,-62.0859 556.611,-25.2727 740.383,-14.4539"/>
<polygon fill="midnightblue" stroke="midnightblue" points="740.661,-17.9437 750.441,-13.8681 740.254,-10.9556 740.661,-17.9437"/>
</g>
<!-- Node13&#45;&gt;Node7 -->
<g id="edge69" class="edge"><title>Node13&#45;&gt;Node7</title>
<path fill="none" stroke="midnightblue" d="M884.676,-600.742C1032.8,-589.895 1400.27,-558.187 1510,-504 1607.4,-455.906 1672,-429.624 1672,-321 1672,-321 1672,-321 1672,-133 1672,-40.119 1538.98,-17.4417 1458.31,-12.2291"/>
<polygon fill="midnightblue" stroke="midnightblue" points="1458.44,-8.73121 1448.26,-11.652 1458.04,-15.7197 1458.44,-8.73121"/>
</g>
<!-- Node14 -->
<g id="node15" class="node"><title>Node14</title>
<g id="a_node15"><a xlink:href="deprecated_8h.html" target="_top" xlink:title="Control deprecated API definitions. ">
<polygon fill="white" stroke="black" points="1108.5,-248.5 1108.5,-267.5 1215.5,-267.5 1215.5,-248.5 1108.5,-248.5"/>
<text text-anchor="middle" x="1162" y="-255.5" font-family="Helvetica,sans-Serif" font-size="10.00">odp/api/deprecated.h</text>
</a>
</g>
</g>
<!-- Node13&#45;&gt;Node14 -->
<g id="edge16" class="edge"><title>Node13&#45;&gt;Node14</title>
<path fill="none" stroke="midnightblue" d="M884.539,-597.394C934.264,-590.149 998.594,-577.709 1018,-560 1106.45,-479.282 1032.21,-401.307 1102,-304 1111.07,-291.353 1124.75,-280.705 1136.76,-272.947"/>
<polygon fill="midnightblue" stroke="midnightblue" points="1138.81,-275.797 1145.51,-267.593 1135.16,-269.826 1138.81,-275.797"/>
</g>
<!-- Node16 -->
<g id="node17" class="node"><title>Node16</title>
<g id="a_node17"><a xlink:href="packet__io__stats_8h.html" target="_top" xlink:title="ODP packet IO stats. ">
<polygon fill="white" stroke="black" points="1070,-540.5 1070,-559.5 1198,-559.5 1198,-540.5 1070,-540.5"/>
<text text-anchor="middle" x="1134" y="-547.5" font-family="Helvetica,sans-Serif" font-size="10.00">odp/api/packet_io_stats.h</text>
</a>
</g>
</g>
<!-- Node13&#45;&gt;Node16 -->
<g id="edge20" class="edge"><title>Node13&#45;&gt;Node16</title>
<path fill="none" stroke="midnightblue" d="M871.437,-596.444C926.664,-586.885 1016.02,-571.419 1074.89,-561.23"/>
<polygon fill="midnightblue" stroke="midnightblue" points="1075.54,-564.671 1084.79,-559.516 1074.34,-557.773 1075.54,-564.671"/>
</g>
<!-- Node18 -->
<g id="node19" class="node"><title>Node18</title>
<g id="a_node19"><a xlink:href="api_2queue_8h.html" target="_top" xlink:title="ODP queue. ">
<polygon fill="white" stroke="black" points="597,-540.5 597,-559.5 683,-559.5 683,-540.5 597,-540.5"/>
<text text-anchor="middle" x="640" y="-547.5" font-family="Helvetica,sans-Serif" font-size="10.00">odp/api/queue.h</text>
</a>
</g>
</g>
<!-- Node13&#45;&gt;Node18 -->
<g id="edge24" class="edge"><title>Node13&#45;&gt;Node18</title>
<path fill="none" stroke="midnightblue" d="M793.162,-596.444C762.144,-587.241 712.671,-572.562 678.382,-562.388"/>
<polygon fill="midnightblue" stroke="midnightblue" points="679.286,-559.006 668.704,-559.516 677.295,-565.716 679.286,-559.006"/>
</g>
<!-- Node24 -->
<g id="node25" class="node"><title>Node24</title>
<g id="a_node25"><a xlink:href="api_2packet_8h.html" target="_top" xlink:title="ODP packet descriptor. ">
<polygon fill="white" stroke="black" points="477.5,-310.5 477.5,-329.5 566.5,-329.5 566.5,-310.5 477.5,-310.5"/>
<text text-anchor="middle" x="522" y="-317.5" font-family="Helvetica,sans-Serif" font-size="10.00">odp/api/packet.h</text>
</a>
</g>
</g>
<!-- Node13&#45;&gt;Node24 -->
<g id="edge68" class="edge"><title>Node13&#45;&gt;Node24</title>
<path fill="none" stroke="midnightblue" d="M759.444,-598.739C657.659,-587.067 463.633,-558.122 425,-504 383.825,-446.317 463.547,-368.982 502.416,-336.446"/>
<polygon fill="midnightblue" stroke="midnightblue" points="504.941,-338.903 510.464,-329.861 500.508,-333.485 504.941,-338.903"/>
</g>
<!-- Node26 -->
<g id="node27" class="node"><title>Node26</title>
<g id="a_node27"><a xlink:href="api_2time_8h.html" target="_top" xlink:title="ODP time. ">
<polygon fill="white" stroke="black" points="794,-186.5 794,-205.5 872,-205.5 872,-186.5 794,-186.5"/>
<text text-anchor="middle" x="833" y="-193.5" font-family="Helvetica,sans-Serif" font-size="10.00">odp/api/time.h</text>
</a>
</g>
</g>
<!-- Node13&#45;&gt;Node26 -->
<g id="edge67" class="edge"><title>Node13&#45;&gt;Node26</title>
<path fill="none" stroke="midnightblue" d="M873.667,-596.497C927.474,-584.344 1004,-556.287 1004,-495 1004,-495 1004,-495 1004,-319 1004,-286.216 1006.58,-271.767 984,-248 979.911,-243.696 913.433,-222.24 870.06,-208.565"/>
<polygon fill="midnightblue" stroke="midnightblue" points="870.974,-205.183 860.385,-205.522 868.874,-211.861 870.974,-205.183"/>
</g>
<!-- Node15 -->
<g id="node16" class="node"><title>Node15</title>
<g id="a_node16"><a xlink:href="spec_2deprecated_8h.html" target="_top" xlink:title="Macro for deprecated API definitions. ">
<polygon fill="white" stroke="black" points="1066.5,-62.5 1066.5,-81.5 1197.5,-81.5 1197.5,-62.5 1066.5,-62.5"/>
<text text-anchor="middle" x="1132" y="-69.5" font-family="Helvetica,sans-Serif" font-size="10.00">odp/api/spec/deprecated.h</text>
</a>
</g>
</g>
<!-- Node14&#45;&gt;Node15 -->
<g id="edge17" class="edge"><title>Node14&#45;&gt;Node15</title>
<path fill="none" stroke="midnightblue" d="M1160.55,-248.125C1155.93,-219.769 1141.45,-130.93 1135.07,-91.8108"/>
<polygon fill="midnightblue" stroke="midnightblue" points="1138.5,-91.0921 1133.43,-81.7857 1131.59,-92.2186 1138.5,-91.0921"/>
</g>
<!-- Node15&#45;&gt;Node1 -->
<g id="edge18" class="edge"><title>Node15&#45;&gt;Node1</title>
<path fill="none" stroke="midnightblue" d="M1085.35,-62.4672C1026.09,-51.6264 923.894,-32.9318 860.341,-21.3062"/>
<polygon fill="midnightblue" stroke="midnightblue" points="860.952,-17.86 850.485,-19.5034 859.692,-24.7457 860.952,-17.86"/>
</g>
<!-- Node15&#45;&gt;Node7 -->
<g id="edge19" class="edge"><title>Node15&#45;&gt;Node7</title>
<path fill="none" stroke="midnightblue" d="M1169.83,-62.4672C1217.3,-51.7602 1298.73,-33.3922 1350.39,-21.74"/>
<polygon fill="midnightblue" stroke="midnightblue" points="1351.32,-25.118 1360.3,-19.5034 1349.78,-18.2896 1351.32,-25.118"/>
</g>
<!-- Node17 -->
<g id="node18" class="node"><title>Node17</title>
<g id="a_node18"><a xlink:href="spec_2packet__io__stats_8h.html" target="_top" xlink:title="ODP Packet IO. ">
<polygon fill="white" stroke="black" points="1426,-57 1426,-87 1530,-87 1530,-57 1426,-57"/>
<text text-anchor="start" x="1434" y="-75" font-family="Helvetica,sans-Serif" font-size="10.00">odp/api/spec/packet</text>
<text text-anchor="middle" x="1478" y="-64" font-family="Helvetica,sans-Serif" font-size="10.00">_io_stats.h</text>
</a>
</g>
</g>
<!-- Node16&#45;&gt;Node17 -->
<g id="edge21" class="edge"><title>Node16&#45;&gt;Node17</title>
<path fill="none" stroke="midnightblue" d="M1198.4,-545.627C1317.01,-537.641 1558,-512.386 1558,-439 1558,-439 1558,-439 1558,-257 1558,-194.328 1518.48,-128.862 1495,-95.4871"/>
<polygon fill="midnightblue" stroke="midnightblue" points="1497.81,-93.4021 1489.12,-87.3334 1492.13,-97.4933 1497.81,-93.4021"/>
</g>
<!-- Node17&#45;&gt;Node1 -->
<g id="edge22" class="edge"><title>Node17&#45;&gt;Node1</title>
<path fill="none" stroke="midnightblue" d="M1425.93,-62.4777C1410.53,-60.1494 1393.61,-57.7805 1378,-56 1193.22,-34.9251 973.839,-20.7145 867.753,-14.5225"/>
<polygon fill="midnightblue" stroke="midnightblue" points="867.723,-11.0149 857.537,-13.9306 867.318,-18.0032 867.723,-11.0149"/>
</g>
<!-- Node17&#45;&gt;Node7 -->
<g id="edge23" class="edge"><title>Node17&#45;&gt;Node7</title>
<path fill="none" stroke="midnightblue" d="M1459.04,-56.7808C1446.58,-47.4329 1430.3,-35.2273 1417.69,-25.77"/>
<polygon fill="midnightblue" stroke="midnightblue" points="1419.74,-22.9306 1409.64,-19.7305 1415.54,-28.5306 1419.74,-22.9306"/>
</g>
<!-- Node18&#45;&gt;Node3 -->
<g id="edge25" class="edge"><title>Node18&#45;&gt;Node3</title>
<path fill="none" stroke="midnightblue" d="M627.723,-540.357C609.611,-527.682 574.568,-503.447 544,-484 412.871,-400.576 298.197,-420.649 269,-268 252.439,-181.413 380.7,-150.952 460.76,-140.417"/>
<polygon fill="midnightblue" stroke="midnightblue" points="461.262,-143.881 470.752,-139.172 460.396,-136.935 461.262,-143.881"/>
</g>
<!-- Node18&#45;&gt;Node8 -->
<g id="edge29" class="edge"><title>Node18&#45;&gt;Node8</title>
<path fill="none" stroke="midnightblue" d="M632.165,-540.31C601.722,-506.398 491.808,-382.548 468,-336 458.455,-317.337 452.857,-293.842 449.875,-277.744"/>
<polygon fill="midnightblue" stroke="midnightblue" points="453.262,-276.781 448.147,-267.503 446.36,-277.946 453.262,-276.781"/>
</g>
<!-- Node18&#45;&gt;Node12 -->
<g id="edge27" class="edge"><title>Node18&#45;&gt;Node12</title>
<path fill="none" stroke="midnightblue" d="M615.44,-540.444C589.477,-531.399 548.332,-517.064 519.203,-506.916"/>
<polygon fill="midnightblue" stroke="midnightblue" points="520.04,-503.501 509.445,-503.516 517.737,-510.112 520.04,-503.501"/>
</g>
<!-- Node19 -->
<g id="node20" class="node"><title>Node19</title>
<polygon fill="white" stroke="#bfbfbf" points="668.5,-248.5 668.5,-267.5 767.5,-267.5 767.5,-248.5 668.5,-248.5"/>
<text text-anchor="middle" x="718" y="-255.5" font-family="Helvetica,sans-Serif" font-size="10.00">odp/api/abi/event.h</text>
</g>
<!-- Node18&#45;&gt;Node19 -->
<g id="edge26" class="edge"><title>Node18&#45;&gt;Node19</title>
<path fill="none" stroke="midnightblue" d="M641.721,-540.127C644.199,-527.573 649.023,-503.936 654,-484 673.338,-406.537 700.718,-315.357 712.384,-277.211"/>
<polygon fill="midnightblue" stroke="midnightblue" points="715.768,-278.116 715.357,-267.529 709.076,-276.062 715.768,-278.116"/>
</g>
<!-- Node20 -->
<g id="node21" class="node"><title>Node20</title>
<polygon fill="white" stroke="#bfbfbf" points="550,-248.5 550,-267.5 650,-267.5 650,-248.5 550,-248.5"/>
<text text-anchor="middle" x="600" y="-255.5" font-family="Helvetica,sans-Serif" font-size="10.00">odp/api/abi/buffer.h</text>
</g>
<!-- Node18&#45;&gt;Node20 -->
<g id="edge28" class="edge"><title>Node18&#45;&gt;Node20</title>
<path fill="none" stroke="midnightblue" d="M643.6,-540.222C647.056,-531.285 652.033,-516.942 654,-504 655.335,-495.212 655.044,-492.827 654,-484 644.763,-405.935 618.096,-315.749 606.042,-277.584"/>
<polygon fill="midnightblue" stroke="midnightblue" points="609.313,-276.322 602.931,-267.865 602.646,-278.456 609.313,-276.322"/>
</g>
<!-- Node21 -->
<g id="node22" class="node"><title>Node21</title>
<g id="a_node22"><a xlink:href="api_2spec_2queue_8h.html" target="_top" xlink:title="ODP queue. ">
<polygon fill="white" stroke="black" points="825,-484.5 825,-503.5 935,-503.5 935,-484.5 825,-484.5"/>
<text text-anchor="middle" x="880" y="-491.5" font-family="Helvetica,sans-Serif" font-size="10.00">odp/api/spec/queue.h</text>
</a>
</g>
</g>
<!-- Node18&#45;&gt;Node21 -->
<g id="edge30" class="edge"><title>Node18&#45;&gt;Node21</title>
<path fill="none" stroke="midnightblue" d="M678.029,-540.444C719.808,-531.043 786.982,-515.929 832.27,-505.739"/>
<polygon fill="midnightblue" stroke="midnightblue" points="833.161,-509.126 842.149,-503.516 831.625,-502.297 833.161,-509.126"/>
</g>
<!-- Node21&#45;&gt;Node1 -->
<g id="edge31" class="edge"><title>Node21&#45;&gt;Node1</title>
<path fill="none" stroke="midnightblue" d="M879.492,-484.27C878.116,-464.048 873.468,-412.622 860,-372 840.483,-313.132 829.847,-299.968 796,-248 784.787,-230.784 774.54,-231.112 767,-212 755.879,-183.81 763.112,-174.283 762,-144 760.558,-104.711 756.338,-92.4789 771,-56 775.139,-45.7018 782.182,-35.6088 788.702,-27.5996"/>
<polygon fill="midnightblue" stroke="midnightblue" points="791.532,-29.6763 795.408,-19.8157 786.229,-25.1073 791.532,-29.6763"/>
</g>
<!-- Node21&#45;&gt;Node7 -->
<g id="edge66" class="edge"><title>Node21&#45;&gt;Node7</title>
<path fill="none" stroke="midnightblue" d="M924.488,-484.471C1038.07,-460.637 1342.71,-383.522 1526,-212 1579.36,-162.063 1622.98,-113.605 1578,-56 1563.23,-37.0769 1504.63,-24.9337 1458.25,-18.0906"/>
<polygon fill="midnightblue" stroke="midnightblue" points="1458.66,-14.613 1448.26,-16.6693 1457.67,-21.5432 1458.66,-14.613"/>
</g>
<!-- Node22 -->
<g id="node23" class="node"><title>Node22</title>
<g id="a_node23"><a xlink:href="api_2event_8h.html" target="_top" xlink:title="ODP event. ">
<polygon fill="white" stroke="black" points="756.5,-428.5 756.5,-447.5 839.5,-447.5 839.5,-428.5 756.5,-428.5"/>
<text text-anchor="middle" x="798" y="-435.5" font-family="Helvetica,sans-Serif" font-size="10.00">odp/api/event.h</text>
</a>
</g>
</g>
<!-- Node21&#45;&gt;Node22 -->
<g id="edge32" class="edge"><title>Node21&#45;&gt;Node22</title>
<path fill="none" stroke="midnightblue" d="M866.825,-484.324C854.153,-475.979 834.767,-463.212 819.794,-453.352"/>
<polygon fill="midnightblue" stroke="midnightblue" points="821.419,-450.231 811.142,-447.655 817.569,-456.078 821.419,-450.231"/>
</g>
<!-- Node29 -->
<g id="node30" class="node"><title>Node29</title>
<g id="a_node30"><a xlink:href="queue__types_8h.html" target="_top" xlink:title="ODP queue types. ">
<polygon fill="white" stroke="black" points="1111.5,-305 1111.5,-335 1212.5,-335 1212.5,-305 1111.5,-305"/>
<text text-anchor="start" x="1119.5" y="-323" font-family="Helvetica,sans-Serif" font-size="10.00">odp/api/spec/queue</text>
<text text-anchor="middle" x="1162" y="-312" font-family="Helvetica,sans-Serif" font-size="10.00">_types.h</text>
</a>
</g>
</g>
<!-- Node21&#45;&gt;Node29 -->
<g id="edge53" class="edge"><title>Node21&#45;&gt;Node29</title>
<path fill="none" stroke="midnightblue" d="M893.984,-484.47C937.114,-458.165 1068.84,-377.821 1130.08,-340.47"/>
<polygon fill="midnightblue" stroke="midnightblue" points="1132.22,-343.266 1138.93,-335.071 1128.57,-337.29 1132.22,-343.266"/>
</g>
<!-- Node22&#45;&gt;Node19 -->
<g id="edge33" class="edge"><title>Node22&#45;&gt;Node19</title>
<path fill="none" stroke="midnightblue" d="M778.379,-428.391C763.884,-420.943 745.001,-408.728 735,-392 713.469,-355.987 713.83,-304.751 715.929,-277.584"/>
<polygon fill="midnightblue" stroke="midnightblue" points="719.423,-277.813 716.876,-267.529 712.454,-277.156 719.423,-277.813"/>
</g>
<!-- Node23 -->
<g id="node24" class="node"><title>Node23</title>
<g id="a_node24"><a xlink:href="api_2spec_2event_8h.html" target="_top" xlink:title="ODP event. ">
<polygon fill="white" stroke="black" points="744.5,-372.5 744.5,-391.5 851.5,-391.5 851.5,-372.5 744.5,-372.5"/>
<text text-anchor="middle" x="798" y="-379.5" font-family="Helvetica,sans-Serif" font-size="10.00">odp/api/spec/event.h</text>
</a>
</g>
</g>
<!-- Node22&#45;&gt;Node23 -->
<g id="edge34" class="edge"><title>Node22&#45;&gt;Node23</title>
<path fill="none" stroke="midnightblue" d="M798,-428.083C798,-421.006 798,-410.861 798,-401.986"/>
<polygon fill="midnightblue" stroke="midnightblue" points="801.5,-401.751 798,-391.751 794.5,-401.751 801.5,-401.751"/>
</g>
<!-- Node23&#45;&gt;Node1 -->
<g id="edge35" class="edge"><title>Node23&#45;&gt;Node1</title>
<path fill="none" stroke="midnightblue" d="M798.945,-372.301C800.947,-349.618 803.395,-287.673 776,-248 757.895,-221.78 729.898,-239.615 714,-212 679.407,-151.913 677.549,-114.978 714,-56 723.673,-40.348 740.622,-29.958 757.222,-23.1496"/>
<polygon fill="midnightblue" stroke="midnightblue" points="758.751,-26.3151 766.898,-19.5421 756.305,-19.7561 758.751,-26.3151"/>
</g>
<!-- Node23&#45;&gt;Node7 -->
<g id="edge52" class="edge"><title>Node23&#45;&gt;Node7</title>
<path fill="none" stroke="midnightblue" d="M851.804,-379.565C932.865,-376.445 1090.7,-366.631 1221,-336 1305.46,-316.145 1326.01,-306.031 1404,-268 1446.68,-247.185 1461.39,-245.552 1495,-212 1547.68,-159.402 1600.86,-115.415 1556,-56 1543.92,-39.9993 1497.46,-28.0015 1458.02,-20.4356"/>
<polygon fill="midnightblue" stroke="midnightblue" points="1458.64,-16.9911 1448.17,-18.6078 1457.36,-23.8736 1458.64,-16.9911"/>
</g>
<!-- Node23&#45;&gt;Node24 -->
<g id="edge36" class="edge"><title>Node23&#45;&gt;Node24</title>
<path fill="none" stroke="midnightblue" d="M758.749,-372.467C709.394,-361.738 624.652,-343.316 571.07,-331.667"/>
<polygon fill="midnightblue" stroke="midnightblue" points="571.631,-328.208 561.116,-329.503 570.144,-335.048 571.631,-328.208"/>
</g>
<!-- Node24&#45;&gt;Node3 -->
<g id="edge37" class="edge"><title>Node24&#45;&gt;Node3</title>
<path fill="none" stroke="midnightblue" d="M522,-310.125C522,-281.769 522,-192.93 522,-153.811"/>
<polygon fill="midnightblue" stroke="midnightblue" points="525.5,-153.786 522,-143.786 518.5,-153.786 525.5,-153.786"/>
</g>
<!-- Node24&#45;&gt;Node8 -->
<g id="edge42" class="edge"><title>Node24&#45;&gt;Node8</title>
<path fill="none" stroke="midnightblue" d="M511.254,-310.403C499.447,-300.958 480.257,-285.606 465.918,-274.134"/>
<polygon fill="midnightblue" stroke="midnightblue" points="467.721,-271.095 457.726,-267.581 463.348,-276.561 467.721,-271.095"/>
</g>
<!-- Node24&#45;&gt;Node10 -->
<g id="edge40" class="edge"><title>Node24&#45;&gt;Node10</title>
<path fill="none" stroke="midnightblue" d="M494.491,-310.403C461.129,-299.978 404.738,-282.356 367.437,-270.699"/>
<polygon fill="midnightblue" stroke="midnightblue" points="368.047,-267.223 357.458,-267.581 365.959,-273.904 368.047,-267.223"/>
</g>
<!-- Node24&#45;&gt;Node11 -->
<g id="edge39" class="edge"><title>Node24&#45;&gt;Node11</title>
<path fill="none" stroke="midnightblue" d="M477.258,-311.522C413.481,-300.863 296.215,-281.264 224.367,-269.256"/>
<polygon fill="midnightblue" stroke="midnightblue" points="224.548,-265.738 214.108,-267.542 223.394,-272.642 224.548,-265.738"/>
</g>
<!-- Node24&#45;&gt;Node19 -->
<g id="edge38" class="edge"><title>Node24&#45;&gt;Node19</title>
<path fill="none" stroke="midnightblue" d="M550.082,-310.403C584.285,-299.933 642.197,-282.205 680.27,-270.55"/>
<polygon fill="midnightblue" stroke="midnightblue" points="681.433,-273.855 689.97,-267.581 679.384,-267.161 681.433,-273.855"/>
</g>
<!-- Node24&#45;&gt;Node20 -->
<g id="edge41" class="edge"><title>Node24&#45;&gt;Node20</title>
<path fill="none" stroke="midnightblue" d="M533.175,-310.403C545.571,-300.869 565.79,-285.315 580.746,-273.811"/>
<polygon fill="midnightblue" stroke="midnightblue" points="583.053,-276.452 588.845,-267.581 578.785,-270.904 583.053,-276.452"/>
</g>
<!-- Node25 -->
<g id="node26" class="node"><title>Node25</title>
<g id="a_node26"><a xlink:href="api_2spec_2packet_8h.html" target="_top" xlink:title="ODP packet descriptor. ">
<polygon fill="white" stroke="black" points="862.5,-248.5 862.5,-267.5 975.5,-267.5 975.5,-248.5 862.5,-248.5"/>
<text text-anchor="middle" x="919" y="-255.5" font-family="Helvetica,sans-Serif" font-size="10.00">odp/api/spec/packet.h</text>
</a>
</g>
</g>
<!-- Node24&#45;&gt;Node25 -->
<g id="edge43" class="edge"><title>Node24&#45;&gt;Node25</title>
<path fill="none" stroke="midnightblue" d="M566.769,-312.234C636.486,-301.697 771.39,-281.309 852.505,-269.05"/>
<polygon fill="midnightblue" stroke="midnightblue" points="853.243,-272.478 862.608,-267.523 852.197,-265.557 853.243,-272.478"/>
</g>
<!-- Node25&#45;&gt;Node1 -->
<g id="edge44" class="edge"><title>Node25&#45;&gt;Node1</title>
<path fill="none" stroke="midnightblue" d="M877.045,-248.489C841.983,-240.424 795.996,-227.292 785,-212 744.598,-155.813 777.817,-66.7363 795.129,-28.9222"/>
<polygon fill="midnightblue" stroke="midnightblue" points="798.387,-30.2206 799.516,-19.686 792.064,-27.2173 798.387,-30.2206"/>
</g>
<!-- Node25&#45;&gt;Node7 -->
<g id="edge51" class="edge"><title>Node25&#45;&gt;Node7</title>
<path fill="none" stroke="midnightblue" d="M960.116,-248.49C981.556,-241.986 1006.48,-230.816 1022,-212 1067.22,-157.189 1004.56,-103.947 1057,-56 1096.86,-19.5552 1250.66,-12.1467 1337.47,-10.9365"/>
<polygon fill="midnightblue" stroke="midnightblue" points="1337.75,-14.4336 1347.71,-10.8181 1337.67,-7.43402 1337.75,-14.4336"/>
</g>
<!-- Node25&#45;&gt;Node26 -->
<g id="edge45" class="edge"><title>Node25&#45;&gt;Node26</title>
<path fill="none" stroke="midnightblue" d="M906.678,-248.403C892.884,-238.78 870.301,-223.024 853.768,-211.489"/>
<polygon fill="midnightblue" stroke="midnightblue" points="855.503,-208.432 845.299,-205.581 851.497,-214.173 855.503,-208.432"/>
</g>
<!-- Node26&#45;&gt;Node3 -->
<g id="edge46" class="edge"><title>Node26&#45;&gt;Node3</title>
<path fill="none" stroke="midnightblue" d="M793.927,-187.462C738.911,-176.848 638.401,-157.457 576.193,-145.455"/>
<polygon fill="midnightblue" stroke="midnightblue" points="576.656,-141.98 566.174,-143.522 575.33,-148.853 576.656,-141.98"/>
</g>
<!-- Node27 -->
<g id="node28" class="node"><title>Node27</title>
<polygon fill="white" stroke="#bfbfbf" points="794,-124.5 794,-143.5 888,-143.5 888,-124.5 794,-124.5"/>
<text text-anchor="middle" x="841" y="-131.5" font-family="Helvetica,sans-Serif" font-size="10.00">odp/api/abi/time.h</text>
</g>
<!-- Node26&#45;&gt;Node27 -->
<g id="edge47" class="edge"><title>Node26&#45;&gt;Node27</title>
<path fill="none" stroke="midnightblue" d="M834.146,-186.403C835.275,-177.938 837.036,-164.728 838.491,-153.82"/>
<polygon fill="midnightblue" stroke="midnightblue" points="842.003,-153.955 839.856,-143.581 835.065,-153.03 842.003,-153.955"/>
</g>
<!-- Node28 -->
<g id="node29" class="node"><title>Node28</title>
<g id="a_node29"><a xlink:href="api_2spec_2time_8h.html" target="_top" xlink:title="ODP time. ">
<polygon fill="white" stroke="black" points="832,-62.5 832,-81.5 934,-81.5 934,-62.5 832,-62.5"/>
<text text-anchor="middle" x="883" y="-69.5" font-family="Helvetica,sans-Serif" font-size="10.00">odp/api/spec/time.h</text>
</a>
</g>
</g>
<!-- Node26&#45;&gt;Node28 -->
<g id="edge48" class="edge"><title>Node26&#45;&gt;Node28</title>
<path fill="none" stroke="midnightblue" d="M851.162,-186.386C866.547,-177.975 887.565,-163.583 897,-144 905.153,-127.079 899.009,-105.707 892.486,-90.8542"/>
<polygon fill="midnightblue" stroke="midnightblue" points="895.586,-89.2253 888.08,-81.7474 889.284,-92.2736 895.586,-89.2253"/>
</g>
<!-- Node28&#45;&gt;Node1 -->
<g id="edge49" class="edge"><title>Node28&#45;&gt;Node1</title>
<path fill="none" stroke="midnightblue" d="M871.681,-62.4035C859.127,-52.8688 838.649,-37.3154 823.501,-25.8106"/>
<polygon fill="midnightblue" stroke="midnightblue" points="825.378,-22.8417 815.298,-19.5806 821.144,-28.4162 825.378,-22.8417"/>
</g>
<!-- Node28&#45;&gt;Node7 -->
<g id="edge50" class="edge"><title>Node28&#45;&gt;Node7</title>
<path fill="none" stroke="midnightblue" d="M934.031,-63.1993C950.591,-60.7666 969.06,-58.1579 986,-56 1110.66,-40.1195 1257,-24.9618 1337.41,-16.9326"/>
<polygon fill="midnightblue" stroke="midnightblue" points="1338.23,-20.3684 1347.83,-15.8948 1337.53,-13.4028 1338.23,-20.3684"/>
</g>
<!-- Node29&#45;&gt;Node1 -->
<g id="edge54" class="edge"><title>Node29&#45;&gt;Node1</title>
<path fill="none" stroke="midnightblue" d="M1142.18,-304.998C1129.19,-295.351 1112.24,-281.821 1099,-268 1017.9,-183.327 1037.13,-124.533 942,-56 919.076,-39.4853 889.762,-28.8048 864.052,-22.0158"/>
<polygon fill="midnightblue" stroke="midnightblue" points="864.578,-18.5396 854.028,-19.5134 862.882,-25.3312 864.578,-18.5396"/>
</g>
<!-- Node29&#45;&gt;Node7 -->
<g id="edge65" class="edge"><title>Node29&#45;&gt;Node7</title>
<path fill="none" stroke="midnightblue" d="M1212.8,-313.198C1256.57,-306.691 1320.49,-293.514 1371,-268 1468.68,-218.658 1506.86,-192.605 1539,-88 1543.18,-74.405 1547.39,-67.4841 1539,-56 1520.56,-30.758 1487.8,-19.3445 1458.5,-14.3168"/>
<polygon fill="midnightblue" stroke="midnightblue" points="1458.72,-10.8103 1448.31,-12.7925 1457.68,-17.7333 1458.72,-10.8103"/>
</g>
<!-- Node29&#45;&gt;Node14 -->
<g id="edge64" class="edge"><title>Node29&#45;&gt;Node14</title>
<path fill="none" stroke="midnightblue" d="M1162,-304.781C1162,-296.781 1162,-286.689 1162,-278.017"/>
<polygon fill="midnightblue" stroke="midnightblue" points="1165.5,-277.73 1162,-267.731 1158.5,-277.731 1165.5,-277.73"/>
</g>
<!-- Node30 -->
<g id="node31" class="node"><title>Node30</title>
<g id="a_node31"><a xlink:href="api_2schedule__types_8h.html" target="_top" xlink:title="ODP schedule. ">
<polygon fill="white" stroke="black" points="1234,-248.5 1234,-267.5 1362,-267.5 1362,-248.5 1234,-248.5"/>
<text text-anchor="middle" x="1298" y="-255.5" font-family="Helvetica,sans-Serif" font-size="10.00">odp/api/schedule_types.h</text>
</a>
</g>
</g>
<!-- Node29&#45;&gt;Node30 -->
<g id="edge55" class="edge"><title>Node29&#45;&gt;Node30</title>
<path fill="none" stroke="midnightblue" d="M1193.89,-304.933C1216.73,-294.855 1247.23,-281.399 1269.31,-271.657"/>
<polygon fill="midnightblue" stroke="midnightblue" points="1270.77,-274.839 1278.51,-267.6 1267.94,-268.434 1270.77,-274.839"/>
</g>
<!-- Node31 -->
<g id="node32" class="node"><title>Node31</title>
<polygon fill="white" stroke="#bfbfbf" points="1191,-181 1191,-211 1297,-211 1297,-181 1191,-181"/>
<text text-anchor="start" x="1199" y="-199" font-family="Helvetica,sans-Serif" font-size="10.00">odp/api/abi/schedule</text>
<text text-anchor="middle" x="1244" y="-188" font-family="Helvetica,sans-Serif" font-size="10.00">_types.h</text>
</g>
<!-- Node30&#45;&gt;Node31 -->
<g id="edge56" class="edge"><title>Node30&#45;&gt;Node31</title>
<path fill="none" stroke="midnightblue" d="M1290.26,-248.403C1283.29,-240.657 1272.74,-228.938 1263.48,-218.645"/>
<polygon fill="midnightblue" stroke="midnightblue" points="1266.02,-216.232 1256.73,-211.141 1260.81,-220.915 1266.02,-216.232"/>
</g>
<!-- Node32 -->
<g id="node33" class="node"><title>Node32</title>
<g id="a_node33"><a xlink:href="api_2spec_2schedule__types_8h.html" target="_top" xlink:title="ODP schedule types. ">
<polygon fill="white" stroke="black" points="1315,-181 1315,-211 1429,-211 1429,-181 1315,-181"/>
<text text-anchor="start" x="1323" y="-199" font-family="Helvetica,sans-Serif" font-size="10.00">odp/api/spec/schedule</text>
<text text-anchor="middle" x="1372" y="-188" font-family="Helvetica,sans-Serif" font-size="10.00">_types.h</text>
</a>
</g>
</g>
<!-- Node30&#45;&gt;Node32 -->
<g id="edge57" class="edge"><title>Node30&#45;&gt;Node32</title>
<path fill="none" stroke="midnightblue" d="M1308.6,-248.403C1318.53,-240.353 1333.75,-228.013 1346.79,-217.441"/>
<polygon fill="midnightblue" stroke="midnightblue" points="1349,-220.158 1354.56,-211.141 1344.59,-214.72 1349,-220.158"/>
</g>
<!-- Node32&#45;&gt;Node1 -->
<g id="edge58" class="edge"><title>Node32&#45;&gt;Node1</title>
<path fill="none" stroke="midnightblue" d="M1355.12,-180.761C1313.33,-145.511 1208.21,-56.9472 1206,-56 1146.68,-30.6198 965.412,-18.4903 867.816,-13.6652"/>
<polygon fill="midnightblue" stroke="midnightblue" points="867.935,-10.167 857.778,-13.1801 867.597,-17.1588 867.935,-10.167"/>
</g>
<!-- Node32&#45;&gt;Node7 -->
<g id="edge63" class="edge"><title>Node32&#45;&gt;Node7</title>
<path fill="none" stroke="midnightblue" d="M1374,-180.867C1378.63,-148.074 1390.12,-66.7976 1395.34,-29.8364"/>
<polygon fill="midnightblue" stroke="midnightblue" points="1398.81,-30.2826 1396.74,-19.8912 1391.88,-29.3031 1398.81,-30.2826"/>
</g>
<!-- Node32&#45;&gt;Node33 -->
<g id="edge59" class="edge"><title>Node32&#45;&gt;Node33</title>
<path fill="none" stroke="midnightblue" d="M1389.54,-180.781C1400.96,-171.523 1415.83,-159.462 1427.45,-150.044"/>
<polygon fill="midnightblue" stroke="midnightblue" points="1429.67,-152.747 1435.23,-143.731 1425.26,-147.31 1429.67,-152.747"/>
</g>
<!-- Node34 -->
<g id="node35" class="node"><title>Node34</title>
<g id="a_node35"><a xlink:href="spec_2support_8h.html" target="_top" xlink:title="ODP support API. ">
<polygon fill="white" stroke="black" points="1254,-62.5 1254,-81.5 1370,-81.5 1370,-62.5 1254,-62.5"/>
<text text-anchor="middle" x="1312" y="-69.5" font-family="Helvetica,sans-Serif" font-size="10.00">odp/api/spec/support.h</text>
</a>
</g>
</g>
<!-- Node33&#45;&gt;Node34 -->
<g id="edge60" class="edge"><title>Node33&#45;&gt;Node34</title>
<path fill="none" stroke="midnightblue" d="M1426.8,-124.403C1404.21,-114.29 1366.5,-97.4036 1340.5,-85.761"/>
<polygon fill="midnightblue" stroke="midnightblue" points="1341.72,-82.4729 1331.16,-81.5806 1338.86,-88.8617 1341.72,-82.4729"/>
</g>
<!-- Node34&#45;&gt;Node1 -->
<g id="edge61" class="edge"><title>Node34&#45;&gt;Node1</title>
<path fill="none" stroke="midnightblue" d="M1274.76,-62.4835C1263.63,-60.1417 1251.36,-57.7641 1240,-56 1108.31,-35.5417 952.752,-22.0147 867.613,-15.51"/>
<polygon fill="midnightblue" stroke="midnightblue" points="867.821,-12.0158 857.586,-14.7515 867.293,-18.9959 867.821,-12.0158"/>
</g>
<!-- Node34&#45;&gt;Node7 -->
<g id="edge62" class="edge"><title>Node34&#45;&gt;Node7</title>
<path fill="none" stroke="midnightblue" d="M1324.32,-62.4035C1338.12,-52.7797 1360.7,-37.0242 1377.23,-25.4891"/>
<polygon fill="midnightblue" stroke="midnightblue" points="1379.5,-28.1729 1385.7,-19.5806 1375.5,-22.432 1379.5,-28.1729"/>
</g>
<!-- Node36 -->
<g id="node37" class="node"><title>Node36</title>
<g id="a_node37"><a xlink:href="spec_2threshold_8h.html" target="_top" xlink:title="ODP threshold descriptor. ">
<polygon fill="white" stroke="black" points="890.5,-186.5 890.5,-205.5 1013.5,-205.5 1013.5,-186.5 890.5,-186.5"/>
<text text-anchor="middle" x="952" y="-193.5" font-family="Helvetica,sans-Serif" font-size="10.00">odp/api/spec/threshold.h</text>
</a>
</g>
</g>
<!-- Node35&#45;&gt;Node36 -->
<g id="edge72" class="edge"><title>Node35&#45;&gt;Node36</title>
<path fill="none" stroke="midnightblue" d="M1225.94,-652.446C1225.54,-632.17 1222.91,-579.901 1207,-540 1148.66,-393.647 1108.51,-367.644 1006,-248 995.035,-235.202 981.193,-222.18 970.268,-212.498"/>
<polygon fill="midnightblue" stroke="midnightblue" points="972.419,-209.73 962.579,-205.803 967.823,-215.009 972.419,-209.73"/>
</g>
<!-- Node36&#45;&gt;Node1 -->
<g id="edge73" class="edge"><title>Node36&#45;&gt;Node1</title>
<path fill="none" stroke="midnightblue" d="M946.961,-186.079C938.344,-171.481 919.51,-142.286 897,-124 868.612,-100.939 845.997,-116.44 823,-88 809.635,-71.4716 805.48,-46.8769 804.287,-29.9547"/>
<polygon fill="midnightblue" stroke="midnightblue" points="807.771,-29.5041 803.857,-19.6586 800.777,-29.7958 807.771,-29.5041"/>
</g>
<!-- Node36&#45;&gt;Node3 -->
<g id="edge74" class="edge"><title>Node36&#45;&gt;Node3</title>
<path fill="none" stroke="midnightblue" d="M914.527,-186.472C903.74,-184.183 891.933,-181.837 881,-180 776.938,-162.517 654.861,-148.602 583.222,-141.1"/>
<polygon fill="midnightblue" stroke="midnightblue" points="583.334,-137.593 573.026,-140.04 582.61,-144.555 583.334,-137.593"/>
</g>
<!-- Node36&#45;&gt;Node7 -->
<g id="edge75" class="edge"><title>Node36&#45;&gt;Node7</title>
<path fill="none" stroke="midnightblue" d="M955.637,-186.246C966.623,-161.025 1002.12,-87.9713 1057,-56 1103.42,-28.9554 1253.05,-17.6973 1337.87,-13.3947"/>
<polygon fill="midnightblue" stroke="midnightblue" points="1338.06,-16.8894 1347.88,-12.9039 1337.72,-9.89784 1338.06,-16.8894"/>
</g>
</g>
</svg>
