<?xml version="1.0" encoding="UTF-8" standalone="no"?>
<!DOCTYPE svg PUBLIC "-//W3C//DTD SVG 1.1//EN"
 "http://www.w3.org/Graphics/SVG/1.1/DTD/svg11.dtd">
<!-- Generated by graphviz version 2.36.0 (20140111.2315)
 -->
<!-- Title: thrmask.h Pages: 1 -->
<svg width="536pt" height="364pt"
 viewBox="0.00 0.00 536.00 364.00" xmlns="http://www.w3.org/2000/svg" xmlns:xlink="http://www.w3.org/1999/xlink">
<g id="graph0" class="graph" transform="scale(1 1) rotate(0) translate(4 360)">
<title>thrmask.h</title>
<polygon fill="white" stroke="none" points="-4,4 -4,-360 532,-360 532,4 -4,4"/>
<!-- Node6 -->
<g id="node1" class="node"><title>Node6</title>
<polygon fill="#bfbfbf" stroke="black" points="234,-336.5 234,-355.5 294,-355.5 294,-336.5 234,-336.5"/>
<text text-anchor="middle" x="264" y="-343.5" font-family="Helvetica,sans-Serif" font-size="10.00">thrmask.h</text>
</g>
<!-- Node7 -->
<g id="node2" class="node"><title>Node7</title>
<g id="a_node2"><a xlink:href="arch_2arm32-linux_2odp_2api_2abi_2thrmask_8h_source.html" target="_top" xlink:title="thrmask.h">
<polygon fill="white" stroke="black" points="0,-280.5 0,-299.5 60,-299.5 60,-280.5 0,-280.5"/>
<text text-anchor="middle" x="30" y="-287.5" font-family="Helvetica,sans-Serif" font-size="10.00">thrmask.h</text>
</a>
</g>
</g>
<!-- Node6&#45;&gt;Node7 -->
<g id="edge1" class="edge"><title>Node6&#45;&gt;Node7</title>
<path fill="none" stroke="midnightblue" d="M223.885,-335.743C177.493,-325.037 102.161,-307.653 60.3674,-298.008"/>
<polygon fill="midnightblue" stroke="midnightblue" points="223.357,-339.213 233.888,-338.051 224.931,-332.392 223.357,-339.213"/>
</g>
<!-- Node8 -->
<g id="node3" class="node"><title>Node8</title>
<g id="a_node3"><a xlink:href="arch_2arm64-linux_2odp_2api_2abi_2thrmask_8h_source.html" target="_top" xlink:title="thrmask.h">
<polygon fill="white" stroke="black" points="78,-280.5 78,-299.5 138,-299.5 138,-280.5 78,-280.5"/>
<text text-anchor="middle" x="108" y="-287.5" font-family="Helvetica,sans-Serif" font-size="10.00">thrmask.h</text>
</a>
</g>
</g>
<!-- Node6&#45;&gt;Node8 -->
<g id="edge2" class="edge"><title>Node6&#45;&gt;Node8</title>
<path fill="none" stroke="midnightblue" d="M229.83,-333.172C200.456,-323.004 158.802,-308.585 132.603,-299.516"/>
<polygon fill="midnightblue" stroke="midnightblue" points="228.687,-336.48 239.281,-336.444 230.976,-329.865 228.687,-336.48"/>
</g>
<!-- Node9 -->
<g id="node4" class="node"><title>Node9</title>
<g id="a_node4"><a xlink:href="arch_2default-linux_2odp_2api_2abi_2thrmask_8h_source.html" target="_top" xlink:title="thrmask.h">
<polygon fill="white" stroke="black" points="156,-280.5 156,-299.5 216,-299.5 216,-280.5 156,-280.5"/>
<text text-anchor="middle" x="186" y="-287.5" font-family="Helvetica,sans-Serif" font-size="10.00">thrmask.h</text>
</a>
</g>
</g>
<!-- Node6&#45;&gt;Node9 -->
<g id="edge3" class="edge"><title>Node6&#45;&gt;Node9</title>
<path fill="none" stroke="midnightblue" d="M243.232,-330.622C228.983,-320.757 210.544,-307.992 198.501,-299.655"/>
<polygon fill="midnightblue" stroke="midnightblue" points="241.254,-333.51 251.468,-336.324 245.238,-327.754 241.254,-333.51"/>
</g>
<!-- Node10 -->
<g id="node5" class="node"><title>Node10</title>
<g id="a_node5"><a xlink:href="arch_2mips64-linux_2odp_2api_2abi_2thrmask_8h_source.html" target="_top" xlink:title="thrmask.h">
<polygon fill="white" stroke="black" points="234,-280.5 234,-299.5 294,-299.5 294,-280.5 234,-280.5"/>
<text text-anchor="middle" x="264" y="-287.5" font-family="Helvetica,sans-Serif" font-size="10.00">thrmask.h</text>
</a>
</g>
</g>
<!-- Node6&#45;&gt;Node10 -->
<g id="edge4" class="edge"><title>Node6&#45;&gt;Node10</title>
<path fill="none" stroke="midnightblue" d="M264,-325.805C264,-316.91 264,-306.78 264,-299.751"/>
<polygon fill="midnightblue" stroke="midnightblue" points="260.5,-326.083 264,-336.083 267.5,-326.083 260.5,-326.083"/>
</g>
<!-- Node11 -->
<g id="node6" class="node"><title>Node11</title>
<g id="a_node6"><a xlink:href="arch_2power64-linux_2odp_2api_2abi_2thrmask_8h_source.html" target="_top" xlink:title="thrmask.h">
<polygon fill="white" stroke="black" points="312,-280.5 312,-299.5 372,-299.5 372,-280.5 312,-280.5"/>
<text text-anchor="middle" x="342" y="-287.5" font-family="Helvetica,sans-Serif" font-size="10.00">thrmask.h</text>
</a>
</g>
</g>
<!-- Node6&#45;&gt;Node11 -->
<g id="edge5" class="edge"><title>Node6&#45;&gt;Node11</title>
<path fill="none" stroke="midnightblue" d="M284.768,-330.622C299.017,-320.757 317.456,-307.992 329.499,-299.655"/>
<polygon fill="midnightblue" stroke="midnightblue" points="282.762,-327.754 276.532,-336.324 286.746,-333.51 282.762,-327.754"/>
</g>
<!-- Node12 -->
<g id="node7" class="node"><title>Node12</title>
<g id="a_node7"><a xlink:href="arch_2x86__32-linux_2odp_2api_2abi_2thrmask_8h_source.html" target="_top" xlink:title="thrmask.h">
<polygon fill="white" stroke="black" points="390,-280.5 390,-299.5 450,-299.5 450,-280.5 390,-280.5"/>
<text text-anchor="middle" x="420" y="-287.5" font-family="Helvetica,sans-Serif" font-size="10.00">thrmask.h</text>
</a>
</g>
</g>
<!-- Node6&#45;&gt;Node12 -->
<g id="edge6" class="edge"><title>Node6&#45;&gt;Node12</title>
<path fill="none" stroke="midnightblue" d="M298.17,-333.172C327.544,-323.004 369.198,-308.585 395.397,-299.516"/>
<polygon fill="midnightblue" stroke="midnightblue" points="297.024,-329.865 288.719,-336.444 299.313,-336.48 297.024,-329.865"/>
</g>
<!-- Node13 -->
<g id="node8" class="node"><title>Node13</title>
<g id="a_node8"><a xlink:href="arch_2x86__64-linux_2odp_2api_2abi_2thrmask_8h_source.html" target="_top" xlink:title="thrmask.h">
<polygon fill="white" stroke="black" points="468,-280.5 468,-299.5 528,-299.5 528,-280.5 468,-280.5"/>
<text text-anchor="middle" x="498" y="-287.5" font-family="Helvetica,sans-Serif" font-size="10.00">thrmask.h</text>
</a>
</g>
</g>
<!-- Node6&#45;&gt;Node13 -->
<g id="edge7" class="edge"><title>Node6&#45;&gt;Node13</title>
<path fill="none" stroke="midnightblue" d="M304.115,-335.743C350.507,-325.037 425.839,-307.653 467.633,-298.008"/>
<polygon fill="midnightblue" stroke="midnightblue" points="303.069,-332.392 294.112,-338.051 304.643,-339.213 303.069,-332.392"/>
</g>
<!-- Node14 -->
<g id="node9" class="node"><title>Node14</title>
<g id="a_node9"><a xlink:href="api_2thrmask_8h.html" target="_top" xlink:title="ODP thread masks. ">
<polygon fill="white" stroke="black" points="468,-224.5 468,-243.5 528,-243.5 528,-224.5 468,-224.5"/>
<text text-anchor="middle" x="498" y="-231.5" font-family="Helvetica,sans-Serif" font-size="10.00">thrmask.h</text>
</a>
</g>
</g>
<!-- Node13&#45;&gt;Node14 -->
<g id="edge8" class="edge"><title>Node13&#45;&gt;Node14</title>
<path fill="none" stroke="midnightblue" d="M498,-269.805C498,-260.91 498,-250.78 498,-243.751"/>
<polygon fill="midnightblue" stroke="midnightblue" points="494.5,-270.083 498,-280.083 501.5,-270.083 494.5,-270.083"/>
</g>
<!-- Node15 -->
<g id="node10" class="node"><title>Node15</title>
<g id="a_node10"><a xlink:href="api_2spec_2schedule_8h.html" target="_top" xlink:title="ODP schedule. ">
<polygon fill="white" stroke="black" points="436,-168.5 436,-187.5 500,-187.5 500,-168.5 436,-168.5"/>
<text text-anchor="middle" x="468" y="-175.5" font-family="Helvetica,sans-Serif" font-size="10.00">schedule.h</text>
</a>
</g>
</g>
<!-- Node14&#45;&gt;Node15 -->
<g id="edge9" class="edge"><title>Node14&#45;&gt;Node15</title>
<path fill="none" stroke="midnightblue" d="M488.153,-215.275C483.025,-206.045 476.984,-195.17 472.862,-187.751"/>
<polygon fill="midnightblue" stroke="midnightblue" points="485.13,-217.041 493.046,-224.083 491.249,-213.642 485.13,-217.041"/>
</g>
<!-- Node17 -->
<g id="node12" class="node"><title>Node17</title>
<g id="a_node12"><a xlink:href="odp__api_8h.html" target="_top" xlink:title="The OpenDataPlane API. ">
<polygon fill="white" stroke="black" points="468.5,-56.5 468.5,-75.5 527.5,-75.5 527.5,-56.5 468.5,-56.5"/>
<text text-anchor="middle" x="498" y="-63.5" font-family="Helvetica,sans-Serif" font-size="10.00">odp_api.h</text>
</a>
</g>
</g>
<!-- Node14&#45;&gt;Node17 -->
<g id="edge13" class="edge"><title>Node14&#45;&gt;Node17</title>
<path fill="none" stroke="midnightblue" d="M503.54,-214.656C505.708,-206.566 507.929,-196.893 509,-188 513.039,-154.465 513.039,-145.535 509,-112 507.442,-99.0646 503.451,-84.4802 500.73,-75.5139"/>
<polygon fill="midnightblue" stroke="midnightblue" points="500.113,-213.909 500.73,-224.486 506.844,-215.833 500.113,-213.909"/>
</g>
<!-- Node16 -->
<g id="node11" class="node"><title>Node16</title>
<g id="a_node11"><a xlink:href="api_2schedule_8h.html" target="_top" xlink:title="ODP schedule. ">
<polygon fill="white" stroke="black" points="436,-112.5 436,-131.5 500,-131.5 500,-112.5 436,-112.5"/>
<text text-anchor="middle" x="468" y="-119.5" font-family="Helvetica,sans-Serif" font-size="10.00">schedule.h</text>
</a>
</g>
</g>
<!-- Node15&#45;&gt;Node16 -->
<g id="edge10" class="edge"><title>Node15&#45;&gt;Node16</title>
<path fill="none" stroke="midnightblue" d="M468,-157.805C468,-148.91 468,-138.78 468,-131.751"/>
<polygon fill="midnightblue" stroke="midnightblue" points="464.5,-158.083 468,-168.083 471.5,-158.083 464.5,-158.083"/>
</g>
<!-- Node16&#45;&gt;Node17 -->
<g id="edge11" class="edge"><title>Node16&#45;&gt;Node17</title>
<path fill="none" stroke="midnightblue" d="M477.847,-103.275C482.975,-94.0454 489.016,-83.1703 493.138,-75.7511"/>
<polygon fill="midnightblue" stroke="midnightblue" points="474.751,-101.642 472.954,-112.083 480.87,-105.041 474.751,-101.642"/>
</g>
<!-- Node18 -->
<g id="node13" class="node"><title>Node18</title>
<g id="a_node13"><a xlink:href="odp_8h.html" target="_top" xlink:title="WARNING: THIS FILE IS DEPRECATED AND WILL BE REMOVED!!! ODP APPLICATIONS SHOULD NOW INCLUDE odp_api...">
<polygon fill="white" stroke="black" points="477.5,-0.5 477.5,-19.5 518.5,-19.5 518.5,-0.5 477.5,-0.5"/>
<text text-anchor="middle" x="498" y="-7.5" font-family="Helvetica,sans-Serif" font-size="10.00">odp.h</text>
</a>
</g>
</g>
<!-- Node17&#45;&gt;Node18 -->
<g id="edge12" class="edge"><title>Node17&#45;&gt;Node18</title>
<path fill="none" stroke="midnightblue" d="M498,-45.8045C498,-36.9102 498,-26.7798 498,-19.7511"/>
<polygon fill="midnightblue" stroke="midnightblue" points="494.5,-46.083 498,-56.083 501.5,-46.083 494.5,-46.083"/>
</g>
</g>
</svg>
