<?xml version="1.0" encoding="UTF-8" standalone="no"?>
<!DOCTYPE svg PUBLIC "-//W3C//DTD SVG 1.1//EN"
 "http://www.w3.org/Graphics/SVG/1.1/DTD/svg11.dtd">
<!-- Generated by graphviz version 2.36.0 (20140111.2315)
 -->
<!-- Title: event.h Pages: 1 -->
<svg width="448pt" height="588pt"
 viewBox="0.00 0.00 448.00 588.00" xmlns="http://www.w3.org/2000/svg" xmlns:xlink="http://www.w3.org/1999/xlink">
<g id="graph0" class="graph" transform="scale(1 1) rotate(0) translate(4 584)">
<title>event.h</title>
<polygon fill="white" stroke="none" points="-4,4 -4,-584 444,-584 444,4 -4,4"/>
<!-- Node18 -->
<g id="node1" class="node"><title>Node18</title>
<polygon fill="#bfbfbf" stroke="black" points="239.5,-560.5 239.5,-579.5 288.5,-579.5 288.5,-560.5 239.5,-560.5"/>
<text text-anchor="middle" x="264" y="-567.5" font-family="Helvetica,sans-Serif" font-size="10.00">event.h</text>
</g>
<!-- Node19 -->
<g id="node2" class="node"><title>Node19</title>
<g id="a_node2"><a xlink:href="api_2spec_2queue_8h.html" target="_top" xlink:title="ODP queue. ">
<polygon fill="white" stroke="black" points="238.5,-504.5 238.5,-523.5 289.5,-523.5 289.5,-504.5 238.5,-504.5"/>
<text text-anchor="middle" x="264" y="-511.5" font-family="Helvetica,sans-Serif" font-size="10.00">queue.h</text>
</a>
</g>
</g>
<!-- Node18&#45;&gt;Node19 -->
<g id="edge1" class="edge"><title>Node18&#45;&gt;Node19</title>
<path fill="none" stroke="midnightblue" d="M264,-549.805C264,-540.91 264,-530.78 264,-523.751"/>
<polygon fill="midnightblue" stroke="midnightblue" points="260.5,-550.083 264,-560.083 267.5,-550.083 260.5,-550.083"/>
</g>
<!-- Node24 -->
<g id="node7" class="node"><title>Node24</title>
<g id="a_node7"><a xlink:href="odp__api_8h.html" target="_top" xlink:title="The OpenDataPlane API. ">
<polygon fill="white" stroke="black" points="150.5,-56.5 150.5,-75.5 209.5,-75.5 209.5,-56.5 150.5,-56.5"/>
<text text-anchor="middle" x="180" y="-63.5" font-family="Helvetica,sans-Serif" font-size="10.00">odp_api.h</text>
</a>
</g>
</g>
<!-- Node18&#45;&gt;Node24 -->
<g id="edge25" class="edge"><title>Node18&#45;&gt;Node24</title>
<path fill="none" stroke="midnightblue" d="M228.799,-569.754C156.92,-569.273 0,-556.999 0,-459 0,-459 0,-459 0,-177 0,-107.416 99.1516,-80.528 150.277,-71.289"/>
<polygon fill="midnightblue" stroke="midnightblue" points="229.167,-573.254 239.164,-569.745 229.16,-566.254 229.167,-573.254"/>
</g>
<!-- Node32 -->
<g id="node15" class="node"><title>Node32</title>
<g id="a_node15"><a xlink:href="api_2spec_2schedule_8h.html" target="_top" xlink:title="ODP schedule. ">
<polygon fill="white" stroke="black" points="376,-392.5 376,-411.5 440,-411.5 440,-392.5 376,-392.5"/>
<text text-anchor="middle" x="408" y="-399.5" font-family="Helvetica,sans-Serif" font-size="10.00">schedule.h</text>
</a>
</g>
</g>
<!-- Node18&#45;&gt;Node32 -->
<g id="edge24" class="edge"><title>Node18&#45;&gt;Node32</title>
<path fill="none" stroke="midnightblue" d="M278.565,-552.21C308.879,-517.264 377.824,-437.787 400.567,-411.568"/>
<polygon fill="midnightblue" stroke="midnightblue" points="275.651,-550.228 271.742,-560.075 280.939,-554.815 275.651,-550.228"/>
</g>
<!-- Node20 -->
<g id="node3" class="node"><title>Node20</title>
<g id="a_node3"><a xlink:href="api_2queue_8h.html" target="_top" xlink:title="ODP queue. ">
<polygon fill="white" stroke="black" points="238.5,-448.5 238.5,-467.5 289.5,-467.5 289.5,-448.5 238.5,-448.5"/>
<text text-anchor="middle" x="264" y="-455.5" font-family="Helvetica,sans-Serif" font-size="10.00">queue.h</text>
</a>
</g>
</g>
<!-- Node19&#45;&gt;Node20 -->
<g id="edge2" class="edge"><title>Node19&#45;&gt;Node20</title>
<path fill="none" stroke="midnightblue" d="M264,-493.805C264,-484.91 264,-474.78 264,-467.751"/>
<polygon fill="midnightblue" stroke="midnightblue" points="260.5,-494.083 264,-504.083 267.5,-494.083 260.5,-494.083"/>
</g>
<!-- Node21 -->
<g id="node4" class="node"><title>Node21</title>
<g id="a_node4"><a xlink:href="api_2crypto_8h.html" target="_top" xlink:title="ODP crypto. ">
<polygon fill="white" stroke="black" points="335,-224.5 335,-243.5 387,-243.5 387,-224.5 335,-224.5"/>
<text text-anchor="middle" x="361" y="-231.5" font-family="Helvetica,sans-Serif" font-size="10.00">crypto.h</text>
</a>
</g>
</g>
<!-- Node20&#45;&gt;Node21 -->
<g id="edge3" class="edge"><title>Node20&#45;&gt;Node21</title>
<path fill="none" stroke="midnightblue" d="M271.921,-438.872C291.69,-393.627 342.652,-276.993 357.118,-243.884"/>
<polygon fill="midnightblue" stroke="midnightblue" points="268.599,-437.732 267.803,-448.297 275.014,-440.535 268.599,-437.732"/>
</g>
<!-- Node20&#45;&gt;Node24 -->
<g id="edge23" class="edge"><title>Node20&#45;&gt;Node24</title>
<path fill="none" stroke="midnightblue" d="M228.037,-455.473C164.263,-450.63 38,-430.498 38,-347 38,-347 38,-347 38,-177 38,-120.712 108.593,-89.1142 150.232,-75.3721"/>
<polygon fill="midnightblue" stroke="midnightblue" points="227.863,-458.969 238.075,-456.148 228.332,-451.985 227.863,-458.969"/>
</g>
<!-- Node26 -->
<g id="node9" class="node"><title>Node26</title>
<g id="a_node9"><a xlink:href="api_2spec_2packet__io_8h.html" target="_top" xlink:title="ODP Packet IO. ">
<polygon fill="white" stroke="black" points="194.5,-392.5 194.5,-411.5 261.5,-411.5 261.5,-392.5 194.5,-392.5"/>
<text text-anchor="middle" x="228" y="-399.5" font-family="Helvetica,sans-Serif" font-size="10.00">packet_io.h</text>
</a>
</g>
</g>
<!-- Node20&#45;&gt;Node26 -->
<g id="edge9" class="edge"><title>Node20&#45;&gt;Node26</title>
<path fill="none" stroke="midnightblue" d="M252.377,-439.566C246.183,-430.275 238.832,-419.248 233.834,-411.751"/>
<polygon fill="midnightblue" stroke="midnightblue" points="249.596,-441.704 258.055,-448.083 255.42,-437.821 249.596,-441.704"/>
</g>
<!-- Node20&#45;&gt;Node32 -->
<g id="edge20" class="edge"><title>Node20&#45;&gt;Node32</title>
<path fill="none" stroke="midnightblue" d="M296.251,-444.906C323.324,-434.754 361.317,-420.506 385.29,-411.516"/>
<polygon fill="midnightblue" stroke="midnightblue" points="294.952,-441.655 286.817,-448.444 297.409,-448.209 294.952,-441.655"/>
</g>
<!-- Node22 -->
<g id="node5" class="node"><title>Node22</title>
<g id="a_node5"><a xlink:href="api_2spec_2ipsec_8h.html" target="_top" xlink:title="ODP IPSEC API. ">
<polygon fill="white" stroke="black" points="200,-168.5 200,-187.5 248,-187.5 248,-168.5 200,-168.5"/>
<text text-anchor="middle" x="224" y="-175.5" font-family="Helvetica,sans-Serif" font-size="10.00">ipsec.h</text>
</a>
</g>
</g>
<!-- Node21&#45;&gt;Node22 -->
<g id="edge4" class="edge"><title>Node21&#45;&gt;Node22</title>
<path fill="none" stroke="midnightblue" d="M329.977,-220.772C304.243,-210.629 268.314,-196.467 245.606,-187.516"/>
<polygon fill="midnightblue" stroke="midnightblue" points="328.705,-224.033 339.292,-224.444 331.272,-217.52 328.705,-224.033"/>
</g>
<!-- Node21&#45;&gt;Node24 -->
<g id="edge8" class="edge"><title>Node21&#45;&gt;Node24</title>
<path fill="none" stroke="midnightblue" d="M350.354,-215.936C333.998,-190.754 300.607,-143.255 263,-112 243.965,-96.1799 218.508,-83.3663 200.828,-75.5166"/>
<polygon fill="midnightblue" stroke="midnightblue" points="347.433,-217.865 355.762,-224.414 353.335,-214.101 347.433,-217.865"/>
</g>
<!-- Node23 -->
<g id="node6" class="node"><title>Node23</title>
<g id="a_node6"><a xlink:href="api_2ipsec_8h.html" target="_top" xlink:title="ODP IPSEC API &#45; platform specific header. ">
<polygon fill="white" stroke="black" points="186,-112.5 186,-131.5 234,-131.5 234,-112.5 186,-112.5"/>
<text text-anchor="middle" x="210" y="-119.5" font-family="Helvetica,sans-Serif" font-size="10.00">ipsec.h</text>
</a>
</g>
</g>
<!-- Node22&#45;&gt;Node23 -->
<g id="edge5" class="edge"><title>Node22&#45;&gt;Node23</title>
<path fill="none" stroke="midnightblue" d="M219.177,-158.396C216.835,-149.362 214.132,-138.936 212.269,-131.751"/>
<polygon fill="midnightblue" stroke="midnightblue" points="215.79,-159.281 221.688,-168.083 222.566,-157.525 215.79,-159.281"/>
</g>
<!-- Node23&#45;&gt;Node24 -->
<g id="edge6" class="edge"><title>Node23&#45;&gt;Node24</title>
<path fill="none" stroke="midnightblue" d="M200.153,-103.275C195.025,-94.0454 188.984,-83.1703 184.862,-75.7511"/>
<polygon fill="midnightblue" stroke="midnightblue" points="197.13,-105.041 205.046,-112.083 203.249,-101.642 197.13,-105.041"/>
</g>
<!-- Node25 -->
<g id="node8" class="node"><title>Node25</title>
<g id="a_node8"><a xlink:href="odp_8h.html" target="_top" xlink:title="WARNING: THIS FILE IS DEPRECATED AND WILL BE REMOVED!!! ODP APPLICATIONS SHOULD NOW INCLUDE odp_api...">
<polygon fill="white" stroke="black" points="159.5,-0.5 159.5,-19.5 200.5,-19.5 200.5,-0.5 159.5,-0.5"/>
<text text-anchor="middle" x="180" y="-7.5" font-family="Helvetica,sans-Serif" font-size="10.00">odp.h</text>
</a>
</g>
</g>
<!-- Node24&#45;&gt;Node25 -->
<g id="edge7" class="edge"><title>Node24&#45;&gt;Node25</title>
<path fill="none" stroke="midnightblue" d="M180,-45.8045C180,-36.9102 180,-26.7798 180,-19.7511"/>
<polygon fill="midnightblue" stroke="midnightblue" points="176.5,-46.083 180,-56.083 183.5,-46.083 176.5,-46.083"/>
</g>
<!-- Node27 -->
<g id="node10" class="node"><title>Node27</title>
<g id="a_node10"><a xlink:href="api_2packet__io_8h.html" target="_top" xlink:title="ODP Packet IO. ">
<polygon fill="white" stroke="black" points="176.5,-336.5 176.5,-355.5 243.5,-355.5 243.5,-336.5 176.5,-336.5"/>
<text text-anchor="middle" x="210" y="-343.5" font-family="Helvetica,sans-Serif" font-size="10.00">packet_io.h</text>
</a>
</g>
</g>
<!-- Node26&#45;&gt;Node27 -->
<g id="edge10" class="edge"><title>Node26&#45;&gt;Node27</title>
<path fill="none" stroke="midnightblue" d="M221.799,-382.396C218.787,-373.362 215.312,-362.936 212.917,-355.751"/>
<polygon fill="midnightblue" stroke="midnightblue" points="218.545,-383.703 225.028,-392.083 225.186,-381.489 218.545,-383.703"/>
</g>
<!-- Node27&#45;&gt;Node22 -->
<g id="edge15" class="edge"><title>Node27&#45;&gt;Node22</title>
<path fill="none" stroke="midnightblue" d="M211.608,-325.93C214.645,-289.92 221.113,-213.231 223.277,-187.568"/>
<polygon fill="midnightblue" stroke="midnightblue" points="208.106,-325.816 210.753,-336.075 215.081,-326.405 208.106,-325.816"/>
</g>
<!-- Node27&#45;&gt;Node24 -->
<g id="edge19" class="edge"><title>Node27&#45;&gt;Node24</title>
<path fill="none" stroke="midnightblue" d="M166.253,-337.647C142.164,-331.451 113.49,-320.206 95,-300 74.6811,-277.796 76,-265.098 76,-235 76,-235 76,-235 76,-177 76,-127.591 132.088,-91.4278 161.885,-75.7022"/>
<polygon fill="midnightblue" stroke="midnightblue" points="165.717,-341.117 176.254,-340.005 167.324,-334.304 165.717,-341.117"/>
</g>
<!-- Node28 -->
<g id="node11" class="node"><title>Node28</title>
<g id="a_node11"><a xlink:href="api_2spec_2classification_8h.html" target="_top" xlink:title="ODP classification descriptor. ">
<polygon fill="white" stroke="black" points="238,-280.5 238,-299.5 320,-299.5 320,-280.5 238,-280.5"/>
<text text-anchor="middle" x="279" y="-287.5" font-family="Helvetica,sans-Serif" font-size="10.00">classification.h</text>
</a>
</g>
</g>
<!-- Node27&#45;&gt;Node28 -->
<g id="edge11" class="edge"><title>Node27&#45;&gt;Node28</title>
<path fill="none" stroke="midnightblue" d="M229.038,-330.101C241.456,-320.382 257.243,-308.027 267.712,-299.834"/>
<polygon fill="midnightblue" stroke="midnightblue" points="226.804,-327.405 221.086,-336.324 231.118,-332.917 226.804,-327.405"/>
</g>
<!-- Node30 -->
<g id="node13" class="node"><title>Node30</title>
<g id="a_node13"><a xlink:href="api_2spec_2traffic__mngr_8h.html" target="_top" xlink:title="Copyright (c) 2015&#45;2018, Linaro Limited All rights reserved. ">
<polygon fill="white" stroke="black" points="104.5,-280.5 104.5,-299.5 181.5,-299.5 181.5,-280.5 104.5,-280.5"/>
<text text-anchor="middle" x="143" y="-287.5" font-family="Helvetica,sans-Serif" font-size="10.00">traffic_mngr.h</text>
</a>
</g>
</g>
<!-- Node27&#45;&gt;Node30 -->
<g id="edge16" class="edge"><title>Node27&#45;&gt;Node30</title>
<path fill="none" stroke="midnightblue" d="M191.165,-329.82C179.162,-320.145 164.028,-307.948 153.961,-299.834"/>
<polygon fill="midnightblue" stroke="midnightblue" points="189.253,-332.774 199.235,-336.324 193.646,-327.324 189.253,-332.774"/>
</g>
<!-- Node29 -->
<g id="node12" class="node"><title>Node29</title>
<g id="a_node12"><a xlink:href="api_2classification_8h.html" target="_top" xlink:title="ODP classification descriptor. ">
<polygon fill="white" stroke="black" points="235,-224.5 235,-243.5 317,-243.5 317,-224.5 235,-224.5"/>
<text text-anchor="middle" x="276" y="-231.5" font-family="Helvetica,sans-Serif" font-size="10.00">classification.h</text>
</a>
</g>
</g>
<!-- Node28&#45;&gt;Node29 -->
<g id="edge12" class="edge"><title>Node28&#45;&gt;Node29</title>
<path fill="none" stroke="midnightblue" d="M277.934,-269.805C277.439,-260.91 276.877,-250.78 276.486,-243.751"/>
<polygon fill="midnightblue" stroke="midnightblue" points="274.455,-270.293 278.505,-280.083 281.444,-269.904 274.455,-270.293"/>
</g>
<!-- Node29&#45;&gt;Node22 -->
<g id="edge13" class="edge"><title>Node29&#45;&gt;Node22</title>
<path fill="none" stroke="midnightblue" d="M260.321,-216.718C251.155,-207.2 239.947,-195.561 232.427,-187.751"/>
<polygon fill="midnightblue" stroke="midnightblue" points="257.956,-219.308 267.413,-224.083 262.998,-214.452 257.956,-219.308"/>
</g>
<!-- Node29&#45;&gt;Node24 -->
<g id="edge14" class="edge"><title>Node29&#45;&gt;Node24</title>
<path fill="none" stroke="midnightblue" d="M274.765,-214.166C272.291,-188.865 264.908,-143.453 243,-112 231.63,-95.6766 212.35,-83.1869 198.106,-75.5538"/>
<polygon fill="midnightblue" stroke="midnightblue" points="271.286,-214.571 275.591,-224.252 278.263,-214 271.286,-214.571"/>
</g>
<!-- Node31 -->
<g id="node14" class="node"><title>Node31</title>
<g id="a_node14"><a xlink:href="api_2traffic__mngr_8h.html" target="_top" xlink:title="ODP Traffic manager. ">
<polygon fill="white" stroke="black" points="104.5,-168.5 104.5,-187.5 181.5,-187.5 181.5,-168.5 104.5,-168.5"/>
<text text-anchor="middle" x="143" y="-175.5" font-family="Helvetica,sans-Serif" font-size="10.00">traffic_mngr.h</text>
</a>
</g>
</g>
<!-- Node30&#45;&gt;Node31 -->
<g id="edge17" class="edge"><title>Node30&#45;&gt;Node31</title>
<path fill="none" stroke="midnightblue" d="M143,-270.348C143,-246.254 143,-205.308 143,-187.591"/>
<polygon fill="midnightblue" stroke="midnightblue" points="139.5,-270.368 143,-280.368 146.5,-270.369 139.5,-270.368"/>
</g>
<!-- Node31&#45;&gt;Node24 -->
<g id="edge18" class="edge"><title>Node31&#45;&gt;Node24</title>
<path fill="none" stroke="midnightblue" d="M149.164,-158.674C157.253,-134.625 171.124,-93.3881 177.11,-75.5914"/>
<polygon fill="midnightblue" stroke="midnightblue" points="145.774,-157.774 145.903,-168.368 152.409,-160.006 145.774,-157.774"/>
</g>
<!-- Node33 -->
<g id="node16" class="node"><title>Node33</title>
<g id="a_node16"><a xlink:href="api_2schedule_8h.html" target="_top" xlink:title="ODP schedule. ">
<polygon fill="white" stroke="black" points="372,-112.5 372,-131.5 436,-131.5 436,-112.5 372,-112.5"/>
<text text-anchor="middle" x="404" y="-119.5" font-family="Helvetica,sans-Serif" font-size="10.00">schedule.h</text>
</a>
</g>
</g>
<!-- Node32&#45;&gt;Node33 -->
<g id="edge21" class="edge"><title>Node32&#45;&gt;Node33</title>
<path fill="none" stroke="midnightblue" d="M409.919,-382.274C411.991,-360.402 415,-323.117 415,-291 415,-291 415,-291 415,-233 415,-194.999 408.42,-149.978 405.438,-131.529"/>
<polygon fill="midnightblue" stroke="midnightblue" points="406.413,-382.159 408.915,-392.454 413.38,-382.846 406.413,-382.159"/>
</g>
<!-- Node33&#45;&gt;Node24 -->
<g id="edge22" class="edge"><title>Node33&#45;&gt;Node24</title>
<path fill="none" stroke="midnightblue" d="M361.993,-110.873C317.548,-100.159 248.561,-83.5282 209.534,-74.1199"/>
<polygon fill="midnightblue" stroke="midnightblue" points="361.364,-114.322 371.906,-113.263 363.005,-107.517 361.364,-114.322"/>
</g>
</g>
</svg>
