<?xml version="1.0" encoding="UTF-8" standalone="no"?>
<!DOCTYPE svg PUBLIC "-//W3C//DTD SVG 1.1//EN"
 "http://www.w3.org/Graphics/SVG/1.1/DTD/svg11.dtd">
<!-- Generated by graphviz version 2.36.0 (20140111.2315)
 -->
<!-- Title: barrier.h Pages: 1 -->
<svg width="524pt" height="196pt"
 viewBox="0.00 0.00 524.00 196.00" xmlns="http://www.w3.org/2000/svg" xmlns:xlink="http://www.w3.org/1999/xlink">
<g id="graph0" class="graph" transform="scale(1 1) rotate(0) translate(4 192)">
<title>barrier.h</title>
<polygon fill="white" stroke="none" points="-4,4 -4,-192 520,-192 520,4 -4,4"/>
<!-- Node0 -->
<g id="node1" class="node"><title>Node0</title>
<polygon fill="#bfbfbf" stroke="black" points="244,-168.5 244,-187.5 296,-187.5 296,-168.5 244,-168.5"/>
<text text-anchor="middle" x="270" y="-175.5" font-family="Helvetica,sans-Serif" font-size="10.00">barrier.h</text>
</g>
<!-- Node1 -->
<g id="node2" class="node"><title>Node1</title>
<g id="a_node2"><a xlink:href="api_2std__types_8h.html" target="_top" xlink:title="Standard C language types and definitions for ODP. ">
<polygon fill="white" stroke="black" points="152,-112.5 152,-131.5 254,-131.5 254,-112.5 152,-112.5"/>
<text text-anchor="middle" x="203" y="-119.5" font-family="Helvetica,sans-Serif" font-size="10.00">odp/api/std_types.h</text>
</a>
</g>
</g>
<!-- Node0&#45;&gt;Node1 -->
<g id="edge1" class="edge"><title>Node0&#45;&gt;Node1</title>
<path fill="none" stroke="midnightblue" d="M259.235,-168.324C249.234,-160.263 234.113,-148.077 222.07,-138.369"/>
<polygon fill="midnightblue" stroke="midnightblue" points="223.943,-135.384 213.961,-131.834 219.55,-140.834 223.943,-135.384"/>
</g>
<!-- Node7 -->
<g id="node8" class="node"><title>Node7</title>
<g id="a_node8"><a xlink:href="api_2atomic_8h.html" target="_top" xlink:title="ODP atomic operations. ">
<polygon fill="white" stroke="black" points="292.5,-112.5 292.5,-131.5 381.5,-131.5 381.5,-112.5 292.5,-112.5"/>
<text text-anchor="middle" x="337" y="-119.5" font-family="Helvetica,sans-Serif" font-size="10.00">odp/api/atomic.h</text>
</a>
</g>
</g>
<!-- Node0&#45;&gt;Node7 -->
<g id="edge7" class="edge"><title>Node0&#45;&gt;Node7</title>
<path fill="none" stroke="midnightblue" d="M280.765,-168.324C290.766,-160.263 305.887,-148.077 317.93,-138.369"/>
<polygon fill="midnightblue" stroke="midnightblue" points="320.45,-140.834 326.039,-131.834 316.057,-135.384 320.45,-140.834"/>
</g>
<!-- Node2 -->
<g id="node3" class="node"><title>Node2</title>
<polygon fill="white" stroke="#bfbfbf" points="144,-56.5 144,-75.5 262,-75.5 262,-56.5 144,-56.5"/>
<text text-anchor="middle" x="203" y="-63.5" font-family="Helvetica,sans-Serif" font-size="10.00">odp/api/abi/std_types.h</text>
</g>
<!-- Node1&#45;&gt;Node2 -->
<g id="edge2" class="edge"><title>Node1&#45;&gt;Node2</title>
<path fill="none" stroke="midnightblue" d="M203,-112.083C203,-105.006 203,-94.8611 203,-85.9865"/>
<polygon fill="midnightblue" stroke="midnightblue" points="206.5,-85.751 203,-75.7511 199.5,-85.7511 206.5,-85.751"/>
</g>
<!-- Node3 -->
<g id="node4" class="node"><title>Node3</title>
<g id="a_node4"><a xlink:href="api_2spec_2std__types_8h.html" target="_top" xlink:title="Standard C language types and definitions for ODP. ">
<polygon fill="white" stroke="black" points="0,-56.5 0,-75.5 126,-75.5 126,-56.5 0,-56.5"/>
<text text-anchor="middle" x="63" y="-63.5" font-family="Helvetica,sans-Serif" font-size="10.00">odp/api/spec/std_types.h</text>
</a>
</g>
</g>
<!-- Node1&#45;&gt;Node3 -->
<g id="edge3" class="edge"><title>Node1&#45;&gt;Node3</title>
<path fill="none" stroke="midnightblue" d="M180.817,-112.444C157.572,-103.478 120.851,-89.314 94.5848,-79.1827"/>
<polygon fill="midnightblue" stroke="midnightblue" points="95.6692,-75.8497 85.0796,-75.5164 93.1501,-82.3807 95.6692,-75.8497"/>
</g>
<!-- Node4 -->
<g id="node5" class="node"><title>Node4</title>
<g id="a_node5"><a xlink:href="visibility__begin_8h_source.html" target="_top" xlink:title="odp/visibility_begin.h">
<polygon fill="white" stroke="black" points="268.5,-0.5 268.5,-19.5 375.5,-19.5 375.5,-0.5 268.5,-0.5"/>
<text text-anchor="middle" x="322" y="-7.5" font-family="Helvetica,sans-Serif" font-size="10.00">odp/visibility_begin.h</text>
</a>
</g>
</g>
<!-- Node3&#45;&gt;Node4 -->
<g id="edge4" class="edge"><title>Node3&#45;&gt;Node4</title>
<path fill="none" stroke="midnightblue" d="M104.039,-56.4435C149.316,-47.0036 222.227,-31.802 271.106,-21.6111"/>
<polygon fill="midnightblue" stroke="midnightblue" points="272.078,-24.9839 281.153,-19.5164 270.649,-18.1312 272.078,-24.9839"/>
</g>
<!-- Node5 -->
<g id="node6" class="node"><title>Node5</title>
<polygon fill="white" stroke="#bfbfbf" points="38.5,-0.5 38.5,-19.5 87.5,-19.5 87.5,-0.5 38.5,-0.5"/>
<text text-anchor="middle" x="63" y="-7.5" font-family="Helvetica,sans-Serif" font-size="10.00">stdint.h</text>
</g>
<!-- Node3&#45;&gt;Node5 -->
<g id="edge5" class="edge"><title>Node3&#45;&gt;Node5</title>
<path fill="none" stroke="midnightblue" d="M63,-56.083C63,-49.0059 63,-38.8611 63,-29.9865"/>
<polygon fill="midnightblue" stroke="midnightblue" points="66.5001,-29.751 63,-19.7511 59.5001,-29.7511 66.5001,-29.751"/>
</g>
<!-- Node6 -->
<g id="node7" class="node"><title>Node6</title>
<g id="a_node7"><a xlink:href="visibility__end_8h_source.html" target="_top" xlink:title="odp/visibility_end.h">
<polygon fill="white" stroke="black" points="135,-0.5 135,-19.5 235,-19.5 235,-0.5 135,-0.5"/>
<text text-anchor="middle" x="185" y="-7.5" font-family="Helvetica,sans-Serif" font-size="10.00">odp/visibility_end.h</text>
</a>
</g>
</g>
<!-- Node3&#45;&gt;Node6 -->
<g id="edge6" class="edge"><title>Node3&#45;&gt;Node6</title>
<path fill="none" stroke="midnightblue" d="M82.3313,-56.4435C102.32,-47.5961 133.743,-33.6875 156.564,-23.5865"/>
<polygon fill="midnightblue" stroke="midnightblue" points="158.032,-26.7645 165.759,-19.5164 155.198,-20.3635 158.032,-26.7645"/>
</g>
<!-- Node8 -->
<g id="node9" class="node"><title>Node8</title>
<polygon fill="white" stroke="#bfbfbf" points="412,-56.5 412,-75.5 516,-75.5 516,-56.5 412,-56.5"/>
<text text-anchor="middle" x="464" y="-63.5" font-family="Helvetica,sans-Serif" font-size="10.00">odp/api/abi/atomic.h</text>
</g>
<!-- Node7&#45;&gt;Node8 -->
<g id="edge8" class="edge"><title>Node7&#45;&gt;Node8</title>
<path fill="none" stroke="midnightblue" d="M357.124,-112.444C378.024,-103.557 410.935,-89.5632 434.716,-79.4514"/>
<polygon fill="midnightblue" stroke="midnightblue" points="436.138,-82.6504 443.971,-75.5164 433.398,-76.2085 436.138,-82.6504"/>
</g>
<!-- Node9 -->
<g id="node10" class="node"><title>Node9</title>
<g id="a_node10"><a xlink:href="api_2spec_2atomic_8h.html" target="_top" xlink:title="ODP atomic operations. ">
<polygon fill="white" stroke="black" points="280.5,-56.5 280.5,-75.5 393.5,-75.5 393.5,-56.5 280.5,-56.5"/>
<text text-anchor="middle" x="337" y="-63.5" font-family="Helvetica,sans-Serif" font-size="10.00">odp/api/spec/atomic.h</text>
</a>
</g>
</g>
<!-- Node7&#45;&gt;Node9 -->
<g id="edge9" class="edge"><title>Node7&#45;&gt;Node9</title>
<path fill="none" stroke="midnightblue" d="M337,-112.083C337,-105.006 337,-94.8611 337,-85.9865"/>
<polygon fill="midnightblue" stroke="midnightblue" points="340.5,-85.751 337,-75.7511 333.5,-85.7511 340.5,-85.751"/>
</g>
<!-- Node9&#45;&gt;Node4 -->
<g id="edge10" class="edge"><title>Node9&#45;&gt;Node4</title>
<path fill="none" stroke="midnightblue" d="M334.523,-56.083C332.514,-48.8486 329.614,-38.4087 327.11,-29.3968"/>
<polygon fill="midnightblue" stroke="midnightblue" points="330.48,-28.4495 324.431,-19.7511 323.735,-30.323 330.48,-28.4495"/>
</g>
<!-- Node9&#45;&gt;Node6 -->
<g id="edge11" class="edge"><title>Node9&#45;&gt;Node6</title>
<path fill="none" stroke="midnightblue" d="M312.915,-56.4435C287.455,-47.3986 247.106,-33.064 218.541,-22.9158"/>
<polygon fill="midnightblue" stroke="midnightblue" points="219.567,-19.5661 208.972,-19.5164 217.223,-26.1622 219.567,-19.5661"/>
</g>
</g>
</svg>
