<?xml version="1.0" encoding="UTF-8" standalone="no"?>
<!DOCTYPE svg PUBLIC "-//W3C//DTD SVG 1.1//EN"
 "http://www.w3.org/Graphics/SVG/1.1/DTD/svg11.dtd">
<!-- Generated by graphviz version 2.36.0 (20140111.2315)
 -->
<!-- Title: schedule.h Pages: 1 -->
<svg width="564pt" height="252pt"
 viewBox="0.00 0.00 564.00 252.00" xmlns="http://www.w3.org/2000/svg" xmlns:xlink="http://www.w3.org/1999/xlink">
<g id="graph0" class="graph" transform="scale(1 1) rotate(0) translate(4 248)">
<title>schedule.h</title>
<polygon fill="white" stroke="none" points="-4,4 -4,-248 560,-248 560,4 -4,4"/>
<!-- Node7 -->
<g id="node1" class="node"><title>Node7</title>
<polygon fill="#bfbfbf" stroke="black" points="246,-224.5 246,-243.5 310,-243.5 310,-224.5 246,-224.5"/>
<text text-anchor="middle" x="278" y="-231.5" font-family="Helvetica,sans-Serif" font-size="10.00">schedule.h</text>
</g>
<!-- Node8 -->
<g id="node2" class="node"><title>Node8</title>
<g id="a_node2"><a xlink:href="arch_2arm32-linux_2odp_2api_2abi_2schedule_8h_source.html" target="_top" xlink:title="schedule.h">
<polygon fill="white" stroke="black" points="0,-168.5 0,-187.5 64,-187.5 64,-168.5 0,-168.5"/>
<text text-anchor="middle" x="32" y="-175.5" font-family="Helvetica,sans-Serif" font-size="10.00">schedule.h</text>
</a>
</g>
</g>
<!-- Node7&#45;&gt;Node8 -->
<g id="edge1" class="edge"><title>Node7&#45;&gt;Node8</title>
<path fill="none" stroke="midnightblue" d="M235.939,-223.767C187.267,-213.083 108.187,-195.724 64.1681,-186.061"/>
<polygon fill="midnightblue" stroke="midnightblue" points="235.322,-227.215 245.84,-225.94 236.823,-220.378 235.322,-227.215"/>
</g>
<!-- Node9 -->
<g id="node3" class="node"><title>Node9</title>
<g id="a_node3"><a xlink:href="arch_2arm64-linux_2odp_2api_2abi_2schedule_8h_source.html" target="_top" xlink:title="schedule.h">
<polygon fill="white" stroke="black" points="82,-168.5 82,-187.5 146,-187.5 146,-168.5 82,-168.5"/>
<text text-anchor="middle" x="114" y="-175.5" font-family="Helvetica,sans-Serif" font-size="10.00">schedule.h</text>
</a>
</g>
</g>
<!-- Node7&#45;&gt;Node9 -->
<g id="edge2" class="edge"><title>Node7&#45;&gt;Node9</title>
<path fill="none" stroke="midnightblue" d="M242.48,-221.304C211.578,-211.129 167.527,-196.625 139.865,-187.516"/>
<polygon fill="midnightblue" stroke="midnightblue" points="241.421,-224.64 252.014,-224.444 243.61,-217.992 241.421,-224.64"/>
</g>
<!-- Node10 -->
<g id="node4" class="node"><title>Node10</title>
<g id="a_node4"><a xlink:href="arch_2default-linux_2odp_2api_2abi_2schedule_8h_source.html" target="_top" xlink:title="schedule.h">
<polygon fill="white" stroke="black" points="164,-168.5 164,-187.5 228,-187.5 228,-168.5 164,-168.5"/>
<text text-anchor="middle" x="196" y="-175.5" font-family="Helvetica,sans-Serif" font-size="10.00">schedule.h</text>
</a>
</g>
</g>
<!-- Node7&#45;&gt;Node10 -->
<g id="edge3" class="edge"><title>Node7&#45;&gt;Node10</title>
<path fill="none" stroke="midnightblue" d="M256.167,-218.622C241.187,-208.757 221.803,-195.992 209.142,-187.655"/>
<polygon fill="midnightblue" stroke="midnightblue" points="254.549,-221.747 264.825,-224.324 258.399,-215.901 254.549,-221.747"/>
</g>
<!-- Node11 -->
<g id="node5" class="node"><title>Node11</title>
<g id="a_node5"><a xlink:href="arch_2mips64-linux_2odp_2api_2abi_2schedule_8h_source.html" target="_top" xlink:title="schedule.h">
<polygon fill="white" stroke="black" points="246,-168.5 246,-187.5 310,-187.5 310,-168.5 246,-168.5"/>
<text text-anchor="middle" x="278" y="-175.5" font-family="Helvetica,sans-Serif" font-size="10.00">schedule.h</text>
</a>
</g>
</g>
<!-- Node7&#45;&gt;Node11 -->
<g id="edge4" class="edge"><title>Node7&#45;&gt;Node11</title>
<path fill="none" stroke="midnightblue" d="M278,-213.805C278,-204.91 278,-194.78 278,-187.751"/>
<polygon fill="midnightblue" stroke="midnightblue" points="274.5,-214.083 278,-224.083 281.5,-214.083 274.5,-214.083"/>
</g>
<!-- Node12 -->
<g id="node6" class="node"><title>Node12</title>
<g id="a_node6"><a xlink:href="arch_2power64-linux_2odp_2api_2abi_2schedule_8h_source.html" target="_top" xlink:title="schedule.h">
<polygon fill="white" stroke="black" points="328,-168.5 328,-187.5 392,-187.5 392,-168.5 328,-168.5"/>
<text text-anchor="middle" x="360" y="-175.5" font-family="Helvetica,sans-Serif" font-size="10.00">schedule.h</text>
</a>
</g>
</g>
<!-- Node7&#45;&gt;Node12 -->
<g id="edge5" class="edge"><title>Node7&#45;&gt;Node12</title>
<path fill="none" stroke="midnightblue" d="M299.833,-218.622C314.813,-208.757 334.197,-195.992 346.858,-187.655"/>
<polygon fill="midnightblue" stroke="midnightblue" points="297.601,-215.901 291.175,-224.324 301.451,-221.747 297.601,-215.901"/>
</g>
<!-- Node13 -->
<g id="node7" class="node"><title>Node13</title>
<g id="a_node7"><a xlink:href="arch_2x86__32-linux_2odp_2api_2abi_2schedule_8h_source.html" target="_top" xlink:title="schedule.h">
<polygon fill="white" stroke="black" points="410,-168.5 410,-187.5 474,-187.5 474,-168.5 410,-168.5"/>
<text text-anchor="middle" x="442" y="-175.5" font-family="Helvetica,sans-Serif" font-size="10.00">schedule.h</text>
</a>
</g>
</g>
<!-- Node7&#45;&gt;Node13 -->
<g id="edge6" class="edge"><title>Node7&#45;&gt;Node13</title>
<path fill="none" stroke="midnightblue" d="M313.52,-221.304C344.422,-211.129 388.473,-196.625 416.135,-187.516"/>
<polygon fill="midnightblue" stroke="midnightblue" points="312.39,-217.992 303.986,-224.444 314.579,-224.64 312.39,-217.992"/>
</g>
<!-- Node14 -->
<g id="node8" class="node"><title>Node14</title>
<g id="a_node8"><a xlink:href="arch_2x86__64-linux_2odp_2api_2abi_2schedule_8h_source.html" target="_top" xlink:title="schedule.h">
<polygon fill="white" stroke="black" points="492,-168.5 492,-187.5 556,-187.5 556,-168.5 492,-168.5"/>
<text text-anchor="middle" x="524" y="-175.5" font-family="Helvetica,sans-Serif" font-size="10.00">schedule.h</text>
</a>
</g>
</g>
<!-- Node7&#45;&gt;Node14 -->
<g id="edge7" class="edge"><title>Node7&#45;&gt;Node14</title>
<path fill="none" stroke="midnightblue" d="M320.061,-223.767C368.733,-213.083 447.813,-195.724 491.832,-186.061"/>
<polygon fill="midnightblue" stroke="midnightblue" points="319.177,-220.378 310.16,-225.94 320.678,-227.215 319.177,-220.378"/>
</g>
<!-- Node15 -->
<g id="node9" class="node"><title>Node15</title>
<g id="a_node9"><a xlink:href="api_2schedule_8h.html" target="_top" xlink:title="ODP schedule. ">
<polygon fill="white" stroke="black" points="492,-112.5 492,-131.5 556,-131.5 556,-112.5 492,-112.5"/>
<text text-anchor="middle" x="524" y="-119.5" font-family="Helvetica,sans-Serif" font-size="10.00">schedule.h</text>
</a>
</g>
</g>
<!-- Node14&#45;&gt;Node15 -->
<g id="edge8" class="edge"><title>Node14&#45;&gt;Node15</title>
<path fill="none" stroke="midnightblue" d="M524,-157.805C524,-148.91 524,-138.78 524,-131.751"/>
<polygon fill="midnightblue" stroke="midnightblue" points="520.5,-158.083 524,-168.083 527.5,-158.083 520.5,-158.083"/>
</g>
<!-- Node16 -->
<g id="node10" class="node"><title>Node16</title>
<g id="a_node10"><a xlink:href="odp__api_8h.html" target="_top" xlink:title="The OpenDataPlane API. ">
<polygon fill="white" stroke="black" points="494.5,-56.5 494.5,-75.5 553.5,-75.5 553.5,-56.5 494.5,-56.5"/>
<text text-anchor="middle" x="524" y="-63.5" font-family="Helvetica,sans-Serif" font-size="10.00">odp_api.h</text>
</a>
</g>
</g>
<!-- Node15&#45;&gt;Node16 -->
<g id="edge9" class="edge"><title>Node15&#45;&gt;Node16</title>
<path fill="none" stroke="midnightblue" d="M524,-101.805C524,-92.9102 524,-82.7798 524,-75.7511"/>
<polygon fill="midnightblue" stroke="midnightblue" points="520.5,-102.083 524,-112.083 527.5,-102.083 520.5,-102.083"/>
</g>
<!-- Node17 -->
<g id="node11" class="node"><title>Node17</title>
<g id="a_node11"><a xlink:href="odp_8h.html" target="_top" xlink:title="WARNING: THIS FILE IS DEPRECATED AND WILL BE REMOVED!!! ODP APPLICATIONS SHOULD NOW INCLUDE odp_api...">
<polygon fill="white" stroke="black" points="503.5,-0.5 503.5,-19.5 544.5,-19.5 544.5,-0.5 503.5,-0.5"/>
<text text-anchor="middle" x="524" y="-7.5" font-family="Helvetica,sans-Serif" font-size="10.00">odp.h</text>
</a>
</g>
</g>
<!-- Node16&#45;&gt;Node17 -->
<g id="edge10" class="edge"><title>Node16&#45;&gt;Node17</title>
<path fill="none" stroke="midnightblue" d="M524,-45.8045C524,-36.9102 524,-26.7798 524,-19.7511"/>
<polygon fill="midnightblue" stroke="midnightblue" points="520.5,-46.083 524,-56.083 527.5,-46.083 520.5,-46.083"/>
</g>
</g>
</svg>
