<?xml version="1.0" encoding="UTF-8" standalone="no"?>
<!DOCTYPE svg PUBLIC "-//W3C//DTD SVG 1.1//EN"
 "http://www.w3.org/Graphics/SVG/1.1/DTD/svg11.dtd">
<!-- Generated by graphviz version 2.36.0 (20140111.2315)
 -->
<!-- Title: cpu.h Pages: 1 -->
<svg width="691pt" height="264pt"
 viewBox="0.00 0.00 691.02 264.00" xmlns="http://www.w3.org/2000/svg" xmlns:xlink="http://www.w3.org/1999/xlink">
<g id="graph0" class="graph" transform="scale(1 1) rotate(0) translate(4 260)">
<title>cpu.h</title>
<polygon fill="white" stroke="none" points="-4,4 -4,-260 687.015,-260 687.015,4 -4,4"/>
<!-- Node0 -->
<g id="node1" class="node"><title>Node0</title>
<polygon fill="#bfbfbf" stroke="black" points="231.5,-236.5 231.5,-255.5 272.5,-255.5 272.5,-236.5 231.5,-236.5"/>
<text text-anchor="middle" x="252" y="-243.5" font-family="Helvetica,sans-Serif" font-size="10.00">cpu.h</text>
</g>
<!-- Node1 -->
<g id="node2" class="node"><title>Node1</title>
<polygon fill="white" stroke="#bfbfbf" points="132.5,-180.5 132.5,-199.5 223.5,-199.5 223.5,-180.5 132.5,-180.5"/>
<text text-anchor="middle" x="178" y="-187.5" font-family="Helvetica,sans-Serif" font-size="10.00">odp/api/abi/cpu.h</text>
</g>
<!-- Node0&#45;&gt;Node1 -->
<g id="edge1" class="edge"><title>Node0&#45;&gt;Node1</title>
<path fill="none" stroke="midnightblue" d="M240.111,-236.324C228.85,-228.107 211.713,-215.602 198.291,-205.807"/>
<polygon fill="midnightblue" stroke="midnightblue" points="200.247,-202.901 190.106,-199.834 196.12,-208.556 200.247,-202.901"/>
</g>
<!-- Node2 -->
<g id="node3" class="node"><title>Node2</title>
<g id="a_node3"><a xlink:href="api_2thread_8h.html" target="_top" xlink:title="ODP thread API. ">
<polygon fill="white" stroke="black" points="182,-124.5 182,-143.5 268,-143.5 268,-124.5 182,-124.5"/>
<text text-anchor="middle" x="225" y="-131.5" font-family="Helvetica,sans-Serif" font-size="10.00">odp/api/thread.h</text>
</a>
</g>
</g>
<!-- Node0&#45;&gt;Node2 -->
<g id="edge2" class="edge"><title>Node0&#45;&gt;Node2</title>
<path fill="none" stroke="midnightblue" d="M249.881,-236.368C245.524,-218.617 235.473,-177.666 229.565,-153.597"/>
<polygon fill="midnightblue" stroke="midnightblue" points="232.892,-152.469 227.109,-143.591 226.094,-154.137 232.892,-152.469"/>
</g>
<!-- Node8 -->
<g id="node9" class="node"><title>Node8</title>
<g id="a_node9"><a xlink:href="api_2spec_2cpu_8h.html" target="_top" xlink:title="ODP CPU API. ">
<polygon fill="white" stroke="black" points="388.5,-180.5 388.5,-199.5 487.5,-199.5 487.5,-180.5 388.5,-180.5"/>
<text text-anchor="middle" x="438" y="-187.5" font-family="Helvetica,sans-Serif" font-size="10.00">odp/api/spec/cpu.h</text>
</a>
</g>
</g>
<!-- Node0&#45;&gt;Node8 -->
<g id="edge8" class="edge"><title>Node0&#45;&gt;Node8</title>
<path fill="none" stroke="midnightblue" d="M272.616,-239.015C302.918,-230.217 360.052,-213.63 398.574,-202.446"/>
<polygon fill="midnightblue" stroke="midnightblue" points="399.796,-205.736 408.423,-199.587 397.844,-199.014 399.796,-205.736"/>
</g>
<!-- Node3 -->
<g id="node4" class="node"><title>Node3</title>
<g id="a_node4"><a xlink:href="thread__types_8h.html" target="_top" xlink:title="ODP thread API types. ">
<polygon fill="white" stroke="black" points="120,-57 120,-87 222,-87 222,-57 120,-57"/>
<text text-anchor="start" x="128" y="-75" font-family="Helvetica,sans-Serif" font-size="10.00">odp/api/spec/thread</text>
<text text-anchor="middle" x="171" y="-64" font-family="Helvetica,sans-Serif" font-size="10.00">_types.h</text>
</a>
</g>
</g>
<!-- Node2&#45;&gt;Node3 -->
<g id="edge3" class="edge"><title>Node2&#45;&gt;Node3</title>
<path fill="none" stroke="midnightblue" d="M217.263,-124.403C210.291,-116.657 199.744,-104.938 190.48,-94.6447"/>
<polygon fill="midnightblue" stroke="midnightblue" points="193.018,-92.2324 183.727,-87.1408 187.815,-96.9152 193.018,-92.2324"/>
</g>
<!-- Node4 -->
<g id="node5" class="node"><title>Node4</title>
<polygon fill="white" stroke="#bfbfbf" points="0,-62.5 0,-81.5 102,-81.5 102,-62.5 0,-62.5"/>
<text text-anchor="middle" x="51" y="-69.5" font-family="Helvetica,sans-Serif" font-size="10.00">odp/api/abi/thread.h</text>
</g>
<!-- Node2&#45;&gt;Node4 -->
<g id="edge4" class="edge"><title>Node2&#45;&gt;Node4</title>
<path fill="none" stroke="midnightblue" d="M200.07,-124.403C169.964,-114.022 119.168,-96.5062 85.362,-84.849"/>
<polygon fill="midnightblue" stroke="midnightblue" points="86.4784,-81.5318 75.8837,-81.5806 84.1965,-88.1494 86.4784,-81.5318"/>
</g>
<!-- Node5 -->
<g id="node6" class="node"><title>Node5</title>
<g id="a_node6"><a xlink:href="api_2spec_2thread_8h.html" target="_top" xlink:title="ODP thread API. ">
<polygon fill="white" stroke="black" points="240,-62.5 240,-81.5 350,-81.5 350,-62.5 240,-62.5"/>
<text text-anchor="middle" x="295" y="-69.5" font-family="Helvetica,sans-Serif" font-size="10.00">odp/api/spec/thread.h</text>
</a>
</g>
</g>
<!-- Node2&#45;&gt;Node5 -->
<g id="edge5" class="edge"><title>Node2&#45;&gt;Node5</title>
<path fill="none" stroke="midnightblue" d="M235.029,-124.403C246.049,-114.958 263.96,-99.6056 277.343,-88.1342"/>
<polygon fill="midnightblue" stroke="midnightblue" points="279.675,-90.7459 284.989,-81.5806 275.119,-85.4311 279.675,-90.7459"/>
</g>
<!-- Node6 -->
<g id="node7" class="node"><title>Node6</title>
<g id="a_node7"><a xlink:href="visibility__begin_8h_source.html" target="_top" xlink:title="odp/visibility_begin.h">
<polygon fill="white" stroke="black" points="503.5,-0.5 503.5,-19.5 610.5,-19.5 610.5,-0.5 503.5,-0.5"/>
<text text-anchor="middle" x="557" y="-7.5" font-family="Helvetica,sans-Serif" font-size="10.00">odp/visibility_begin.h</text>
</a>
</g>
</g>
<!-- Node5&#45;&gt;Node6 -->
<g id="edge6" class="edge"><title>Node5&#45;&gt;Node6</title>
<path fill="none" stroke="midnightblue" d="M332.26,-62.4672C379.014,-51.7602 459.221,-33.3922 510.102,-21.74"/>
<polygon fill="midnightblue" stroke="midnightblue" points="510.902,-25.1474 519.869,-19.5034 509.34,-18.3241 510.902,-25.1474"/>
</g>
<!-- Node7 -->
<g id="node8" class="node"><title>Node7</title>
<g id="a_node8"><a xlink:href="visibility__end_8h_source.html" target="_top" xlink:title="odp/visibility_end.h">
<polygon fill="white" stroke="black" points="328,-0.5 328,-19.5 428,-19.5 428,-0.5 328,-0.5"/>
<text text-anchor="middle" x="378" y="-7.5" font-family="Helvetica,sans-Serif" font-size="10.00">odp/visibility_end.h</text>
</a>
</g>
</g>
<!-- Node5&#45;&gt;Node7 -->
<g id="edge7" class="edge"><title>Node5&#45;&gt;Node7</title>
<path fill="none" stroke="midnightblue" d="M306.892,-62.4035C320.205,-52.7797 342,-37.0242 357.957,-25.4891"/>
<polygon fill="midnightblue" stroke="midnightblue" points="360.076,-28.2756 366.13,-19.5806 355.975,-22.6026 360.076,-28.2756"/>
</g>
<!-- Node8&#45;&gt;Node6 -->
<g id="edge9" class="edge"><title>Node8&#45;&gt;Node6</title>
<path fill="none" stroke="midnightblue" d="M487.724,-183.878C544.517,-175.071 634.994,-151.354 677,-88 684.859,-76.1466 685.101,-67.6896 677,-56 668.062,-43.1021 632.542,-30.7557 602.447,-22.2689"/>
<polygon fill="midnightblue" stroke="midnightblue" points="603.064,-18.8092 592.495,-19.5435 601.215,-25.5606 603.064,-18.8092"/>
</g>
<!-- Node8&#45;&gt;Node7 -->
<g id="edge16" class="edge"><title>Node8&#45;&gt;Node7</title>
<path fill="none" stroke="midnightblue" d="M429.917,-180.42C422.312,-171.859 411.193,-157.998 405,-144 388.061,-105.711 381.628,-56.4928 379.278,-29.9682"/>
<polygon fill="midnightblue" stroke="midnightblue" points="382.752,-29.4891 378.482,-19.7925 375.773,-30.035 382.752,-29.4891"/>
</g>
<!-- Node9 -->
<g id="node10" class="node"><title>Node9</title>
<g id="a_node10"><a xlink:href="api_2std__types_8h.html" target="_top" xlink:title="Standard C language types and definitions for ODP. ">
<polygon fill="white" stroke="black" points="414,-124.5 414,-143.5 516,-143.5 516,-124.5 414,-124.5"/>
<text text-anchor="middle" x="465" y="-131.5" font-family="Helvetica,sans-Serif" font-size="10.00">odp/api/std_types.h</text>
</a>
</g>
</g>
<!-- Node8&#45;&gt;Node9 -->
<g id="edge10" class="edge"><title>Node8&#45;&gt;Node9</title>
<path fill="none" stroke="midnightblue" d="M442.459,-180.083C446.154,-172.691 451.523,-161.953 456.094,-152.811"/>
<polygon fill="midnightblue" stroke="midnightblue" points="459.283,-154.261 460.624,-143.751 453.022,-151.13 459.283,-154.261"/>
</g>
<!-- Node10 -->
<g id="node11" class="node"><title>Node10</title>
<polygon fill="white" stroke="#bfbfbf" points="406,-62.5 406,-81.5 524,-81.5 524,-62.5 406,-62.5"/>
<text text-anchor="middle" x="465" y="-69.5" font-family="Helvetica,sans-Serif" font-size="10.00">odp/api/abi/std_types.h</text>
</g>
<!-- Node9&#45;&gt;Node10 -->
<g id="edge11" class="edge"><title>Node9&#45;&gt;Node10</title>
<path fill="none" stroke="midnightblue" d="M465,-124.403C465,-115.938 465,-102.728 465,-91.8199"/>
<polygon fill="midnightblue" stroke="midnightblue" points="468.5,-91.5806 465,-81.5806 461.5,-91.5806 468.5,-91.5806"/>
</g>
<!-- Node11 -->
<g id="node12" class="node"><title>Node11</title>
<g id="a_node12"><a xlink:href="api_2spec_2std__types_8h.html" target="_top" xlink:title="Standard C language types and definitions for ODP. ">
<polygon fill="white" stroke="black" points="542,-62.5 542,-81.5 668,-81.5 668,-62.5 542,-62.5"/>
<text text-anchor="middle" x="605" y="-69.5" font-family="Helvetica,sans-Serif" font-size="10.00">odp/api/spec/std_types.h</text>
</a>
</g>
</g>
<!-- Node9&#45;&gt;Node11 -->
<g id="edge12" class="edge"><title>Node9&#45;&gt;Node11</title>
<path fill="none" stroke="midnightblue" d="M485.059,-124.403C508.762,-114.245 548.406,-97.2547 575.583,-85.6074"/>
<polygon fill="midnightblue" stroke="midnightblue" points="577.166,-88.7369 584.979,-81.5806 574.408,-82.3028 577.166,-88.7369"/>
</g>
<!-- Node11&#45;&gt;Node6 -->
<g id="edge13" class="edge"><title>Node11&#45;&gt;Node6</title>
<path fill="none" stroke="midnightblue" d="M598.123,-62.4035C590.851,-53.3143 579.205,-38.7559 570.159,-27.4489"/>
<polygon fill="midnightblue" stroke="midnightblue" points="572.845,-25.2029 563.864,-19.5806 567.378,-29.5757 572.845,-25.2029"/>
</g>
<!-- Node11&#45;&gt;Node7 -->
<g id="edge15" class="edge"><title>Node11&#45;&gt;Node7</title>
<path fill="none" stroke="midnightblue" d="M572.476,-62.4035C532.442,-51.8217 464.362,-33.8269 420.298,-22.1802"/>
<polygon fill="midnightblue" stroke="midnightblue" points="421.026,-18.7523 410.463,-19.5806 419.237,-25.5199 421.026,-18.7523"/>
</g>
<!-- Node12 -->
<g id="node13" class="node"><title>Node12</title>
<polygon fill="white" stroke="#bfbfbf" points="628.5,-0.5 628.5,-19.5 677.5,-19.5 677.5,-0.5 628.5,-0.5"/>
<text text-anchor="middle" x="653" y="-7.5" font-family="Helvetica,sans-Serif" font-size="10.00">stdint.h</text>
</g>
<!-- Node11&#45;&gt;Node12 -->
<g id="edge14" class="edge"><title>Node11&#45;&gt;Node12</title>
<path fill="none" stroke="midnightblue" d="M611.877,-62.4035C619.149,-53.3143 630.795,-38.7559 639.841,-27.4489"/>
<polygon fill="midnightblue" stroke="midnightblue" points="642.622,-29.5757 646.136,-19.5806 637.155,-25.2029 642.622,-29.5757"/>
</g>
</g>
</svg>
