<?xml version="1.0" encoding="UTF-8" standalone="no"?>
<!DOCTYPE svg PUBLIC "-//W3C//DTD SVG 1.1//EN"
 "http://www.w3.org/Graphics/SVG/1.1/DTD/svg11.dtd">
<!-- Generated by graphviz version 2.36.0 (20140111.2315)
 -->
<!-- Title: rwlock_recursive.h Pages: 1 -->
<svg width="104pt" height="140pt"
 viewBox="0.00 0.00 104.00 140.00" xmlns="http://www.w3.org/2000/svg" xmlns:xlink="http://www.w3.org/1999/xlink">
<g id="graph0" class="graph" transform="scale(1 1) rotate(0) translate(4 136)">
<title>rwlock_recursive.h</title>
<polygon fill="white" stroke="none" points="-4,4 -4,-136 100,-136 100,4 -4,4"/>
<!-- Node5 -->
<g id="node1" class="node"><title>Node5</title>
<polygon fill="#bfbfbf" stroke="black" points="-1,-112.5 -1,-131.5 97,-131.5 97,-112.5 -1,-112.5"/>
<text text-anchor="middle" x="48" y="-119.5" font-family="Helvetica,sans-Serif" font-size="10.00">rwlock_recursive.h</text>
</g>
<!-- Node6 -->
<g id="node2" class="node"><title>Node6</title>
<g id="a_node2"><a xlink:href="odp__api_8h.html" target="_top" xlink:title="The OpenDataPlane API. ">
<polygon fill="white" stroke="black" points="18.5,-56.5 18.5,-75.5 77.5,-75.5 77.5,-56.5 18.5,-56.5"/>
<text text-anchor="middle" x="48" y="-63.5" font-family="Helvetica,sans-Serif" font-size="10.00">odp_api.h</text>
</a>
</g>
</g>
<!-- Node5&#45;&gt;Node6 -->
<g id="edge1" class="edge"><title>Node5&#45;&gt;Node6</title>
<path fill="none" stroke="midnightblue" d="M48,-101.805C48,-92.9102 48,-82.7798 48,-75.7511"/>
<polygon fill="midnightblue" stroke="midnightblue" points="44.5001,-102.083 48,-112.083 51.5001,-102.083 44.5001,-102.083"/>
</g>
<!-- Node7 -->
<g id="node3" class="node"><title>Node7</title>
<g id="a_node3"><a xlink:href="odp_8h.html" target="_top" xlink:title="WARNING: THIS FILE IS DEPRECATED AND WILL BE REMOVED!!! ODP APPLICATIONS SHOULD NOW INCLUDE odp_api...">
<polygon fill="white" stroke="black" points="27.5,-0.5 27.5,-19.5 68.5,-19.5 68.5,-0.5 27.5,-0.5"/>
<text text-anchor="middle" x="48" y="-7.5" font-family="Helvetica,sans-Serif" font-size="10.00">odp.h</text>
</a>
</g>
</g>
<!-- Node6&#45;&gt;Node7 -->
<g id="edge2" class="edge"><title>Node6&#45;&gt;Node7</title>
<path fill="none" stroke="midnightblue" d="M48,-45.8045C48,-36.9102 48,-26.7798 48,-19.7511"/>
<polygon fill="midnightblue" stroke="midnightblue" points="44.5001,-46.083 48,-56.083 51.5001,-46.083 44.5001,-46.083"/>
</g>
</g>
</svg>
