<?xml version="1.0" encoding="UTF-8" standalone="no"?>
<!DOCTYPE svg PUBLIC "-//W3C//DTD SVG 1.1//EN"
 "http://www.w3.org/Graphics/SVG/1.1/DTD/svg11.dtd">
<!-- Generated by graphviz version 2.36.0 (20140111.2315)
 -->
<!-- Title: packet_io.h Pages: 1 -->
<svg width="1629pt" height="680pt"
 viewBox="0.00 0.00 1628.78 680.00" xmlns="http://www.w3.org/2000/svg" xmlns:xlink="http://www.w3.org/1999/xlink">
<g id="graph0" class="graph" transform="scale(1 1) rotate(0) translate(4 676)">
<title>packet_io.h</title>
<polygon fill="white" stroke="none" points="-4,4 -4,-676 1624.78,-676 1624.78,4 -4,4"/>
<!-- Node0 -->
<g id="node1" class="node"><title>Node0</title>
<polygon fill="#bfbfbf" stroke="black" points="173.108,-652.5 173.108,-671.5 240.108,-671.5 240.108,-652.5 173.108,-652.5"/>
<text text-anchor="middle" x="206.608" y="-659.5" font-family="Helvetica,sans-Serif" font-size="10.00">packet_io.h</text>
</g>
<!-- Node1 -->
<g id="node2" class="node"><title>Node1</title>
<g id="a_node2"><a xlink:href="api_2std__types_8h.html" target="_top" xlink:title="Standard C language types and definitions for ODP. ">
<polygon fill="white" stroke="black" points="435.608,-124.5 435.608,-143.5 537.608,-143.5 537.608,-124.5 435.608,-124.5"/>
<text text-anchor="middle" x="486.608" y="-131.5" font-family="Helvetica,sans-Serif" font-size="10.00">odp/api/std_types.h</text>
</a>
</g>
</g>
<!-- Node0&#45;&gt;Node1 -->
<g id="edge1" class="edge"><title>Node0&#45;&gt;Node1</title>
<path fill="none" stroke="midnightblue" d="M204.512,-652.466C201.343,-639.926 194.921,-615.859 187.608,-596 129.585,-438.445 -62.5103,-380.502 40.6076,-248 87.6451,-187.559 314.47,-154.262 425.341,-141.357"/>
<polygon fill="midnightblue" stroke="midnightblue" points="425.839,-144.823 435.376,-140.208 425.043,-137.869 425.839,-144.823"/>
</g>
<!-- Node7 -->
<g id="node8" class="node"><title>Node7</title>
<polygon fill="white" stroke="#bfbfbf" points="345.108,-248.5 345.108,-267.5 438.108,-267.5 438.108,-248.5 345.108,-248.5"/>
<text text-anchor="middle" x="391.608" y="-255.5" font-family="Helvetica,sans-Serif" font-size="10.00">odp/api/abi/pool.h</text>
</g>
<!-- Node0&#45;&gt;Node7 -->
<g id="edge7" class="edge"><title>Node0&#45;&gt;Node7</title>
<path fill="none" stroke="midnightblue" d="M211.891,-652.231C222.333,-634.043 244.608,-590.601 244.608,-551 244.608,-551 244.608,-551 244.608,-493 244.608,-397.55 333.393,-309.129 372.962,-274.461"/>
<polygon fill="midnightblue" stroke="midnightblue" points="375.723,-276.705 381.036,-267.538 371.166,-271.391 375.723,-276.705"/>
</g>
<!-- Node8 -->
<g id="node9" class="node"><title>Node8</title>
<polygon fill="white" stroke="#bfbfbf" points="46.6076,-596.5 46.6076,-615.5 178.608,-615.5 178.608,-596.5 46.6076,-596.5"/>
<text text-anchor="middle" x="112.608" y="-603.5" font-family="Helvetica,sans-Serif" font-size="10.00">odp/api/abi/classification.h</text>
</g>
<!-- Node0&#45;&gt;Node8 -->
<g id="edge8" class="edge"><title>Node0&#45;&gt;Node8</title>
<path fill="none" stroke="midnightblue" d="M191.505,-652.324C176.704,-643.822 153.913,-630.729 136.625,-620.797"/>
<polygon fill="midnightblue" stroke="midnightblue" points="138.087,-617.601 127.673,-615.655 134.601,-623.671 138.087,-617.601"/>
</g>
<!-- Node9 -->
<g id="node10" class="node"><title>Node9</title>
<polygon fill="white" stroke="#bfbfbf" points="49.6076,-248.5 49.6076,-267.5 153.608,-267.5 153.608,-248.5 49.6076,-248.5"/>
<text text-anchor="middle" x="101.608" y="-255.5" font-family="Helvetica,sans-Serif" font-size="10.00">odp/api/abi/packet.h</text>
</g>
<!-- Node0&#45;&gt;Node9 -->
<g id="edge9" class="edge"><title>Node0&#45;&gt;Node9</title>
<path fill="none" stroke="midnightblue" d="M172.92,-657.208C127.077,-651.275 48.7638,-638.126 31.6076,-616 -51.258,-509.13 53.4579,-331.295 89.9436,-275.962"/>
<polygon fill="midnightblue" stroke="midnightblue" points="92.8721,-277.879 95.5412,-267.626 87.0607,-273.976 92.8721,-277.879"/>
</g>
<!-- Node10 -->
<g id="node11" class="node"><title>Node10</title>
<polygon fill="white" stroke="#bfbfbf" points="210.108,-248.5 210.108,-267.5 327.108,-267.5 327.108,-248.5 210.108,-248.5"/>
<text text-anchor="middle" x="268.608" y="-255.5" font-family="Helvetica,sans-Serif" font-size="10.00">odp/api/abi/packet_io.h</text>
</g>
<!-- Node0&#45;&gt;Node10 -->
<g id="edge10" class="edge"><title>Node0&#45;&gt;Node10</title>
<path fill="none" stroke="midnightblue" d="M173.036,-661.622C118.931,-660.999 20.1638,-652.301 37.6076,-596 81.3733,-454.743 207.059,-320.055 252.21,-274.922"/>
<polygon fill="midnightblue" stroke="midnightblue" points="254.785,-277.298 259.436,-267.778 249.864,-272.319 254.785,-277.298"/>
</g>
<!-- Node11 -->
<g id="node12" class="node"><title>Node11</title>
<polygon fill="white" stroke="#bfbfbf" points="311.108,-484.5 311.108,-503.5 412.108,-503.5 412.108,-484.5 311.108,-484.5"/>
<text text-anchor="middle" x="361.608" y="-491.5" font-family="Helvetica,sans-Serif" font-size="10.00">odp/api/abi/queue.h</text>
</g>
<!-- Node0&#45;&gt;Node11 -->
<g id="edge11" class="edge"><title>Node0&#45;&gt;Node11</title>
<path fill="none" stroke="midnightblue" d="M217.386,-652.483C228.206,-643.75 245.156,-629.562 258.608,-616 293.406,-580.917 329.932,-535.693 348.733,-511.693"/>
<polygon fill="midnightblue" stroke="midnightblue" points="351.652,-513.641 355.031,-503.599 346.127,-509.342 351.652,-513.641"/>
</g>
<!-- Node12 -->
<g id="node13" class="node"><title>Node12</title>
<g id="a_node13"><a xlink:href="api_2spec_2packet__io_8h.html" target="_top" xlink:title="ODP Packet IO. ">
<polygon fill="white" stroke="black" points="527.108,-596.5 527.108,-615.5 652.108,-615.5 652.108,-596.5 527.108,-596.5"/>
<text text-anchor="middle" x="589.608" y="-603.5" font-family="Helvetica,sans-Serif" font-size="10.00">odp/api/spec/packet_io.h</text>
</a>
</g>
</g>
<!-- Node0&#45;&gt;Node12 -->
<g id="edge12" class="edge"><title>Node0&#45;&gt;Node12</title>
<path fill="none" stroke="midnightblue" d="M240.261,-656.255C302.379,-647.497 436.255,-628.622 519.056,-616.947"/>
<polygon fill="midnightblue" stroke="midnightblue" points="519.728,-620.387 529.142,-615.525 518.751,-613.456 519.728,-620.387"/>
</g>
<!-- Node2 -->
<g id="node3" class="node"><title>Node2</title>
<polygon fill="white" stroke="#bfbfbf" points="567.608,-62.5 567.608,-81.5 685.608,-81.5 685.608,-62.5 567.608,-62.5"/>
<text text-anchor="middle" x="626.608" y="-69.5" font-family="Helvetica,sans-Serif" font-size="10.00">odp/api/abi/std_types.h</text>
</g>
<!-- Node1&#45;&gt;Node2 -->
<g id="edge2" class="edge"><title>Node1&#45;&gt;Node2</title>
<path fill="none" stroke="midnightblue" d="M506.666,-124.403C530.369,-114.245 570.013,-97.2547 597.19,-85.6074"/>
<polygon fill="midnightblue" stroke="midnightblue" points="598.774,-88.7369 606.586,-81.5806 596.016,-82.3028 598.774,-88.7369"/>
</g>
<!-- Node3 -->
<g id="node4" class="node"><title>Node3</title>
<g id="a_node4"><a xlink:href="api_2spec_2std__types_8h.html" target="_top" xlink:title="Standard C language types and definitions for ODP. ">
<polygon fill="white" stroke="black" points="423.608,-62.5 423.608,-81.5 549.608,-81.5 549.608,-62.5 423.608,-62.5"/>
<text text-anchor="middle" x="486.608" y="-69.5" font-family="Helvetica,sans-Serif" font-size="10.00">odp/api/spec/std_types.h</text>
</a>
</g>
</g>
<!-- Node1&#45;&gt;Node3 -->
<g id="edge3" class="edge"><title>Node1&#45;&gt;Node3</title>
<path fill="none" stroke="midnightblue" d="M486.608,-124.403C486.608,-115.938 486.608,-102.728 486.608,-91.8199"/>
<polygon fill="midnightblue" stroke="midnightblue" points="490.108,-91.5806 486.608,-81.5806 483.108,-91.5806 490.108,-91.5806"/>
</g>
<!-- Node4 -->
<g id="node5" class="node"><title>Node4</title>
<g id="a_node5"><a xlink:href="visibility__begin_8h_source.html" target="_top" xlink:title="odp/visibility_begin.h">
<polygon fill="white" stroke="black" points="1236.11,-0.5 1236.11,-19.5 1343.11,-19.5 1343.11,-0.5 1236.11,-0.5"/>
<text text-anchor="middle" x="1289.61" y="-7.5" font-family="Helvetica,sans-Serif" font-size="10.00">odp/visibility_begin.h</text>
</a>
</g>
</g>
<!-- Node3&#45;&gt;Node4 -->
<g id="edge4" class="edge"><title>Node3&#45;&gt;Node4</title>
<path fill="none" stroke="midnightblue" d="M522.691,-62.4219C534.118,-59.9914 546.839,-57.5798 558.608,-56 803.449,-23.1334 1097.7,-14.2348 1225.33,-11.8545"/>
<polygon fill="midnightblue" stroke="midnightblue" points="1225.76,-15.3475 1235.7,-11.6688 1225.64,-8.3486 1225.76,-15.3475"/>
</g>
<!-- Node5 -->
<g id="node6" class="node"><title>Node5</title>
<polygon fill="white" stroke="#bfbfbf" points="462.108,-0.5 462.108,-19.5 511.108,-19.5 511.108,-0.5 462.108,-0.5"/>
<text text-anchor="middle" x="486.608" y="-7.5" font-family="Helvetica,sans-Serif" font-size="10.00">stdint.h</text>
</g>
<!-- Node3&#45;&gt;Node5 -->
<g id="edge5" class="edge"><title>Node3&#45;&gt;Node5</title>
<path fill="none" stroke="midnightblue" d="M486.608,-62.4035C486.608,-53.9381 486.608,-40.7283 486.608,-29.8199"/>
<polygon fill="midnightblue" stroke="midnightblue" points="490.108,-29.5806 486.608,-19.5806 483.108,-29.5806 490.108,-29.5806"/>
</g>
<!-- Node6 -->
<g id="node7" class="node"><title>Node6</title>
<g id="a_node7"><a xlink:href="visibility__end_8h_source.html" target="_top" xlink:title="odp/visibility_end.h">
<polygon fill="white" stroke="black" points="859.608,-0.5 859.608,-19.5 959.608,-19.5 959.608,-0.5 859.608,-0.5"/>
<text text-anchor="middle" x="909.608" y="-7.5" font-family="Helvetica,sans-Serif" font-size="10.00">odp/visibility_end.h</text>
</a>
</g>
</g>
<!-- Node3&#45;&gt;Node6 -->
<g id="edge6" class="edge"><title>Node3&#45;&gt;Node6</title>
<path fill="none" stroke="midnightblue" d="M524.99,-62.426C535.828,-60.1625 547.653,-57.8405 558.608,-56 660.243,-38.9246 779.394,-24.9051 849.465,-17.2684"/>
<polygon fill="midnightblue" stroke="midnightblue" points="849.874,-20.7447 859.439,-16.1884 849.121,-13.7854 849.874,-20.7447"/>
</g>
<!-- Node12&#45;&gt;Node4 -->
<g id="edge13" class="edge"><title>Node12&#45;&gt;Node4</title>
<path fill="none" stroke="midnightblue" d="M652.461,-604.203C867.594,-601.216 1563.25,-589.322 1600.61,-560 1624.28,-541.417 1619.61,-525.098 1619.61,-495 1619.61,-495 1619.61,-495 1619.61,-133 1619.61,-88.7828 1594.85,-78.2012 1556.61,-56 1522.97,-36.4686 1421.23,-23.383 1353.5,-16.5722"/>
<polygon fill="midnightblue" stroke="midnightblue" points="1353.65,-13.0698 1343.35,-15.5728 1352.96,-20.0361 1353.65,-13.0698"/>
</g>
<!-- Node12&#45;&gt;Node6 -->
<g id="edge67" class="edge"><title>Node12&#45;&gt;Node6</title>
<path fill="none" stroke="midnightblue" d="M547.841,-596.432C416.669,-566.845 21.6076,-456.22 21.6076,-197 21.6076,-197 21.6076,-197 21.6076,-133 21.6076,-49.2569 649.448,-20.0871 849.29,-12.9234"/>
<polygon fill="midnightblue" stroke="midnightblue" points="849.45,-16.4201 859.321,-12.5696 849.203,-9.42442 849.45,-16.4201"/>
</g>
<!-- Node13 -->
<g id="node14" class="node"><title>Node13</title>
<g id="a_node14"><a xlink:href="deprecated_8h.html" target="_top" xlink:title="Control deprecated API definitions. ">
<polygon fill="white" stroke="black" points="1359.11,-248.5 1359.11,-267.5 1466.11,-267.5 1466.11,-248.5 1359.11,-248.5"/>
<text text-anchor="middle" x="1412.61" y="-255.5" font-family="Helvetica,sans-Serif" font-size="10.00">odp/api/deprecated.h</text>
</a>
</g>
</g>
<!-- Node12&#45;&gt;Node13 -->
<g id="edge14" class="edge"><title>Node12&#45;&gt;Node13</title>
<path fill="none" stroke="midnightblue" d="M652.16,-603.438C847.878,-597.729 1435.61,-574.008 1435.61,-495 1435.61,-495 1435.61,-495 1435.61,-381 1435.61,-343.786 1425.15,-301.275 1418.33,-277.54"/>
<polygon fill="midnightblue" stroke="midnightblue" points="1421.63,-276.358 1415.43,-267.771 1414.92,-278.354 1421.63,-276.358"/>
</g>
<!-- Node15 -->
<g id="node16" class="node"><title>Node15</title>
<g id="a_node16"><a xlink:href="packet__io__stats_8h.html" target="_top" xlink:title="ODP packet IO stats. ">
<polygon fill="white" stroke="black" points="1463.61,-540.5 1463.61,-559.5 1591.61,-559.5 1591.61,-540.5 1463.61,-540.5"/>
<text text-anchor="middle" x="1527.61" y="-547.5" font-family="Helvetica,sans-Serif" font-size="10.00">odp/api/packet_io_stats.h</text>
</a>
</g>
</g>
<!-- Node12&#45;&gt;Node15 -->
<g id="edge18" class="edge"><title>Node12&#45;&gt;Node15</title>
<path fill="none" stroke="midnightblue" d="M652.285,-603.066C794.341,-598.387 1151.63,-584.962 1449.61,-560 1450.73,-559.906 1451.86,-559.809 1452.99,-559.709"/>
<polygon fill="midnightblue" stroke="midnightblue" points="1453.74,-563.155 1463.37,-558.735 1453.08,-556.185 1453.74,-563.155"/>
</g>
<!-- Node17 -->
<g id="node18" class="node"><title>Node17</title>
<g id="a_node18"><a xlink:href="api_2queue_8h.html" target="_top" xlink:title="ODP queue. ">
<polygon fill="white" stroke="black" points="510.608,-540.5 510.608,-559.5 596.608,-559.5 596.608,-540.5 510.608,-540.5"/>
<text text-anchor="middle" x="553.608" y="-547.5" font-family="Helvetica,sans-Serif" font-size="10.00">odp/api/queue.h</text>
</a>
</g>
</g>
<!-- Node12&#45;&gt;Node17 -->
<g id="edge22" class="edge"><title>Node12&#45;&gt;Node17</title>
<path fill="none" stroke="midnightblue" d="M583.663,-596.083C578.63,-588.534 571.271,-577.495 565.094,-568.23"/>
<polygon fill="midnightblue" stroke="midnightblue" points="567.901,-566.13 559.442,-559.751 562.077,-570.013 567.901,-566.13"/>
</g>
<!-- Node23 -->
<g id="node24" class="node"><title>Node23</title>
<g id="a_node24"><a xlink:href="api_2packet_8h.html" target="_top" xlink:title="ODP packet descriptor. ">
<polygon fill="white" stroke="black" points="545.108,-310.5 545.108,-329.5 634.108,-329.5 634.108,-310.5 545.108,-310.5"/>
<text text-anchor="middle" x="589.608" y="-317.5" font-family="Helvetica,sans-Serif" font-size="10.00">odp/api/packet.h</text>
</a>
</g>
</g>
<!-- Node12&#45;&gt;Node23 -->
<g id="edge66" class="edge"><title>Node12&#45;&gt;Node23</title>
<path fill="none" stroke="midnightblue" d="M594.328,-596.456C603.881,-578.337 624.608,-534.48 624.608,-495 624.608,-495 624.608,-495 624.608,-437 624.608,-401.044 609.004,-361.389 598.634,-339.004"/>
<polygon fill="midnightblue" stroke="midnightblue" points="601.672,-337.246 594.183,-329.751 595.364,-340.28 601.672,-337.246"/>
</g>
<!-- Node25 -->
<g id="node26" class="node"><title>Node25</title>
<g id="a_node26"><a xlink:href="api_2time_8h.html" target="_top" xlink:title="ODP time. ">
<polygon fill="white" stroke="black" points="550.608,-186.5 550.608,-205.5 628.608,-205.5 628.608,-186.5 550.608,-186.5"/>
<text text-anchor="middle" x="589.608" y="-193.5" font-family="Helvetica,sans-Serif" font-size="10.00">odp/api/time.h</text>
</a>
</g>
</g>
<!-- Node12&#45;&gt;Node25 -->
<g id="edge65" class="edge"><title>Node12&#45;&gt;Node25</title>
<path fill="none" stroke="midnightblue" d="M568.7,-596.431C550.217,-588.374 522.953,-575.286 501.608,-560 492.137,-553.218 205.147,-278.728 200.608,-268 197.144,-259.814 194.745,-254.681 200.608,-248 222.708,-222.813 440.689,-206.213 540.346,-199.881"/>
<polygon fill="midnightblue" stroke="midnightblue" points="540.706,-203.365 550.468,-199.247 540.269,-196.379 540.706,-203.365"/>
</g>
<!-- Node14 -->
<g id="node15" class="node"><title>Node14</title>
<g id="a_node15"><a xlink:href="spec_2deprecated_8h.html" target="_top" xlink:title="Macro for deprecated API definitions. ">
<polygon fill="white" stroke="black" points="1224.11,-62.5 1224.11,-81.5 1355.11,-81.5 1355.11,-62.5 1224.11,-62.5"/>
<text text-anchor="middle" x="1289.61" y="-69.5" font-family="Helvetica,sans-Serif" font-size="10.00">odp/api/spec/deprecated.h</text>
</a>
</g>
</g>
<!-- Node13&#45;&gt;Node14 -->
<g id="edge15" class="edge"><title>Node13&#45;&gt;Node14</title>
<path fill="none" stroke="midnightblue" d="M1406.68,-248.125C1387.48,-219.404 1326.8,-128.632 1301.19,-90.3247"/>
<polygon fill="midnightblue" stroke="midnightblue" points="1303.95,-88.1541 1295.48,-81.7857 1298.13,-92.0443 1303.95,-88.1541"/>
</g>
<!-- Node14&#45;&gt;Node4 -->
<g id="edge16" class="edge"><title>Node14&#45;&gt;Node4</title>
<path fill="none" stroke="midnightblue" d="M1289.61,-62.4035C1289.61,-53.9381 1289.61,-40.7283 1289.61,-29.8199"/>
<polygon fill="midnightblue" stroke="midnightblue" points="1293.11,-29.5806 1289.61,-19.5806 1286.11,-29.5806 1293.11,-29.5806"/>
</g>
<!-- Node14&#45;&gt;Node6 -->
<g id="edge17" class="edge"><title>Node14&#45;&gt;Node6</title>
<path fill="none" stroke="midnightblue" d="M1235.57,-62.4672C1165.31,-51.3741 1042.97,-32.0574 969.813,-20.5062"/>
<polygon fill="midnightblue" stroke="midnightblue" points="970.251,-17.032 959.827,-18.9294 969.159,-23.9463 970.251,-17.032"/>
</g>
<!-- Node16 -->
<g id="node17" class="node"><title>Node16</title>
<g id="a_node17"><a xlink:href="spec_2packet__io__stats_8h.html" target="_top" xlink:title="ODP Packet IO. ">
<polygon fill="white" stroke="black" points="1373.61,-57 1373.61,-87 1477.61,-87 1477.61,-57 1373.61,-57"/>
<text text-anchor="start" x="1381.61" y="-75" font-family="Helvetica,sans-Serif" font-size="10.00">odp/api/spec/packet</text>
<text text-anchor="middle" x="1425.61" y="-64" font-family="Helvetica,sans-Serif" font-size="10.00">_io_stats.h</text>
</a>
</g>
</g>
<!-- Node15&#45;&gt;Node16 -->
<g id="edge19" class="edge"><title>Node15&#45;&gt;Node16</title>
<path fill="none" stroke="midnightblue" d="M1533.59,-540.328C1545.4,-522.318 1570.61,-479.189 1570.61,-439 1570.61,-439 1570.61,-439 1570.61,-319 1570.61,-224.223 1489.74,-133.809 1448.79,-94.0993"/>
<polygon fill="midnightblue" stroke="midnightblue" points="1451.06,-91.4259 1441.4,-87.0657 1446.23,-96.4958 1451.06,-91.4259"/>
</g>
<!-- Node16&#45;&gt;Node4 -->
<g id="edge20" class="edge"><title>Node16&#45;&gt;Node4</title>
<path fill="none" stroke="midnightblue" d="M1393.72,-56.9327C1370.88,-46.8552 1340.38,-33.3986 1318.3,-23.6575"/>
<polygon fill="midnightblue" stroke="midnightblue" points="1319.66,-20.4343 1309.1,-19.6 1316.84,-26.8387 1319.66,-20.4343"/>
</g>
<!-- Node16&#45;&gt;Node6 -->
<g id="edge21" class="edge"><title>Node16&#45;&gt;Node6</title>
<path fill="none" stroke="midnightblue" d="M1373.28,-57.8012C1370.02,-57.1453 1366.77,-56.5373 1363.61,-56 1223.66,-32.2528 1057.16,-19.7008 969.867,-14.3074"/>
<polygon fill="midnightblue" stroke="midnightblue" points="969.816,-10.7979 959.622,-13.6849 969.391,-17.7851 969.816,-10.7979"/>
</g>
<!-- Node17&#45;&gt;Node1 -->
<g id="edge23" class="edge"><title>Node17&#45;&gt;Node1</title>
<path fill="none" stroke="midnightblue" d="M548.618,-540.49C538.518,-522.436 516.608,-478.693 516.608,-439 516.608,-439 516.608,-439 516.608,-381 516.608,-304.865 495.836,-287.791 488.608,-212 486.726,-192.269 486.353,-169.574 486.372,-153.961"/>
<polygon fill="midnightblue" stroke="midnightblue" points="489.875,-153.593 486.445,-143.569 482.875,-153.544 489.875,-153.593"/>
</g>
<!-- Node17&#45;&gt;Node7 -->
<g id="edge27" class="edge"><title>Node17&#45;&gt;Node7</title>
<path fill="none" stroke="midnightblue" d="M540.666,-540.405C529.255,-532.238 512.887,-519 502.608,-504 485.2,-478.597 478.608,-469.795 478.608,-439 478.608,-439 478.608,-439 478.608,-381 478.608,-335.19 437.443,-294.677 411.745,-273.849"/>
<polygon fill="midnightblue" stroke="midnightblue" points="413.738,-270.964 403.705,-267.561 409.426,-276.478 413.738,-270.964"/>
</g>
<!-- Node17&#45;&gt;Node11 -->
<g id="edge25" class="edge"><title>Node17&#45;&gt;Node11</title>
<path fill="none" stroke="midnightblue" d="M523.185,-540.444C490.323,-531.201 437.823,-516.436 401.633,-506.257"/>
<polygon fill="midnightblue" stroke="midnightblue" points="402.462,-502.855 391.888,-503.516 400.567,-509.593 402.462,-502.855"/>
</g>
<!-- Node18 -->
<g id="node19" class="node"><title>Node18</title>
<polygon fill="white" stroke="#bfbfbf" points="783.108,-248.5 783.108,-267.5 882.108,-267.5 882.108,-248.5 783.108,-248.5"/>
<text text-anchor="middle" x="832.608" y="-255.5" font-family="Helvetica,sans-Serif" font-size="10.00">odp/api/abi/event.h</text>
</g>
<!-- Node17&#45;&gt;Node18 -->
<g id="edge24" class="edge"><title>Node17&#45;&gt;Node18</title>
<path fill="none" stroke="midnightblue" d="M596.946,-540.663C647.312,-528.167 723.608,-499.288 723.608,-439 723.608,-439 723.608,-439 723.608,-381 723.608,-331.108 774.928,-292.243 807.14,-272.764"/>
<polygon fill="midnightblue" stroke="midnightblue" points="809.175,-275.629 816.053,-267.57 805.651,-269.581 809.175,-275.629"/>
</g>
<!-- Node19 -->
<g id="node20" class="node"><title>Node19</title>
<polygon fill="white" stroke="#bfbfbf" points="664.608,-248.5 664.608,-267.5 764.608,-267.5 764.608,-248.5 664.608,-248.5"/>
<text text-anchor="middle" x="714.608" y="-255.5" font-family="Helvetica,sans-Serif" font-size="10.00">odp/api/abi/buffer.h</text>
</g>
<!-- Node17&#45;&gt;Node19 -->
<g id="edge26" class="edge"><title>Node17&#45;&gt;Node19</title>
<path fill="none" stroke="midnightblue" d="M558.426,-540.321C580.739,-500.13 674.235,-331.721 704.854,-276.569"/>
<polygon fill="midnightblue" stroke="midnightblue" points="708.014,-278.087 709.808,-267.645 701.894,-274.689 708.014,-278.087"/>
</g>
<!-- Node20 -->
<g id="node21" class="node"><title>Node20</title>
<g id="a_node21"><a xlink:href="api_2spec_2queue_8h.html" target="_top" xlink:title="ODP queue. ">
<polygon fill="white" stroke="black" points="893.608,-484.5 893.608,-503.5 1003.61,-503.5 1003.61,-484.5 893.608,-484.5"/>
<text text-anchor="middle" x="948.608" y="-491.5" font-family="Helvetica,sans-Serif" font-size="10.00">odp/api/spec/queue.h</text>
</a>
</g>
</g>
<!-- Node17&#45;&gt;Node20 -->
<g id="edge28" class="edge"><title>Node17&#45;&gt;Node20</title>
<path fill="none" stroke="midnightblue" d="M596.632,-543.118C665.758,-533.668 802.008,-515.042 883.218,-503.939"/>
<polygon fill="midnightblue" stroke="midnightblue" points="883.893,-507.38 893.326,-502.557 882.944,-500.444 883.893,-507.38"/>
</g>
<!-- Node20&#45;&gt;Node4 -->
<g id="edge29" class="edge"><title>Node20&#45;&gt;Node4</title>
<path fill="none" stroke="midnightblue" d="M1003.95,-488.763C1132.25,-475.442 1446.04,-421.743 1537.61,-212 1565.4,-148.353 1581.03,-101.551 1528.61,-56 1502.95,-33.7019 1415,-21.6504 1353.28,-15.7777"/>
<polygon fill="midnightblue" stroke="midnightblue" points="1353.51,-12.2842 1343.23,-14.8537 1352.87,-19.2548 1353.51,-12.2842"/>
</g>
<!-- Node20&#45;&gt;Node6 -->
<g id="edge64" class="edge"><title>Node20&#45;&gt;Node6</title>
<path fill="none" stroke="midnightblue" d="M948.608,-484.442C948.608,-465.936 948.608,-420.812 948.608,-383 948.608,-383 948.608,-383 948.608,-319 948.608,-208.458 923.577,-77.3553 913.621,-29.5827"/>
<polygon fill="midnightblue" stroke="midnightblue" points="916.987,-28.5802 911.489,-19.5236 910.139,-30.0321 916.987,-28.5802"/>
</g>
<!-- Node21 -->
<g id="node22" class="node"><title>Node21</title>
<g id="a_node22"><a xlink:href="api_2event_8h.html" target="_top" xlink:title="ODP event. ">
<polygon fill="white" stroke="black" points="825.108,-428.5 825.108,-447.5 908.108,-447.5 908.108,-428.5 825.108,-428.5"/>
<text text-anchor="middle" x="866.608" y="-435.5" font-family="Helvetica,sans-Serif" font-size="10.00">odp/api/event.h</text>
</a>
</g>
</g>
<!-- Node20&#45;&gt;Node21 -->
<g id="edge30" class="edge"><title>Node20&#45;&gt;Node21</title>
<path fill="none" stroke="midnightblue" d="M935.433,-484.324C922.761,-475.979 903.374,-463.212 888.402,-453.352"/>
<polygon fill="midnightblue" stroke="midnightblue" points="890.026,-450.231 879.75,-447.655 886.176,-456.078 890.026,-450.231"/>
</g>
<!-- Node28 -->
<g id="node29" class="node"><title>Node28</title>
<g id="a_node29"><a xlink:href="queue__types_8h.html" target="_top" xlink:title="ODP queue types. ">
<polygon fill="white" stroke="black" points="1130.11,-305 1130.11,-335 1231.11,-335 1231.11,-305 1130.11,-305"/>
<text text-anchor="start" x="1138.11" y="-323" font-family="Helvetica,sans-Serif" font-size="10.00">odp/api/spec/queue</text>
<text text-anchor="middle" x="1180.61" y="-312" font-family="Helvetica,sans-Serif" font-size="10.00">_types.h</text>
</a>
</g>
</g>
<!-- Node20&#45;&gt;Node28 -->
<g id="edge51" class="edge"><title>Node20&#45;&gt;Node28</title>
<path fill="none" stroke="midnightblue" d="M960.113,-484.47C995.376,-458.327 1102.63,-378.809 1153.41,-341.165"/>
<polygon fill="midnightblue" stroke="midnightblue" points="1155.68,-343.838 1161.63,-335.071 1151.51,-338.215 1155.68,-343.838"/>
</g>
<!-- Node21&#45;&gt;Node18 -->
<g id="edge31" class="edge"><title>Node21&#45;&gt;Node18</title>
<path fill="none" stroke="midnightblue" d="M845.76,-428.427C831.03,-421.129 812.403,-409.091 803.608,-392 783.95,-353.802 806.831,-302.792 821.751,-276.424"/>
<polygon fill="midnightblue" stroke="midnightblue" points="824.89,-277.991 826.974,-267.603 818.867,-274.425 824.89,-277.991"/>
</g>
<!-- Node22 -->
<g id="node23" class="node"><title>Node22</title>
<g id="a_node23"><a xlink:href="api_2spec_2event_8h.html" target="_top" xlink:title="ODP event. ">
<polygon fill="white" stroke="black" points="813.108,-372.5 813.108,-391.5 920.108,-391.5 920.108,-372.5 813.108,-372.5"/>
<text text-anchor="middle" x="866.608" y="-379.5" font-family="Helvetica,sans-Serif" font-size="10.00">odp/api/spec/event.h</text>
</a>
</g>
</g>
<!-- Node21&#45;&gt;Node22 -->
<g id="edge32" class="edge"><title>Node21&#45;&gt;Node22</title>
<path fill="none" stroke="midnightblue" d="M866.608,-428.083C866.608,-421.006 866.608,-410.861 866.608,-401.986"/>
<polygon fill="midnightblue" stroke="midnightblue" points="870.108,-401.751 866.608,-391.751 863.108,-401.751 870.108,-401.751"/>
</g>
<!-- Node22&#45;&gt;Node4 -->
<g id="edge33" class="edge"><title>Node22&#45;&gt;Node4</title>
<path fill="none" stroke="midnightblue" d="M920.208,-379.166C1054.83,-373.353 1401.59,-350.512 1474.61,-268 1537.63,-196.782 1563.54,-129.841 1503.61,-56 1484.94,-33.0011 1409.53,-21.3206 1353.47,-15.7054"/>
<polygon fill="midnightblue" stroke="midnightblue" points="1353.54,-12.1957 1343.25,-14.7261 1352.87,-19.1638 1353.54,-12.1957"/>
</g>
<!-- Node22&#45;&gt;Node6 -->
<g id="edge50" class="edge"><title>Node22&#45;&gt;Node6</title>
<path fill="none" stroke="midnightblue" d="M869.035,-372.301C874.16,-353.469 885.995,-307.441 890.608,-268 901.556,-174.39 880.35,-149.005 895.608,-56 897.081,-47.0177 899.918,-37.344 902.655,-29.2761"/>
<polygon fill="midnightblue" stroke="midnightblue" points="905.976,-30.3828 906.072,-19.7884 899.39,-28.0107 905.976,-30.3828"/>
</g>
<!-- Node22&#45;&gt;Node23 -->
<g id="edge34" class="edge"><title>Node22&#45;&gt;Node23</title>
<path fill="none" stroke="midnightblue" d="M827.214,-372.467C777.681,-361.738 692.632,-343.316 638.855,-331.667"/>
<polygon fill="midnightblue" stroke="midnightblue" points="639.379,-328.2 628.865,-329.503 637.897,-335.041 639.379,-328.2"/>
</g>
<!-- Node23&#45;&gt;Node1 -->
<g id="edge35" class="edge"><title>Node23&#45;&gt;Node1</title>
<path fill="none" stroke="midnightblue" d="M573.323,-310.481C558.245,-301.772 536.296,-286.864 523.608,-268 499.496,-232.154 490.996,-180.85 488.076,-153.628"/>
<polygon fill="midnightblue" stroke="midnightblue" points="491.55,-153.183 487.137,-143.55 484.58,-153.832 491.55,-153.183"/>
</g>
<!-- Node23&#45;&gt;Node7 -->
<g id="edge40" class="edge"><title>Node23&#45;&gt;Node7</title>
<path fill="none" stroke="midnightblue" d="M561.239,-310.403C526.687,-299.933 468.184,-282.205 429.723,-270.55"/>
<polygon fill="midnightblue" stroke="midnightblue" points="430.509,-267.131 419.924,-267.581 428.479,-273.83 430.509,-267.131"/>
</g>
<!-- Node23&#45;&gt;Node9 -->
<g id="edge38" class="edge"><title>Node23&#45;&gt;Node9</title>
<path fill="none" stroke="midnightblue" d="M545.007,-313.516C457.656,-302.776 263.856,-278.949 163.906,-266.66"/>
<polygon fill="midnightblue" stroke="midnightblue" points="164.3,-263.182 153.948,-265.435 163.446,-270.13 164.3,-263.182"/>
</g>
<!-- Node23&#45;&gt;Node10 -->
<g id="edge37" class="edge"><title>Node23&#45;&gt;Node10</title>
<path fill="none" stroke="midnightblue" d="M544.974,-310.657C487.288,-299.875 386.844,-281.1 324.246,-269.4"/>
<polygon fill="midnightblue" stroke="midnightblue" points="324.63,-265.911 314.157,-267.514 323.344,-272.792 324.63,-265.911"/>
</g>
<!-- Node23&#45;&gt;Node18 -->
<g id="edge36" class="edge"><title>Node23&#45;&gt;Node18</title>
<path fill="none" stroke="midnightblue" d="M624.166,-310.467C667.258,-299.827 740.99,-281.622 788.223,-269.959"/>
<polygon fill="midnightblue" stroke="midnightblue" points="789.3,-273.299 798.169,-267.503 787.621,-266.503 789.3,-273.299"/>
</g>
<!-- Node23&#45;&gt;Node19 -->
<g id="edge39" class="edge"><title>Node23&#45;&gt;Node19</title>
<path fill="none" stroke="midnightblue" d="M607.517,-310.403C628.495,-300.334 663.457,-283.552 687.701,-271.915"/>
<polygon fill="midnightblue" stroke="midnightblue" points="689.231,-275.063 696.731,-267.581 686.202,-268.753 689.231,-275.063"/>
</g>
<!-- Node24 -->
<g id="node25" class="node"><title>Node24</title>
<g id="a_node25"><a xlink:href="api_2spec_2packet_8h.html" target="_top" xlink:title="ODP packet descriptor. ">
<polygon fill="white" stroke="black" points="533.108,-248.5 533.108,-267.5 646.108,-267.5 646.108,-248.5 533.108,-248.5"/>
<text text-anchor="middle" x="589.608" y="-255.5" font-family="Helvetica,sans-Serif" font-size="10.00">odp/api/spec/packet.h</text>
</a>
</g>
</g>
<!-- Node23&#45;&gt;Node24 -->
<g id="edge41" class="edge"><title>Node23&#45;&gt;Node24</title>
<path fill="none" stroke="midnightblue" d="M589.608,-310.403C589.608,-301.938 589.608,-288.728 589.608,-277.82"/>
<polygon fill="midnightblue" stroke="midnightblue" points="593.108,-277.581 589.608,-267.581 586.108,-277.581 593.108,-277.581"/>
</g>
<!-- Node24&#45;&gt;Node4 -->
<g id="edge42" class="edge"><title>Node24&#45;&gt;Node4</title>
<path fill="none" stroke="midnightblue" d="M627.17,-248.451C717.41,-227.267 952.638,-168.205 1137.61,-88 1163.91,-76.5961 1168.16,-69.2053 1193.61,-56 1215.97,-44.3939 1241.86,-32.3345 1261.12,-23.6243"/>
<polygon fill="midnightblue" stroke="midnightblue" points="1262.57,-26.8071 1270.26,-19.5147 1259.7,-20.4224 1262.57,-26.8071"/>
</g>
<!-- Node24&#45;&gt;Node6 -->
<g id="edge49" class="edge"><title>Node24&#45;&gt;Node6</title>
<path fill="none" stroke="midnightblue" d="M600.321,-248.423C610.61,-239.866 626.227,-226.007 637.608,-212 688.798,-148.997 667.32,-104.243 732.608,-56 766.405,-31.0256 812.651,-19.8492 849.396,-14.8778"/>
<polygon fill="midnightblue" stroke="midnightblue" points="849.992,-18.3308 859.489,-13.6338 849.136,-11.3834 849.992,-18.3308"/>
</g>
<!-- Node24&#45;&gt;Node25 -->
<g id="edge43" class="edge"><title>Node24&#45;&gt;Node25</title>
<path fill="none" stroke="midnightblue" d="M589.608,-248.403C589.608,-239.938 589.608,-226.728 589.608,-215.82"/>
<polygon fill="midnightblue" stroke="midnightblue" points="593.108,-215.581 589.608,-205.581 586.108,-215.581 593.108,-215.581"/>
</g>
<!-- Node25&#45;&gt;Node1 -->
<g id="edge44" class="edge"><title>Node25&#45;&gt;Node1</title>
<path fill="none" stroke="midnightblue" d="M574.85,-186.403C557.947,-176.557 530.025,-160.291 510.117,-148.695"/>
<polygon fill="midnightblue" stroke="midnightblue" points="511.74,-145.59 501.338,-143.581 508.217,-151.638 511.74,-145.59"/>
</g>
<!-- Node26 -->
<g id="node27" class="node"><title>Node26</title>
<polygon fill="white" stroke="#bfbfbf" points="555.608,-124.5 555.608,-143.5 649.608,-143.5 649.608,-124.5 555.608,-124.5"/>
<text text-anchor="middle" x="602.608" y="-131.5" font-family="Helvetica,sans-Serif" font-size="10.00">odp/api/abi/time.h</text>
</g>
<!-- Node25&#45;&gt;Node26 -->
<g id="edge45" class="edge"><title>Node25&#45;&gt;Node26</title>
<path fill="none" stroke="midnightblue" d="M591.47,-186.403C593.324,-177.849 596.227,-164.45 598.604,-153.476"/>
<polygon fill="midnightblue" stroke="midnightblue" points="602.052,-154.095 600.749,-143.581 595.21,-152.613 602.052,-154.095"/>
</g>
<!-- Node27 -->
<g id="node28" class="node"><title>Node27</title>
<g id="a_node28"><a xlink:href="api_2spec_2time_8h.html" target="_top" xlink:title="ODP time. ">
<polygon fill="white" stroke="black" points="741.608,-62.5 741.608,-81.5 843.608,-81.5 843.608,-62.5 741.608,-62.5"/>
<text text-anchor="middle" x="792.608" y="-69.5" font-family="Helvetica,sans-Serif" font-size="10.00">odp/api/spec/time.h</text>
</a>
</g>
</g>
<!-- Node25&#45;&gt;Node27 -->
<g id="edge46" class="edge"><title>Node25&#45;&gt;Node27</title>
<path fill="none" stroke="midnightblue" d="M603.882,-186.421C638.534,-165.596 727.35,-112.219 769.604,-86.8247"/>
<polygon fill="midnightblue" stroke="midnightblue" points="771.581,-89.7205 778.349,-81.5693 767.975,-83.7206 771.581,-89.7205"/>
</g>
<!-- Node27&#45;&gt;Node4 -->
<g id="edge47" class="edge"><title>Node27&#45;&gt;Node4</title>
<path fill="none" stroke="midnightblue" d="M843.923,-64.8049C935.399,-53.7616 1126.37,-30.7073 1226.01,-18.6777"/>
<polygon fill="midnightblue" stroke="midnightblue" points="1226.44,-22.1517 1235.95,-17.4783 1225.6,-15.2021 1226.44,-22.1517"/>
</g>
<!-- Node27&#45;&gt;Node6 -->
<g id="edge48" class="edge"><title>Node27&#45;&gt;Node6</title>
<path fill="none" stroke="midnightblue" d="M809.371,-62.4035C828.832,-52.4232 861.153,-35.8487 883.818,-24.2253"/>
<polygon fill="midnightblue" stroke="midnightblue" points="885.574,-27.2582 892.875,-19.5806 882.38,-21.0294 885.574,-27.2582"/>
</g>
<!-- Node28&#45;&gt;Node4 -->
<g id="edge52" class="edge"><title>Node28&#45;&gt;Node4</title>
<path fill="none" stroke="midnightblue" d="M1216.53,-304.978C1284.44,-276.237 1429.9,-203.46 1486.61,-88 1513.75,-32.7434 1420.86,-16.8367 1353.51,-12.4388"/>
<polygon fill="midnightblue" stroke="midnightblue" points="1353.54,-8.93508 1343.36,-11.8488 1353.14,-15.9233 1353.54,-8.93508"/>
</g>
<!-- Node28&#45;&gt;Node6 -->
<g id="edge63" class="edge"><title>Node28&#45;&gt;Node6</title>
<path fill="none" stroke="midnightblue" d="M1157,-304.908C1142.06,-295.426 1122.77,-282.115 1107.61,-268 1023.28,-189.512 947.313,-72.3913 920.174,-28.4698"/>
<polygon fill="midnightblue" stroke="midnightblue" points="923.078,-26.5102 914.872,-19.8089 917.108,-30.165 923.078,-26.5102"/>
</g>
<!-- Node28&#45;&gt;Node13 -->
<g id="edge62" class="edge"><title>Node28&#45;&gt;Node13</title>
<path fill="none" stroke="midnightblue" d="M1231.23,-305.907C1272.69,-295.186 1330.69,-280.187 1369.84,-270.06"/>
<polygon fill="midnightblue" stroke="midnightblue" points="1370.81,-273.424 1379.62,-267.532 1369.06,-266.647 1370.81,-273.424"/>
</g>
<!-- Node29 -->
<g id="node30" class="node"><title>Node29</title>
<g id="a_node30"><a xlink:href="api_2schedule__types_8h.html" target="_top" xlink:title="ODP schedule. ">
<polygon fill="white" stroke="black" points="1116.61,-248.5 1116.61,-267.5 1244.61,-267.5 1244.61,-248.5 1116.61,-248.5"/>
<text text-anchor="middle" x="1180.61" y="-255.5" font-family="Helvetica,sans-Serif" font-size="10.00">odp/api/schedule_types.h</text>
</a>
</g>
</g>
<!-- Node28&#45;&gt;Node29 -->
<g id="edge53" class="edge"><title>Node28&#45;&gt;Node29</title>
<path fill="none" stroke="midnightblue" d="M1180.61,-304.781C1180.61,-296.781 1180.61,-286.689 1180.61,-278.017"/>
<polygon fill="midnightblue" stroke="midnightblue" points="1184.11,-277.73 1180.61,-267.731 1177.11,-277.731 1184.11,-277.73"/>
</g>
<!-- Node30 -->
<g id="node31" class="node"><title>Node30</title>
<polygon fill="white" stroke="#bfbfbf" points="1207.61,-181 1207.61,-211 1313.61,-211 1313.61,-181 1207.61,-181"/>
<text text-anchor="start" x="1215.61" y="-199" font-family="Helvetica,sans-Serif" font-size="10.00">odp/api/abi/schedule</text>
<text text-anchor="middle" x="1260.61" y="-188" font-family="Helvetica,sans-Serif" font-size="10.00">_types.h</text>
</g>
<!-- Node29&#45;&gt;Node30 -->
<g id="edge54" class="edge"><title>Node29&#45;&gt;Node30</title>
<path fill="none" stroke="midnightblue" d="M1192.07,-248.403C1202.9,-240.277 1219.57,-227.779 1233.75,-217.142"/>
<polygon fill="midnightblue" stroke="midnightblue" points="1235.85,-219.941 1241.75,-211.141 1231.65,-214.341 1235.85,-219.941"/>
</g>
<!-- Node31 -->
<g id="node32" class="node"><title>Node31</title>
<g id="a_node32"><a xlink:href="api_2spec_2schedule__types_8h.html" target="_top" xlink:title="ODP schedule types. ">
<polygon fill="white" stroke="black" points="1075.61,-181 1075.61,-211 1189.61,-211 1189.61,-181 1075.61,-181"/>
<text text-anchor="start" x="1083.61" y="-199" font-family="Helvetica,sans-Serif" font-size="10.00">odp/api/spec/schedule</text>
<text text-anchor="middle" x="1132.61" y="-188" font-family="Helvetica,sans-Serif" font-size="10.00">_types.h</text>
</a>
</g>
</g>
<!-- Node29&#45;&gt;Node31 -->
<g id="edge55" class="edge"><title>Node29&#45;&gt;Node31</title>
<path fill="none" stroke="midnightblue" d="M1173.73,-248.403C1167.65,-240.809 1158.52,-229.396 1150.41,-219.252"/>
<polygon fill="midnightblue" stroke="midnightblue" points="1152.9,-216.763 1143.92,-211.141 1147.43,-221.136 1152.9,-216.763"/>
</g>
<!-- Node31&#45;&gt;Node4 -->
<g id="edge56" class="edge"><title>Node31&#45;&gt;Node4</title>
<path fill="none" stroke="midnightblue" d="M1146.98,-180.771C1156.27,-171.028 1168.16,-157.477 1176.61,-144 1199.23,-107.9 1186.55,-88.0562 1214.61,-56 1226.59,-42.3156 1243.77,-31.5862 1258.67,-24.0419"/>
<polygon fill="midnightblue" stroke="midnightblue" points="1260.55,-27.0233 1268.05,-19.5452 1257.52,-20.7108 1260.55,-27.0233"/>
</g>
<!-- Node31&#45;&gt;Node6 -->
<g id="edge61" class="edge"><title>Node31&#45;&gt;Node6</title>
<path fill="none" stroke="midnightblue" d="M1113.94,-180.931C1100.63,-170.81 1082.37,-156.753 1066.61,-144 1039.6,-122.144 962.993,-56.7159 927.753,-26.5483"/>
<polygon fill="midnightblue" stroke="midnightblue" points="929.612,-23.5325 919.74,-19.6863 925.059,-28.8493 929.612,-23.5325"/>
</g>
<!-- Node32 -->
<g id="node33" class="node"><title>Node32</title>
<g id="a_node33"><a xlink:href="support_8h.html" target="_top" xlink:title="ODP support API &#45; platform specific header. ">
<polygon fill="white" stroke="black" points="1075.61,-124.5 1075.61,-143.5 1167.61,-143.5 1167.61,-124.5 1075.61,-124.5"/>
<text text-anchor="middle" x="1121.61" y="-131.5" font-family="Helvetica,sans-Serif" font-size="10.00">odp/api/support.h</text>
</a>
</g>
</g>
<!-- Node31&#45;&gt;Node32 -->
<g id="edge57" class="edge"><title>Node31&#45;&gt;Node32</title>
<path fill="none" stroke="midnightblue" d="M1130,-180.781C1128.52,-172.691 1126.64,-162.462 1125.04,-153.725"/>
<polygon fill="midnightblue" stroke="midnightblue" points="1128.45,-152.935 1123.21,-143.731 1121.57,-154.198 1128.45,-152.935"/>
</g>
<!-- Node33 -->
<g id="node34" class="node"><title>Node33</title>
<g id="a_node34"><a xlink:href="spec_2support_8h.html" target="_top" xlink:title="ODP support API. ">
<polygon fill="white" stroke="black" points="1013.61,-62.5 1013.61,-81.5 1129.61,-81.5 1129.61,-62.5 1013.61,-62.5"/>
<text text-anchor="middle" x="1071.61" y="-69.5" font-family="Helvetica,sans-Serif" font-size="10.00">odp/api/spec/support.h</text>
</a>
</g>
</g>
<!-- Node32&#45;&gt;Node33 -->
<g id="edge58" class="edge"><title>Node32&#45;&gt;Node33</title>
<path fill="none" stroke="midnightblue" d="M1114.44,-124.403C1106.87,-115.314 1094.74,-100.756 1085.32,-89.4489"/>
<polygon fill="midnightblue" stroke="midnightblue" points="1087.85,-87.0222 1078.76,-81.5806 1082.47,-91.5035 1087.85,-87.0222"/>
</g>
<!-- Node33&#45;&gt;Node4 -->
<g id="edge59" class="edge"><title>Node33&#45;&gt;Node4</title>
<path fill="none" stroke="midnightblue" d="M1102.84,-62.4035C1141.21,-51.844 1206.39,-33.9027 1248.72,-22.2538"/>
<polygon fill="midnightblue" stroke="midnightblue" points="1249.72,-25.6088 1258.43,-19.5806 1247.86,-18.8598 1249.72,-25.6088"/>
</g>
<!-- Node33&#45;&gt;Node6 -->
<g id="edge60" class="edge"><title>Node33&#45;&gt;Node6</title>
<path fill="none" stroke="midnightblue" d="M1048.4,-62.4035C1020.61,-52.1113 973.885,-34.8064 942.414,-23.1504"/>
<polygon fill="midnightblue" stroke="midnightblue" points="943.368,-19.7717 932.775,-19.5806 940.937,-26.3359 943.368,-19.7717"/>
</g>
</g>
</svg>
