<?xml version="1.0" encoding="UTF-8" standalone="no"?>
<!DOCTYPE svg PUBLIC "-//W3C//DTD SVG 1.1//EN"
 "http://www.w3.org/Graphics/SVG/1.1/DTD/svg11.dtd">
<!-- Generated by graphviz version 2.36.0 (20140111.2315)
 -->
<!-- Title: pool.h Pages: 1 -->
<svg width="612pt" height="264pt"
 viewBox="0.00 0.00 612.00 264.00" xmlns="http://www.w3.org/2000/svg" xmlns:xlink="http://www.w3.org/1999/xlink">
<g id="graph0" class="graph" transform="scale(1 1) rotate(0) translate(4 260)">
<title>pool.h</title>
<polygon fill="white" stroke="none" points="-4,4 -4,-260 608,-260 608,4 -4,4"/>
<!-- Node0 -->
<g id="node1" class="node"><title>Node0</title>
<polygon fill="#bfbfbf" stroke="black" points="195.5,-236.5 195.5,-255.5 238.5,-255.5 238.5,-236.5 195.5,-236.5"/>
<text text-anchor="middle" x="217" y="-243.5" font-family="Helvetica,sans-Serif" font-size="10.00">pool.h</text>
</g>
<!-- Node1 -->
<g id="node2" class="node"><title>Node1</title>
<polygon fill="white" stroke="#bfbfbf" points="-0.5,-174.5 -0.5,-193.5 92.5,-193.5 92.5,-174.5 -0.5,-174.5"/>
<text text-anchor="middle" x="46" y="-181.5" font-family="Helvetica,sans-Serif" font-size="10.00">odp/api/abi/pool.h</text>
</g>
<!-- Node0&#45;&gt;Node1 -->
<g id="edge1" class="edge"><title>Node0&#45;&gt;Node1</title>
<path fill="none" stroke="midnightblue" d="M195.343,-237.401C166.223,-227.184 114.15,-208.912 79.8366,-196.872"/>
<polygon fill="midnightblue" stroke="midnightblue" points="80.8284,-193.511 70.2336,-193.503 78.5108,-200.117 80.8284,-193.511"/>
</g>
<!-- Node2 -->
<g id="node3" class="node"><title>Node2</title>
<polygon fill="white" stroke="#bfbfbf" points="111,-169 111,-199 207,-199 207,-169 111,-169"/>
<text text-anchor="start" x="119" y="-187" font-family="Helvetica,sans-Serif" font-size="10.00">odp/api/abi/shared</text>
<text text-anchor="middle" x="159" y="-176" font-family="Helvetica,sans-Serif" font-size="10.00">_memory.h</text>
</g>
<!-- Node0&#45;&gt;Node2 -->
<g id="edge2" class="edge"><title>Node0&#45;&gt;Node2</title>
<path fill="none" stroke="midnightblue" d="M208.69,-236.403C201.128,-228.581 189.651,-216.708 179.631,-206.342"/>
<polygon fill="midnightblue" stroke="midnightblue" points="182.136,-203.898 172.669,-199.141 177.103,-208.763 182.136,-203.898"/>
</g>
<!-- Node3 -->
<g id="node4" class="node"><title>Node3</title>
<polygon fill="white" stroke="#bfbfbf" points="225.5,-174.5 225.5,-193.5 324.5,-193.5 324.5,-174.5 225.5,-174.5"/>
<text text-anchor="middle" x="275" y="-181.5" font-family="Helvetica,sans-Serif" font-size="10.00">odp/api/abi/event.h</text>
</g>
<!-- Node0&#45;&gt;Node3 -->
<g id="edge3" class="edge"><title>Node0&#45;&gt;Node3</title>
<path fill="none" stroke="midnightblue" d="M225.31,-236.403C234.268,-227.136 248.723,-212.183 259.739,-200.788"/>
<polygon fill="midnightblue" stroke="midnightblue" points="262.272,-203.203 266.705,-193.581 257.239,-198.338 262.272,-203.203"/>
</g>
<!-- Node4 -->
<g id="node5" class="node"><title>Node4</title>
<g id="a_node5"><a xlink:href="api_2spec_2pool_8h.html" target="_top" xlink:title="ODP pool. ">
<polygon fill="white" stroke="black" points="342.5,-174.5 342.5,-193.5 443.5,-193.5 443.5,-174.5 342.5,-174.5"/>
<text text-anchor="middle" x="393" y="-181.5" font-family="Helvetica,sans-Serif" font-size="10.00">odp/api/spec/pool.h</text>
</a>
</g>
</g>
<!-- Node0&#45;&gt;Node4 -->
<g id="edge4" class="edge"><title>Node0&#45;&gt;Node4</title>
<path fill="none" stroke="midnightblue" d="M238.581,-237.643C268.45,-227.46 322.728,-208.957 358.322,-196.822"/>
<polygon fill="midnightblue" stroke="midnightblue" points="359.495,-200.12 367.83,-193.581 357.236,-193.495 359.495,-200.12"/>
</g>
<!-- Node5 -->
<g id="node6" class="node"><title>Node5</title>
<g id="a_node6"><a xlink:href="visibility__begin_8h_source.html" target="_top" xlink:title="odp/visibility_begin.h">
<polygon fill="white" stroke="black" points="247.5,-0.5 247.5,-19.5 354.5,-19.5 354.5,-0.5 247.5,-0.5"/>
<text text-anchor="middle" x="301" y="-7.5" font-family="Helvetica,sans-Serif" font-size="10.00">odp/visibility_begin.h</text>
</a>
</g>
</g>
<!-- Node4&#45;&gt;Node5 -->
<g id="edge5" class="edge"><title>Node4&#45;&gt;Node5</title>
<path fill="none" stroke="midnightblue" d="M372.738,-174.496C340.757,-159.815 279.679,-126.364 255,-76 245.883,-57.3939 263.207,-38.2949 279.138,-25.6573"/>
<polygon fill="midnightblue" stroke="midnightblue" points="281.253,-28.4465 287.194,-19.6745 277.079,-22.8267 281.253,-28.4465"/>
</g>
<!-- Node6 -->
<g id="node7" class="node"><title>Node6</title>
<g id="a_node7"><a xlink:href="api_2std__types_8h.html" target="_top" xlink:title="Standard C language types and definitions for ODP. ">
<polygon fill="white" stroke="black" points="342,-112.5 342,-131.5 444,-131.5 444,-112.5 342,-112.5"/>
<text text-anchor="middle" x="393" y="-119.5" font-family="Helvetica,sans-Serif" font-size="10.00">odp/api/std_types.h</text>
</a>
</g>
</g>
<!-- Node4&#45;&gt;Node6 -->
<g id="edge6" class="edge"><title>Node4&#45;&gt;Node6</title>
<path fill="none" stroke="midnightblue" d="M393,-174.403C393,-165.938 393,-152.728 393,-141.82"/>
<polygon fill="midnightblue" stroke="midnightblue" points="396.5,-141.581 393,-131.581 389.5,-141.581 396.5,-141.581"/>
</g>
<!-- Node10 -->
<g id="node11" class="node"><title>Node10</title>
<g id="a_node11"><a xlink:href="visibility__end_8h_source.html" target="_top" xlink:title="odp/visibility_end.h">
<polygon fill="white" stroke="black" points="504,-0.5 504,-19.5 604,-19.5 604,-0.5 504,-0.5"/>
<text text-anchor="middle" x="554" y="-7.5" font-family="Helvetica,sans-Serif" font-size="10.00">odp/visibility_end.h</text>
</a>
</g>
</g>
<!-- Node4&#45;&gt;Node10 -->
<g id="edge12" class="edge"><title>Node4&#45;&gt;Node10</title>
<path fill="none" stroke="midnightblue" d="M410.751,-174.467C440.891,-159.068 502.007,-123.741 535,-76 544.504,-62.2476 549.312,-43.72 551.708,-29.9641"/>
<polygon fill="midnightblue" stroke="midnightblue" points="555.22,-30.1426 553.205,-19.7411 548.293,-29.1289 555.22,-30.1426"/>
</g>
<!-- Node7 -->
<g id="node8" class="node"><title>Node7</title>
<polygon fill="white" stroke="#bfbfbf" points="264,-56.5 264,-75.5 382,-75.5 382,-56.5 264,-56.5"/>
<text text-anchor="middle" x="323" y="-63.5" font-family="Helvetica,sans-Serif" font-size="10.00">odp/api/abi/std_types.h</text>
</g>
<!-- Node6&#45;&gt;Node7 -->
<g id="edge7" class="edge"><title>Node6&#45;&gt;Node7</title>
<path fill="none" stroke="midnightblue" d="M381.753,-112.324C371.203,-104.185 355.199,-91.8395 342.558,-82.0874"/>
<polygon fill="midnightblue" stroke="midnightblue" points="344.507,-79.1707 334.451,-75.8339 340.231,-84.7132 344.507,-79.1707"/>
</g>
<!-- Node8 -->
<g id="node9" class="node"><title>Node8</title>
<g id="a_node9"><a xlink:href="api_2spec_2std__types_8h.html" target="_top" xlink:title="Standard C language types and definitions for ODP. ">
<polygon fill="white" stroke="black" points="400,-56.5 400,-75.5 526,-75.5 526,-56.5 400,-56.5"/>
<text text-anchor="middle" x="463" y="-63.5" font-family="Helvetica,sans-Serif" font-size="10.00">odp/api/spec/std_types.h</text>
</a>
</g>
</g>
<!-- Node6&#45;&gt;Node8 -->
<g id="edge8" class="edge"><title>Node6&#45;&gt;Node8</title>
<path fill="none" stroke="midnightblue" d="M404.247,-112.324C414.797,-104.185 430.801,-91.8395 443.442,-82.0874"/>
<polygon fill="midnightblue" stroke="midnightblue" points="445.769,-84.7132 451.549,-75.8339 441.493,-79.1707 445.769,-84.7132"/>
</g>
<!-- Node8&#45;&gt;Node5 -->
<g id="edge9" class="edge"><title>Node8&#45;&gt;Node5</title>
<path fill="none" stroke="midnightblue" d="M437.331,-56.4435C410.077,-47.3591 366.816,-32.9388 336.349,-22.7831"/>
<polygon fill="midnightblue" stroke="midnightblue" points="337.143,-19.3584 326.549,-19.5164 334.929,-25.9992 337.143,-19.3584"/>
</g>
<!-- Node9 -->
<g id="node10" class="node"><title>Node9</title>
<polygon fill="white" stroke="#bfbfbf" points="436.5,-0.5 436.5,-19.5 485.5,-19.5 485.5,-0.5 436.5,-0.5"/>
<text text-anchor="middle" x="461" y="-7.5" font-family="Helvetica,sans-Serif" font-size="10.00">stdint.h</text>
</g>
<!-- Node8&#45;&gt;Node9 -->
<g id="edge10" class="edge"><title>Node8&#45;&gt;Node9</title>
<path fill="none" stroke="midnightblue" d="M462.67,-56.083C462.408,-49.0059 462.032,-38.8611 461.703,-29.9865"/>
<polygon fill="midnightblue" stroke="midnightblue" points="465.192,-29.6147 461.324,-19.7511 458.197,-29.8738 465.192,-29.6147"/>
</g>
<!-- Node8&#45;&gt;Node10 -->
<g id="edge11" class="edge"><title>Node8&#45;&gt;Node10</title>
<path fill="none" stroke="midnightblue" d="M477.621,-56.324C491.949,-47.8215 514.013,-34.7288 530.749,-24.7975"/>
<polygon fill="midnightblue" stroke="midnightblue" points="532.602,-27.7677 539.416,-19.6545 529.03,-21.7478 532.602,-27.7677"/>
</g>
</g>
</svg>
