<?xml version="1.0" encoding="UTF-8" standalone="no"?>
<!DOCTYPE svg PUBLIC "-//W3C//DTD SVG 1.1//EN"
 "http://www.w3.org/Graphics/SVG/1.1/DTD/svg11.dtd">
<!-- Generated by graphviz version 2.36.0 (20140111.2315)
 -->
<!-- Title: debug.h Pages: 1 -->
<svg width="476pt" height="252pt"
 viewBox="0.00 0.00 476.00 252.00" xmlns="http://www.w3.org/2000/svg" xmlns:xlink="http://www.w3.org/1999/xlink">
<g id="graph0" class="graph" transform="scale(1 1) rotate(0) translate(4 248)">
<title>debug.h</title>
<polygon fill="white" stroke="none" points="-4,4 -4,-248 472,-248 472,4 -4,4"/>
<!-- Node1 -->
<g id="node1" class="node"><title>Node1</title>
<polygon fill="#bfbfbf" stroke="black" points="206.5,-224.5 206.5,-243.5 257.5,-243.5 257.5,-224.5 206.5,-224.5"/>
<text text-anchor="middle" x="232" y="-231.5" font-family="Helvetica,sans-Serif" font-size="10.00">debug.h</text>
</g>
<!-- Node2 -->
<g id="node2" class="node"><title>Node2</title>
<g id="a_node2"><a xlink:href="arch_2arm32-linux_2odp_2api_2abi_2debug_8h_source.html" target="_top" xlink:title="debug.h">
<polygon fill="white" stroke="black" points="-0.5,-168.5 -0.5,-187.5 50.5,-187.5 50.5,-168.5 -0.5,-168.5"/>
<text text-anchor="middle" x="25" y="-175.5" font-family="Helvetica,sans-Serif" font-size="10.00">debug.h</text>
</a>
</g>
</g>
<!-- Node1&#45;&gt;Node2 -->
<g id="edge1" class="edge"><title>Node1&#45;&gt;Node2</title>
<path fill="none" stroke="midnightblue" d="M196.516,-223.743C155.08,-212.934 87.5422,-195.315 50.7973,-185.73"/>
<polygon fill="midnightblue" stroke="midnightblue" points="195.642,-227.132 206.202,-226.27 197.409,-220.359 195.642,-227.132"/>
</g>
<!-- Node3 -->
<g id="node3" class="node"><title>Node3</title>
<g id="a_node3"><a xlink:href="arch_2arm64-linux_2odp_2api_2abi_2debug_8h_source.html" target="_top" xlink:title="debug.h">
<polygon fill="white" stroke="black" points="68.5,-168.5 68.5,-187.5 119.5,-187.5 119.5,-168.5 68.5,-168.5"/>
<text text-anchor="middle" x="94" y="-175.5" font-family="Helvetica,sans-Serif" font-size="10.00">debug.h</text>
</a>
</g>
</g>
<!-- Node1&#45;&gt;Node3 -->
<g id="edge2" class="edge"><title>Node1&#45;&gt;Node3</title>
<path fill="none" stroke="midnightblue" d="M200.751,-220.772C174.829,-210.629 138.638,-196.467 115.764,-187.516"/>
<polygon fill="midnightblue" stroke="midnightblue" points="199.546,-224.059 210.133,-224.444 202.096,-217.54 199.546,-224.059"/>
</g>
<!-- Node4 -->
<g id="node4" class="node"><title>Node4</title>
<g id="a_node4"><a xlink:href="arch_2default-linux_2odp_2api_2abi_2debug_8h_source.html" target="_top" xlink:title="debug.h">
<polygon fill="white" stroke="black" points="137.5,-168.5 137.5,-187.5 188.5,-187.5 188.5,-168.5 137.5,-168.5"/>
<text text-anchor="middle" x="163" y="-175.5" font-family="Helvetica,sans-Serif" font-size="10.00">debug.h</text>
</a>
</g>
</g>
<!-- Node1&#45;&gt;Node4 -->
<g id="edge3" class="edge"><title>Node1&#45;&gt;Node4</title>
<path fill="none" stroke="midnightblue" d="M212.962,-218.101C200.544,-208.382 184.757,-196.027 174.288,-187.834"/>
<polygon fill="midnightblue" stroke="midnightblue" points="210.882,-220.917 220.914,-224.324 215.196,-215.405 210.882,-220.917"/>
</g>
<!-- Node5 -->
<g id="node5" class="node"><title>Node5</title>
<g id="a_node5"><a xlink:href="arch_2mips64-linux_2odp_2api_2abi_2debug_8h_source.html" target="_top" xlink:title="debug.h">
<polygon fill="white" stroke="black" points="206.5,-168.5 206.5,-187.5 257.5,-187.5 257.5,-168.5 206.5,-168.5"/>
<text text-anchor="middle" x="232" y="-175.5" font-family="Helvetica,sans-Serif" font-size="10.00">debug.h</text>
</a>
</g>
</g>
<!-- Node1&#45;&gt;Node5 -->
<g id="edge4" class="edge"><title>Node1&#45;&gt;Node5</title>
<path fill="none" stroke="midnightblue" d="M232,-213.805C232,-204.91 232,-194.78 232,-187.751"/>
<polygon fill="midnightblue" stroke="midnightblue" points="228.5,-214.083 232,-224.083 235.5,-214.083 228.5,-214.083"/>
</g>
<!-- Node6 -->
<g id="node6" class="node"><title>Node6</title>
<g id="a_node6"><a xlink:href="arch_2power64-linux_2odp_2api_2abi_2debug_8h_source.html" target="_top" xlink:title="debug.h">
<polygon fill="white" stroke="black" points="275.5,-168.5 275.5,-187.5 326.5,-187.5 326.5,-168.5 275.5,-168.5"/>
<text text-anchor="middle" x="301" y="-175.5" font-family="Helvetica,sans-Serif" font-size="10.00">debug.h</text>
</a>
</g>
</g>
<!-- Node1&#45;&gt;Node6 -->
<g id="edge5" class="edge"><title>Node1&#45;&gt;Node6</title>
<path fill="none" stroke="midnightblue" d="M251.038,-218.101C263.456,-208.382 279.243,-196.027 289.712,-187.834"/>
<polygon fill="midnightblue" stroke="midnightblue" points="248.804,-215.405 243.086,-224.324 253.118,-220.917 248.804,-215.405"/>
</g>
<!-- Node7 -->
<g id="node7" class="node"><title>Node7</title>
<g id="a_node7"><a xlink:href="arch_2x86__32-linux_2odp_2api_2abi_2debug_8h_source.html" target="_top" xlink:title="debug.h">
<polygon fill="white" stroke="black" points="344.5,-168.5 344.5,-187.5 395.5,-187.5 395.5,-168.5 344.5,-168.5"/>
<text text-anchor="middle" x="370" y="-175.5" font-family="Helvetica,sans-Serif" font-size="10.00">debug.h</text>
</a>
</g>
</g>
<!-- Node1&#45;&gt;Node7 -->
<g id="edge6" class="edge"><title>Node1&#45;&gt;Node7</title>
<path fill="none" stroke="midnightblue" d="M263.249,-220.772C289.171,-210.629 325.362,-196.467 348.236,-187.516"/>
<polygon fill="midnightblue" stroke="midnightblue" points="261.904,-217.54 253.867,-224.444 264.454,-224.059 261.904,-217.54"/>
</g>
<!-- Node8 -->
<g id="node8" class="node"><title>Node8</title>
<g id="a_node8"><a xlink:href="arch_2x86__64-linux_2odp_2api_2abi_2debug_8h_source.html" target="_top" xlink:title="debug.h">
<polygon fill="white" stroke="black" points="413.5,-168.5 413.5,-187.5 464.5,-187.5 464.5,-168.5 413.5,-168.5"/>
<text text-anchor="middle" x="439" y="-175.5" font-family="Helvetica,sans-Serif" font-size="10.00">debug.h</text>
</a>
</g>
</g>
<!-- Node1&#45;&gt;Node8 -->
<g id="edge7" class="edge"><title>Node1&#45;&gt;Node8</title>
<path fill="none" stroke="midnightblue" d="M267.484,-223.743C308.92,-212.934 376.458,-195.315 413.203,-185.73"/>
<polygon fill="midnightblue" stroke="midnightblue" points="266.591,-220.359 257.798,-226.27 268.358,-227.132 266.591,-220.359"/>
</g>
<!-- Node9 -->
<g id="node9" class="node"><title>Node9</title>
<g id="a_node9"><a xlink:href="api_2debug_8h.html" target="_top" xlink:title="ODP debug. ">
<polygon fill="white" stroke="black" points="413.5,-112.5 413.5,-131.5 464.5,-131.5 464.5,-112.5 413.5,-112.5"/>
<text text-anchor="middle" x="439" y="-119.5" font-family="Helvetica,sans-Serif" font-size="10.00">debug.h</text>
</a>
</g>
</g>
<!-- Node8&#45;&gt;Node9 -->
<g id="edge8" class="edge"><title>Node8&#45;&gt;Node9</title>
<path fill="none" stroke="midnightblue" d="M439,-157.805C439,-148.91 439,-138.78 439,-131.751"/>
<polygon fill="midnightblue" stroke="midnightblue" points="435.5,-158.083 439,-168.083 442.5,-158.083 435.5,-158.083"/>
</g>
<!-- Node10 -->
<g id="node10" class="node"><title>Node10</title>
<g id="a_node10"><a xlink:href="odp__api_8h.html" target="_top" xlink:title="The OpenDataPlane API. ">
<polygon fill="white" stroke="black" points="409.5,-56.5 409.5,-75.5 468.5,-75.5 468.5,-56.5 409.5,-56.5"/>
<text text-anchor="middle" x="439" y="-63.5" font-family="Helvetica,sans-Serif" font-size="10.00">odp_api.h</text>
</a>
</g>
</g>
<!-- Node9&#45;&gt;Node10 -->
<g id="edge9" class="edge"><title>Node9&#45;&gt;Node10</title>
<path fill="none" stroke="midnightblue" d="M439,-101.805C439,-92.9102 439,-82.7798 439,-75.7511"/>
<polygon fill="midnightblue" stroke="midnightblue" points="435.5,-102.083 439,-112.083 442.5,-102.083 435.5,-102.083"/>
</g>
<!-- Node11 -->
<g id="node11" class="node"><title>Node11</title>
<g id="a_node11"><a xlink:href="odp_8h.html" target="_top" xlink:title="WARNING: THIS FILE IS DEPRECATED AND WILL BE REMOVED!!! ODP APPLICATIONS SHOULD NOW INCLUDE odp_api...">
<polygon fill="white" stroke="black" points="418.5,-0.5 418.5,-19.5 459.5,-19.5 459.5,-0.5 418.5,-0.5"/>
<text text-anchor="middle" x="439" y="-7.5" font-family="Helvetica,sans-Serif" font-size="10.00">odp.h</text>
</a>
</g>
</g>
<!-- Node10&#45;&gt;Node11 -->
<g id="edge10" class="edge"><title>Node10&#45;&gt;Node11</title>
<path fill="none" stroke="midnightblue" d="M439,-45.8045C439,-36.9102 439,-26.7798 439,-19.7511"/>
<polygon fill="midnightblue" stroke="midnightblue" points="435.5,-46.083 439,-56.083 442.5,-46.083 435.5,-46.083"/>
</g>
</g>
</svg>
