<?xml version="1.0" encoding="UTF-8" standalone="no"?>
<!DOCTYPE svg PUBLIC "-//W3C//DTD SVG 1.1//EN"
 "http://www.w3.org/Graphics/SVG/1.1/DTD/svg11.dtd">
<!-- Generated by graphviz version 2.36.0 (20140111.2315)
 -->
<!-- Title: spinlock_recursive.h Pages: 1 -->
<svg width="536pt" height="196pt"
 viewBox="0.00 0.00 536.00 196.00" xmlns="http://www.w3.org/2000/svg" xmlns:xlink="http://www.w3.org/1999/xlink">
<g id="graph0" class="graph" transform="scale(1 1) rotate(0) translate(4 192)">
<title>spinlock_recursive.h</title>
<polygon fill="white" stroke="none" points="-4,4 -4,-192 532,-192 532,4 -4,4"/>
<!-- Node0 -->
<g id="node1" class="node"><title>Node0</title>
<polygon fill="#bfbfbf" stroke="black" points="205,-168.5 205,-187.5 311,-187.5 311,-168.5 205,-168.5"/>
<text text-anchor="middle" x="258" y="-175.5" font-family="Helvetica,sans-Serif" font-size="10.00">spinlock_recursive.h</text>
</g>
<!-- Node1 -->
<g id="node2" class="node"><title>Node1</title>
<g id="a_node2"><a xlink:href="api_2spinlock_8h.html" target="_top" xlink:title="ODP spinlock. ">
<polygon fill="white" stroke="black" points="140.5,-112.5 140.5,-131.5 235.5,-131.5 235.5,-112.5 140.5,-112.5"/>
<text text-anchor="middle" x="188" y="-119.5" font-family="Helvetica,sans-Serif" font-size="10.00">odp/api/spinlock.h</text>
</a>
</g>
</g>
<!-- Node0&#45;&gt;Node1 -->
<g id="edge1" class="edge"><title>Node0&#45;&gt;Node1</title>
<path fill="none" stroke="midnightblue" d="M246.753,-168.324C236.203,-160.185 220.199,-147.839 207.558,-138.087"/>
<polygon fill="midnightblue" stroke="midnightblue" points="209.507,-135.171 199.451,-131.834 205.231,-140.713 209.507,-135.171"/>
</g>
<!-- Node6 -->
<g id="node7" class="node"><title>Node6</title>
<g id="a_node7"><a xlink:href="api_2std__types_8h.html" target="_top" xlink:title="Standard C language types and definitions for ODP. ">
<polygon fill="white" stroke="black" points="278,-112.5 278,-131.5 380,-131.5 380,-112.5 278,-112.5"/>
<text text-anchor="middle" x="329" y="-119.5" font-family="Helvetica,sans-Serif" font-size="10.00">odp/api/std_types.h</text>
</a>
</g>
</g>
<!-- Node0&#45;&gt;Node6 -->
<g id="edge6" class="edge"><title>Node0&#45;&gt;Node6</title>
<path fill="none" stroke="midnightblue" d="M269.407,-168.324C280.109,-160.185 296.341,-147.839 309.163,-138.087"/>
<polygon fill="midnightblue" stroke="midnightblue" points="311.544,-140.673 317.385,-131.834 307.307,-135.102 311.544,-140.673"/>
</g>
<!-- Node2 -->
<g id="node3" class="node"><title>Node2</title>
<polygon fill="white" stroke="#bfbfbf" points="-0.5,-56.5 -0.5,-75.5 110.5,-75.5 110.5,-56.5 -0.5,-56.5"/>
<text text-anchor="middle" x="55" y="-63.5" font-family="Helvetica,sans-Serif" font-size="10.00">odp/api/abi/spinlock.h</text>
</g>
<!-- Node1&#45;&gt;Node2 -->
<g id="edge2" class="edge"><title>Node1&#45;&gt;Node2</title>
<path fill="none" stroke="midnightblue" d="M166.926,-112.444C144.94,-103.517 110.266,-89.4387 85.3359,-79.3168"/>
<polygon fill="midnightblue" stroke="midnightblue" points="86.5578,-76.0355 75.9756,-75.5164 83.9244,-82.5213 86.5578,-76.0355"/>
</g>
<!-- Node3 -->
<g id="node4" class="node"><title>Node3</title>
<g id="a_node4"><a xlink:href="api_2spec_2spinlock_8h.html" target="_top" xlink:title="ODP spinlock. ">
<polygon fill="white" stroke="black" points="128.5,-56.5 128.5,-75.5 247.5,-75.5 247.5,-56.5 128.5,-56.5"/>
<text text-anchor="middle" x="188" y="-63.5" font-family="Helvetica,sans-Serif" font-size="10.00">odp/api/spec/spinlock.h</text>
</a>
</g>
</g>
<!-- Node1&#45;&gt;Node3 -->
<g id="edge3" class="edge"><title>Node1&#45;&gt;Node3</title>
<path fill="none" stroke="midnightblue" d="M188,-112.083C188,-105.006 188,-94.8611 188,-85.9865"/>
<polygon fill="midnightblue" stroke="midnightblue" points="191.5,-85.751 188,-75.7511 184.5,-85.7511 191.5,-85.751"/>
</g>
<!-- Node4 -->
<g id="node5" class="node"><title>Node4</title>
<g id="a_node5"><a xlink:href="visibility__begin_8h_source.html" target="_top" xlink:title="odp/visibility_begin.h">
<polygon fill="white" stroke="black" points="256.5,-0.5 256.5,-19.5 363.5,-19.5 363.5,-0.5 256.5,-0.5"/>
<text text-anchor="middle" x="310" y="-7.5" font-family="Helvetica,sans-Serif" font-size="10.00">odp/visibility_begin.h</text>
</a>
</g>
</g>
<!-- Node3&#45;&gt;Node4 -->
<g id="edge4" class="edge"><title>Node3&#45;&gt;Node4</title>
<path fill="none" stroke="midnightblue" d="M207.331,-56.4435C227.32,-47.5961 258.743,-33.6875 281.564,-23.5865"/>
<polygon fill="midnightblue" stroke="midnightblue" points="283.032,-26.7645 290.759,-19.5164 280.198,-20.3635 283.032,-26.7645"/>
</g>
<!-- Node5 -->
<g id="node6" class="node"><title>Node5</title>
<g id="a_node6"><a xlink:href="visibility__end_8h_source.html" target="_top" xlink:title="odp/visibility_end.h">
<polygon fill="white" stroke="black" points="138,-0.5 138,-19.5 238,-19.5 238,-0.5 138,-0.5"/>
<text text-anchor="middle" x="188" y="-7.5" font-family="Helvetica,sans-Serif" font-size="10.00">odp/visibility_end.h</text>
</a>
</g>
</g>
<!-- Node3&#45;&gt;Node5 -->
<g id="edge5" class="edge"><title>Node3&#45;&gt;Node5</title>
<path fill="none" stroke="midnightblue" d="M188,-56.083C188,-49.0059 188,-38.8611 188,-29.9865"/>
<polygon fill="midnightblue" stroke="midnightblue" points="191.5,-29.751 188,-19.7511 184.5,-29.7511 191.5,-29.751"/>
</g>
<!-- Node7 -->
<g id="node8" class="node"><title>Node7</title>
<polygon fill="white" stroke="#bfbfbf" points="410,-56.5 410,-75.5 528,-75.5 528,-56.5 410,-56.5"/>
<text text-anchor="middle" x="469" y="-63.5" font-family="Helvetica,sans-Serif" font-size="10.00">odp/api/abi/std_types.h</text>
</g>
<!-- Node6&#45;&gt;Node7 -->
<g id="edge7" class="edge"><title>Node6&#45;&gt;Node7</title>
<path fill="none" stroke="midnightblue" d="M351.183,-112.444C374.428,-103.478 411.149,-89.314 437.415,-79.1827"/>
<polygon fill="midnightblue" stroke="midnightblue" points="438.85,-82.3807 446.92,-75.5164 436.331,-75.8497 438.85,-82.3807"/>
</g>
<!-- Node8 -->
<g id="node9" class="node"><title>Node8</title>
<g id="a_node9"><a xlink:href="api_2spec_2std__types_8h.html" target="_top" xlink:title="Standard C language types and definitions for ODP. ">
<polygon fill="white" stroke="black" points="266,-56.5 266,-75.5 392,-75.5 392,-56.5 266,-56.5"/>
<text text-anchor="middle" x="329" y="-63.5" font-family="Helvetica,sans-Serif" font-size="10.00">odp/api/spec/std_types.h</text>
</a>
</g>
</g>
<!-- Node6&#45;&gt;Node8 -->
<g id="edge8" class="edge"><title>Node6&#45;&gt;Node8</title>
<path fill="none" stroke="midnightblue" d="M329,-112.083C329,-105.006 329,-94.8611 329,-85.9865"/>
<polygon fill="midnightblue" stroke="midnightblue" points="332.5,-85.751 329,-75.7511 325.5,-85.7511 332.5,-85.751"/>
</g>
<!-- Node8&#45;&gt;Node4 -->
<g id="edge9" class="edge"><title>Node8&#45;&gt;Node4</title>
<path fill="none" stroke="midnightblue" d="M325.863,-56.083C323.317,-48.8486 319.644,-38.4087 316.473,-29.3968"/>
<polygon fill="midnightblue" stroke="midnightblue" points="319.7,-28.0225 313.079,-19.7511 313.097,-30.3459 319.7,-28.0225"/>
</g>
<!-- Node8&#45;&gt;Node5 -->
<g id="edge11" class="edge"><title>Node8&#45;&gt;Node5</title>
<path fill="none" stroke="midnightblue" d="M306.658,-56.4435C283.247,-47.4776 246.264,-33.314 219.81,-23.1827"/>
<polygon fill="midnightblue" stroke="midnightblue" points="220.828,-19.8245 210.237,-19.5164 218.324,-26.3615 220.828,-19.8245"/>
</g>
<!-- Node9 -->
<g id="node10" class="node"><title>Node9</title>
<polygon fill="white" stroke="#bfbfbf" points="381.5,-0.5 381.5,-19.5 430.5,-19.5 430.5,-0.5 381.5,-0.5"/>
<text text-anchor="middle" x="406" y="-7.5" font-family="Helvetica,sans-Serif" font-size="10.00">stdint.h</text>
</g>
<!-- Node8&#45;&gt;Node9 -->
<g id="edge10" class="edge"><title>Node8&#45;&gt;Node9</title>
<path fill="none" stroke="midnightblue" d="M341.371,-56.324C353.158,-48.0577 371.132,-35.4527 385.136,-25.6322"/>
<polygon fill="midnightblue" stroke="midnightblue" points="387.482,-28.2619 393.659,-19.6545 383.462,-22.5307 387.482,-28.2619"/>
</g>
</g>
</svg>
