<?xml version="1.0" encoding="UTF-8" standalone="no"?>
<!DOCTYPE svg PUBLIC "-//W3C//DTD SVG 1.1//EN"
 "http://www.w3.org/Graphics/SVG/1.1/DTD/svg11.dtd">
<!-- Generated by graphviz version 2.36.0 (20140111.2315)
 -->
<!-- Title: std_types.h Pages: 1 -->
<svg width="300pt" height="84pt"
 viewBox="0.00 0.00 300.00 84.00" xmlns="http://www.w3.org/2000/svg" xmlns:xlink="http://www.w3.org/1999/xlink">
<g id="graph0" class="graph" transform="scale(1 1) rotate(0) translate(4 80)">
<title>std_types.h</title>
<polygon fill="white" stroke="none" points="-4,4 -4,-80 296,-80 296,4 -4,4"/>
<!-- Node0 -->
<g id="node1" class="node"><title>Node0</title>
<polygon fill="#bfbfbf" stroke="black" points="115,-56.5 115,-75.5 183,-75.5 183,-56.5 115,-56.5"/>
<text text-anchor="middle" x="149" y="-63.5" font-family="Helvetica,sans-Serif" font-size="10.00">std_types.h</text>
</g>
<!-- Node1 -->
<g id="node2" class="node"><title>Node1</title>
<g id="a_node2"><a xlink:href="visibility__begin_8h_source.html" target="_top" xlink:title="odp/visibility_begin.h">
<polygon fill="white" stroke="black" points="-0.5,-0.5 -0.5,-19.5 106.5,-19.5 106.5,-0.5 -0.5,-0.5"/>
<text text-anchor="middle" x="53" y="-7.5" font-family="Helvetica,sans-Serif" font-size="10.00">odp/visibility_begin.h</text>
</a>
</g>
</g>
<!-- Node0&#45;&gt;Node1 -->
<g id="edge1" class="edge"><title>Node0&#45;&gt;Node1</title>
<path fill="none" stroke="midnightblue" d="M133.576,-56.324C118.46,-47.8215 95.1846,-34.7288 77.5288,-24.7975"/>
<polygon fill="midnightblue" stroke="midnightblue" points="78.8175,-21.5066 68.3858,-19.6545 75.3856,-27.6077 78.8175,-21.5066"/>
</g>
<!-- Node2 -->
<g id="node3" class="node"><title>Node2</title>
<polygon fill="white" stroke="#bfbfbf" points="124.5,-0.5 124.5,-19.5 173.5,-19.5 173.5,-0.5 124.5,-0.5"/>
<text text-anchor="middle" x="149" y="-7.5" font-family="Helvetica,sans-Serif" font-size="10.00">stdint.h</text>
</g>
<!-- Node0&#45;&gt;Node2 -->
<g id="edge2" class="edge"><title>Node0&#45;&gt;Node2</title>
<path fill="none" stroke="midnightblue" d="M149,-56.083C149,-49.0059 149,-38.8611 149,-29.9865"/>
<polygon fill="midnightblue" stroke="midnightblue" points="152.5,-29.751 149,-19.7511 145.5,-29.7511 152.5,-29.751"/>
</g>
<!-- Node3 -->
<g id="node4" class="node"><title>Node3</title>
<g id="a_node4"><a xlink:href="visibility__end_8h_source.html" target="_top" xlink:title="odp/visibility_end.h">
<polygon fill="white" stroke="black" points="192,-0.5 192,-19.5 292,-19.5 292,-0.5 192,-0.5"/>
<text text-anchor="middle" x="242" y="-7.5" font-family="Helvetica,sans-Serif" font-size="10.00">odp/visibility_end.h</text>
</a>
</g>
</g>
<!-- Node0&#45;&gt;Node3 -->
<g id="edge3" class="edge"><title>Node0&#45;&gt;Node3</title>
<path fill="none" stroke="midnightblue" d="M163.942,-56.324C178.585,-47.8215 201.134,-34.7288 218.238,-24.7975"/>
<polygon fill="midnightblue" stroke="midnightblue" points="220.205,-27.7027 227.095,-19.6545 216.69,-21.6491 220.205,-27.7027"/>
</g>
</g>
</svg>
