<?xml version="1.0" encoding="UTF-8" standalone="no"?>
<!DOCTYPE svg PUBLIC "-//W3C//DTD SVG 1.1//EN"
 "http://www.w3.org/Graphics/SVG/1.1/DTD/svg11.dtd">
<!-- Generated by graphviz version 2.36.0 (20140111.2315)
 -->
<!-- Title: classification.h Pages: 1 -->
<svg width="1663pt" height="792pt"
 viewBox="0.00 0.00 1663.00 792.00" xmlns="http://www.w3.org/2000/svg" xmlns:xlink="http://www.w3.org/1999/xlink">
<g id="graph0" class="graph" transform="scale(1 1) rotate(0) translate(4 788)">
<title>classification.h</title>
<polygon fill="white" stroke="none" points="-4,4 -4,-788 1659,-788 1659,4 -4,4"/>
<!-- Node0 -->
<g id="node1" class="node"><title>Node0</title>
<polygon fill="#bfbfbf" stroke="black" points="483,-764.5 483,-783.5 565,-783.5 565,-764.5 483,-764.5"/>
<text text-anchor="middle" x="524" y="-771.5" font-family="Helvetica,sans-Serif" font-size="10.00">classification.h</text>
</g>
<!-- Node1 -->
<g id="node2" class="node"><title>Node1</title>
<g id="a_node2"><a xlink:href="api_2std__types_8h.html" target="_top" xlink:title="Standard C language types and definitions for ODP. ">
<polygon fill="white" stroke="black" points="396,-124.5 396,-143.5 498,-143.5 498,-124.5 396,-124.5"/>
<text text-anchor="middle" x="447" y="-131.5" font-family="Helvetica,sans-Serif" font-size="10.00">odp/api/std_types.h</text>
</a>
</g>
</g>
<!-- Node0&#45;&gt;Node1 -->
<g id="edge1" class="edge"><title>Node0&#45;&gt;Node1</title>
<path fill="none" stroke="midnightblue" d="M482.983,-772.43C365.815,-769.702 38,-753.943 38,-663 38,-663 38,-663 38,-257 38,-185.342 271.46,-152.323 385.614,-140.461"/>
<polygon fill="midnightblue" stroke="midnightblue" points="386.019,-143.938 395.614,-139.445 385.311,-136.974 386.019,-143.938"/>
</g>
<!-- Node7 -->
<g id="node8" class="node"><title>Node7</title>
<polygon fill="white" stroke="#bfbfbf" points="802.5,-248.5 802.5,-267.5 895.5,-267.5 895.5,-248.5 802.5,-248.5"/>
<text text-anchor="middle" x="849" y="-255.5" font-family="Helvetica,sans-Serif" font-size="10.00">odp/api/abi/pool.h</text>
</g>
<!-- Node0&#45;&gt;Node7 -->
<g id="edge7" class="edge"><title>Node0&#45;&gt;Node7</title>
<path fill="none" stroke="midnightblue" d="M565.169,-772.342C741.115,-768.998 1421,-750.42 1421,-663 1421,-663 1421,-663 1421,-605 1421,-354.766 883,-689.234 883,-439 883,-439 883,-439 883,-381 883,-342.865 867.394,-300.405 857.328,-276.984"/>
<polygon fill="midnightblue" stroke="midnightblue" points="860.435,-275.357 853.169,-267.647 854.041,-278.206 860.435,-275.357"/>
</g>
<!-- Node8 -->
<g id="node9" class="node"><title>Node8</title>
<polygon fill="white" stroke="#bfbfbf" points="1261,-596.5 1261,-615.5 1393,-615.5 1393,-596.5 1261,-596.5"/>
<text text-anchor="middle" x="1327" y="-603.5" font-family="Helvetica,sans-Serif" font-size="10.00">odp/api/abi/classification.h</text>
</g>
<!-- Node0&#45;&gt;Node8 -->
<g id="edge8" class="edge"><title>Node0&#45;&gt;Node8</title>
<path fill="none" stroke="midnightblue" d="M565.203,-764.482C699.894,-736.638 1127.02,-648.342 1275.52,-617.642"/>
<polygon fill="midnightblue" stroke="midnightblue" points="1276.64,-620.985 1285.72,-615.533 1275.22,-614.13 1276.64,-620.985"/>
</g>
<!-- Node9 -->
<g id="node10" class="node"><title>Node9</title>
<polygon fill="white" stroke="#bfbfbf" points="240,-248.5 240,-267.5 344,-267.5 344,-248.5 240,-248.5"/>
<text text-anchor="middle" x="292" y="-255.5" font-family="Helvetica,sans-Serif" font-size="10.00">odp/api/abi/packet.h</text>
</g>
<!-- Node0&#45;&gt;Node9 -->
<g id="edge9" class="edge"><title>Node0&#45;&gt;Node9</title>
<path fill="none" stroke="midnightblue" d="M482.71,-768.233C393.348,-756.766 190,-723.974 190,-663 190,-663 190,-663 190,-381 190,-332.462 238.108,-293.051 268.246,-273.124"/>
<polygon fill="midnightblue" stroke="midnightblue" points="270.398,-275.903 276.95,-267.577 266.636,-270 270.398,-275.903"/>
</g>
<!-- Node10 -->
<g id="node11" class="node"><title>Node10</title>
<polygon fill="white" stroke="#bfbfbf" points="104.5,-248.5 104.5,-267.5 221.5,-267.5 221.5,-248.5 104.5,-248.5"/>
<text text-anchor="middle" x="163" y="-255.5" font-family="Helvetica,sans-Serif" font-size="10.00">odp/api/abi/packet_io.h</text>
</g>
<!-- Node0&#45;&gt;Node10 -->
<g id="edge10" class="edge"><title>Node0&#45;&gt;Node10</title>
<path fill="none" stroke="midnightblue" d="M482.81,-770.713C378.84,-763.819 114,-738.817 114,-663 114,-663 114,-663 114,-381 114,-341.256 136.669,-299.136 151.17,-276.259"/>
<polygon fill="midnightblue" stroke="midnightblue" points="154.23,-277.976 156.794,-267.696 148.379,-274.133 154.23,-277.976"/>
</g>
<!-- Node11 -->
<g id="node12" class="node"><title>Node11</title>
<polygon fill="white" stroke="#bfbfbf" points="1411.5,-484.5 1411.5,-503.5 1512.5,-503.5 1512.5,-484.5 1411.5,-484.5"/>
<text text-anchor="middle" x="1462" y="-491.5" font-family="Helvetica,sans-Serif" font-size="10.00">odp/api/abi/queue.h</text>
</g>
<!-- Node0&#45;&gt;Node11 -->
<g id="edge11" class="edge"><title>Node0&#45;&gt;Node11</title>
<path fill="none" stroke="midnightblue" d="M565.182,-773.26C764.219,-773.988 1617,-770.814 1617,-663 1617,-663 1617,-663 1617,-605 1617,-551.048 1553.77,-521.142 1508.08,-506.574"/>
<polygon fill="midnightblue" stroke="midnightblue" points="1508.93,-503.172 1498.34,-503.611 1506.89,-509.869 1508.93,-503.172"/>
</g>
<!-- Node12 -->
<g id="node13" class="node"><title>Node12</title>
<g id="a_node13"><a xlink:href="api_2spec_2classification_8h.html" target="_top" xlink:title="ODP classification descriptor. ">
<polygon fill="white" stroke="black" points="454,-708.5 454,-727.5 594,-727.5 594,-708.5 454,-708.5"/>
<text text-anchor="middle" x="524" y="-715.5" font-family="Helvetica,sans-Serif" font-size="10.00">odp/api/spec/classification.h</text>
</a>
</g>
</g>
<!-- Node0&#45;&gt;Node12 -->
<g id="edge12" class="edge"><title>Node0&#45;&gt;Node12</title>
<path fill="none" stroke="midnightblue" d="M524,-764.083C524,-757.006 524,-746.861 524,-737.986"/>
<polygon fill="midnightblue" stroke="midnightblue" points="527.5,-737.751 524,-727.751 520.5,-737.751 527.5,-737.751"/>
</g>
<!-- Node2 -->
<g id="node3" class="node"><title>Node2</title>
<polygon fill="white" stroke="#bfbfbf" points="527,-62.5 527,-81.5 645,-81.5 645,-62.5 527,-62.5"/>
<text text-anchor="middle" x="586" y="-69.5" font-family="Helvetica,sans-Serif" font-size="10.00">odp/api/abi/std_types.h</text>
</g>
<!-- Node1&#45;&gt;Node2 -->
<g id="edge2" class="edge"><title>Node1&#45;&gt;Node2</title>
<path fill="none" stroke="midnightblue" d="M466.915,-124.403C490.449,-114.245 529.81,-97.2547 556.793,-85.6074"/>
<polygon fill="midnightblue" stroke="midnightblue" points="558.328,-88.7572 566.122,-81.5806 555.553,-82.3303 558.328,-88.7572"/>
</g>
<!-- Node3 -->
<g id="node4" class="node"><title>Node3</title>
<g id="a_node4"><a xlink:href="api_2spec_2std__types_8h.html" target="_top" xlink:title="Standard C language types and definitions for ODP. ">
<polygon fill="white" stroke="black" points="383,-62.5 383,-81.5 509,-81.5 509,-62.5 383,-62.5"/>
<text text-anchor="middle" x="446" y="-69.5" font-family="Helvetica,sans-Serif" font-size="10.00">odp/api/spec/std_types.h</text>
</a>
</g>
</g>
<!-- Node1&#45;&gt;Node3 -->
<g id="edge3" class="edge"><title>Node1&#45;&gt;Node3</title>
<path fill="none" stroke="midnightblue" d="M446.857,-124.403C446.716,-115.938 446.495,-102.728 446.314,-91.8199"/>
<polygon fill="midnightblue" stroke="midnightblue" points="449.809,-91.5208 446.143,-81.5806 442.81,-91.6376 449.809,-91.5208"/>
</g>
<!-- Node4 -->
<g id="node5" class="node"><title>Node4</title>
<g id="a_node5"><a xlink:href="visibility__begin_8h_source.html" target="_top" xlink:title="odp/visibility_begin.h">
<polygon fill="white" stroke="black" points="777.5,-0.5 777.5,-19.5 884.5,-19.5 884.5,-0.5 777.5,-0.5"/>
<text text-anchor="middle" x="831" y="-7.5" font-family="Helvetica,sans-Serif" font-size="10.00">odp/visibility_begin.h</text>
</a>
</g>
</g>
<!-- Node3&#45;&gt;Node4 -->
<g id="edge4" class="edge"><title>Node3&#45;&gt;Node4</title>
<path fill="none" stroke="midnightblue" d="M484.776,-62.4574C495.511,-60.219 507.185,-57.902 518,-56 603.918,-40.8893 703.77,-27.1995 767.155,-18.9886"/>
<polygon fill="midnightblue" stroke="midnightblue" points="767.923,-22.4187 777.393,-17.669 767.028,-15.4761 767.923,-22.4187"/>
</g>
<!-- Node5 -->
<g id="node6" class="node"><title>Node5</title>
<polygon fill="white" stroke="#bfbfbf" points="421.5,-0.5 421.5,-19.5 470.5,-19.5 470.5,-0.5 421.5,-0.5"/>
<text text-anchor="middle" x="446" y="-7.5" font-family="Helvetica,sans-Serif" font-size="10.00">stdint.h</text>
</g>
<!-- Node3&#45;&gt;Node5 -->
<g id="edge5" class="edge"><title>Node3&#45;&gt;Node5</title>
<path fill="none" stroke="midnightblue" d="M446,-62.4035C446,-53.9381 446,-40.7283 446,-29.8199"/>
<polygon fill="midnightblue" stroke="midnightblue" points="449.5,-29.5806 446,-19.5806 442.5,-29.5806 449.5,-29.5806"/>
</g>
<!-- Node6 -->
<g id="node7" class="node"><title>Node6</title>
<g id="a_node7"><a xlink:href="visibility__end_8h_source.html" target="_top" xlink:title="odp/visibility_end.h">
<polygon fill="white" stroke="black" points="1335,-0.5 1335,-19.5 1435,-19.5 1435,-0.5 1335,-0.5"/>
<text text-anchor="middle" x="1385" y="-7.5" font-family="Helvetica,sans-Serif" font-size="10.00">odp/visibility_end.h</text>
</a>
</g>
</g>
<!-- Node3&#45;&gt;Node6 -->
<g id="edge6" class="edge"><title>Node3&#45;&gt;Node6</title>
<path fill="none" stroke="midnightblue" d="M481.707,-62.4315C493.228,-59.9709 506.097,-57.5396 518,-56 819.137,-17.0509 1183.24,-11.5357 1324.71,-10.9536"/>
<polygon fill="midnightblue" stroke="midnightblue" points="1324.92,-14.453 1334.91,-10.9187 1324.9,-7.45305 1324.92,-14.453"/>
</g>
<!-- Node12&#45;&gt;Node4 -->
<g id="edge13" class="edge"><title>Node12&#45;&gt;Node4</title>
<path fill="none" stroke="midnightblue" d="M453.592,-710.638C345.746,-698.92 152,-669.212 152,-607 152,-607 152,-607 152,-493 152,-368.985 0,-383.015 0,-259 0,-259 0,-259 0,-133 0,-55.5085 572.969,-22.5901 767.369,-13.6514"/>
<polygon fill="midnightblue" stroke="midnightblue" points="767.604,-17.1445 777.435,-13.1946 767.287,-10.1517 767.604,-17.1445"/>
</g>
<!-- Node12&#45;&gt;Node6 -->
<g id="edge83" class="edge"><title>Node12&#45;&gt;Node6</title>
<path fill="none" stroke="midnightblue" d="M594.265,-717.073C721.248,-716.192 997.034,-709.633 1226,-672 1320.89,-656.403 1342.44,-642.071 1435,-616 1533.14,-588.36 1655,-652.956 1655,-551 1655,-551 1655,-551 1655,-133 1655,-41.6822 1525.16,-18.3469 1445.55,-12.6212"/>
<polygon fill="midnightblue" stroke="midnightblue" points="1445.36,-9.10133 1435.15,-11.9519 1444.91,-16.0869 1445.36,-9.10133"/>
</g>
<!-- Node13 -->
<g id="node14" class="node"><title>Node13</title>
<g id="a_node14"><a xlink:href="api_2packet__io_8h.html" target="_top" xlink:title="ODP Packet IO. ">
<polygon fill="white" stroke="black" points="473.5,-652.5 473.5,-671.5 574.5,-671.5 574.5,-652.5 473.5,-652.5"/>
<text text-anchor="middle" x="524" y="-659.5" font-family="Helvetica,sans-Serif" font-size="10.00">odp/api/packet_io.h</text>
</a>
</g>
</g>
<!-- Node12&#45;&gt;Node13 -->
<g id="edge14" class="edge"><title>Node12&#45;&gt;Node13</title>
<path fill="none" stroke="midnightblue" d="M524,-708.083C524,-701.006 524,-690.861 524,-681.986"/>
<polygon fill="midnightblue" stroke="midnightblue" points="527.5,-681.751 524,-671.751 520.5,-681.751 527.5,-681.751"/>
</g>
<!-- Node34 -->
<g id="node35" class="node"><title>Node34</title>
<g id="a_node35"><a xlink:href="support_8h.html" target="_top" xlink:title="ODP support API &#45; platform specific header. ">
<polygon fill="white" stroke="black" points="1345,-124.5 1345,-143.5 1437,-143.5 1437,-124.5 1345,-124.5"/>
<text text-anchor="middle" x="1391" y="-131.5" font-family="Helvetica,sans-Serif" font-size="10.00">odp/api/support.h</text>
</a>
</g>
</g>
<!-- Node12&#45;&gt;Node34 -->
<g id="edge77" class="edge"><title>Node12&#45;&gt;Node34</title>
<path fill="none" stroke="midnightblue" d="M594.33,-714.591C776.318,-707.465 1258.49,-682.654 1402,-616 1492.72,-573.865 1541,-539.025 1541,-439 1541,-439 1541,-439 1541,-319 1541,-239.902 1456.7,-175.989 1414.49,-148.948"/>
<polygon fill="midnightblue" stroke="midnightblue" points="1416.27,-145.929 1405.93,-143.599 1412.56,-151.866 1416.27,-145.929"/>
</g>
<!-- Node36 -->
<g id="node37" class="node"><title>Node36</title>
<g id="a_node37"><a xlink:href="threshold_8h.html" target="_top" xlink:title="ODP threshold API &#45; platform specific header. ">
<polygon fill="white" stroke="black" points="287.5,-652.5 287.5,-671.5 386.5,-671.5 386.5,-652.5 287.5,-652.5"/>
<text text-anchor="middle" x="337" y="-659.5" font-family="Helvetica,sans-Serif" font-size="10.00">odp/api/threshold.h</text>
</a>
</g>
</g>
<!-- Node12&#45;&gt;Node36 -->
<g id="edge78" class="edge"><title>Node12&#45;&gt;Node36</title>
<path fill="none" stroke="midnightblue" d="M494.369,-708.444C462.5,-699.241 411.667,-684.562 376.436,-674.388"/>
<polygon fill="midnightblue" stroke="midnightblue" points="377.071,-670.928 366.492,-671.516 375.128,-677.653 377.071,-670.928"/>
</g>
<!-- Node13&#45;&gt;Node1 -->
<g id="edge15" class="edge"><title>Node13&#45;&gt;Node1</title>
<path fill="none" stroke="midnightblue" d="M503.355,-652.421C470.504,-637.231 410,-602.293 410,-551 410,-551 410,-551 410,-257 410,-218.613 426.983,-176.242 437.937,-152.905"/>
<polygon fill="midnightblue" stroke="midnightblue" points="441.234,-154.128 442.463,-143.605 434.94,-151.065 441.234,-154.128"/>
</g>
<!-- Node13&#45;&gt;Node7 -->
<g id="edge16" class="edge"><title>Node13&#45;&gt;Node7</title>
<path fill="none" stroke="midnightblue" d="M531.09,-652.23C572.223,-601.352 780.27,-344.014 835.515,-275.68"/>
<polygon fill="midnightblue" stroke="midnightblue" points="838.438,-277.632 842.003,-267.655 832.994,-273.231 838.438,-277.632"/>
</g>
<!-- Node13&#45;&gt;Node8 -->
<g id="edge17" class="edge"><title>Node13&#45;&gt;Node8</title>
<path fill="none" stroke="midnightblue" d="M574.905,-658.706C693.085,-653.189 995.173,-637.988 1247,-616 1248.11,-615.903 1249.24,-615.803 1250.37,-615.7"/>
<polygon fill="midnightblue" stroke="midnightblue" points="1251.05,-619.151 1260.67,-614.72 1250.38,-612.183 1251.05,-619.151"/>
</g>
<!-- Node13&#45;&gt;Node9 -->
<g id="edge18" class="edge"><title>Node13&#45;&gt;Node9</title>
<path fill="none" stroke="midnightblue" d="M473.267,-654.956C414.603,-644.811 326,-618.342 326,-551 326,-551 326,-551 326,-381 326,-342.865 310.394,-300.405 300.328,-276.984"/>
<polygon fill="midnightblue" stroke="midnightblue" points="303.435,-275.357 296.169,-267.647 297.041,-278.206 303.435,-275.357"/>
</g>
<!-- Node13&#45;&gt;Node10 -->
<g id="edge19" class="edge"><title>Node13&#45;&gt;Node10</title>
<path fill="none" stroke="midnightblue" d="M473.355,-659.771C402.139,-655.045 281,-634.703 281,-551 281,-551 281,-551 281,-381 281,-329.42 225.831,-291.338 190.939,-272.411"/>
<polygon fill="midnightblue" stroke="midnightblue" points="192.182,-269.111 181.697,-267.585 188.941,-275.316 192.182,-269.111"/>
</g>
<!-- Node13&#45;&gt;Node11 -->
<g id="edge20" class="edge"><title>Node13&#45;&gt;Node11</title>
<path fill="none" stroke="midnightblue" d="M574.628,-657.095C749.675,-643.328 1322.65,-595.941 1397,-560 1419.58,-549.084 1438.93,-527.075 1450.51,-511.706"/>
<polygon fill="midnightblue" stroke="midnightblue" points="1453.38,-513.714 1456.4,-503.558 1447.7,-509.616 1453.38,-513.714"/>
</g>
<!-- Node14 -->
<g id="node15" class="node"><title>Node14</title>
<g id="a_node15"><a xlink:href="api_2spec_2packet__io_8h.html" target="_top" xlink:title="ODP Packet IO. ">
<polygon fill="white" stroke="black" points="667.5,-596.5 667.5,-615.5 792.5,-615.5 792.5,-596.5 667.5,-596.5"/>
<text text-anchor="middle" x="730" y="-603.5" font-family="Helvetica,sans-Serif" font-size="10.00">odp/api/spec/packet_io.h</text>
</a>
</g>
</g>
<!-- Node13&#45;&gt;Node14 -->
<g id="edge21" class="edge"><title>Node13&#45;&gt;Node14</title>
<path fill="none" stroke="midnightblue" d="M556.641,-652.444C592.05,-643.162 648.709,-628.309 687.553,-618.127"/>
<polygon fill="midnightblue" stroke="midnightblue" points="688.726,-621.438 697.511,-615.516 686.951,-614.667 688.726,-621.438"/>
</g>
<!-- Node14&#45;&gt;Node4 -->
<g id="edge22" class="edge"><title>Node14&#45;&gt;Node4</title>
<path fill="none" stroke="midnightblue" d="M673.274,-596.495C572.328,-577.797 372,-523.05 372,-383 372,-383 372,-383 372,-319 372,-286.334 375.255,-271.912 353,-248 319.676,-212.195 277.371,-251.844 249,-212 202.084,-146.113 251.792,-107.182 345,-56 416.017,-17.0037 652.119,-11.1573 767.047,-10.6953"/>
<polygon fill="midnightblue" stroke="midnightblue" points="767.124,-14.1952 777.114,-10.6674 767.104,-7.19519 767.124,-14.1952"/>
</g>
<!-- Node14&#45;&gt;Node6 -->
<g id="edge76" class="edge"><title>Node14&#45;&gt;Node6</title>
<path fill="none" stroke="midnightblue" d="M792.652,-602.209C948.047,-595.066 1340.41,-575.585 1364,-560 1395.68,-539.074 1382.92,-516.219 1403,-484 1487.17,-348.974 1617,-356.112 1617,-197 1617,-197 1617,-197 1617,-133 1617,-55.4111 1514.09,-27.0568 1445.35,-16.7716"/>
<polygon fill="midnightblue" stroke="midnightblue" points="1445.44,-13.2502 1435.05,-15.3262 1444.47,-20.1823 1445.44,-13.2502"/>
</g>
<!-- Node15 -->
<g id="node16" class="node"><title>Node15</title>
<g id="a_node16"><a xlink:href="deprecated_8h.html" target="_top" xlink:title="Control deprecated API definitions. ">
<polygon fill="white" stroke="black" points="1107.5,-248.5 1107.5,-267.5 1214.5,-267.5 1214.5,-248.5 1107.5,-248.5"/>
<text text-anchor="middle" x="1161" y="-255.5" font-family="Helvetica,sans-Serif" font-size="10.00">odp/api/deprecated.h</text>
</a>
</g>
</g>
<!-- Node14&#45;&gt;Node15 -->
<g id="edge23" class="edge"><title>Node14&#45;&gt;Node15</title>
<path fill="none" stroke="midnightblue" d="M792.691,-600.585C906.121,-591.153 1138.22,-564.739 1187,-504 1214.95,-469.197 1180.04,-328.291 1166.19,-277.426"/>
<polygon fill="midnightblue" stroke="midnightblue" points="1169.49,-276.218 1163.45,-267.515 1162.75,-278.086 1169.49,-276.218"/>
</g>
<!-- Node17 -->
<g id="node18" class="node"><title>Node17</title>
<g id="a_node18"><a xlink:href="packet__io__stats_8h.html" target="_top" xlink:title="ODP packet IO stats. ">
<polygon fill="white" stroke="black" points="1227,-540.5 1227,-559.5 1355,-559.5 1355,-540.5 1227,-540.5"/>
<text text-anchor="middle" x="1291" y="-547.5" font-family="Helvetica,sans-Serif" font-size="10.00">odp/api/packet_io_stats.h</text>
</a>
</g>
</g>
<!-- Node14&#45;&gt;Node17 -->
<g id="edge27" class="edge"><title>Node14&#45;&gt;Node17</title>
<path fill="none" stroke="midnightblue" d="M792.567,-599.613C884.69,-591.581 1062.23,-575.72 1213,-560 1214.12,-559.883 1215.25,-559.765 1216.38,-559.645"/>
<polygon fill="midnightblue" stroke="midnightblue" points="1217.17,-563.08 1226.74,-558.528 1216.42,-556.12 1217.17,-563.08"/>
</g>
<!-- Node19 -->
<g id="node20" class="node"><title>Node19</title>
<g id="a_node20"><a xlink:href="api_2queue_8h.html" target="_top" xlink:title="ODP queue. ">
<polygon fill="white" stroke="black" points="802,-540.5 802,-559.5 888,-559.5 888,-540.5 802,-540.5"/>
<text text-anchor="middle" x="845" y="-547.5" font-family="Helvetica,sans-Serif" font-size="10.00">odp/api/queue.h</text>
</a>
</g>
</g>
<!-- Node14&#45;&gt;Node19 -->
<g id="edge31" class="edge"><title>Node14&#45;&gt;Node19</title>
<path fill="none" stroke="midnightblue" d="M748.222,-596.444C766.896,-587.675 796.156,-573.935 817.617,-563.858"/>
<polygon fill="midnightblue" stroke="midnightblue" points="819.299,-566.935 826.863,-559.516 816.324,-560.599 819.299,-566.935"/>
</g>
<!-- Node25 -->
<g id="node26" class="node"><title>Node25</title>
<g id="a_node26"><a xlink:href="api_2packet_8h.html" target="_top" xlink:title="ODP packet descriptor. ">
<polygon fill="white" stroke="black" points="558.5,-310.5 558.5,-329.5 647.5,-329.5 647.5,-310.5 558.5,-310.5"/>
<text text-anchor="middle" x="603" y="-317.5" font-family="Helvetica,sans-Serif" font-size="10.00">odp/api/packet.h</text>
</a>
</g>
</g>
<!-- Node14&#45;&gt;Node25 -->
<g id="edge75" class="edge"><title>Node14&#45;&gt;Node25</title>
<path fill="none" stroke="midnightblue" d="M667.302,-598.047C639.382,-592.036 607.928,-580.841 586,-560 563.678,-538.785 562,-525.795 562,-495 562,-495 562,-495 562,-437 562,-400.325 580.444,-360.663 592.591,-338.52"/>
<polygon fill="midnightblue" stroke="midnightblue" points="595.734,-340.074 597.64,-329.652 589.65,-336.611 595.734,-340.074"/>
</g>
<!-- Node27 -->
<g id="node28" class="node"><title>Node27</title>
<g id="a_node28"><a xlink:href="api_2time_8h.html" target="_top" xlink:title="ODP time. ">
<polygon fill="white" stroke="black" points="561,-186.5 561,-205.5 639,-205.5 639,-186.5 561,-186.5"/>
<text text-anchor="middle" x="600" y="-193.5" font-family="Helvetica,sans-Serif" font-size="10.00">odp/api/time.h</text>
</a>
</g>
</g>
<!-- Node14&#45;&gt;Node27 -->
<g id="edge74" class="edge"><title>Node14&#45;&gt;Node27</title>
<path fill="none" stroke="midnightblue" d="M718.385,-596.444C697.224,-580.363 652,-543.663 624,-504 576.842,-437.199 569.542,-415.147 549,-336 539.152,-298.055 526.999,-283.788 543,-248 549.804,-232.783 563.641,-220.226 575.977,-211.38"/>
<polygon fill="midnightblue" stroke="midnightblue" points="578.221,-214.089 584.573,-205.61 574.319,-208.278 578.221,-214.089"/>
</g>
<!-- Node16 -->
<g id="node17" class="node"><title>Node16</title>
<g id="a_node17"><a xlink:href="spec_2deprecated_8h.html" target="_top" xlink:title="Macro for deprecated API definitions. ">
<polygon fill="white" stroke="black" points="935.5,-62.5 935.5,-81.5 1066.5,-81.5 1066.5,-62.5 935.5,-62.5"/>
<text text-anchor="middle" x="1001" y="-69.5" font-family="Helvetica,sans-Serif" font-size="10.00">odp/api/spec/deprecated.h</text>
</a>
</g>
</g>
<!-- Node15&#45;&gt;Node16 -->
<g id="edge24" class="edge"><title>Node15&#45;&gt;Node16</title>
<path fill="none" stroke="midnightblue" d="M1153.28,-248.125C1128.1,-219.161 1048.03,-127.089 1015.23,-89.3622"/>
<polygon fill="midnightblue" stroke="midnightblue" points="1017.84,-87.0351 1008.64,-81.7857 1012.56,-91.6284 1017.84,-87.0351"/>
</g>
<!-- Node16&#45;&gt;Node4 -->
<g id="edge25" class="edge"><title>Node16&#45;&gt;Node4</title>
<path fill="none" stroke="midnightblue" d="M976.643,-62.4035C947.356,-52.0668 898.026,-34.6564 864.998,-22.9994"/>
<polygon fill="midnightblue" stroke="midnightblue" points="865.906,-19.6084 855.312,-19.5806 863.577,-26.2093 865.906,-19.6084"/>
</g>
<!-- Node16&#45;&gt;Node6 -->
<g id="edge26" class="edge"><title>Node16&#45;&gt;Node6</title>
<path fill="none" stroke="midnightblue" d="M1044.96,-62.4438C1056.66,-60.253 1069.29,-57.9632 1081,-56 1165.31,-41.8612 1263.17,-27.7926 1324.59,-19.2451"/>
<polygon fill="midnightblue" stroke="midnightblue" points="1325.46,-22.6594 1334.88,-17.8182 1324.49,-15.7258 1325.46,-22.6594"/>
</g>
<!-- Node18 -->
<g id="node19" class="node"><title>Node18</title>
<g id="a_node19"><a xlink:href="spec_2packet__io__stats_8h.html" target="_top" xlink:title="ODP Packet IO. ">
<polygon fill="white" stroke="black" points="1333,-57 1333,-87 1437,-87 1437,-57 1333,-57"/>
<text text-anchor="start" x="1341" y="-75" font-family="Helvetica,sans-Serif" font-size="10.00">odp/api/spec/packet</text>
<text text-anchor="middle" x="1385" y="-64" font-family="Helvetica,sans-Serif" font-size="10.00">_io_stats.h</text>
</a>
</g>
</g>
<!-- Node17&#45;&gt;Node18 -->
<g id="edge28" class="edge"><title>Node17&#45;&gt;Node18</title>
<path fill="none" stroke="midnightblue" d="M1296.01,-540.273C1319.74,-498.252 1420.85,-311.897 1446,-144 1447.32,-135.209 1449.76,-132.053 1446,-124 1440.23,-111.666 1429.86,-101.265 1419.28,-93.1391"/>
<polygon fill="midnightblue" stroke="midnightblue" points="1421.01,-90.0736 1410.83,-87.1165 1416.94,-95.7726 1421.01,-90.0736"/>
</g>
<!-- Node18&#45;&gt;Node4 -->
<g id="edge29" class="edge"><title>Node18&#45;&gt;Node4</title>
<path fill="none" stroke="midnightblue" d="M1332.68,-57.7729C1329.41,-57.124 1326.17,-56.5253 1323,-56 1170.69,-30.7483 989.323,-18.7594 895.065,-13.8666"/>
<polygon fill="midnightblue" stroke="midnightblue" points="895.003,-10.359 884.838,-13.3459 894.647,-17.3499 895.003,-10.359"/>
</g>
<!-- Node18&#45;&gt;Node6 -->
<g id="edge30" class="edge"><title>Node18&#45;&gt;Node6</title>
<path fill="none" stroke="midnightblue" d="M1385,-56.7808C1385,-48.7812 1385,-38.6887 1385,-30.0168"/>
<polygon fill="midnightblue" stroke="midnightblue" points="1388.5,-29.7305 1385,-19.7305 1381.5,-29.7306 1388.5,-29.7305"/>
</g>
<!-- Node19&#45;&gt;Node1 -->
<g id="edge32" class="edge"><title>Node19&#45;&gt;Node1</title>
<path fill="none" stroke="midnightblue" d="M828.853,-540.473C781.317,-514.774 639.544,-433.788 549,-336 505.084,-288.571 500.4,-270.544 473,-212 463.961,-192.687 456.533,-169.343 451.964,-153.457"/>
<polygon fill="midnightblue" stroke="midnightblue" points="455.327,-152.486 449.273,-143.791 448.584,-154.364 455.327,-152.486"/>
</g>
<!-- Node19&#45;&gt;Node7 -->
<g id="edge36" class="edge"><title>Node19&#45;&gt;Node7</title>
<path fill="none" stroke="midnightblue" d="M845,-540.442C845,-521.936 845,-476.812 845,-439 845,-439 845,-439 845,-381 845,-344.394 846.821,-301.643 848.006,-277.706"/>
<polygon fill="midnightblue" stroke="midnightblue" points="851.508,-277.742 848.525,-267.576 844.518,-277.383 851.508,-277.742"/>
</g>
<!-- Node19&#45;&gt;Node11 -->
<g id="edge34" class="edge"><title>Node19&#45;&gt;Node11</title>
<path fill="none" stroke="midnightblue" d="M888.386,-545.203C996.307,-535.758 1277.08,-511.184 1401.33,-500.31"/>
<polygon fill="midnightblue" stroke="midnightblue" points="1401.77,-503.784 1411.43,-499.426 1401.16,-496.811 1401.77,-503.784"/>
</g>
<!-- Node20 -->
<g id="node21" class="node"><title>Node20</title>
<polygon fill="white" stroke="#bfbfbf" points="913.5,-248.5 913.5,-267.5 1012.5,-267.5 1012.5,-248.5 913.5,-248.5"/>
<text text-anchor="middle" x="963" y="-255.5" font-family="Helvetica,sans-Serif" font-size="10.00">odp/api/abi/event.h</text>
</g>
<!-- Node19&#45;&gt;Node20 -->
<g id="edge33" class="edge"><title>Node19&#45;&gt;Node20</title>
<path fill="none" stroke="midnightblue" d="M856.543,-540.433C877.804,-523.571 921,-483.799 921,-439 921,-439 921,-439 921,-381 921,-341.974 940.452,-299.563 952.88,-276.449"/>
<polygon fill="midnightblue" stroke="midnightblue" points="956.04,-277.967 957.85,-267.528 949.925,-274.56 956.04,-277.967"/>
</g>
<!-- Node21 -->
<g id="node22" class="node"><title>Node21</title>
<polygon fill="white" stroke="#bfbfbf" points="684,-248.5 684,-267.5 784,-267.5 784,-248.5 684,-248.5"/>
<text text-anchor="middle" x="734" y="-255.5" font-family="Helvetica,sans-Serif" font-size="10.00">odp/api/abi/buffer.h</text>
</g>
<!-- Node19&#45;&gt;Node21 -->
<g id="edge35" class="edge"><title>Node19&#45;&gt;Node21</title>
<path fill="none" stroke="midnightblue" d="M833.609,-540.398C812.628,-523.477 770,-483.61 770,-439 770,-439 770,-439 770,-381 770,-342.699 753.476,-300.298 742.818,-276.932"/>
<polygon fill="midnightblue" stroke="midnightblue" points="745.853,-275.163 738.414,-267.619 739.525,-278.156 745.853,-275.163"/>
</g>
<!-- Node22 -->
<g id="node23" class="node"><title>Node22</title>
<g id="a_node23"><a xlink:href="api_2spec_2queue_8h.html" target="_top" xlink:title="ODP queue. ">
<polygon fill="white" stroke="black" points="1068,-484.5 1068,-503.5 1178,-503.5 1178,-484.5 1068,-484.5"/>
<text text-anchor="middle" x="1123" y="-491.5" font-family="Helvetica,sans-Serif" font-size="10.00">odp/api/spec/queue.h</text>
</a>
</g>
</g>
<!-- Node19&#45;&gt;Node22 -->
<g id="edge37" class="edge"><title>Node19&#45;&gt;Node22</title>
<path fill="none" stroke="midnightblue" d="M888.132,-540.622C936.846,-531.159 1016.19,-515.748 1068.98,-505.492"/>
<polygon fill="midnightblue" stroke="midnightblue" points="1069.7,-508.919 1078.85,-503.577 1068.36,-502.048 1069.7,-508.919"/>
</g>
<!-- Node22&#45;&gt;Node4 -->
<g id="edge38" class="edge"><title>Node22&#45;&gt;Node4</title>
<path fill="none" stroke="midnightblue" d="M1122.47,-484.276C1121.06,-464.066 1116.34,-412.665 1103,-372 1083.73,-313.263 1074.3,-299.429 1040,-248 984.725,-165.112 947.79,-163.684 883,-88 866.668,-68.922 850.969,-44.5702 841.173,-28.4151"/>
<polygon fill="midnightblue" stroke="midnightblue" points="844.008,-26.3359 835.883,-19.536 837.994,-29.9184 844.008,-26.3359"/>
</g>
<!-- Node22&#45;&gt;Node6 -->
<g id="edge73" class="edge"><title>Node22&#45;&gt;Node6</title>
<path fill="none" stroke="midnightblue" d="M1144.69,-484.391C1235.31,-447.753 1579,-301.883 1579,-197 1579,-197 1579,-197 1579,-133 1579,-68.255 1500.61,-36.5258 1443.49,-21.9999"/>
<polygon fill="midnightblue" stroke="midnightblue" points="1444,-18.5212 1433.45,-19.566 1442.35,-25.3241 1444,-18.5212"/>
</g>
<!-- Node23 -->
<g id="node24" class="node"><title>Node23</title>
<g id="a_node24"><a xlink:href="api_2event_8h.html" target="_top" xlink:title="ODP event. ">
<polygon fill="white" stroke="black" points="999.5,-428.5 999.5,-447.5 1082.5,-447.5 1082.5,-428.5 999.5,-428.5"/>
<text text-anchor="middle" x="1041" y="-435.5" font-family="Helvetica,sans-Serif" font-size="10.00">odp/api/event.h</text>
</a>
</g>
</g>
<!-- Node22&#45;&gt;Node23 -->
<g id="edge39" class="edge"><title>Node22&#45;&gt;Node23</title>
<path fill="none" stroke="midnightblue" d="M1109.83,-484.324C1097.15,-475.979 1077.77,-463.212 1062.79,-453.352"/>
<polygon fill="midnightblue" stroke="midnightblue" points="1064.42,-450.231 1054.14,-447.655 1060.57,-456.078 1064.42,-450.231"/>
</g>
<!-- Node30 -->
<g id="node31" class="node"><title>Node30</title>
<g id="a_node31"><a xlink:href="queue__types_8h.html" target="_top" xlink:title="ODP queue types. ">
<polygon fill="white" stroke="black" points="1192.5,-305 1192.5,-335 1293.5,-335 1293.5,-305 1192.5,-305"/>
<text text-anchor="start" x="1200.5" y="-323" font-family="Helvetica,sans-Serif" font-size="10.00">odp/api/spec/queue</text>
<text text-anchor="middle" x="1243" y="-312" font-family="Helvetica,sans-Serif" font-size="10.00">_types.h</text>
</a>
</g>
</g>
<!-- Node22&#45;&gt;Node30 -->
<g id="edge60" class="edge"><title>Node22&#45;&gt;Node30</title>
<path fill="none" stroke="midnightblue" d="M1129.12,-484.234C1147.16,-458.376 1200.56,-381.831 1227.33,-343.459"/>
<polygon fill="midnightblue" stroke="midnightblue" points="1230.37,-345.216 1233.22,-335.012 1224.63,-341.21 1230.37,-345.216"/>
</g>
<!-- Node23&#45;&gt;Node20 -->
<g id="edge40" class="edge"><title>Node23&#45;&gt;Node20</title>
<path fill="none" stroke="midnightblue" d="M1021.31,-428.432C1006.78,-421.007 987.877,-408.802 978,-392 956.775,-355.892 958.003,-304.696 960.588,-277.559"/>
<polygon fill="midnightblue" stroke="midnightblue" points="964.077,-277.845 961.717,-267.516 957.121,-277.062 964.077,-277.845"/>
</g>
<!-- Node24 -->
<g id="node25" class="node"><title>Node24</title>
<g id="a_node25"><a xlink:href="api_2spec_2event_8h.html" target="_top" xlink:title="ODP event. ">
<polygon fill="white" stroke="black" points="987.5,-372.5 987.5,-391.5 1094.5,-391.5 1094.5,-372.5 987.5,-372.5"/>
<text text-anchor="middle" x="1041" y="-379.5" font-family="Helvetica,sans-Serif" font-size="10.00">odp/api/spec/event.h</text>
</a>
</g>
</g>
<!-- Node23&#45;&gt;Node24 -->
<g id="edge41" class="edge"><title>Node23&#45;&gt;Node24</title>
<path fill="none" stroke="midnightblue" d="M1041,-428.083C1041,-421.006 1041,-410.861 1041,-401.986"/>
<polygon fill="midnightblue" stroke="midnightblue" points="1044.5,-401.751 1041,-391.751 1037.5,-401.751 1044.5,-401.751"/>
</g>
<!-- Node24&#45;&gt;Node4 -->
<g id="edge42" class="edge"><title>Node24&#45;&gt;Node4</title>
<path fill="none" stroke="midnightblue" d="M1041.57,-372.319C1042.65,-350.191 1043.16,-290.428 1021,-248 1017.11,-240.546 917.03,-149.863 911,-144 885.765,-119.462 873.21,-118.121 855,-88 843.934,-69.6964 837.529,-45.8215 834.163,-29.5405"/>
<polygon fill="midnightblue" stroke="midnightblue" points="837.589,-28.8227 832.298,-19.644 830.71,-30.1192 837.589,-28.8227"/>
</g>
<!-- Node24&#45;&gt;Node6 -->
<g id="edge59" class="edge"><title>Node24&#45;&gt;Node6</title>
<path fill="none" stroke="midnightblue" d="M1094.72,-376.755C1148.37,-371.361 1232.61,-359.733 1302,-336 1362.95,-315.154 1379.51,-308.01 1430,-268 1506.12,-207.677 1543.97,-131.597 1483,-56 1470.25,-40.1887 1450.7,-29.6966 1432.41,-22.855"/>
<polygon fill="midnightblue" stroke="midnightblue" points="1433.31,-19.4635 1422.72,-19.5103 1431.03,-26.0807 1433.31,-19.4635"/>
</g>
<!-- Node24&#45;&gt;Node25 -->
<g id="edge43" class="edge"><title>Node24&#45;&gt;Node25</title>
<path fill="none" stroke="midnightblue" d="M987.293,-373.643C903.415,-362.153 742.196,-340.068 657.708,-328.494"/>
<polygon fill="midnightblue" stroke="midnightblue" points="657.93,-324.992 647.548,-327.102 656.98,-331.927 657.93,-324.992"/>
</g>
<!-- Node25&#45;&gt;Node1 -->
<g id="edge44" class="edge"><title>Node25&#45;&gt;Node1</title>
<path fill="none" stroke="midnightblue" d="M591.217,-310.355C578.558,-300.768 558.213,-284.47 543,-268 507.876,-229.975 474.23,-178.893 457.672,-152.468"/>
<polygon fill="midnightblue" stroke="midnightblue" points="460.437,-150.285 452.196,-143.627 454.486,-153.971 460.437,-150.285"/>
</g>
<!-- Node25&#45;&gt;Node7 -->
<g id="edge49" class="edge"><title>Node25&#45;&gt;Node7</title>
<path fill="none" stroke="midnightblue" d="M636.368,-310.437C644.732,-308.313 653.69,-306.056 662,-304 709.851,-292.16 764.697,-279.012 802.559,-270.001"/>
<polygon fill="midnightblue" stroke="midnightblue" points="803.849,-273.292 812.768,-267.574 802.23,-266.482 803.849,-273.292"/>
</g>
<!-- Node25&#45;&gt;Node9 -->
<g id="edge47" class="edge"><title>Node25&#45;&gt;Node9</title>
<path fill="none" stroke="midnightblue" d="M558.772,-310.467C502.811,-299.671 406.477,-281.086 346.166,-269.45"/>
<polygon fill="midnightblue" stroke="midnightblue" points="346.558,-265.961 336.076,-267.503 345.232,-272.834 346.558,-265.961"/>
</g>
<!-- Node25&#45;&gt;Node10 -->
<g id="edge46" class="edge"><title>Node25&#45;&gt;Node10</title>
<path fill="none" stroke="midnightblue" d="M558.389,-312.917C481.315,-302.407 322.744,-280.783 231.571,-268.351"/>
<polygon fill="midnightblue" stroke="midnightblue" points="231.991,-264.876 221.61,-266.992 231.045,-271.811 231.991,-264.876"/>
</g>
<!-- Node25&#45;&gt;Node20 -->
<g id="edge45" class="edge"><title>Node25&#45;&gt;Node20</title>
<path fill="none" stroke="midnightblue" d="M647.504,-311.583C711.874,-300.854 831.117,-280.981 903.139,-268.977"/>
<polygon fill="midnightblue" stroke="midnightblue" points="904.122,-272.361 913.411,-267.265 902.971,-265.457 904.122,-272.361"/>
</g>
<!-- Node25&#45;&gt;Node21 -->
<g id="edge48" class="edge"><title>Node25&#45;&gt;Node21</title>
<path fill="none" stroke="midnightblue" d="M621.769,-310.403C643.851,-300.29 680.719,-283.404 706.139,-271.761"/>
<polygon fill="midnightblue" stroke="midnightblue" points="707.631,-274.927 715.266,-267.581 704.716,-268.563 707.631,-274.927"/>
</g>
<!-- Node26 -->
<g id="node27" class="node"><title>Node26</title>
<g id="a_node27"><a xlink:href="api_2spec_2packet_8h.html" target="_top" xlink:title="ODP packet descriptor. ">
<polygon fill="white" stroke="black" points="552.5,-248.5 552.5,-267.5 665.5,-267.5 665.5,-248.5 552.5,-248.5"/>
<text text-anchor="middle" x="609" y="-255.5" font-family="Helvetica,sans-Serif" font-size="10.00">odp/api/spec/packet.h</text>
</a>
</g>
</g>
<!-- Node25&#45;&gt;Node26 -->
<g id="edge50" class="edge"><title>Node25&#45;&gt;Node26</title>
<path fill="none" stroke="midnightblue" d="M603.86,-310.403C604.706,-301.938 606.027,-288.728 607.118,-277.82"/>
<polygon fill="midnightblue" stroke="midnightblue" points="610.629,-277.879 608.142,-267.581 603.664,-277.183 610.629,-277.879"/>
</g>
<!-- Node26&#45;&gt;Node4 -->
<g id="edge51" class="edge"><title>Node26&#45;&gt;Node4</title>
<path fill="none" stroke="midnightblue" d="M618.302,-248.217C643.996,-223.792 717.699,-152.602 773,-88 789.922,-68.2316 807.684,-44.072 819.023,-28.1476"/>
<polygon fill="midnightblue" stroke="midnightblue" points="821.995,-30.0067 824.903,-19.8186 816.276,-25.9699 821.995,-30.0067"/>
</g>
<!-- Node26&#45;&gt;Node6 -->
<g id="edge58" class="edge"><title>Node26&#45;&gt;Node6</title>
<path fill="none" stroke="midnightblue" d="M636.137,-248.498C711.814,-224.653 931.423,-154.529 1111,-88 1146.52,-74.8396 1153.88,-67.4058 1190,-56 1236.02,-41.4689 1289.51,-29.4581 1328.82,-21.5108"/>
<polygon fill="midnightblue" stroke="midnightblue" points="1329.62,-24.919 1338.75,-19.5288 1328.25,-18.0545 1329.62,-24.919"/>
</g>
<!-- Node26&#45;&gt;Node27 -->
<g id="edge52" class="edge"><title>Node26&#45;&gt;Node27</title>
<path fill="none" stroke="midnightblue" d="M607.711,-248.403C606.427,-239.849 604.417,-226.45 602.771,-215.476"/>
<polygon fill="midnightblue" stroke="midnightblue" points="606.232,-214.951 601.287,-205.581 599.309,-215.989 606.232,-214.951"/>
</g>
<!-- Node27&#45;&gt;Node1 -->
<g id="edge53" class="edge"><title>Node27&#45;&gt;Node1</title>
<path fill="none" stroke="midnightblue" d="M578.079,-186.403C551.948,-176.156 508.088,-158.956 478.37,-147.302"/>
<polygon fill="midnightblue" stroke="midnightblue" points="479.468,-143.973 468.881,-143.581 476.912,-150.49 479.468,-143.973"/>
</g>
<!-- Node28 -->
<g id="node29" class="node"><title>Node28</title>
<polygon fill="white" stroke="#bfbfbf" points="553,-124.5 553,-143.5 647,-143.5 647,-124.5 553,-124.5"/>
<text text-anchor="middle" x="600" y="-131.5" font-family="Helvetica,sans-Serif" font-size="10.00">odp/api/abi/time.h</text>
</g>
<!-- Node27&#45;&gt;Node28 -->
<g id="edge54" class="edge"><title>Node27&#45;&gt;Node28</title>
<path fill="none" stroke="midnightblue" d="M600,-186.403C600,-177.938 600,-164.728 600,-153.82"/>
<polygon fill="midnightblue" stroke="midnightblue" points="603.5,-153.581 600,-143.581 596.5,-153.581 603.5,-153.581"/>
</g>
<!-- Node29 -->
<g id="node30" class="node"><title>Node29</title>
<g id="a_node30"><a xlink:href="api_2spec_2time_8h.html" target="_top" xlink:title="ODP time. ">
<polygon fill="white" stroke="black" points="663,-62.5 663,-81.5 765,-81.5 765,-62.5 663,-62.5"/>
<text text-anchor="middle" x="714" y="-69.5" font-family="Helvetica,sans-Serif" font-size="10.00">odp/api/spec/time.h</text>
</a>
</g>
</g>
<!-- Node27&#45;&gt;Node29 -->
<g id="edge55" class="edge"><title>Node27&#45;&gt;Node29</title>
<path fill="none" stroke="midnightblue" d="M610.33,-186.397C621.896,-176.585 640.985,-159.844 656,-144 672.682,-126.396 690.054,-104.595 701.384,-89.829"/>
<polygon fill="midnightblue" stroke="midnightblue" points="704.338,-91.726 707.597,-81.645 698.763,-87.4931 704.338,-91.726"/>
</g>
<!-- Node29&#45;&gt;Node4 -->
<g id="edge56" class="edge"><title>Node29&#45;&gt;Node4</title>
<path fill="none" stroke="midnightblue" d="M730.763,-62.4035C750.225,-52.4232 782.545,-35.8487 805.211,-24.2253"/>
<polygon fill="midnightblue" stroke="midnightblue" points="806.967,-27.2582 814.268,-19.5806 803.773,-21.0294 806.967,-27.2582"/>
</g>
<!-- Node29&#45;&gt;Node6 -->
<g id="edge57" class="edge"><title>Node29&#45;&gt;Node6</title>
<path fill="none" stroke="midnightblue" d="M765.261,-66.4163C887.109,-55.5208 1193.63,-28.1124 1324.38,-16.4208"/>
<polygon fill="midnightblue" stroke="midnightblue" points="1324.96,-19.883 1334.61,-15.5062 1324.33,-12.9108 1324.96,-19.883"/>
</g>
<!-- Node30&#45;&gt;Node4 -->
<g id="edge61" class="edge"><title>Node30&#45;&gt;Node4</title>
<path fill="none" stroke="midnightblue" d="M1242.33,-304.933C1240.9,-289.4 1236.5,-264.422 1223,-248 1200.53,-220.669 1183.29,-228.512 1152,-212 1050.67,-158.531 1021.11,-151.883 926,-88 897.268,-68.7008 866.603,-42.754 848.119,-26.4537"/>
<polygon fill="midnightblue" stroke="midnightblue" points="850.331,-23.7368 840.535,-19.7017 845.676,-28.9652 850.331,-23.7368"/>
</g>
<!-- Node30&#45;&gt;Node6 -->
<g id="edge72" class="edge"><title>Node30&#45;&gt;Node6</title>
<path fill="none" stroke="midnightblue" d="M1293.75,-315.652C1330.12,-310.624 1377.82,-298.248 1408,-268 1476.67,-199.165 1510.39,-140.332 1462,-56 1453.38,-40.9862 1437.61,-30.5036 1422.57,-23.4579"/>
<polygon fill="midnightblue" stroke="midnightblue" points="1423.94,-20.2378 1413.37,-19.5053 1421.18,-26.6691 1423.94,-20.2378"/>
</g>
<!-- Node30&#45;&gt;Node15 -->
<g id="edge71" class="edge"><title>Node30&#45;&gt;Node15</title>
<path fill="none" stroke="midnightblue" d="M1223.57,-304.781C1210.79,-295.433 1194.11,-283.227 1181.19,-273.77"/>
<polygon fill="midnightblue" stroke="midnightblue" points="1183.07,-270.811 1172.93,-267.731 1178.94,-276.46 1183.07,-270.811"/>
</g>
<!-- Node31 -->
<g id="node32" class="node"><title>Node31</title>
<g id="a_node32"><a xlink:href="api_2schedule__types_8h.html" target="_top" xlink:title="ODP schedule. ">
<polygon fill="white" stroke="black" points="1271,-248.5 1271,-267.5 1399,-267.5 1399,-248.5 1271,-248.5"/>
<text text-anchor="middle" x="1335" y="-255.5" font-family="Helvetica,sans-Serif" font-size="10.00">odp/api/schedule_types.h</text>
</a>
</g>
</g>
<!-- Node30&#45;&gt;Node31 -->
<g id="edge62" class="edge"><title>Node30&#45;&gt;Node31</title>
<path fill="none" stroke="midnightblue" d="M1264.8,-304.781C1279.5,-295.196 1298.8,-282.606 1313.45,-273.056"/>
<polygon fill="midnightblue" stroke="midnightblue" points="1315.42,-275.95 1321.88,-267.556 1311.59,-270.087 1315.42,-275.95"/>
</g>
<!-- Node32 -->
<g id="node33" class="node"><title>Node32</title>
<polygon fill="white" stroke="#bfbfbf" points="1293,-181 1293,-211 1399,-211 1399,-181 1293,-181"/>
<text text-anchor="start" x="1301" y="-199" font-family="Helvetica,sans-Serif" font-size="10.00">odp/api/abi/schedule</text>
<text text-anchor="middle" x="1346" y="-188" font-family="Helvetica,sans-Serif" font-size="10.00">_types.h</text>
</g>
<!-- Node31&#45;&gt;Node32 -->
<g id="edge63" class="edge"><title>Node31&#45;&gt;Node32</title>
<path fill="none" stroke="midnightblue" d="M1336.58,-248.403C1337.88,-241.265 1339.81,-230.752 1341.58,-221.09"/>
<polygon fill="midnightblue" stroke="midnightblue" points="1345.05,-221.608 1343.41,-211.141 1338.16,-220.346 1345.05,-221.608"/>
</g>
<!-- Node33 -->
<g id="node34" class="node"><title>Node33</title>
<g id="a_node34"><a xlink:href="api_2spec_2schedule__types_8h.html" target="_top" xlink:title="ODP schedule types. ">
<polygon fill="white" stroke="black" points="1161,-181 1161,-211 1275,-211 1275,-181 1161,-181"/>
<text text-anchor="start" x="1169" y="-199" font-family="Helvetica,sans-Serif" font-size="10.00">odp/api/spec/schedule</text>
<text text-anchor="middle" x="1218" y="-188" font-family="Helvetica,sans-Serif" font-size="10.00">_types.h</text>
</a>
</g>
</g>
<!-- Node31&#45;&gt;Node33 -->
<g id="edge64" class="edge"><title>Node31&#45;&gt;Node33</title>
<path fill="none" stroke="midnightblue" d="M1318.24,-248.403C1301.72,-239.936 1275.95,-226.72 1254.68,-215.81"/>
<polygon fill="midnightblue" stroke="midnightblue" points="1256.07,-212.59 1245.57,-211.141 1252.88,-218.818 1256.07,-212.59"/>
</g>
<!-- Node33&#45;&gt;Node4 -->
<g id="edge65" class="edge"><title>Node33&#45;&gt;Node4</title>
<path fill="none" stroke="midnightblue" d="M1208.05,-180.805C1187.09,-152.078 1135.29,-87.1431 1075,-56 1018.61,-26.8709 946.297,-16.3659 895.074,-12.6959"/>
<polygon fill="midnightblue" stroke="midnightblue" points="895.005,-9.18421 884.8,-12.0309 894.553,-16.1696 895.005,-9.18421"/>
</g>
<!-- Node33&#45;&gt;Node6 -->
<g id="edge70" class="edge"><title>Node33&#45;&gt;Node6</title>
<path fill="none" stroke="midnightblue" d="M1238.12,-180.965C1261.01,-165.461 1299.91,-140.508 1336,-124 1382.78,-102.604 1415.81,-129.648 1446,-88 1454.35,-76.4851 1452.41,-68.6955 1446,-56 1439.19,-42.5199 1426.23,-32.083 1414,-24.6696"/>
<polygon fill="midnightblue" stroke="midnightblue" points="1415.34,-21.4099 1404.91,-19.5896 1411.93,-27.5214 1415.34,-21.4099"/>
</g>
<!-- Node33&#45;&gt;Node34 -->
<g id="edge66" class="edge"><title>Node33&#45;&gt;Node34</title>
<path fill="none" stroke="midnightblue" d="M1258.56,-180.933C1288.49,-170.553 1328.75,-156.589 1357,-146.792"/>
<polygon fill="midnightblue" stroke="midnightblue" points="1358.15,-150.096 1366.46,-143.513 1355.86,-143.483 1358.15,-150.096"/>
</g>
<!-- Node35 -->
<g id="node36" class="node"><title>Node35</title>
<g id="a_node36"><a xlink:href="spec_2support_8h.html" target="_top" xlink:title="ODP support API. ">
<polygon fill="white" stroke="black" points="1199,-62.5 1199,-81.5 1315,-81.5 1315,-62.5 1199,-62.5"/>
<text text-anchor="middle" x="1257" y="-69.5" font-family="Helvetica,sans-Serif" font-size="10.00">odp/api/spec/support.h</text>
</a>
</g>
</g>
<!-- Node34&#45;&gt;Node35 -->
<g id="edge67" class="edge"><title>Node34&#45;&gt;Node35</title>
<path fill="none" stroke="midnightblue" d="M1371.8,-124.403C1349.21,-114.29 1311.5,-97.4036 1285.5,-85.761"/>
<polygon fill="midnightblue" stroke="midnightblue" points="1286.72,-82.4729 1276.16,-81.5806 1283.86,-88.8617 1286.72,-82.4729"/>
</g>
<!-- Node35&#45;&gt;Node4 -->
<g id="edge68" class="edge"><title>Node35&#45;&gt;Node4</title>
<path fill="none" stroke="midnightblue" d="M1218.99,-62.4964C1208.05,-60.2081 1196.08,-57.8557 1185,-56 1083.96,-39.0796 965.741,-25.242 894.7,-17.5648"/>
<polygon fill="midnightblue" stroke="midnightblue" points="894.885,-14.0646 884.568,-16.4772 894.138,-21.0246 894.885,-14.0646"/>
</g>
<!-- Node35&#45;&gt;Node6 -->
<g id="edge69" class="edge"><title>Node35&#45;&gt;Node6</title>
<path fill="none" stroke="midnightblue" d="M1275.34,-62.4035C1296.82,-52.3341 1332.62,-35.5522 1357.45,-23.9151"/>
<polygon fill="midnightblue" stroke="midnightblue" points="1359.13,-26.9941 1366.69,-19.5806 1356.15,-20.6559 1359.13,-26.9941"/>
</g>
<!-- Node37 -->
<g id="node38" class="node"><title>Node37</title>
<g id="a_node38"><a xlink:href="spec_2threshold_8h.html" target="_top" xlink:title="ODP threshold descriptor. ">
<polygon fill="white" stroke="black" points="258.5,-186.5 258.5,-205.5 381.5,-205.5 381.5,-186.5 258.5,-186.5"/>
<text text-anchor="middle" x="320" y="-193.5" font-family="Helvetica,sans-Serif" font-size="10.00">odp/api/spec/threshold.h</text>
</a>
</g>
</g>
<!-- Node36&#45;&gt;Node37 -->
<g id="edge79" class="edge"><title>Node36&#45;&gt;Node37</title>
<path fill="none" stroke="midnightblue" d="M317.764,-652.415C286.472,-636.986 228,-601.41 228,-551 228,-551 228,-551 228,-493 228,-369.101 17.6778,-344.81 95,-248 114.022,-224.184 189.951,-210.66 248.401,-203.609"/>
<polygon fill="midnightblue" stroke="midnightblue" points="248.827,-207.083 258.355,-202.449 248.017,-200.13 248.827,-207.083"/>
</g>
<!-- Node37&#45;&gt;Node1 -->
<g id="edge81" class="edge"><title>Node37&#45;&gt;Node1</title>
<path fill="none" stroke="midnightblue" d="M338.196,-186.403C359.509,-176.334 395.031,-159.552 419.663,-147.915"/>
<polygon fill="midnightblue" stroke="midnightblue" points="421.291,-151.017 428.838,-143.581 418.301,-144.688 421.291,-151.017"/>
</g>
<!-- Node37&#45;&gt;Node4 -->
<g id="edge80" class="edge"><title>Node37&#45;&gt;Node4</title>
<path fill="none" stroke="midnightblue" d="M320.409,-186.333C322.099,-161.347 330.693,-88.8676 374,-56 404.661,-32.7302 649.136,-18.9599 767.382,-13.5993"/>
<polygon fill="midnightblue" stroke="midnightblue" points="767.557,-17.095 777.391,-13.152 767.244,-10.102 767.557,-17.095"/>
</g>
<!-- Node37&#45;&gt;Node6 -->
<g id="edge82" class="edge"><title>Node37&#45;&gt;Node6</title>
<path fill="none" stroke="midnightblue" d="M381.544,-190.136C538.25,-177.14 948.843,-139.091 1075,-88 1097.41,-78.9235 1096.71,-65.376 1119,-56 1185.96,-27.8329 1269.42,-17.2784 1324.81,-13.3342"/>
<polygon fill="midnightblue" stroke="midnightblue" points="1325.07,-16.8248 1334.82,-12.6719 1324.61,-9.84012 1325.07,-16.8248"/>
</g>
</g>
</svg>
