<?xml version="1.0" encoding="UTF-8" standalone="no"?>
<!DOCTYPE svg PUBLIC "-//W3C//DTD SVG 1.1//EN"
 "http://www.w3.org/Graphics/SVG/1.1/DTD/svg11.dtd">
<!-- Generated by graphviz version 2.36.0 (20140111.2315)
 -->
<!-- Title: timer.h Pages: 1 -->
<svg width="785pt" height="196pt"
 viewBox="0.00 0.00 785.00 196.00" xmlns="http://www.w3.org/2000/svg" xmlns:xlink="http://www.w3.org/1999/xlink">
<g id="graph0" class="graph" transform="scale(1 1) rotate(0) translate(4 192)">
<title>timer.h</title>
<polygon fill="white" stroke="none" points="-4,4 -4,-192 781,-192 781,4 -4,4"/>
<!-- Node0 -->
<g id="node1" class="node"><title>Node0</title>
<polygon fill="#bfbfbf" stroke="black" points="416.5,-168.5 416.5,-187.5 463.5,-187.5 463.5,-168.5 416.5,-168.5"/>
<text text-anchor="middle" x="440" y="-175.5" font-family="Helvetica,sans-Serif" font-size="10.00">timer.h</text>
</g>
<!-- Node1 -->
<g id="node2" class="node"><title>Node1</title>
<g id="a_node2"><a xlink:href="api_2std__types_8h.html" target="_top" xlink:title="Standard C language types and definitions for ODP. ">
<polygon fill="white" stroke="black" points="148,-112.5 148,-131.5 250,-131.5 250,-112.5 148,-112.5"/>
<text text-anchor="middle" x="199" y="-119.5" font-family="Helvetica,sans-Serif" font-size="10.00">odp/api/std_types.h</text>
</a>
</g>
</g>
<!-- Node0&#45;&gt;Node1 -->
<g id="edge1" class="edge"><title>Node0&#45;&gt;Node1</title>
<path fill="none" stroke="midnightblue" d="M416.453,-171.724C377.368,-162.966 298.331,-145.257 247.08,-133.773"/>
<polygon fill="midnightblue" stroke="midnightblue" points="247.744,-130.335 237.22,-131.564 246.213,-137.166 247.744,-130.335"/>
</g>
<!-- Node7 -->
<g id="node8" class="node"><title>Node7</title>
<polygon fill="white" stroke="#bfbfbf" points="333.5,-112.5 333.5,-131.5 432.5,-131.5 432.5,-112.5 333.5,-112.5"/>
<text text-anchor="middle" x="383" y="-119.5" font-family="Helvetica,sans-Serif" font-size="10.00">odp/api/abi/event.h</text>
</g>
<!-- Node0&#45;&gt;Node7 -->
<g id="edge7" class="edge"><title>Node0&#45;&gt;Node7</title>
<path fill="none" stroke="midnightblue" d="M430.842,-168.324C422.499,-160.42 409.968,-148.548 399.823,-138.938"/>
<polygon fill="midnightblue" stroke="midnightblue" points="401.991,-136.171 392.325,-131.834 397.177,-141.252 401.991,-136.171"/>
</g>
<!-- Node8 -->
<g id="node9" class="node"><title>Node8</title>
<polygon fill="white" stroke="#bfbfbf" points="450.5,-112.5 450.5,-131.5 543.5,-131.5 543.5,-112.5 450.5,-112.5"/>
<text text-anchor="middle" x="497" y="-119.5" font-family="Helvetica,sans-Serif" font-size="10.00">odp/api/abi/pool.h</text>
</g>
<!-- Node0&#45;&gt;Node8 -->
<g id="edge8" class="edge"><title>Node0&#45;&gt;Node8</title>
<path fill="none" stroke="midnightblue" d="M449.158,-168.324C457.501,-160.42 470.032,-148.548 480.177,-138.938"/>
<polygon fill="midnightblue" stroke="midnightblue" points="482.823,-141.252 487.675,-131.834 478.009,-136.171 482.823,-141.252"/>
</g>
<!-- Node9 -->
<g id="node10" class="node"><title>Node9</title>
<polygon fill="white" stroke="#bfbfbf" points="561.5,-112.5 561.5,-131.5 662.5,-131.5 662.5,-112.5 561.5,-112.5"/>
<text text-anchor="middle" x="612" y="-119.5" font-family="Helvetica,sans-Serif" font-size="10.00">odp/api/abi/queue.h</text>
</g>
<!-- Node0&#45;&gt;Node9 -->
<g id="edge9" class="edge"><title>Node0&#45;&gt;Node9</title>
<path fill="none" stroke="midnightblue" d="M463.555,-169.605C492.238,-160.6 541.026,-145.282 574.802,-134.678"/>
<polygon fill="midnightblue" stroke="midnightblue" points="576.271,-137.886 584.764,-131.551 574.175,-131.207 576.271,-137.886"/>
</g>
<!-- Node10 -->
<g id="node11" class="node"><title>Node10</title>
<polygon fill="white" stroke="#bfbfbf" points="680.5,-112.5 680.5,-131.5 777.5,-131.5 777.5,-112.5 680.5,-112.5"/>
<text text-anchor="middle" x="729" y="-119.5" font-family="Helvetica,sans-Serif" font-size="10.00">odp/api/abi/timer.h</text>
</g>
<!-- Node0&#45;&gt;Node10 -->
<g id="edge10" class="edge"><title>Node0&#45;&gt;Node10</title>
<path fill="none" stroke="midnightblue" d="M463.65,-172.581C509.205,-164.069 610.215,-145.195 673.635,-133.345"/>
<polygon fill="midnightblue" stroke="midnightblue" points="674.289,-136.783 683.476,-131.506 673.003,-129.903 674.289,-136.783"/>
</g>
<!-- Node11 -->
<g id="node12" class="node"><title>Node11</title>
<g id="a_node12"><a xlink:href="api_2spec_2timer_8h.html" target="_top" xlink:title="ODP timer service. ">
<polygon fill="white" stroke="black" points="280.5,-56.5 280.5,-75.5 385.5,-75.5 385.5,-56.5 280.5,-56.5"/>
<text text-anchor="middle" x="333" y="-63.5" font-family="Helvetica,sans-Serif" font-size="10.00">odp/api/spec/timer.h</text>
</a>
</g>
</g>
<!-- Node0&#45;&gt;Node11 -->
<g id="edge11" class="edge"><title>Node0&#45;&gt;Node11</title>
<path fill="none" stroke="midnightblue" d="M416.259,-175.31C389.001,-171.952 345.426,-161.926 325,-132 315.704,-118.38 319.509,-99.3303 324.554,-85.3743"/>
<polygon fill="midnightblue" stroke="midnightblue" points="327.896,-86.4493 328.457,-75.8693 321.42,-83.7901 327.896,-86.4493"/>
</g>
<!-- Node2 -->
<g id="node3" class="node"><title>Node2</title>
<polygon fill="white" stroke="#bfbfbf" points="0,-56.5 0,-75.5 118,-75.5 118,-56.5 0,-56.5"/>
<text text-anchor="middle" x="59" y="-63.5" font-family="Helvetica,sans-Serif" font-size="10.00">odp/api/abi/std_types.h</text>
</g>
<!-- Node1&#45;&gt;Node2 -->
<g id="edge2" class="edge"><title>Node1&#45;&gt;Node2</title>
<path fill="none" stroke="midnightblue" d="M176.817,-112.444C153.572,-103.478 116.851,-89.314 90.5848,-79.1827"/>
<polygon fill="midnightblue" stroke="midnightblue" points="91.6692,-75.8497 81.0796,-75.5164 89.1501,-82.3807 91.6692,-75.8497"/>
</g>
<!-- Node3 -->
<g id="node4" class="node"><title>Node3</title>
<g id="a_node4"><a xlink:href="api_2spec_2std__types_8h.html" target="_top" xlink:title="Standard C language types and definitions for ODP. ">
<polygon fill="white" stroke="black" points="136,-56.5 136,-75.5 262,-75.5 262,-56.5 136,-56.5"/>
<text text-anchor="middle" x="199" y="-63.5" font-family="Helvetica,sans-Serif" font-size="10.00">odp/api/spec/std_types.h</text>
</a>
</g>
</g>
<!-- Node1&#45;&gt;Node3 -->
<g id="edge3" class="edge"><title>Node1&#45;&gt;Node3</title>
<path fill="none" stroke="midnightblue" d="M199,-112.083C199,-105.006 199,-94.8611 199,-85.9865"/>
<polygon fill="midnightblue" stroke="midnightblue" points="202.5,-85.751 199,-75.7511 195.5,-85.7511 202.5,-85.751"/>
</g>
<!-- Node4 -->
<g id="node5" class="node"><title>Node4</title>
<g id="a_node5"><a xlink:href="visibility__begin_8h_source.html" target="_top" xlink:title="odp/visibility_begin.h">
<polygon fill="white" stroke="black" points="279.5,-0.5 279.5,-19.5 386.5,-19.5 386.5,-0.5 279.5,-0.5"/>
<text text-anchor="middle" x="333" y="-7.5" font-family="Helvetica,sans-Serif" font-size="10.00">odp/visibility_begin.h</text>
</a>
</g>
</g>
<!-- Node3&#45;&gt;Node4 -->
<g id="edge4" class="edge"><title>Node3&#45;&gt;Node4</title>
<path fill="none" stroke="midnightblue" d="M220.233,-56.4435C242.384,-47.5171 277.319,-33.4387 302.436,-23.3168"/>
<polygon fill="midnightblue" stroke="midnightblue" points="303.9,-26.5006 311.867,-19.5164 301.283,-20.0079 303.9,-26.5006"/>
</g>
<!-- Node5 -->
<g id="node6" class="node"><title>Node5</title>
<polygon fill="white" stroke="#bfbfbf" points="93.5,-0.5 93.5,-19.5 142.5,-19.5 142.5,-0.5 93.5,-0.5"/>
<text text-anchor="middle" x="118" y="-7.5" font-family="Helvetica,sans-Serif" font-size="10.00">stdint.h</text>
</g>
<!-- Node3&#45;&gt;Node5 -->
<g id="edge5" class="edge"><title>Node3&#45;&gt;Node5</title>
<path fill="none" stroke="midnightblue" d="M185.986,-56.324C173.468,-47.979 154.318,-35.2122 139.529,-25.3524"/>
<polygon fill="midnightblue" stroke="midnightblue" points="141.244,-22.2894 130.982,-19.6545 137.361,-28.1137 141.244,-22.2894"/>
</g>
<!-- Node6 -->
<g id="node7" class="node"><title>Node6</title>
<g id="a_node7"><a xlink:href="visibility__end_8h_source.html" target="_top" xlink:title="odp/visibility_end.h">
<polygon fill="white" stroke="black" points="161,-0.5 161,-19.5 261,-19.5 261,-0.5 161,-0.5"/>
<text text-anchor="middle" x="211" y="-7.5" font-family="Helvetica,sans-Serif" font-size="10.00">odp/visibility_end.h</text>
</a>
</g>
</g>
<!-- Node3&#45;&gt;Node6 -->
<g id="edge6" class="edge"><title>Node3&#45;&gt;Node6</title>
<path fill="none" stroke="midnightblue" d="M200.982,-56.083C202.572,-48.9272 204.859,-38.6353 206.846,-29.6911"/>
<polygon fill="midnightblue" stroke="midnightblue" points="210.303,-30.2722 209.055,-19.7511 203.469,-28.7537 210.303,-30.2722"/>
</g>
<!-- Node11&#45;&gt;Node4 -->
<g id="edge12" class="edge"><title>Node11&#45;&gt;Node4</title>
<path fill="none" stroke="midnightblue" d="M333,-56.083C333,-49.0059 333,-38.8611 333,-29.9865"/>
<polygon fill="midnightblue" stroke="midnightblue" points="336.5,-29.751 333,-19.7511 329.5,-29.7511 336.5,-29.751"/>
</g>
<!-- Node11&#45;&gt;Node6 -->
<g id="edge13" class="edge"><title>Node11&#45;&gt;Node6</title>
<path fill="none" stroke="midnightblue" d="M313.669,-56.4435C293.68,-47.5961 262.257,-33.6875 239.436,-23.5865"/>
<polygon fill="midnightblue" stroke="midnightblue" points="240.802,-20.3635 230.241,-19.5164 237.968,-26.7645 240.802,-20.3635"/>
</g>
</g>
</svg>
