<?xml version="1.0" encoding="UTF-8" standalone="no"?>
<!DOCTYPE svg PUBLIC "-//W3C//DTD SVG 1.1//EN"
 "http://www.w3.org/Graphics/SVG/1.1/DTD/svg11.dtd">
<!-- Generated by graphviz version 2.36.0 (20140111.2315)
 -->
<!-- Title: crypto.h Pages: 1 -->
<svg width="1533pt" height="612pt"
 viewBox="0.00 0.00 1532.82 612.00" xmlns="http://www.w3.org/2000/svg" xmlns:xlink="http://www.w3.org/1999/xlink">
<g id="graph0" class="graph" transform="scale(1 1) rotate(0) translate(4 608)">
<title>crypto.h</title>
<polygon fill="white" stroke="none" points="-4,4 -4,-608 1528.82,-608 1528.82,4 -4,4"/>
<!-- Node0 -->
<g id="node1" class="node"><title>Node0</title>
<polygon fill="#bfbfbf" stroke="black" points="326.818,-584.5 326.818,-603.5 378.818,-603.5 378.818,-584.5 326.818,-584.5"/>
<text text-anchor="middle" x="352.818" y="-591.5" font-family="Helvetica,sans-Serif" font-size="10.00">crypto.h</text>
</g>
<!-- Node1 -->
<g id="node2" class="node"><title>Node1</title>
<g id="a_node2"><a xlink:href="api_2std__types_8h.html" target="_top" xlink:title="Standard C language types and definitions for ODP. ">
<polygon fill="white" stroke="black" points="351.818,-112.5 351.818,-131.5 453.818,-131.5 453.818,-112.5 351.818,-112.5"/>
<text text-anchor="middle" x="402.818" y="-119.5" font-family="Helvetica,sans-Serif" font-size="10.00">odp/api/std_types.h</text>
</a>
</g>
</g>
<!-- Node0&#45;&gt;Node1 -->
<g id="edge1" class="edge"><title>Node0&#45;&gt;Node1</title>
<path fill="none" stroke="midnightblue" d="M326.793,-588.613C256.982,-576.112 70.8177,-537.653 70.8177,-483 70.8177,-483 70.8177,-483 70.8177,-425 70.8177,-337.263 -36.3288,-307.994 13.8177,-236 51.4155,-182.022 241.795,-146.591 341.583,-131.425"/>
<polygon fill="midnightblue" stroke="midnightblue" points="342.163,-134.877 351.534,-129.934 341.126,-127.954 342.163,-134.877"/>
</g>
<!-- Node7 -->
<g id="node8" class="node"><title>Node7</title>
<polygon fill="white" stroke="#bfbfbf" points="178.818,-236.5 178.818,-255.5 282.818,-255.5 282.818,-236.5 178.818,-236.5"/>
<text text-anchor="middle" x="230.818" y="-243.5" font-family="Helvetica,sans-Serif" font-size="10.00">odp/api/abi/packet.h</text>
</g>
<!-- Node0&#45;&gt;Node7 -->
<g id="edge7" class="edge"><title>Node0&#45;&gt;Node7</title>
<path fill="none" stroke="midnightblue" d="M326.707,-587.301C282.297,-575.9 196.818,-545.799 196.818,-483 196.818,-483 196.818,-483 196.818,-369 196.818,-330.865 212.423,-288.405 222.489,-264.984"/>
<polygon fill="midnightblue" stroke="midnightblue" points="225.777,-266.206 226.649,-255.647 219.382,-263.357 225.777,-266.206"/>
</g>
<!-- Node8 -->
<g id="node9" class="node"><title>Node8</title>
<polygon fill="white" stroke="#bfbfbf" points="1422.82,-528.5 1422.82,-547.5 1524.82,-547.5 1524.82,-528.5 1422.82,-528.5"/>
<text text-anchor="middle" x="1473.82" y="-535.5" font-family="Helvetica,sans-Serif" font-size="10.00">odp/api/abi/crypto.h</text>
</g>
<!-- Node0&#45;&gt;Node8 -->
<g id="edge8" class="edge"><title>Node0&#45;&gt;Node8</title>
<path fill="none" stroke="midnightblue" d="M379.003,-592.8C497.975,-591.698 999.445,-584.979 1408.82,-548 1410.09,-547.885 1411.38,-547.762 1412.68,-547.633"/>
<polygon fill="midnightblue" stroke="midnightblue" points="1413.21,-551.096 1422.78,-546.534 1412.46,-544.137 1413.21,-551.096"/>
</g>
<!-- Node9 -->
<g id="node10" class="node"><title>Node9</title>
<polygon fill="white" stroke="#bfbfbf" points="22.8177,-236.5 22.8177,-255.5 122.818,-255.5 122.818,-236.5 22.8177,-236.5"/>
<text text-anchor="middle" x="72.8177" y="-243.5" font-family="Helvetica,sans-Serif" font-size="10.00">odp/api/abi/buffer.h</text>
</g>
<!-- Node0&#45;&gt;Node9 -->
<g id="edge9" class="edge"><title>Node0&#45;&gt;Node9</title>
<path fill="none" stroke="midnightblue" d="M326.701,-592.347C262.277,-590.228 98.0114,-581.584 56.8177,-548 32.9495,-528.541 32.8177,-513.795 32.8177,-483 32.8177,-483 32.8177,-483 32.8177,-369 32.8177,-330.167 51.3432,-287.686 63.1794,-264.508"/>
<polygon fill="midnightblue" stroke="midnightblue" points="66.3304,-266.036 67.9129,-255.56 60.1429,-262.763 66.3304,-266.036"/>
</g>
<!-- Node10 -->
<g id="node11" class="node"><title>Node10</title>
<polygon fill="white" stroke="#bfbfbf" points="1347.32,-236.5 1347.32,-255.5 1440.32,-255.5 1440.32,-236.5 1347.32,-236.5"/>
<text text-anchor="middle" x="1393.82" y="-243.5" font-family="Helvetica,sans-Serif" font-size="10.00">odp/api/abi/pool.h</text>
</g>
<!-- Node0&#45;&gt;Node10 -->
<g id="edge10" class="edge"><title>Node0&#45;&gt;Node10</title>
<path fill="none" stroke="midnightblue" d="M378.835,-593.063C539.956,-593.119 1394.82,-588.45 1394.82,-483 1394.82,-483 1394.82,-483 1394.82,-369 1394.82,-332.413 1394.36,-289.655 1394.07,-265.712"/>
<polygon fill="midnightblue" stroke="midnightblue" points="1397.56,-265.533 1393.94,-255.579 1390.56,-265.623 1397.56,-265.533"/>
</g>
<!-- Node11 -->
<g id="node12" class="node"><title>Node11</title>
<g id="a_node12"><a xlink:href="api_2queue_8h.html" target="_top" xlink:title="ODP queue. ">
<polygon fill="white" stroke="black" points="309.818,-528.5 309.818,-547.5 395.818,-547.5 395.818,-528.5 309.818,-528.5"/>
<text text-anchor="middle" x="352.818" y="-535.5" font-family="Helvetica,sans-Serif" font-size="10.00">odp/api/queue.h</text>
</a>
</g>
</g>
<!-- Node0&#45;&gt;Node11 -->
<g id="edge11" class="edge"><title>Node0&#45;&gt;Node11</title>
<path fill="none" stroke="midnightblue" d="M352.818,-584.083C352.818,-577.006 352.818,-566.861 352.818,-557.986"/>
<polygon fill="midnightblue" stroke="midnightblue" points="356.318,-557.751 352.818,-547.751 349.318,-557.751 356.318,-557.751"/>
</g>
<!-- Node31 -->
<g id="node32" class="node"><title>Node31</title>
<g id="a_node32"><a xlink:href="api_2spec_2crypto_8h.html" target="_top" xlink:title="ODP crypto. ">
<polygon fill="white" stroke="black" points="1074.82,-360.5 1074.82,-379.5 1184.82,-379.5 1184.82,-360.5 1074.82,-360.5"/>
<text text-anchor="middle" x="1129.82" y="-367.5" font-family="Helvetica,sans-Serif" font-size="10.00">odp/api/spec/crypto.h</text>
</a>
</g>
</g>
<!-- Node0&#45;&gt;Node31 -->
<g id="edge57" class="edge"><title>Node0&#45;&gt;Node31</title>
<path fill="none" stroke="midnightblue" d="M379.115,-585.486C493.942,-552.679 951.788,-421.866 1090.07,-382.357"/>
<polygon fill="midnightblue" stroke="midnightblue" points="1091.18,-385.678 1099.84,-379.566 1089.26,-378.948 1091.18,-385.678"/>
</g>
<!-- Node2 -->
<g id="node3" class="node"><title>Node2</title>
<polygon fill="white" stroke="#bfbfbf" points="282.818,-56.5 282.818,-75.5 400.818,-75.5 400.818,-56.5 282.818,-56.5"/>
<text text-anchor="middle" x="341.818" y="-63.5" font-family="Helvetica,sans-Serif" font-size="10.00">odp/api/abi/std_types.h</text>
</g>
<!-- Node1&#45;&gt;Node2 -->
<g id="edge2" class="edge"><title>Node1&#45;&gt;Node2</title>
<path fill="none" stroke="midnightblue" d="M393.017,-112.324C384,-104.341 370.412,-92.3128 359.5,-82.6529"/>
<polygon fill="midnightblue" stroke="midnightblue" points="361.604,-79.8416 351.797,-75.8339 356.964,-85.083 361.604,-79.8416"/>
</g>
<!-- Node3 -->
<g id="node4" class="node"><title>Node3</title>
<g id="a_node4"><a xlink:href="api_2spec_2std__types_8h.html" target="_top" xlink:title="Standard C language types and definitions for ODP. ">
<polygon fill="white" stroke="black" points="418.818,-56.5 418.818,-75.5 544.818,-75.5 544.818,-56.5 418.818,-56.5"/>
<text text-anchor="middle" x="481.818" y="-63.5" font-family="Helvetica,sans-Serif" font-size="10.00">odp/api/spec/std_types.h</text>
</a>
</g>
</g>
<!-- Node1&#45;&gt;Node3 -->
<g id="edge3" class="edge"><title>Node1&#45;&gt;Node3</title>
<path fill="none" stroke="midnightblue" d="M415.51,-112.324C427.719,-103.979 446.396,-91.2122 460.821,-81.3524"/>
<polygon fill="midnightblue" stroke="midnightblue" points="462.876,-84.1871 469.156,-75.6545 458.926,-78.4082 462.876,-84.1871"/>
</g>
<!-- Node4 -->
<g id="node5" class="node"><title>Node4</title>
<g id="a_node5"><a xlink:href="visibility__begin_8h_source.html" target="_top" xlink:title="odp/visibility_begin.h">
<polygon fill="white" stroke="black" points="596.318,-0.5 596.318,-19.5 703.318,-19.5 703.318,-0.5 596.318,-0.5"/>
<text text-anchor="middle" x="649.818" y="-7.5" font-family="Helvetica,sans-Serif" font-size="10.00">odp/visibility_begin.h</text>
</a>
</g>
</g>
<!-- Node3&#45;&gt;Node4 -->
<g id="edge4" class="edge"><title>Node3&#45;&gt;Node4</title>
<path fill="none" stroke="midnightblue" d="M508.438,-56.4435C536.823,-47.3196 581.954,-32.8133 613.57,-22.6509"/>
<polygon fill="midnightblue" stroke="midnightblue" points="614.873,-25.9087 623.322,-19.5164 612.731,-19.2445 614.873,-25.9087"/>
</g>
<!-- Node5 -->
<g id="node6" class="node"><title>Node5</title>
<polygon fill="white" stroke="#bfbfbf" points="457.318,-0.5 457.318,-19.5 506.318,-19.5 506.318,-0.5 457.318,-0.5"/>
<text text-anchor="middle" x="481.818" y="-7.5" font-family="Helvetica,sans-Serif" font-size="10.00">stdint.h</text>
</g>
<!-- Node3&#45;&gt;Node5 -->
<g id="edge5" class="edge"><title>Node3&#45;&gt;Node5</title>
<path fill="none" stroke="midnightblue" d="M481.818,-56.083C481.818,-49.0059 481.818,-38.8611 481.818,-29.9865"/>
<polygon fill="midnightblue" stroke="midnightblue" points="485.318,-29.751 481.818,-19.7511 478.318,-29.7511 485.318,-29.751"/>
</g>
<!-- Node6 -->
<g id="node7" class="node"><title>Node6</title>
<g id="a_node7"><a xlink:href="visibility__end_8h_source.html" target="_top" xlink:title="odp/visibility_end.h">
<polygon fill="white" stroke="black" points="1069.82,-0.5 1069.82,-19.5 1169.82,-19.5 1169.82,-0.5 1069.82,-0.5"/>
<text text-anchor="middle" x="1119.82" y="-7.5" font-family="Helvetica,sans-Serif" font-size="10.00">odp/visibility_end.h</text>
</a>
</g>
</g>
<!-- Node3&#45;&gt;Node6 -->
<g id="edge6" class="edge"><title>Node3&#45;&gt;Node6</title>
<path fill="none" stroke="midnightblue" d="M545.031,-59.6497C668.141,-49.2297 938.557,-26.3418 1059.4,-16.1137"/>
<polygon fill="midnightblue" stroke="midnightblue" points="1059.91,-19.5833 1069.58,-15.2523 1059.32,-12.6083 1059.91,-19.5833"/>
</g>
<!-- Node11&#45;&gt;Node1 -->
<g id="edge12" class="edge"><title>Node11&#45;&gt;Node1</title>
<path fill="none" stroke="midnightblue" d="M359.745,-528.398C369.352,-515.351 384.309,-490.158 372.818,-472 352.831,-440.417 325.419,-460.06 296.818,-436 216.24,-368.218 113.92,-325.234 169.818,-236 207.304,-176.157 286.503,-147.209 342.117,-133.773"/>
<polygon fill="midnightblue" stroke="midnightblue" points="342.912,-137.181 351.865,-131.517 341.333,-130.362 342.912,-137.181"/>
</g>
<!-- Node11&#45;&gt;Node9 -->
<g id="edge15" class="edge"><title>Node11&#45;&gt;Node9</title>
<path fill="none" stroke="midnightblue" d="M309.812,-534.288C246.033,-527.678 133.818,-504.968 133.818,-427 133.818,-427 133.818,-427 133.818,-369 133.818,-327.607 105.379,-285.862 87.3367,-263.544"/>
<polygon fill="midnightblue" stroke="midnightblue" points="89.8962,-261.149 80.7924,-255.729 84.5295,-265.643 89.8962,-261.149"/>
</g>
<!-- Node11&#45;&gt;Node10 -->
<g id="edge16" class="edge"><title>Node11&#45;&gt;Node10</title>
<path fill="none" stroke="midnightblue" d="M395.958,-536.876C588.13,-535.768 1356.82,-525.195 1356.82,-427 1356.82,-427 1356.82,-427 1356.82,-369 1356.82,-330.613 1373.8,-288.242 1384.75,-264.905"/>
<polygon fill="midnightblue" stroke="midnightblue" points="1388.05,-266.128 1389.28,-255.605 1381.76,-263.065 1388.05,-266.128"/>
</g>
<!-- Node12 -->
<g id="node13" class="node"><title>Node12</title>
<polygon fill="white" stroke="#bfbfbf" points="339.318,-236.5 339.318,-255.5 438.318,-255.5 438.318,-236.5 339.318,-236.5"/>
<text text-anchor="middle" x="388.818" y="-243.5" font-family="Helvetica,sans-Serif" font-size="10.00">odp/api/abi/event.h</text>
</g>
<!-- Node11&#45;&gt;Node12 -->
<g id="edge13" class="edge"><title>Node11&#45;&gt;Node12</title>
<path fill="none" stroke="midnightblue" d="M309.579,-528.68C288.979,-522.311 266.185,-511.207 253.818,-492 249.005,-484.526 251.445,-480.566 253.818,-472 277.807,-385.391 344.995,-298.648 374.555,-263.412"/>
<polygon fill="midnightblue" stroke="midnightblue" points="377.393,-265.478 381.21,-255.595 372.063,-260.94 377.393,-265.478"/>
</g>
<!-- Node13 -->
<g id="node14" class="node"><title>Node13</title>
<polygon fill="white" stroke="#bfbfbf" points="263.318,-472.5 263.318,-491.5 364.318,-491.5 364.318,-472.5 263.318,-472.5"/>
<text text-anchor="middle" x="313.818" y="-479.5" font-family="Helvetica,sans-Serif" font-size="10.00">odp/api/abi/queue.h</text>
</g>
<!-- Node11&#45;&gt;Node13 -->
<g id="edge14" class="edge"><title>Node11&#45;&gt;Node13</title>
<path fill="none" stroke="midnightblue" d="M346.378,-528.083C340.869,-520.455 332.786,-509.264 326.053,-499.941"/>
<polygon fill="midnightblue" stroke="midnightblue" points="328.83,-497.809 320.138,-491.751 323.155,-501.907 328.83,-497.809"/>
</g>
<!-- Node14 -->
<g id="node15" class="node"><title>Node14</title>
<g id="a_node15"><a xlink:href="api_2spec_2queue_8h.html" target="_top" xlink:title="ODP queue. ">
<polygon fill="white" stroke="black" points="436.818,-472.5 436.818,-491.5 546.818,-491.5 546.818,-472.5 436.818,-472.5"/>
<text text-anchor="middle" x="491.818" y="-479.5" font-family="Helvetica,sans-Serif" font-size="10.00">odp/api/spec/queue.h</text>
</a>
</g>
</g>
<!-- Node11&#45;&gt;Node14 -->
<g id="edge17" class="edge"><title>Node11&#45;&gt;Node14</title>
<path fill="none" stroke="midnightblue" d="M374.843,-528.444C397.922,-519.478 434.38,-505.314 460.459,-495.183"/>
<polygon fill="midnightblue" stroke="midnightblue" points="461.842,-498.4 469.896,-491.516 459.307,-491.875 461.842,-498.4"/>
</g>
<!-- Node14&#45;&gt;Node4 -->
<g id="edge18" class="edge"><title>Node14&#45;&gt;Node4</title>
<path fill="none" stroke="midnightblue" d="M440.435,-472.406C386.923,-460.171 310.818,-432.041 310.818,-371 310.818,-371 310.818,-371 310.818,-307 310.818,-192.892 180.859,-141.152 256.818,-56 267.64,-43.8676 477.544,-25.0573 586.043,-16.0901"/>
<polygon fill="midnightblue" stroke="midnightblue" points="586.536,-19.5614 596.216,-15.2536 585.963,-12.5849 586.536,-19.5614"/>
</g>
<!-- Node14&#45;&gt;Node6 -->
<g id="edge56" class="edge"><title>Node14&#45;&gt;Node6</title>
<path fill="none" stroke="midnightblue" d="M547.04,-476.776C691.402,-465.148 1076.92,-430.165 1193.82,-380 1268.36,-348.01 1318.82,-328.121 1318.82,-247 1318.82,-247 1318.82,-247 1318.82,-121 1318.82,-56.8154 1238.54,-29.789 1179.96,-18.6117"/>
<polygon fill="midnightblue" stroke="midnightblue" points="1180.5,-15.1513 1170.03,-16.8268 1179.26,-22.0409 1180.5,-15.1513"/>
</g>
<!-- Node15 -->
<g id="node16" class="node"><title>Node15</title>
<g id="a_node16"><a xlink:href="api_2event_8h.html" target="_top" xlink:title="ODP event. ">
<polygon fill="white" stroke="black" points="450.318,-416.5 450.318,-435.5 533.318,-435.5 533.318,-416.5 450.318,-416.5"/>
<text text-anchor="middle" x="491.818" y="-423.5" font-family="Helvetica,sans-Serif" font-size="10.00">odp/api/event.h</text>
</a>
</g>
</g>
<!-- Node14&#45;&gt;Node15 -->
<g id="edge19" class="edge"><title>Node14&#45;&gt;Node15</title>
<path fill="none" stroke="midnightblue" d="M491.818,-472.083C491.818,-465.006 491.818,-454.861 491.818,-445.986"/>
<polygon fill="midnightblue" stroke="midnightblue" points="495.318,-445.751 491.818,-435.751 488.318,-445.751 495.318,-445.751"/>
</g>
<!-- Node23 -->
<g id="node24" class="node"><title>Node23</title>
<g id="a_node24"><a xlink:href="queue__types_8h.html" target="_top" xlink:title="ODP queue types. ">
<polygon fill="white" stroke="black" points="894.318,-293 894.318,-323 995.318,-323 995.318,-293 894.318,-293"/>
<text text-anchor="start" x="902.318" y="-311" font-family="Helvetica,sans-Serif" font-size="10.00">odp/api/spec/queue</text>
<text text-anchor="middle" x="944.818" y="-300" font-family="Helvetica,sans-Serif" font-size="10.00">_types.h</text>
</a>
</g>
</g>
<!-- Node14&#45;&gt;Node23 -->
<g id="edge40" class="edge"><title>Node14&#45;&gt;Node23</title>
<path fill="none" stroke="midnightblue" d="M514.282,-472.47C584.703,-445.732 802.158,-363.167 898.294,-326.665"/>
<polygon fill="midnightblue" stroke="midnightblue" points="899.652,-329.893 907.759,-323.071 897.168,-323.349 899.652,-329.893"/>
</g>
<!-- Node15&#45;&gt;Node12 -->
<g id="edge20" class="edge"><title>Node15&#45;&gt;Node12</title>
<path fill="none" stroke="midnightblue" d="M480.479,-416.41C470.077,-408.051 454.809,-394.517 444.818,-380 419.224,-342.816 401.917,-292.092 393.91,-265.305"/>
<polygon fill="midnightblue" stroke="midnightblue" points="397.271,-264.33 391.133,-255.695 390.547,-266.274 397.271,-264.33"/>
</g>
<!-- Node16 -->
<g id="node17" class="node"><title>Node16</title>
<g id="a_node17"><a xlink:href="api_2spec_2event_8h.html" target="_top" xlink:title="ODP event. ">
<polygon fill="white" stroke="black" points="454.318,-360.5 454.318,-379.5 561.318,-379.5 561.318,-360.5 454.318,-360.5"/>
<text text-anchor="middle" x="507.818" y="-367.5" font-family="Helvetica,sans-Serif" font-size="10.00">odp/api/spec/event.h</text>
</a>
</g>
</g>
<!-- Node15&#45;&gt;Node16 -->
<g id="edge21" class="edge"><title>Node15&#45;&gt;Node16</title>
<path fill="none" stroke="midnightblue" d="M494.46,-416.083C496.603,-408.849 499.697,-398.409 502.367,-389.397"/>
<polygon fill="midnightblue" stroke="midnightblue" points="505.74,-390.333 505.225,-379.751 499.028,-388.345 505.74,-390.333"/>
</g>
<!-- Node16&#45;&gt;Node4 -->
<g id="edge22" class="edge"><title>Node16&#45;&gt;Node4</title>
<path fill="none" stroke="midnightblue" d="M503.504,-360.419C498.996,-351.398 491.767,-336.77 485.818,-324 467.753,-285.221 471.702,-270.798 446.818,-236 382.275,-145.744 200.167,-138.991 273.818,-56 284.059,-44.46 481.515,-25.6429 586.074,-16.4295"/>
<polygon fill="midnightblue" stroke="midnightblue" points="586.544,-19.9018 596.2,-15.5417 585.932,-12.9286 586.544,-19.9018"/>
</g>
<!-- Node16&#45;&gt;Node6 -->
<g id="edge39" class="edge"><title>Node16&#45;&gt;Node6</title>
<path fill="none" stroke="midnightblue" d="M561.465,-368.495C711.611,-365.901 1131.08,-350.197 1222.82,-256 1245.69,-232.514 1242.82,-217.784 1242.82,-185 1242.82,-185 1242.82,-185 1242.82,-121 1242.82,-72.4804 1188.98,-40.0141 1152.54,-23.5966"/>
<polygon fill="midnightblue" stroke="midnightblue" points="1153.81,-20.3315 1143.24,-19.5798 1151.04,-26.7578 1153.81,-20.3315"/>
</g>
<!-- Node17 -->
<g id="node18" class="node"><title>Node17</title>
<g id="a_node18"><a xlink:href="api_2packet_8h.html" target="_top" xlink:title="ODP packet descriptor. ">
<polygon fill="white" stroke="black" points="495.318,-298.5 495.318,-317.5 584.318,-317.5 584.318,-298.5 495.318,-298.5"/>
<text text-anchor="middle" x="539.818" y="-305.5" font-family="Helvetica,sans-Serif" font-size="10.00">odp/api/packet.h</text>
</a>
</g>
</g>
<!-- Node16&#45;&gt;Node17 -->
<g id="edge23" class="edge"><title>Node16&#45;&gt;Node17</title>
<path fill="none" stroke="midnightblue" d="M512.403,-360.403C517.107,-351.582 524.56,-337.608 530.508,-326.455"/>
<polygon fill="midnightblue" stroke="midnightblue" points="533.624,-328.051 535.241,-317.581 527.447,-324.757 533.624,-328.051"/>
</g>
<!-- Node17&#45;&gt;Node1 -->
<g id="edge24" class="edge"><title>Node17&#45;&gt;Node1</title>
<path fill="none" stroke="midnightblue" d="M533.21,-298.125C511.734,-269.282 443.666,-177.862 415.357,-139.841"/>
<polygon fill="midnightblue" stroke="midnightblue" points="418.139,-137.716 409.359,-131.786 412.524,-141.897 418.139,-137.716"/>
</g>
<!-- Node17&#45;&gt;Node7 -->
<g id="edge27" class="edge"><title>Node17&#45;&gt;Node7</title>
<path fill="none" stroke="midnightblue" d="M495.874,-298.467C440.273,-287.671 344.558,-269.086 284.636,-257.45"/>
<polygon fill="midnightblue" stroke="midnightblue" points="285.094,-253.974 274.61,-255.503 283.76,-260.845 285.094,-253.974"/>
</g>
<!-- Node17&#45;&gt;Node9 -->
<g id="edge28" class="edge"><title>Node17&#45;&gt;Node9</title>
<path fill="none" stroke="midnightblue" d="M495.04,-301.247C410.677,-290.408 228.148,-266.957 133.101,-254.745"/>
<polygon fill="midnightblue" stroke="midnightblue" points="133.433,-251.259 123.069,-253.456 132.541,-258.202 133.433,-251.259"/>
</g>
<!-- Node17&#45;&gt;Node10 -->
<g id="edge29" class="edge"><title>Node17&#45;&gt;Node10</title>
<path fill="none" stroke="midnightblue" d="M584.53,-303.859C728.179,-293.766 1177.81,-262.176 1337.15,-250.982"/>
<polygon fill="midnightblue" stroke="midnightblue" points="1337.48,-254.467 1347.22,-250.274 1336.99,-247.484 1337.48,-254.467"/>
</g>
<!-- Node17&#45;&gt;Node12 -->
<g id="edge25" class="edge"><title>Node17&#45;&gt;Node12</title>
<path fill="none" stroke="midnightblue" d="M518.183,-298.403C492.393,-288.156 449.107,-270.956 419.778,-259.302"/>
<polygon fill="midnightblue" stroke="midnightblue" points="420.998,-256.021 410.412,-255.581 418.413,-262.526 420.998,-256.021"/>
</g>
<!-- Node18 -->
<g id="node19" class="node"><title>Node18</title>
<polygon fill="white" stroke="#bfbfbf" points="702.318,-236.5 702.318,-255.5 819.318,-255.5 819.318,-236.5 702.318,-236.5"/>
<text text-anchor="middle" x="760.818" y="-243.5" font-family="Helvetica,sans-Serif" font-size="10.00">odp/api/abi/packet_io.h</text>
</g>
<!-- Node17&#45;&gt;Node18 -->
<g id="edge26" class="edge"><title>Node17&#45;&gt;Node18</title>
<path fill="none" stroke="midnightblue" d="M571.482,-298.403C610.376,-287.844 676.46,-269.903 719.366,-258.254"/>
<polygon fill="midnightblue" stroke="midnightblue" points="720.479,-261.578 729.213,-255.581 718.645,-254.823 720.479,-261.578"/>
</g>
<!-- Node19 -->
<g id="node20" class="node"><title>Node19</title>
<g id="a_node20"><a xlink:href="api_2spec_2packet_8h.html" target="_top" xlink:title="ODP packet descriptor. ">
<polygon fill="white" stroke="black" points="571.318,-236.5 571.318,-255.5 684.318,-255.5 684.318,-236.5 571.318,-236.5"/>
<text text-anchor="middle" x="627.818" y="-243.5" font-family="Helvetica,sans-Serif" font-size="10.00">odp/api/spec/packet.h</text>
</a>
</g>
</g>
<!-- Node17&#45;&gt;Node19 -->
<g id="edge30" class="edge"><title>Node17&#45;&gt;Node19</title>
<path fill="none" stroke="midnightblue" d="M552.426,-298.403C566.541,-288.78 589.649,-273.024 606.567,-261.489"/>
<polygon fill="midnightblue" stroke="midnightblue" points="608.942,-264.106 615.233,-255.581 604.999,-258.322 608.942,-264.106"/>
</g>
<!-- Node19&#45;&gt;Node4 -->
<g id="edge31" class="edge"><title>Node19&#45;&gt;Node4</title>
<path fill="none" stroke="midnightblue" d="M620.405,-236.411C613.541,-227.844 603.812,-213.979 599.818,-200 595.911,-186.325 597.962,-182.101 599.818,-168 606.542,-116.908 612.634,-104.583 629.818,-56 633.025,-46.9325 637.276,-37.1441 641.033,-29.0195"/>
<polygon fill="midnightblue" stroke="midnightblue" points="644.285,-30.3322 645.414,-19.7978 637.962,-27.3287 644.285,-30.3322"/>
</g>
<!-- Node19&#45;&gt;Node6 -->
<g id="edge38" class="edge"><title>Node19&#45;&gt;Node6</title>
<path fill="none" stroke="midnightblue" d="M684.523,-237.033C687.327,-236.675 690.103,-236.329 692.818,-236 769.56,-226.697 970.213,-235.626 1038.82,-200 1103.68,-166.319 1121.19,-144.443 1146.82,-76 1153.01,-59.4496 1143.59,-40.8539 1134.22,-27.806"/>
<polygon fill="midnightblue" stroke="midnightblue" points="1136.85,-25.4812 1127.93,-19.7526 1131.33,-29.7888 1136.85,-25.4812"/>
</g>
<!-- Node20 -->
<g id="node21" class="node"><title>Node20</title>
<g id="a_node21"><a xlink:href="api_2time_8h.html" target="_top" xlink:title="ODP time. ">
<polygon fill="white" stroke="black" points="608.818,-174.5 608.818,-193.5 686.818,-193.5 686.818,-174.5 608.818,-174.5"/>
<text text-anchor="middle" x="647.818" y="-181.5" font-family="Helvetica,sans-Serif" font-size="10.00">odp/api/time.h</text>
</a>
</g>
</g>
<!-- Node19&#45;&gt;Node20 -->
<g id="edge32" class="edge"><title>Node19&#45;&gt;Node20</title>
<path fill="none" stroke="midnightblue" d="M630.683,-236.403C633.564,-227.76 638.094,-214.17 641.773,-203.134"/>
<polygon fill="midnightblue" stroke="midnightblue" points="645.116,-204.174 644.958,-193.581 638.475,-201.961 645.116,-204.174"/>
</g>
<!-- Node20&#45;&gt;Node1 -->
<g id="edge33" class="edge"><title>Node20&#45;&gt;Node1</title>
<path fill="none" stroke="midnightblue" d="M612.975,-174.467C569.437,-163.805 494.877,-145.545 447.269,-133.886"/>
<polygon fill="midnightblue" stroke="midnightblue" points="448.085,-130.483 437.54,-131.503 446.42,-137.282 448.085,-130.483"/>
</g>
<!-- Node21 -->
<g id="node22" class="node"><title>Node21</title>
<polygon fill="white" stroke="#bfbfbf" points="646.818,-112.5 646.818,-131.5 740.818,-131.5 740.818,-112.5 646.818,-112.5"/>
<text text-anchor="middle" x="693.818" y="-119.5" font-family="Helvetica,sans-Serif" font-size="10.00">odp/api/abi/time.h</text>
</g>
<!-- Node20&#45;&gt;Node21 -->
<g id="edge34" class="edge"><title>Node20&#45;&gt;Node21</title>
<path fill="none" stroke="midnightblue" d="M654.408,-174.403C661.308,-165.403 672.32,-151.041 680.951,-139.782"/>
<polygon fill="midnightblue" stroke="midnightblue" points="683.933,-141.646 687.239,-131.581 678.377,-137.387 683.933,-141.646"/>
</g>
<!-- Node22 -->
<g id="node23" class="node"><title>Node22</title>
<g id="a_node23"><a xlink:href="api_2spec_2time_8h.html" target="_top" xlink:title="ODP time. ">
<polygon fill="white" stroke="black" points="638.818,-56.5 638.818,-75.5 740.818,-75.5 740.818,-56.5 638.818,-56.5"/>
<text text-anchor="middle" x="689.818" y="-63.5" font-family="Helvetica,sans-Serif" font-size="10.00">odp/api/spec/time.h</text>
</a>
</g>
</g>
<!-- Node20&#45;&gt;Node22 -->
<g id="edge35" class="edge"><title>Node20&#45;&gt;Node22</title>
<path fill="none" stroke="midnightblue" d="M643.63,-174.254C637.628,-160.396 628.296,-132.832 637.818,-112 643.595,-99.3602 654.87,-88.911 665.448,-81.2737"/>
<polygon fill="midnightblue" stroke="midnightblue" points="667.666,-84.0009 674.034,-75.5333 663.776,-78.1817 667.666,-84.0009"/>
</g>
<!-- Node22&#45;&gt;Node4 -->
<g id="edge36" class="edge"><title>Node22&#45;&gt;Node4</title>
<path fill="none" stroke="midnightblue" d="M683.213,-56.083C677.562,-48.4554 669.273,-37.2645 662.366,-27.9408"/>
<polygon fill="midnightblue" stroke="midnightblue" points="665.065,-25.7034 656.3,-19.7511 659.44,-29.87 665.065,-25.7034"/>
</g>
<!-- Node22&#45;&gt;Node6 -->
<g id="edge37" class="edge"><title>Node22&#45;&gt;Node6</title>
<path fill="none" stroke="midnightblue" d="M740.833,-58.5934C820.571,-48.5798 974.4,-29.2618 1059.51,-18.5741"/>
<polygon fill="midnightblue" stroke="midnightblue" points="1060.05,-22.0335 1069.53,-17.3147 1059.18,-15.0881 1060.05,-22.0335"/>
</g>
<!-- Node23&#45;&gt;Node4 -->
<g id="edge41" class="edge"><title>Node23&#45;&gt;Node4</title>
<path fill="none" stroke="midnightblue" d="M893.994,-303.909C794.848,-297.358 583.389,-280.634 561.818,-256 500.409,-185.872 595.07,-69.7149 634.181,-27.2165"/>
<polygon fill="midnightblue" stroke="midnightblue" points="636.911,-29.4223 641.2,-19.7344 631.806,-24.6331 636.911,-29.4223"/>
</g>
<!-- Node23&#45;&gt;Node6 -->
<g id="edge55" class="edge"><title>Node23&#45;&gt;Node6</title>
<path fill="none" stroke="midnightblue" d="M968.164,-292.845C1009.53,-266.52 1095.59,-205.935 1140.82,-132 1159.11,-102.107 1174.67,-88.6023 1161.82,-56 1157.3,-44.5479 1148.35,-34.291 1139.86,-26.4724"/>
<polygon fill="midnightblue" stroke="midnightblue" points="1141.9,-23.6113 1132.03,-19.7638 1137.35,-28.9275 1141.9,-23.6113"/>
</g>
<!-- Node24 -->
<g id="node25" class="node"><title>Node24</title>
<g id="a_node25"><a xlink:href="api_2schedule__types_8h.html" target="_top" xlink:title="ODP schedule. ">
<polygon fill="white" stroke="black" points="880.818,-236.5 880.818,-255.5 1008.82,-255.5 1008.82,-236.5 880.818,-236.5"/>
<text text-anchor="middle" x="944.818" y="-243.5" font-family="Helvetica,sans-Serif" font-size="10.00">odp/api/schedule_types.h</text>
</a>
</g>
</g>
<!-- Node23&#45;&gt;Node24 -->
<g id="edge42" class="edge"><title>Node23&#45;&gt;Node24</title>
<path fill="none" stroke="midnightblue" d="M944.818,-292.781C944.818,-284.781 944.818,-274.689 944.818,-266.017"/>
<polygon fill="midnightblue" stroke="midnightblue" points="948.318,-265.73 944.818,-255.731 941.318,-265.731 948.318,-265.73"/>
</g>
<!-- Node29 -->
<g id="node30" class="node"><title>Node29</title>
<g id="a_node30"><a xlink:href="deprecated_8h.html" target="_top" xlink:title="Control deprecated API definitions. ">
<polygon fill="white" stroke="black" points="1107.32,-236.5 1107.32,-255.5 1214.32,-255.5 1214.32,-236.5 1107.32,-236.5"/>
<text text-anchor="middle" x="1160.82" y="-243.5" font-family="Helvetica,sans-Serif" font-size="10.00">odp/api/deprecated.h</text>
</a>
</g>
</g>
<!-- Node23&#45;&gt;Node29 -->
<g id="edge51" class="edge"><title>Node23&#45;&gt;Node29</title>
<path fill="none" stroke="midnightblue" d="M995.46,-292.933C1033.48,-282.372 1084.86,-268.1 1120.2,-258.282"/>
<polygon fill="midnightblue" stroke="midnightblue" points="1121.47,-261.562 1130.17,-255.513 1119.6,-254.817 1121.47,-261.562"/>
</g>
<!-- Node25 -->
<g id="node26" class="node"><title>Node25</title>
<polygon fill="white" stroke="#bfbfbf" points="791.818,-169 791.818,-199 897.818,-199 897.818,-169 791.818,-169"/>
<text text-anchor="start" x="799.818" y="-187" font-family="Helvetica,sans-Serif" font-size="10.00">odp/api/abi/schedule</text>
<text text-anchor="middle" x="844.818" y="-176" font-family="Helvetica,sans-Serif" font-size="10.00">_types.h</text>
</g>
<!-- Node24&#45;&gt;Node25 -->
<g id="edge43" class="edge"><title>Node24&#45;&gt;Node25</title>
<path fill="none" stroke="midnightblue" d="M930.49,-236.403C916.693,-228.125 895.335,-215.311 877.397,-204.547"/>
<polygon fill="midnightblue" stroke="midnightblue" points="878.761,-201.285 868.386,-199.141 875.16,-207.287 878.761,-201.285"/>
</g>
<!-- Node26 -->
<g id="node27" class="node"><title>Node26</title>
<g id="a_node27"><a xlink:href="api_2spec_2schedule__types_8h.html" target="_top" xlink:title="ODP schedule types. ">
<polygon fill="white" stroke="black" points="915.818,-169 915.818,-199 1029.82,-199 1029.82,-169 915.818,-169"/>
<text text-anchor="start" x="923.818" y="-187" font-family="Helvetica,sans-Serif" font-size="10.00">odp/api/spec/schedule</text>
<text text-anchor="middle" x="972.818" y="-176" font-family="Helvetica,sans-Serif" font-size="10.00">_types.h</text>
</a>
</g>
</g>
<!-- Node24&#45;&gt;Node26 -->
<g id="edge44" class="edge"><title>Node24&#45;&gt;Node26</title>
<path fill="none" stroke="midnightblue" d="M948.829,-236.403C952.232,-229.113 957.276,-218.303 961.863,-208.475"/>
<polygon fill="midnightblue" stroke="midnightblue" points="965.161,-209.683 966.219,-199.141 958.818,-206.723 965.161,-209.683"/>
</g>
<!-- Node26&#45;&gt;Node4 -->
<g id="edge45" class="edge"><title>Node26&#45;&gt;Node4</title>
<path fill="none" stroke="midnightblue" d="M925.262,-168.982C901.296,-160.551 872.573,-148.267 849.818,-132 813.186,-105.812 820.303,-80.9498 782.818,-56 758.723,-39.9629 728.367,-29.1216 702.742,-22.1064"/>
<polygon fill="midnightblue" stroke="midnightblue" points="703.373,-18.6538 692.813,-19.5118 701.603,-25.4264 703.373,-18.6538"/>
</g>
<!-- Node26&#45;&gt;Node6 -->
<g id="edge50" class="edge"><title>Node26&#45;&gt;Node6</title>
<path fill="none" stroke="midnightblue" d="M971.449,-168.913C969.762,-143.283 969.974,-88.6642 997.818,-56 1013.45,-37.6667 1037.24,-26.7986 1059.68,-20.3575"/>
<polygon fill="midnightblue" stroke="midnightblue" points="1060.74,-23.6991 1069.52,-17.779 1058.96,-16.9276 1060.74,-23.6991"/>
</g>
<!-- Node27 -->
<g id="node28" class="node"><title>Node27</title>
<g id="a_node28"><a xlink:href="support_8h.html" target="_top" xlink:title="ODP support API &#45; platform specific header. ">
<polygon fill="white" stroke="black" points="858.818,-112.5 858.818,-131.5 950.818,-131.5 950.818,-112.5 858.818,-112.5"/>
<text text-anchor="middle" x="904.818" y="-119.5" font-family="Helvetica,sans-Serif" font-size="10.00">odp/api/support.h</text>
</a>
</g>
</g>
<!-- Node26&#45;&gt;Node27 -->
<g id="edge46" class="edge"><title>Node26&#45;&gt;Node27</title>
<path fill="none" stroke="midnightblue" d="M956.703,-168.781C946.414,-159.703 933.071,-147.929 922.492,-138.595"/>
<polygon fill="midnightblue" stroke="midnightblue" points="924.526,-135.722 914.712,-131.731 919.895,-140.971 924.526,-135.722"/>
</g>
<!-- Node28 -->
<g id="node29" class="node"><title>Node28</title>
<g id="a_node29"><a xlink:href="spec_2support_8h.html" target="_top" xlink:title="ODP support API. ">
<polygon fill="white" stroke="black" points="834.818,-56.5 834.818,-75.5 950.818,-75.5 950.818,-56.5 834.818,-56.5"/>
<text text-anchor="middle" x="892.818" y="-63.5" font-family="Helvetica,sans-Serif" font-size="10.00">odp/api/spec/support.h</text>
</a>
</g>
</g>
<!-- Node27&#45;&gt;Node28 -->
<g id="edge47" class="edge"><title>Node27&#45;&gt;Node28</title>
<path fill="none" stroke="midnightblue" d="M902.836,-112.083C901.246,-104.927 898.959,-94.6353 896.971,-85.6911"/>
<polygon fill="midnightblue" stroke="midnightblue" points="900.348,-84.7537 894.762,-75.7511 893.515,-86.2722 900.348,-84.7537"/>
</g>
<!-- Node28&#45;&gt;Node4 -->
<g id="edge48" class="edge"><title>Node28&#45;&gt;Node4</title>
<path fill="none" stroke="midnightblue" d="M854.314,-56.4435C812.012,-47.0431 743.999,-31.9291 698.145,-21.7393"/>
<polygon fill="midnightblue" stroke="midnightblue" points="698.663,-18.2692 688.142,-19.5164 697.144,-25.1025 698.663,-18.2692"/>
</g>
<!-- Node28&#45;&gt;Node6 -->
<g id="edge49" class="edge"><title>Node28&#45;&gt;Node6</title>
<path fill="none" stroke="midnightblue" d="M928.787,-56.4435C968.137,-47.0826 1031.3,-32.0561 1074.13,-21.868"/>
<polygon fill="midnightblue" stroke="midnightblue" points="1075.1,-25.2358 1084.02,-19.5164 1073.48,-18.4258 1075.1,-25.2358"/>
</g>
<!-- Node30 -->
<g id="node31" class="node"><title>Node30</title>
<g id="a_node31"><a xlink:href="spec_2deprecated_8h.html" target="_top" xlink:title="Macro for deprecated API definitions. ">
<polygon fill="white" stroke="black" points="1007.32,-56.5 1007.32,-75.5 1138.32,-75.5 1138.32,-56.5 1007.32,-56.5"/>
<text text-anchor="middle" x="1072.82" y="-63.5" font-family="Helvetica,sans-Serif" font-size="10.00">odp/api/spec/deprecated.h</text>
</a>
</g>
</g>
<!-- Node29&#45;&gt;Node30 -->
<g id="edge52" class="edge"><title>Node29&#45;&gt;Node30</title>
<path fill="none" stroke="midnightblue" d="M1156.57,-236.415C1143.02,-208.992 1100.55,-123.099 1081.83,-85.2356"/>
<polygon fill="midnightblue" stroke="midnightblue" points="1084.8,-83.3317 1077.23,-75.9185 1078.52,-86.434 1084.8,-83.3317"/>
</g>
<!-- Node30&#45;&gt;Node4 -->
<g id="edge53" class="edge"><title>Node30&#45;&gt;Node4</title>
<path fill="none" stroke="midnightblue" d="M1007.19,-56.6217C927.237,-46.4153 793.065,-29.2869 713.846,-19.1739"/>
<polygon fill="midnightblue" stroke="midnightblue" points="713.881,-15.65 703.518,-17.8554 712.995,-22.5936 713.881,-15.65"/>
</g>
<!-- Node30&#45;&gt;Node6 -->
<g id="edge54" class="edge"><title>Node30&#45;&gt;Node6</title>
<path fill="none" stroke="midnightblue" d="M1080.58,-56.083C1087.35,-48.2982 1097.36,-36.8015 1105.57,-27.3665"/>
<polygon fill="midnightblue" stroke="midnightblue" points="1108.28,-29.592 1112.2,-19.7511 1103,-24.9963 1108.28,-29.592"/>
</g>
<!-- Node31&#45;&gt;Node4 -->
<g id="edge58" class="edge"><title>Node31&#45;&gt;Node4</title>
<path fill="none" stroke="midnightblue" d="M1074.69,-363.973C1012.25,-357.406 915.207,-344.296 884.818,-324 846.067,-298.119 859.081,-270.556 827.818,-236 810.634,-217.007 796.509,-221.646 782.818,-200 747.667,-144.423 790.576,-106.8 748.818,-56 735.852,-40.2268 716.173,-29.7495 697.766,-22.9085"/>
<polygon fill="midnightblue" stroke="midnightblue" points="698.894,-19.5952 688.299,-19.6538 696.618,-26.2149 698.894,-19.5952"/>
</g>
<!-- Node31&#45;&gt;Node6 -->
<g id="edge62" class="edge"><title>Node31&#45;&gt;Node6</title>
<path fill="none" stroke="midnightblue" d="M1158.22,-360.44C1201.96,-345.297 1280.82,-309.35 1280.82,-247 1280.82,-247 1280.82,-247 1280.82,-121 1280.82,-90.2048 1278.99,-77.3763 1256.82,-56 1236.12,-36.045 1206.43,-24.9378 1179.97,-18.7559"/>
<polygon fill="midnightblue" stroke="midnightblue" points="1180.53,-15.2956 1170.02,-16.6196 1179.06,-22.1398 1180.53,-15.2956"/>
</g>
<!-- Node31&#45;&gt;Node17 -->
<g id="edge61" class="edge"><title>Node31&#45;&gt;Node17</title>
<path fill="none" stroke="midnightblue" d="M1074.58,-363.382C961.932,-351.927 706.886,-325.99 594.615,-314.573"/>
<polygon fill="midnightblue" stroke="midnightblue" points="594.83,-311.076 584.527,-313.547 594.121,-318.041 594.83,-311.076"/>
</g>
<!-- Node31&#45;&gt;Node27 -->
<g id="edge60" class="edge"><title>Node31&#45;&gt;Node27</title>
<path fill="none" stroke="midnightblue" d="M1128.42,-360.307C1122.99,-329.403 1100.49,-223.731 1038.82,-168 1017.34,-148.596 987.218,-137.52 960.968,-131.217"/>
<polygon fill="midnightblue" stroke="midnightblue" points="961.644,-127.782 951.123,-129.027 960.124,-134.615 961.644,-127.782"/>
</g>
<!-- Node31&#45;&gt;Node29 -->
<g id="edge59" class="edge"><title>Node31&#45;&gt;Node29</title>
<path fill="none" stroke="midnightblue" d="M1132.05,-360.226C1137.05,-340.53 1149.27,-292.437 1156.07,-265.7"/>
<polygon fill="midnightblue" stroke="midnightblue" points="1159.54,-266.248 1158.61,-255.694 1152.75,-264.524 1159.54,-266.248"/>
</g>
</g>
</svg>
