<?xml version="1.0" encoding="UTF-8" standalone="no"?>
<!DOCTYPE svg PUBLIC "-//W3C//DTD SVG 1.1//EN"
 "http://www.w3.org/Graphics/SVG/1.1/DTD/svg11.dtd">
<!-- Generated by graphviz version 2.36.0 (20140111.2315)
 -->
<!-- Title: spinlock_recursive.h Pages: 1 -->
<svg width="295pt" height="152pt"
 viewBox="0.00 0.00 295.00 152.00" xmlns="http://www.w3.org/2000/svg" xmlns:xlink="http://www.w3.org/1999/xlink">
<g id="graph0" class="graph" transform="scale(1 1) rotate(0) translate(4 148)">
<title>spinlock_recursive.h</title>
<polygon fill="white" stroke="none" points="-4,4 -4,-148 291,-148 291,4 -4,4"/>
<!-- Node0 -->
<g id="node1" class="node"><title>Node0</title>
<polygon fill="#bfbfbf" stroke="black" points="60,-124.5 60,-143.5 166,-143.5 166,-124.5 60,-124.5"/>
<text text-anchor="middle" x="113" y="-131.5" font-family="Helvetica,sans-Serif" font-size="10.00">spinlock_recursive.h</text>
</g>
<!-- Node1 -->
<g id="node2" class="node"><title>Node1</title>
<polygon fill="white" stroke="#bfbfbf" points="-0.5,-57 -0.5,-87 102.5,-87 102.5,-57 -0.5,-57"/>
<text text-anchor="start" x="7.5" y="-75" font-family="Helvetica,sans-Serif" font-size="10.00">odp/api/abi/spinlock</text>
<text text-anchor="middle" x="51" y="-64" font-family="Helvetica,sans-Serif" font-size="10.00">_recursive.h</text>
</g>
<!-- Node0&#45;&gt;Node1 -->
<g id="edge1" class="edge"><title>Node0&#45;&gt;Node1</title>
<path fill="none" stroke="midnightblue" d="M104.117,-124.403C96.0338,-116.581 83.7646,-104.708 73.0538,-94.3424"/>
<polygon fill="midnightblue" stroke="midnightblue" points="75.2322,-91.5799 65.6122,-87.1408 70.3642,-96.6102 75.2322,-91.5799"/>
</g>
<!-- Node2 -->
<g id="node3" class="node"><title>Node2</title>
<g id="a_node3"><a xlink:href="api_2spec_2spinlock__recursive_8h.html" target="_top" xlink:title="ODP recursive spinlock. ">
<polygon fill="white" stroke="black" points="120.5,-57 120.5,-87 231.5,-87 231.5,-57 120.5,-57"/>
<text text-anchor="start" x="128.5" y="-75" font-family="Helvetica,sans-Serif" font-size="10.00">odp/api/spec/spinlock</text>
<text text-anchor="middle" x="176" y="-64" font-family="Helvetica,sans-Serif" font-size="10.00">_recursive.h</text>
</a>
</g>
</g>
<!-- Node0&#45;&gt;Node2 -->
<g id="edge2" class="edge"><title>Node0&#45;&gt;Node2</title>
<path fill="none" stroke="midnightblue" d="M122.026,-124.403C130.32,-116.505 142.949,-104.477 153.907,-94.0409"/>
<polygon fill="midnightblue" stroke="midnightblue" points="156.325,-96.5719 161.152,-87.1408 151.497,-91.5029 156.325,-96.5719"/>
</g>
<!-- Node3 -->
<g id="node4" class="node"><title>Node3</title>
<g id="a_node4"><a xlink:href="visibility__begin_8h_source.html" target="_top" xlink:title="odp/visibility_begin.h">
<polygon fill="white" stroke="black" points="61.5,-0.5 61.5,-19.5 168.5,-19.5 168.5,-0.5 61.5,-0.5"/>
<text text-anchor="middle" x="115" y="-7.5" font-family="Helvetica,sans-Serif" font-size="10.00">odp/visibility_begin.h</text>
</a>
</g>
</g>
<!-- Node2&#45;&gt;Node3 -->
<g id="edge3" class="edge"><title>Node2&#45;&gt;Node3</title>
<path fill="none" stroke="midnightblue" d="M161.544,-56.7808C152.406,-47.7925 140.581,-36.162 131.138,-26.8731"/>
<polygon fill="midnightblue" stroke="midnightblue" points="133.46,-24.2477 123.876,-19.7305 128.551,-29.2382 133.46,-24.2477"/>
</g>
<!-- Node4 -->
<g id="node5" class="node"><title>Node4</title>
<g id="a_node5"><a xlink:href="visibility__end_8h_source.html" target="_top" xlink:title="odp/visibility_end.h">
<polygon fill="white" stroke="black" points="187,-0.5 187,-19.5 287,-19.5 287,-0.5 187,-0.5"/>
<text text-anchor="middle" x="237" y="-7.5" font-family="Helvetica,sans-Serif" font-size="10.00">odp/visibility_end.h</text>
</a>
</g>
</g>
<!-- Node2&#45;&gt;Node4 -->
<g id="edge4" class="edge"><title>Node2&#45;&gt;Node4</title>
<path fill="none" stroke="midnightblue" d="M190.456,-56.7808C199.594,-47.7925 211.419,-36.162 220.862,-26.8731"/>
<polygon fill="midnightblue" stroke="midnightblue" points="223.449,-29.2382 228.124,-19.7305 218.54,-24.2477 223.449,-29.2382"/>
</g>
</g>
</svg>
