<?xml version="1.0" encoding="UTF-8" standalone="no"?>
<!DOCTYPE svg PUBLIC "-//W3C//DTD SVG 1.1//EN"
 "http://www.w3.org/Graphics/SVG/1.1/DTD/svg11.dtd">
<!-- Generated by graphviz version 2.36.0 (20140111.2315)
 -->
<!-- Title: comp.h Pages: 1 -->
<svg width="858pt" height="364pt"
 viewBox="0.00 0.00 858.00 364.00" xmlns="http://www.w3.org/2000/svg" xmlns:xlink="http://www.w3.org/1999/xlink">
<g id="graph0" class="graph" transform="scale(1 1) rotate(0) translate(4 360)">
<title>comp.h</title>
<polygon fill="white" stroke="none" points="-4,4 -4,-360 854,-360 854,4 -4,4"/>
<!-- Node0 -->
<g id="node1" class="node"><title>Node0</title>
<polygon fill="#bfbfbf" stroke="black" points="540.5,-336.5 540.5,-355.5 589.5,-355.5 589.5,-336.5 540.5,-336.5"/>
<text text-anchor="middle" x="565" y="-343.5" font-family="Helvetica,sans-Serif" font-size="10.00">comp.h</text>
</g>
<!-- Node1 -->
<g id="node2" class="node"><title>Node1</title>
<g id="a_node2"><a xlink:href="visibility__begin_8h_source.html" target="_top" xlink:title="odp/visibility_begin.h">
<polygon fill="white" stroke="black" points="293.5,-0.5 293.5,-19.5 400.5,-19.5 400.5,-0.5 293.5,-0.5"/>
<text text-anchor="middle" x="347" y="-7.5" font-family="Helvetica,sans-Serif" font-size="10.00">odp/visibility_begin.h</text>
</a>
</g>
</g>
<!-- Node0&#45;&gt;Node1 -->
<g id="edge1" class="edge"><title>Node0&#45;&gt;Node1</title>
<path fill="none" stroke="midnightblue" d="M540.359,-345.525C431.613,-347.199 0,-346.799 0,-235 0,-235 0,-235 0,-121 0,-74.8419 38.8897,-74.9021 81,-56 90.2138,-51.8642 207.793,-32.869 283.51,-20.9183"/>
<polygon fill="midnightblue" stroke="midnightblue" points="284.109,-24.3673 293.442,-19.3532 283.019,-17.4526 284.109,-24.3673"/>
</g>
<!-- Node2 -->
<g id="node3" class="node"><title>Node2</title>
<g id="a_node3"><a xlink:href="support_8h.html" target="_top" xlink:title="ODP support API &#45; platform specific header. ">
<polygon fill="white" stroke="black" points="647,-280.5 647,-299.5 739,-299.5 739,-280.5 647,-280.5"/>
<text text-anchor="middle" x="693" y="-287.5" font-family="Helvetica,sans-Serif" font-size="10.00">odp/api/support.h</text>
</a>
</g>
</g>
<!-- Node0&#45;&gt;Node2 -->
<g id="edge2" class="edge"><title>Node0&#45;&gt;Node2</title>
<path fill="none" stroke="midnightblue" d="M585.282,-336.444C606.347,-327.557 639.517,-313.563 663.486,-303.451"/>
<polygon fill="midnightblue" stroke="midnightblue" points="664.96,-306.628 672.813,-299.516 662.239,-300.179 664.96,-306.628"/>
</g>
<!-- Node4 -->
<g id="node5" class="node"><title>Node4</title>
<g id="a_node5"><a xlink:href="visibility__end_8h_source.html" target="_top" xlink:title="odp/visibility_end.h">
<polygon fill="white" stroke="black" points="464,-0.5 464,-19.5 564,-19.5 564,-0.5 464,-0.5"/>
<text text-anchor="middle" x="514" y="-7.5" font-family="Helvetica,sans-Serif" font-size="10.00">odp/visibility_end.h</text>
</a>
</g>
</g>
<!-- Node0&#45;&gt;Node4 -->
<g id="edge27" class="edge"><title>Node0&#45;&gt;Node4</title>
<path fill="none" stroke="midnightblue" d="M589.793,-340.93C659.132,-328.851 850,-290.556 850,-235 850,-235 850,-235 850,-121 850,-63.6448 670.934,-31.4081 574.247,-18.1823"/>
<polygon fill="midnightblue" stroke="midnightblue" points="574.679,-14.709 564.303,-16.8493 573.749,-21.6469 574.679,-14.709"/>
</g>
<!-- Node5 -->
<g id="node6" class="node"><title>Node5</title>
<g id="a_node6"><a xlink:href="api_2packet_8h.html" target="_top" xlink:title="ODP packet descriptor. ">
<polygon fill="white" stroke="black" points="392.5,-280.5 392.5,-299.5 481.5,-299.5 481.5,-280.5 392.5,-280.5"/>
<text text-anchor="middle" x="437" y="-287.5" font-family="Helvetica,sans-Serif" font-size="10.00">odp/api/packet.h</text>
</a>
</g>
</g>
<!-- Node0&#45;&gt;Node5 -->
<g id="edge6" class="edge"><title>Node0&#45;&gt;Node5</title>
<path fill="none" stroke="midnightblue" d="M544.718,-336.444C523.653,-327.557 490.483,-313.563 466.514,-303.451"/>
<polygon fill="midnightblue" stroke="midnightblue" points="467.761,-300.179 457.187,-299.516 465.04,-306.628 467.761,-300.179"/>
</g>
<!-- Node3 -->
<g id="node4" class="node"><title>Node3</title>
<g id="a_node4"><a xlink:href="spec_2support_8h.html" target="_top" xlink:title="ODP support API. ">
<polygon fill="white" stroke="black" points="542,-56.5 542,-75.5 658,-75.5 658,-56.5 542,-56.5"/>
<text text-anchor="middle" x="600" y="-63.5" font-family="Helvetica,sans-Serif" font-size="10.00">odp/api/spec/support.h</text>
</a>
</g>
</g>
<!-- Node2&#45;&gt;Node3 -->
<g id="edge3" class="edge"><title>Node2&#45;&gt;Node3</title>
<path fill="none" stroke="midnightblue" d="M732.169,-280.443C765.46,-271.008 805.828,-253.169 792,-224 757.89,-152.047 672.868,-102.12 628.29,-79.9454"/>
<polygon fill="midnightblue" stroke="midnightblue" points="629.691,-76.7348 619.166,-75.5145 626.633,-83.0315 629.691,-76.7348"/>
</g>
<!-- Node3&#45;&gt;Node1 -->
<g id="edge4" class="edge"><title>Node3&#45;&gt;Node1</title>
<path fill="none" stroke="midnightblue" d="M559.911,-56.4435C515.684,-47.0036 444.461,-31.802 396.715,-21.6111"/>
<polygon fill="midnightblue" stroke="midnightblue" points="397.411,-18.181 386.901,-19.5164 395.95,-25.0268 397.411,-18.181"/>
</g>
<!-- Node3&#45;&gt;Node4 -->
<g id="edge5" class="edge"><title>Node3&#45;&gt;Node4</title>
<path fill="none" stroke="midnightblue" d="M586.183,-56.324C572.767,-47.9002 552.176,-34.9709 536.414,-25.0741"/>
<polygon fill="midnightblue" stroke="midnightblue" points="538.113,-22.0081 527.783,-19.6545 534.391,-27.9364 538.113,-22.0081"/>
</g>
<!-- Node6 -->
<g id="node7" class="node"><title>Node6</title>
<g id="a_node7"><a xlink:href="api_2std__types_8h.html" target="_top" xlink:title="Standard C language types and definitions for ODP. ">
<polygon fill="white" stroke="black" points="112,-112.5 112,-131.5 214,-131.5 214,-112.5 112,-112.5"/>
<text text-anchor="middle" x="163" y="-119.5" font-family="Helvetica,sans-Serif" font-size="10.00">odp/api/std_types.h</text>
</a>
</g>
</g>
<!-- Node5&#45;&gt;Node6 -->
<g id="edge7" class="edge"><title>Node5&#45;&gt;Node6</title>
<path fill="none" stroke="midnightblue" d="M392.498,-286.993C296.943,-282.228 78.9807,-268.737 57,-244 22.4083,-205.07 94.4535,-158.653 136.138,-136.312"/>
<polygon fill="midnightblue" stroke="midnightblue" points="138.019,-139.278 145.261,-131.545 134.777,-133.074 138.019,-139.278"/>
</g>
<!-- Node10 -->
<g id="node11" class="node"><title>Node10</title>
<polygon fill="white" stroke="#bfbfbf" points="66.5,-224.5 66.5,-243.5 165.5,-243.5 165.5,-224.5 66.5,-224.5"/>
<text text-anchor="middle" x="116" y="-231.5" font-family="Helvetica,sans-Serif" font-size="10.00">odp/api/abi/event.h</text>
</g>
<!-- Node5&#45;&gt;Node10 -->
<g id="edge13" class="edge"><title>Node5&#45;&gt;Node10</title>
<path fill="none" stroke="midnightblue" d="M392.366,-281.492C335.904,-271.993 238.479,-255.604 175.673,-245.038"/>
<polygon fill="midnightblue" stroke="midnightblue" points="175.961,-241.538 165.519,-243.33 174.799,-248.441 175.961,-241.538"/>
</g>
<!-- Node11 -->
<g id="node12" class="node"><title>Node11</title>
<polygon fill="white" stroke="#bfbfbf" points="314.5,-224.5 314.5,-243.5 431.5,-243.5 431.5,-224.5 314.5,-224.5"/>
<text text-anchor="middle" x="373" y="-231.5" font-family="Helvetica,sans-Serif" font-size="10.00">odp/api/abi/packet_io.h</text>
</g>
<!-- Node5&#45;&gt;Node11 -->
<g id="edge14" class="edge"><title>Node5&#45;&gt;Node11</title>
<path fill="none" stroke="midnightblue" d="M426.717,-280.324C417.164,-272.263 402.72,-260.077 391.216,-250.369"/>
<polygon fill="midnightblue" stroke="midnightblue" points="393.37,-247.608 383.47,-243.834 388.856,-252.958 393.37,-247.608"/>
</g>
<!-- Node12 -->
<g id="node13" class="node"><title>Node12</title>
<polygon fill="white" stroke="#bfbfbf" points="450,-224.5 450,-243.5 554,-243.5 554,-224.5 450,-224.5"/>
<text text-anchor="middle" x="502" y="-231.5" font-family="Helvetica,sans-Serif" font-size="10.00">odp/api/abi/packet.h</text>
</g>
<!-- Node5&#45;&gt;Node12 -->
<g id="edge15" class="edge"><title>Node5&#45;&gt;Node12</title>
<path fill="none" stroke="midnightblue" d="M447.443,-280.324C457.146,-272.263 471.815,-260.077 483.5,-250.369"/>
<polygon fill="midnightblue" stroke="midnightblue" points="485.911,-252.916 491.367,-243.834 481.438,-247.532 485.911,-252.916"/>
</g>
<!-- Node13 -->
<g id="node14" class="node"><title>Node13</title>
<polygon fill="white" stroke="#bfbfbf" points="572,-224.5 572,-243.5 672,-243.5 672,-224.5 572,-224.5"/>
<text text-anchor="middle" x="622" y="-231.5" font-family="Helvetica,sans-Serif" font-size="10.00">odp/api/abi/buffer.h</text>
</g>
<!-- Node5&#45;&gt;Node13 -->
<g id="edge16" class="edge"><title>Node5&#45;&gt;Node13</title>
<path fill="none" stroke="midnightblue" d="M466.314,-280.444C497.842,-271.241 548.131,-256.562 582.986,-246.388"/>
<polygon fill="midnightblue" stroke="midnightblue" points="584.205,-249.678 592.823,-243.516 582.243,-242.959 584.205,-249.678"/>
</g>
<!-- Node14 -->
<g id="node15" class="node"><title>Node14</title>
<polygon fill="white" stroke="#bfbfbf" points="690.5,-224.5 690.5,-243.5 783.5,-243.5 783.5,-224.5 690.5,-224.5"/>
<text text-anchor="middle" x="737" y="-231.5" font-family="Helvetica,sans-Serif" font-size="10.00">odp/api/abi/pool.h</text>
</g>
<!-- Node5&#45;&gt;Node14 -->
<g id="edge17" class="edge"><title>Node5&#45;&gt;Node14</title>
<path fill="none" stroke="midnightblue" d="M481.589,-280.974C534.404,-271.467 622.473,-255.615 680.143,-245.234"/>
<polygon fill="midnightblue" stroke="midnightblue" points="680.966,-248.643 690.187,-243.426 679.726,-241.753 680.966,-248.643"/>
</g>
<!-- Node15 -->
<g id="node16" class="node"><title>Node15</title>
<g id="a_node16"><a xlink:href="api_2spec_2packet_8h.html" target="_top" xlink:title="ODP packet descriptor. ">
<polygon fill="white" stroke="black" points="183.5,-224.5 183.5,-243.5 296.5,-243.5 296.5,-224.5 183.5,-224.5"/>
<text text-anchor="middle" x="240" y="-231.5" font-family="Helvetica,sans-Serif" font-size="10.00">odp/api/spec/packet.h</text>
</a>
</g>
</g>
<!-- Node5&#45;&gt;Node15 -->
<g id="edge18" class="edge"><title>Node5&#45;&gt;Node15</title>
<path fill="none" stroke="midnightblue" d="M405.785,-280.444C372.067,-271.201 318.2,-256.436 281.068,-246.257"/>
<polygon fill="midnightblue" stroke="midnightblue" points="281.639,-242.785 271.069,-243.516 279.788,-249.536 281.639,-242.785"/>
</g>
<!-- Node7 -->
<g id="node8" class="node"><title>Node7</title>
<polygon fill="white" stroke="#bfbfbf" points="104,-56.5 104,-75.5 222,-75.5 222,-56.5 104,-56.5"/>
<text text-anchor="middle" x="163" y="-63.5" font-family="Helvetica,sans-Serif" font-size="10.00">odp/api/abi/std_types.h</text>
</g>
<!-- Node6&#45;&gt;Node7 -->
<g id="edge8" class="edge"><title>Node6&#45;&gt;Node7</title>
<path fill="none" stroke="midnightblue" d="M163,-112.083C163,-105.006 163,-94.8611 163,-85.9865"/>
<polygon fill="midnightblue" stroke="midnightblue" points="166.5,-85.751 163,-75.7511 159.5,-85.7511 166.5,-85.751"/>
</g>
<!-- Node8 -->
<g id="node9" class="node"><title>Node8</title>
<g id="a_node9"><a xlink:href="api_2spec_2std__types_8h.html" target="_top" xlink:title="Standard C language types and definitions for ODP. ">
<polygon fill="white" stroke="black" points="240,-56.5 240,-75.5 366,-75.5 366,-56.5 240,-56.5"/>
<text text-anchor="middle" x="303" y="-63.5" font-family="Helvetica,sans-Serif" font-size="10.00">odp/api/spec/std_types.h</text>
</a>
</g>
</g>
<!-- Node6&#45;&gt;Node8 -->
<g id="edge9" class="edge"><title>Node6&#45;&gt;Node8</title>
<path fill="none" stroke="midnightblue" d="M185.183,-112.444C208.428,-103.478 245.149,-89.314 271.415,-79.1827"/>
<polygon fill="midnightblue" stroke="midnightblue" points="272.85,-82.3807 280.92,-75.5164 270.331,-75.8497 272.85,-82.3807"/>
</g>
<!-- Node8&#45;&gt;Node1 -->
<g id="edge10" class="edge"><title>Node8&#45;&gt;Node1</title>
<path fill="none" stroke="midnightblue" d="M310.266,-56.083C316.545,-48.3768 325.788,-37.0333 333.431,-27.6531"/>
<polygon fill="midnightblue" stroke="midnightblue" points="336.266,-29.7143 339.869,-19.7511 330.839,-25.2926 336.266,-29.7143"/>
</g>
<!-- Node8&#45;&gt;Node4 -->
<g id="edge12" class="edge"><title>Node8&#45;&gt;Node4</title>
<path fill="none" stroke="midnightblue" d="M336.434,-56.4435C372.856,-47.1221 431.23,-32.1828 471.029,-21.9972"/>
<polygon fill="midnightblue" stroke="midnightblue" points="471.903,-25.3866 480.723,-19.5164 470.167,-18.6051 471.903,-25.3866"/>
</g>
<!-- Node9 -->
<g id="node10" class="node"><title>Node9</title>
<polygon fill="white" stroke="#bfbfbf" points="226.5,-0.5 226.5,-19.5 275.5,-19.5 275.5,-0.5 226.5,-0.5"/>
<text text-anchor="middle" x="251" y="-7.5" font-family="Helvetica,sans-Serif" font-size="10.00">stdint.h</text>
</g>
<!-- Node8&#45;&gt;Node9 -->
<g id="edge11" class="edge"><title>Node8&#45;&gt;Node9</title>
<path fill="none" stroke="midnightblue" d="M294.413,-56.083C286.841,-48.2195 275.622,-36.5688 266.486,-27.0813"/>
<polygon fill="midnightblue" stroke="midnightblue" points="268.885,-24.5266 259.427,-19.7511 263.842,-29.3821 268.885,-24.5266"/>
</g>
<!-- Node15&#45;&gt;Node1 -->
<g id="edge19" class="edge"><title>Node15&#45;&gt;Node1</title>
<path fill="none" stroke="midnightblue" d="M223.146,-224.473C174.587,-198.836 41.193,-120.267 95,-56 101.08,-48.7384 210.819,-31.1918 283.459,-20.2791"/>
<polygon fill="midnightblue" stroke="midnightblue" points="284.076,-23.7258 293.448,-18.785 283.04,-16.8028 284.076,-23.7258"/>
</g>
<!-- Node15&#45;&gt;Node4 -->
<g id="edge26" class="edge"><title>Node15&#45;&gt;Node4</title>
<path fill="none" stroke="midnightblue" d="M265.08,-224.42C315.989,-205.72 431.876,-156.405 494,-76 504.367,-62.5826 509.396,-43.7639 511.815,-29.8261"/>
<polygon fill="midnightblue" stroke="midnightblue" points="515.284,-30.2882 513.246,-19.8913 508.356,-29.2899 515.284,-30.2882"/>
</g>
<!-- Node16 -->
<g id="node17" class="node"><title>Node16</title>
<g id="a_node17"><a xlink:href="api_2time_8h.html" target="_top" xlink:title="ODP time. ">
<polygon fill="white" stroke="black" points="220,-168.5 220,-187.5 298,-187.5 298,-168.5 220,-168.5"/>
<text text-anchor="middle" x="259" y="-175.5" font-family="Helvetica,sans-Serif" font-size="10.00">odp/api/time.h</text>
</a>
</g>
</g>
<!-- Node15&#45;&gt;Node16 -->
<g id="edge20" class="edge"><title>Node15&#45;&gt;Node16</title>
<path fill="none" stroke="midnightblue" d="M243.137,-224.083C245.683,-216.849 249.356,-206.409 252.527,-197.397"/>
<polygon fill="midnightblue" stroke="midnightblue" points="255.903,-198.346 255.921,-187.751 249.3,-196.023 255.903,-198.346"/>
</g>
<!-- Node16&#45;&gt;Node6 -->
<g id="edge21" class="edge"><title>Node16&#45;&gt;Node6</title>
<path fill="none" stroke="midnightblue" d="M243.576,-168.324C228.46,-159.822 205.185,-146.729 187.529,-136.797"/>
<polygon fill="midnightblue" stroke="midnightblue" points="188.817,-133.507 178.386,-131.655 185.386,-139.608 188.817,-133.507"/>
</g>
<!-- Node17 -->
<g id="node18" class="node"><title>Node17</title>
<polygon fill="white" stroke="#bfbfbf" points="232,-112.5 232,-131.5 326,-131.5 326,-112.5 232,-112.5"/>
<text text-anchor="middle" x="279" y="-119.5" font-family="Helvetica,sans-Serif" font-size="10.00">odp/api/abi/time.h</text>
</g>
<!-- Node16&#45;&gt;Node17 -->
<g id="edge22" class="edge"><title>Node16&#45;&gt;Node17</title>
<path fill="none" stroke="midnightblue" d="M262.303,-168.083C264.982,-160.849 268.849,-150.409 272.186,-141.397"/>
<polygon fill="midnightblue" stroke="midnightblue" points="275.568,-142.344 275.759,-131.751 269.004,-139.913 275.568,-142.344"/>
</g>
<!-- Node18 -->
<g id="node19" class="node"><title>Node18</title>
<g id="a_node19"><a xlink:href="api_2spec_2time_8h.html" target="_top" xlink:title="ODP time. ">
<polygon fill="white" stroke="black" points="384,-56.5 384,-75.5 486,-75.5 486,-56.5 384,-56.5"/>
<text text-anchor="middle" x="435" y="-63.5" font-family="Helvetica,sans-Serif" font-size="10.00">odp/api/spec/time.h</text>
</a>
</g>
</g>
<!-- Node16&#45;&gt;Node18 -->
<g id="edge23" class="edge"><title>Node16&#45;&gt;Node18</title>
<path fill="none" stroke="midnightblue" d="M273.965,-168.387C289.372,-159.461 314.024,-145.019 335,-132 362.462,-114.955 393.613,-94.5302 413.744,-81.1842"/>
<polygon fill="midnightblue" stroke="midnightblue" points="415.774,-84.0377 422.166,-75.5879 411.9,-78.2076 415.774,-84.0377"/>
</g>
<!-- Node18&#45;&gt;Node1 -->
<g id="edge24" class="edge"><title>Node18&#45;&gt;Node1</title>
<path fill="none" stroke="midnightblue" d="M420.861,-56.324C407.134,-47.9002 386.064,-34.9709 369.936,-25.0741"/>
<polygon fill="midnightblue" stroke="midnightblue" points="371.457,-21.9016 361.104,-19.6545 367.796,-27.8678 371.457,-21.9016"/>
</g>
<!-- Node18&#45;&gt;Node4 -->
<g id="edge25" class="edge"><title>Node18&#45;&gt;Node4</title>
<path fill="none" stroke="midnightblue" d="M447.693,-56.324C459.901,-47.979 478.578,-35.2122 493.003,-25.3524"/>
<polygon fill="midnightblue" stroke="midnightblue" points="495.058,-28.1871 501.339,-19.6545 491.108,-22.4082 495.058,-28.1871"/>
</g>
</g>
</svg>
