<?xml version="1.0" encoding="UTF-8" standalone="no"?>
<!DOCTYPE svg PUBLIC "-//W3C//DTD SVG 1.1//EN"
 "http://www.w3.org/Graphics/SVG/1.1/DTD/svg11.dtd">
<!-- Generated by graphviz version 2.36.0 (20140111.2315)
 -->
<!-- Title: schedule.h Pages: 1 -->
<svg width="1747pt" height="612pt"
 viewBox="0.00 0.00 1747.00 612.00" xmlns="http://www.w3.org/2000/svg" xmlns:xlink="http://www.w3.org/1999/xlink">
<g id="graph0" class="graph" transform="scale(1 1) rotate(0) translate(4 608)">
<title>schedule.h</title>
<polygon fill="white" stroke="none" points="-4,4 -4,-608 1743,-608 1743,4 -4,4"/>
<!-- Node0 -->
<g id="node1" class="node"><title>Node0</title>
<polygon fill="#bfbfbf" stroke="black" points="543,-584.5 543,-603.5 607,-603.5 607,-584.5 543,-584.5"/>
<text text-anchor="middle" x="575" y="-591.5" font-family="Helvetica,sans-Serif" font-size="10.00">schedule.h</text>
</g>
<!-- Node1 -->
<g id="node2" class="node"><title>Node1</title>
<g id="a_node2"><a xlink:href="visibility__begin_8h_source.html" target="_top" xlink:title="odp/visibility_begin.h">
<polygon fill="white" stroke="black" points="853.5,-0.5 853.5,-19.5 960.5,-19.5 960.5,-0.5 853.5,-0.5"/>
<text text-anchor="middle" x="907" y="-7.5" font-family="Helvetica,sans-Serif" font-size="10.00">odp/visibility_begin.h</text>
</a>
</g>
</g>
<!-- Node0&#45;&gt;Node1 -->
<g id="edge1" class="edge"><title>Node0&#45;&gt;Node1</title>
<path fill="none" stroke="midnightblue" d="M542.866,-591.698C441.947,-585.731 138,-552.681 138,-371 138,-371 138,-371 138,-121 138,-71.6587 181.58,-72.7257 228,-56 340.001,-15.6449 696.482,-10.9397 843.09,-10.7641"/>
<polygon fill="midnightblue" stroke="midnightblue" points="843.279,-14.2641 853.277,-10.7589 843.275,-7.26411 843.279,-14.2641"/>
</g>
<!-- Node2 -->
<g id="node3" class="node"><title>Node2</title>
<g id="a_node3"><a xlink:href="api_2std__types_8h.html" target="_top" xlink:title="Standard C language types and definitions for ODP. ">
<polygon fill="white" stroke="black" points="437,-112.5 437,-131.5 539,-131.5 539,-112.5 437,-112.5"/>
<text text-anchor="middle" x="488" y="-119.5" font-family="Helvetica,sans-Serif" font-size="10.00">odp/api/std_types.h</text>
</a>
</g>
</g>
<!-- Node0&#45;&gt;Node2 -->
<g id="edge2" class="edge"><title>Node0&#45;&gt;Node2</title>
<path fill="none" stroke="midnightblue" d="M542.686,-590.372C447.698,-580.716 176,-538.46 176,-371 176,-371 176,-371 176,-307 176,-270.781 189.378,-260.557 216,-236 244.064,-210.112 262.354,-221.361 294,-200 311.2,-188.39 309.937,-178.214 328,-168 358.484,-150.762 396.025,-139.755 427.08,-132.945"/>
<polygon fill="midnightblue" stroke="midnightblue" points="427.851,-136.359 436.918,-130.878 426.412,-129.509 427.851,-136.359"/>
</g>
<!-- Node6 -->
<g id="node7" class="node"><title>Node6</title>
<g id="a_node7"><a xlink:href="visibility__end_8h_source.html" target="_top" xlink:title="odp/visibility_end.h">
<polygon fill="white" stroke="black" points="1375,-0.5 1375,-19.5 1475,-19.5 1475,-0.5 1375,-0.5"/>
<text text-anchor="middle" x="1425" y="-7.5" font-family="Helvetica,sans-Serif" font-size="10.00">odp/visibility_end.h</text>
</a>
</g>
</g>
<!-- Node0&#45;&gt;Node6 -->
<g id="edge62" class="edge"><title>Node0&#45;&gt;Node6</title>
<path fill="none" stroke="midnightblue" d="M607.177,-592.951C756.347,-592.512 1381.39,-588.257 1572,-548 1649.93,-531.542 1739,-562.646 1739,-483 1739,-483 1739,-483 1739,-121 1739,-70.9354 1692.96,-75.8433 1647,-56 1594.97,-33.5392 1531.18,-22.1062 1485.34,-16.4028"/>
<polygon fill="midnightblue" stroke="midnightblue" points="1485.61,-12.9099 1475.27,-15.2048 1484.78,-19.8609 1485.61,-12.9099"/>
</g>
<!-- Node7 -->
<g id="node8" class="node"><title>Node7</title>
<g id="a_node8"><a xlink:href="api_2event_8h.html" target="_top" xlink:title="ODP event. ">
<polygon fill="white" stroke="black" points="896.5,-416.5 896.5,-435.5 979.5,-435.5 979.5,-416.5 896.5,-416.5"/>
<text text-anchor="middle" x="938" y="-423.5" font-family="Helvetica,sans-Serif" font-size="10.00">odp/api/event.h</text>
</a>
</g>
</g>
<!-- Node0&#45;&gt;Node7 -->
<g id="edge8" class="edge"><title>Node0&#45;&gt;Node7</title>
<path fill="none" stroke="midnightblue" d="M593.752,-584.425C653.375,-557.159 838.835,-472.348 909.899,-439.851"/>
<polygon fill="midnightblue" stroke="midnightblue" points="911.504,-442.965 919.142,-435.624 908.592,-436.6 911.504,-442.965"/>
</g>
<!-- Node19 -->
<g id="node20" class="node"><title>Node19</title>
<g id="a_node20"><a xlink:href="api_2queue_8h.html" target="_top" xlink:title="ODP queue. ">
<polygon fill="white" stroke="black" points="532,-528.5 532,-547.5 618,-547.5 618,-528.5 532,-528.5"/>
<text text-anchor="middle" x="575" y="-535.5" font-family="Helvetica,sans-Serif" font-size="10.00">odp/api/queue.h</text>
</a>
</g>
</g>
<!-- Node0&#45;&gt;Node19 -->
<g id="edge29" class="edge"><title>Node0&#45;&gt;Node19</title>
<path fill="none" stroke="midnightblue" d="M575,-584.083C575,-577.006 575,-566.861 575,-557.986"/>
<polygon fill="midnightblue" stroke="midnightblue" points="578.5,-557.751 575,-547.751 571.5,-557.751 578.5,-557.751"/>
</g>
<!-- Node23 -->
<g id="node24" class="node"><title>Node23</title>
<g id="a_node24"><a xlink:href="api_2schedule__types_8h.html" target="_top" xlink:title="ODP schedule. ">
<polygon fill="white" stroke="black" points="1545,-236.5 1545,-255.5 1673,-255.5 1673,-236.5 1545,-236.5"/>
<text text-anchor="middle" x="1609" y="-243.5" font-family="Helvetica,sans-Serif" font-size="10.00">odp/api/schedule_types.h</text>
</a>
</g>
</g>
<!-- Node0&#45;&gt;Node23 -->
<g id="edge55" class="edge"><title>Node0&#45;&gt;Node23</title>
<path fill="none" stroke="midnightblue" d="M607.266,-593.208C787.639,-593.959 1663,-591.987 1663,-483 1663,-483 1663,-483 1663,-369 1663,-328.488 1637.79,-286.386 1621.82,-263.776"/>
<polygon fill="midnightblue" stroke="midnightblue" points="1624.57,-261.6 1615.84,-255.596 1618.92,-265.733 1624.57,-261.6"/>
</g>
<!-- Node30 -->
<g id="node31" class="node"><title>Node30</title>
<g id="a_node31"><a xlink:href="api_2thrmask_8h.html" target="_top" xlink:title="ODP thread masks. ">
<polygon fill="white" stroke="black" points="14.5,-236.5 14.5,-255.5 109.5,-255.5 109.5,-236.5 14.5,-236.5"/>
<text text-anchor="middle" x="62" y="-243.5" font-family="Helvetica,sans-Serif" font-size="10.00">odp/api/thrmask.h</text>
</a>
</g>
</g>
<!-- Node0&#45;&gt;Node30 -->
<g id="edge56" class="edge"><title>Node0&#45;&gt;Node30</title>
<path fill="none" stroke="midnightblue" d="M542.751,-593.3C451.678,-593.606 194.573,-590.583 124,-548 94.3423,-530.105 81,-517.638 81,-483 81,-483 81,-483 81,-369 81,-331.805 72.2709,-288.982 66.646,-265.249"/>
<polygon fill="midnightblue" stroke="midnightblue" points="70.0378,-264.385 64.2542,-255.508 63.2398,-266.054 70.0378,-264.385"/>
</g>
<!-- Node3 -->
<g id="node4" class="node"><title>Node3</title>
<polygon fill="white" stroke="#bfbfbf" points="437,-56.5 437,-75.5 555,-75.5 555,-56.5 437,-56.5"/>
<text text-anchor="middle" x="496" y="-63.5" font-family="Helvetica,sans-Serif" font-size="10.00">odp/api/abi/std_types.h</text>
</g>
<!-- Node2&#45;&gt;Node3 -->
<g id="edge3" class="edge"><title>Node2&#45;&gt;Node3</title>
<path fill="none" stroke="midnightblue" d="M489.321,-112.083C490.381,-104.927 491.906,-94.6353 493.231,-85.6911"/>
<polygon fill="midnightblue" stroke="midnightblue" points="496.7,-86.1561 494.704,-75.7511 489.776,-85.1302 496.7,-86.1561"/>
</g>
<!-- Node4 -->
<g id="node5" class="node"><title>Node4</title>
<g id="a_node5"><a xlink:href="api_2spec_2std__types_8h.html" target="_top" xlink:title="Standard C language types and definitions for ODP. ">
<polygon fill="white" stroke="black" points="255,-56.5 255,-75.5 381,-75.5 381,-56.5 255,-56.5"/>
<text text-anchor="middle" x="318" y="-63.5" font-family="Helvetica,sans-Serif" font-size="10.00">odp/api/spec/std_types.h</text>
</a>
</g>
</g>
<!-- Node2&#45;&gt;Node4 -->
<g id="edge4" class="edge"><title>Node2&#45;&gt;Node4</title>
<path fill="none" stroke="midnightblue" d="M461.063,-112.444C432.34,-103.32 386.671,-88.8133 354.679,-78.6509"/>
<polygon fill="midnightblue" stroke="midnightblue" points="355.401,-75.2081 344.811,-75.5164 353.282,-81.8797 355.401,-75.2081"/>
</g>
<!-- Node4&#45;&gt;Node1 -->
<g id="edge5" class="edge"><title>Node4&#45;&gt;Node1</title>
<path fill="none" stroke="midnightblue" d="M381.016,-57.4854C385.746,-56.967 390.448,-56.466 395,-56 556.016,-39.5175 745.905,-23.8002 842.912,-16.0388"/>
<polygon fill="midnightblue" stroke="midnightblue" points="843.451,-19.507 853.141,-15.2224 842.894,-12.5292 843.451,-19.507"/>
</g>
<!-- Node5 -->
<g id="node6" class="node"><title>Node5</title>
<polygon fill="white" stroke="#bfbfbf" points="293.5,-0.5 293.5,-19.5 342.5,-19.5 342.5,-0.5 293.5,-0.5"/>
<text text-anchor="middle" x="318" y="-7.5" font-family="Helvetica,sans-Serif" font-size="10.00">stdint.h</text>
</g>
<!-- Node4&#45;&gt;Node5 -->
<g id="edge6" class="edge"><title>Node4&#45;&gt;Node5</title>
<path fill="none" stroke="midnightblue" d="M318,-56.083C318,-49.0059 318,-38.8611 318,-29.9865"/>
<polygon fill="midnightblue" stroke="midnightblue" points="321.5,-29.751 318,-19.7511 314.5,-29.7511 321.5,-29.751"/>
</g>
<!-- Node4&#45;&gt;Node6 -->
<g id="edge7" class="edge"><title>Node4&#45;&gt;Node6</title>
<path fill="none" stroke="midnightblue" d="M381.413,-57.2182C386.007,-56.768 390.573,-56.355 395,-56 762.718,-26.5165 1205.95,-15.3393 1364.77,-12.1021"/>
<polygon fill="midnightblue" stroke="midnightblue" points="1364.89,-15.6005 1374.81,-11.9002 1364.74,-8.60194 1364.89,-15.6005"/>
</g>
<!-- Node8 -->
<g id="node9" class="node"><title>Node8</title>
<polygon fill="white" stroke="#bfbfbf" points="242.5,-236.5 242.5,-255.5 341.5,-255.5 341.5,-236.5 242.5,-236.5"/>
<text text-anchor="middle" x="292" y="-243.5" font-family="Helvetica,sans-Serif" font-size="10.00">odp/api/abi/event.h</text>
</g>
<!-- Node7&#45;&gt;Node8 -->
<g id="edge9" class="edge"><title>Node7&#45;&gt;Node8</title>
<path fill="none" stroke="midnightblue" d="M897.733,-416.467C822.972,-400.354 657.873,-363.507 521,-324 450.339,-303.605 369.043,-275.025 324.83,-259.041"/>
<polygon fill="midnightblue" stroke="midnightblue" points="325.79,-255.666 315.195,-255.544 323.402,-262.246 325.79,-255.666"/>
</g>
<!-- Node9 -->
<g id="node10" class="node"><title>Node9</title>
<g id="a_node10"><a xlink:href="api_2spec_2event_8h.html" target="_top" xlink:title="ODP event. ">
<polygon fill="white" stroke="black" points="907.5,-360.5 907.5,-379.5 1014.5,-379.5 1014.5,-360.5 907.5,-360.5"/>
<text text-anchor="middle" x="961" y="-367.5" font-family="Helvetica,sans-Serif" font-size="10.00">odp/api/spec/event.h</text>
</a>
</g>
</g>
<!-- Node7&#45;&gt;Node9 -->
<g id="edge10" class="edge"><title>Node7&#45;&gt;Node9</title>
<path fill="none" stroke="midnightblue" d="M941.798,-416.083C944.913,-408.77 949.423,-398.181 953.289,-389.103"/>
<polygon fill="midnightblue" stroke="midnightblue" points="956.574,-390.323 957.273,-379.751 950.134,-387.58 956.574,-390.323"/>
</g>
<!-- Node9&#45;&gt;Node1 -->
<g id="edge11" class="edge"><title>Node9&#45;&gt;Node1</title>
<path fill="none" stroke="midnightblue" d="M968.041,-360.333C984.331,-339.191 1022.11,-283.241 1007,-236 980.403,-152.835 919.597,-159.165 893,-76 888.006,-60.3838 892.863,-42.0877 898.177,-28.8923"/>
<polygon fill="midnightblue" stroke="midnightblue" points="901.467,-30.1094 902.357,-19.552 895.077,-27.2496 901.467,-30.1094"/>
</g>
<!-- Node9&#45;&gt;Node6 -->
<g id="edge28" class="edge"><title>Node9&#45;&gt;Node6</title>
<path fill="none" stroke="midnightblue" d="M1010.57,-360.467C1129.45,-338.891 1425.11,-278.263 1482,-200 1521.76,-145.31 1466.39,-62.6699 1438.9,-27.637"/>
<polygon fill="midnightblue" stroke="midnightblue" points="1441.58,-25.3923 1432.58,-19.802 1436.13,-29.7846 1441.58,-25.3923"/>
</g>
<!-- Node10 -->
<g id="node11" class="node"><title>Node10</title>
<g id="a_node11"><a xlink:href="api_2packet_8h.html" target="_top" xlink:title="ODP packet descriptor. ">
<polygon fill="white" stroke="black" points="530.5,-298.5 530.5,-317.5 619.5,-317.5 619.5,-298.5 530.5,-298.5"/>
<text text-anchor="middle" x="575" y="-305.5" font-family="Helvetica,sans-Serif" font-size="10.00">odp/api/packet.h</text>
</a>
</g>
</g>
<!-- Node9&#45;&gt;Node10 -->
<g id="edge12" class="edge"><title>Node9&#45;&gt;Node10</title>
<path fill="none" stroke="midnightblue" d="M907.328,-360.657C834.026,-349.263 703.308,-328.944 629.55,-317.479"/>
<polygon fill="midnightblue" stroke="midnightblue" points="629.951,-314 619.532,-315.922 628.876,-320.917 629.951,-314"/>
</g>
<!-- Node10&#45;&gt;Node2 -->
<g id="edge13" class="edge"><title>Node10&#45;&gt;Node2</title>
<path fill="none" stroke="midnightblue" d="M556.731,-298.476C540.834,-290.039 518.579,-275.555 507,-256 485.579,-219.823 484.904,-168.655 486.38,-141.541"/>
<polygon fill="midnightblue" stroke="midnightblue" points="489.875,-141.729 487.09,-131.507 482.892,-141.235 489.875,-141.729"/>
</g>
<!-- Node10&#45;&gt;Node8 -->
<g id="edge14" class="edge"><title>Node10&#45;&gt;Node8</title>
<path fill="none" stroke="midnightblue" d="M534.754,-298.467C484.042,-287.716 396.894,-269.239 341.972,-257.595"/>
<polygon fill="midnightblue" stroke="midnightblue" points="342.616,-254.154 332.108,-255.503 341.164,-261.001 342.616,-254.154"/>
</g>
<!-- Node11 -->
<g id="node12" class="node"><title>Node11</title>
<polygon fill="white" stroke="#bfbfbf" points="516.5,-236.5 516.5,-255.5 633.5,-255.5 633.5,-236.5 516.5,-236.5"/>
<text text-anchor="middle" x="575" y="-243.5" font-family="Helvetica,sans-Serif" font-size="10.00">odp/api/abi/packet_io.h</text>
</g>
<!-- Node10&#45;&gt;Node11 -->
<g id="edge15" class="edge"><title>Node10&#45;&gt;Node11</title>
<path fill="none" stroke="midnightblue" d="M575,-298.403C575,-289.938 575,-276.728 575,-265.82"/>
<polygon fill="midnightblue" stroke="midnightblue" points="578.5,-265.581 575,-255.581 571.5,-265.581 578.5,-265.581"/>
</g>
<!-- Node12 -->
<g id="node13" class="node"><title>Node12</title>
<polygon fill="white" stroke="#bfbfbf" points="652,-236.5 652,-255.5 756,-255.5 756,-236.5 652,-236.5"/>
<text text-anchor="middle" x="704" y="-243.5" font-family="Helvetica,sans-Serif" font-size="10.00">odp/api/abi/packet.h</text>
</g>
<!-- Node10&#45;&gt;Node12 -->
<g id="edge16" class="edge"><title>Node10&#45;&gt;Node12</title>
<path fill="none" stroke="midnightblue" d="M593.483,-298.403C615.132,-288.334 651.213,-271.552 676.232,-259.915"/>
<polygon fill="midnightblue" stroke="midnightblue" points="677.961,-262.971 685.552,-255.581 675.008,-256.624 677.961,-262.971"/>
</g>
<!-- Node13 -->
<g id="node14" class="node"><title>Node13</title>
<polygon fill="white" stroke="#bfbfbf" points="360,-236.5 360,-255.5 460,-255.5 460,-236.5 360,-236.5"/>
<text text-anchor="middle" x="410" y="-243.5" font-family="Helvetica,sans-Serif" font-size="10.00">odp/api/abi/buffer.h</text>
</g>
<!-- Node10&#45;&gt;Node13 -->
<g id="edge17" class="edge"><title>Node10&#45;&gt;Node13</title>
<path fill="none" stroke="midnightblue" d="M551.36,-298.403C522.934,-288.067 475.055,-270.656 442.998,-258.999"/>
<polygon fill="midnightblue" stroke="midnightblue" points="444.191,-255.709 433.597,-255.581 441.798,-262.287 444.191,-255.709"/>
</g>
<!-- Node14 -->
<g id="node15" class="node"><title>Node14</title>
<polygon fill="white" stroke="#bfbfbf" points="905.5,-236.5 905.5,-255.5 998.5,-255.5 998.5,-236.5 905.5,-236.5"/>
<text text-anchor="middle" x="952" y="-243.5" font-family="Helvetica,sans-Serif" font-size="10.00">odp/api/abi/pool.h</text>
</g>
<!-- Node10&#45;&gt;Node14 -->
<g id="edge18" class="edge"><title>Node10&#45;&gt;Node14</title>
<path fill="none" stroke="midnightblue" d="M605.779,-298.479C614.824,-296.164 624.768,-293.802 634,-292 746.207,-270.099 778.02,-273.136 895.175,-256.08"/>
<polygon fill="midnightblue" stroke="midnightblue" points="895.879,-259.514 905.261,-254.593 894.858,-252.589 895.879,-259.514"/>
</g>
<!-- Node15 -->
<g id="node16" class="node"><title>Node15</title>
<g id="a_node16"><a xlink:href="api_2spec_2packet_8h.html" target="_top" xlink:title="ODP packet descriptor. ">
<polygon fill="white" stroke="black" points="774.5,-236.5 774.5,-255.5 887.5,-255.5 887.5,-236.5 774.5,-236.5"/>
<text text-anchor="middle" x="831" y="-243.5" font-family="Helvetica,sans-Serif" font-size="10.00">odp/api/spec/packet.h</text>
</a>
</g>
</g>
<!-- Node10&#45;&gt;Node15 -->
<g id="edge19" class="edge"><title>Node10&#45;&gt;Node15</title>
<path fill="none" stroke="midnightblue" d="M608.042,-298.448C616.494,-296.302 625.575,-294.033 634,-292 684.51,-279.812 742.514,-266.665 782.434,-257.747"/>
<polygon fill="midnightblue" stroke="midnightblue" points="783.433,-261.111 792.432,-255.518 781.91,-254.278 783.433,-261.111"/>
</g>
<!-- Node15&#45;&gt;Node1 -->
<g id="edge20" class="edge"><title>Node15&#45;&gt;Node1</title>
<path fill="none" stroke="midnightblue" d="M830.027,-236.446C827.26,-208.544 821.571,-118.391 855,-56 861.608,-43.6678 873.062,-33.1964 883.542,-25.4664"/>
<polygon fill="midnightblue" stroke="midnightblue" points="885.745,-28.1982 891.987,-19.6373 881.769,-22.4372 885.745,-28.1982"/>
</g>
<!-- Node15&#45;&gt;Node6 -->
<g id="edge27" class="edge"><title>Node15&#45;&gt;Node6</title>
<path fill="none" stroke="midnightblue" d="M867.425,-236.432C987.529,-207.889 1365.64,-115.607 1405,-76 1417.08,-63.8406 1421.89,-44.5663 1423.79,-30.1584"/>
<polygon fill="midnightblue" stroke="midnightblue" points="1427.31,-30.1637 1424.78,-19.8758 1420.34,-29.497 1427.31,-30.1637"/>
</g>
<!-- Node16 -->
<g id="node17" class="node"><title>Node16</title>
<g id="a_node17"><a xlink:href="api_2time_8h.html" target="_top" xlink:title="ODP time. ">
<polygon fill="white" stroke="black" points="702,-174.5 702,-193.5 780,-193.5 780,-174.5 702,-174.5"/>
<text text-anchor="middle" x="741" y="-181.5" font-family="Helvetica,sans-Serif" font-size="10.00">odp/api/time.h</text>
</a>
</g>
</g>
<!-- Node15&#45;&gt;Node16 -->
<g id="edge21" class="edge"><title>Node15&#45;&gt;Node16</title>
<path fill="none" stroke="midnightblue" d="M818.105,-236.403C803.536,-226.691 779.598,-210.732 762.255,-199.17"/>
<polygon fill="midnightblue" stroke="midnightblue" points="764.133,-196.215 753.871,-193.581 760.25,-202.04 764.133,-196.215"/>
</g>
<!-- Node16&#45;&gt;Node2 -->
<g id="edge22" class="edge"><title>Node16&#45;&gt;Node2</title>
<path fill="none" stroke="midnightblue" d="M705.02,-174.467C659.966,-163.783 582.743,-145.469 533.595,-133.813"/>
<polygon fill="midnightblue" stroke="midnightblue" points="534.394,-130.405 523.856,-131.503 532.778,-137.217 534.394,-130.405"/>
</g>
<!-- Node17 -->
<g id="node18" class="node"><title>Node17</title>
<polygon fill="white" stroke="#bfbfbf" points="671,-112.5 671,-131.5 765,-131.5 765,-112.5 671,-112.5"/>
<text text-anchor="middle" x="718" y="-119.5" font-family="Helvetica,sans-Serif" font-size="10.00">odp/api/abi/time.h</text>
</g>
<!-- Node16&#45;&gt;Node17 -->
<g id="edge23" class="edge"><title>Node16&#45;&gt;Node17</title>
<path fill="none" stroke="midnightblue" d="M737.705,-174.403C734.391,-165.76 729.182,-152.17 724.951,-141.134"/>
<polygon fill="midnightblue" stroke="midnightblue" points="728.137,-139.665 721.289,-131.581 721.601,-142.171 728.137,-139.665"/>
</g>
<!-- Node18 -->
<g id="node19" class="node"><title>Node18</title>
<g id="a_node19"><a xlink:href="api_2spec_2time_8h.html" target="_top" xlink:title="ODP time. ">
<polygon fill="white" stroke="black" points="935,-56.5 935,-75.5 1037,-75.5 1037,-56.5 935,-56.5"/>
<text text-anchor="middle" x="986" y="-63.5" font-family="Helvetica,sans-Serif" font-size="10.00">odp/api/spec/time.h</text>
</a>
</g>
</g>
<!-- Node16&#45;&gt;Node18 -->
<g id="edge24" class="edge"><title>Node16&#45;&gt;Node18</title>
<path fill="none" stroke="midnightblue" d="M759.015,-174.47C801.492,-154.359 908.12,-103.874 958.638,-79.955"/>
<polygon fill="midnightblue" stroke="midnightblue" points="960.418,-82.9849 967.958,-75.5423 957.422,-76.6582 960.418,-82.9849"/>
</g>
<!-- Node18&#45;&gt;Node1 -->
<g id="edge25" class="edge"><title>Node18&#45;&gt;Node1</title>
<path fill="none" stroke="midnightblue" d="M973.307,-56.324C961.099,-47.979 942.422,-35.2122 927.997,-25.3524"/>
<polygon fill="midnightblue" stroke="midnightblue" points="929.892,-22.4082 919.661,-19.6545 925.942,-28.1871 929.892,-22.4082"/>
</g>
<!-- Node18&#45;&gt;Node6 -->
<g id="edge26" class="edge"><title>Node18&#45;&gt;Node6</title>
<path fill="none" stroke="midnightblue" d="M1037.22,-58.6998C1118.8,-48.6641 1277.91,-29.0931 1364.81,-18.4038"/>
<polygon fill="midnightblue" stroke="midnightblue" points="1365.29,-21.8718 1374.78,-17.177 1364.43,-14.9241 1365.29,-21.8718"/>
</g>
<!-- Node19&#45;&gt;Node2 -->
<g id="edge30" class="edge"><title>Node19&#45;&gt;Node2</title>
<path fill="none" stroke="midnightblue" d="M531.814,-533.03C435.993,-523.03 214,-492.764 214,-427 214,-427 214,-427 214,-307 214,-274.334 211.094,-260.232 233,-236 263.279,-202.505 286.507,-217.807 328,-200 376.265,-179.287 431.155,-152.039 462.474,-136.128"/>
<polygon fill="midnightblue" stroke="midnightblue" points="464.085,-139.236 471.403,-131.575 460.905,-133 464.085,-139.236"/>
</g>
<!-- Node19&#45;&gt;Node8 -->
<g id="edge31" class="edge"><title>Node19&#45;&gt;Node8</title>
<path fill="none" stroke="midnightblue" d="M531.959,-534.892C466.387,-529.108 349,-507.51 349,-427 349,-427 349,-427 349,-369 349,-328.111 322.394,-286.147 305.536,-263.662"/>
<polygon fill="midnightblue" stroke="midnightblue" points="308.119,-261.281 299.219,-255.532 302.591,-265.576 308.119,-261.281"/>
</g>
<!-- Node19&#45;&gt;Node13 -->
<g id="edge33" class="edge"><title>Node19&#45;&gt;Node13</title>
<path fill="none" stroke="midnightblue" d="M552.896,-528.442C518.482,-513.501 456,-479.189 456,-427 456,-427 456,-427 456,-369 456,-329.585 434.719,-287.346 421.106,-264.36"/>
<polygon fill="midnightblue" stroke="midnightblue" points="424.038,-262.446 415.826,-255.752 418.071,-266.106 424.038,-262.446"/>
</g>
<!-- Node19&#45;&gt;Node14 -->
<g id="edge34" class="edge"><title>Node19&#45;&gt;Node14</title>
<path fill="none" stroke="midnightblue" d="M586.087,-528.33C606.509,-511.293 648,-471.236 648,-427 648,-427 648,-427 648,-369 648,-316.158 808.2,-275.744 896.012,-257.561"/>
<polygon fill="midnightblue" stroke="midnightblue" points="896.73,-260.987 905.829,-255.558 895.331,-254.128 896.73,-260.987"/>
</g>
<!-- Node20 -->
<g id="node21" class="node"><title>Node20</title>
<polygon fill="white" stroke="#bfbfbf" points="676.5,-472.5 676.5,-491.5 777.5,-491.5 777.5,-472.5 676.5,-472.5"/>
<text text-anchor="middle" x="727" y="-479.5" font-family="Helvetica,sans-Serif" font-size="10.00">odp/api/abi/queue.h</text>
</g>
<!-- Node19&#45;&gt;Node20 -->
<g id="edge32" class="edge"><title>Node19&#45;&gt;Node20</title>
<path fill="none" stroke="midnightblue" d="M599.085,-528.444C624.545,-519.399 664.894,-505.064 693.459,-494.916"/>
<polygon fill="midnightblue" stroke="midnightblue" points="694.777,-498.162 703.028,-491.516 692.433,-491.566 694.777,-498.162"/>
</g>
<!-- Node21 -->
<g id="node22" class="node"><title>Node21</title>
<g id="a_node22"><a xlink:href="api_2spec_2queue_8h.html" target="_top" xlink:title="ODP queue. ">
<polygon fill="white" stroke="black" points="1010,-472.5 1010,-491.5 1120,-491.5 1120,-472.5 1010,-472.5"/>
<text text-anchor="middle" x="1065" y="-479.5" font-family="Helvetica,sans-Serif" font-size="10.00">odp/api/spec/queue.h</text>
</a>
</g>
</g>
<!-- Node19&#45;&gt;Node21 -->
<g id="edge35" class="edge"><title>Node19&#45;&gt;Node21</title>
<path fill="none" stroke="midnightblue" d="M618.055,-532.255C704.077,-522.775 897.656,-501.442 999.509,-490.217"/>
<polygon fill="midnightblue" stroke="midnightblue" points="1000.11,-493.672 1009.67,-489.098 999.347,-486.714 1000.11,-493.672"/>
</g>
<!-- Node21&#45;&gt;Node1 -->
<g id="edge36" class="edge"><title>Node21&#45;&gt;Node1</title>
<path fill="none" stroke="midnightblue" d="M1065,-472.442C1065,-453.936 1065,-408.812 1065,-371 1065,-371 1065,-371 1065,-307 1065,-187.18 978.478,-183.717 926,-76 918.759,-61.1369 913.74,-42.9892 910.687,-29.6504"/>
<polygon fill="midnightblue" stroke="midnightblue" points="914.085,-28.8059 908.579,-19.7546 907.239,-30.2644 914.085,-28.8059"/>
</g>
<!-- Node21&#45;&gt;Node6 -->
<g id="edge54" class="edge"><title>Node21&#45;&gt;Node6</title>
<path fill="none" stroke="midnightblue" d="M1120.05,-472.885C1274.55,-448.577 1701,-370.315 1701,-247 1701,-247 1701,-247 1701,-121 1701,-74.1306 1561.92,-38.3727 1481.22,-21.5692"/>
<polygon fill="midnightblue" stroke="midnightblue" points="1481.7,-18.0948 1471.2,-19.5177 1480.29,-24.9526 1481.7,-18.0948"/>
</g>
<!-- Node21&#45;&gt;Node7 -->
<g id="edge37" class="edge"><title>Node21&#45;&gt;Node7</title>
<path fill="none" stroke="midnightblue" d="M1044.88,-472.444C1023.98,-463.557 991.065,-449.563 967.284,-439.451"/>
<polygon fill="midnightblue" stroke="midnightblue" points="968.602,-436.208 958.029,-435.516 965.862,-442.65 968.602,-436.208"/>
</g>
<!-- Node22 -->
<g id="node23" class="node"><title>Node22</title>
<g id="a_node23"><a xlink:href="queue__types_8h.html" target="_top" xlink:title="ODP queue types. ">
<polygon fill="white" stroke="black" points="1321.5,-293 1321.5,-323 1422.5,-323 1422.5,-293 1321.5,-293"/>
<text text-anchor="start" x="1329.5" y="-311" font-family="Helvetica,sans-Serif" font-size="10.00">odp/api/spec/queue</text>
<text text-anchor="middle" x="1372" y="-300" font-family="Helvetica,sans-Serif" font-size="10.00">_types.h</text>
</a>
</g>
</g>
<!-- Node21&#45;&gt;Node22 -->
<g id="edge38" class="edge"><title>Node21&#45;&gt;Node22</title>
<path fill="none" stroke="midnightblue" d="M1080.22,-472.47C1127.37,-446.056 1271.76,-365.16 1338.07,-328.012"/>
<polygon fill="midnightblue" stroke="midnightblue" points="1339.87,-331.012 1346.89,-323.071 1336.45,-324.905 1339.87,-331.012"/>
</g>
<!-- Node22&#45;&gt;Node1 -->
<g id="edge39" class="edge"><title>Node22&#45;&gt;Node1</title>
<path fill="none" stroke="midnightblue" d="M1348.91,-292.889C1332.42,-282.748 1309.75,-268.685 1290,-256 1206.1,-202.105 1175.81,-200.138 1103,-132 1071.97,-102.968 1079.65,-80.587 1045,-56 1021.67,-39.4495 991.904,-28.7291 965.991,-21.9225"/>
<polygon fill="midnightblue" stroke="midnightblue" points="966.819,-18.5219 956.27,-19.5014 965.127,-25.3144 966.819,-18.5219"/>
</g>
<!-- Node22&#45;&gt;Node6 -->
<g id="edge53" class="edge"><title>Node22&#45;&gt;Node6</title>
<path fill="none" stroke="midnightblue" d="M1405.63,-292.941C1440.27,-276.405 1492.3,-245.332 1515,-200 1543.65,-142.773 1548.65,-110.442 1515,-56 1505.33,-40.348 1488.38,-29.958 1471.78,-23.1496"/>
<polygon fill="midnightblue" stroke="midnightblue" points="1472.69,-19.7561 1462.1,-19.5421 1470.25,-26.3151 1472.69,-19.7561"/>
</g>
<!-- Node22&#45;&gt;Node23 -->
<g id="edge40" class="edge"><title>Node22&#45;&gt;Node23</title>
<path fill="none" stroke="midnightblue" d="M1422.55,-294.202C1465.04,-283.446 1525.12,-268.235 1565.49,-258.014"/>
<polygon fill="midnightblue" stroke="midnightblue" points="1566.47,-261.376 1575.31,-255.529 1564.76,-254.591 1566.47,-261.376"/>
</g>
<!-- Node28 -->
<g id="node29" class="node"><title>Node28</title>
<g id="a_node29"><a xlink:href="deprecated_8h.html" target="_top" xlink:title="Control deprecated API definitions. ">
<polygon fill="white" stroke="black" points="1111.5,-112.5 1111.5,-131.5 1218.5,-131.5 1218.5,-112.5 1111.5,-112.5"/>
<text text-anchor="middle" x="1165" y="-119.5" font-family="Helvetica,sans-Serif" font-size="10.00">odp/api/deprecated.h</text>
</a>
</g>
</g>
<!-- Node22&#45;&gt;Node28 -->
<g id="edge49" class="edge"><title>Node22&#45;&gt;Node28</title>
<path fill="none" stroke="midnightblue" d="M1356.1,-292.867C1318.1,-259.085 1222.2,-173.849 1182.57,-138.614"/>
<polygon fill="midnightblue" stroke="midnightblue" points="1184.8,-135.919 1175,-131.891 1180.15,-141.151 1184.8,-135.919"/>
</g>
<!-- Node24 -->
<g id="node25" class="node"><title>Node24</title>
<polygon fill="white" stroke="#bfbfbf" points="1567,-169 1567,-199 1673,-199 1673,-169 1567,-169"/>
<text text-anchor="start" x="1575" y="-187" font-family="Helvetica,sans-Serif" font-size="10.00">odp/api/abi/schedule</text>
<text text-anchor="middle" x="1620" y="-176" font-family="Helvetica,sans-Serif" font-size="10.00">_types.h</text>
</g>
<!-- Node23&#45;&gt;Node24 -->
<g id="edge41" class="edge"><title>Node23&#45;&gt;Node24</title>
<path fill="none" stroke="midnightblue" d="M1610.58,-236.403C1611.88,-229.265 1613.81,-218.752 1615.58,-209.09"/>
<polygon fill="midnightblue" stroke="midnightblue" points="1619.05,-209.608 1617.41,-199.141 1612.16,-208.346 1619.05,-209.608"/>
</g>
<!-- Node25 -->
<g id="node26" class="node"><title>Node25</title>
<g id="a_node26"><a xlink:href="api_2spec_2schedule__types_8h.html" target="_top" xlink:title="ODP schedule types. ">
<polygon fill="white" stroke="black" points="1359,-169 1359,-199 1473,-199 1473,-169 1359,-169"/>
<text text-anchor="start" x="1367" y="-187" font-family="Helvetica,sans-Serif" font-size="10.00">odp/api/spec/schedule</text>
<text text-anchor="middle" x="1416" y="-176" font-family="Helvetica,sans-Serif" font-size="10.00">_types.h</text>
</a>
</g>
</g>
<!-- Node23&#45;&gt;Node25 -->
<g id="edge42" class="edge"><title>Node23&#45;&gt;Node25</title>
<path fill="none" stroke="midnightblue" d="M1581.35,-236.403C1552.67,-227.488 1507.07,-213.311 1471.01,-202.101"/>
<polygon fill="midnightblue" stroke="midnightblue" points="1471.7,-198.652 1461.11,-199.025 1469.62,-205.336 1471.7,-198.652"/>
</g>
<!-- Node25&#45;&gt;Node1 -->
<g id="edge43" class="edge"><title>Node25&#45;&gt;Node1</title>
<path fill="none" stroke="midnightblue" d="M1389.18,-168.826C1371.42,-159.106 1347.82,-145.56 1328,-132 1283.37,-101.47 1282.68,-77.3524 1233,-56 1187.13,-36.2837 1051.94,-22.5141 970.777,-15.7612"/>
<polygon fill="midnightblue" stroke="midnightblue" points="970.922,-12.2615 960.67,-14.9333 970.35,-19.2381 970.922,-12.2615"/>
</g>
<!-- Node25&#45;&gt;Node6 -->
<g id="edge48" class="edge"><title>Node25&#45;&gt;Node6</title>
<path fill="none" stroke="midnightblue" d="M1423.92,-168.773C1429.02,-158.811 1435.19,-145.008 1438,-132 1445.13,-98.9795 1444.08,-89.3973 1439,-56 1437.63,-47.001 1434.81,-37.3251 1432.05,-29.2601"/>
<polygon fill="midnightblue" stroke="midnightblue" points="1435.31,-27.9759 1428.6,-19.7782 1428.73,-30.3722 1435.31,-27.9759"/>
</g>
<!-- Node26 -->
<g id="node27" class="node"><title>Node26</title>
<g id="a_node27"><a xlink:href="support_8h.html" target="_top" xlink:title="ODP support API &#45; platform specific header. ">
<polygon fill="white" stroke="black" points="1337,-112.5 1337,-131.5 1429,-131.5 1429,-112.5 1337,-112.5"/>
<text text-anchor="middle" x="1383" y="-119.5" font-family="Helvetica,sans-Serif" font-size="10.00">odp/api/support.h</text>
</a>
</g>
</g>
<!-- Node25&#45;&gt;Node26 -->
<g id="edge44" class="edge"><title>Node25&#45;&gt;Node26</title>
<path fill="none" stroke="midnightblue" d="M1408.18,-168.781C1403.53,-160.332 1397.6,-149.548 1392.66,-140.569"/>
<polygon fill="midnightblue" stroke="midnightblue" points="1395.69,-138.806 1387.8,-131.731 1389.55,-142.179 1395.69,-138.806"/>
</g>
<!-- Node27 -->
<g id="node28" class="node"><title>Node27</title>
<g id="a_node28"><a xlink:href="spec_2support_8h.html" target="_top" xlink:title="ODP support API. ">
<polygon fill="white" stroke="black" points="1281,-56.5 1281,-75.5 1397,-75.5 1397,-56.5 1281,-56.5"/>
<text text-anchor="middle" x="1339" y="-63.5" font-family="Helvetica,sans-Serif" font-size="10.00">odp/api/spec/support.h</text>
</a>
</g>
</g>
<!-- Node26&#45;&gt;Node27 -->
<g id="edge45" class="edge"><title>Node26&#45;&gt;Node27</title>
<path fill="none" stroke="midnightblue" d="M1375.73,-112.083C1369.46,-104.377 1360.21,-93.0333 1352.57,-83.6531"/>
<polygon fill="midnightblue" stroke="midnightblue" points="1355.16,-81.2926 1346.13,-75.7511 1349.73,-85.7143 1355.16,-81.2926"/>
</g>
<!-- Node27&#45;&gt;Node1 -->
<g id="edge46" class="edge"><title>Node27&#45;&gt;Node1</title>
<path fill="none" stroke="midnightblue" d="M1280.74,-57.7173C1199.93,-47.6164 1054.36,-29.4204 970.741,-18.9676"/>
<polygon fill="midnightblue" stroke="midnightblue" points="970.967,-15.4687 960.61,-17.7013 970.099,-22.4147 970.967,-15.4687"/>
</g>
<!-- Node27&#45;&gt;Node6 -->
<g id="edge47" class="edge"><title>Node27&#45;&gt;Node6</title>
<path fill="none" stroke="midnightblue" d="M1352.82,-56.324C1366.23,-47.9002 1386.82,-34.9709 1402.59,-25.0741"/>
<polygon fill="midnightblue" stroke="midnightblue" points="1404.61,-27.9364 1411.22,-19.6545 1400.89,-22.0081 1404.61,-27.9364"/>
</g>
<!-- Node29 -->
<g id="node30" class="node"><title>Node29</title>
<g id="a_node30"><a xlink:href="spec_2deprecated_8h.html" target="_top" xlink:title="Macro for deprecated API definitions. ">
<polygon fill="white" stroke="black" points="1093.5,-56.5 1093.5,-75.5 1224.5,-75.5 1224.5,-56.5 1093.5,-56.5"/>
<text text-anchor="middle" x="1159" y="-63.5" font-family="Helvetica,sans-Serif" font-size="10.00">odp/api/spec/deprecated.h</text>
</a>
</g>
</g>
<!-- Node28&#45;&gt;Node29 -->
<g id="edge50" class="edge"><title>Node28&#45;&gt;Node29</title>
<path fill="none" stroke="midnightblue" d="M1164.01,-112.083C1163.21,-104.927 1162.07,-94.6353 1161.08,-85.6911"/>
<polygon fill="midnightblue" stroke="midnightblue" points="1164.56,-85.3034 1159.97,-75.7511 1157.6,-86.0765 1164.56,-85.3034"/>
</g>
<!-- Node29&#45;&gt;Node1 -->
<g id="edge51" class="edge"><title>Node29&#45;&gt;Node1</title>
<path fill="none" stroke="midnightblue" d="M1119.07,-56.4435C1075.11,-47.0234 1004.37,-31.8656 956.817,-21.6752"/>
<polygon fill="midnightblue" stroke="midnightblue" points="957.255,-18.1895 946.743,-19.5164 955.788,-25.0341 957.255,-18.1895"/>
</g>
<!-- Node29&#45;&gt;Node6 -->
<g id="edge52" class="edge"><title>Node29&#45;&gt;Node6</title>
<path fill="none" stroke="midnightblue" d="M1201.15,-56.4435C1247.75,-46.9839 1322.84,-31.7384 1373.05,-21.5472"/>
<polygon fill="midnightblue" stroke="midnightblue" points="1373.94,-24.936 1383.05,-19.5164 1372.55,-18.076 1373.94,-24.936"/>
</g>
<!-- Node31 -->
<g id="node32" class="node"><title>Node31</title>
<polygon fill="white" stroke="#bfbfbf" points="0,-174.5 0,-193.5 110,-193.5 110,-174.5 0,-174.5"/>
<text text-anchor="middle" x="55" y="-181.5" font-family="Helvetica,sans-Serif" font-size="10.00">odp/api/abi/thrmask.h</text>
</g>
<!-- Node30&#45;&gt;Node31 -->
<g id="edge57" class="edge"><title>Node30&#45;&gt;Node31</title>
<path fill="none" stroke="midnightblue" d="M60.9971,-236.403C60.0094,-227.938 58.4683,-214.728 57.1957,-203.82"/>
<polygon fill="midnightblue" stroke="midnightblue" points="60.6364,-203.108 56.0011,-193.581 53.6835,-203.919 60.6364,-203.108"/>
</g>
<!-- Node32 -->
<g id="node33" class="node"><title>Node32</title>
<g id="a_node33"><a xlink:href="api_2spec_2thrmask_8h.html" target="_top" xlink:title="ODP thread masks. ">
<polygon fill="white" stroke="black" points="166.5,-174.5 166.5,-193.5 285.5,-193.5 285.5,-174.5 166.5,-174.5"/>
<text text-anchor="middle" x="226" y="-181.5" font-family="Helvetica,sans-Serif" font-size="10.00">odp/api/spec/thrmask.h</text>
</a>
</g>
</g>
<!-- Node30&#45;&gt;Node32 -->
<g id="edge58" class="edge"><title>Node30&#45;&gt;Node32</title>
<path fill="none" stroke="midnightblue" d="M85.4972,-236.403C113.629,-226.111 160.929,-208.806 192.789,-197.15"/>
<polygon fill="midnightblue" stroke="midnightblue" points="194.358,-200.303 202.546,-193.581 191.953,-193.73 194.358,-200.303"/>
</g>
<!-- Node32&#45;&gt;Node1 -->
<g id="edge59" class="edge"><title>Node32&#45;&gt;Node1</title>
<path fill="none" stroke="midnightblue" d="M224.172,-174.252C219.877,-150.979 211.921,-87.1981 246,-56 289.385,-16.2828 685.447,-11.3058 842.893,-10.9095"/>
<polygon fill="midnightblue" stroke="midnightblue" points="843.367,-14.4087 853.36,-10.8891 843.353,-7.40873 843.367,-14.4087"/>
</g>
<!-- Node32&#45;&gt;Node2 -->
<g id="edge60" class="edge"><title>Node32&#45;&gt;Node2</title>
<path fill="none" stroke="midnightblue" d="M263.26,-174.467C310.014,-163.76 390.221,-145.392 441.102,-133.74"/>
<polygon fill="midnightblue" stroke="midnightblue" points="441.902,-137.147 450.869,-131.503 440.34,-130.324 441.902,-137.147"/>
</g>
<!-- Node32&#45;&gt;Node6 -->
<g id="edge61" class="edge"><title>Node32&#45;&gt;Node6</title>
<path fill="none" stroke="midnightblue" d="M238.819,-174.401C279.904,-146.918 406.849,-62.6168 428,-56 517.091,-28.1297 1162.7,-15.2934 1364.73,-11.9297"/>
<polygon fill="midnightblue" stroke="midnightblue" points="1364.92,-15.4272 1374.86,-11.7628 1364.81,-8.42811 1364.92,-15.4272"/>
</g>
</g>
</svg>
