<?xml version="1.0" encoding="UTF-8" standalone="no"?>
<!DOCTYPE svg PUBLIC "-//W3C//DTD SVG 1.1//EN"
 "http://www.w3.org/Graphics/SVG/1.1/DTD/svg11.dtd">
<!-- Generated by graphviz version 2.36.0 (20140111.2315)
 -->
<!-- Title: queue.h Pages: 1 -->
<svg width="1256pt" height="556pt"
 viewBox="0.00 0.00 1256.00 556.00" xmlns="http://www.w3.org/2000/svg" xmlns:xlink="http://www.w3.org/1999/xlink">
<g id="graph0" class="graph" transform="scale(1 1) rotate(0) translate(4 552)">
<title>queue.h</title>
<polygon fill="white" stroke="none" points="-4,4 -4,-552 1252,-552 1252,4 -4,4"/>
<!-- Node0 -->
<g id="node1" class="node"><title>Node0</title>
<polygon fill="#bfbfbf" stroke="black" points="130.5,-528.5 130.5,-547.5 181.5,-547.5 181.5,-528.5 130.5,-528.5"/>
<text text-anchor="middle" x="156" y="-535.5" font-family="Helvetica,sans-Serif" font-size="10.00">queue.h</text>
</g>
<!-- Node1 -->
<g id="node2" class="node"><title>Node1</title>
<g id="a_node2"><a xlink:href="api_2std__types_8h.html" target="_top" xlink:title="Standard C language types and definitions for ODP. ">
<polygon fill="white" stroke="black" points="294,-112.5 294,-131.5 396,-131.5 396,-112.5 294,-112.5"/>
<text text-anchor="middle" x="345" y="-119.5" font-family="Helvetica,sans-Serif" font-size="10.00">odp/api/std_types.h</text>
</a>
</g>
</g>
<!-- Node0&#45;&gt;Node1 -->
<g id="edge1" class="edge"><title>Node0&#45;&gt;Node1</title>
<path fill="none" stroke="midnightblue" d="M130.24,-531.391C85.9314,-520.059 0,-489.965 0,-427 0,-427 0,-427 0,-245 0,-185.498 184.711,-147.754 283.825,-131.784"/>
<polygon fill="midnightblue" stroke="midnightblue" points="284.394,-135.238 293.723,-130.216 283.298,-128.324 284.394,-135.238"/>
</g>
<!-- Node7 -->
<g id="node8" class="node"><title>Node7</title>
<polygon fill="white" stroke="#bfbfbf" points="762.5,-236.5 762.5,-255.5 861.5,-255.5 861.5,-236.5 762.5,-236.5"/>
<text text-anchor="middle" x="812" y="-243.5" font-family="Helvetica,sans-Serif" font-size="10.00">odp/api/abi/event.h</text>
</g>
<!-- Node0&#45;&gt;Node7 -->
<g id="edge7" class="edge"><title>Node0&#45;&gt;Node7</title>
<path fill="none" stroke="midnightblue" d="M181.842,-537.05C286.072,-536.571 670,-527.953 670,-427 670,-427 670,-427 670,-369 670,-312.614 735.214,-276.622 777.253,-259.279"/>
<polygon fill="midnightblue" stroke="midnightblue" points="778.609,-262.507 786.613,-255.565 776.027,-256 778.609,-262.507"/>
</g>
<!-- Node8 -->
<g id="node9" class="node"><title>Node8</title>
<polygon fill="white" stroke="#bfbfbf" points="66.5,-472.5 66.5,-491.5 167.5,-491.5 167.5,-472.5 66.5,-472.5"/>
<text text-anchor="middle" x="117" y="-479.5" font-family="Helvetica,sans-Serif" font-size="10.00">odp/api/abi/queue.h</text>
</g>
<!-- Node0&#45;&gt;Node8 -->
<g id="edge8" class="edge"><title>Node0&#45;&gt;Node8</title>
<path fill="none" stroke="midnightblue" d="M149.56,-528.083C144.051,-520.455 135.969,-509.264 129.235,-499.941"/>
<polygon fill="midnightblue" stroke="midnightblue" points="132.013,-497.809 123.32,-491.751 126.338,-501.907 132.013,-497.809"/>
</g>
<!-- Node9 -->
<g id="node10" class="node"><title>Node9</title>
<polygon fill="white" stroke="#bfbfbf" points="29,-236.5 29,-255.5 129,-255.5 129,-236.5 29,-236.5"/>
<text text-anchor="middle" x="79" y="-243.5" font-family="Helvetica,sans-Serif" font-size="10.00">odp/api/abi/buffer.h</text>
</g>
<!-- Node0&#45;&gt;Node9 -->
<g id="edge9" class="edge"><title>Node0&#45;&gt;Node9</title>
<path fill="none" stroke="midnightblue" d="M130.445,-531.724C108.003,-525.79 76.0461,-513.968 57,-492 37.2838,-469.259 38,-457.098 38,-427 38,-427 38,-427 38,-369 38,-330.071 56.9886,-287.625 69.1208,-264.478"/>
<polygon fill="midnightblue" stroke="midnightblue" points="72.2759,-266.002 73.9726,-255.544 66.1245,-262.662 72.2759,-266.002"/>
</g>
<!-- Node10 -->
<g id="node11" class="node"><title>Node10</title>
<polygon fill="white" stroke="#bfbfbf" points="223.5,-236.5 223.5,-255.5 316.5,-255.5 316.5,-236.5 223.5,-236.5"/>
<text text-anchor="middle" x="270" y="-243.5" font-family="Helvetica,sans-Serif" font-size="10.00">odp/api/abi/pool.h</text>
</g>
<!-- Node0&#45;&gt;Node10 -->
<g id="edge10" class="edge"><title>Node0&#45;&gt;Node10</title>
<path fill="none" stroke="midnightblue" d="M159.968,-528.43C164.103,-519.419 170.705,-504.798 176,-492 210.78,-407.935 248.496,-305.944 263.405,-265.144"/>
<polygon fill="midnightblue" stroke="midnightblue" points="266.775,-266.12 266.911,-255.526 260.198,-263.723 266.775,-266.12"/>
</g>
<!-- Node11 -->
<g id="node12" class="node"><title>Node11</title>
<g id="a_node12"><a xlink:href="api_2spec_2queue_8h.html" target="_top" xlink:title="ODP queue. ">
<polygon fill="white" stroke="black" points="741,-472.5 741,-491.5 851,-491.5 851,-472.5 741,-472.5"/>
<text text-anchor="middle" x="796" y="-479.5" font-family="Helvetica,sans-Serif" font-size="10.00">odp/api/spec/queue.h</text>
</a>
</g>
</g>
<!-- Node0&#45;&gt;Node11 -->
<g id="edge11" class="edge"><title>Node0&#45;&gt;Node11</title>
<path fill="none" stroke="midnightblue" d="M181.881,-534.816C274.623,-526.991 592.134,-500.201 730.579,-488.52"/>
<polygon fill="midnightblue" stroke="midnightblue" points="730.96,-492 740.63,-487.672 730.372,-485.025 730.96,-492"/>
</g>
<!-- Node2 -->
<g id="node3" class="node"><title>Node2</title>
<polygon fill="white" stroke="#bfbfbf" points="266,-56.5 266,-75.5 384,-75.5 384,-56.5 266,-56.5"/>
<text text-anchor="middle" x="325" y="-63.5" font-family="Helvetica,sans-Serif" font-size="10.00">odp/api/abi/std_types.h</text>
</g>
<!-- Node1&#45;&gt;Node2 -->
<g id="edge2" class="edge"><title>Node1&#45;&gt;Node2</title>
<path fill="none" stroke="midnightblue" d="M341.697,-112.083C339.018,-104.849 335.151,-94.4087 331.814,-85.3968"/>
<polygon fill="midnightblue" stroke="midnightblue" points="334.996,-83.9129 328.241,-75.7511 328.432,-86.3442 334.996,-83.9129"/>
</g>
<!-- Node3 -->
<g id="node4" class="node"><title>Node3</title>
<g id="a_node4"><a xlink:href="api_2spec_2std__types_8h.html" target="_top" xlink:title="Standard C language types and definitions for ODP. ">
<polygon fill="white" stroke="black" points="402,-56.5 402,-75.5 528,-75.5 528,-56.5 402,-56.5"/>
<text text-anchor="middle" x="465" y="-63.5" font-family="Helvetica,sans-Serif" font-size="10.00">odp/api/spec/std_types.h</text>
</a>
</g>
</g>
<!-- Node1&#45;&gt;Node3 -->
<g id="edge3" class="edge"><title>Node1&#45;&gt;Node3</title>
<path fill="none" stroke="midnightblue" d="M364.014,-112.444C383.588,-103.636 414.308,-89.8116 436.729,-79.722"/>
<polygon fill="midnightblue" stroke="midnightblue" points="438.392,-82.8119 446.075,-75.5164 435.519,-76.4284 438.392,-82.8119"/>
</g>
<!-- Node4 -->
<g id="node5" class="node"><title>Node4</title>
<g id="a_node5"><a xlink:href="visibility__begin_8h_source.html" target="_top" xlink:title="odp/visibility_begin.h">
<polygon fill="white" stroke="black" points="1020.5,-0.5 1020.5,-19.5 1127.5,-19.5 1127.5,-0.5 1020.5,-0.5"/>
<text text-anchor="middle" x="1074" y="-7.5" font-family="Helvetica,sans-Serif" font-size="10.00">odp/visibility_begin.h</text>
</a>
</g>
</g>
<!-- Node3&#45;&gt;Node4 -->
<g id="edge4" class="edge"><title>Node3&#45;&gt;Node4</title>
<path fill="none" stroke="midnightblue" d="M528.165,-59.3992C644.833,-49.0542 892.878,-27.0601 1010.1,-16.6663"/>
<polygon fill="midnightblue" stroke="midnightblue" points="1010.69,-20.1271 1020.35,-15.7575 1010.08,-13.1545 1010.69,-20.1271"/>
</g>
<!-- Node5 -->
<g id="node6" class="node"><title>Node5</title>
<polygon fill="white" stroke="#bfbfbf" points="440.5,-0.5 440.5,-19.5 489.5,-19.5 489.5,-0.5 440.5,-0.5"/>
<text text-anchor="middle" x="465" y="-7.5" font-family="Helvetica,sans-Serif" font-size="10.00">stdint.h</text>
</g>
<!-- Node3&#45;&gt;Node5 -->
<g id="edge5" class="edge"><title>Node3&#45;&gt;Node5</title>
<path fill="none" stroke="midnightblue" d="M465,-56.083C465,-49.0059 465,-38.8611 465,-29.9865"/>
<polygon fill="midnightblue" stroke="midnightblue" points="468.5,-29.751 465,-19.7511 461.5,-29.7511 468.5,-29.751"/>
</g>
<!-- Node6 -->
<g id="node7" class="node"><title>Node6</title>
<g id="a_node7"><a xlink:href="visibility__end_8h_source.html" target="_top" xlink:title="odp/visibility_end.h">
<polygon fill="white" stroke="black" points="585,-0.5 585,-19.5 685,-19.5 685,-0.5 585,-0.5"/>
<text text-anchor="middle" x="635" y="-7.5" font-family="Helvetica,sans-Serif" font-size="10.00">odp/visibility_end.h</text>
</a>
</g>
</g>
<!-- Node3&#45;&gt;Node6 -->
<g id="edge6" class="edge"><title>Node3&#45;&gt;Node6</title>
<path fill="none" stroke="midnightblue" d="M491.937,-56.4435C520.66,-47.3196 566.329,-32.8133 598.321,-22.6509"/>
<polygon fill="midnightblue" stroke="midnightblue" points="599.718,-25.8797 608.189,-19.5164 597.599,-19.2081 599.718,-25.8797"/>
</g>
<!-- Node11&#45;&gt;Node4 -->
<g id="edge12" class="edge"><title>Node11&#45;&gt;Node4</title>
<path fill="none" stroke="midnightblue" d="M851.424,-479.106C972.121,-473.472 1248,-451.763 1248,-371 1248,-371 1248,-371 1248,-121 1248,-64.3767 1181.35,-35.7077 1130.55,-22.0799"/>
<polygon fill="midnightblue" stroke="midnightblue" points="1131.18,-18.6288 1120.63,-19.5511 1129.45,-25.4121 1131.18,-18.6288"/>
</g>
<!-- Node11&#45;&gt;Node6 -->
<g id="edge50" class="edge"><title>Node11&#45;&gt;Node6</title>
<path fill="none" stroke="midnightblue" d="M740.966,-477.984C585.968,-468.001 157,-429.487 157,-309 157,-309 157,-309 157,-121 157,-81.985 181.222,-73.6822 216,-56 247.234,-40.1199 466.355,-22.8073 574.674,-15.0988"/>
<polygon fill="midnightblue" stroke="midnightblue" points="575.072,-18.5795 584.8,-14.3831 574.578,-11.5969 575.072,-18.5795"/>
</g>
<!-- Node12 -->
<g id="node13" class="node"><title>Node12</title>
<g id="a_node13"><a xlink:href="api_2event_8h.html" target="_top" xlink:title="ODP event. ">
<polygon fill="white" stroke="black" points="754.5,-416.5 754.5,-435.5 837.5,-435.5 837.5,-416.5 754.5,-416.5"/>
<text text-anchor="middle" x="796" y="-423.5" font-family="Helvetica,sans-Serif" font-size="10.00">odp/api/event.h</text>
</a>
</g>
</g>
<!-- Node11&#45;&gt;Node12 -->
<g id="edge13" class="edge"><title>Node11&#45;&gt;Node12</title>
<path fill="none" stroke="midnightblue" d="M796,-472.083C796,-465.006 796,-454.861 796,-445.986"/>
<polygon fill="midnightblue" stroke="midnightblue" points="799.5,-445.751 796,-435.751 792.5,-445.751 799.5,-445.751"/>
</g>
<!-- Node21 -->
<g id="node22" class="node"><title>Node21</title>
<g id="a_node22"><a xlink:href="queue__types_8h.html" target="_top" xlink:title="ODP queue types. ">
<polygon fill="white" stroke="black" points="877.5,-293 877.5,-323 978.5,-323 978.5,-293 877.5,-293"/>
<text text-anchor="start" x="885.5" y="-311" font-family="Helvetica,sans-Serif" font-size="10.00">odp/api/spec/queue</text>
<text text-anchor="middle" x="928" y="-300" font-family="Helvetica,sans-Serif" font-size="10.00">_types.h</text>
</a>
</g>
</g>
<!-- Node11&#45;&gt;Node21 -->
<g id="edge34" class="edge"><title>Node11&#45;&gt;Node21</title>
<path fill="none" stroke="midnightblue" d="M807.111,-472.44C817.792,-463.895 834.033,-450.045 846,-436 874.499,-402.55 900.797,-358.528 915.581,-332.072"/>
<polygon fill="midnightblue" stroke="midnightblue" points="918.725,-333.619 920.49,-323.172 912.596,-330.238 918.725,-333.619"/>
</g>
<!-- Node12&#45;&gt;Node7 -->
<g id="edge14" class="edge"><title>Node12&#45;&gt;Node7</title>
<path fill="none" stroke="midnightblue" d="M796.772,-416.415C799.216,-389.227 806.826,-304.563 810.273,-266.217"/>
<polygon fill="midnightblue" stroke="midnightblue" points="813.789,-266.192 811.198,-255.918 806.817,-265.565 813.789,-266.192"/>
</g>
<!-- Node13 -->
<g id="node14" class="node"><title>Node13</title>
<g id="a_node14"><a xlink:href="api_2spec_2event_8h.html" target="_top" xlink:title="ODP event. ">
<polygon fill="white" stroke="black" points="513.5,-360.5 513.5,-379.5 620.5,-379.5 620.5,-360.5 513.5,-360.5"/>
<text text-anchor="middle" x="567" y="-367.5" font-family="Helvetica,sans-Serif" font-size="10.00">odp/api/spec/event.h</text>
</a>
</g>
</g>
<!-- Node12&#45;&gt;Node13 -->
<g id="edge15" class="edge"><title>Node12&#45;&gt;Node13</title>
<path fill="none" stroke="midnightblue" d="M759.714,-416.444C720.017,-407.083 656.293,-392.056 613.088,-381.868"/>
<polygon fill="midnightblue" stroke="midnightblue" points="613.652,-378.405 603.116,-379.516 612.046,-385.218 613.652,-378.405"/>
</g>
<!-- Node13&#45;&gt;Node4 -->
<g id="edge16" class="edge"><title>Node13&#45;&gt;Node4</title>
<path fill="none" stroke="midnightblue" d="M620.667,-367.121C701.139,-363.438 857.453,-352.915 987,-324 1089.33,-301.158 1210,-351.853 1210,-247 1210,-247 1210,-247 1210,-121 1210,-70.0813 1151.66,-38.6742 1111.4,-23.0633"/>
<polygon fill="midnightblue" stroke="midnightblue" points="1112.44,-19.7184 1101.85,-19.522 1110.01,-26.2814 1112.44,-19.7184"/>
</g>
<!-- Node13&#45;&gt;Node6 -->
<g id="edge33" class="edge"><title>Node13&#45;&gt;Node6</title>
<path fill="none" stroke="midnightblue" d="M513.263,-367.208C435.958,-361.655 293.899,-339.857 214,-256 191.467,-232.35 195,-217.666 195,-185 195,-185 195,-185 195,-121 195,-81.0766 221.293,-73.858 257,-56 284.723,-42.1347 474.827,-24.4235 574.419,-15.9501"/>
<polygon fill="midnightblue" stroke="midnightblue" points="574.972,-19.4159 584.641,-15.0858 574.382,-12.4408 574.972,-19.4159"/>
</g>
<!-- Node14 -->
<g id="node15" class="node"><title>Node14</title>
<g id="a_node15"><a xlink:href="api_2packet_8h.html" target="_top" xlink:title="ODP packet descriptor. ">
<polygon fill="white" stroke="black" points="452.5,-298.5 452.5,-317.5 541.5,-317.5 541.5,-298.5 452.5,-298.5"/>
<text text-anchor="middle" x="497" y="-305.5" font-family="Helvetica,sans-Serif" font-size="10.00">odp/api/packet.h</text>
</a>
</g>
</g>
<!-- Node13&#45;&gt;Node14 -->
<g id="edge17" class="edge"><title>Node13&#45;&gt;Node14</title>
<path fill="none" stroke="midnightblue" d="M556.971,-360.403C545.951,-350.958 528.04,-335.606 514.657,-324.134"/>
<polygon fill="midnightblue" stroke="midnightblue" points="516.881,-321.431 507.011,-317.581 512.325,-326.746 516.881,-321.431"/>
</g>
<!-- Node14&#45;&gt;Node1 -->
<g id="edge18" class="edge"><title>Node14&#45;&gt;Node1</title>
<path fill="none" stroke="midnightblue" d="M452.482,-301.619C422.802,-295.6 385.434,-282.873 364,-256 337.54,-222.824 339.093,-169.63 342.206,-141.626"/>
<polygon fill="midnightblue" stroke="midnightblue" points="345.691,-141.973 343.513,-131.604 338.749,-141.067 345.691,-141.973"/>
</g>
<!-- Node14&#45;&gt;Node7 -->
<g id="edge19" class="edge"><title>Node14&#45;&gt;Node7</title>
<path fill="none" stroke="midnightblue" d="M541.797,-298.467C598.594,-287.649 696.454,-269.009 757.515,-257.378"/>
<polygon fill="midnightblue" stroke="midnightblue" points="758.189,-260.813 767.357,-255.503 756.879,-253.936 758.189,-260.813"/>
</g>
<!-- Node14&#45;&gt;Node9 -->
<g id="edge22" class="edge"><title>Node14&#45;&gt;Node9</title>
<path fill="none" stroke="midnightblue" d="M452.267,-300.579C376.778,-289.743 224.051,-267.821 139.224,-255.645"/>
<polygon fill="midnightblue" stroke="midnightblue" points="139.622,-252.166 129.226,-254.209 138.627,-259.095 139.622,-252.166"/>
</g>
<!-- Node14&#45;&gt;Node10 -->
<g id="edge23" class="edge"><title>Node14&#45;&gt;Node10</title>
<path fill="none" stroke="midnightblue" d="M464.476,-298.403C424.442,-287.822 356.362,-269.827 312.298,-258.18"/>
<polygon fill="midnightblue" stroke="midnightblue" points="313.026,-254.752 302.463,-255.581 311.237,-261.52 313.026,-254.752"/>
</g>
<!-- Node15 -->
<g id="node16" class="node"><title>Node15</title>
<polygon fill="white" stroke="#bfbfbf" points="373.5,-236.5 373.5,-255.5 490.5,-255.5 490.5,-236.5 373.5,-236.5"/>
<text text-anchor="middle" x="432" y="-243.5" font-family="Helvetica,sans-Serif" font-size="10.00">odp/api/abi/packet_io.h</text>
</g>
<!-- Node14&#45;&gt;Node15 -->
<g id="edge20" class="edge"><title>Node14&#45;&gt;Node15</title>
<path fill="none" stroke="midnightblue" d="M487.687,-298.403C477.551,-289.047 461.136,-273.895 448.748,-262.46"/>
<polygon fill="midnightblue" stroke="midnightblue" points="451.018,-259.792 441.296,-255.581 446.27,-264.935 451.018,-259.792"/>
</g>
<!-- Node16 -->
<g id="node17" class="node"><title>Node16</title>
<polygon fill="white" stroke="#bfbfbf" points="509,-236.5 509,-255.5 613,-255.5 613,-236.5 509,-236.5"/>
<text text-anchor="middle" x="561" y="-243.5" font-family="Helvetica,sans-Serif" font-size="10.00">odp/api/abi/packet.h</text>
</g>
<!-- Node14&#45;&gt;Node16 -->
<g id="edge21" class="edge"><title>Node14&#45;&gt;Node16</title>
<path fill="none" stroke="midnightblue" d="M506.17,-298.403C516.15,-289.047 532.312,-273.895 544.509,-262.46"/>
<polygon fill="midnightblue" stroke="midnightblue" points="546.946,-264.973 551.847,-255.581 542.158,-259.867 546.946,-264.973"/>
</g>
<!-- Node17 -->
<g id="node18" class="node"><title>Node17</title>
<g id="a_node18"><a xlink:href="api_2spec_2packet_8h.html" target="_top" xlink:title="ODP packet descriptor. ">
<polygon fill="white" stroke="black" points="631.5,-236.5 631.5,-255.5 744.5,-255.5 744.5,-236.5 631.5,-236.5"/>
<text text-anchor="middle" x="688" y="-243.5" font-family="Helvetica,sans-Serif" font-size="10.00">odp/api/spec/packet.h</text>
</a>
</g>
</g>
<!-- Node14&#45;&gt;Node17 -->
<g id="edge24" class="edge"><title>Node14&#45;&gt;Node17</title>
<path fill="none" stroke="midnightblue" d="M524.366,-298.403C557.554,-287.978 613.651,-270.356 650.758,-258.699"/>
<polygon fill="midnightblue" stroke="midnightblue" points="652.194,-261.917 660.685,-255.581 650.096,-255.239 652.194,-261.917"/>
</g>
<!-- Node17&#45;&gt;Node4 -->
<g id="edge25" class="edge"><title>Node17&#45;&gt;Node4</title>
<path fill="none" stroke="midnightblue" d="M695.159,-236.447C708.582,-220.887 739.067,-187.742 771,-168 831.174,-130.799 852.649,-133.648 920,-112 978.709,-93.1301 1009.62,-118.813 1054,-76 1066.47,-63.9698 1071.22,-44.3695 1073,-29.8331"/>
<polygon fill="midnightblue" stroke="midnightblue" points="1076.51,-29.7636 1073.88,-19.5022 1069.54,-29.1684 1076.51,-29.7636"/>
</g>
<!-- Node17&#45;&gt;Node6 -->
<g id="edge32" class="edge"><title>Node17&#45;&gt;Node6</title>
<path fill="none" stroke="midnightblue" d="M679.497,-236.479C657.005,-213.259 596.219,-145.911 575,-76 572.418,-67.4943 571.025,-63.9505 575,-56 581.728,-42.5432 594.606,-32.0665 606.712,-24.6212"/>
<polygon fill="midnightblue" stroke="midnightblue" points="608.733,-27.4985 615.704,-19.5195 605.279,-21.4101 608.733,-27.4985"/>
</g>
<!-- Node18 -->
<g id="node19" class="node"><title>Node18</title>
<g id="a_node19"><a xlink:href="api_2time_8h.html" target="_top" xlink:title="ODP time. ">
<polygon fill="white" stroke="black" points="446,-174.5 446,-193.5 524,-193.5 524,-174.5 446,-174.5"/>
<text text-anchor="middle" x="485" y="-181.5" font-family="Helvetica,sans-Serif" font-size="10.00">odp/api/time.h</text>
</a>
</g>
</g>
<!-- Node17&#45;&gt;Node18 -->
<g id="edge26" class="edge"><title>Node17&#45;&gt;Node18</title>
<path fill="none" stroke="midnightblue" d="M658.915,-236.403C623.415,-225.911 563.255,-208.129 523.826,-196.476"/>
<polygon fill="midnightblue" stroke="midnightblue" points="524.613,-193.059 514.031,-193.581 522.629,-199.772 524.613,-193.059"/>
</g>
<!-- Node18&#45;&gt;Node1 -->
<g id="edge27" class="edge"><title>Node18&#45;&gt;Node1</title>
<path fill="none" stroke="midnightblue" d="M464.941,-174.403C441.238,-164.245 401.594,-147.255 374.417,-135.607"/>
<polygon fill="midnightblue" stroke="midnightblue" points="375.592,-132.303 365.021,-131.581 372.834,-138.737 375.592,-132.303"/>
</g>
<!-- Node19 -->
<g id="node20" class="node"><title>Node19</title>
<polygon fill="white" stroke="#bfbfbf" points="434,-112.5 434,-131.5 528,-131.5 528,-112.5 434,-112.5"/>
<text text-anchor="middle" x="481" y="-119.5" font-family="Helvetica,sans-Serif" font-size="10.00">odp/api/abi/time.h</text>
</g>
<!-- Node18&#45;&gt;Node19 -->
<g id="edge28" class="edge"><title>Node18&#45;&gt;Node19</title>
<path fill="none" stroke="midnightblue" d="M484.427,-174.403C483.863,-165.938 482.982,-152.728 482.255,-141.82"/>
<polygon fill="midnightblue" stroke="midnightblue" points="485.73,-141.326 481.572,-131.581 478.745,-141.791 485.73,-141.326"/>
</g>
<!-- Node20 -->
<g id="node21" class="node"><title>Node20</title>
<g id="a_node21"><a xlink:href="api_2spec_2time_8h.html" target="_top" xlink:title="ODP time. ">
<polygon fill="white" stroke="black" points="584,-56.5 584,-75.5 686,-75.5 686,-56.5 584,-56.5"/>
<text text-anchor="middle" x="635" y="-63.5" font-family="Helvetica,sans-Serif" font-size="10.00">odp/api/spec/time.h</text>
</a>
</g>
</g>
<!-- Node18&#45;&gt;Node20 -->
<g id="edge29" class="edge"><title>Node18&#45;&gt;Node20</title>
<path fill="none" stroke="midnightblue" d="M496.274,-174.281C521.808,-154.535 584.288,-106.218 615.947,-81.7346"/>
<polygon fill="midnightblue" stroke="midnightblue" points="618.233,-84.391 624.002,-75.5048 613.951,-78.8536 618.233,-84.391"/>
</g>
<!-- Node20&#45;&gt;Node4 -->
<g id="edge30" class="edge"><title>Node20&#45;&gt;Node4</title>
<path fill="none" stroke="midnightblue" d="M686.218,-58.6998C766.717,-48.7979 922.681,-29.6133 1010.3,-18.8361"/>
<polygon fill="midnightblue" stroke="midnightblue" points="1010.87,-22.2913 1020.37,-17.5966 1010.02,-15.3437 1010.87,-22.2913"/>
</g>
<!-- Node20&#45;&gt;Node6 -->
<g id="edge31" class="edge"><title>Node20&#45;&gt;Node6</title>
<path fill="none" stroke="midnightblue" d="M635,-56.083C635,-49.0059 635,-38.8611 635,-29.9865"/>
<polygon fill="midnightblue" stroke="midnightblue" points="638.5,-29.751 635,-19.7511 631.5,-29.7511 638.5,-29.751"/>
</g>
<!-- Node21&#45;&gt;Node4 -->
<g id="edge35" class="edge"><title>Node21&#45;&gt;Node4</title>
<path fill="none" stroke="midnightblue" d="M978.557,-303.795C1050.03,-296.216 1172,-270.724 1172,-185 1172,-185 1172,-185 1172,-121 1172,-77.3804 1128.51,-43.0601 1099.47,-25.0074"/>
<polygon fill="midnightblue" stroke="midnightblue" points="1101,-21.8471 1090.62,-19.7265 1097.42,-27.8576 1101,-21.8471"/>
</g>
<!-- Node21&#45;&gt;Node6 -->
<g id="edge49" class="edge"><title>Node21&#45;&gt;Node6</title>
<path fill="none" stroke="midnightblue" d="M919.703,-292.801C909.753,-276.912 891.675,-251.386 870,-236 831.822,-208.9 806.375,-230.669 771,-200 716.164,-152.459 741.038,-111.268 694,-56 683.754,-43.9609 669.773,-33.1234 657.993,-25.1019"/>
<polygon fill="midnightblue" stroke="midnightblue" points="659.794,-22.0977 649.512,-19.5436 655.957,-27.9524 659.794,-22.0977"/>
</g>
<!-- Node22 -->
<g id="node23" class="node"><title>Node22</title>
<g id="a_node23"><a xlink:href="api_2schedule__types_8h.html" target="_top" xlink:title="ODP schedule. ">
<polygon fill="white" stroke="black" points="956,-236.5 956,-255.5 1084,-255.5 1084,-236.5 956,-236.5"/>
<text text-anchor="middle" x="1020" y="-243.5" font-family="Helvetica,sans-Serif" font-size="10.00">odp/api/schedule_types.h</text>
</a>
</g>
</g>
<!-- Node21&#45;&gt;Node22 -->
<g id="edge36" class="edge"><title>Node21&#45;&gt;Node22</title>
<path fill="none" stroke="midnightblue" d="M949.803,-292.781C964.5,-283.196 983.804,-270.606 998.448,-261.056"/>
<polygon fill="midnightblue" stroke="midnightblue" points="1000.42,-263.95 1006.88,-255.556 996.593,-258.087 1000.42,-263.95"/>
</g>
<!-- Node27 -->
<g id="node28" class="node"><title>Node27</title>
<g id="a_node28"><a xlink:href="deprecated_8h.html" target="_top" xlink:title="Control deprecated API definitions. ">
<polygon fill="white" stroke="black" points="780.5,-174.5 780.5,-193.5 887.5,-193.5 887.5,-174.5 780.5,-174.5"/>
<text text-anchor="middle" x="834" y="-181.5" font-family="Helvetica,sans-Serif" font-size="10.00">odp/api/deprecated.h</text>
</a>
</g>
</g>
<!-- Node21&#45;&gt;Node27 -->
<g id="edge45" class="edge"><title>Node21&#45;&gt;Node27</title>
<path fill="none" stroke="midnightblue" d="M925.824,-292.745C922.93,-277.499 916.633,-253.198 904,-236 892.5,-220.345 874.781,-207.503 860.047,-198.621"/>
<polygon fill="midnightblue" stroke="midnightblue" points="861.755,-195.566 851.342,-193.613 858.265,-201.633 861.755,-195.566"/>
</g>
<!-- Node23 -->
<g id="node24" class="node"><title>Node23</title>
<polygon fill="white" stroke="#bfbfbf" points="1038,-169 1038,-199 1144,-199 1144,-169 1038,-169"/>
<text text-anchor="start" x="1046" y="-187" font-family="Helvetica,sans-Serif" font-size="10.00">odp/api/abi/schedule</text>
<text text-anchor="middle" x="1091" y="-176" font-family="Helvetica,sans-Serif" font-size="10.00">_types.h</text>
</g>
<!-- Node22&#45;&gt;Node23 -->
<g id="edge37" class="edge"><title>Node22&#45;&gt;Node23</title>
<path fill="none" stroke="midnightblue" d="M1030.17,-236.403C1039.61,-228.429 1054.03,-216.245 1066.46,-205.74"/>
<polygon fill="midnightblue" stroke="midnightblue" points="1068.89,-208.269 1074.27,-199.141 1064.37,-202.922 1068.89,-208.269"/>
</g>
<!-- Node24 -->
<g id="node25" class="node"><title>Node24</title>
<g id="a_node25"><a xlink:href="api_2spec_2schedule__types_8h.html" target="_top" xlink:title="ODP schedule types. ">
<polygon fill="white" stroke="black" points="906,-169 906,-199 1020,-199 1020,-169 906,-169"/>
<text text-anchor="start" x="914" y="-187" font-family="Helvetica,sans-Serif" font-size="10.00">odp/api/spec/schedule</text>
<text text-anchor="middle" x="963" y="-176" font-family="Helvetica,sans-Serif" font-size="10.00">_types.h</text>
</a>
</g>
</g>
<!-- Node22&#45;&gt;Node24 -->
<g id="edge38" class="edge"><title>Node22&#45;&gt;Node24</title>
<path fill="none" stroke="midnightblue" d="M1011.83,-236.403C1004.47,-228.657 993.341,-216.938 983.562,-206.645"/>
<polygon fill="midnightblue" stroke="midnightblue" points="985.859,-203.98 976.434,-199.141 980.784,-208.801 985.859,-203.98"/>
</g>
<!-- Node24&#45;&gt;Node4 -->
<g id="edge39" class="edge"><title>Node24&#45;&gt;Node4</title>
<path fill="none" stroke="midnightblue" d="M991.337,-168.963C1022.13,-151.874 1069.41,-119.781 1088,-76 1094.47,-60.7588 1089.29,-42.191 1083.49,-28.8091"/>
<polygon fill="midnightblue" stroke="midnightblue" points="1086.61,-27.2166 1079.12,-19.7278 1080.3,-30.2557 1086.61,-27.2166"/>
</g>
<!-- Node24&#45;&gt;Node6 -->
<g id="edge44" class="edge"><title>Node24&#45;&gt;Node6</title>
<path fill="none" stroke="midnightblue" d="M937.811,-168.906C895.007,-145.065 805.198,-95.5117 728,-56 706.109,-44.7958 680.992,-32.6857 662.383,-23.8536"/>
<polygon fill="midnightblue" stroke="midnightblue" points="663.832,-20.6676 653.296,-19.5559 660.839,-26.9955 663.832,-20.6676"/>
</g>
<!-- Node25 -->
<g id="node26" class="node"><title>Node25</title>
<g id="a_node26"><a xlink:href="support_8h.html" target="_top" xlink:title="ODP support API &#45; platform specific header. ">
<polygon fill="white" stroke="black" points="929,-112.5 929,-131.5 1021,-131.5 1021,-112.5 929,-112.5"/>
<text text-anchor="middle" x="975" y="-119.5" font-family="Helvetica,sans-Serif" font-size="10.00">odp/api/support.h</text>
</a>
</g>
</g>
<!-- Node24&#45;&gt;Node25 -->
<g id="edge40" class="edge"><title>Node24&#45;&gt;Node25</title>
<path fill="none" stroke="midnightblue" d="M965.844,-168.781C967.462,-160.691 969.508,-150.462 971.255,-141.725"/>
<polygon fill="midnightblue" stroke="midnightblue" points="974.725,-142.223 973.254,-131.731 967.861,-140.85 974.725,-142.223"/>
</g>
<!-- Node26 -->
<g id="node27" class="node"><title>Node26</title>
<g id="a_node27"><a xlink:href="spec_2support_8h.html" target="_top" xlink:title="ODP support API. ">
<polygon fill="white" stroke="black" points="930,-56.5 930,-75.5 1046,-75.5 1046,-56.5 930,-56.5"/>
<text text-anchor="middle" x="988" y="-63.5" font-family="Helvetica,sans-Serif" font-size="10.00">odp/api/spec/support.h</text>
</a>
</g>
</g>
<!-- Node25&#45;&gt;Node26 -->
<g id="edge41" class="edge"><title>Node25&#45;&gt;Node26</title>
<path fill="none" stroke="midnightblue" d="M977.147,-112.083C978.869,-104.927 981.347,-94.6353 983.5,-85.6911"/>
<polygon fill="midnightblue" stroke="midnightblue" points="986.955,-86.2925 985.893,-75.7511 980.15,-84.6541 986.955,-86.2925"/>
</g>
<!-- Node26&#45;&gt;Node4 -->
<g id="edge42" class="edge"><title>Node26&#45;&gt;Node4</title>
<path fill="none" stroke="midnightblue" d="M1001.82,-56.324C1015.23,-47.9002 1035.82,-34.9709 1051.59,-25.0741"/>
<polygon fill="midnightblue" stroke="midnightblue" points="1053.61,-27.9364 1060.22,-19.6545 1049.89,-22.0081 1053.61,-27.9364"/>
</g>
<!-- Node26&#45;&gt;Node6 -->
<g id="edge43" class="edge"><title>Node26&#45;&gt;Node6</title>
<path fill="none" stroke="midnightblue" d="M932.066,-56.4435C867.438,-46.5572 761.5,-30.3512 695.14,-20.1999"/>
<polygon fill="midnightblue" stroke="midnightblue" points="695.659,-16.7386 685.245,-18.6861 694.6,-23.6581 695.659,-16.7386"/>
</g>
<!-- Node28 -->
<g id="node29" class="node"><title>Node28</title>
<g id="a_node29"><a xlink:href="spec_2deprecated_8h.html" target="_top" xlink:title="Macro for deprecated API definitions. ">
<polygon fill="white" stroke="black" points="780.5,-56.5 780.5,-75.5 911.5,-75.5 911.5,-56.5 780.5,-56.5"/>
<text text-anchor="middle" x="846" y="-63.5" font-family="Helvetica,sans-Serif" font-size="10.00">odp/api/spec/deprecated.h</text>
</a>
</g>
</g>
<!-- Node27&#45;&gt;Node28 -->
<g id="edge46" class="edge"><title>Node27&#45;&gt;Node28</title>
<path fill="none" stroke="midnightblue" d="M834.902,-174.281C836.84,-155.547 841.438,-111.098 844.067,-85.6822"/>
<polygon fill="midnightblue" stroke="midnightblue" points="847.573,-85.8119 845.12,-75.5048 840.61,-85.0915 847.573,-85.8119"/>
</g>
<!-- Node28&#45;&gt;Node4 -->
<g id="edge47" class="edge"><title>Node28&#45;&gt;Node4</title>
<path fill="none" stroke="midnightblue" d="M882.127,-56.4435C921.651,-47.0826 985.097,-32.0561 1028.11,-21.868"/>
<polygon fill="midnightblue" stroke="midnightblue" points="1029.12,-25.2269 1038.04,-19.5164 1027.5,-18.4154 1029.12,-25.2269"/>
</g>
<!-- Node28&#45;&gt;Node6 -->
<g id="edge48" class="edge"><title>Node28&#45;&gt;Node6</title>
<path fill="none" stroke="midnightblue" d="M812.566,-56.4435C776.144,-47.1221 717.77,-32.1828 677.971,-21.9972"/>
<polygon fill="midnightblue" stroke="midnightblue" points="678.833,-18.6051 668.277,-19.5164 677.097,-25.3866 678.833,-18.6051"/>
</g>
</g>
</svg>
