<?xml version="1.0" encoding="UTF-8" standalone="no"?>
<!DOCTYPE svg PUBLIC "-//W3C//DTD SVG 1.1//EN"
 "http://www.w3.org/Graphics/SVG/1.1/DTD/svg11.dtd">
<!-- Generated by graphviz version 2.36.0 (20140111.2315)
 -->
<!-- Title: queue.h Pages: 1 -->
<svg width="1155pt" height="500pt"
 viewBox="0.00 0.00 1155.00 500.00" xmlns="http://www.w3.org/2000/svg" xmlns:xlink="http://www.w3.org/1999/xlink">
<g id="graph0" class="graph" transform="scale(1 1) rotate(0) translate(4 496)">
<title>queue.h</title>
<polygon fill="white" stroke="none" points="-4,4 -4,-496 1151,-496 1151,4 -4,4"/>
<!-- Node0 -->
<g id="node1" class="node"><title>Node0</title>
<polygon fill="#bfbfbf" stroke="black" points="803.5,-472.5 803.5,-491.5 854.5,-491.5 854.5,-472.5 803.5,-472.5"/>
<text text-anchor="middle" x="829" y="-479.5" font-family="Helvetica,sans-Serif" font-size="10.00">queue.h</text>
</g>
<!-- Node1 -->
<g id="node2" class="node"><title>Node1</title>
<g id="a_node2"><a xlink:href="visibility__begin_8h_source.html" target="_top" xlink:title="odp/visibility_begin.h">
<polygon fill="white" stroke="black" points="462.5,-0.5 462.5,-19.5 569.5,-19.5 569.5,-0.5 462.5,-0.5"/>
<text text-anchor="middle" x="516" y="-7.5" font-family="Helvetica,sans-Serif" font-size="10.00">odp/visibility_begin.h</text>
</a>
</g>
</g>
<!-- Node0&#45;&gt;Node1 -->
<g id="edge1" class="edge"><title>Node0&#45;&gt;Node1</title>
<path fill="none" stroke="midnightblue" d="M803.281,-480.361C663.354,-476.553 0,-454.118 0,-371 0,-371 0,-371 0,-121 0,-76.8901 34.5089,-73.4972 75,-56 141.148,-27.416 346.497,-16.5712 452.001,-12.8083"/>
<polygon fill="midnightblue" stroke="midnightblue" points="452.327,-16.2992 462.2,-12.4555 452.085,-9.30339 452.327,-16.2992"/>
</g>
<!-- Node2 -->
<g id="node3" class="node"><title>Node2</title>
<g id="a_node3"><a xlink:href="api_2event_8h.html" target="_top" xlink:title="ODP event. ">
<polygon fill="white" stroke="black" points="729.5,-416.5 729.5,-435.5 812.5,-435.5 812.5,-416.5 729.5,-416.5"/>
<text text-anchor="middle" x="771" y="-423.5" font-family="Helvetica,sans-Serif" font-size="10.00">odp/api/event.h</text>
</a>
</g>
</g>
<!-- Node0&#45;&gt;Node2 -->
<g id="edge2" class="edge"><title>Node0&#45;&gt;Node2</title>
<path fill="none" stroke="midnightblue" d="M819.681,-472.324C811.107,-464.341 798.188,-452.313 787.812,-442.653"/>
<polygon fill="midnightblue" stroke="midnightblue" points="790.192,-440.086 780.488,-435.834 785.422,-445.21 790.192,-440.086"/>
</g>
<!-- Node10 -->
<g id="node11" class="node"><title>Node10</title>
<g id="a_node11"><a xlink:href="visibility__end_8h_source.html" target="_top" xlink:title="odp/visibility_end.h">
<polygon fill="white" stroke="black" points="905,-0.5 905,-19.5 1005,-19.5 1005,-0.5 905,-0.5"/>
<text text-anchor="middle" x="955" y="-7.5" font-family="Helvetica,sans-Serif" font-size="10.00">odp/visibility_end.h</text>
</a>
</g>
</g>
<!-- Node0&#45;&gt;Node10 -->
<g id="edge44" class="edge"><title>Node0&#45;&gt;Node10</title>
<path fill="none" stroke="midnightblue" d="M854.754,-477.748C930.459,-467.477 1147,-432.704 1147,-371 1147,-371 1147,-371 1147,-121 1147,-59.3913 1071.65,-31.8038 1015.36,-19.79"/>
<polygon fill="midnightblue" stroke="midnightblue" points="1015.94,-16.3369 1005.45,-17.7905 1014.56,-23.1987 1015.94,-16.3369"/>
</g>
<!-- Node19 -->
<g id="node20" class="node"><title>Node19</title>
<g id="a_node20"><a xlink:href="queue__types_8h.html" target="_top" xlink:title="ODP queue types. ">
<polygon fill="white" stroke="black" points="836.5,-293 836.5,-323 937.5,-323 937.5,-293 836.5,-293"/>
<text text-anchor="start" x="844.5" y="-311" font-family="Helvetica,sans-Serif" font-size="10.00">odp/api/spec/queue</text>
<text text-anchor="middle" x="887" y="-300" font-family="Helvetica,sans-Serif" font-size="10.00">_types.h</text>
</a>
</g>
</g>
<!-- Node0&#45;&gt;Node19 -->
<g id="edge28" class="edge"><title>Node0&#45;&gt;Node19</title>
<path fill="none" stroke="midnightblue" d="M831.956,-472.234C840.565,-446.704 865.837,-371.761 878.929,-332.934"/>
<polygon fill="midnightblue" stroke="midnightblue" points="882.396,-333.606 882.275,-323.012 875.763,-331.369 882.396,-333.606"/>
</g>
<!-- Node3 -->
<g id="node4" class="node"><title>Node3</title>
<polygon fill="white" stroke="#bfbfbf" points="721.5,-236.5 721.5,-255.5 820.5,-255.5 820.5,-236.5 721.5,-236.5"/>
<text text-anchor="middle" x="771" y="-243.5" font-family="Helvetica,sans-Serif" font-size="10.00">odp/api/abi/event.h</text>
</g>
<!-- Node2&#45;&gt;Node3 -->
<g id="edge3" class="edge"><title>Node2&#45;&gt;Node3</title>
<path fill="none" stroke="midnightblue" d="M771,-416.415C771,-389.227 771,-304.563 771,-266.217"/>
<polygon fill="midnightblue" stroke="midnightblue" points="774.5,-265.918 771,-255.918 767.5,-265.919 774.5,-265.918"/>
</g>
<!-- Node4 -->
<g id="node5" class="node"><title>Node4</title>
<g id="a_node5"><a xlink:href="api_2spec_2event_8h.html" target="_top" xlink:title="ODP event. ">
<polygon fill="white" stroke="black" points="486.5,-360.5 486.5,-379.5 593.5,-379.5 593.5,-360.5 486.5,-360.5"/>
<text text-anchor="middle" x="540" y="-367.5" font-family="Helvetica,sans-Serif" font-size="10.00">odp/api/spec/event.h</text>
</a>
</g>
</g>
<!-- Node2&#45;&gt;Node4 -->
<g id="edge4" class="edge"><title>Node2&#45;&gt;Node4</title>
<path fill="none" stroke="midnightblue" d="M734.397,-416.444C694.269,-407.063 629.802,-391.993 586.215,-381.804"/>
<polygon fill="midnightblue" stroke="midnightblue" points="586.966,-378.385 576.431,-379.516 585.372,-385.201 586.966,-378.385"/>
</g>
<!-- Node4&#45;&gt;Node1 -->
<g id="edge5" class="edge"><title>Node4&#45;&gt;Node1</title>
<path fill="none" stroke="midnightblue" d="M486.277,-367.268C356.775,-361.636 38,-338.483 38,-247 38,-247 38,-247 38,-121 38,-37.0538 321.523,-17.1655 451.854,-12.4578"/>
<polygon fill="midnightblue" stroke="midnightblue" points="452.222,-15.9474 462.096,-12.1078 451.983,-8.95147 452.222,-15.9474"/>
</g>
<!-- Node5 -->
<g id="node6" class="node"><title>Node5</title>
<g id="a_node6"><a xlink:href="api_2packet_8h.html" target="_top" xlink:title="ODP packet descriptor. ">
<polygon fill="white" stroke="black" points="406.5,-298.5 406.5,-317.5 495.5,-317.5 495.5,-298.5 406.5,-298.5"/>
<text text-anchor="middle" x="451" y="-305.5" font-family="Helvetica,sans-Serif" font-size="10.00">odp/api/packet.h</text>
</a>
</g>
</g>
<!-- Node4&#45;&gt;Node5 -->
<g id="edge6" class="edge"><title>Node4&#45;&gt;Node5</title>
<path fill="none" stroke="midnightblue" d="M527.248,-360.403C512.973,-350.78 489.603,-335.024 472.492,-323.489"/>
<polygon fill="midnightblue" stroke="midnightblue" points="473.976,-320.268 463.728,-317.581 470.063,-326.073 473.976,-320.268"/>
</g>
<!-- Node4&#45;&gt;Node10 -->
<g id="edge27" class="edge"><title>Node4&#45;&gt;Node10</title>
<path fill="none" stroke="midnightblue" d="M593.53,-368.809C735.175,-366.869 1109,-351.819 1109,-247 1109,-247 1109,-247 1109,-121 1109,-67.1263 1045.82,-37.1383 1000.4,-22.5396"/>
<polygon fill="midnightblue" stroke="midnightblue" points="1001.3,-19.1567 990.718,-19.5713 999.252,-25.8492 1001.3,-19.1567"/>
</g>
<!-- Node5&#45;&gt;Node3 -->
<g id="edge13" class="edge"><title>Node5&#45;&gt;Node3</title>
<path fill="none" stroke="midnightblue" d="M495.832,-298.594C553.349,-287.81 653.106,-269.105 715.397,-257.426"/>
<polygon fill="midnightblue" stroke="midnightblue" points="716.254,-260.826 725.438,-255.543 714.964,-253.946 716.254,-260.826"/>
</g>
<!-- Node6 -->
<g id="node7" class="node"><title>Node6</title>
<g id="a_node7"><a xlink:href="api_2std__types_8h.html" target="_top" xlink:title="Standard C language types and definitions for ODP. ">
<polygon fill="white" stroke="black" points="236,-112.5 236,-131.5 338,-131.5 338,-112.5 236,-112.5"/>
<text text-anchor="middle" x="287" y="-119.5" font-family="Helvetica,sans-Serif" font-size="10.00">odp/api/std_types.h</text>
</a>
</g>
</g>
<!-- Node5&#45;&gt;Node6 -->
<g id="edge7" class="edge"><title>Node5&#45;&gt;Node6</title>
<path fill="none" stroke="midnightblue" d="M406.454,-307.528C320.085,-307.497 134.826,-301.938 95,-256 45.3153,-198.69 170.74,-154.124 241.907,-134.275"/>
<polygon fill="midnightblue" stroke="midnightblue" points="243.258,-137.534 251.986,-131.527 241.417,-130.781 243.258,-137.534"/>
</g>
<!-- Node11 -->
<g id="node12" class="node"><title>Node11</title>
<polygon fill="white" stroke="#bfbfbf" points="586.5,-236.5 586.5,-255.5 703.5,-255.5 703.5,-236.5 586.5,-236.5"/>
<text text-anchor="middle" x="645" y="-243.5" font-family="Helvetica,sans-Serif" font-size="10.00">odp/api/abi/packet_io.h</text>
</g>
<!-- Node5&#45;&gt;Node11 -->
<g id="edge14" class="edge"><title>Node5&#45;&gt;Node11</title>
<path fill="none" stroke="midnightblue" d="M478.795,-298.403C512.65,-287.933 569.971,-270.205 607.655,-258.55"/>
<polygon fill="midnightblue" stroke="midnightblue" points="608.737,-261.879 617.256,-255.581 606.668,-255.192 608.737,-261.879"/>
</g>
<!-- Node12 -->
<g id="node13" class="node"><title>Node12</title>
<polygon fill="white" stroke="#bfbfbf" points="104,-236.5 104,-255.5 208,-255.5 208,-236.5 104,-236.5"/>
<text text-anchor="middle" x="156" y="-243.5" font-family="Helvetica,sans-Serif" font-size="10.00">odp/api/abi/packet.h</text>
</g>
<!-- Node5&#45;&gt;Node12 -->
<g id="edge15" class="edge"><title>Node5&#45;&gt;Node12</title>
<path fill="none" stroke="midnightblue" d="M409.047,-298.467C356.075,-287.693 264.965,-269.162 207.735,-257.522"/>
<polygon fill="midnightblue" stroke="midnightblue" points="208.305,-254.067 197.808,-255.503 206.91,-260.926 208.305,-254.067"/>
</g>
<!-- Node13 -->
<g id="node14" class="node"><title>Node13</title>
<polygon fill="white" stroke="#bfbfbf" points="226,-236.5 226,-255.5 326,-255.5 326,-236.5 226,-236.5"/>
<text text-anchor="middle" x="276" y="-243.5" font-family="Helvetica,sans-Serif" font-size="10.00">odp/api/abi/buffer.h</text>
</g>
<!-- Node5&#45;&gt;Node13 -->
<g id="edge16" class="edge"><title>Node5&#45;&gt;Node13</title>
<path fill="none" stroke="midnightblue" d="M425.927,-298.403C395.648,-288.022 344.56,-270.506 310.559,-258.849"/>
<polygon fill="midnightblue" stroke="midnightblue" points="311.621,-255.513 301.027,-255.581 309.351,-262.135 311.621,-255.513"/>
</g>
<!-- Node14 -->
<g id="node15" class="node"><title>Node14</title>
<polygon fill="white" stroke="#bfbfbf" points="344.5,-236.5 344.5,-255.5 437.5,-255.5 437.5,-236.5 344.5,-236.5"/>
<text text-anchor="middle" x="391" y="-243.5" font-family="Helvetica,sans-Serif" font-size="10.00">odp/api/abi/pool.h</text>
</g>
<!-- Node5&#45;&gt;Node14 -->
<g id="edge17" class="edge"><title>Node5&#45;&gt;Node14</title>
<path fill="none" stroke="midnightblue" d="M442.403,-298.403C433.136,-289.136 418.183,-274.183 406.788,-262.788"/>
<polygon fill="midnightblue" stroke="midnightblue" points="409.127,-260.177 399.581,-255.581 404.177,-265.127 409.127,-260.177"/>
</g>
<!-- Node15 -->
<g id="node16" class="node"><title>Node15</title>
<g id="a_node16"><a xlink:href="api_2spec_2packet_8h.html" target="_top" xlink:title="ODP packet descriptor. ">
<polygon fill="white" stroke="black" points="455.5,-236.5 455.5,-255.5 568.5,-255.5 568.5,-236.5 455.5,-236.5"/>
<text text-anchor="middle" x="512" y="-243.5" font-family="Helvetica,sans-Serif" font-size="10.00">odp/api/spec/packet.h</text>
</a>
</g>
</g>
<!-- Node5&#45;&gt;Node15 -->
<g id="edge18" class="edge"><title>Node5&#45;&gt;Node15</title>
<path fill="none" stroke="midnightblue" d="M459.74,-298.403C469.162,-289.136 484.364,-274.183 495.949,-262.788"/>
<polygon fill="midnightblue" stroke="midnightblue" points="498.601,-265.088 503.276,-255.581 493.693,-260.098 498.601,-265.088"/>
</g>
<!-- Node7 -->
<g id="node8" class="node"><title>Node7</title>
<polygon fill="white" stroke="#bfbfbf" points="329,-56.5 329,-75.5 447,-75.5 447,-56.5 329,-56.5"/>
<text text-anchor="middle" x="388" y="-63.5" font-family="Helvetica,sans-Serif" font-size="10.00">odp/api/abi/std_types.h</text>
</g>
<!-- Node6&#45;&gt;Node7 -->
<g id="edge8" class="edge"><title>Node6&#45;&gt;Node7</title>
<path fill="none" stroke="midnightblue" d="M303.227,-112.324C319.351,-103.703 344.3,-90.3643 362.964,-80.3855"/>
<polygon fill="midnightblue" stroke="midnightblue" points="364.644,-83.456 371.813,-75.6545 361.344,-77.283 364.644,-83.456"/>
</g>
<!-- Node8 -->
<g id="node9" class="node"><title>Node8</title>
<g id="a_node9"><a xlink:href="api_2spec_2std__types_8h.html" target="_top" xlink:title="Standard C language types and definitions for ODP. ">
<polygon fill="white" stroke="black" points="185,-56.5 185,-75.5 311,-75.5 311,-56.5 185,-56.5"/>
<text text-anchor="middle" x="248" y="-63.5" font-family="Helvetica,sans-Serif" font-size="10.00">odp/api/spec/std_types.h</text>
</a>
</g>
</g>
<!-- Node6&#45;&gt;Node8 -->
<g id="edge9" class="edge"><title>Node6&#45;&gt;Node8</title>
<path fill="none" stroke="midnightblue" d="M280.56,-112.083C275.051,-104.455 266.969,-93.2645 260.235,-83.9408"/>
<polygon fill="midnightblue" stroke="midnightblue" points="263.013,-81.8087 254.32,-75.7511 257.338,-85.9071 263.013,-81.8087"/>
</g>
<!-- Node8&#45;&gt;Node1 -->
<g id="edge10" class="edge"><title>Node8&#45;&gt;Node1</title>
<path fill="none" stroke="midnightblue" d="M290.465,-56.4435C337.413,-46.9839 413.076,-31.7384 463.654,-21.5472"/>
<polygon fill="midnightblue" stroke="midnightblue" points="464.622,-24.9228 473.733,-19.5164 463.239,-18.0607 464.622,-24.9228"/>
</g>
<!-- Node9 -->
<g id="node10" class="node"><title>Node9</title>
<polygon fill="white" stroke="#bfbfbf" points="223.5,-0.5 223.5,-19.5 272.5,-19.5 272.5,-0.5 223.5,-0.5"/>
<text text-anchor="middle" x="248" y="-7.5" font-family="Helvetica,sans-Serif" font-size="10.00">stdint.h</text>
</g>
<!-- Node8&#45;&gt;Node9 -->
<g id="edge11" class="edge"><title>Node8&#45;&gt;Node9</title>
<path fill="none" stroke="midnightblue" d="M248,-56.083C248,-49.0059 248,-38.8611 248,-29.9865"/>
<polygon fill="midnightblue" stroke="midnightblue" points="251.5,-29.751 248,-19.7511 244.5,-29.7511 251.5,-29.751"/>
</g>
<!-- Node8&#45;&gt;Node10 -->
<g id="edge12" class="edge"><title>Node8&#45;&gt;Node10</title>
<path fill="none" stroke="midnightblue" d="M311.195,-56.9062C314.17,-56.5863 317.116,-56.2822 320,-56 530.662,-35.3842 781.527,-20.4286 894.534,-14.2027"/>
<polygon fill="midnightblue" stroke="midnightblue" points="894.916,-17.6871 904.709,-13.6452 894.533,-10.6976 894.916,-17.6871"/>
</g>
<!-- Node15&#45;&gt;Node1 -->
<g id="edge19" class="edge"><title>Node15&#45;&gt;Node1</title>
<path fill="none" stroke="midnightblue" d="M459,-236.432C343.756,-215.693 87.5559,-156.921 176,-56 193.896,-35.579 358.914,-21.4123 452.306,-14.9552"/>
<polygon fill="midnightblue" stroke="midnightblue" points="452.756,-18.4327 462.495,-14.2616 452.28,-11.4489 452.756,-18.4327"/>
</g>
<!-- Node15&#45;&gt;Node10 -->
<g id="edge26" class="edge"><title>Node15&#45;&gt;Node10</title>
<path fill="none" stroke="midnightblue" d="M528.413,-236.492C556.909,-221.836 617.52,-191.17 670,-168 731.684,-140.766 747.217,-133.869 811,-112 865.285,-93.3876 894.099,-116.254 935,-76 947.218,-63.9758 952.01,-44.6833 953.87,-30.2344"/>
<polygon fill="midnightblue" stroke="midnightblue" points="957.388,-30.1949 954.818,-19.9165 950.417,-29.554 957.388,-30.1949"/>
</g>
<!-- Node16 -->
<g id="node17" class="node"><title>Node16</title>
<g id="a_node17"><a xlink:href="api_2time_8h.html" target="_top" xlink:title="ODP time. ">
<polygon fill="white" stroke="black" points="437,-174.5 437,-193.5 515,-193.5 515,-174.5 437,-174.5"/>
<text text-anchor="middle" x="476" y="-181.5" font-family="Helvetica,sans-Serif" font-size="10.00">odp/api/time.h</text>
</a>
</g>
</g>
<!-- Node15&#45;&gt;Node16 -->
<g id="edge20" class="edge"><title>Node15&#45;&gt;Node16</title>
<path fill="none" stroke="midnightblue" d="M506.842,-236.403C501.549,-227.582 493.165,-213.608 486.473,-202.455"/>
<polygon fill="midnightblue" stroke="midnightblue" points="489.295,-200.355 481.148,-193.581 483.292,-203.956 489.295,-200.355"/>
</g>
<!-- Node16&#45;&gt;Node6 -->
<g id="edge21" class="edge"><title>Node16&#45;&gt;Node6</title>
<path fill="none" stroke="midnightblue" d="M448.921,-174.403C416.08,-163.978 360.57,-146.356 323.852,-134.699"/>
<polygon fill="midnightblue" stroke="midnightblue" points="324.619,-131.271 314.029,-131.581 322.501,-137.942 324.619,-131.271"/>
</g>
<!-- Node17 -->
<g id="node18" class="node"><title>Node17</title>
<polygon fill="white" stroke="#bfbfbf" points="394,-112.5 394,-131.5 488,-131.5 488,-112.5 394,-112.5"/>
<text text-anchor="middle" x="441" y="-119.5" font-family="Helvetica,sans-Serif" font-size="10.00">odp/api/abi/time.h</text>
</g>
<!-- Node16&#45;&gt;Node17 -->
<g id="edge22" class="edge"><title>Node16&#45;&gt;Node17</title>
<path fill="none" stroke="midnightblue" d="M470.985,-174.403C465.839,-165.582 457.688,-151.608 451.182,-140.455"/>
<polygon fill="midnightblue" stroke="midnightblue" points="454.067,-138.455 446.005,-131.581 448.021,-141.982 454.067,-138.455"/>
</g>
<!-- Node18 -->
<g id="node19" class="node"><title>Node18</title>
<g id="a_node19"><a xlink:href="api_2spec_2time_8h.html" target="_top" xlink:title="ODP time. ">
<polygon fill="white" stroke="black" points="465,-56.5 465,-75.5 567,-75.5 567,-56.5 465,-56.5"/>
<text text-anchor="middle" x="516" y="-63.5" font-family="Helvetica,sans-Serif" font-size="10.00">odp/api/spec/time.h</text>
</a>
</g>
</g>
<!-- Node16&#45;&gt;Node18 -->
<g id="edge23" class="edge"><title>Node16&#45;&gt;Node18</title>
<path fill="none" stroke="midnightblue" d="M479.85,-174.445C484.294,-164.4 491.673,-147.179 497,-132 502.475,-116.399 507.668,-98.3246 511.237,-85.2011"/>
<polygon fill="midnightblue" stroke="midnightblue" points="514.628,-86.0693 513.823,-75.505 507.864,-84.265 514.628,-86.0693"/>
</g>
<!-- Node18&#45;&gt;Node1 -->
<g id="edge24" class="edge"><title>Node18&#45;&gt;Node1</title>
<path fill="none" stroke="midnightblue" d="M516,-56.083C516,-49.0059 516,-38.8611 516,-29.9865"/>
<polygon fill="midnightblue" stroke="midnightblue" points="519.5,-29.751 516,-19.7511 512.5,-29.7511 519.5,-29.751"/>
</g>
<!-- Node18&#45;&gt;Node10 -->
<g id="edge25" class="edge"><title>Node18&#45;&gt;Node10</title>
<path fill="none" stroke="midnightblue" d="M567.218,-58.6998C648.805,-48.6641 807.91,-29.0931 894.81,-18.4038"/>
<polygon fill="midnightblue" stroke="midnightblue" points="895.285,-21.8718 904.783,-17.177 894.431,-14.9241 895.285,-21.8718"/>
</g>
<!-- Node19&#45;&gt;Node1 -->
<g id="edge29" class="edge"><title>Node19&#45;&gt;Node1</title>
<path fill="none" stroke="midnightblue" d="M879.382,-292.878C869.823,-276.565 851.872,-250.157 829,-236 767.391,-197.866 729.589,-241.218 670,-200 606.943,-156.383 627.33,-112.038 575,-56 564.07,-44.2955 549.843,-33.3472 538.098,-25.1806"/>
<polygon fill="midnightblue" stroke="midnightblue" points="539.943,-22.2035 529.696,-19.5113 536.028,-28.006 539.943,-22.2035"/>
</g>
<!-- Node19&#45;&gt;Node10 -->
<g id="edge43" class="edge"><title>Node19&#45;&gt;Node10</title>
<path fill="none" stroke="midnightblue" d="M937.686,-304.019C974.268,-299.186 1022.27,-286.893 1052,-256 1074.65,-232.464 1071,-217.666 1071,-185 1071,-185 1071,-185 1071,-121 1071,-73.814 1019.84,-40.7861 985.468,-23.9226"/>
<polygon fill="midnightblue" stroke="midnightblue" points="986.815,-20.6881 976.276,-19.5966 983.834,-27.0218 986.815,-20.6881"/>
</g>
<!-- Node20 -->
<g id="node21" class="node"><title>Node20</title>
<g id="a_node21"><a xlink:href="api_2schedule__types_8h.html" target="_top" xlink:title="ODP schedule. ">
<polygon fill="white" stroke="black" points="915,-236.5 915,-255.5 1043,-255.5 1043,-236.5 915,-236.5"/>
<text text-anchor="middle" x="979" y="-243.5" font-family="Helvetica,sans-Serif" font-size="10.00">odp/api/schedule_types.h</text>
</a>
</g>
</g>
<!-- Node19&#45;&gt;Node20 -->
<g id="edge30" class="edge"><title>Node19&#45;&gt;Node20</title>
<path fill="none" stroke="midnightblue" d="M908.803,-292.781C923.5,-283.196 942.804,-270.606 957.448,-261.056"/>
<polygon fill="midnightblue" stroke="midnightblue" points="959.417,-263.95 965.881,-255.556 955.593,-258.087 959.417,-263.95"/>
</g>
<!-- Node25 -->
<g id="node26" class="node"><title>Node25</title>
<g id="a_node26"><a xlink:href="deprecated_8h.html" target="_top" xlink:title="Control deprecated API definitions. ">
<polygon fill="white" stroke="black" points="679.5,-174.5 679.5,-193.5 786.5,-193.5 786.5,-174.5 679.5,-174.5"/>
<text text-anchor="middle" x="733" y="-181.5" font-family="Helvetica,sans-Serif" font-size="10.00">odp/api/deprecated.h</text>
</a>
</g>
</g>
<!-- Node19&#45;&gt;Node25 -->
<g id="edge39" class="edge"><title>Node19&#45;&gt;Node25</title>
<path fill="none" stroke="midnightblue" d="M885.751,-292.926C883.638,-277.15 877.993,-251.728 863,-236 850.19,-222.562 806.178,-206.949 772.883,-196.573"/>
<polygon fill="midnightblue" stroke="midnightblue" points="773.527,-193.11 762.94,-193.529 771.478,-199.803 773.527,-193.11"/>
</g>
<!-- Node21 -->
<g id="node22" class="node"><title>Node21</title>
<polygon fill="white" stroke="#bfbfbf" points="937,-169 937,-199 1043,-199 1043,-169 937,-169"/>
<text text-anchor="start" x="945" y="-187" font-family="Helvetica,sans-Serif" font-size="10.00">odp/api/abi/schedule</text>
<text text-anchor="middle" x="990" y="-176" font-family="Helvetica,sans-Serif" font-size="10.00">_types.h</text>
</g>
<!-- Node20&#45;&gt;Node21 -->
<g id="edge31" class="edge"><title>Node20&#45;&gt;Node21</title>
<path fill="none" stroke="midnightblue" d="M980.576,-236.403C981.885,-229.265 983.812,-218.752 985.583,-209.09"/>
<polygon fill="midnightblue" stroke="midnightblue" points="989.047,-209.608 987.408,-199.141 982.162,-208.346 989.047,-209.608"/>
</g>
<!-- Node22 -->
<g id="node23" class="node"><title>Node22</title>
<g id="a_node23"><a xlink:href="api_2spec_2schedule__types_8h.html" target="_top" xlink:title="ODP schedule types. ">
<polygon fill="white" stroke="black" points="805,-169 805,-199 919,-199 919,-169 805,-169"/>
<text text-anchor="start" x="813" y="-187" font-family="Helvetica,sans-Serif" font-size="10.00">odp/api/spec/schedule</text>
<text text-anchor="middle" x="862" y="-176" font-family="Helvetica,sans-Serif" font-size="10.00">_types.h</text>
</a>
</g>
</g>
<!-- Node20&#45;&gt;Node22 -->
<g id="edge32" class="edge"><title>Node20&#45;&gt;Node22</title>
<path fill="none" stroke="midnightblue" d="M962.237,-236.403C945.724,-227.936 919.955,-214.72 898.68,-203.81"/>
<polygon fill="midnightblue" stroke="midnightblue" points="900.07,-200.59 889.575,-199.141 896.876,-206.818 900.07,-200.59"/>
</g>
<!-- Node22&#45;&gt;Node1 -->
<g id="edge33" class="edge"><title>Node22&#45;&gt;Node1</title>
<path fill="none" stroke="midnightblue" d="M834.362,-168.961C787.916,-145.406 691.215,-96.523 609,-56 586.805,-45.0605 561.525,-32.8435 542.929,-23.9026"/>
<polygon fill="midnightblue" stroke="midnightblue" points="544.396,-20.7242 533.866,-19.5499 541.365,-27.0342 544.396,-20.7242"/>
</g>
<!-- Node22&#45;&gt;Node10 -->
<g id="edge38" class="edge"><title>Node22&#45;&gt;Node10</title>
<path fill="none" stroke="midnightblue" d="M885.337,-168.754C911.899,-150.934 953.596,-117.64 969,-76 974.688,-60.623 969.755,-42.3007 964.236,-29.0346"/>
<polygon fill="midnightblue" stroke="midnightblue" points="967.258,-27.2314 959.875,-19.6322 960.907,-30.1766 967.258,-27.2314"/>
</g>
<!-- Node23 -->
<g id="node24" class="node"><title>Node23</title>
<g id="a_node24"><a xlink:href="support_8h.html" target="_top" xlink:title="ODP support API &#45; platform specific header. ">
<polygon fill="white" stroke="black" points="820,-112.5 820,-131.5 912,-131.5 912,-112.5 820,-112.5"/>
<text text-anchor="middle" x="866" y="-119.5" font-family="Helvetica,sans-Serif" font-size="10.00">odp/api/support.h</text>
</a>
</g>
</g>
<!-- Node22&#45;&gt;Node23 -->
<g id="edge34" class="edge"><title>Node22&#45;&gt;Node23</title>
<path fill="none" stroke="midnightblue" d="M862.948,-168.781C863.487,-160.691 864.169,-150.462 864.752,-141.725"/>
<polygon fill="midnightblue" stroke="midnightblue" points="868.245,-141.941 865.418,-131.731 861.26,-141.476 868.245,-141.941"/>
</g>
<!-- Node24 -->
<g id="node25" class="node"><title>Node24</title>
<g id="a_node25"><a xlink:href="spec_2support_8h.html" target="_top" xlink:title="ODP support API. ">
<polygon fill="white" stroke="black" points="811,-56.5 811,-75.5 927,-75.5 927,-56.5 811,-56.5"/>
<text text-anchor="middle" x="869" y="-63.5" font-family="Helvetica,sans-Serif" font-size="10.00">odp/api/spec/support.h</text>
</a>
</g>
</g>
<!-- Node23&#45;&gt;Node24 -->
<g id="edge35" class="edge"><title>Node23&#45;&gt;Node24</title>
<path fill="none" stroke="midnightblue" d="M866.495,-112.083C866.889,-105.006 867.452,-94.8611 867.945,-85.9865"/>
<polygon fill="midnightblue" stroke="midnightblue" points="871.454,-85.9299 868.514,-75.7511 864.464,-85.5415 871.454,-85.9299"/>
</g>
<!-- Node24&#45;&gt;Node1 -->
<g id="edge36" class="edge"><title>Node24&#45;&gt;Node1</title>
<path fill="none" stroke="midnightblue" d="M813.066,-56.4435C749.548,-46.7269 646.125,-30.9058 579.593,-20.728"/>
<polygon fill="midnightblue" stroke="midnightblue" points="580.063,-17.2593 569.648,-19.2068 579.004,-24.1788 580.063,-17.2593"/>
</g>
<!-- Node24&#45;&gt;Node10 -->
<g id="edge37" class="edge"><title>Node24&#45;&gt;Node10</title>
<path fill="none" stroke="midnightblue" d="M882.817,-56.324C896.233,-47.9002 916.824,-34.9709 932.586,-25.0741"/>
<polygon fill="midnightblue" stroke="midnightblue" points="934.609,-27.9364 941.217,-19.6545 930.887,-22.0081 934.609,-27.9364"/>
</g>
<!-- Node26 -->
<g id="node27" class="node"><title>Node26</title>
<g id="a_node27"><a xlink:href="spec_2deprecated_8h.html" target="_top" xlink:title="Macro for deprecated API definitions. ">
<polygon fill="white" stroke="black" points="661.5,-56.5 661.5,-75.5 792.5,-75.5 792.5,-56.5 661.5,-56.5"/>
<text text-anchor="middle" x="727" y="-63.5" font-family="Helvetica,sans-Serif" font-size="10.00">odp/api/spec/deprecated.h</text>
</a>
</g>
</g>
<!-- Node25&#45;&gt;Node26 -->
<g id="edge40" class="edge"><title>Node25&#45;&gt;Node26</title>
<path fill="none" stroke="midnightblue" d="M732.549,-174.281C731.58,-155.547 729.281,-111.098 727.966,-85.6822"/>
<polygon fill="midnightblue" stroke="midnightblue" points="731.452,-85.3106 727.44,-75.5048 724.461,-85.6723 731.452,-85.3106"/>
</g>
<!-- Node26&#45;&gt;Node1 -->
<g id="edge41" class="edge"><title>Node26&#45;&gt;Node1</title>
<path fill="none" stroke="midnightblue" d="M693.566,-56.4435C657.144,-47.1221 598.77,-32.1828 558.971,-21.9972"/>
<polygon fill="midnightblue" stroke="midnightblue" points="559.833,-18.6051 549.277,-19.5164 558.097,-25.3866 559.833,-18.6051"/>
</g>
<!-- Node26&#45;&gt;Node10 -->
<g id="edge42" class="edge"><title>Node26&#45;&gt;Node10</title>
<path fill="none" stroke="midnightblue" d="M763.127,-56.4435C802.651,-47.0826 866.097,-32.0561 909.113,-21.868"/>
<polygon fill="midnightblue" stroke="midnightblue" points="910.118,-25.2269 919.042,-19.5164 908.504,-18.4154 910.118,-25.2269"/>
</g>
</g>
</svg>
