<?xml version="1.0" encoding="UTF-8" standalone="no"?>
<!DOCTYPE svg PUBLIC "-//W3C//DTD SVG 1.1//EN"
 "http://www.w3.org/Graphics/SVG/1.1/DTD/svg11.dtd">
<!-- Generated by graphviz version 2.36.0 (20140111.2315)
 -->
<!-- Title: rwlock.h Pages: 1 -->
<svg width="821pt" height="308pt"
 viewBox="0.00 0.00 821.00 308.00" xmlns="http://www.w3.org/2000/svg" xmlns:xlink="http://www.w3.org/1999/xlink">
<g id="graph0" class="graph" transform="scale(1 1) rotate(0) translate(4 304)">
<title>rwlock.h</title>
<polygon fill="white" stroke="none" points="-4,4 -4,-304 817,-304 817,4 -4,4"/>
<!-- Node5 -->
<g id="node1" class="node"><title>Node5</title>
<polygon fill="#bfbfbf" stroke="black" points="640.5,-280.5 640.5,-299.5 693.5,-299.5 693.5,-280.5 640.5,-280.5"/>
<text text-anchor="middle" x="667" y="-287.5" font-family="Helvetica,sans-Serif" font-size="10.00">rwlock.h</text>
</g>
<!-- Node6 -->
<g id="node2" class="node"><title>Node6</title>
<g id="a_node2"><a xlink:href="api_2abi-default_2rwlock__recursive_8h.html" target="_top" xlink:title="ODP recursive read/write lock. ">
<polygon fill="white" stroke="black" points="406,-224.5 406,-243.5 504,-243.5 504,-224.5 406,-224.5"/>
<text text-anchor="middle" x="455" y="-231.5" font-family="Helvetica,sans-Serif" font-size="10.00">rwlock_recursive.h</text>
</a>
</g>
</g>
<!-- Node5&#45;&gt;Node6 -->
<g id="edge1" class="edge"><title>Node5&#45;&gt;Node6</title>
<path fill="none" stroke="midnightblue" d="M630.296,-279.651C590.414,-269.492 527.236,-253.4 488.61,-243.561"/>
<polygon fill="midnightblue" stroke="midnightblue" points="629.596,-283.084 640.15,-282.161 631.323,-276.301 629.596,-283.084"/>
</g>
<!-- Node15 -->
<g id="node11" class="node"><title>Node15</title>
<g id="a_node11"><a xlink:href="odp__api_8h.html" target="_top" xlink:title="The OpenDataPlane API. ">
<polygon fill="white" stroke="black" points="753.5,-56.5 753.5,-75.5 812.5,-75.5 812.5,-56.5 753.5,-56.5"/>
<text text-anchor="middle" x="783" y="-63.5" font-family="Helvetica,sans-Serif" font-size="10.00">odp_api.h</text>
</a>
</g>
</g>
<!-- Node5&#45;&gt;Node15 -->
<g id="edge12" class="edge"><title>Node5&#45;&gt;Node15</title>
<path fill="none" stroke="midnightblue" d="M697.735,-276.211C730.428,-260.729 780.35,-231.236 802,-188 821.232,-149.592 798.284,-96.4597 787.747,-75.7534"/>
<polygon fill="midnightblue" stroke="midnightblue" points="696.241,-273.046 688.601,-280.387 699.151,-279.412 696.241,-273.046"/>
</g>
<!-- Node7 -->
<g id="node3" class="node"><title>Node7</title>
<g id="a_node3"><a xlink:href="arch_2arm32-linux_2odp_2api_2abi_2rwlock__recursive_8h_source.html" target="_top" xlink:title="rwlock_recursive.h">
<polygon fill="white" stroke="black" points="0,-168.5 0,-187.5 98,-187.5 98,-168.5 0,-168.5"/>
<text text-anchor="middle" x="49" y="-175.5" font-family="Helvetica,sans-Serif" font-size="10.00">rwlock_recursive.h</text>
</a>
</g>
</g>
<!-- Node6&#45;&gt;Node7 -->
<g id="edge2" class="edge"><title>Node6&#45;&gt;Node7</title>
<path fill="none" stroke="midnightblue" d="M395.68,-225.794C326.366,-217.266 208.254,-202.4 107,-188 104.074,-187.584 101.067,-187.147 98.0347,-186.698"/>
<polygon fill="midnightblue" stroke="midnightblue" points="395.608,-229.311 405.96,-227.056 396.461,-222.363 395.608,-229.311"/>
</g>
<!-- Node8 -->
<g id="node4" class="node"><title>Node8</title>
<g id="a_node4"><a xlink:href="arch_2arm64-linux_2odp_2api_2abi_2rwlock__recursive_8h_source.html" target="_top" xlink:title="rwlock_recursive.h">
<polygon fill="white" stroke="black" points="116,-168.5 116,-187.5 214,-187.5 214,-168.5 116,-168.5"/>
<text text-anchor="middle" x="165" y="-175.5" font-family="Helvetica,sans-Serif" font-size="10.00">rwlock_recursive.h</text>
</a>
</g>
</g>
<!-- Node6&#45;&gt;Node8 -->
<g id="edge3" class="edge"><title>Node6&#45;&gt;Node8</title>
<path fill="none" stroke="midnightblue" d="M399.152,-222.601C344.345,-212.395 261.768,-197.019 210.736,-187.516"/>
<polygon fill="midnightblue" stroke="midnightblue" points="398.577,-226.054 409.049,-224.444 399.858,-219.172 398.577,-226.054"/>
</g>
<!-- Node9 -->
<g id="node5" class="node"><title>Node9</title>
<g id="a_node5"><a xlink:href="arch_2default-linux_2odp_2api_2abi_2rwlock__recursive_8h_source.html" target="_top" xlink:title="rwlock_recursive.h">
<polygon fill="white" stroke="black" points="232,-168.5 232,-187.5 330,-187.5 330,-168.5 232,-168.5"/>
<text text-anchor="middle" x="281" y="-175.5" font-family="Helvetica,sans-Serif" font-size="10.00">rwlock_recursive.h</text>
</a>
</g>
</g>
<!-- Node6&#45;&gt;Node9 -->
<g id="edge4" class="edge"><title>Node6&#45;&gt;Node9</title>
<path fill="none" stroke="midnightblue" d="M417.739,-221.436C384.933,-211.255 337.917,-196.664 308.442,-187.516"/>
<polygon fill="midnightblue" stroke="midnightblue" points="416.841,-224.822 427.429,-224.444 418.916,-218.137 416.841,-224.822"/>
</g>
<!-- Node10 -->
<g id="node6" class="node"><title>Node10</title>
<g id="a_node6"><a xlink:href="arch_2mips64-linux_2odp_2api_2abi_2rwlock__recursive_8h_source.html" target="_top" xlink:title="rwlock_recursive.h">
<polygon fill="white" stroke="black" points="348,-168.5 348,-187.5 446,-187.5 446,-168.5 348,-168.5"/>
<text text-anchor="middle" x="397" y="-175.5" font-family="Helvetica,sans-Serif" font-size="10.00">rwlock_recursive.h</text>
</a>
</g>
</g>
<!-- Node6&#45;&gt;Node10 -->
<g id="edge5" class="edge"><title>Node6&#45;&gt;Node10</title>
<path fill="none" stroke="midnightblue" d="M438.087,-217.253C427.797,-207.673 415.034,-195.791 406.488,-187.834"/>
<polygon fill="midnightblue" stroke="midnightblue" points="435.977,-220.071 445.681,-224.324 440.747,-214.948 435.977,-220.071"/>
</g>
<!-- Node11 -->
<g id="node7" class="node"><title>Node11</title>
<g id="a_node7"><a xlink:href="arch_2power64-linux_2odp_2api_2abi_2rwlock__recursive_8h_source.html" target="_top" xlink:title="rwlock_recursive.h">
<polygon fill="white" stroke="black" points="464,-168.5 464,-187.5 562,-187.5 562,-168.5 464,-168.5"/>
<text text-anchor="middle" x="513" y="-175.5" font-family="Helvetica,sans-Serif" font-size="10.00">rwlock_recursive.h</text>
</a>
</g>
</g>
<!-- Node6&#45;&gt;Node11 -->
<g id="edge6" class="edge"><title>Node6&#45;&gt;Node11</title>
<path fill="none" stroke="midnightblue" d="M471.913,-217.253C482.203,-207.673 494.966,-195.791 503.512,-187.834"/>
<polygon fill="midnightblue" stroke="midnightblue" points="469.253,-214.948 464.319,-224.324 474.023,-220.071 469.253,-214.948"/>
</g>
<!-- Node12 -->
<g id="node8" class="node"><title>Node12</title>
<g id="a_node8"><a xlink:href="arch_2x86__32-linux_2odp_2api_2abi_2rwlock__recursive_8h_source.html" target="_top" xlink:title="rwlock_recursive.h">
<polygon fill="white" stroke="black" points="580,-168.5 580,-187.5 678,-187.5 678,-168.5 580,-168.5"/>
<text text-anchor="middle" x="629" y="-175.5" font-family="Helvetica,sans-Serif" font-size="10.00">rwlock_recursive.h</text>
</a>
</g>
</g>
<!-- Node6&#45;&gt;Node12 -->
<g id="edge7" class="edge"><title>Node6&#45;&gt;Node12</title>
<path fill="none" stroke="midnightblue" d="M492.261,-221.436C525.067,-211.255 572.083,-196.664 601.558,-187.516"/>
<polygon fill="midnightblue" stroke="midnightblue" points="491.084,-218.137 482.571,-224.444 493.159,-224.822 491.084,-218.137"/>
</g>
<!-- Node13 -->
<g id="node9" class="node"><title>Node13</title>
<g id="a_node9"><a xlink:href="arch_2x86__64-linux_2odp_2api_2abi_2rwlock__recursive_8h_source.html" target="_top" xlink:title="rwlock_recursive.h">
<polygon fill="white" stroke="black" points="696,-168.5 696,-187.5 794,-187.5 794,-168.5 696,-168.5"/>
<text text-anchor="middle" x="745" y="-175.5" font-family="Helvetica,sans-Serif" font-size="10.00">rwlock_recursive.h</text>
</a>
</g>
</g>
<!-- Node6&#45;&gt;Node13 -->
<g id="edge8" class="edge"><title>Node6&#45;&gt;Node13</title>
<path fill="none" stroke="midnightblue" d="M510.848,-222.601C565.655,-212.395 648.232,-197.019 699.264,-187.516"/>
<polygon fill="midnightblue" stroke="midnightblue" points="510.142,-219.172 500.951,-224.444 511.423,-226.054 510.142,-219.172"/>
</g>
<!-- Node14 -->
<g id="node10" class="node"><title>Node14</title>
<g id="a_node10"><a xlink:href="api_2rwlock__recursive_8h.html" target="_top" xlink:title="ODP resursive read/write lock. ">
<polygon fill="white" stroke="black" points="696,-112.5 696,-131.5 794,-131.5 794,-112.5 696,-112.5"/>
<text text-anchor="middle" x="745" y="-119.5" font-family="Helvetica,sans-Serif" font-size="10.00">rwlock_recursive.h</text>
</a>
</g>
</g>
<!-- Node13&#45;&gt;Node14 -->
<g id="edge9" class="edge"><title>Node13&#45;&gt;Node14</title>
<path fill="none" stroke="midnightblue" d="M745,-157.805C745,-148.91 745,-138.78 745,-131.751"/>
<polygon fill="midnightblue" stroke="midnightblue" points="741.5,-158.083 745,-168.083 748.5,-158.083 741.5,-158.083"/>
</g>
<!-- Node14&#45;&gt;Node15 -->
<g id="edge10" class="edge"><title>Node14&#45;&gt;Node15</title>
<path fill="none" stroke="midnightblue" d="M757.065,-103.855C763.645,-94.5048 771.511,-83.3265 776.842,-75.7511"/>
<polygon fill="midnightblue" stroke="midnightblue" points="754.168,-101.891 751.275,-112.083 759.892,-105.919 754.168,-101.891"/>
</g>
<!-- Node16 -->
<g id="node12" class="node"><title>Node16</title>
<g id="a_node12"><a xlink:href="odp_8h.html" target="_top" xlink:title="WARNING: THIS FILE IS DEPRECATED AND WILL BE REMOVED!!! ODP APPLICATIONS SHOULD NOW INCLUDE odp_api...">
<polygon fill="white" stroke="black" points="762.5,-0.5 762.5,-19.5 803.5,-19.5 803.5,-0.5 762.5,-0.5"/>
<text text-anchor="middle" x="783" y="-7.5" font-family="Helvetica,sans-Serif" font-size="10.00">odp.h</text>
</a>
</g>
</g>
<!-- Node15&#45;&gt;Node16 -->
<g id="edge11" class="edge"><title>Node15&#45;&gt;Node16</title>
<path fill="none" stroke="midnightblue" d="M783,-45.8045C783,-36.9102 783,-26.7798 783,-19.7511"/>
<polygon fill="midnightblue" stroke="midnightblue" points="779.5,-46.083 783,-56.083 786.5,-46.083 779.5,-46.083"/>
</g>
</g>
</svg>
