<?xml version="1.0" encoding="UTF-8" standalone="no"?>
<!DOCTYPE svg PUBLIC "-//W3C//DTD SVG 1.1//EN"
 "http://www.w3.org/Graphics/SVG/1.1/DTD/svg11.dtd">
<!-- Generated by graphviz version 2.36.0 (20140111.2315)
 -->
<!-- Title: sync.h Pages: 1 -->
<svg width="285pt" height="140pt"
 viewBox="0.00 0.00 285.00 140.00" xmlns="http://www.w3.org/2000/svg" xmlns:xlink="http://www.w3.org/1999/xlink">
<g id="graph0" class="graph" transform="scale(1 1) rotate(0) translate(4 136)">
<title>sync.h</title>
<polygon fill="white" stroke="none" points="-4,4 -4,-136 281,-136 281,4 -4,4"/>
<!-- Node0 -->
<g id="node1" class="node"><title>Node0</title>
<polygon fill="#bfbfbf" stroke="black" points="84,-112.5 84,-131.5 130,-131.5 130,-112.5 84,-112.5"/>
<text text-anchor="middle" x="107" y="-119.5" font-family="Helvetica,sans-Serif" font-size="10.00">sync.h</text>
</g>
<!-- Node1 -->
<g id="node2" class="node"><title>Node1</title>
<polygon fill="white" stroke="#bfbfbf" points="0,-56.5 0,-75.5 96,-75.5 96,-56.5 0,-56.5"/>
<text text-anchor="middle" x="48" y="-63.5" font-family="Helvetica,sans-Serif" font-size="10.00">odp/api/abi/sync.h</text>
</g>
<!-- Node0&#45;&gt;Node1 -->
<g id="edge1" class="edge"><title>Node0&#45;&gt;Node1</title>
<path fill="none" stroke="midnightblue" d="M97.5206,-112.324C88.7989,-104.341 75.6565,-92.3128 65.1022,-82.6529"/>
<polygon fill="midnightblue" stroke="midnightblue" points="67.3917,-80.0036 57.6519,-75.8339 62.6655,-85.1674 67.3917,-80.0036"/>
</g>
<!-- Node2 -->
<g id="node3" class="node"><title>Node2</title>
<g id="a_node3"><a xlink:href="api_2spec_2sync_8h.html" target="_top" xlink:title="ODP memory barriers. ">
<polygon fill="white" stroke="black" points="114,-56.5 114,-75.5 218,-75.5 218,-56.5 114,-56.5"/>
<text text-anchor="middle" x="166" y="-63.5" font-family="Helvetica,sans-Serif" font-size="10.00">odp/api/spec/sync.h</text>
</a>
</g>
</g>
<!-- Node0&#45;&gt;Node2 -->
<g id="edge2" class="edge"><title>Node0&#45;&gt;Node2</title>
<path fill="none" stroke="midnightblue" d="M116.479,-112.324C125.201,-104.341 138.343,-92.3128 148.898,-82.6529"/>
<polygon fill="midnightblue" stroke="midnightblue" points="151.334,-85.1674 156.348,-75.8339 146.608,-80.0036 151.334,-85.1674"/>
</g>
<!-- Node3 -->
<g id="node4" class="node"><title>Node3</title>
<g id="a_node4"><a xlink:href="visibility__begin_8h_source.html" target="_top" xlink:title="odp/visibility_begin.h">
<polygon fill="white" stroke="black" points="51.5,-0.5 51.5,-19.5 158.5,-19.5 158.5,-0.5 51.5,-0.5"/>
<text text-anchor="middle" x="105" y="-7.5" font-family="Helvetica,sans-Serif" font-size="10.00">odp/visibility_begin.h</text>
</a>
</g>
</g>
<!-- Node2&#45;&gt;Node3 -->
<g id="edge3" class="edge"><title>Node2&#45;&gt;Node3</title>
<path fill="none" stroke="midnightblue" d="M156.199,-56.324C147.182,-48.3414 133.594,-36.3128 122.682,-26.6529"/>
<polygon fill="midnightblue" stroke="midnightblue" points="124.787,-23.8416 114.979,-19.8339 120.147,-29.083 124.787,-23.8416"/>
</g>
<!-- Node4 -->
<g id="node5" class="node"><title>Node4</title>
<g id="a_node5"><a xlink:href="visibility__end_8h_source.html" target="_top" xlink:title="odp/visibility_end.h">
<polygon fill="white" stroke="black" points="177,-0.5 177,-19.5 277,-19.5 277,-0.5 177,-0.5"/>
<text text-anchor="middle" x="227" y="-7.5" font-family="Helvetica,sans-Serif" font-size="10.00">odp/visibility_end.h</text>
</a>
</g>
</g>
<!-- Node2&#45;&gt;Node4 -->
<g id="edge4" class="edge"><title>Node2&#45;&gt;Node4</title>
<path fill="none" stroke="midnightblue" d="M175.801,-56.324C184.818,-48.3414 198.406,-36.3128 209.318,-26.6529"/>
<polygon fill="midnightblue" stroke="midnightblue" points="211.853,-29.083 217.021,-19.8339 207.213,-23.8416 211.853,-29.083"/>
</g>
</g>
</svg>
