<?xml version="1.0" encoding="UTF-8" standalone="no"?>
<!DOCTYPE svg PUBLIC "-//W3C//DTD SVG 1.1//EN"
 "http://www.w3.org/Graphics/SVG/1.1/DTD/svg11.dtd">
<!-- Generated by graphviz version 2.36.0 (20140111.2315)
 -->
<!-- Title: byteorder.h Pages: 1 -->
<svg width="314pt" height="140pt"
 viewBox="0.00 0.00 314.00 140.00" xmlns="http://www.w3.org/2000/svg" xmlns:xlink="http://www.w3.org/1999/xlink">
<g id="graph0" class="graph" transform="scale(1 1) rotate(0) translate(4 136)">
<title>byteorder.h</title>
<polygon fill="white" stroke="none" points="-4,4 -4,-136 310,-136 310,4 -4,4"/>
<!-- Node0 -->
<g id="node1" class="node"><title>Node0</title>
<polygon fill="#bfbfbf" stroke="black" points="93.5,-112.5 93.5,-131.5 158.5,-131.5 158.5,-112.5 93.5,-112.5"/>
<text text-anchor="middle" x="126" y="-119.5" font-family="Helvetica,sans-Serif" font-size="10.00">byteorder.h</text>
</g>
<!-- Node1 -->
<g id="node2" class="node"><title>Node1</title>
<polygon fill="white" stroke="#bfbfbf" points="-1,-56.5 -1,-75.5 115,-75.5 115,-56.5 -1,-56.5"/>
<text text-anchor="middle" x="57" y="-63.5" font-family="Helvetica,sans-Serif" font-size="10.00">odp/api/abi/byteorder.h</text>
</g>
<!-- Node0&#45;&gt;Node1 -->
<g id="edge1" class="edge"><title>Node0&#45;&gt;Node1</title>
<path fill="none" stroke="midnightblue" d="M114.914,-112.324C104.514,-104.185 88.7394,-91.8395 76.2784,-82.0874"/>
<polygon fill="midnightblue" stroke="midnightblue" points="78.3199,-79.2407 68.2878,-75.8339 74.0057,-84.7533 78.3199,-79.2407"/>
</g>
<!-- Node2 -->
<g id="node3" class="node"><title>Node2</title>
<g id="a_node3"><a xlink:href="api_2spec_2byteorder_8h.html" target="_top" xlink:title="ODP byteorder. ">
<polygon fill="white" stroke="black" points="133,-56.5 133,-75.5 257,-75.5 257,-56.5 133,-56.5"/>
<text text-anchor="middle" x="195" y="-63.5" font-family="Helvetica,sans-Serif" font-size="10.00">odp/api/spec/byteorder.h</text>
</a>
</g>
</g>
<!-- Node0&#45;&gt;Node2 -->
<g id="edge2" class="edge"><title>Node0&#45;&gt;Node2</title>
<path fill="none" stroke="midnightblue" d="M137.086,-112.324C147.486,-104.185 163.261,-91.8395 175.722,-82.0874"/>
<polygon fill="midnightblue" stroke="midnightblue" points="177.994,-84.7533 183.712,-75.8339 173.68,-79.2407 177.994,-84.7533"/>
</g>
<!-- Node3 -->
<g id="node4" class="node"><title>Node3</title>
<g id="a_node4"><a xlink:href="visibility__begin_8h_source.html" target="_top" xlink:title="odp/visibility_begin.h">
<polygon fill="white" stroke="black" points="80.5,-0.5 80.5,-19.5 187.5,-19.5 187.5,-0.5 80.5,-0.5"/>
<text text-anchor="middle" x="134" y="-7.5" font-family="Helvetica,sans-Serif" font-size="10.00">odp/visibility_begin.h</text>
</a>
</g>
</g>
<!-- Node2&#45;&gt;Node3 -->
<g id="edge3" class="edge"><title>Node2&#45;&gt;Node3</title>
<path fill="none" stroke="midnightblue" d="M185.199,-56.324C176.182,-48.3414 162.594,-36.3128 151.682,-26.6529"/>
<polygon fill="midnightblue" stroke="midnightblue" points="153.787,-23.8416 143.979,-19.8339 149.147,-29.083 153.787,-23.8416"/>
</g>
<!-- Node4 -->
<g id="node5" class="node"><title>Node4</title>
<g id="a_node5"><a xlink:href="visibility__end_8h_source.html" target="_top" xlink:title="odp/visibility_end.h">
<polygon fill="white" stroke="black" points="206,-0.5 206,-19.5 306,-19.5 306,-0.5 206,-0.5"/>
<text text-anchor="middle" x="256" y="-7.5" font-family="Helvetica,sans-Serif" font-size="10.00">odp/visibility_end.h</text>
</a>
</g>
</g>
<!-- Node2&#45;&gt;Node4 -->
<g id="edge4" class="edge"><title>Node2&#45;&gt;Node4</title>
<path fill="none" stroke="midnightblue" d="M204.801,-56.324C213.818,-48.3414 227.406,-36.3128 238.318,-26.6529"/>
<polygon fill="midnightblue" stroke="midnightblue" points="240.853,-29.083 246.021,-19.8339 236.213,-23.8416 240.853,-29.083"/>
</g>
</g>
</svg>
