<?xml version="1.0" encoding="UTF-8" standalone="no"?>
<!DOCTYPE svg PUBLIC "-//W3C//DTD SVG 1.1//EN"
 "http://www.w3.org/Graphics/SVG/1.1/DTD/svg11.dtd">
<!-- Generated by graphviz version 2.36.0 (20140111.2315)
 -->
<!-- Title: thread.h Pages: 1 -->
<svg width="1051pt" height="364pt"
 viewBox="0.00 0.00 1051.00 364.00" xmlns="http://www.w3.org/2000/svg" xmlns:xlink="http://www.w3.org/1999/xlink">
<g id="graph0" class="graph" transform="scale(1 1) rotate(0) translate(4 360)">
<title>thread.h</title>
<polygon fill="white" stroke="none" points="-4,4 -4,-360 1047,-360 1047,4 -4,4"/>
<!-- Node6 -->
<g id="node1" class="node"><title>Node6</title>
<polygon fill="#bfbfbf" stroke="black" points="820,-336.5 820,-355.5 872,-355.5 872,-336.5 820,-336.5"/>
<text text-anchor="middle" x="846" y="-343.5" font-family="Helvetica,sans-Serif" font-size="10.00">thread.h</text>
</g>
<!-- Node7 -->
<g id="node2" class="node"><title>Node7</title>
<g id="a_node2"><a xlink:href="api_2abi-default_2rwlock__recursive_8h.html" target="_top" xlink:title="ODP recursive read/write lock. ">
<polygon fill="white" stroke="black" points="406,-280.5 406,-299.5 504,-299.5 504,-280.5 406,-280.5"/>
<text text-anchor="middle" x="455" y="-287.5" font-family="Helvetica,sans-Serif" font-size="10.00">rwlock_recursive.h</text>
</a>
</g>
</g>
<!-- Node6&#45;&gt;Node7 -->
<g id="edge1" class="edge"><title>Node6&#45;&gt;Node7</title>
<path fill="none" stroke="midnightblue" d="M809.57,-339.969C739.053,-330.23 583.857,-308.796 504.237,-297.8"/>
<polygon fill="midnightblue" stroke="midnightblue" points="809.353,-343.472 819.738,-341.373 810.311,-336.538 809.353,-343.472"/>
</g>
<!-- Node16 -->
<g id="node11" class="node"><title>Node16</title>
<g id="a_node11"><a xlink:href="odp__api_8h.html" target="_top" xlink:title="The OpenDataPlane API. ">
<polygon fill="white" stroke="black" points="841.5,-56.5 841.5,-75.5 900.5,-75.5 900.5,-56.5 841.5,-56.5"/>
<text text-anchor="middle" x="871" y="-63.5" font-family="Helvetica,sans-Serif" font-size="10.00">odp_api.h</text>
</a>
</g>
</g>
<!-- Node6&#45;&gt;Node16 -->
<g id="edge20" class="edge"><title>Node6&#45;&gt;Node16</title>
<path fill="none" stroke="midnightblue" d="M839.509,-326.786C832.401,-305.182 822,-267.941 822,-235 822,-235 822,-235 822,-177 822,-136.024 850.723,-93.3124 864.187,-75.5423"/>
<polygon fill="midnightblue" stroke="midnightblue" points="836.215,-327.972 842.763,-336.301 842.838,-325.706 836.215,-327.972"/>
</g>
<!-- Node18 -->
<g id="node13" class="node"><title>Node18</title>
<g id="a_node13"><a xlink:href="api_2cpu_8h.html" target="_top" xlink:title="ODP CPU. ">
<polygon fill="white" stroke="black" points="850.5,-168.5 850.5,-187.5 891.5,-187.5 891.5,-168.5 850.5,-168.5"/>
<text text-anchor="middle" x="871" y="-175.5" font-family="Helvetica,sans-Serif" font-size="10.00">cpu.h</text>
</a>
</g>
</g>
<!-- Node6&#45;&gt;Node18 -->
<g id="edge12" class="edge"><title>Node6&#45;&gt;Node18</title>
<path fill="none" stroke="midnightblue" d="M848.872,-325.93C854.295,-289.92 865.845,-213.231 869.71,-187.568"/>
<polygon fill="midnightblue" stroke="midnightblue" points="845.372,-325.665 847.344,-336.075 852.294,-326.708 845.372,-325.665"/>
</g>
<!-- Node19 -->
<g id="node14" class="node"><title>Node19</title>
<g id="a_node14"><a xlink:href="api_2spec_2init_8h.html" target="_top" xlink:title="ODP initialization. ">
<polygon fill="white" stroke="black" points="895,-280.5 895,-299.5 933,-299.5 933,-280.5 895,-280.5"/>
<text text-anchor="middle" x="914" y="-287.5" font-family="Helvetica,sans-Serif" font-size="10.00">init.h</text>
</a>
</g>
</g>
<!-- Node6&#45;&gt;Node19 -->
<g id="edge14" class="edge"><title>Node6&#45;&gt;Node19</title>
<path fill="none" stroke="midnightblue" d="M864.762,-330.101C877,-320.382 892.559,-308.027 902.876,-299.834"/>
<polygon fill="midnightblue" stroke="midnightblue" points="862.58,-327.364 856.925,-336.324 866.933,-332.846 862.58,-327.364"/>
</g>
<!-- Node8 -->
<g id="node3" class="node"><title>Node8</title>
<g id="a_node3"><a xlink:href="arch_2arm32-linux_2odp_2api_2abi_2rwlock__recursive_8h_source.html" target="_top" xlink:title="rwlock_recursive.h">
<polygon fill="white" stroke="black" points="0,-224.5 0,-243.5 98,-243.5 98,-224.5 0,-224.5"/>
<text text-anchor="middle" x="49" y="-231.5" font-family="Helvetica,sans-Serif" font-size="10.00">rwlock_recursive.h</text>
</a>
</g>
</g>
<!-- Node7&#45;&gt;Node8 -->
<g id="edge2" class="edge"><title>Node7&#45;&gt;Node8</title>
<path fill="none" stroke="midnightblue" d="M395.68,-281.794C326.366,-273.266 208.254,-258.4 107,-244 104.074,-243.584 101.067,-243.147 98.0347,-242.698"/>
<polygon fill="midnightblue" stroke="midnightblue" points="395.608,-285.311 405.96,-283.056 396.461,-278.363 395.608,-285.311"/>
</g>
<!-- Node9 -->
<g id="node4" class="node"><title>Node9</title>
<g id="a_node4"><a xlink:href="arch_2arm64-linux_2odp_2api_2abi_2rwlock__recursive_8h_source.html" target="_top" xlink:title="rwlock_recursive.h">
<polygon fill="white" stroke="black" points="116,-224.5 116,-243.5 214,-243.5 214,-224.5 116,-224.5"/>
<text text-anchor="middle" x="165" y="-231.5" font-family="Helvetica,sans-Serif" font-size="10.00">rwlock_recursive.h</text>
</a>
</g>
</g>
<!-- Node7&#45;&gt;Node9 -->
<g id="edge3" class="edge"><title>Node7&#45;&gt;Node9</title>
<path fill="none" stroke="midnightblue" d="M399.152,-278.601C344.345,-268.395 261.768,-253.019 210.736,-243.516"/>
<polygon fill="midnightblue" stroke="midnightblue" points="398.577,-282.054 409.049,-280.444 399.858,-275.172 398.577,-282.054"/>
</g>
<!-- Node10 -->
<g id="node5" class="node"><title>Node10</title>
<g id="a_node5"><a xlink:href="arch_2default-linux_2odp_2api_2abi_2rwlock__recursive_8h_source.html" target="_top" xlink:title="rwlock_recursive.h">
<polygon fill="white" stroke="black" points="232,-224.5 232,-243.5 330,-243.5 330,-224.5 232,-224.5"/>
<text text-anchor="middle" x="281" y="-231.5" font-family="Helvetica,sans-Serif" font-size="10.00">rwlock_recursive.h</text>
</a>
</g>
</g>
<!-- Node7&#45;&gt;Node10 -->
<g id="edge4" class="edge"><title>Node7&#45;&gt;Node10</title>
<path fill="none" stroke="midnightblue" d="M417.739,-277.436C384.933,-267.255 337.917,-252.664 308.442,-243.516"/>
<polygon fill="midnightblue" stroke="midnightblue" points="416.841,-280.822 427.429,-280.444 418.916,-274.137 416.841,-280.822"/>
</g>
<!-- Node11 -->
<g id="node6" class="node"><title>Node11</title>
<g id="a_node6"><a xlink:href="arch_2mips64-linux_2odp_2api_2abi_2rwlock__recursive_8h_source.html" target="_top" xlink:title="rwlock_recursive.h">
<polygon fill="white" stroke="black" points="348,-224.5 348,-243.5 446,-243.5 446,-224.5 348,-224.5"/>
<text text-anchor="middle" x="397" y="-231.5" font-family="Helvetica,sans-Serif" font-size="10.00">rwlock_recursive.h</text>
</a>
</g>
</g>
<!-- Node7&#45;&gt;Node11 -->
<g id="edge5" class="edge"><title>Node7&#45;&gt;Node11</title>
<path fill="none" stroke="midnightblue" d="M438.087,-273.253C427.797,-263.673 415.034,-251.791 406.488,-243.834"/>
<polygon fill="midnightblue" stroke="midnightblue" points="435.977,-276.071 445.681,-280.324 440.747,-270.948 435.977,-276.071"/>
</g>
<!-- Node12 -->
<g id="node7" class="node"><title>Node12</title>
<g id="a_node7"><a xlink:href="arch_2power64-linux_2odp_2api_2abi_2rwlock__recursive_8h_source.html" target="_top" xlink:title="rwlock_recursive.h">
<polygon fill="white" stroke="black" points="464,-224.5 464,-243.5 562,-243.5 562,-224.5 464,-224.5"/>
<text text-anchor="middle" x="513" y="-231.5" font-family="Helvetica,sans-Serif" font-size="10.00">rwlock_recursive.h</text>
</a>
</g>
</g>
<!-- Node7&#45;&gt;Node12 -->
<g id="edge6" class="edge"><title>Node7&#45;&gt;Node12</title>
<path fill="none" stroke="midnightblue" d="M471.913,-273.253C482.203,-263.673 494.966,-251.791 503.512,-243.834"/>
<polygon fill="midnightblue" stroke="midnightblue" points="469.253,-270.948 464.319,-280.324 474.023,-276.071 469.253,-270.948"/>
</g>
<!-- Node13 -->
<g id="node8" class="node"><title>Node13</title>
<g id="a_node8"><a xlink:href="arch_2x86__32-linux_2odp_2api_2abi_2rwlock__recursive_8h_source.html" target="_top" xlink:title="rwlock_recursive.h">
<polygon fill="white" stroke="black" points="580,-224.5 580,-243.5 678,-243.5 678,-224.5 580,-224.5"/>
<text text-anchor="middle" x="629" y="-231.5" font-family="Helvetica,sans-Serif" font-size="10.00">rwlock_recursive.h</text>
</a>
</g>
</g>
<!-- Node7&#45;&gt;Node13 -->
<g id="edge7" class="edge"><title>Node7&#45;&gt;Node13</title>
<path fill="none" stroke="midnightblue" d="M492.261,-277.436C525.067,-267.255 572.083,-252.664 601.558,-243.516"/>
<polygon fill="midnightblue" stroke="midnightblue" points="491.084,-274.137 482.571,-280.444 493.159,-280.822 491.084,-274.137"/>
</g>
<!-- Node14 -->
<g id="node9" class="node"><title>Node14</title>
<g id="a_node9"><a xlink:href="arch_2x86__64-linux_2odp_2api_2abi_2rwlock__recursive_8h_source.html" target="_top" xlink:title="rwlock_recursive.h">
<polygon fill="white" stroke="black" points="696,-224.5 696,-243.5 794,-243.5 794,-224.5 696,-224.5"/>
<text text-anchor="middle" x="745" y="-231.5" font-family="Helvetica,sans-Serif" font-size="10.00">rwlock_recursive.h</text>
</a>
</g>
</g>
<!-- Node7&#45;&gt;Node14 -->
<g id="edge8" class="edge"><title>Node7&#45;&gt;Node14</title>
<path fill="none" stroke="midnightblue" d="M510.848,-278.601C565.655,-268.395 648.232,-253.019 699.264,-243.516"/>
<polygon fill="midnightblue" stroke="midnightblue" points="510.142,-275.172 500.951,-280.444 511.423,-282.054 510.142,-275.172"/>
</g>
<!-- Node15 -->
<g id="node10" class="node"><title>Node15</title>
<g id="a_node10"><a xlink:href="api_2rwlock__recursive_8h.html" target="_top" xlink:title="ODP resursive read/write lock. ">
<polygon fill="white" stroke="black" points="696,-112.5 696,-131.5 794,-131.5 794,-112.5 696,-112.5"/>
<text text-anchor="middle" x="745" y="-119.5" font-family="Helvetica,sans-Serif" font-size="10.00">rwlock_recursive.h</text>
</a>
</g>
</g>
<!-- Node14&#45;&gt;Node15 -->
<g id="edge9" class="edge"><title>Node14&#45;&gt;Node15</title>
<path fill="none" stroke="midnightblue" d="M745,-214.348C745,-190.254 745,-149.308 745,-131.591"/>
<polygon fill="midnightblue" stroke="midnightblue" points="741.5,-214.368 745,-224.368 748.5,-214.369 741.5,-214.368"/>
</g>
<!-- Node15&#45;&gt;Node16 -->
<g id="edge10" class="edge"><title>Node15&#45;&gt;Node16</title>
<path fill="none" stroke="midnightblue" d="M774.16,-108.503C797.781,-98.3795 830.428,-84.388 851.128,-75.5164"/>
<polygon fill="midnightblue" stroke="midnightblue" points="772.778,-105.287 764.965,-112.444 775.535,-111.721 772.778,-105.287"/>
</g>
<!-- Node17 -->
<g id="node12" class="node"><title>Node17</title>
<g id="a_node12"><a xlink:href="odp_8h.html" target="_top" xlink:title="WARNING: THIS FILE IS DEPRECATED AND WILL BE REMOVED!!! ODP APPLICATIONS SHOULD NOW INCLUDE odp_api...">
<polygon fill="white" stroke="black" points="850.5,-0.5 850.5,-19.5 891.5,-19.5 891.5,-0.5 850.5,-0.5"/>
<text text-anchor="middle" x="871" y="-7.5" font-family="Helvetica,sans-Serif" font-size="10.00">odp.h</text>
</a>
</g>
</g>
<!-- Node16&#45;&gt;Node17 -->
<g id="edge11" class="edge"><title>Node16&#45;&gt;Node17</title>
<path fill="none" stroke="midnightblue" d="M871,-45.8045C871,-36.9102 871,-26.7798 871,-19.7511"/>
<polygon fill="midnightblue" stroke="midnightblue" points="867.5,-46.083 871,-56.083 874.5,-46.083 867.5,-46.083"/>
</g>
<!-- Node18&#45;&gt;Node16 -->
<g id="edge13" class="edge"><title>Node18&#45;&gt;Node16</title>
<path fill="none" stroke="midnightblue" d="M871,-158.348C871,-134.254 871,-93.3079 871,-75.5914"/>
<polygon fill="midnightblue" stroke="midnightblue" points="867.5,-158.368 871,-168.368 874.5,-158.369 867.5,-158.368"/>
</g>
<!-- Node20 -->
<g id="node15" class="node"><title>Node20</title>
<g id="a_node15"><a xlink:href="api_2init_8h.html" target="_top" xlink:title="ODP initialization. ">
<polygon fill="white" stroke="black" points="901,-224.5 901,-243.5 939,-243.5 939,-224.5 901,-224.5"/>
<text text-anchor="middle" x="920" y="-231.5" font-family="Helvetica,sans-Serif" font-size="10.00">init.h</text>
</a>
</g>
</g>
<!-- Node19&#45;&gt;Node20 -->
<g id="edge15" class="edge"><title>Node19&#45;&gt;Node20</title>
<path fill="none" stroke="midnightblue" d="M916.1,-270.101C917.096,-261.136 918.238,-250.858 919.028,-243.751"/>
<polygon fill="midnightblue" stroke="midnightblue" points="912.617,-269.758 914.991,-280.083 919.574,-270.531 912.617,-269.758"/>
</g>
<!-- Node20&#45;&gt;Node16 -->
<g id="edge19" class="edge"><title>Node20&#45;&gt;Node16</title>
<path fill="none" stroke="midnightblue" d="M914.839,-214.73C908.109,-191.01 895.909,-148.344 885,-112 881.19,-99.3049 876.595,-84.6567 873.735,-75.6111"/>
<polygon fill="midnightblue" stroke="midnightblue" points="911.506,-215.806 917.597,-224.474 918.241,-213.899 911.506,-215.806"/>
</g>
<!-- Node21 -->
<g id="node16" class="node"><title>Node21</title>
<g id="a_node16"><a xlink:href="api_2spec_2shared__memory_8h.html" target="_top" xlink:title="ODP shared memory. ">
<polygon fill="white" stroke="black" points="948.5,-168.5 948.5,-187.5 1043.5,-187.5 1043.5,-168.5 948.5,-168.5"/>
<text text-anchor="middle" x="996" y="-175.5" font-family="Helvetica,sans-Serif" font-size="10.00">shared_memory.h</text>
</a>
</g>
</g>
<!-- Node20&#45;&gt;Node21 -->
<g id="edge16" class="edge"><title>Node20&#45;&gt;Node21</title>
<path fill="none" stroke="midnightblue" d="M940.576,-218.38C954.312,-208.62 971.925,-196.106 983.567,-187.834"/>
<polygon fill="midnightblue" stroke="midnightblue" points="938.335,-215.679 932.211,-224.324 942.39,-221.385 938.335,-215.679"/>
</g>
<!-- Node22 -->
<g id="node17" class="node"><title>Node22</title>
<g id="a_node17"><a xlink:href="api_2shared__memory_8h.html" target="_top" xlink:title="ODP shared memory. ">
<polygon fill="white" stroke="black" points="948.5,-112.5 948.5,-131.5 1043.5,-131.5 1043.5,-112.5 948.5,-112.5"/>
<text text-anchor="middle" x="996" y="-119.5" font-family="Helvetica,sans-Serif" font-size="10.00">shared_memory.h</text>
</a>
</g>
</g>
<!-- Node21&#45;&gt;Node22 -->
<g id="edge17" class="edge"><title>Node21&#45;&gt;Node22</title>
<path fill="none" stroke="midnightblue" d="M996,-157.805C996,-148.91 996,-138.78 996,-131.751"/>
<polygon fill="midnightblue" stroke="midnightblue" points="992.5,-158.083 996,-168.083 999.5,-158.083 992.5,-158.083"/>
</g>
<!-- Node22&#45;&gt;Node16 -->
<g id="edge18" class="edge"><title>Node22&#45;&gt;Node16</title>
<path fill="none" stroke="midnightblue" d="M966.759,-108.368C943.35,-98.2553 911.159,-84.3486 890.714,-75.5164"/>
<polygon fill="midnightblue" stroke="midnightblue" points="965.625,-111.691 976.193,-112.444 968.401,-105.265 965.625,-111.691"/>
</g>
</g>
</svg>
