<?xml version="1.0" encoding="UTF-8" standalone="no"?>
<!DOCTYPE svg PUBLIC "-//W3C//DTD SVG 1.1//EN"
 "http://www.w3.org/Graphics/SVG/1.1/DTD/svg11.dtd">
<!-- Generated by graphviz version 2.36.0 (20140111.2315)
 -->
<!-- Title: packet_io.h Pages: 1 -->
<svg width="1558pt" height="624pt"
 viewBox="0.00 0.00 1558.00 624.00" xmlns="http://www.w3.org/2000/svg" xmlns:xlink="http://www.w3.org/1999/xlink">
<g id="graph0" class="graph" transform="scale(1 1) rotate(0) translate(4 620)">
<title>packet_io.h</title>
<polygon fill="white" stroke="none" points="-4,4 -4,-620 1554,-620 1554,4 -4,4"/>
<!-- Node0 -->
<g id="node1" class="node"><title>Node0</title>
<polygon fill="#bfbfbf" stroke="black" points="639.5,-596.5 639.5,-615.5 706.5,-615.5 706.5,-596.5 639.5,-596.5"/>
<text text-anchor="middle" x="673" y="-603.5" font-family="Helvetica,sans-Serif" font-size="10.00">packet_io.h</text>
</g>
<!-- Node1 -->
<g id="node2" class="node"><title>Node1</title>
<g id="a_node2"><a xlink:href="visibility__begin_8h_source.html" target="_top" xlink:title="odp/visibility_begin.h">
<polygon fill="white" stroke="black" points="1194.5,-0.5 1194.5,-19.5 1301.5,-19.5 1301.5,-0.5 1194.5,-0.5"/>
<text text-anchor="middle" x="1248" y="-7.5" font-family="Helvetica,sans-Serif" font-size="10.00">odp/visibility_begin.h</text>
</a>
</g>
</g>
<!-- Node0&#45;&gt;Node1 -->
<g id="edge1" class="edge"><title>Node0&#45;&gt;Node1</title>
<path fill="none" stroke="midnightblue" d="M706.575,-604.389C867.259,-601.028 1550,-581.651 1550,-495 1550,-495 1550,-495 1550,-133 1550,-93.8031 1538.98,-78.6713 1507,-56 1476.39,-34.2945 1378.22,-21.9058 1311.93,-15.821"/>
<polygon fill="midnightblue" stroke="midnightblue" points="1311.85,-12.3002 1301.58,-14.8981 1311.23,-19.2725 1311.85,-12.3002"/>
</g>
<!-- Node2 -->
<g id="node3" class="node"><title>Node2</title>
<g id="a_node3"><a xlink:href="deprecated_8h.html" target="_top" xlink:title="Control deprecated API definitions. ">
<polygon fill="white" stroke="black" points="1326.5,-248.5 1326.5,-267.5 1433.5,-267.5 1433.5,-248.5 1326.5,-248.5"/>
<text text-anchor="middle" x="1380" y="-255.5" font-family="Helvetica,sans-Serif" font-size="10.00">odp/api/deprecated.h</text>
</a>
</g>
</g>
<!-- Node0&#45;&gt;Node2 -->
<g id="edge2" class="edge"><title>Node0&#45;&gt;Node2</title>
<path fill="none" stroke="midnightblue" d="M706.652,-603.983C858.679,-598.955 1474,-573.737 1474,-495 1474,-495 1474,-495 1474,-381 1474,-333.952 1429.59,-293.943 1401.82,-273.524"/>
<polygon fill="midnightblue" stroke="midnightblue" points="1403.65,-270.529 1393.47,-267.598 1399.6,-276.239 1403.65,-270.529"/>
</g>
<!-- Node4 -->
<g id="node5" class="node"><title>Node4</title>
<g id="a_node5"><a xlink:href="visibility__end_8h_source.html" target="_top" xlink:title="odp/visibility_end.h">
<polygon fill="white" stroke="black" points="828,-0.5 828,-19.5 928,-19.5 928,-0.5 828,-0.5"/>
<text text-anchor="middle" x="878" y="-7.5" font-family="Helvetica,sans-Serif" font-size="10.00">odp/visibility_end.h</text>
</a>
</g>
</g>
<!-- Node0&#45;&gt;Node4 -->
<g id="edge60" class="edge"><title>Node0&#45;&gt;Node4</title>
<path fill="none" stroke="midnightblue" d="M639.185,-603.946C518.489,-599.987 113.281,-584.95 61,-560 25.245,-542.937 0,-534.618 0,-495 0,-495 0,-495 0,-133 0,-40.2345 103.506,-76.404 194,-56 311.906,-29.4151 673.334,-16.6873 817.605,-12.5638"/>
<polygon fill="midnightblue" stroke="midnightblue" points="817.713,-16.0622 827.611,-12.2817 817.516,-9.06498 817.713,-16.0622"/>
</g>
<!-- Node5 -->
<g id="node6" class="node"><title>Node5</title>
<g id="a_node6"><a xlink:href="packet__io__stats_8h.html" target="_top" xlink:title="ODP packet IO stats. ">
<polygon fill="white" stroke="black" points="887,-540.5 887,-559.5 1015,-559.5 1015,-540.5 887,-540.5"/>
<text text-anchor="middle" x="951" y="-547.5" font-family="Helvetica,sans-Serif" font-size="10.00">odp/api/packet_io_stats.h</text>
</a>
</g>
</g>
<!-- Node0&#45;&gt;Node5 -->
<g id="edge6" class="edge"><title>Node0&#45;&gt;Node5</title>
<path fill="none" stroke="midnightblue" d="M706.533,-598.486C753.806,-589.304 840.561,-572.452 896.989,-561.491"/>
<polygon fill="midnightblue" stroke="midnightblue" points="897.661,-564.926 906.81,-559.584 896.326,-558.055 897.661,-564.926"/>
</g>
<!-- Node7 -->
<g id="node8" class="node"><title>Node7</title>
<g id="a_node8"><a xlink:href="api_2queue_8h.html" target="_top" xlink:title="ODP queue. ">
<polygon fill="white" stroke="black" points="630,-540.5 630,-559.5 716,-559.5 716,-540.5 630,-540.5"/>
<text text-anchor="middle" x="673" y="-547.5" font-family="Helvetica,sans-Serif" font-size="10.00">odp/api/queue.h</text>
</a>
</g>
</g>
<!-- Node0&#45;&gt;Node7 -->
<g id="edge10" class="edge"><title>Node0&#45;&gt;Node7</title>
<path fill="none" stroke="midnightblue" d="M673,-596.083C673,-589.006 673,-578.861 673,-569.986"/>
<polygon fill="midnightblue" stroke="midnightblue" points="676.5,-569.751 673,-559.751 669.5,-569.751 676.5,-569.751"/>
</g>
<!-- Node19 -->
<g id="node20" class="node"><title>Node19</title>
<g id="a_node20"><a xlink:href="api_2packet_8h.html" target="_top" xlink:title="ODP packet descriptor. ">
<polygon fill="white" stroke="black" points="410.5,-310.5 410.5,-329.5 499.5,-329.5 499.5,-310.5 410.5,-310.5"/>
<text text-anchor="middle" x="455" y="-317.5" font-family="Helvetica,sans-Serif" font-size="10.00">odp/api/packet.h</text>
</a>
</g>
</g>
<!-- Node0&#45;&gt;Node19 -->
<g id="edge59" class="edge"><title>Node0&#45;&gt;Node19</title>
<path fill="none" stroke="midnightblue" d="M639.192,-602.387C512.901,-592.18 76,-552.701 76,-495 76,-495 76,-495 76,-437 76,-369.99 295.371,-337.8 400.318,-326.234"/>
<polygon fill="midnightblue" stroke="midnightblue" points="400.842,-329.698 410.409,-325.147 400.092,-322.738 400.842,-329.698"/>
</g>
<!-- Node23 -->
<g id="node24" class="node"><title>Node23</title>
<g id="a_node24"><a xlink:href="api_2time_8h.html" target="_top" xlink:title="ODP time. ">
<polygon fill="white" stroke="black" points="160,-186.5 160,-205.5 238,-205.5 238,-186.5 160,-186.5"/>
<text text-anchor="middle" x="199" y="-193.5" font-family="Helvetica,sans-Serif" font-size="10.00">odp/api/time.h</text>
</a>
</g>
</g>
<!-- Node0&#45;&gt;Node23 -->
<g id="edge58" class="edge"><title>Node0&#45;&gt;Node23</title>
<path fill="none" stroke="midnightblue" d="M639.264,-603.537C541.826,-599.064 261.322,-584.372 173,-560 108.807,-542.286 38,-561.593 38,-495 38,-495 38,-495 38,-319 38,-259.248 109.316,-224.991 157.019,-208.76"/>
<polygon fill="midnightblue" stroke="midnightblue" points="158.385,-211.997 166.806,-205.568 156.214,-205.342 158.385,-211.997"/>
</g>
<!-- Node3 -->
<g id="node4" class="node"><title>Node3</title>
<g id="a_node4"><a xlink:href="spec_2deprecated_8h.html" target="_top" xlink:title="Macro for deprecated API definitions. ">
<polygon fill="white" stroke="black" points="1314.5,-62.5 1314.5,-81.5 1445.5,-81.5 1445.5,-62.5 1314.5,-62.5"/>
<text text-anchor="middle" x="1380" y="-69.5" font-family="Helvetica,sans-Serif" font-size="10.00">odp/api/spec/deprecated.h</text>
</a>
</g>
</g>
<!-- Node2&#45;&gt;Node3 -->
<g id="edge3" class="edge"><title>Node2&#45;&gt;Node3</title>
<path fill="none" stroke="midnightblue" d="M1380,-248.125C1380,-219.769 1380,-130.93 1380,-91.8108"/>
<polygon fill="midnightblue" stroke="midnightblue" points="1383.5,-91.7856 1380,-81.7857 1376.5,-91.7857 1383.5,-91.7856"/>
</g>
<!-- Node3&#45;&gt;Node1 -->
<g id="edge4" class="edge"><title>Node3&#45;&gt;Node1</title>
<path fill="none" stroke="midnightblue" d="M1361.09,-62.4035C1338.84,-52.2896 1301.69,-35.4036 1276.07,-23.761"/>
<polygon fill="midnightblue" stroke="midnightblue" points="1277.43,-20.5324 1266.88,-19.5806 1274.53,-26.905 1277.43,-20.5324"/>
</g>
<!-- Node3&#45;&gt;Node4 -->
<g id="edge5" class="edge"><title>Node3&#45;&gt;Node4</title>
<path fill="none" stroke="midnightblue" d="M1314.37,-63.156C1216.29,-51.4331 1032.88,-29.5118 938.115,-18.185"/>
<polygon fill="midnightblue" stroke="midnightblue" points="938.462,-14.7017 928.117,-16.9901 937.631,-21.6522 938.462,-14.7017"/>
</g>
<!-- Node6 -->
<g id="node7" class="node"><title>Node6</title>
<g id="a_node7"><a xlink:href="spec_2packet__io__stats_8h.html" target="_top" xlink:title="ODP Packet IO. ">
<polygon fill="white" stroke="black" points="982,-57 982,-87 1086,-87 1086,-57 982,-57"/>
<text text-anchor="start" x="990" y="-75" font-family="Helvetica,sans-Serif" font-size="10.00">odp/api/spec/packet</text>
<text text-anchor="middle" x="1034" y="-64" font-family="Helvetica,sans-Serif" font-size="10.00">_io_stats.h</text>
</a>
</g>
</g>
<!-- Node5&#45;&gt;Node6 -->
<g id="edge7" class="edge"><title>Node5&#45;&gt;Node6</title>
<path fill="none" stroke="midnightblue" d="M963.918,-540.374C974.674,-532.368 989.278,-519.39 996,-504 1028.58,-429.412 1003,-402.393 1003,-321 1003,-321 1003,-321 1003,-195 1003,-160.007 1015.13,-121.059 1024.21,-96.7935"/>
<polygon fill="midnightblue" stroke="midnightblue" points="1027.52,-97.9365 1027.88,-87.3475 1021,-95.4058 1027.52,-97.9365"/>
</g>
<!-- Node6&#45;&gt;Node1 -->
<g id="edge8" class="edge"><title>Node6&#45;&gt;Node1</title>
<path fill="none" stroke="midnightblue" d="M1084.17,-56.9327C1121.84,-46.3717 1172.74,-32.0998 1207.76,-22.282"/>
<polygon fill="midnightblue" stroke="midnightblue" points="1208.95,-25.5824 1217.64,-19.5127 1207.06,-18.8424 1208.95,-25.5824"/>
</g>
<!-- Node6&#45;&gt;Node4 -->
<g id="edge9" class="edge"><title>Node6&#45;&gt;Node4</title>
<path fill="none" stroke="midnightblue" d="M997.425,-56.9327C970.871,-46.7196 935.294,-33.036 909.893,-23.2664"/>
<polygon fill="midnightblue" stroke="midnightblue" points="910.95,-19.9232 900.36,-19.6 908.437,-26.4566 910.95,-19.9232"/>
</g>
<!-- Node8 -->
<g id="node9" class="node"><title>Node8</title>
<g id="a_node9"><a xlink:href="api_2std__types_8h.html" target="_top" xlink:title="Standard C language types and definitions for ODP. ">
<polygon fill="white" stroke="black" points="105,-124.5 105,-143.5 207,-143.5 207,-124.5 105,-124.5"/>
<text text-anchor="middle" x="156" y="-131.5" font-family="Helvetica,sans-Serif" font-size="10.00">odp/api/std_types.h</text>
</a>
</g>
</g>
<!-- Node7&#45;&gt;Node8 -->
<g id="edge11" class="edge"><title>Node7&#45;&gt;Node8</title>
<path fill="none" stroke="midnightblue" d="M629.773,-542.294C521.016,-522.842 236.366,-455.358 119,-268 98.2359,-234.853 104.565,-216.734 118,-180 122.057,-168.908 130.188,-158.665 137.891,-150.763"/>
<polygon fill="midnightblue" stroke="midnightblue" points="140.475,-153.135 145.286,-143.695 135.638,-148.075 140.475,-153.135"/>
</g>
<!-- Node12 -->
<g id="node13" class="node"><title>Node12</title>
<polygon fill="white" stroke="#bfbfbf" points="761.5,-248.5 761.5,-267.5 860.5,-267.5 860.5,-248.5 761.5,-248.5"/>
<text text-anchor="middle" x="811" y="-255.5" font-family="Helvetica,sans-Serif" font-size="10.00">odp/api/abi/event.h</text>
</g>
<!-- Node7&#45;&gt;Node12 -->
<g id="edge17" class="edge"><title>Node7&#45;&gt;Node12</title>
<path fill="none" stroke="midnightblue" d="M675.861,-540.172C686.614,-507.553 726.577,-391.206 777,-304 782.82,-293.934 790.557,-283.524 797.179,-275.255"/>
<polygon fill="midnightblue" stroke="midnightblue" points="799.896,-277.461 803.551,-267.516 794.492,-273.012 799.896,-277.461"/>
</g>
<!-- Node13 -->
<g id="node14" class="node"><title>Node13</title>
<polygon fill="white" stroke="#bfbfbf" points="720.5,-484.5 720.5,-503.5 821.5,-503.5 821.5,-484.5 720.5,-484.5"/>
<text text-anchor="middle" x="771" y="-491.5" font-family="Helvetica,sans-Serif" font-size="10.00">odp/api/abi/queue.h</text>
</g>
<!-- Node7&#45;&gt;Node13 -->
<g id="edge18" class="edge"><title>Node7&#45;&gt;Node13</title>
<path fill="none" stroke="midnightblue" d="M688.745,-540.324C704.319,-531.743 728.377,-518.486 746.459,-508.522"/>
<polygon fill="midnightblue" stroke="midnightblue" points="748.224,-511.546 755.294,-503.655 744.846,-505.415 748.224,-511.546"/>
</g>
<!-- Node14 -->
<g id="node15" class="node"><title>Node14</title>
<polygon fill="white" stroke="#bfbfbf" points="532,-248.5 532,-267.5 632,-267.5 632,-248.5 532,-248.5"/>
<text text-anchor="middle" x="582" y="-255.5" font-family="Helvetica,sans-Serif" font-size="10.00">odp/api/abi/buffer.h</text>
</g>
<!-- Node7&#45;&gt;Node14 -->
<g id="edge19" class="edge"><title>Node7&#45;&gt;Node14</title>
<path fill="none" stroke="midnightblue" d="M670.438,-540.249C665.251,-521.738 654,-477.179 654,-439 654,-439 654,-439 654,-381 654,-337.849 620.18,-296.54 598.898,-274.817"/>
<polygon fill="midnightblue" stroke="midnightblue" points="601.289,-272.26 591.71,-267.733 596.376,-277.245 601.289,-272.26"/>
</g>
<!-- Node15 -->
<g id="node16" class="node"><title>Node15</title>
<polygon fill="white" stroke="#bfbfbf" points="650.5,-248.5 650.5,-267.5 743.5,-267.5 743.5,-248.5 650.5,-248.5"/>
<text text-anchor="middle" x="697" y="-255.5" font-family="Helvetica,sans-Serif" font-size="10.00">odp/api/abi/pool.h</text>
</g>
<!-- Node7&#45;&gt;Node15 -->
<g id="edge20" class="edge"><title>Node7&#45;&gt;Node15</title>
<path fill="none" stroke="midnightblue" d="M675.562,-540.249C680.749,-521.738 692,-477.179 692,-439 692,-439 692,-439 692,-381 692,-344.383 694.276,-301.636 695.757,-277.703"/>
<polygon fill="midnightblue" stroke="midnightblue" points="699.26,-277.777 696.407,-267.574 692.274,-277.329 699.26,-277.777"/>
</g>
<!-- Node16 -->
<g id="node17" class="node"><title>Node16</title>
<g id="a_node17"><a xlink:href="api_2spec_2queue_8h.html" target="_top" xlink:title="ODP queue. ">
<polygon fill="white" stroke="black" points="877,-484.5 877,-503.5 987,-503.5 987,-484.5 877,-484.5"/>
<text text-anchor="middle" x="932" y="-491.5" font-family="Helvetica,sans-Serif" font-size="10.00">odp/api/spec/queue.h</text>
</a>
</g>
</g>
<!-- Node7&#45;&gt;Node16 -->
<g id="edge21" class="edge"><title>Node7&#45;&gt;Node16</title>
<path fill="none" stroke="midnightblue" d="M714.039,-540.444C759.316,-531.004 832.227,-515.802 881.106,-505.611"/>
<polygon fill="midnightblue" stroke="midnightblue" points="882.078,-508.984 891.153,-503.516 880.649,-502.131 882.078,-508.984"/>
</g>
<!-- Node9 -->
<g id="node10" class="node"><title>Node9</title>
<polygon fill="white" stroke="#bfbfbf" points="347,-62.5 347,-81.5 465,-81.5 465,-62.5 347,-62.5"/>
<text text-anchor="middle" x="406" y="-69.5" font-family="Helvetica,sans-Serif" font-size="10.00">odp/api/abi/std_types.h</text>
</g>
<!-- Node8&#45;&gt;Node9 -->
<g id="edge12" class="edge"><title>Node8&#45;&gt;Node9</title>
<path fill="none" stroke="midnightblue" d="M191.553,-124.467C235.98,-113.805 312.062,-95.5452 360.642,-83.886"/>
<polygon fill="midnightblue" stroke="midnightblue" points="361.662,-87.2405 370.569,-81.5034 360.029,-80.4338 361.662,-87.2405"/>
</g>
<!-- Node10 -->
<g id="node11" class="node"><title>Node10</title>
<g id="a_node11"><a xlink:href="api_2spec_2std__types_8h.html" target="_top" xlink:title="Standard C language types and definitions for ODP. ">
<polygon fill="white" stroke="black" points="203,-62.5 203,-81.5 329,-81.5 329,-62.5 203,-62.5"/>
<text text-anchor="middle" x="266" y="-69.5" font-family="Helvetica,sans-Serif" font-size="10.00">odp/api/spec/std_types.h</text>
</a>
</g>
</g>
<!-- Node8&#45;&gt;Node10 -->
<g id="edge13" class="edge"><title>Node8&#45;&gt;Node10</title>
<path fill="none" stroke="midnightblue" d="M171.76,-124.403C189.976,-114.468 220.173,-97.9966 241.468,-86.3812"/>
<polygon fill="midnightblue" stroke="midnightblue" points="243.166,-89.4418 250.269,-81.5806 239.814,-83.2965 243.166,-89.4418"/>
</g>
<!-- Node10&#45;&gt;Node1 -->
<g id="edge14" class="edge"><title>Node10&#45;&gt;Node1</title>
<path fill="none" stroke="midnightblue" d="M301.337,-62.4926C312.951,-60.0042 325.968,-57.5412 338,-56 502.106,-34.9786 1005.65,-18.2646 1184.31,-12.855"/>
<polygon fill="midnightblue" stroke="midnightblue" points="1184.45,-16.3524 1194.34,-12.5528 1184.24,-9.35555 1184.45,-16.3524"/>
</g>
<!-- Node10&#45;&gt;Node4 -->
<g id="edge16" class="edge"><title>Node10&#45;&gt;Node4</title>
<path fill="none" stroke="midnightblue" d="M302.474,-62.4987C313.807,-60.1011 326.375,-57.6888 338,-56 511.088,-30.8543 717.583,-18.4979 817.668,-13.6172"/>
<polygon fill="midnightblue" stroke="midnightblue" points="818.067,-17.1022 827.888,-13.1269 817.732,-10.1103 818.067,-17.1022"/>
</g>
<!-- Node11 -->
<g id="node12" class="node"><title>Node11</title>
<polygon fill="white" stroke="#bfbfbf" points="241.5,-0.5 241.5,-19.5 290.5,-19.5 290.5,-0.5 241.5,-0.5"/>
<text text-anchor="middle" x="266" y="-7.5" font-family="Helvetica,sans-Serif" font-size="10.00">stdint.h</text>
</g>
<!-- Node10&#45;&gt;Node11 -->
<g id="edge15" class="edge"><title>Node10&#45;&gt;Node11</title>
<path fill="none" stroke="midnightblue" d="M266,-62.4035C266,-53.9381 266,-40.7283 266,-29.8199"/>
<polygon fill="midnightblue" stroke="midnightblue" points="269.5,-29.5806 266,-19.5806 262.5,-29.5806 269.5,-29.5806"/>
</g>
<!-- Node16&#45;&gt;Node1 -->
<g id="edge22" class="edge"><title>Node16&#45;&gt;Node1</title>
<path fill="none" stroke="midnightblue" d="M987.088,-488.504C1131.87,-475.181 1512,-429.836 1512,-321 1512,-321 1512,-321 1512,-133 1512,-95.7673 1507.97,-79.387 1479,-56 1453.76,-35.621 1370.93,-23.2085 1311.69,-16.7211"/>
<polygon fill="midnightblue" stroke="midnightblue" points="1311.97,-13.2317 1301.65,-15.6543 1311.23,-20.1924 1311.97,-13.2317"/>
</g>
<!-- Node16&#45;&gt;Node4 -->
<g id="edge57" class="edge"><title>Node16&#45;&gt;Node4</title>
<path fill="none" stroke="midnightblue" d="M931.017,-484.223C924.64,-427.309 889.134,-110.379 880.094,-29.6923"/>
<polygon fill="midnightblue" stroke="midnightblue" points="883.551,-29.1091 878.959,-19.5609 876.594,-29.8885 883.551,-29.1091"/>
</g>
<!-- Node17 -->
<g id="node18" class="node"><title>Node17</title>
<g id="a_node18"><a xlink:href="api_2event_8h.html" target="_top" xlink:title="ODP event. ">
<polygon fill="white" stroke="black" points="808.5,-428.5 808.5,-447.5 891.5,-447.5 891.5,-428.5 808.5,-428.5"/>
<text text-anchor="middle" x="850" y="-435.5" font-family="Helvetica,sans-Serif" font-size="10.00">odp/api/event.h</text>
</a>
</g>
</g>
<!-- Node16&#45;&gt;Node17 -->
<g id="edge23" class="edge"><title>Node16&#45;&gt;Node17</title>
<path fill="none" stroke="midnightblue" d="M918.825,-484.324C906.153,-475.979 886.767,-463.212 871.794,-453.352"/>
<polygon fill="midnightblue" stroke="midnightblue" points="873.419,-450.231 863.142,-447.655 869.569,-456.078 873.419,-450.231"/>
</g>
<!-- Node26 -->
<g id="node27" class="node"><title>Node26</title>
<g id="a_node27"><a xlink:href="queue__types_8h.html" target="_top" xlink:title="ODP queue types. ">
<polygon fill="white" stroke="black" points="1099.5,-305 1099.5,-335 1200.5,-335 1200.5,-305 1099.5,-305"/>
<text text-anchor="start" x="1107.5" y="-323" font-family="Helvetica,sans-Serif" font-size="10.00">odp/api/spec/queue</text>
<text text-anchor="middle" x="1150" y="-312" font-family="Helvetica,sans-Serif" font-size="10.00">_types.h</text>
</a>
</g>
</g>
<!-- Node16&#45;&gt;Node26 -->
<g id="edge44" class="edge"><title>Node16&#45;&gt;Node26</title>
<path fill="none" stroke="midnightblue" d="M942.811,-484.47C975.878,-458.381 1076.31,-379.137 1124.15,-341.399"/>
<polygon fill="midnightblue" stroke="midnightblue" points="1126.48,-344.013 1132.17,-335.071 1122.15,-338.517 1126.48,-344.013"/>
</g>
<!-- Node17&#45;&gt;Node12 -->
<g id="edge24" class="edge"><title>Node17&#45;&gt;Node12</title>
<path fill="none" stroke="midnightblue" d="M829.153,-428.427C814.422,-421.129 795.795,-409.091 787,-392 767.484,-354.076 787.784,-302.951 801.196,-276.494"/>
<polygon fill="midnightblue" stroke="midnightblue" points="804.299,-278.113 805.901,-267.64 798.118,-274.828 804.299,-278.113"/>
</g>
<!-- Node18 -->
<g id="node19" class="node"><title>Node18</title>
<g id="a_node19"><a xlink:href="api_2spec_2event_8h.html" target="_top" xlink:title="ODP event. ">
<polygon fill="white" stroke="black" points="796.5,-372.5 796.5,-391.5 903.5,-391.5 903.5,-372.5 796.5,-372.5"/>
<text text-anchor="middle" x="850" y="-379.5" font-family="Helvetica,sans-Serif" font-size="10.00">odp/api/spec/event.h</text>
</a>
</g>
</g>
<!-- Node17&#45;&gt;Node18 -->
<g id="edge25" class="edge"><title>Node17&#45;&gt;Node18</title>
<path fill="none" stroke="midnightblue" d="M850,-428.083C850,-421.006 850,-410.861 850,-401.986"/>
<polygon fill="midnightblue" stroke="midnightblue" points="853.5,-401.751 850,-391.751 846.5,-401.751 853.5,-401.751"/>
</g>
<!-- Node18&#45;&gt;Node1 -->
<g id="edge26" class="edge"><title>Node18&#45;&gt;Node1</title>
<path fill="none" stroke="midnightblue" d="M903.614,-379.268C1036.45,-373.723 1374.92,-351.514 1442,-268 1501.1,-194.423 1513.18,-129.508 1454,-56 1436.34,-34.0678 1365.52,-22.2448 1311.8,-16.3013"/>
<polygon fill="midnightblue" stroke="midnightblue" points="1311.96,-12.7987 1301.65,-15.2243 1311.22,-19.7596 1311.96,-12.7987"/>
</g>
<!-- Node18&#45;&gt;Node4 -->
<g id="edge43" class="edge"><title>Node18&#45;&gt;Node4</title>
<path fill="none" stroke="midnightblue" d="M851.979,-372.272C856.149,-353.383 865.723,-307.252 869,-268 876.841,-174.078 849.84,-149.179 864,-56 865.368,-47.001 868.19,-37.3251 870.945,-29.2601"/>
<polygon fill="midnightblue" stroke="midnightblue" points="874.265,-30.3722 874.4,-19.7782 867.688,-27.9759 874.265,-30.3722"/>
</g>
<!-- Node18&#45;&gt;Node19 -->
<g id="edge27" class="edge"><title>Node18&#45;&gt;Node19</title>
<path fill="none" stroke="midnightblue" d="M796.317,-372.846C721.273,-361.446 585.722,-340.856 509.984,-329.352"/>
<polygon fill="midnightblue" stroke="midnightblue" points="510.119,-325.832 499.707,-327.791 509.068,-332.753 510.119,-325.832"/>
</g>
<!-- Node19&#45;&gt;Node8 -->
<g id="edge28" class="edge"><title>Node19&#45;&gt;Node8</title>
<path fill="none" stroke="midnightblue" d="M410.368,-318.761C330.494,-317.283 168.15,-309.156 133,-268 104.82,-235.006 129.439,-180.159 145.22,-152.334"/>
<polygon fill="midnightblue" stroke="midnightblue" points="148.249,-154.087 150.332,-143.699 142.226,-150.521 148.249,-154.087"/>
</g>
<!-- Node19&#45;&gt;Node12 -->
<g id="edge29" class="edge"><title>Node19&#45;&gt;Node12</title>
<path fill="none" stroke="midnightblue" d="M499.727,-311.462C563.36,-300.737 680.16,-281.052 751.178,-269.082"/>
<polygon fill="midnightblue" stroke="midnightblue" points="752.033,-272.488 761.312,-267.374 750.869,-265.585 752.033,-272.488"/>
</g>
<!-- Node19&#45;&gt;Node14 -->
<g id="edge32" class="edge"><title>Node19&#45;&gt;Node14</title>
<path fill="none" stroke="midnightblue" d="M473.196,-310.403C494.509,-300.334 530.031,-283.552 554.663,-271.915"/>
<polygon fill="midnightblue" stroke="midnightblue" points="556.291,-275.017 563.838,-267.581 553.301,-268.688 556.291,-275.017"/>
</g>
<!-- Node19&#45;&gt;Node15 -->
<g id="edge33" class="edge"><title>Node19&#45;&gt;Node15</title>
<path fill="none" stroke="midnightblue" d="M489.416,-310.467C532.33,-299.827 605.76,-281.622 652.798,-269.959"/>
<polygon fill="midnightblue" stroke="midnightblue" points="653.839,-273.307 662.703,-267.503 652.155,-266.513 653.839,-273.307"/>
</g>
<!-- Node20 -->
<g id="node21" class="node"><title>Node20</title>
<polygon fill="white" stroke="#bfbfbf" points="396.5,-248.5 396.5,-267.5 513.5,-267.5 513.5,-248.5 396.5,-248.5"/>
<text text-anchor="middle" x="455" y="-255.5" font-family="Helvetica,sans-Serif" font-size="10.00">odp/api/abi/packet_io.h</text>
</g>
<!-- Node19&#45;&gt;Node20 -->
<g id="edge30" class="edge"><title>Node19&#45;&gt;Node20</title>
<path fill="none" stroke="midnightblue" d="M455,-310.403C455,-301.938 455,-288.728 455,-277.82"/>
<polygon fill="midnightblue" stroke="midnightblue" points="458.5,-277.581 455,-267.581 451.5,-277.581 458.5,-277.581"/>
</g>
<!-- Node21 -->
<g id="node22" class="node"><title>Node21</title>
<polygon fill="white" stroke="#bfbfbf" points="274,-248.5 274,-267.5 378,-267.5 378,-248.5 274,-248.5"/>
<text text-anchor="middle" x="326" y="-255.5" font-family="Helvetica,sans-Serif" font-size="10.00">odp/api/abi/packet.h</text>
</g>
<!-- Node19&#45;&gt;Node21 -->
<g id="edge31" class="edge"><title>Node19&#45;&gt;Node21</title>
<path fill="none" stroke="midnightblue" d="M436.517,-310.403C414.868,-300.334 378.787,-283.552 353.768,-271.915"/>
<polygon fill="midnightblue" stroke="midnightblue" points="354.992,-268.624 344.448,-267.581 352.039,-274.971 354.992,-268.624"/>
</g>
<!-- Node22 -->
<g id="node23" class="node"><title>Node22</title>
<g id="a_node23"><a xlink:href="api_2spec_2packet_8h.html" target="_top" xlink:title="ODP packet descriptor. ">
<polygon fill="white" stroke="black" points="142.5,-248.5 142.5,-267.5 255.5,-267.5 255.5,-248.5 142.5,-248.5"/>
<text text-anchor="middle" x="199" y="-255.5" font-family="Helvetica,sans-Serif" font-size="10.00">odp/api/spec/packet.h</text>
</a>
</g>
</g>
<!-- Node19&#45;&gt;Node22 -->
<g id="edge34" class="edge"><title>Node19&#45;&gt;Node22</title>
<path fill="none" stroke="midnightblue" d="M418.593,-310.467C373.006,-299.783 294.867,-281.469 245.135,-269.813"/>
<polygon fill="midnightblue" stroke="midnightblue" points="245.816,-266.378 235.281,-267.503 244.219,-273.193 245.816,-266.378"/>
</g>
<!-- Node22&#45;&gt;Node1 -->
<g id="edge35" class="edge"><title>Node22&#45;&gt;Node1</title>
<path fill="none" stroke="midnightblue" d="M254.825,-248.477C320.899,-238.234 426.892,-221.27 466,-212 695.403,-157.625 743.468,-109.828 973,-56 1044.61,-39.2067 1128.16,-26.4883 1184.21,-18.9279"/>
<polygon fill="midnightblue" stroke="midnightblue" points="1184.89,-22.3674 1194.34,-17.5764 1183.97,-15.4288 1184.89,-22.3674"/>
</g>
<!-- Node22&#45;&gt;Node4 -->
<g id="edge42" class="edge"><title>Node22&#45;&gt;Node4</title>
<path fill="none" stroke="midnightblue" d="M243.248,-248.444C338.527,-228.931 568.659,-175.91 744,-88 765.616,-77.1625 767.338,-68.5608 788,-56 807.774,-43.9789 831.182,-32.3494 849.169,-23.9249"/>
<polygon fill="midnightblue" stroke="midnightblue" points="850.936,-26.9639 858.546,-19.5923 848,-20.6094 850.936,-26.9639"/>
</g>
<!-- Node22&#45;&gt;Node23 -->
<g id="edge36" class="edge"><title>Node22&#45;&gt;Node23</title>
<path fill="none" stroke="midnightblue" d="M199,-248.403C199,-239.938 199,-226.728 199,-215.82"/>
<polygon fill="midnightblue" stroke="midnightblue" points="202.5,-215.581 199,-205.581 195.5,-215.581 202.5,-215.581"/>
</g>
<!-- Node23&#45;&gt;Node8 -->
<g id="edge37" class="edge"><title>Node23&#45;&gt;Node8</title>
<path fill="none" stroke="midnightblue" d="M192.839,-186.403C186.389,-177.403 176.096,-163.041 168.027,-151.782"/>
<polygon fill="midnightblue" stroke="midnightblue" points="170.82,-149.67 162.149,-143.581 165.13,-153.748 170.82,-149.67"/>
</g>
<!-- Node24 -->
<g id="node25" class="node"><title>Node24</title>
<polygon fill="white" stroke="#bfbfbf" points="225,-124.5 225,-143.5 319,-143.5 319,-124.5 225,-124.5"/>
<text text-anchor="middle" x="272" y="-131.5" font-family="Helvetica,sans-Serif" font-size="10.00">odp/api/abi/time.h</text>
</g>
<!-- Node23&#45;&gt;Node24 -->
<g id="edge38" class="edge"><title>Node23&#45;&gt;Node24</title>
<path fill="none" stroke="midnightblue" d="M209.459,-186.403C220.951,-176.958 239.63,-161.606 253.587,-150.134"/>
<polygon fill="midnightblue" stroke="midnightblue" points="256.057,-152.634 261.56,-143.581 251.612,-147.226 256.057,-152.634"/>
</g>
<!-- Node25 -->
<g id="node26" class="node"><title>Node25</title>
<g id="a_node26"><a xlink:href="api_2spec_2time_8h.html" target="_top" xlink:title="ODP time. ">
<polygon fill="white" stroke="black" points="634,-62.5 634,-81.5 736,-81.5 736,-62.5 634,-62.5"/>
<text text-anchor="middle" x="685" y="-69.5" font-family="Helvetica,sans-Serif" font-size="10.00">odp/api/spec/time.h</text>
</a>
</g>
</g>
<!-- Node23&#45;&gt;Node25 -->
<g id="edge39" class="edge"><title>Node23&#45;&gt;Node25</title>
<path fill="none" stroke="midnightblue" d="M233.175,-186.421C319.271,-164.808 545.034,-108.135 640.913,-84.0671"/>
<polygon fill="midnightblue" stroke="midnightblue" points="642.016,-87.3988 650.863,-81.5693 640.312,-80.6095 642.016,-87.3988"/>
</g>
<!-- Node25&#45;&gt;Node1 -->
<g id="edge40" class="edge"><title>Node25&#45;&gt;Node1</title>
<path fill="none" stroke="midnightblue" d="M736.455,-65.5163C839.643,-54.5194 1071.59,-29.8009 1184.22,-17.7976"/>
<polygon fill="midnightblue" stroke="midnightblue" points="1184.83,-21.2516 1194.41,-16.7115 1184.09,-14.291 1184.83,-21.2516"/>
</g>
<!-- Node25&#45;&gt;Node4 -->
<g id="edge41" class="edge"><title>Node25&#45;&gt;Node4</title>
<path fill="none" stroke="midnightblue" d="M712.652,-62.4035C746.332,-51.9331 803.357,-34.2049 840.847,-22.5501"/>
<polygon fill="midnightblue" stroke="midnightblue" points="841.889,-25.8915 850.399,-19.5806 839.811,-19.2071 841.889,-25.8915"/>
</g>
<!-- Node26&#45;&gt;Node1 -->
<g id="edge45" class="edge"><title>Node26&#45;&gt;Node1</title>
<path fill="none" stroke="midnightblue" d="M1179.7,-304.927C1211.29,-288.004 1259.14,-256.247 1277,-212 1302.7,-148.319 1272.51,-65.1871 1256.59,-29.0647"/>
<polygon fill="midnightblue" stroke="midnightblue" points="1259.7,-27.4486 1252.37,-19.8057 1253.34,-30.356 1259.7,-27.4486"/>
</g>
<!-- Node26&#45;&gt;Node2 -->
<g id="edge55" class="edge"><title>Node26&#45;&gt;Node2</title>
<path fill="none" stroke="midnightblue" d="M1200.76,-305.758C1241.68,-295.082 1298.59,-280.237 1337.22,-270.159"/>
<polygon fill="midnightblue" stroke="midnightblue" points="1338.33,-273.488 1347.12,-267.577 1336.56,-266.715 1338.33,-273.488"/>
</g>
<!-- Node26&#45;&gt;Node4 -->
<g id="edge56" class="edge"><title>Node26&#45;&gt;Node4</title>
<path fill="none" stroke="midnightblue" d="M1127.5,-304.839C1112.65,-295.124 1093.05,-281.579 1077,-268 988.48,-193.121 913.866,-72.8918 887.855,-28.3392"/>
<polygon fill="midnightblue" stroke="midnightblue" points="890.832,-26.4943 882.803,-19.5815 884.768,-29.9924 890.832,-26.4943"/>
</g>
<!-- Node27 -->
<g id="node28" class="node"><title>Node27</title>
<g id="a_node28"><a xlink:href="api_2schedule__types_8h.html" target="_top" xlink:title="ODP schedule. ">
<polygon fill="white" stroke="black" points="1086,-248.5 1086,-267.5 1214,-267.5 1214,-248.5 1086,-248.5"/>
<text text-anchor="middle" x="1150" y="-255.5" font-family="Helvetica,sans-Serif" font-size="10.00">odp/api/schedule_types.h</text>
</a>
</g>
</g>
<!-- Node26&#45;&gt;Node27 -->
<g id="edge46" class="edge"><title>Node26&#45;&gt;Node27</title>
<path fill="none" stroke="midnightblue" d="M1150,-304.781C1150,-296.781 1150,-286.689 1150,-278.017"/>
<polygon fill="midnightblue" stroke="midnightblue" points="1153.5,-277.73 1150,-267.731 1146.5,-277.731 1153.5,-277.73"/>
</g>
<!-- Node28 -->
<g id="node29" class="node"><title>Node28</title>
<polygon fill="white" stroke="#bfbfbf" points="1163,-181 1163,-211 1269,-211 1269,-181 1163,-181"/>
<text text-anchor="start" x="1171" y="-199" font-family="Helvetica,sans-Serif" font-size="10.00">odp/api/abi/schedule</text>
<text text-anchor="middle" x="1216" y="-188" font-family="Helvetica,sans-Serif" font-size="10.00">_types.h</text>
</g>
<!-- Node27&#45;&gt;Node28 -->
<g id="edge47" class="edge"><title>Node27&#45;&gt;Node28</title>
<path fill="none" stroke="midnightblue" d="M1159.46,-248.403C1168.14,-240.505 1181.38,-228.477 1192.86,-218.041"/>
<polygon fill="midnightblue" stroke="midnightblue" points="1195.4,-220.457 1200.45,-211.141 1190.69,-215.278 1195.4,-220.457"/>
</g>
<!-- Node29 -->
<g id="node30" class="node"><title>Node29</title>
<g id="a_node30"><a xlink:href="api_2spec_2schedule__types_8h.html" target="_top" xlink:title="ODP schedule types. ">
<polygon fill="white" stroke="black" points="1031,-181 1031,-211 1145,-211 1145,-181 1031,-181"/>
<text text-anchor="start" x="1039" y="-199" font-family="Helvetica,sans-Serif" font-size="10.00">odp/api/spec/schedule</text>
<text text-anchor="middle" x="1088" y="-188" font-family="Helvetica,sans-Serif" font-size="10.00">_types.h</text>
</a>
</g>
</g>
<!-- Node27&#45;&gt;Node29 -->
<g id="edge48" class="edge"><title>Node27&#45;&gt;Node29</title>
<path fill="none" stroke="midnightblue" d="M1141.12,-248.403C1133.03,-240.581 1120.76,-228.708 1110.05,-218.342"/>
<polygon fill="midnightblue" stroke="midnightblue" points="1112.23,-215.58 1102.61,-211.141 1107.36,-220.61 1112.23,-215.58"/>
</g>
<!-- Node29&#45;&gt;Node1 -->
<g id="edge49" class="edge"><title>Node29&#45;&gt;Node1</title>
<path fill="none" stroke="midnightblue" d="M1120.4,-180.923C1139.16,-171.899 1162.64,-159.067 1181,-144 1206.12,-123.39 1213.11,-116.878 1228,-88 1237.58,-69.4301 1242.82,-45.9183 1245.51,-29.7902"/>
<polygon fill="midnightblue" stroke="midnightblue" points="1249.02,-29.9344 1247.04,-19.5276 1242.1,-28.9024 1249.02,-29.9344"/>
</g>
<!-- Node29&#45;&gt;Node4 -->
<g id="edge54" class="edge"><title>Node29&#45;&gt;Node4</title>
<path fill="none" stroke="midnightblue" d="M1071.89,-180.749C1043.35,-155.526 982.029,-101.398 930,-56 918.615,-46.0658 905.777,-34.9555 895.706,-26.2601"/>
<polygon fill="midnightblue" stroke="midnightblue" points="897.848,-23.4851 887.99,-19.6027 893.275,-28.7852 897.848,-23.4851"/>
</g>
<!-- Node30 -->
<g id="node31" class="node"><title>Node30</title>
<g id="a_node31"><a xlink:href="support_8h.html" target="_top" xlink:title="ODP support API &#45; platform specific header. ">
<polygon fill="white" stroke="black" points="1080,-124.5 1080,-143.5 1172,-143.5 1172,-124.5 1080,-124.5"/>
<text text-anchor="middle" x="1126" y="-131.5" font-family="Helvetica,sans-Serif" font-size="10.00">odp/api/support.h</text>
</a>
</g>
</g>
<!-- Node29&#45;&gt;Node30 -->
<g id="edge50" class="edge"><title>Node29&#45;&gt;Node30</title>
<path fill="none" stroke="midnightblue" d="M1097.01,-180.781C1102.41,-172.242 1109.33,-161.318 1115.05,-152.283"/>
<polygon fill="midnightblue" stroke="midnightblue" points="1118.08,-154.051 1120.47,-143.731 1112.16,-150.306 1118.08,-154.051"/>
</g>
<!-- Node31 -->
<g id="node32" class="node"><title>Node31</title>
<g id="a_node32"><a xlink:href="spec_2support_8h.html" target="_top" xlink:title="ODP support API. ">
<polygon fill="white" stroke="black" points="1104,-62.5 1104,-81.5 1220,-81.5 1220,-62.5 1104,-62.5"/>
<text text-anchor="middle" x="1162" y="-69.5" font-family="Helvetica,sans-Serif" font-size="10.00">odp/api/spec/support.h</text>
</a>
</g>
</g>
<!-- Node30&#45;&gt;Node31 -->
<g id="edge51" class="edge"><title>Node30&#45;&gt;Node31</title>
<path fill="none" stroke="midnightblue" d="M1131.16,-124.403C1136.45,-115.582 1144.84,-101.608 1151.53,-90.4548"/>
<polygon fill="midnightblue" stroke="midnightblue" points="1154.71,-91.9563 1156.85,-81.5806 1148.71,-88.3548 1154.71,-91.9563"/>
</g>
<!-- Node31&#45;&gt;Node1 -->
<g id="edge52" class="edge"><title>Node31&#45;&gt;Node1</title>
<path fill="none" stroke="midnightblue" d="M1174.32,-62.4035C1188.12,-52.7797 1210.7,-37.0242 1227.23,-25.4891"/>
<polygon fill="midnightblue" stroke="midnightblue" points="1229.5,-28.1729 1235.7,-19.5806 1225.5,-22.432 1229.5,-28.1729"/>
</g>
<!-- Node31&#45;&gt;Node4 -->
<g id="edge53" class="edge"><title>Node31&#45;&gt;Node4</title>
<path fill="none" stroke="midnightblue" d="M1124.46,-62.4863C1114.86,-60.3395 1104.55,-58.0601 1095,-56 1038.65,-43.8498 973.927,-30.5075 929.936,-21.5305"/>
<polygon fill="midnightblue" stroke="midnightblue" points="930.545,-18.0827 920.047,-19.5148 929.146,-24.9417 930.545,-18.0827"/>
</g>
</g>
</svg>
