<?xml version="1.0" encoding="UTF-8" standalone="no"?>
<!DOCTYPE svg PUBLIC "-//W3C//DTD SVG 1.1//EN"
 "http://www.w3.org/Graphics/SVG/1.1/DTD/svg11.dtd">
<!-- Generated by graphviz version 2.36.0 (20140111.2315)
 -->
<!-- Title: barrier.h Pages: 1 -->
<svg width="734pt" height="208pt"
 viewBox="0.00 0.00 734.00 208.00" xmlns="http://www.w3.org/2000/svg" xmlns:xlink="http://www.w3.org/1999/xlink">
<g id="graph0" class="graph" transform="scale(1 1) rotate(0) translate(4 204)">
<title>barrier.h</title>
<polygon fill="white" stroke="none" points="-4,4 -4,-204 730,-204 730,4 -4,4"/>
<!-- Node0 -->
<g id="node1" class="node"><title>Node0</title>
<polygon fill="#bfbfbf" stroke="black" points="421,-180.5 421,-199.5 473,-199.5 473,-180.5 421,-180.5"/>
<text text-anchor="middle" x="447" y="-187.5" font-family="Helvetica,sans-Serif" font-size="10.00">barrier.h</text>
</g>
<!-- Node1 -->
<g id="node2" class="node"><title>Node1</title>
<g id="a_node2"><a xlink:href="api_2std__types_8h.html" target="_top" xlink:title="Standard C language types and definitions for ODP. ">
<polygon fill="white" stroke="black" points="152,-118.5 152,-137.5 254,-137.5 254,-118.5 152,-118.5"/>
<text text-anchor="middle" x="203" y="-125.5" font-family="Helvetica,sans-Serif" font-size="10.00">odp/api/std_types.h</text>
</a>
</g>
</g>
<!-- Node0&#45;&gt;Node1 -->
<g id="edge1" class="edge"><title>Node0&#45;&gt;Node1</title>
<path fill="none" stroke="midnightblue" d="M420.888,-182.579C379.511,-172.404 298.381,-152.454 247.641,-139.977"/>
<polygon fill="midnightblue" stroke="midnightblue" points="248.465,-136.576 237.919,-137.587 246.794,-143.373 248.465,-136.576"/>
</g>
<!-- Node7 -->
<g id="node8" class="node"><title>Node7</title>
<g id="a_node8"><a xlink:href="api_2atomic_8h.html" target="_top" xlink:title="ODP atomic operations. ">
<polygon fill="white" stroke="black" points="402.5,-118.5 402.5,-137.5 491.5,-137.5 491.5,-118.5 402.5,-118.5"/>
<text text-anchor="middle" x="447" y="-125.5" font-family="Helvetica,sans-Serif" font-size="10.00">odp/api/atomic.h</text>
</a>
</g>
</g>
<!-- Node0&#45;&gt;Node7 -->
<g id="edge7" class="edge"><title>Node0&#45;&gt;Node7</title>
<path fill="none" stroke="midnightblue" d="M447,-180.403C447,-171.938 447,-158.728 447,-147.82"/>
<polygon fill="midnightblue" stroke="midnightblue" points="450.5,-147.581 447,-137.581 443.5,-147.581 450.5,-147.581"/>
</g>
<!-- Node10 -->
<g id="node11" class="node"><title>Node10</title>
<polygon fill="white" stroke="#bfbfbf" points="510,-113 510,-143 606,-143 606,-113 510,-113"/>
<text text-anchor="start" x="518" y="-131" font-family="Helvetica,sans-Serif" font-size="10.00">odp/api/abi/shared</text>
<text text-anchor="middle" x="558" y="-120" font-family="Helvetica,sans-Serif" font-size="10.00">_memory.h</text>
</g>
<!-- Node0&#45;&gt;Node10 -->
<g id="edge12" class="edge"><title>Node0&#45;&gt;Node10</title>
<path fill="none" stroke="midnightblue" d="M462.904,-180.403C478.499,-171.974 502.798,-158.839 522.929,-147.957"/>
<polygon fill="midnightblue" stroke="midnightblue" points="524.707,-150.975 531.839,-143.141 521.378,-144.817 524.707,-150.975"/>
</g>
<!-- Node11 -->
<g id="node12" class="node"><title>Node11</title>
<polygon fill="white" stroke="#bfbfbf" points="624,-118.5 624,-137.5 726,-137.5 726,-118.5 624,-118.5"/>
<text text-anchor="middle" x="675" y="-125.5" font-family="Helvetica,sans-Serif" font-size="10.00">odp/api/abi/barrier.h</text>
</g>
<!-- Node0&#45;&gt;Node11 -->
<g id="edge13" class="edge"><title>Node0&#45;&gt;Node11</title>
<path fill="none" stroke="midnightblue" d="M473.154,-182.117C512.167,-171.851 586.005,-152.42 632.742,-140.121"/>
<polygon fill="midnightblue" stroke="midnightblue" points="633.788,-143.465 642.568,-137.535 632.006,-136.695 633.788,-143.465"/>
</g>
<!-- Node12 -->
<g id="node13" class="node"><title>Node12</title>
<g id="a_node13"><a xlink:href="api_2spec_2barrier_8h.html" target="_top" xlink:title="ODP execution barriers. ">
<polygon fill="white" stroke="black" points="280,-56.5 280,-75.5 390,-75.5 390,-56.5 280,-56.5"/>
<text text-anchor="middle" x="335" y="-63.5" font-family="Helvetica,sans-Serif" font-size="10.00">odp/api/spec/barrier.h</text>
</a>
</g>
</g>
<!-- Node0&#45;&gt;Node12 -->
<g id="edge14" class="edge"><title>Node0&#45;&gt;Node12</title>
<path fill="none" stroke="midnightblue" d="M435.163,-180.405C423.749,-171.833 406.295,-157.965 393,-144 374.864,-124.95 357.137,-100.271 346.152,-84.0532"/>
<polygon fill="midnightblue" stroke="midnightblue" points="348.969,-81.969 340.511,-75.5887 343.144,-85.8511 348.969,-81.969"/>
</g>
<!-- Node2 -->
<g id="node3" class="node"><title>Node2</title>
<polygon fill="white" stroke="#bfbfbf" points="144,-56.5 144,-75.5 262,-75.5 262,-56.5 144,-56.5"/>
<text text-anchor="middle" x="203" y="-63.5" font-family="Helvetica,sans-Serif" font-size="10.00">odp/api/abi/std_types.h</text>
</g>
<!-- Node1&#45;&gt;Node2 -->
<g id="edge2" class="edge"><title>Node1&#45;&gt;Node2</title>
<path fill="none" stroke="midnightblue" d="M203,-118.403C203,-109.938 203,-96.7283 203,-85.8199"/>
<polygon fill="midnightblue" stroke="midnightblue" points="206.5,-85.5806 203,-75.5806 199.5,-85.5806 206.5,-85.5806"/>
</g>
<!-- Node3 -->
<g id="node4" class="node"><title>Node3</title>
<g id="a_node4"><a xlink:href="api_2spec_2std__types_8h.html" target="_top" xlink:title="Standard C language types and definitions for ODP. ">
<polygon fill="white" stroke="black" points="0,-56.5 0,-75.5 126,-75.5 126,-56.5 0,-56.5"/>
<text text-anchor="middle" x="63" y="-63.5" font-family="Helvetica,sans-Serif" font-size="10.00">odp/api/spec/std_types.h</text>
</a>
</g>
</g>
<!-- Node1&#45;&gt;Node3 -->
<g id="edge3" class="edge"><title>Node1&#45;&gt;Node3</title>
<path fill="none" stroke="midnightblue" d="M182.941,-118.403C159.238,-108.245 119.594,-91.2547 92.4172,-79.6074"/>
<polygon fill="midnightblue" stroke="midnightblue" points="93.5916,-76.3028 83.0214,-75.5806 90.8341,-82.7369 93.5916,-76.3028"/>
</g>
<!-- Node4 -->
<g id="node5" class="node"><title>Node4</title>
<g id="a_node5"><a xlink:href="visibility__begin_8h_source.html" target="_top" xlink:title="odp/visibility_begin.h">
<polygon fill="white" stroke="black" points="342.5,-0.5 342.5,-19.5 449.5,-19.5 449.5,-0.5 342.5,-0.5"/>
<text text-anchor="middle" x="396" y="-7.5" font-family="Helvetica,sans-Serif" font-size="10.00">odp/visibility_begin.h</text>
</a>
</g>
</g>
<!-- Node3&#45;&gt;Node4 -->
<g id="edge4" class="edge"><title>Node3&#45;&gt;Node4</title>
<path fill="none" stroke="midnightblue" d="M115.765,-56.4435C174.83,-46.8654 270.474,-31.3556 333.306,-21.1667"/>
<polygon fill="midnightblue" stroke="midnightblue" points="334.171,-24.5721 343.482,-19.5164 333.051,-17.6624 334.171,-24.5721"/>
</g>
<!-- Node5 -->
<g id="node6" class="node"><title>Node5</title>
<polygon fill="white" stroke="#bfbfbf" points="38.5,-0.5 38.5,-19.5 87.5,-19.5 87.5,-0.5 38.5,-0.5"/>
<text text-anchor="middle" x="63" y="-7.5" font-family="Helvetica,sans-Serif" font-size="10.00">stdint.h</text>
</g>
<!-- Node3&#45;&gt;Node5 -->
<g id="edge5" class="edge"><title>Node3&#45;&gt;Node5</title>
<path fill="none" stroke="midnightblue" d="M63,-56.083C63,-49.0059 63,-38.8611 63,-29.9865"/>
<polygon fill="midnightblue" stroke="midnightblue" points="66.5001,-29.751 63,-19.7511 59.5001,-29.7511 66.5001,-29.751"/>
</g>
<!-- Node6 -->
<g id="node7" class="node"><title>Node6</title>
<g id="a_node7"><a xlink:href="visibility__end_8h_source.html" target="_top" xlink:title="odp/visibility_end.h">
<polygon fill="white" stroke="black" points="224,-0.5 224,-19.5 324,-19.5 324,-0.5 224,-0.5"/>
<text text-anchor="middle" x="274" y="-7.5" font-family="Helvetica,sans-Serif" font-size="10.00">odp/visibility_end.h</text>
</a>
</g>
</g>
<!-- Node3&#45;&gt;Node6 -->
<g id="edge6" class="edge"><title>Node3&#45;&gt;Node6</title>
<path fill="none" stroke="midnightblue" d="M96.4336,-56.4435C132.856,-47.1221 191.23,-32.1828 231.029,-21.9972"/>
<polygon fill="midnightblue" stroke="midnightblue" points="231.903,-25.3866 240.723,-19.5164 230.167,-18.6051 231.903,-25.3866"/>
</g>
<!-- Node8 -->
<g id="node9" class="node"><title>Node8</title>
<polygon fill="white" stroke="#bfbfbf" points="408,-56.5 408,-75.5 512,-75.5 512,-56.5 408,-56.5"/>
<text text-anchor="middle" x="460" y="-63.5" font-family="Helvetica,sans-Serif" font-size="10.00">odp/api/abi/atomic.h</text>
</g>
<!-- Node7&#45;&gt;Node8 -->
<g id="edge8" class="edge"><title>Node7&#45;&gt;Node8</title>
<path fill="none" stroke="midnightblue" d="M448.863,-118.403C450.716,-109.849 453.619,-96.4497 455.997,-85.4762"/>
<polygon fill="midnightblue" stroke="midnightblue" points="459.444,-86.095 458.141,-75.5806 452.603,-84.6127 459.444,-86.095"/>
</g>
<!-- Node9 -->
<g id="node10" class="node"><title>Node9</title>
<g id="a_node10"><a xlink:href="api_2spec_2atomic_8h.html" target="_top" xlink:title="ODP atomic operations. ">
<polygon fill="white" stroke="black" points="530.5,-56.5 530.5,-75.5 643.5,-75.5 643.5,-56.5 530.5,-56.5"/>
<text text-anchor="middle" x="587" y="-63.5" font-family="Helvetica,sans-Serif" font-size="10.00">odp/api/spec/atomic.h</text>
</a>
</g>
</g>
<!-- Node7&#45;&gt;Node9 -->
<g id="edge9" class="edge"><title>Node7&#45;&gt;Node9</title>
<path fill="none" stroke="midnightblue" d="M467.059,-118.403C490.762,-108.245 530.406,-91.2547 557.583,-79.6074"/>
<polygon fill="midnightblue" stroke="midnightblue" points="559.166,-82.7369 566.979,-75.5806 556.408,-76.3028 559.166,-82.7369"/>
</g>
<!-- Node9&#45;&gt;Node4 -->
<g id="edge10" class="edge"><title>Node9&#45;&gt;Node4</title>
<path fill="none" stroke="midnightblue" d="M556.735,-56.4435C524.045,-47.2011 471.818,-32.4356 435.817,-22.2572"/>
<polygon fill="midnightblue" stroke="midnightblue" points="436.698,-18.8691 426.123,-19.5164 434.794,-25.6051 436.698,-18.8691"/>
</g>
<!-- Node9&#45;&gt;Node6 -->
<g id="edge11" class="edge"><title>Node9&#45;&gt;Node6</title>
<path fill="none" stroke="midnightblue" d="M537.404,-56.4435C482.001,-46.8851 392.357,-31.4195 333.295,-21.2298"/>
<polygon fill="midnightblue" stroke="midnightblue" points="333.813,-17.7676 323.364,-19.5164 332.623,-24.6657 333.813,-17.7676"/>
</g>
<!-- Node12&#45;&gt;Node4 -->
<g id="edge15" class="edge"><title>Node12&#45;&gt;Node4</title>
<path fill="none" stroke="midnightblue" d="M344.801,-56.324C353.818,-48.3414 367.406,-36.3128 378.318,-26.6529"/>
<polygon fill="midnightblue" stroke="midnightblue" points="380.853,-29.083 386.021,-19.8339 376.213,-23.8416 380.853,-29.083"/>
</g>
<!-- Node12&#45;&gt;Node6 -->
<g id="edge16" class="edge"><title>Node12&#45;&gt;Node6</title>
<path fill="none" stroke="midnightblue" d="M325.199,-56.324C316.182,-48.3414 302.594,-36.3128 291.682,-26.6529"/>
<polygon fill="midnightblue" stroke="midnightblue" points="293.787,-23.8416 283.979,-19.8339 289.147,-29.083 293.787,-23.8416"/>
</g>
</g>
</svg>
