<?xml version="1.0" encoding="UTF-8" standalone="no"?>
<!DOCTYPE svg PUBLIC "-//W3C//DTD SVG 1.1//EN"
 "http://www.w3.org/Graphics/SVG/1.1/DTD/svg11.dtd">
<!-- Generated by graphviz version 2.36.0 (20140111.2315)
 -->
<!-- Title: version.h Pages: 1 -->
<svg width="301pt" height="140pt"
 viewBox="0.00 0.00 301.00 140.00" xmlns="http://www.w3.org/2000/svg" xmlns:xlink="http://www.w3.org/1999/xlink">
<g id="graph0" class="graph" transform="scale(1 1) rotate(0) translate(4 136)">
<title>version.h</title>
<polygon fill="white" stroke="none" points="-4,4 -4,-136 297,-136 297,4 -4,4"/>
<!-- Node0 -->
<g id="node1" class="node"><title>Node0</title>
<polygon fill="#bfbfbf" stroke="black" points="89,-112.5 89,-131.5 145,-131.5 145,-112.5 89,-112.5"/>
<text text-anchor="middle" x="117" y="-119.5" font-family="Helvetica,sans-Serif" font-size="10.00">version.h</text>
</g>
<!-- Node1 -->
<g id="node2" class="node"><title>Node1</title>
<polygon fill="white" stroke="#bfbfbf" points="-0.5,-56.5 -0.5,-75.5 106.5,-75.5 106.5,-56.5 -0.5,-56.5"/>
<text text-anchor="middle" x="53" y="-63.5" font-family="Helvetica,sans-Serif" font-size="10.00">odp/api/abi/version.h</text>
</g>
<!-- Node0&#45;&gt;Node1 -->
<g id="edge1" class="edge"><title>Node0&#45;&gt;Node1</title>
<path fill="none" stroke="midnightblue" d="M106.717,-112.324C97.1637,-104.263 82.7203,-92.0765 71.2157,-82.3695"/>
<polygon fill="midnightblue" stroke="midnightblue" points="73.3698,-79.6076 63.4698,-75.8339 68.8557,-84.9577 73.3698,-79.6076"/>
</g>
<!-- Node2 -->
<g id="node3" class="node"><title>Node2</title>
<g id="a_node3"><a xlink:href="api_2spec_2version_8h.html" target="_top" xlink:title="ODP version. ">
<polygon fill="white" stroke="black" points="124.5,-56.5 124.5,-75.5 239.5,-75.5 239.5,-56.5 124.5,-56.5"/>
<text text-anchor="middle" x="182" y="-63.5" font-family="Helvetica,sans-Serif" font-size="10.00">odp/api/spec/version.h</text>
</a>
</g>
</g>
<!-- Node0&#45;&gt;Node2 -->
<g id="edge2" class="edge"><title>Node0&#45;&gt;Node2</title>
<path fill="none" stroke="midnightblue" d="M127.443,-112.324C137.146,-104.263 151.815,-92.0765 163.5,-82.3695"/>
<polygon fill="midnightblue" stroke="midnightblue" points="165.911,-84.9163 171.367,-75.8339 161.438,-79.532 165.911,-84.9163"/>
</g>
<!-- Node3 -->
<g id="node4" class="node"><title>Node3</title>
<g id="a_node4"><a xlink:href="visibility__begin_8h_source.html" target="_top" xlink:title="odp/visibility_begin.h">
<polygon fill="white" stroke="black" points="67.5,-0.5 67.5,-19.5 174.5,-19.5 174.5,-0.5 67.5,-0.5"/>
<text text-anchor="middle" x="121" y="-7.5" font-family="Helvetica,sans-Serif" font-size="10.00">odp/visibility_begin.h</text>
</a>
</g>
</g>
<!-- Node2&#45;&gt;Node3 -->
<g id="edge3" class="edge"><title>Node2&#45;&gt;Node3</title>
<path fill="none" stroke="midnightblue" d="M172.199,-56.324C163.182,-48.3414 149.594,-36.3128 138.682,-26.6529"/>
<polygon fill="midnightblue" stroke="midnightblue" points="140.787,-23.8416 130.979,-19.8339 136.147,-29.083 140.787,-23.8416"/>
</g>
<!-- Node4 -->
<g id="node5" class="node"><title>Node4</title>
<g id="a_node5"><a xlink:href="visibility__end_8h_source.html" target="_top" xlink:title="odp/visibility_end.h">
<polygon fill="white" stroke="black" points="193,-0.5 193,-19.5 293,-19.5 293,-0.5 193,-0.5"/>
<text text-anchor="middle" x="243" y="-7.5" font-family="Helvetica,sans-Serif" font-size="10.00">odp/visibility_end.h</text>
</a>
</g>
</g>
<!-- Node2&#45;&gt;Node4 -->
<g id="edge4" class="edge"><title>Node2&#45;&gt;Node4</title>
<path fill="none" stroke="midnightblue" d="M191.801,-56.324C200.818,-48.3414 214.406,-36.3128 225.318,-26.6529"/>
<polygon fill="midnightblue" stroke="midnightblue" points="227.853,-29.083 233.021,-19.8339 223.213,-23.8416 227.853,-29.083"/>
</g>
</g>
</svg>
