<?xml version="1.0" encoding="UTF-8" standalone="no"?>
<!DOCTYPE svg PUBLIC "-//W3C//DTD SVG 1.1//EN"
 "http://www.w3.org/Graphics/SVG/1.1/DTD/svg11.dtd">
<!-- Generated by graphviz version 2.36.0 (20140111.2315)
 -->
<!-- Title: align.h Pages: 1 -->
<svg width="2268pt" height="532pt"
 viewBox="0.00 0.00 2268.00 532.00" xmlns="http://www.w3.org/2000/svg" xmlns:xlink="http://www.w3.org/1999/xlink">
<g id="graph0" class="graph" transform="scale(1 1) rotate(0) translate(4 528)">
<title>align.h</title>
<polygon fill="white" stroke="none" points="-4,4 -4,-528 2264,-528 2264,4 -4,4"/>
<!-- Node3 -->
<g id="node1" class="node"><title>Node3</title>
<polygon fill="#bfbfbf" stroke="black" points="1646.5,-504.5 1646.5,-523.5 1691.5,-523.5 1691.5,-504.5 1646.5,-504.5"/>
<text text-anchor="middle" x="1669" y="-511.5" font-family="Helvetica,sans-Serif" font-size="10.00">align.h</text>
</g>
<!-- Node4 -->
<g id="node2" class="node"><title>Node4</title>
<g id="a_node2"><a xlink:href="api_2align_8h.html" target="_top" xlink:title="ODP alignments. ">
<polygon fill="white" stroke="black" points="1646.5,-448.5 1646.5,-467.5 1691.5,-467.5 1691.5,-448.5 1646.5,-448.5"/>
<text text-anchor="middle" x="1669" y="-455.5" font-family="Helvetica,sans-Serif" font-size="10.00">align.h</text>
</a>
</g>
</g>
<!-- Node3&#45;&gt;Node4 -->
<g id="edge1" class="edge"><title>Node3&#45;&gt;Node4</title>
<path fill="none" stroke="midnightblue" d="M1669,-493.805C1669,-484.91 1669,-474.78 1669,-467.751"/>
<polygon fill="midnightblue" stroke="midnightblue" points="1665.5,-494.083 1669,-504.083 1672.5,-494.083 1665.5,-494.083"/>
</g>
<!-- Node5 -->
<g id="node3" class="node"><title>Node5</title>
<g id="a_node3"><a xlink:href="api_2abi-default_2atomic_8h.html" target="_top" xlink:title="ODP atomic operations. ">
<polygon fill="white" stroke="black" points="869,-392.5 869,-411.5 923,-411.5 923,-392.5 869,-392.5"/>
<text text-anchor="middle" x="896" y="-399.5" font-family="Helvetica,sans-Serif" font-size="10.00">atomic.h</text>
</a>
</g>
</g>
<!-- Node4&#45;&gt;Node5 -->
<g id="edge2" class="edge"><title>Node4&#45;&gt;Node5</title>
<path fill="none" stroke="midnightblue" d="M1636.28,-454.715C1508.01,-445.753 1040.61,-413.102 923.002,-404.886"/>
<polygon fill="midnightblue" stroke="midnightblue" points="1636.06,-458.208 1646.28,-455.413 1636.55,-451.225 1636.06,-458.208"/>
</g>
<!-- Node23 -->
<g id="node21" class="node"><title>Node23</title>
<g id="a_node21"><a xlink:href="odp__api_8h.html" target="_top" xlink:title="The OpenDataPlane API. ">
<polygon fill="white" stroke="black" points="1073.5,-56.5 1073.5,-75.5 1132.5,-75.5 1132.5,-56.5 1073.5,-56.5"/>
<text text-anchor="middle" x="1103" y="-63.5" font-family="Helvetica,sans-Serif" font-size="10.00">odp_api.h</text>
</a>
</g>
</g>
<!-- Node4&#45;&gt;Node23 -->
<g id="edge53" class="edge"><title>Node4&#45;&gt;Node23</title>
<path fill="none" stroke="midnightblue" d="M1669,-438.251C1669,-416.357 1669,-379.052 1669,-347 1669,-347 1669,-347 1669,-177 1669,-66.6371 1249.09,-64.7841 1132.63,-66.3924"/>
<polygon fill="midnightblue" stroke="midnightblue" points="1665.5,-438.442 1669,-448.442 1672.5,-438.442 1665.5,-438.442"/>
</g>
<!-- Node52 -->
<g id="node39" class="node"><title>Node52</title>
<g id="a_node39"><a xlink:href="api_2abi-default_2cpumask_8h.html" target="_top" xlink:title="ODP CPU masks and enumeration. ">
<polygon fill="white" stroke="black" points="1904.5,-392.5 1904.5,-411.5 1969.5,-411.5 1969.5,-392.5 1904.5,-392.5"/>
<text text-anchor="middle" x="1937" y="-399.5" font-family="Helvetica,sans-Serif" font-size="10.00">cpumask.h</text>
</a>
</g>
</g>
<!-- Node4&#45;&gt;Node52 -->
<g id="edge40" class="edge"><title>Node4&#45;&gt;Node52</title>
<path fill="none" stroke="midnightblue" d="M1701.8,-450.392C1753.38,-439.997 1852.89,-419.947 1904.37,-409.574"/>
<polygon fill="midnightblue" stroke="midnightblue" points="1700.96,-446.99 1691.85,-452.396 1702.34,-453.852 1700.96,-446.99"/>
</g>
<!-- Node6 -->
<g id="node4" class="node"><title>Node6</title>
<g id="a_node4"><a xlink:href="arch_2arm32-linux_2odp_2api_2abi_2atomic_8h_source.html" target="_top" xlink:title="atomic.h">
<polygon fill="white" stroke="black" points="617,-336.5 617,-355.5 671,-355.5 671,-336.5 617,-336.5"/>
<text text-anchor="middle" x="644" y="-343.5" font-family="Helvetica,sans-Serif" font-size="10.00">atomic.h</text>
</a>
</g>
</g>
<!-- Node5&#45;&gt;Node6 -->
<g id="edge3" class="edge"><title>Node5&#45;&gt;Node6</title>
<path fill="none" stroke="midnightblue" d="M858.963,-393.748C815.865,-385.201 742.606,-370.341 680,-356 677.111,-355.338 674.098,-354.624 671.099,-353.897"/>
<polygon fill="midnightblue" stroke="midnightblue" points="858.497,-397.223 868.986,-395.729 859.855,-390.356 858.497,-397.223"/>
</g>
<!-- Node7 -->
<g id="node5" class="node"><title>Node7</title>
<g id="a_node5"><a xlink:href="arch_2arm64-linux_2odp_2api_2abi_2atomic_8h_source.html" target="_top" xlink:title="atomic.h">
<polygon fill="white" stroke="black" points="689,-336.5 689,-355.5 743,-355.5 743,-336.5 689,-336.5"/>
<text text-anchor="middle" x="716" y="-343.5" font-family="Helvetica,sans-Serif" font-size="10.00">atomic.h</text>
</a>
</g>
</g>
<!-- Node5&#45;&gt;Node7 -->
<g id="edge4" class="edge"><title>Node5&#45;&gt;Node7</title>
<path fill="none" stroke="midnightblue" d="M858.95,-389.885C824.448,-379.534 773.835,-364.351 743.006,-355.102"/>
<polygon fill="midnightblue" stroke="midnightblue" points="858.078,-393.277 868.662,-392.799 860.089,-386.573 858.078,-393.277"/>
</g>
<!-- Node8 -->
<g id="node6" class="node"><title>Node8</title>
<g id="a_node6"><a xlink:href="arch_2default-linux_2odp_2api_2abi_2atomic_8h_source.html" target="_top" xlink:title="atomic.h">
<polygon fill="white" stroke="black" points="761,-336.5 761,-355.5 815,-355.5 815,-336.5 761,-336.5"/>
<text text-anchor="middle" x="788" y="-343.5" font-family="Helvetica,sans-Serif" font-size="10.00">atomic.h</text>
</a>
</g>
</g>
<!-- Node5&#45;&gt;Node8 -->
<g id="edge5" class="edge"><title>Node5&#45;&gt;Node8</title>
<path fill="none" stroke="midnightblue" d="M869.452,-387.726C849.454,-377.727 822.613,-364.307 805.309,-355.655"/>
<polygon fill="midnightblue" stroke="midnightblue" points="868.138,-390.982 878.648,-392.324 871.269,-384.721 868.138,-390.982"/>
</g>
<!-- Node9 -->
<g id="node7" class="node"><title>Node9</title>
<g id="a_node7"><a xlink:href="arch_2mips64-linux_2odp_2api_2abi_2atomic_8h_source.html" target="_top" xlink:title="atomic.h">
<polygon fill="white" stroke="black" points="833,-336.5 833,-355.5 887,-355.5 887,-336.5 833,-336.5"/>
<text text-anchor="middle" x="860" y="-343.5" font-family="Helvetica,sans-Serif" font-size="10.00">atomic.h</text>
</a>
</g>
</g>
<!-- Node5&#45;&gt;Node9 -->
<g id="edge6" class="edge"><title>Node5&#45;&gt;Node9</title>
<path fill="none" stroke="midnightblue" d="M884.377,-383.566C878.183,-374.275 870.832,-363.248 865.834,-355.751"/>
<polygon fill="midnightblue" stroke="midnightblue" points="881.596,-385.704 890.055,-392.083 887.42,-381.821 881.596,-385.704"/>
</g>
<!-- Node10 -->
<g id="node8" class="node"><title>Node10</title>
<g id="a_node8"><a xlink:href="arch_2power64-linux_2odp_2api_2abi_2atomic_8h_source.html" target="_top" xlink:title="atomic.h">
<polygon fill="white" stroke="black" points="905,-336.5 905,-355.5 959,-355.5 959,-336.5 905,-336.5"/>
<text text-anchor="middle" x="932" y="-343.5" font-family="Helvetica,sans-Serif" font-size="10.00">atomic.h</text>
</a>
</g>
</g>
<!-- Node5&#45;&gt;Node10 -->
<g id="edge7" class="edge"><title>Node5&#45;&gt;Node10</title>
<path fill="none" stroke="midnightblue" d="M907.623,-383.566C913.817,-374.275 921.168,-363.248 926.166,-355.751"/>
<polygon fill="midnightblue" stroke="midnightblue" points="904.58,-381.821 901.945,-392.083 910.404,-385.704 904.58,-381.821"/>
</g>
<!-- Node11 -->
<g id="node9" class="node"><title>Node11</title>
<g id="a_node9"><a xlink:href="arch_2x86__32-linux_2odp_2api_2abi_2atomic_8h_source.html" target="_top" xlink:title="atomic.h">
<polygon fill="white" stroke="black" points="977,-336.5 977,-355.5 1031,-355.5 1031,-336.5 977,-336.5"/>
<text text-anchor="middle" x="1004" y="-343.5" font-family="Helvetica,sans-Serif" font-size="10.00">atomic.h</text>
</a>
</g>
</g>
<!-- Node5&#45;&gt;Node11 -->
<g id="edge8" class="edge"><title>Node5&#45;&gt;Node11</title>
<path fill="none" stroke="midnightblue" d="M922.548,-387.726C942.546,-377.727 969.387,-364.307 986.691,-355.655"/>
<polygon fill="midnightblue" stroke="midnightblue" points="920.731,-384.721 913.352,-392.324 923.862,-390.982 920.731,-384.721"/>
</g>
<!-- Node12 -->
<g id="node10" class="node"><title>Node12</title>
<g id="a_node10"><a xlink:href="arch_2x86__64-linux_2odp_2api_2abi_2atomic_8h_source.html" target="_top" xlink:title="atomic.h">
<polygon fill="white" stroke="black" points="1049,-336.5 1049,-355.5 1103,-355.5 1103,-336.5 1049,-336.5"/>
<text text-anchor="middle" x="1076" y="-343.5" font-family="Helvetica,sans-Serif" font-size="10.00">atomic.h</text>
</a>
</g>
</g>
<!-- Node5&#45;&gt;Node12 -->
<g id="edge9" class="edge"><title>Node5&#45;&gt;Node12</title>
<path fill="none" stroke="midnightblue" d="M933.05,-389.885C967.552,-379.534 1018.16,-364.351 1048.99,-355.102"/>
<polygon fill="midnightblue" stroke="midnightblue" points="931.911,-386.573 923.338,-392.799 933.922,-393.277 931.911,-386.573"/>
</g>
<!-- Node13 -->
<g id="node11" class="node"><title>Node13</title>
<g id="a_node11"><a xlink:href="api_2atomic_8h.html" target="_top" xlink:title="ODP atomic operations. ">
<polygon fill="white" stroke="black" points="609,-280.5 609,-299.5 663,-299.5 663,-280.5 609,-280.5"/>
<text text-anchor="middle" x="636" y="-287.5" font-family="Helvetica,sans-Serif" font-size="10.00">atomic.h</text>
</a>
</g>
</g>
<!-- Node12&#45;&gt;Node13 -->
<g id="edge10" class="edge"><title>Node12&#45;&gt;Node13</title>
<path fill="none" stroke="midnightblue" d="M1038.85,-336.019C891.722,-310.104 726.96,-297.168 663.13,-292.76"/>
<polygon fill="midnightblue" stroke="midnightblue" points="1038.5,-339.513 1048.96,-337.826 1039.73,-332.622 1038.5,-339.513"/>
</g>
<!-- Node14 -->
<g id="node12" class="node"><title>Node14</title>
<g id="a_node12"><a xlink:href="api_2abi-default_2barrier_8h.html" target="_top" xlink:title="ODP barrier. ">
<polygon fill="white" stroke="black" points="245,-224.5 245,-243.5 297,-243.5 297,-224.5 245,-224.5"/>
<text text-anchor="middle" x="271" y="-231.5" font-family="Helvetica,sans-Serif" font-size="10.00">barrier.h</text>
</a>
</g>
</g>
<!-- Node13&#45;&gt;Node14 -->
<g id="edge11" class="edge"><title>Node13&#45;&gt;Node14</title>
<path fill="none" stroke="midnightblue" d="M598.621,-283.47C524.645,-272.526 361.218,-248.347 297.328,-238.895"/>
<polygon fill="midnightblue" stroke="midnightblue" points="598.459,-286.984 608.864,-284.985 599.484,-280.059 598.459,-286.984"/>
</g>
<!-- Node22 -->
<g id="node20" class="node"><title>Node22</title>
<g id="a_node20"><a xlink:href="api_2barrier_8h.html" target="_top" xlink:title="ODP execution barriers. ">
<polygon fill="white" stroke="black" points="458,-112.5 458,-131.5 510,-131.5 510,-112.5 458,-112.5"/>
<text text-anchor="middle" x="484" y="-119.5" font-family="Helvetica,sans-Serif" font-size="10.00">barrier.h</text>
</a>
</g>
</g>
<!-- Node13&#45;&gt;Node22 -->
<g id="edge38" class="edge"><title>Node13&#45;&gt;Node22</title>
<path fill="none" stroke="midnightblue" d="M598.836,-282.485C574.515,-276.406 543.707,-264.984 524,-244 492.951,-210.938 485.979,-153.235 484.433,-131.557"/>
<polygon fill="midnightblue" stroke="midnightblue" points="598.281,-285.948 608.81,-284.775 599.847,-279.126 598.281,-285.948"/>
</g>
<!-- Node13&#45;&gt;Node23 -->
<g id="edge39" class="edge"><title>Node13&#45;&gt;Node23</title>
<path fill="none" stroke="midnightblue" d="M614.101,-274.337C581.58,-250.797 527.374,-203.609 557,-168 623.818,-87.6881 968.898,-70.9696 1073.14,-67.7309"/>
<polygon fill="midnightblue" stroke="midnightblue" points="612.418,-277.432 622.611,-280.32 616.444,-271.705 612.418,-277.432"/>
</g>
<!-- Node25 -->
<g id="node23" class="node"><title>Node25</title>
<g id="a_node23"><a xlink:href="api_2abi-default_2rwlock_8h.html" target="_top" xlink:title="ODP rwlock. ">
<polygon fill="white" stroke="black" points="743.5,-224.5 743.5,-243.5 796.5,-243.5 796.5,-224.5 743.5,-224.5"/>
<text text-anchor="middle" x="770" y="-231.5" font-family="Helvetica,sans-Serif" font-size="10.00">rwlock.h</text>
</a>
</g>
</g>
<!-- Node13&#45;&gt;Node25 -->
<g id="edge22" class="edge"><title>Node13&#45;&gt;Node25</title>
<path fill="none" stroke="midnightblue" d="M666.677,-276.638C691.823,-266.504 726.754,-252.427 748.867,-243.516"/>
<polygon fill="midnightblue" stroke="midnightblue" points="665.2,-273.459 657.233,-280.444 667.816,-279.952 665.2,-273.459"/>
</g>
<!-- Node43 -->
<g id="node31" class="node"><title>Node43</title>
<g id="a_node31"><a xlink:href="api_2abi-default_2ticketlock_8h.html" target="_top" xlink:title="ODP ticketlock. ">
<polygon fill="white" stroke="black" points="1275.5,-224.5 1275.5,-243.5 1342.5,-243.5 1342.5,-224.5 1275.5,-224.5"/>
<text text-anchor="middle" x="1309" y="-231.5" font-family="Helvetica,sans-Serif" font-size="10.00">ticketlock.h</text>
</a>
</g>
</g>
<!-- Node13&#45;&gt;Node43 -->
<g id="edge30" class="edge"><title>Node13&#45;&gt;Node43</title>
<path fill="none" stroke="midnightblue" d="M673.286,-286.008C792.213,-276.466 1161.38,-246.844 1275.23,-237.71"/>
<polygon fill="midnightblue" stroke="midnightblue" points="672.904,-282.528 663.216,-286.816 673.464,-289.505 672.904,-282.528"/>
</g>
<!-- Node15 -->
<g id="node13" class="node"><title>Node15</title>
<g id="a_node13"><a xlink:href="arch_2arm32-linux_2odp_2api_2abi_2barrier_8h_source.html" target="_top" xlink:title="barrier.h">
<polygon fill="white" stroke="black" points="0,-168.5 0,-187.5 52,-187.5 52,-168.5 0,-168.5"/>
<text text-anchor="middle" x="26" y="-175.5" font-family="Helvetica,sans-Serif" font-size="10.00">barrier.h</text>
</a>
</g>
</g>
<!-- Node14&#45;&gt;Node15 -->
<g id="edge12" class="edge"><title>Node14&#45;&gt;Node15</title>
<path fill="none" stroke="midnightblue" d="M234.721,-225.692C192.78,-217.136 121.724,-202.307 61,-188 58.1908,-187.338 55.2612,-186.624 52.345,-185.897"/>
<polygon fill="midnightblue" stroke="midnightblue" points="234.235,-229.165 244.732,-227.728 235.63,-222.305 234.235,-229.165"/>
</g>
<!-- Node16 -->
<g id="node14" class="node"><title>Node16</title>
<g id="a_node14"><a xlink:href="arch_2arm64-linux_2odp_2api_2abi_2barrier_8h_source.html" target="_top" xlink:title="barrier.h">
<polygon fill="white" stroke="black" points="70,-168.5 70,-187.5 122,-187.5 122,-168.5 70,-168.5"/>
<text text-anchor="middle" x="96" y="-175.5" font-family="Helvetica,sans-Serif" font-size="10.00">barrier.h</text>
</a>
</g>
</g>
<!-- Node14&#45;&gt;Node16 -->
<g id="edge13" class="edge"><title>Node14&#45;&gt;Node16</title>
<path fill="none" stroke="midnightblue" d="M234.914,-221.865C201.311,-211.496 152.031,-196.289 122.092,-187.051"/>
<polygon fill="midnightblue" stroke="midnightblue" points="234.213,-225.311 244.801,-224.916 236.277,-218.623 234.213,-225.311"/>
</g>
<!-- Node17 -->
<g id="node15" class="node"><title>Node17</title>
<g id="a_node15"><a xlink:href="arch_2default-linux_2odp_2api_2abi_2barrier_8h_source.html" target="_top" xlink:title="barrier.h">
<polygon fill="white" stroke="black" points="140,-168.5 140,-187.5 192,-187.5 192,-168.5 140,-168.5"/>
<text text-anchor="middle" x="166" y="-175.5" font-family="Helvetica,sans-Serif" font-size="10.00">barrier.h</text>
</a>
</g>
</g>
<!-- Node14&#45;&gt;Node17 -->
<g id="edge14" class="edge"><title>Node14&#45;&gt;Node17</title>
<path fill="none" stroke="midnightblue" d="M245.19,-219.726C225.747,-209.727 199.652,-196.307 182.828,-187.655"/>
<polygon fill="midnightblue" stroke="midnightblue" points="243.636,-222.863 254.13,-224.324 246.838,-216.638 243.636,-222.863"/>
</g>
<!-- Node18 -->
<g id="node16" class="node"><title>Node18</title>
<g id="a_node16"><a xlink:href="arch_2mips64-linux_2odp_2api_2abi_2barrier_8h_source.html" target="_top" xlink:title="barrier.h">
<polygon fill="white" stroke="black" points="210,-168.5 210,-187.5 262,-187.5 262,-168.5 210,-168.5"/>
<text text-anchor="middle" x="236" y="-175.5" font-family="Helvetica,sans-Serif" font-size="10.00">barrier.h</text>
</a>
</g>
</g>
<!-- Node14&#45;&gt;Node18 -->
<g id="edge15" class="edge"><title>Node14&#45;&gt;Node18</title>
<path fill="none" stroke="midnightblue" d="M259.7,-215.566C253.678,-206.275 246.531,-195.248 241.672,-187.751"/>
<polygon fill="midnightblue" stroke="midnightblue" points="256.844,-217.595 265.22,-224.083 262.719,-213.788 256.844,-217.595"/>
</g>
<!-- Node19 -->
<g id="node17" class="node"><title>Node19</title>
<g id="a_node17"><a xlink:href="arch_2power64-linux_2odp_2api_2abi_2barrier_8h_source.html" target="_top" xlink:title="barrier.h">
<polygon fill="white" stroke="black" points="280,-168.5 280,-187.5 332,-187.5 332,-168.5 280,-168.5"/>
<text text-anchor="middle" x="306" y="-175.5" font-family="Helvetica,sans-Serif" font-size="10.00">barrier.h</text>
</a>
</g>
</g>
<!-- Node14&#45;&gt;Node19 -->
<g id="edge16" class="edge"><title>Node14&#45;&gt;Node19</title>
<path fill="none" stroke="midnightblue" d="M282.3,-215.566C288.322,-206.275 295.469,-195.248 300.328,-187.751"/>
<polygon fill="midnightblue" stroke="midnightblue" points="279.281,-213.788 276.78,-224.083 285.156,-217.595 279.281,-213.788"/>
</g>
<!-- Node20 -->
<g id="node18" class="node"><title>Node20</title>
<g id="a_node18"><a xlink:href="arch_2x86__32-linux_2odp_2api_2abi_2barrier_8h_source.html" target="_top" xlink:title="barrier.h">
<polygon fill="white" stroke="black" points="350,-168.5 350,-187.5 402,-187.5 402,-168.5 350,-168.5"/>
<text text-anchor="middle" x="376" y="-175.5" font-family="Helvetica,sans-Serif" font-size="10.00">barrier.h</text>
</a>
</g>
</g>
<!-- Node14&#45;&gt;Node20 -->
<g id="edge17" class="edge"><title>Node14&#45;&gt;Node20</title>
<path fill="none" stroke="midnightblue" d="M296.81,-219.726C316.253,-209.727 342.348,-196.307 359.172,-187.655"/>
<polygon fill="midnightblue" stroke="midnightblue" points="295.162,-216.638 287.87,-224.324 298.364,-222.863 295.162,-216.638"/>
</g>
<!-- Node21 -->
<g id="node19" class="node"><title>Node21</title>
<g id="a_node19"><a xlink:href="arch_2x86__64-linux_2odp_2api_2abi_2barrier_8h_source.html" target="_top" xlink:title="barrier.h">
<polygon fill="white" stroke="black" points="420,-168.5 420,-187.5 472,-187.5 472,-168.5 420,-168.5"/>
<text text-anchor="middle" x="446" y="-175.5" font-family="Helvetica,sans-Serif" font-size="10.00">barrier.h</text>
</a>
</g>
</g>
<!-- Node14&#45;&gt;Node21 -->
<g id="edge18" class="edge"><title>Node14&#45;&gt;Node21</title>
<path fill="none" stroke="midnightblue" d="M307.086,-221.865C340.689,-211.496 389.969,-196.289 419.908,-187.051"/>
<polygon fill="midnightblue" stroke="midnightblue" points="305.723,-218.623 297.199,-224.916 307.787,-225.311 305.723,-218.623"/>
</g>
<!-- Node21&#45;&gt;Node22 -->
<g id="edge19" class="edge"><title>Node21&#45;&gt;Node22</title>
<path fill="none" stroke="midnightblue" d="M458.065,-159.855C464.645,-150.505 472.511,-139.327 477.842,-131.751"/>
<polygon fill="midnightblue" stroke="midnightblue" points="455.168,-157.891 452.275,-168.083 460.892,-161.919 455.168,-157.891"/>
</g>
<!-- Node22&#45;&gt;Node23 -->
<g id="edge20" class="edge"><title>Node22&#45;&gt;Node23</title>
<path fill="none" stroke="midnightblue" d="M520.149,-112.622C521.446,-112.399 522.733,-112.191 524,-112 732.872,-80.5518 987.643,-70.4384 1073.3,-67.802"/>
<polygon fill="midnightblue" stroke="midnightblue" points="519.304,-109.22 510.148,-114.551 520.63,-116.094 519.304,-109.22"/>
</g>
<!-- Node24 -->
<g id="node22" class="node"><title>Node24</title>
<g id="a_node22"><a xlink:href="odp_8h.html" target="_top" xlink:title="WARNING: THIS FILE IS DEPRECATED AND WILL BE REMOVED!!! ODP APPLICATIONS SHOULD NOW INCLUDE odp_api...">
<polygon fill="white" stroke="black" points="1082.5,-0.5 1082.5,-19.5 1123.5,-19.5 1123.5,-0.5 1082.5,-0.5"/>
<text text-anchor="middle" x="1103" y="-7.5" font-family="Helvetica,sans-Serif" font-size="10.00">odp.h</text>
</a>
</g>
</g>
<!-- Node23&#45;&gt;Node24 -->
<g id="edge21" class="edge"><title>Node23&#45;&gt;Node24</title>
<path fill="none" stroke="midnightblue" d="M1103,-45.8045C1103,-36.9102 1103,-26.7798 1103,-19.7511"/>
<polygon fill="midnightblue" stroke="midnightblue" points="1099.5,-46.083 1103,-56.083 1106.5,-46.083 1099.5,-46.083"/>
</g>
<!-- Node26 -->
<g id="node24" class="node"><title>Node26</title>
<g id="a_node24"><a xlink:href="arch_2arm32-linux_2odp_2api_2abi_2rwlock_8h_source.html" target="_top" xlink:title="rwlock.h">
<polygon fill="white" stroke="black" points="566.5,-168.5 566.5,-187.5 619.5,-187.5 619.5,-168.5 566.5,-168.5"/>
<text text-anchor="middle" x="593" y="-175.5" font-family="Helvetica,sans-Serif" font-size="10.00">rwlock.h</text>
</a>
</g>
</g>
<!-- Node25&#45;&gt;Node26 -->
<g id="edge23" class="edge"><title>Node25&#45;&gt;Node26</title>
<path fill="none" stroke="midnightblue" d="M733.13,-221.751C699.214,-211.404 649.741,-196.311 619.556,-187.102"/>
<polygon fill="midnightblue" stroke="midnightblue" points="732.531,-225.228 743.118,-224.799 734.574,-218.533 732.531,-225.228"/>
</g>
<!-- Node27 -->
<g id="node25" class="node"><title>Node27</title>
<g id="a_node25"><a xlink:href="arch_2arm64-linux_2odp_2api_2abi_2rwlock_8h_source.html" target="_top" xlink:title="rwlock.h">
<polygon fill="white" stroke="black" points="637.5,-168.5 637.5,-187.5 690.5,-187.5 690.5,-168.5 637.5,-168.5"/>
<text text-anchor="middle" x="664" y="-175.5" font-family="Helvetica,sans-Serif" font-size="10.00">rwlock.h</text>
</a>
</g>
</g>
<!-- Node25&#45;&gt;Node27 -->
<g id="edge24" class="edge"><title>Node25&#45;&gt;Node27</title>
<path fill="none" stroke="midnightblue" d="M743.944,-219.726C724.316,-209.727 697.972,-196.307 680.988,-187.655"/>
<polygon fill="midnightblue" stroke="midnightblue" points="742.47,-222.903 752.969,-224.324 745.648,-216.666 742.47,-222.903"/>
</g>
<!-- Node28 -->
<g id="node26" class="node"><title>Node28</title>
<g id="a_node26"><a xlink:href="arch_2default-linux_2odp_2api_2abi_2rwlock_8h_source.html" target="_top" xlink:title="rwlock.h">
<polygon fill="white" stroke="black" points="708.5,-168.5 708.5,-187.5 761.5,-187.5 761.5,-168.5 708.5,-168.5"/>
<text text-anchor="middle" x="735" y="-175.5" font-family="Helvetica,sans-Serif" font-size="10.00">rwlock.h</text>
</a>
</g>
</g>
<!-- Node25&#45;&gt;Node28 -->
<g id="edge25" class="edge"><title>Node25&#45;&gt;Node28</title>
<path fill="none" stroke="midnightblue" d="M758.7,-215.566C752.678,-206.275 745.531,-195.248 740.672,-187.751"/>
<polygon fill="midnightblue" stroke="midnightblue" points="755.844,-217.595 764.22,-224.083 761.719,-213.788 755.844,-217.595"/>
</g>
<!-- Node29 -->
<g id="node27" class="node"><title>Node29</title>
<g id="a_node27"><a xlink:href="arch_2mips64-linux_2odp_2api_2abi_2rwlock_8h_source.html" target="_top" xlink:title="rwlock.h">
<polygon fill="white" stroke="black" points="779.5,-168.5 779.5,-187.5 832.5,-187.5 832.5,-168.5 779.5,-168.5"/>
<text text-anchor="middle" x="806" y="-175.5" font-family="Helvetica,sans-Serif" font-size="10.00">rwlock.h</text>
</a>
</g>
</g>
<!-- Node25&#45;&gt;Node29 -->
<g id="edge26" class="edge"><title>Node25&#45;&gt;Node29</title>
<path fill="none" stroke="midnightblue" d="M781.623,-215.566C787.817,-206.275 795.168,-195.248 800.166,-187.751"/>
<polygon fill="midnightblue" stroke="midnightblue" points="778.58,-213.821 775.945,-224.083 784.404,-217.704 778.58,-213.821"/>
</g>
<!-- Node30 -->
<g id="node28" class="node"><title>Node30</title>
<g id="a_node28"><a xlink:href="arch_2power64-linux_2odp_2api_2abi_2rwlock_8h_source.html" target="_top" xlink:title="rwlock.h">
<polygon fill="white" stroke="black" points="850.5,-168.5 850.5,-187.5 903.5,-187.5 903.5,-168.5 850.5,-168.5"/>
<text text-anchor="middle" x="877" y="-175.5" font-family="Helvetica,sans-Serif" font-size="10.00">rwlock.h</text>
</a>
</g>
</g>
<!-- Node25&#45;&gt;Node30 -->
<g id="edge27" class="edge"><title>Node25&#45;&gt;Node30</title>
<path fill="none" stroke="midnightblue" d="M796.302,-219.726C816.115,-209.727 842.707,-196.307 859.851,-187.655"/>
<polygon fill="midnightblue" stroke="midnightblue" points="794.542,-216.694 787.191,-224.324 797.696,-222.943 794.542,-216.694"/>
</g>
<!-- Node31 -->
<g id="node29" class="node"><title>Node31</title>
<g id="a_node29"><a xlink:href="arch_2x86__32-linux_2odp_2api_2abi_2rwlock_8h_source.html" target="_top" xlink:title="rwlock.h">
<polygon fill="white" stroke="black" points="921.5,-168.5 921.5,-187.5 974.5,-187.5 974.5,-168.5 921.5,-168.5"/>
<text text-anchor="middle" x="948" y="-175.5" font-family="Helvetica,sans-Serif" font-size="10.00">rwlock.h</text>
</a>
</g>
</g>
<!-- Node25&#45;&gt;Node31 -->
<g id="edge28" class="edge"><title>Node25&#45;&gt;Node31</title>
<path fill="none" stroke="midnightblue" d="M806.263,-221.999C840.451,-211.627 890.878,-196.329 921.461,-187.051"/>
<polygon fill="midnightblue" stroke="midnightblue" points="805.202,-218.663 796.648,-224.916 807.234,-225.362 805.202,-218.663"/>
</g>
<!-- Node32 -->
<g id="node30" class="node"><title>Node32</title>
<g id="a_node30"><a xlink:href="arch_2x86__64-linux_2odp_2api_2abi_2rwlock_8h_source.html" target="_top" xlink:title="rwlock.h">
<polygon fill="white" stroke="red" points="992.5,-168.5 992.5,-187.5 1045.5,-187.5 1045.5,-168.5 992.5,-168.5"/>
<text text-anchor="middle" x="1019" y="-175.5" font-family="Helvetica,sans-Serif" font-size="10.00">rwlock.h</text>
</a>
</g>
</g>
<!-- Node25&#45;&gt;Node32 -->
<g id="edge29" class="edge"><title>Node25&#45;&gt;Node32</title>
<path fill="none" stroke="midnightblue" d="M806.517,-225.711C849.011,-217.129 921.247,-202.237 983,-188 986.013,-187.305 989.162,-186.555 992.29,-185.794"/>
<polygon fill="midnightblue" stroke="midnightblue" points="805.747,-222.295 796.634,-227.701 807.129,-229.157 805.747,-222.295"/>
</g>
<!-- Node44 -->
<g id="node32" class="node"><title>Node44</title>
<g id="a_node32"><a xlink:href="arch_2arm32-linux_2odp_2api_2abi_2ticketlock_8h_source.html" target="_top" xlink:title="ticketlock.h">
<polygon fill="white" stroke="black" points="1063.5,-168.5 1063.5,-187.5 1130.5,-187.5 1130.5,-168.5 1063.5,-168.5"/>
<text text-anchor="middle" x="1097" y="-175.5" font-family="Helvetica,sans-Serif" font-size="10.00">ticketlock.h</text>
</a>
</g>
</g>
<!-- Node43&#45;&gt;Node44 -->
<g id="edge31" class="edge"><title>Node43&#45;&gt;Node44</title>
<path fill="none" stroke="midnightblue" d="M1265.65,-221.959C1225.61,-211.76 1166.97,-196.822 1130.43,-187.516"/>
<polygon fill="midnightblue" stroke="midnightblue" points="1264.85,-225.367 1275.41,-224.444 1266.58,-218.583 1264.85,-225.367"/>
</g>
<!-- Node45 -->
<g id="node33" class="node"><title>Node45</title>
<g id="a_node33"><a xlink:href="arch_2arm64-linux_2odp_2api_2abi_2ticketlock_8h_source.html" target="_top" xlink:title="ticketlock.h">
<polygon fill="white" stroke="black" points="1148.5,-168.5 1148.5,-187.5 1215.5,-187.5 1215.5,-168.5 1148.5,-168.5"/>
<text text-anchor="middle" x="1182" y="-175.5" font-family="Helvetica,sans-Serif" font-size="10.00">ticketlock.h</text>
</a>
</g>
</g>
<!-- Node43&#45;&gt;Node45 -->
<g id="edge32" class="edge"><title>Node43&#45;&gt;Node45</title>
<path fill="none" stroke="midnightblue" d="M1279.61,-220.503C1255.8,-210.38 1222.89,-196.388 1202.03,-187.516"/>
<polygon fill="midnightblue" stroke="midnightblue" points="1278.3,-223.751 1288.88,-224.444 1281.04,-217.31 1278.3,-223.751"/>
</g>
<!-- Node46 -->
<g id="node34" class="node"><title>Node46</title>
<g id="a_node34"><a xlink:href="arch_2default-linux_2odp_2api_2abi_2ticketlock_8h_source.html" target="_top" xlink:title="ticketlock.h">
<polygon fill="white" stroke="black" points="1233.5,-168.5 1233.5,-187.5 1300.5,-187.5 1300.5,-168.5 1233.5,-168.5"/>
<text text-anchor="middle" x="1267" y="-175.5" font-family="Helvetica,sans-Serif" font-size="10.00">ticketlock.h</text>
</a>
</g>
</g>
<!-- Node43&#45;&gt;Node46 -->
<g id="edge33" class="edge"><title>Node43&#45;&gt;Node46</title>
<path fill="none" stroke="midnightblue" d="M1295.89,-216.144C1288.57,-206.736 1279.76,-195.405 1273.81,-187.751"/>
<polygon fill="midnightblue" stroke="midnightblue" points="1293.16,-218.338 1302.06,-224.083 1298.69,-214.041 1293.16,-218.338"/>
</g>
<!-- Node47 -->
<g id="node35" class="node"><title>Node47</title>
<g id="a_node35"><a xlink:href="arch_2mips64-linux_2odp_2api_2abi_2ticketlock_8h_source.html" target="_top" xlink:title="ticketlock.h">
<polygon fill="white" stroke="black" points="1318.5,-168.5 1318.5,-187.5 1385.5,-187.5 1385.5,-168.5 1318.5,-168.5"/>
<text text-anchor="middle" x="1352" y="-175.5" font-family="Helvetica,sans-Serif" font-size="10.00">ticketlock.h</text>
</a>
</g>
</g>
<!-- Node43&#45;&gt;Node47 -->
<g id="edge34" class="edge"><title>Node43&#45;&gt;Node47</title>
<path fill="none" stroke="midnightblue" d="M1322.42,-216.144C1329.91,-206.736 1338.94,-195.405 1345.03,-187.751"/>
<polygon fill="midnightblue" stroke="midnightblue" points="1319.59,-214.08 1316.1,-224.083 1325.07,-218.44 1319.59,-214.08"/>
</g>
<!-- Node48 -->
<g id="node36" class="node"><title>Node48</title>
<g id="a_node36"><a xlink:href="arch_2power64-linux_2odp_2api_2abi_2ticketlock_8h_source.html" target="_top" xlink:title="ticketlock.h">
<polygon fill="white" stroke="black" points="1403.5,-168.5 1403.5,-187.5 1470.5,-187.5 1470.5,-168.5 1403.5,-168.5"/>
<text text-anchor="middle" x="1437" y="-175.5" font-family="Helvetica,sans-Serif" font-size="10.00">ticketlock.h</text>
</a>
</g>
</g>
<!-- Node43&#45;&gt;Node48 -->
<g id="edge35" class="edge"><title>Node43&#45;&gt;Node48</title>
<path fill="none" stroke="midnightblue" d="M1338.62,-220.503C1362.62,-210.38 1395.78,-196.388 1416.81,-187.516"/>
<polygon fill="midnightblue" stroke="midnightblue" points="1337.14,-217.332 1329.28,-224.444 1339.86,-223.781 1337.14,-217.332"/>
</g>
<!-- Node49 -->
<g id="node37" class="node"><title>Node49</title>
<g id="a_node37"><a xlink:href="arch_2x86__32-linux_2odp_2api_2abi_2ticketlock_8h_source.html" target="_top" xlink:title="ticketlock.h">
<polygon fill="white" stroke="black" points="1488.5,-168.5 1488.5,-187.5 1555.5,-187.5 1555.5,-168.5 1488.5,-168.5"/>
<text text-anchor="middle" x="1522" y="-175.5" font-family="Helvetica,sans-Serif" font-size="10.00">ticketlock.h</text>
</a>
</g>
</g>
<!-- Node43&#45;&gt;Node49 -->
<g id="edge36" class="edge"><title>Node43&#45;&gt;Node49</title>
<path fill="none" stroke="midnightblue" d="M1352.55,-221.959C1392.78,-211.76 1451.7,-196.822 1488.41,-187.516"/>
<polygon fill="midnightblue" stroke="midnightblue" points="1351.58,-218.593 1342.75,-224.444 1353.3,-225.379 1351.58,-218.593"/>
</g>
<!-- Node50 -->
<g id="node38" class="node"><title>Node50</title>
<g id="a_node38"><a xlink:href="arch_2x86__64-linux_2odp_2api_2abi_2ticketlock_8h_source.html" target="_top" xlink:title="ticketlock.h">
<polygon fill="white" stroke="red" points="1573.5,-168.5 1573.5,-187.5 1640.5,-187.5 1640.5,-168.5 1573.5,-168.5"/>
<text text-anchor="middle" x="1607" y="-175.5" font-family="Helvetica,sans-Serif" font-size="10.00">ticketlock.h</text>
</a>
</g>
</g>
<!-- Node43&#45;&gt;Node50 -->
<g id="edge37" class="edge"><title>Node43&#45;&gt;Node50</title>
<path fill="none" stroke="midnightblue" d="M1352.88,-225.691C1403.75,-217.116 1490.08,-202.255 1564,-188 1567,-187.422 1570.1,-186.805 1573.22,-186.176"/>
<polygon fill="midnightblue" stroke="midnightblue" points="1352.17,-222.261 1342.89,-227.371 1353.33,-229.164 1352.17,-222.261"/>
</g>
<!-- Node53 -->
<g id="node40" class="node"><title>Node53</title>
<g id="a_node40"><a xlink:href="arch_2arm32-linux_2odp_2api_2abi_2cpumask_8h_source.html" target="_top" xlink:title="cpumask.h">
<polygon fill="white" stroke="black" points="1697.5,-336.5 1697.5,-355.5 1762.5,-355.5 1762.5,-336.5 1697.5,-336.5"/>
<text text-anchor="middle" x="1730" y="-343.5" font-family="Helvetica,sans-Serif" font-size="10.00">cpumask.h</text>
</a>
</g>
</g>
<!-- Node52&#45;&gt;Node53 -->
<g id="edge41" class="edge"><title>Node52&#45;&gt;Node53</title>
<path fill="none" stroke="midnightblue" d="M1894.18,-389.829C1855.09,-379.633 1798.17,-364.782 1762.65,-355.516"/>
<polygon fill="midnightblue" stroke="midnightblue" points="1893.64,-393.306 1904.2,-392.444 1895.41,-386.533 1893.64,-393.306"/>
</g>
<!-- Node54 -->
<g id="node41" class="node"><title>Node54</title>
<g id="a_node41"><a xlink:href="arch_2arm64-linux_2odp_2api_2abi_2cpumask_8h_source.html" target="_top" xlink:title="cpumask.h">
<polygon fill="white" stroke="black" points="1780.5,-336.5 1780.5,-355.5 1845.5,-355.5 1845.5,-336.5 1780.5,-336.5"/>
<text text-anchor="middle" x="1813" y="-343.5" font-family="Helvetica,sans-Serif" font-size="10.00">cpumask.h</text>
</a>
</g>
</g>
<!-- Node52&#45;&gt;Node54 -->
<g id="edge42" class="edge"><title>Node52&#45;&gt;Node54</title>
<path fill="none" stroke="midnightblue" d="M1907.99,-388.368C1884.77,-378.255 1852.84,-364.349 1832.56,-355.516"/>
<polygon fill="midnightblue" stroke="midnightblue" points="1906.79,-391.66 1917.35,-392.444 1909.58,-385.242 1906.79,-391.66"/>
</g>
<!-- Node55 -->
<g id="node42" class="node"><title>Node55</title>
<g id="a_node42"><a xlink:href="arch_2default-linux_2odp_2api_2abi_2cpumask_8h_source.html" target="_top" xlink:title="cpumask.h">
<polygon fill="white" stroke="black" points="1863.5,-336.5 1863.5,-355.5 1928.5,-355.5 1928.5,-336.5 1863.5,-336.5"/>
<text text-anchor="middle" x="1896" y="-343.5" font-family="Helvetica,sans-Serif" font-size="10.00">cpumask.h</text>
</a>
</g>
</g>
<!-- Node52&#45;&gt;Node55 -->
<g id="edge43" class="edge"><title>Node52&#45;&gt;Node55</title>
<path fill="none" stroke="midnightblue" d="M1923.98,-383.855C1916.88,-374.505 1908.4,-363.327 1902.64,-355.751"/>
<polygon fill="midnightblue" stroke="midnightblue" points="1921.39,-386.235 1930.23,-392.083 1926.97,-382.002 1921.39,-386.235"/>
</g>
<!-- Node56 -->
<g id="node43" class="node"><title>Node56</title>
<g id="a_node43"><a xlink:href="arch_2mips64-linux_2odp_2api_2abi_2cpumask_8h_source.html" target="_top" xlink:title="cpumask.h">
<polygon fill="white" stroke="black" points="1946.5,-336.5 1946.5,-355.5 2011.5,-355.5 2011.5,-336.5 1946.5,-336.5"/>
<text text-anchor="middle" x="1979" y="-343.5" font-family="Helvetica,sans-Serif" font-size="10.00">cpumask.h</text>
</a>
</g>
</g>
<!-- Node52&#45;&gt;Node56 -->
<g id="edge44" class="edge"><title>Node52&#45;&gt;Node56</title>
<path fill="none" stroke="midnightblue" d="M1950.11,-384.144C1957.43,-374.736 1966.24,-363.405 1972.19,-355.751"/>
<polygon fill="midnightblue" stroke="midnightblue" points="1947.31,-382.041 1943.94,-392.083 1952.84,-386.338 1947.31,-382.041"/>
</g>
<!-- Node57 -->
<g id="node44" class="node"><title>Node57</title>
<g id="a_node44"><a xlink:href="arch_2power64-linux_2odp_2api_2abi_2cpumask_8h_source.html" target="_top" xlink:title="cpumask.h">
<polygon fill="white" stroke="black" points="2029.5,-336.5 2029.5,-355.5 2094.5,-355.5 2094.5,-336.5 2029.5,-336.5"/>
<text text-anchor="middle" x="2062" y="-343.5" font-family="Helvetica,sans-Serif" font-size="10.00">cpumask.h</text>
</a>
</g>
</g>
<!-- Node52&#45;&gt;Node57 -->
<g id="edge45" class="edge"><title>Node52&#45;&gt;Node57</title>
<path fill="none" stroke="midnightblue" d="M1966.24,-388.368C1989.65,-378.255 2021.84,-364.349 2042.29,-355.516"/>
<polygon fill="midnightblue" stroke="midnightblue" points="1964.6,-385.265 1956.81,-392.444 1967.37,-391.691 1964.6,-385.265"/>
</g>
<!-- Node58 -->
<g id="node45" class="node"><title>Node58</title>
<g id="a_node45"><a xlink:href="arch_2x86__32-linux_2odp_2api_2abi_2cpumask_8h_source.html" target="_top" xlink:title="cpumask.h">
<polygon fill="white" stroke="black" points="2112.5,-336.5 2112.5,-355.5 2177.5,-355.5 2177.5,-336.5 2112.5,-336.5"/>
<text text-anchor="middle" x="2145" y="-343.5" font-family="Helvetica,sans-Serif" font-size="10.00">cpumask.h</text>
</a>
</g>
</g>
<!-- Node52&#45;&gt;Node58 -->
<g id="edge46" class="edge"><title>Node52&#45;&gt;Node58</title>
<path fill="none" stroke="midnightblue" d="M1979.78,-389.894C2019.06,-379.697 2076.43,-364.802 2112.2,-355.516"/>
<polygon fill="midnightblue" stroke="midnightblue" points="1978.76,-386.543 1969.96,-392.444 1980.52,-393.318 1978.76,-386.543"/>
</g>
<!-- Node59 -->
<g id="node46" class="node"><title>Node59</title>
<g id="a_node46"><a xlink:href="arch_2x86__64-linux_2odp_2api_2abi_2cpumask_8h_source.html" target="_top" xlink:title="cpumask.h">
<polygon fill="white" stroke="black" points="2195.5,-336.5 2195.5,-355.5 2260.5,-355.5 2260.5,-336.5 2195.5,-336.5"/>
<text text-anchor="middle" x="2228" y="-343.5" font-family="Helvetica,sans-Serif" font-size="10.00">cpumask.h</text>
</a>
</g>
</g>
<!-- Node52&#45;&gt;Node59 -->
<g id="edge47" class="edge"><title>Node52&#45;&gt;Node59</title>
<path fill="none" stroke="midnightblue" d="M1979.75,-393.707C2029.41,-385.134 2113.78,-370.26 2186,-356 2189.07,-355.393 2192.27,-354.743 2195.46,-354.081"/>
<polygon fill="midnightblue" stroke="midnightblue" points="1978.95,-390.292 1969.69,-395.438 1980.14,-397.191 1978.95,-390.292"/>
</g>
<!-- Node60 -->
<g id="node47" class="node"><title>Node60</title>
<g id="a_node47"><a xlink:href="api_2cpumask_8h.html" target="_top" xlink:title="ODP CPU masks and enumeration. ">
<polygon fill="white" stroke="black" points="2095.5,-280.5 2095.5,-299.5 2160.5,-299.5 2160.5,-280.5 2095.5,-280.5"/>
<text text-anchor="middle" x="2128" y="-287.5" font-family="Helvetica,sans-Serif" font-size="10.00">cpumask.h</text>
</a>
</g>
</g>
<!-- Node59&#45;&gt;Node60 -->
<g id="edge48" class="edge"><title>Node59&#45;&gt;Node60</title>
<path fill="none" stroke="midnightblue" d="M2202.91,-331.453C2184.45,-321.483 2159.9,-308.228 2144.03,-299.655"/>
<polygon fill="midnightblue" stroke="midnightblue" points="2201.47,-334.652 2211.93,-336.324 2204.8,-328.493 2201.47,-334.652"/>
</g>
<!-- Node60&#45;&gt;Node23 -->
<g id="edge52" class="edge"><title>Node60&#45;&gt;Node23</title>
<path fill="none" stroke="midnightblue" d="M2102.68,-275.75C2036.09,-241.623 1849.74,-150.69 1683,-112 1576.5,-87.2884 1235.31,-72.1895 1132.56,-68.1184"/>
<polygon fill="midnightblue" stroke="midnightblue" points="2101.12,-278.886 2111.62,-280.36 2104.33,-272.665 2101.12,-278.886"/>
</g>
<!-- Node61 -->
<g id="node48" class="node"><title>Node61</title>
<g id="a_node48"><a xlink:href="api_2abi-default_2thrmask_8h.html" target="_top" xlink:title="ODP thread masks. ">
<polygon fill="white" stroke="red" points="2065,-224.5 2065,-243.5 2125,-243.5 2125,-224.5 2065,-224.5"/>
<text text-anchor="middle" x="2095" y="-231.5" font-family="Helvetica,sans-Serif" font-size="10.00">thrmask.h</text>
</a>
</g>
</g>
<!-- Node60&#45;&gt;Node61 -->
<g id="edge49" class="edge"><title>Node60&#45;&gt;Node61</title>
<path fill="none" stroke="midnightblue" d="M2117.17,-271.275C2111.53,-262.045 2104.88,-251.17 2100.35,-243.751"/>
<polygon fill="midnightblue" stroke="midnightblue" points="2114.35,-273.375 2122.55,-280.083 2120.32,-269.725 2114.35,-273.375"/>
</g>
<!-- Node72 -->
<g id="node50" class="node"><title>Node72</title>
<g id="a_node50"><a xlink:href="api_2spec_2init_8h.html" target="_top" xlink:title="ODP initialization. ">
<polygon fill="white" stroke="red" points="2143,-224.5 2143,-243.5 2181,-243.5 2181,-224.5 2143,-224.5"/>
<text text-anchor="middle" x="2162" y="-231.5" font-family="Helvetica,sans-Serif" font-size="10.00">init.h</text>
</a>
</g>
</g>
<!-- Node60&#45;&gt;Node72 -->
<g id="edge51" class="edge"><title>Node60&#45;&gt;Node72</title>
<path fill="none" stroke="midnightblue" d="M2138.98,-271.566C2144.83,-262.275 2151.77,-251.248 2156.49,-243.751"/>
<polygon fill="midnightblue" stroke="midnightblue" points="2135.98,-269.756 2133.61,-280.083 2141.9,-273.486 2135.98,-269.756"/>
</g>
<!-- Node62 -->
<g id="node49" class="node"><title>Node62</title>
<g id="a_node49"><a xlink:href="arch_2arm32-linux_2odp_2api_2abi_2thrmask_8h_source.html" target="_top" xlink:title="thrmask.h">
<polygon fill="white" stroke="black" points="2065,-168.5 2065,-187.5 2125,-187.5 2125,-168.5 2065,-168.5"/>
<text text-anchor="middle" x="2095" y="-175.5" font-family="Helvetica,sans-Serif" font-size="10.00">thrmask.h</text>
</a>
</g>
</g>
<!-- Node61&#45;&gt;Node62 -->
<g id="edge50" class="edge"><title>Node61&#45;&gt;Node62</title>
<path fill="none" stroke="midnightblue" d="M2095,-213.805C2095,-204.91 2095,-194.78 2095,-187.751"/>
<polygon fill="midnightblue" stroke="midnightblue" points="2091.5,-214.083 2095,-224.083 2098.5,-214.083 2091.5,-214.083"/>
</g>
</g>
</svg>
