<?xml version="1.0" encoding="UTF-8" standalone="no"?>
<!DOCTYPE svg PUBLIC "-//W3C//DTD SVG 1.1//EN"
 "http://www.w3.org/Graphics/SVG/1.1/DTD/svg11.dtd">
<!-- Generated by graphviz version 2.36.0 (20140111.2315)
 -->
<!-- Title: sync.h Pages: 1 -->
<svg width="444pt" height="252pt"
 viewBox="0.00 0.00 444.00 252.00" xmlns="http://www.w3.org/2000/svg" xmlns:xlink="http://www.w3.org/1999/xlink">
<g id="graph0" class="graph" transform="scale(1 1) rotate(0) translate(4 248)">
<title>sync.h</title>
<polygon fill="white" stroke="none" points="-4,4 -4,-248 440,-248 440,4 -4,4"/>
<!-- Node1 -->
<g id="node1" class="node"><title>Node1</title>
<polygon fill="#bfbfbf" stroke="black" points="192,-224.5 192,-243.5 238,-243.5 238,-224.5 192,-224.5"/>
<text text-anchor="middle" x="215" y="-231.5" font-family="Helvetica,sans-Serif" font-size="10.00">sync.h</text>
</g>
<!-- Node2 -->
<g id="node2" class="node"><title>Node2</title>
<g id="a_node2"><a xlink:href="arch_2arm32-linux_2odp_2api_2abi_2sync_8h_source.html" target="_top" xlink:title="sync.h">
<polygon fill="white" stroke="black" points="0,-168.5 0,-187.5 46,-187.5 46,-168.5 0,-168.5"/>
<text text-anchor="middle" x="23" y="-175.5" font-family="Helvetica,sans-Serif" font-size="10.00">sync.h</text>
</a>
</g>
</g>
<!-- Node1&#45;&gt;Node2 -->
<g id="edge1" class="edge"><title>Node1&#45;&gt;Node2</title>
<path fill="none" stroke="midnightblue" d="M182.094,-223.745C143.401,-212.863 80.1653,-195.078 46.2418,-185.537"/>
<polygon fill="midnightblue" stroke="midnightblue" points="181.266,-227.148 191.84,-226.486 183.161,-220.41 181.266,-227.148"/>
</g>
<!-- Node3 -->
<g id="node3" class="node"><title>Node3</title>
<g id="a_node3"><a xlink:href="arch_2arm64-linux_2odp_2api_2abi_2sync_8h_source.html" target="_top" xlink:title="sync.h">
<polygon fill="white" stroke="black" points="64,-168.5 64,-187.5 110,-187.5 110,-168.5 64,-168.5"/>
<text text-anchor="middle" x="87" y="-175.5" font-family="Helvetica,sans-Serif" font-size="10.00">sync.h</text>
</a>
</g>
</g>
<!-- Node1&#45;&gt;Node3 -->
<g id="edge2" class="edge"><title>Node1&#45;&gt;Node3</title>
<path fill="none" stroke="midnightblue" d="M185.377,-220.503C161.381,-210.38 128.216,-196.388 107.187,-187.516"/>
<polygon fill="midnightblue" stroke="midnightblue" points="184.144,-223.781 194.718,-224.444 186.865,-217.332 184.144,-223.781"/>
</g>
<!-- Node4 -->
<g id="node4" class="node"><title>Node4</title>
<g id="a_node4"><a xlink:href="arch_2default-linux_2odp_2api_2abi_2sync_8h_source.html" target="_top" xlink:title="sync.h">
<polygon fill="white" stroke="black" points="128,-168.5 128,-187.5 174,-187.5 174,-168.5 128,-168.5"/>
<text text-anchor="middle" x="151" y="-175.5" font-family="Helvetica,sans-Serif" font-size="10.00">sync.h</text>
</a>
</g>
</g>
<!-- Node1&#45;&gt;Node4 -->
<g id="edge3" class="edge"><title>Node1&#45;&gt;Node4</title>
<path fill="none" stroke="midnightblue" d="M197.009,-217.82C185.542,-208.145 171.087,-195.948 161.47,-187.834"/>
<polygon fill="midnightblue" stroke="midnightblue" points="194.817,-220.55 204.717,-224.324 199.331,-215.2 194.817,-220.55"/>
</g>
<!-- Node5 -->
<g id="node5" class="node"><title>Node5</title>
<g id="a_node5"><a xlink:href="arch_2mips64-linux_2odp_2api_2abi_2sync_8h_source.html" target="_top" xlink:title="sync.h">
<polygon fill="white" stroke="black" points="192,-168.5 192,-187.5 238,-187.5 238,-168.5 192,-168.5"/>
<text text-anchor="middle" x="215" y="-175.5" font-family="Helvetica,sans-Serif" font-size="10.00">sync.h</text>
</a>
</g>
</g>
<!-- Node1&#45;&gt;Node5 -->
<g id="edge4" class="edge"><title>Node1&#45;&gt;Node5</title>
<path fill="none" stroke="midnightblue" d="M215,-213.805C215,-204.91 215,-194.78 215,-187.751"/>
<polygon fill="midnightblue" stroke="midnightblue" points="211.5,-214.083 215,-224.083 218.5,-214.083 211.5,-214.083"/>
</g>
<!-- Node6 -->
<g id="node6" class="node"><title>Node6</title>
<g id="a_node6"><a xlink:href="arch_2power64-linux_2odp_2api_2abi_2sync_8h_source.html" target="_top" xlink:title="sync.h">
<polygon fill="white" stroke="black" points="256,-168.5 256,-187.5 302,-187.5 302,-168.5 256,-168.5"/>
<text text-anchor="middle" x="279" y="-175.5" font-family="Helvetica,sans-Serif" font-size="10.00">sync.h</text>
</a>
</g>
</g>
<!-- Node1&#45;&gt;Node6 -->
<g id="edge5" class="edge"><title>Node1&#45;&gt;Node6</title>
<path fill="none" stroke="midnightblue" d="M232.991,-217.82C244.458,-208.145 258.913,-195.948 268.53,-187.834"/>
<polygon fill="midnightblue" stroke="midnightblue" points="230.669,-215.2 225.283,-224.324 235.183,-220.55 230.669,-215.2"/>
</g>
<!-- Node7 -->
<g id="node7" class="node"><title>Node7</title>
<g id="a_node7"><a xlink:href="arch_2x86__32-linux_2odp_2api_2abi_2sync_8h_source.html" target="_top" xlink:title="sync.h">
<polygon fill="white" stroke="black" points="320,-168.5 320,-187.5 366,-187.5 366,-168.5 320,-168.5"/>
<text text-anchor="middle" x="343" y="-175.5" font-family="Helvetica,sans-Serif" font-size="10.00">sync.h</text>
</a>
</g>
</g>
<!-- Node1&#45;&gt;Node7 -->
<g id="edge6" class="edge"><title>Node1&#45;&gt;Node7</title>
<path fill="none" stroke="midnightblue" d="M244.623,-220.503C268.619,-210.38 301.784,-196.388 322.813,-187.516"/>
<polygon fill="midnightblue" stroke="midnightblue" points="243.135,-217.332 235.282,-224.444 245.856,-223.781 243.135,-217.332"/>
</g>
<!-- Node8 -->
<g id="node8" class="node"><title>Node8</title>
<g id="a_node8"><a xlink:href="arch_2x86__64-linux_2odp_2api_2abi_2sync_8h_source.html" target="_top" xlink:title="sync.h">
<polygon fill="white" stroke="black" points="384,-168.5 384,-187.5 430,-187.5 430,-168.5 384,-168.5"/>
<text text-anchor="middle" x="407" y="-175.5" font-family="Helvetica,sans-Serif" font-size="10.00">sync.h</text>
</a>
</g>
</g>
<!-- Node1&#45;&gt;Node8 -->
<g id="edge7" class="edge"><title>Node1&#45;&gt;Node8</title>
<path fill="none" stroke="midnightblue" d="M247.906,-223.745C286.599,-212.863 349.835,-195.078 383.758,-185.537"/>
<polygon fill="midnightblue" stroke="midnightblue" points="246.839,-220.41 238.16,-226.486 248.734,-227.148 246.839,-220.41"/>
</g>
<!-- Node9 -->
<g id="node9" class="node"><title>Node9</title>
<g id="a_node9"><a xlink:href="api_2sync_8h.html" target="_top" xlink:title="ODP synchronisation. ">
<polygon fill="white" stroke="black" points="384,-112.5 384,-131.5 430,-131.5 430,-112.5 384,-112.5"/>
<text text-anchor="middle" x="407" y="-119.5" font-family="Helvetica,sans-Serif" font-size="10.00">sync.h</text>
</a>
</g>
</g>
<!-- Node8&#45;&gt;Node9 -->
<g id="edge8" class="edge"><title>Node8&#45;&gt;Node9</title>
<path fill="none" stroke="midnightblue" d="M407,-157.805C407,-148.91 407,-138.78 407,-131.751"/>
<polygon fill="midnightblue" stroke="midnightblue" points="403.5,-158.083 407,-168.083 410.5,-158.083 403.5,-158.083"/>
</g>
<!-- Node10 -->
<g id="node10" class="node"><title>Node10</title>
<g id="a_node10"><a xlink:href="odp__api_8h.html" target="_top" xlink:title="The OpenDataPlane API. ">
<polygon fill="white" stroke="black" points="377.5,-56.5 377.5,-75.5 436.5,-75.5 436.5,-56.5 377.5,-56.5"/>
<text text-anchor="middle" x="407" y="-63.5" font-family="Helvetica,sans-Serif" font-size="10.00">odp_api.h</text>
</a>
</g>
</g>
<!-- Node9&#45;&gt;Node10 -->
<g id="edge9" class="edge"><title>Node9&#45;&gt;Node10</title>
<path fill="none" stroke="midnightblue" d="M407,-101.805C407,-92.9102 407,-82.7798 407,-75.7511"/>
<polygon fill="midnightblue" stroke="midnightblue" points="403.5,-102.083 407,-112.083 410.5,-102.083 403.5,-102.083"/>
</g>
<!-- Node11 -->
<g id="node11" class="node"><title>Node11</title>
<g id="a_node11"><a xlink:href="odp_8h.html" target="_top" xlink:title="WARNING: THIS FILE IS DEPRECATED AND WILL BE REMOVED!!! ODP APPLICATIONS SHOULD NOW INCLUDE odp_api...">
<polygon fill="white" stroke="black" points="386.5,-0.5 386.5,-19.5 427.5,-19.5 427.5,-0.5 386.5,-0.5"/>
<text text-anchor="middle" x="407" y="-7.5" font-family="Helvetica,sans-Serif" font-size="10.00">odp.h</text>
</a>
</g>
</g>
<!-- Node10&#45;&gt;Node11 -->
<g id="edge10" class="edge"><title>Node10&#45;&gt;Node11</title>
<path fill="none" stroke="midnightblue" d="M407,-45.8045C407,-36.9102 407,-26.7798 407,-19.7511"/>
<polygon fill="midnightblue" stroke="midnightblue" points="403.5,-46.083 407,-56.083 410.5,-46.083 403.5,-46.083"/>
</g>
</g>
</svg>
