<?xml version="1.0" encoding="UTF-8" standalone="no"?>
<!DOCTYPE svg PUBLIC "-//W3C//DTD SVG 1.1//EN"
 "http://www.w3.org/Graphics/SVG/1.1/DTD/svg11.dtd">
<!-- Generated by graphviz version 2.36.0 (20140111.2315)
 -->
<!-- Title: ticketlock.h Pages: 1 -->
<svg width="584pt" height="252pt"
 viewBox="0.00 0.00 584.00 252.00" xmlns="http://www.w3.org/2000/svg" xmlns:xlink="http://www.w3.org/1999/xlink">
<g id="graph0" class="graph" transform="scale(1 1) rotate(0) translate(4 248)">
<title>ticketlock.h</title>
<polygon fill="white" stroke="none" points="-4,4 -4,-248 580,-248 580,4 -4,4"/>
<!-- Node6 -->
<g id="node1" class="node"><title>Node6</title>
<polygon fill="#bfbfbf" stroke="black" points="254.5,-224.5 254.5,-243.5 321.5,-243.5 321.5,-224.5 254.5,-224.5"/>
<text text-anchor="middle" x="288" y="-231.5" font-family="Helvetica,sans-Serif" font-size="10.00">ticketlock.h</text>
</g>
<!-- Node7 -->
<g id="node2" class="node"><title>Node7</title>
<g id="a_node2"><a xlink:href="arch_2arm32-linux_2odp_2api_2abi_2ticketlock_8h_source.html" target="_top" xlink:title="ticketlock.h">
<polygon fill="white" stroke="black" points="-0.5,-168.5 -0.5,-187.5 66.5,-187.5 66.5,-168.5 -0.5,-168.5"/>
<text text-anchor="middle" x="33" y="-175.5" font-family="Helvetica,sans-Serif" font-size="10.00">ticketlock.h</text>
</a>
</g>
</g>
<!-- Node6&#45;&gt;Node7 -->
<g id="edge1" class="edge"><title>Node6&#45;&gt;Node7</title>
<path fill="none" stroke="midnightblue" d="M244.469,-223.782C194.143,-213.124 112.388,-195.812 66.6734,-186.131"/>
<polygon fill="midnightblue" stroke="midnightblue" points="243.893,-227.237 254.401,-225.885 245.343,-220.389 243.893,-227.237"/>
</g>
<!-- Node8 -->
<g id="node3" class="node"><title>Node8</title>
<g id="a_node3"><a xlink:href="arch_2arm64-linux_2odp_2api_2abi_2ticketlock_8h_source.html" target="_top" xlink:title="ticketlock.h">
<polygon fill="white" stroke="black" points="84.5,-168.5 84.5,-187.5 151.5,-187.5 151.5,-168.5 84.5,-168.5"/>
<text text-anchor="middle" x="118" y="-175.5" font-family="Helvetica,sans-Serif" font-size="10.00">ticketlock.h</text>
</a>
</g>
</g>
<!-- Node6&#45;&gt;Node8 -->
<g id="edge2" class="edge"><title>Node6&#45;&gt;Node8</title>
<path fill="none" stroke="midnightblue" d="M251.181,-221.304C219.148,-211.129 173.485,-196.625 144.811,-187.516"/>
<polygon fill="midnightblue" stroke="midnightblue" points="250.473,-224.752 261.063,-224.444 252.592,-218.08 250.473,-224.752"/>
</g>
<!-- Node9 -->
<g id="node4" class="node"><title>Node9</title>
<g id="a_node4"><a xlink:href="arch_2default-linux_2odp_2api_2abi_2ticketlock_8h_source.html" target="_top" xlink:title="ticketlock.h">
<polygon fill="white" stroke="black" points="169.5,-168.5 169.5,-187.5 236.5,-187.5 236.5,-168.5 169.5,-168.5"/>
<text text-anchor="middle" x="203" y="-175.5" font-family="Helvetica,sans-Serif" font-size="10.00">ticketlock.h</text>
</a>
</g>
</g>
<!-- Node6&#45;&gt;Node9 -->
<g id="edge3" class="edge"><title>Node6&#45;&gt;Node9</title>
<path fill="none" stroke="midnightblue" d="M265.806,-218.901C250.22,-208.999 229.87,-196.071 216.623,-187.655"/>
<polygon fill="midnightblue" stroke="midnightblue" points="264.026,-221.916 274.343,-224.324 267.779,-216.007 264.026,-221.916"/>
</g>
<!-- Node10 -->
<g id="node5" class="node"><title>Node10</title>
<g id="a_node5"><a xlink:href="arch_2mips64-linux_2odp_2api_2abi_2ticketlock_8h_source.html" target="_top" xlink:title="ticketlock.h">
<polygon fill="white" stroke="black" points="254.5,-168.5 254.5,-187.5 321.5,-187.5 321.5,-168.5 254.5,-168.5"/>
<text text-anchor="middle" x="288" y="-175.5" font-family="Helvetica,sans-Serif" font-size="10.00">ticketlock.h</text>
</a>
</g>
</g>
<!-- Node6&#45;&gt;Node10 -->
<g id="edge4" class="edge"><title>Node6&#45;&gt;Node10</title>
<path fill="none" stroke="midnightblue" d="M288,-213.805C288,-204.91 288,-194.78 288,-187.751"/>
<polygon fill="midnightblue" stroke="midnightblue" points="284.5,-214.083 288,-224.083 291.5,-214.083 284.5,-214.083"/>
</g>
<!-- Node11 -->
<g id="node6" class="node"><title>Node11</title>
<g id="a_node6"><a xlink:href="arch_2power64-linux_2odp_2api_2abi_2ticketlock_8h_source.html" target="_top" xlink:title="ticketlock.h">
<polygon fill="white" stroke="black" points="339.5,-168.5 339.5,-187.5 406.5,-187.5 406.5,-168.5 339.5,-168.5"/>
<text text-anchor="middle" x="373" y="-175.5" font-family="Helvetica,sans-Serif" font-size="10.00">ticketlock.h</text>
</a>
</g>
</g>
<!-- Node6&#45;&gt;Node11 -->
<g id="edge5" class="edge"><title>Node6&#45;&gt;Node11</title>
<path fill="none" stroke="midnightblue" d="M310.194,-218.901C325.78,-208.999 346.13,-196.071 359.377,-187.655"/>
<polygon fill="midnightblue" stroke="midnightblue" points="308.221,-216.007 301.657,-224.324 311.974,-221.916 308.221,-216.007"/>
</g>
<!-- Node12 -->
<g id="node7" class="node"><title>Node12</title>
<g id="a_node7"><a xlink:href="arch_2x86__32-linux_2odp_2api_2abi_2ticketlock_8h_source.html" target="_top" xlink:title="ticketlock.h">
<polygon fill="white" stroke="black" points="424.5,-168.5 424.5,-187.5 491.5,-187.5 491.5,-168.5 424.5,-168.5"/>
<text text-anchor="middle" x="458" y="-175.5" font-family="Helvetica,sans-Serif" font-size="10.00">ticketlock.h</text>
</a>
</g>
</g>
<!-- Node6&#45;&gt;Node12 -->
<g id="edge6" class="edge"><title>Node6&#45;&gt;Node12</title>
<path fill="none" stroke="midnightblue" d="M324.819,-221.304C356.852,-211.129 402.515,-196.625 431.189,-187.516"/>
<polygon fill="midnightblue" stroke="midnightblue" points="323.408,-218.08 314.937,-224.444 325.527,-224.752 323.408,-218.08"/>
</g>
<!-- Node13 -->
<g id="node8" class="node"><title>Node13</title>
<g id="a_node8"><a xlink:href="arch_2x86__64-linux_2odp_2api_2abi_2ticketlock_8h_source.html" target="_top" xlink:title="ticketlock.h">
<polygon fill="white" stroke="black" points="509.5,-168.5 509.5,-187.5 576.5,-187.5 576.5,-168.5 509.5,-168.5"/>
<text text-anchor="middle" x="543" y="-175.5" font-family="Helvetica,sans-Serif" font-size="10.00">ticketlock.h</text>
</a>
</g>
</g>
<!-- Node6&#45;&gt;Node13 -->
<g id="edge7" class="edge"><title>Node6&#45;&gt;Node13</title>
<path fill="none" stroke="midnightblue" d="M331.531,-223.782C381.857,-213.124 463.612,-195.812 509.327,-186.131"/>
<polygon fill="midnightblue" stroke="midnightblue" points="330.657,-220.389 321.599,-225.885 332.107,-227.237 330.657,-220.389"/>
</g>
<!-- Node14 -->
<g id="node9" class="node"><title>Node14</title>
<g id="a_node9"><a xlink:href="api_2ticketlock_8h.html" target="_top" xlink:title="ODP ticketlock. ">
<polygon fill="white" stroke="black" points="509.5,-112.5 509.5,-131.5 576.5,-131.5 576.5,-112.5 509.5,-112.5"/>
<text text-anchor="middle" x="543" y="-119.5" font-family="Helvetica,sans-Serif" font-size="10.00">ticketlock.h</text>
</a>
</g>
</g>
<!-- Node13&#45;&gt;Node14 -->
<g id="edge8" class="edge"><title>Node13&#45;&gt;Node14</title>
<path fill="none" stroke="midnightblue" d="M543,-157.805C543,-148.91 543,-138.78 543,-131.751"/>
<polygon fill="midnightblue" stroke="midnightblue" points="539.5,-158.083 543,-168.083 546.5,-158.083 539.5,-158.083"/>
</g>
<!-- Node15 -->
<g id="node10" class="node"><title>Node15</title>
<g id="a_node10"><a xlink:href="odp__api_8h.html" target="_top" xlink:title="The OpenDataPlane API. ">
<polygon fill="white" stroke="black" points="513.5,-56.5 513.5,-75.5 572.5,-75.5 572.5,-56.5 513.5,-56.5"/>
<text text-anchor="middle" x="543" y="-63.5" font-family="Helvetica,sans-Serif" font-size="10.00">odp_api.h</text>
</a>
</g>
</g>
<!-- Node14&#45;&gt;Node15 -->
<g id="edge9" class="edge"><title>Node14&#45;&gt;Node15</title>
<path fill="none" stroke="midnightblue" d="M543,-101.805C543,-92.9102 543,-82.7798 543,-75.7511"/>
<polygon fill="midnightblue" stroke="midnightblue" points="539.5,-102.083 543,-112.083 546.5,-102.083 539.5,-102.083"/>
</g>
<!-- Node16 -->
<g id="node11" class="node"><title>Node16</title>
<g id="a_node11"><a xlink:href="odp_8h.html" target="_top" xlink:title="WARNING: THIS FILE IS DEPRECATED AND WILL BE REMOVED!!! ODP APPLICATIONS SHOULD NOW INCLUDE odp_api...">
<polygon fill="white" stroke="black" points="522.5,-0.5 522.5,-19.5 563.5,-19.5 563.5,-0.5 522.5,-0.5"/>
<text text-anchor="middle" x="543" y="-7.5" font-family="Helvetica,sans-Serif" font-size="10.00">odp.h</text>
</a>
</g>
</g>
<!-- Node15&#45;&gt;Node16 -->
<g id="edge10" class="edge"><title>Node15&#45;&gt;Node16</title>
<path fill="none" stroke="midnightblue" d="M543,-45.8045C543,-36.9102 543,-26.7798 543,-19.7511"/>
<polygon fill="midnightblue" stroke="midnightblue" points="539.5,-46.083 543,-56.083 546.5,-46.083 539.5,-46.083"/>
</g>
</g>
</svg>
