<?xml version="1.0" encoding="UTF-8" standalone="no"?>
<!DOCTYPE svg PUBLIC "-//W3C//DTD SVG 1.1//EN"
 "http://www.w3.org/Graphics/SVG/1.1/DTD/svg11.dtd">
<!-- Generated by graphviz version 2.36.0 (20140111.2315)
 -->
<!-- Title: schedule_types.h Pages: 1 -->
<svg width="312pt" height="264pt"
 viewBox="0.00 0.00 312.00 264.00" xmlns="http://www.w3.org/2000/svg" xmlns:xlink="http://www.w3.org/1999/xlink">
<g id="graph0" class="graph" transform="scale(1 1) rotate(0) translate(4 260)">
<title>schedule_types.h</title>
<polygon fill="white" stroke="none" points="-4,4 -4,-260 308,-260 308,4 -4,4"/>
<!-- Node0 -->
<g id="node1" class="node"><title>Node0</title>
<polygon fill="#bfbfbf" stroke="black" points="70.5,-236.5 70.5,-255.5 163.5,-255.5 163.5,-236.5 70.5,-236.5"/>
<text text-anchor="middle" x="117" y="-243.5" font-family="Helvetica,sans-Serif" font-size="10.00">schedule_types.h</text>
</g>
<!-- Node1 -->
<g id="node2" class="node"><title>Node1</title>
<polygon fill="white" stroke="#bfbfbf" points="0,-169 0,-199 106,-199 106,-169 0,-169"/>
<text text-anchor="start" x="8" y="-187" font-family="Helvetica,sans-Serif" font-size="10.00">odp/api/abi/schedule</text>
<text text-anchor="middle" x="53" y="-176" font-family="Helvetica,sans-Serif" font-size="10.00">_types.h</text>
</g>
<!-- Node0&#45;&gt;Node1 -->
<g id="edge1" class="edge"><title>Node0&#45;&gt;Node1</title>
<path fill="none" stroke="midnightblue" d="M107.83,-236.403C99.4055,-228.505 86.5752,-216.477 75.4436,-206.041"/>
<polygon fill="midnightblue" stroke="midnightblue" points="77.7727,-203.427 68.0835,-199.141 72.9851,-208.534 77.7727,-203.427"/>
</g>
<!-- Node2 -->
<g id="node3" class="node"><title>Node2</title>
<g id="a_node3"><a xlink:href="api_2spec_2schedule__types_8h.html" target="_top" xlink:title="ODP schedule types. ">
<polygon fill="white" stroke="black" points="124,-169 124,-199 238,-199 238,-169 124,-169"/>
<text text-anchor="start" x="132" y="-187" font-family="Helvetica,sans-Serif" font-size="10.00">odp/api/spec/schedule</text>
<text text-anchor="middle" x="181" y="-176" font-family="Helvetica,sans-Serif" font-size="10.00">_types.h</text>
</a>
</g>
</g>
<!-- Node0&#45;&gt;Node2 -->
<g id="edge2" class="edge"><title>Node0&#45;&gt;Node2</title>
<path fill="none" stroke="midnightblue" d="M126.17,-236.403C134.595,-228.505 147.425,-216.477 158.556,-206.041"/>
<polygon fill="midnightblue" stroke="midnightblue" points="161.015,-208.534 165.916,-199.141 156.227,-203.427 161.015,-208.534"/>
</g>
<!-- Node3 -->
<g id="node4" class="node"><title>Node3</title>
<g id="a_node4"><a xlink:href="visibility__begin_8h_source.html" target="_top" xlink:title="odp/visibility_begin.h">
<polygon fill="white" stroke="black" points="66.5,-0.5 66.5,-19.5 173.5,-19.5 173.5,-0.5 66.5,-0.5"/>
<text text-anchor="middle" x="120" y="-7.5" font-family="Helvetica,sans-Serif" font-size="10.00">odp/visibility_begin.h</text>
</a>
</g>
</g>
<!-- Node2&#45;&gt;Node3 -->
<g id="edge3" class="edge"><title>Node2&#45;&gt;Node3</title>
<path fill="none" stroke="midnightblue" d="M160.227,-168.792C148.421,-159.637 134.369,-146.715 126,-132 107.696,-99.8151 111.728,-54.6775 116.033,-29.6202"/>
<polygon fill="midnightblue" stroke="midnightblue" points="119.501,-30.1199 117.951,-19.6391 112.627,-28.799 119.501,-30.1199"/>
</g>
<!-- Node4 -->
<g id="node5" class="node"><title>Node4</title>
<g id="a_node5"><a xlink:href="support_8h.html" target="_top" xlink:title="ODP support API &#45; platform specific header. ">
<polygon fill="white" stroke="black" points="135,-112.5 135,-131.5 227,-131.5 227,-112.5 135,-112.5"/>
<text text-anchor="middle" x="181" y="-119.5" font-family="Helvetica,sans-Serif" font-size="10.00">odp/api/support.h</text>
</a>
</g>
</g>
<!-- Node2&#45;&gt;Node4 -->
<g id="edge4" class="edge"><title>Node2&#45;&gt;Node4</title>
<path fill="none" stroke="midnightblue" d="M181,-168.781C181,-160.781 181,-150.689 181,-142.017"/>
<polygon fill="midnightblue" stroke="midnightblue" points="184.5,-141.73 181,-131.731 177.5,-141.731 184.5,-141.73"/>
</g>
<!-- Node6 -->
<g id="node7" class="node"><title>Node6</title>
<g id="a_node7"><a xlink:href="visibility__end_8h_source.html" target="_top" xlink:title="odp/visibility_end.h">
<polygon fill="white" stroke="black" points="204,-0.5 204,-19.5 304,-19.5 304,-0.5 204,-0.5"/>
<text text-anchor="middle" x="254" y="-7.5" font-family="Helvetica,sans-Serif" font-size="10.00">odp/visibility_end.h</text>
</a>
</g>
</g>
<!-- Node2&#45;&gt;Node6 -->
<g id="edge8" class="edge"><title>Node2&#45;&gt;Node6</title>
<path fill="none" stroke="midnightblue" d="M201.865,-168.844C213.703,-159.707 227.757,-146.786 236,-132 254.122,-99.4908 255.868,-54.7878 255.166,-29.82"/>
<polygon fill="midnightblue" stroke="midnightblue" points="258.651,-29.4014 254.704,-19.5692 251.658,-29.7167 258.651,-29.4014"/>
</g>
<!-- Node5 -->
<g id="node6" class="node"><title>Node5</title>
<g id="a_node6"><a xlink:href="spec_2support_8h.html" target="_top" xlink:title="ODP support API. ">
<polygon fill="white" stroke="black" points="123,-56.5 123,-75.5 239,-75.5 239,-56.5 123,-56.5"/>
<text text-anchor="middle" x="181" y="-63.5" font-family="Helvetica,sans-Serif" font-size="10.00">odp/api/spec/support.h</text>
</a>
</g>
</g>
<!-- Node4&#45;&gt;Node5 -->
<g id="edge5" class="edge"><title>Node4&#45;&gt;Node5</title>
<path fill="none" stroke="midnightblue" d="M181,-112.083C181,-105.006 181,-94.8611 181,-85.9865"/>
<polygon fill="midnightblue" stroke="midnightblue" points="184.5,-85.751 181,-75.7511 177.5,-85.7511 184.5,-85.751"/>
</g>
<!-- Node5&#45;&gt;Node3 -->
<g id="edge6" class="edge"><title>Node5&#45;&gt;Node3</title>
<path fill="none" stroke="midnightblue" d="M171.199,-56.324C162.182,-48.3414 148.594,-36.3128 137.682,-26.6529"/>
<polygon fill="midnightblue" stroke="midnightblue" points="139.787,-23.8416 129.979,-19.8339 135.147,-29.083 139.787,-23.8416"/>
</g>
<!-- Node5&#45;&gt;Node6 -->
<g id="edge7" class="edge"><title>Node5&#45;&gt;Node6</title>
<path fill="none" stroke="midnightblue" d="M192.729,-56.324C203.837,-48.1066 220.742,-35.6017 233.983,-25.8069"/>
<polygon fill="midnightblue" stroke="midnightblue" points="236.1,-28.5948 242.058,-19.8339 231.937,-22.9671 236.1,-28.5948"/>
</g>
</g>
</svg>
