<?xml version="1.0" encoding="UTF-8" standalone="no"?>
<!DOCTYPE svg PUBLIC "-//W3C//DTD SVG 1.1//EN"
 "http://www.w3.org/Graphics/SVG/1.1/DTD/svg11.dtd">
<!-- Generated by graphviz version 2.36.0 (20140111.2315)
 -->
<!-- Title: event.h Pages: 1 -->
<svg width="821pt" height="364pt"
 viewBox="0.00 0.00 821.00 364.00" xmlns="http://www.w3.org/2000/svg" xmlns:xlink="http://www.w3.org/1999/xlink">
<g id="graph0" class="graph" transform="scale(1 1) rotate(0) translate(4 360)">
<title>event.h</title>
<polygon fill="white" stroke="none" points="-4,4 -4,-360 817,-360 817,4 -4,4"/>
<!-- Node0 -->
<g id="node1" class="node"><title>Node0</title>
<polygon fill="#bfbfbf" stroke="black" points="329.5,-336.5 329.5,-355.5 378.5,-355.5 378.5,-336.5 329.5,-336.5"/>
<text text-anchor="middle" x="354" y="-343.5" font-family="Helvetica,sans-Serif" font-size="10.00">event.h</text>
</g>
<!-- Node1 -->
<g id="node2" class="node"><title>Node1</title>
<g id="a_node2"><a xlink:href="visibility__begin_8h_source.html" target="_top" xlink:title="odp/visibility_begin.h">
<polygon fill="white" stroke="black" points="168.5,-0.5 168.5,-19.5 275.5,-19.5 275.5,-0.5 168.5,-0.5"/>
<text text-anchor="middle" x="222" y="-7.5" font-family="Helvetica,sans-Serif" font-size="10.00">odp/visibility_begin.h</text>
</a>
</g>
</g>
<!-- Node0&#45;&gt;Node1 -->
<g id="edge1" class="edge"><title>Node0&#45;&gt;Node1</title>
<path fill="none" stroke="midnightblue" d="M329.388,-342.735C249.109,-334.676 0,-304.103 0,-235 0,-235 0,-235 0,-121 0,-49.9571 92.4068,-24.7968 157.984,-15.8862"/>
<polygon fill="midnightblue" stroke="midnightblue" points="158.776,-19.3141 168.26,-14.5911 157.901,-12.3691 158.776,-19.3141"/>
</g>
<!-- Node2 -->
<g id="node3" class="node"><title>Node2</title>
<g id="a_node3"><a xlink:href="api_2packet_8h.html" target="_top" xlink:title="ODP packet descriptor. ">
<polygon fill="white" stroke="black" points="309.5,-280.5 309.5,-299.5 398.5,-299.5 398.5,-280.5 309.5,-280.5"/>
<text text-anchor="middle" x="354" y="-287.5" font-family="Helvetica,sans-Serif" font-size="10.00">odp/api/packet.h</text>
</a>
</g>
</g>
<!-- Node0&#45;&gt;Node2 -->
<g id="edge2" class="edge"><title>Node0&#45;&gt;Node2</title>
<path fill="none" stroke="midnightblue" d="M354,-336.083C354,-329.006 354,-318.861 354,-309.986"/>
<polygon fill="midnightblue" stroke="midnightblue" points="357.5,-309.751 354,-299.751 350.5,-309.751 357.5,-309.751"/>
</g>
<!-- Node7 -->
<g id="node8" class="node"><title>Node7</title>
<g id="a_node8"><a xlink:href="visibility__end_8h_source.html" target="_top" xlink:title="odp/visibility_end.h">
<polygon fill="white" stroke="black" points="570,-0.5 570,-19.5 670,-19.5 670,-0.5 570,-0.5"/>
<text text-anchor="middle" x="620" y="-7.5" font-family="Helvetica,sans-Serif" font-size="10.00">odp/visibility_end.h</text>
</a>
</g>
</g>
<!-- Node0&#45;&gt;Node7 -->
<g id="edge23" class="edge"><title>Node0&#45;&gt;Node7</title>
<path fill="none" stroke="midnightblue" d="M378.678,-344.433C474.017,-341.589 813,-325.138 813,-235 813,-235 813,-235 813,-121 813,-58.9676 736.813,-31.4616 680.174,-19.5839"/>
<polygon fill="midnightblue" stroke="midnightblue" points="680.694,-16.1189 670.205,-17.6094 679.334,-22.9855 680.694,-16.1189"/>
</g>
<!-- Node3 -->
<g id="node4" class="node"><title>Node3</title>
<g id="a_node4"><a xlink:href="api_2std__types_8h.html" target="_top" xlink:title="Standard C language types and definitions for ODP. ">
<polygon fill="white" stroke="black" points="321,-112.5 321,-131.5 423,-131.5 423,-112.5 321,-112.5"/>
<text text-anchor="middle" x="372" y="-119.5" font-family="Helvetica,sans-Serif" font-size="10.00">odp/api/std_types.h</text>
</a>
</g>
</g>
<!-- Node2&#45;&gt;Node3 -->
<g id="edge3" class="edge"><title>Node2&#45;&gt;Node3</title>
<path fill="none" stroke="midnightblue" d="M309.448,-289.078C244.827,-287.42 136.196,-276.962 169,-224 200.64,-172.919 266.72,-146.845 314.921,-134.117"/>
<polygon fill="midnightblue" stroke="midnightblue" points="316.075,-137.436 324.917,-131.599 314.365,-130.648 316.075,-137.436"/>
</g>
<!-- Node8 -->
<g id="node9" class="node"><title>Node8</title>
<polygon fill="white" stroke="#bfbfbf" points="178.5,-224.5 178.5,-243.5 277.5,-243.5 277.5,-224.5 178.5,-224.5"/>
<text text-anchor="middle" x="228" y="-231.5" font-family="Helvetica,sans-Serif" font-size="10.00">odp/api/abi/event.h</text>
</g>
<!-- Node2&#45;&gt;Node8 -->
<g id="edge9" class="edge"><title>Node2&#45;&gt;Node8</title>
<path fill="none" stroke="midnightblue" d="M334.035,-280.444C313.391,-271.596 280.937,-257.687 257.368,-247.586"/>
<polygon fill="midnightblue" stroke="midnightblue" points="258.442,-244.239 247.872,-243.516 255.684,-250.673 258.442,-244.239"/>
</g>
<!-- Node9 -->
<g id="node10" class="node"><title>Node9</title>
<polygon fill="white" stroke="#bfbfbf" points="295.5,-224.5 295.5,-243.5 412.5,-243.5 412.5,-224.5 295.5,-224.5"/>
<text text-anchor="middle" x="354" y="-231.5" font-family="Helvetica,sans-Serif" font-size="10.00">odp/api/abi/packet_io.h</text>
</g>
<!-- Node2&#45;&gt;Node9 -->
<g id="edge10" class="edge"><title>Node2&#45;&gt;Node9</title>
<path fill="none" stroke="midnightblue" d="M354,-280.083C354,-273.006 354,-262.861 354,-253.986"/>
<polygon fill="midnightblue" stroke="midnightblue" points="357.5,-253.751 354,-243.751 350.5,-253.751 357.5,-253.751"/>
</g>
<!-- Node10 -->
<g id="node11" class="node"><title>Node10</title>
<polygon fill="white" stroke="#bfbfbf" points="431,-224.5 431,-243.5 535,-243.5 535,-224.5 431,-224.5"/>
<text text-anchor="middle" x="483" y="-231.5" font-family="Helvetica,sans-Serif" font-size="10.00">odp/api/abi/packet.h</text>
</g>
<!-- Node2&#45;&gt;Node10 -->
<g id="edge11" class="edge"><title>Node2&#45;&gt;Node10</title>
<path fill="none" stroke="midnightblue" d="M374.44,-280.444C395.67,-271.557 429.099,-257.563 453.255,-247.451"/>
<polygon fill="midnightblue" stroke="midnightblue" points="454.782,-250.606 462.655,-243.516 452.079,-244.149 454.782,-250.606"/>
</g>
<!-- Node11 -->
<g id="node12" class="node"><title>Node11</title>
<polygon fill="white" stroke="#bfbfbf" points="685,-224.5 685,-243.5 785,-243.5 785,-224.5 685,-224.5"/>
<text text-anchor="middle" x="735" y="-231.5" font-family="Helvetica,sans-Serif" font-size="10.00">odp/api/abi/buffer.h</text>
</g>
<!-- Node2&#45;&gt;Node11 -->
<g id="edge12" class="edge"><title>Node2&#45;&gt;Node11</title>
<path fill="none" stroke="midnightblue" d="M398.679,-282.875C460.71,-274.339 576.427,-258.302 675,-244 675.101,-243.985 675.202,-243.971 675.303,-243.956"/>
<polygon fill="midnightblue" stroke="midnightblue" points="675.527,-247.461 684.915,-242.55 674.514,-240.534 675.527,-247.461"/>
</g>
<!-- Node12 -->
<g id="node13" class="node"><title>Node12</title>
<polygon fill="white" stroke="#bfbfbf" points="28.5,-224.5 28.5,-243.5 121.5,-243.5 121.5,-224.5 28.5,-224.5"/>
<text text-anchor="middle" x="75" y="-231.5" font-family="Helvetica,sans-Serif" font-size="10.00">odp/api/abi/pool.h</text>
</g>
<!-- Node2&#45;&gt;Node12 -->
<g id="edge13" class="edge"><title>Node2&#45;&gt;Node12</title>
<path fill="none" stroke="midnightblue" d="M309.792,-280.444C260.713,-270.944 181.49,-255.611 128.836,-245.42"/>
<polygon fill="midnightblue" stroke="midnightblue" points="129.484,-241.98 119.002,-243.516 128.154,-248.853 129.484,-241.98"/>
</g>
<!-- Node13 -->
<g id="node14" class="node"><title>Node13</title>
<g id="a_node14"><a xlink:href="api_2spec_2packet_8h.html" target="_top" xlink:title="ODP packet descriptor. ">
<polygon fill="white" stroke="black" points="553.5,-224.5 553.5,-243.5 666.5,-243.5 666.5,-224.5 553.5,-224.5"/>
<text text-anchor="middle" x="610" y="-231.5" font-family="Helvetica,sans-Serif" font-size="10.00">odp/api/spec/packet.h</text>
</a>
</g>
</g>
<!-- Node2&#45;&gt;Node13 -->
<g id="edge14" class="edge"><title>Node2&#45;&gt;Node13</title>
<path fill="none" stroke="midnightblue" d="M394.564,-280.444C439.316,-271.004 511.383,-255.802 559.695,-245.611"/>
<polygon fill="midnightblue" stroke="midnightblue" points="560.564,-249.005 569.626,-243.516 559.119,-242.156 560.564,-249.005"/>
</g>
<!-- Node4 -->
<g id="node5" class="node"><title>Node4</title>
<polygon fill="white" stroke="#bfbfbf" points="394,-56.5 394,-75.5 512,-75.5 512,-56.5 394,-56.5"/>
<text text-anchor="middle" x="453" y="-63.5" font-family="Helvetica,sans-Serif" font-size="10.00">odp/api/abi/std_types.h</text>
</g>
<!-- Node3&#45;&gt;Node4 -->
<g id="edge4" class="edge"><title>Node3&#45;&gt;Node4</title>
<path fill="none" stroke="midnightblue" d="M385.014,-112.324C397.532,-103.979 416.682,-91.2122 431.471,-81.3524"/>
<polygon fill="midnightblue" stroke="midnightblue" points="433.639,-84.1137 440.018,-75.6545 429.756,-78.2894 433.639,-84.1137"/>
</g>
<!-- Node5 -->
<g id="node6" class="node"><title>Node5</title>
<g id="a_node6"><a xlink:href="api_2spec_2std__types_8h.html" target="_top" xlink:title="Standard C language types and definitions for ODP. ">
<polygon fill="white" stroke="black" points="250,-56.5 250,-75.5 376,-75.5 376,-56.5 250,-56.5"/>
<text text-anchor="middle" x="313" y="-63.5" font-family="Helvetica,sans-Serif" font-size="10.00">odp/api/spec/std_types.h</text>
</a>
</g>
</g>
<!-- Node3&#45;&gt;Node5 -->
<g id="edge5" class="edge"><title>Node3&#45;&gt;Node5</title>
<path fill="none" stroke="midnightblue" d="M362.521,-112.324C353.799,-104.341 340.657,-92.3128 330.102,-82.6529"/>
<polygon fill="midnightblue" stroke="midnightblue" points="332.392,-80.0036 322.652,-75.8339 327.666,-85.1674 332.392,-80.0036"/>
</g>
<!-- Node5&#45;&gt;Node1 -->
<g id="edge6" class="edge"><title>Node5&#45;&gt;Node1</title>
<path fill="none" stroke="midnightblue" d="M298.379,-56.324C284.051,-47.8215 261.987,-34.7288 245.251,-24.7975"/>
<polygon fill="midnightblue" stroke="midnightblue" points="246.97,-21.7478 236.584,-19.6545 243.398,-27.7677 246.97,-21.7478"/>
</g>
<!-- Node6 -->
<g id="node7" class="node"><title>Node6</title>
<polygon fill="white" stroke="#bfbfbf" points="293.5,-0.5 293.5,-19.5 342.5,-19.5 342.5,-0.5 293.5,-0.5"/>
<text text-anchor="middle" x="318" y="-7.5" font-family="Helvetica,sans-Serif" font-size="10.00">stdint.h</text>
</g>
<!-- Node5&#45;&gt;Node6 -->
<g id="edge7" class="edge"><title>Node5&#45;&gt;Node6</title>
<path fill="none" stroke="midnightblue" d="M313.826,-56.083C314.481,-49.0059 315.42,-38.8611 316.242,-29.9865"/>
<polygon fill="midnightblue" stroke="midnightblue" points="319.753,-30.0312 317.19,-19.7511 312.783,-29.3858 319.753,-30.0312"/>
</g>
<!-- Node5&#45;&gt;Node7 -->
<g id="edge8" class="edge"><title>Node5&#45;&gt;Node7</title>
<path fill="none" stroke="midnightblue" d="M361.645,-56.4435C415.874,-46.9049 503.548,-31.4834 561.482,-21.293"/>
<polygon fill="midnightblue" stroke="midnightblue" points="562.34,-24.696 571.583,-19.5164 561.127,-17.8018 562.34,-24.696"/>
</g>
<!-- Node13&#45;&gt;Node1 -->
<g id="edge15" class="edge"><title>Node13&#45;&gt;Node1</title>
<path fill="none" stroke="midnightblue" d="M571.598,-224.45C513.134,-210.469 399.378,-179.43 312,-132 276.678,-112.827 263.483,-109.313 241,-76 231.648,-62.1435 226.824,-43.6274 224.382,-29.9024"/>
<polygon fill="midnightblue" stroke="midnightblue" points="227.797,-29.0739 222.844,-19.7077 220.875,-30.1179 227.797,-29.0739"/>
</g>
<!-- Node13&#45;&gt;Node7 -->
<g id="edge22" class="edge"><title>Node13&#45;&gt;Node7</title>
<path fill="none" stroke="midnightblue" d="M613.645,-224.289C620.64,-207.047 635.721,-167.19 641,-132 643.158,-117.613 644.552,-76.5451 640,-56 637.919,-46.6097 633.805,-36.7822 629.846,-28.7153"/>
<polygon fill="midnightblue" stroke="midnightblue" points="632.817,-26.8424 625.08,-19.6041 626.614,-30.0873 632.817,-26.8424"/>
</g>
<!-- Node14 -->
<g id="node15" class="node"><title>Node14</title>
<g id="a_node15"><a xlink:href="api_2time_8h.html" target="_top" xlink:title="ODP time. ">
<polygon fill="white" stroke="black" points="504,-168.5 504,-187.5 582,-187.5 582,-168.5 504,-168.5"/>
<text text-anchor="middle" x="543" y="-175.5" font-family="Helvetica,sans-Serif" font-size="10.00">odp/api/time.h</text>
</a>
</g>
</g>
<!-- Node13&#45;&gt;Node14 -->
<g id="edge16" class="edge"><title>Node13&#45;&gt;Node14</title>
<path fill="none" stroke="midnightblue" d="M599.235,-224.324C589.234,-216.263 574.113,-204.077 562.07,-194.369"/>
<polygon fill="midnightblue" stroke="midnightblue" points="563.943,-191.384 553.961,-187.834 559.55,-196.834 563.943,-191.384"/>
</g>
<!-- Node14&#45;&gt;Node3 -->
<g id="edge17" class="edge"><title>Node14&#45;&gt;Node3</title>
<path fill="none" stroke="midnightblue" d="M515.905,-168.444C487.012,-159.32 441.075,-144.813 408.895,-134.651"/>
<polygon fill="midnightblue" stroke="midnightblue" points="409.559,-131.19 398.969,-131.516 407.451,-137.865 409.559,-131.19"/>
</g>
<!-- Node15 -->
<g id="node16" class="node"><title>Node15</title>
<polygon fill="white" stroke="#bfbfbf" points="538,-112.5 538,-131.5 632,-131.5 632,-112.5 538,-112.5"/>
<text text-anchor="middle" x="585" y="-119.5" font-family="Helvetica,sans-Serif" font-size="10.00">odp/api/abi/time.h</text>
</g>
<!-- Node14&#45;&gt;Node15 -->
<g id="edge18" class="edge"><title>Node14&#45;&gt;Node15</title>
<path fill="none" stroke="midnightblue" d="M549.935,-168.083C555.929,-160.377 564.752,-149.033 572.048,-139.653"/>
<polygon fill="midnightblue" stroke="midnightblue" points="574.817,-141.793 578.194,-131.751 569.291,-137.496 574.817,-141.793"/>
</g>
<!-- Node16 -->
<g id="node17" class="node"><title>Node16</title>
<g id="a_node17"><a xlink:href="api_2spec_2time_8h.html" target="_top" xlink:title="ODP time. ">
<polygon fill="white" stroke="black" points="530,-56.5 530,-75.5 632,-75.5 632,-56.5 530,-56.5"/>
<text text-anchor="middle" x="581" y="-63.5" font-family="Helvetica,sans-Serif" font-size="10.00">odp/api/spec/time.h</text>
</a>
</g>
</g>
<!-- Node14&#45;&gt;Node16 -->
<g id="edge19" class="edge"><title>Node14&#45;&gt;Node16</title>
<path fill="none" stroke="midnightblue" d="M537.747,-168.212C530.793,-155.356 520.362,-130.898 529,-112 534.777,-99.3602 546.052,-88.911 556.631,-81.2737"/>
<polygon fill="midnightblue" stroke="midnightblue" points="558.849,-84.0009 565.217,-75.5333 554.958,-78.1817 558.849,-84.0009"/>
</g>
<!-- Node16&#45;&gt;Node1 -->
<g id="edge20" class="edge"><title>Node16&#45;&gt;Node1</title>
<path fill="none" stroke="midnightblue" d="M529.945,-57.3205C465.645,-47.6485 355.165,-31.0304 285.488,-20.5497"/>
<polygon fill="midnightblue" stroke="midnightblue" points="285.923,-17.0759 275.514,-19.0494 284.882,-23.998 285.923,-17.0759"/>
</g>
<!-- Node16&#45;&gt;Node7 -->
<g id="edge21" class="edge"><title>Node16&#45;&gt;Node7</title>
<path fill="none" stroke="midnightblue" d="M587.44,-56.083C592.949,-48.4554 601.031,-37.2645 607.765,-27.9408"/>
<polygon fill="midnightblue" stroke="midnightblue" points="610.662,-29.9071 613.68,-19.7511 604.987,-25.8087 610.662,-29.9071"/>
</g>
</g>
</svg>
