<?xml version="1.0" encoding="UTF-8" standalone="no"?>
<!DOCTYPE svg PUBLIC "-//W3C//DTD SVG 1.1//EN"
 "http://www.w3.org/Graphics/SVG/1.1/DTD/svg11.dtd">
<!-- Generated by graphviz version 2.36.0 (20140111.2315)
 -->
<!-- Title: thread.h Pages: 1 -->
<svg width="413pt" height="152pt"
 viewBox="0.00 0.00 413.00 152.00" xmlns="http://www.w3.org/2000/svg" xmlns:xlink="http://www.w3.org/1999/xlink">
<g id="graph0" class="graph" transform="scale(1 1) rotate(0) translate(4 148)">
<title>thread.h</title>
<polygon fill="white" stroke="none" points="-4,4 -4,-148 409,-148 409,4 -4,4"/>
<!-- Node0 -->
<g id="node1" class="node"><title>Node0</title>
<polygon fill="#bfbfbf" stroke="black" points="144,-124.5 144,-143.5 196,-143.5 196,-124.5 144,-124.5"/>
<text text-anchor="middle" x="170" y="-131.5" font-family="Helvetica,sans-Serif" font-size="10.00">thread.h</text>
</g>
<!-- Node1 -->
<g id="node2" class="node"><title>Node1</title>
<g id="a_node2"><a xlink:href="thread__types_8h.html" target="_top" xlink:title="ODP thread API types. ">
<polygon fill="white" stroke="black" points="-1,-57 -1,-87 101,-87 101,-57 -1,-57"/>
<text text-anchor="start" x="7" y="-75" font-family="Helvetica,sans-Serif" font-size="10.00">odp/api/spec/thread</text>
<text text-anchor="middle" x="50" y="-64" font-family="Helvetica,sans-Serif" font-size="10.00">_types.h</text>
</a>
</g>
</g>
<!-- Node0&#45;&gt;Node1 -->
<g id="edge1" class="edge"><title>Node0&#45;&gt;Node1</title>
<path fill="none" stroke="midnightblue" d="M152.807,-124.403C135.795,-115.898 109.204,-102.602 87.327,-91.6635"/>
<polygon fill="midnightblue" stroke="midnightblue" points="88.7912,-88.4825 78.2816,-87.1408 85.6606,-94.7435 88.7912,-88.4825"/>
</g>
<!-- Node2 -->
<g id="node3" class="node"><title>Node2</title>
<polygon fill="white" stroke="#bfbfbf" points="119,-62.5 119,-81.5 221,-81.5 221,-62.5 119,-62.5"/>
<text text-anchor="middle" x="170" y="-69.5" font-family="Helvetica,sans-Serif" font-size="10.00">odp/api/abi/thread.h</text>
</g>
<!-- Node0&#45;&gt;Node2 -->
<g id="edge2" class="edge"><title>Node0&#45;&gt;Node2</title>
<path fill="none" stroke="midnightblue" d="M170,-124.403C170,-115.938 170,-102.728 170,-91.8199"/>
<polygon fill="midnightblue" stroke="midnightblue" points="173.5,-91.5806 170,-81.5806 166.5,-91.5806 173.5,-91.5806"/>
</g>
<!-- Node3 -->
<g id="node4" class="node"><title>Node3</title>
<g id="a_node4"><a xlink:href="api_2spec_2thread_8h.html" target="_top" xlink:title="ODP thread API. ">
<polygon fill="white" stroke="black" points="239,-62.5 239,-81.5 349,-81.5 349,-62.5 239,-62.5"/>
<text text-anchor="middle" x="294" y="-69.5" font-family="Helvetica,sans-Serif" font-size="10.00">odp/api/spec/thread.h</text>
</a>
</g>
</g>
<!-- Node0&#45;&gt;Node3 -->
<g id="edge3" class="edge"><title>Node0&#45;&gt;Node3</title>
<path fill="none" stroke="midnightblue" d="M187.766,-124.403C208.484,-114.379 242.952,-97.7006 266.989,-86.0699"/>
<polygon fill="midnightblue" stroke="midnightblue" points="268.79,-89.0868 276.267,-81.5806 265.741,-82.7857 268.79,-89.0868"/>
</g>
<!-- Node4 -->
<g id="node5" class="node"><title>Node4</title>
<g id="a_node5"><a xlink:href="visibility__begin_8h_source.html" target="_top" xlink:title="odp/visibility_begin.h">
<polygon fill="white" stroke="black" points="179.5,-0.5 179.5,-19.5 286.5,-19.5 286.5,-0.5 179.5,-0.5"/>
<text text-anchor="middle" x="233" y="-7.5" font-family="Helvetica,sans-Serif" font-size="10.00">odp/visibility_begin.h</text>
</a>
</g>
</g>
<!-- Node3&#45;&gt;Node4 -->
<g id="edge4" class="edge"><title>Node3&#45;&gt;Node4</title>
<path fill="none" stroke="midnightblue" d="M285.26,-62.4035C275.838,-53.1361 260.636,-38.1828 249.051,-26.7876"/>
<polygon fill="midnightblue" stroke="midnightblue" points="251.307,-24.0978 241.724,-19.5806 246.399,-29.0883 251.307,-24.0978"/>
</g>
<!-- Node5 -->
<g id="node6" class="node"><title>Node5</title>
<g id="a_node6"><a xlink:href="visibility__end_8h_source.html" target="_top" xlink:title="odp/visibility_end.h">
<polygon fill="white" stroke="black" points="305,-0.5 305,-19.5 405,-19.5 405,-0.5 305,-0.5"/>
<text text-anchor="middle" x="355" y="-7.5" font-family="Helvetica,sans-Serif" font-size="10.00">odp/visibility_end.h</text>
</a>
</g>
</g>
<!-- Node3&#45;&gt;Node5 -->
<g id="edge5" class="edge"><title>Node3&#45;&gt;Node5</title>
<path fill="none" stroke="midnightblue" d="M302.74,-62.4035C312.162,-53.1361 327.364,-38.1828 338.949,-26.7876"/>
<polygon fill="midnightblue" stroke="midnightblue" points="341.601,-29.0883 346.276,-19.5806 336.693,-24.0978 341.601,-29.0883"/>
</g>
</g>
</svg>
