<?xml version="1.0" encoding="UTF-8" standalone="no"?>
<!DOCTYPE svg PUBLIC "-//W3C//DTD SVG 1.1//EN"
 "http://www.w3.org/Graphics/SVG/1.1/DTD/svg11.dtd">
<!-- Generated by graphviz version 2.36.0 (20140111.2315)
 -->
<!-- Title: thrmask.h Pages: 1 -->
<svg width="313pt" height="196pt"
 viewBox="0.00 0.00 313.00 196.00" xmlns="http://www.w3.org/2000/svg" xmlns:xlink="http://www.w3.org/1999/xlink">
<g id="graph0" class="graph" transform="scale(1 1) rotate(0) translate(4 192)">
<title>thrmask.h</title>
<polygon fill="white" stroke="none" points="-4,4 -4,-192 309,-192 309,4 -4,4"/>
<!-- Node0 -->
<g id="node1" class="node"><title>Node0</title>
<polygon fill="#bfbfbf" stroke="black" points="95,-168.5 95,-187.5 155,-187.5 155,-168.5 95,-168.5"/>
<text text-anchor="middle" x="125" y="-175.5" font-family="Helvetica,sans-Serif" font-size="10.00">thrmask.h</text>
</g>
<!-- Node1 -->
<g id="node2" class="node"><title>Node1</title>
<g id="a_node2"><a xlink:href="api_2cpumask_8h.html" target="_top" xlink:title="ODP CPU masks and enumeration. ">
<polygon fill="white" stroke="black" points="75.5,-112.5 75.5,-131.5 174.5,-131.5 174.5,-112.5 75.5,-112.5"/>
<text text-anchor="middle" x="125" y="-119.5" font-family="Helvetica,sans-Serif" font-size="10.00">odp/api/cpumask.h</text>
</a>
</g>
</g>
<!-- Node0&#45;&gt;Node1 -->
<g id="edge1" class="edge"><title>Node0&#45;&gt;Node1</title>
<path fill="none" stroke="midnightblue" d="M125,-168.083C125,-161.006 125,-150.861 125,-141.986"/>
<polygon fill="midnightblue" stroke="midnightblue" points="128.5,-141.751 125,-131.751 121.5,-141.751 128.5,-141.751"/>
</g>
<!-- Node2 -->
<g id="node3" class="node"><title>Node2</title>
<polygon fill="white" stroke="#bfbfbf" points="-0.5,-56.5 -0.5,-75.5 114.5,-75.5 114.5,-56.5 -0.5,-56.5"/>
<text text-anchor="middle" x="57" y="-63.5" font-family="Helvetica,sans-Serif" font-size="10.00">odp/api/abi/cpumask.h</text>
</g>
<!-- Node1&#45;&gt;Node2 -->
<g id="edge2" class="edge"><title>Node1&#45;&gt;Node2</title>
<path fill="none" stroke="midnightblue" d="M114.075,-112.324C103.825,-104.185 88.2794,-91.8395 75.999,-82.0874"/>
<polygon fill="midnightblue" stroke="midnightblue" points="78.1319,-79.3119 68.1242,-75.8339 73.7787,-84.7937 78.1319,-79.3119"/>
</g>
<!-- Node3 -->
<g id="node4" class="node"><title>Node3</title>
<g id="a_node4"><a xlink:href="api_2spec_2cpumask_8h.html" target="_top" xlink:title="ODP CPU masks and enumeration. ">
<polygon fill="white" stroke="black" points="132.5,-56.5 132.5,-75.5 255.5,-75.5 255.5,-56.5 132.5,-56.5"/>
<text text-anchor="middle" x="194" y="-63.5" font-family="Helvetica,sans-Serif" font-size="10.00">odp/api/spec/cpumask.h</text>
</a>
</g>
</g>
<!-- Node1&#45;&gt;Node3 -->
<g id="edge3" class="edge"><title>Node1&#45;&gt;Node3</title>
<path fill="none" stroke="midnightblue" d="M136.086,-112.324C146.486,-104.185 162.261,-91.8395 174.722,-82.0874"/>
<polygon fill="midnightblue" stroke="midnightblue" points="176.994,-84.7533 182.712,-75.8339 172.68,-79.2407 176.994,-84.7533"/>
</g>
<!-- Node4 -->
<g id="node5" class="node"><title>Node4</title>
<g id="a_node5"><a xlink:href="visibility__begin_8h_source.html" target="_top" xlink:title="odp/visibility_begin.h">
<polygon fill="white" stroke="black" points="79.5,-0.5 79.5,-19.5 186.5,-19.5 186.5,-0.5 79.5,-0.5"/>
<text text-anchor="middle" x="133" y="-7.5" font-family="Helvetica,sans-Serif" font-size="10.00">odp/visibility_begin.h</text>
</a>
</g>
</g>
<!-- Node3&#45;&gt;Node4 -->
<g id="edge4" class="edge"><title>Node3&#45;&gt;Node4</title>
<path fill="none" stroke="midnightblue" d="M184.199,-56.324C175.182,-48.3414 161.594,-36.3128 150.682,-26.6529"/>
<polygon fill="midnightblue" stroke="midnightblue" points="152.787,-23.8416 142.979,-19.8339 148.147,-29.083 152.787,-23.8416"/>
</g>
<!-- Node5 -->
<g id="node6" class="node"><title>Node5</title>
<g id="a_node6"><a xlink:href="visibility__end_8h_source.html" target="_top" xlink:title="odp/visibility_end.h">
<polygon fill="white" stroke="black" points="205,-0.5 205,-19.5 305,-19.5 305,-0.5 205,-0.5"/>
<text text-anchor="middle" x="255" y="-7.5" font-family="Helvetica,sans-Serif" font-size="10.00">odp/visibility_end.h</text>
</a>
</g>
</g>
<!-- Node3&#45;&gt;Node5 -->
<g id="edge5" class="edge"><title>Node3&#45;&gt;Node5</title>
<path fill="none" stroke="midnightblue" d="M203.801,-56.324C212.818,-48.3414 226.406,-36.3128 237.318,-26.6529"/>
<polygon fill="midnightblue" stroke="midnightblue" points="239.853,-29.083 245.021,-19.8339 235.213,-23.8416 239.853,-29.083"/>
</g>
</g>
</svg>
