<?xml version="1.0" encoding="UTF-8" standalone="no"?>
<!DOCTYPE svg PUBLIC "-//W3C//DTD SVG 1.1//EN"
 "http://www.w3.org/Graphics/SVG/1.1/DTD/svg11.dtd">
<!-- Generated by graphviz version 2.36.0 (20140111.2315)
 -->
<!-- Title: shared_memory.h Pages: 1 -->
<svg width="102pt" height="196pt"
 viewBox="0.00 0.00 102.00 196.00" xmlns="http://www.w3.org/2000/svg" xmlns:xlink="http://www.w3.org/1999/xlink">
<g id="graph0" class="graph" transform="scale(1 1) rotate(0) translate(4 192)">
<title>shared_memory.h</title>
<polygon fill="white" stroke="none" points="-4,4 -4,-192 98,-192 98,4 -4,4"/>
<!-- Node21 -->
<g id="node1" class="node"><title>Node21</title>
<polygon fill="#bfbfbf" stroke="black" points="-0.5,-168.5 -0.5,-187.5 94.5,-187.5 94.5,-168.5 -0.5,-168.5"/>
<text text-anchor="middle" x="47" y="-175.5" font-family="Helvetica,sans-Serif" font-size="10.00">shared_memory.h</text>
</g>
<!-- Node22 -->
<g id="node2" class="node"><title>Node22</title>
<g id="a_node2"><a xlink:href="api_2shared__memory_8h.html" target="_top" xlink:title="ODP shared memory. ">
<polygon fill="white" stroke="black" points="-0.5,-112.5 -0.5,-131.5 94.5,-131.5 94.5,-112.5 -0.5,-112.5"/>
<text text-anchor="middle" x="47" y="-119.5" font-family="Helvetica,sans-Serif" font-size="10.00">shared_memory.h</text>
</a>
</g>
</g>
<!-- Node21&#45;&gt;Node22 -->
<g id="edge1" class="edge"><title>Node21&#45;&gt;Node22</title>
<path fill="none" stroke="midnightblue" d="M47,-157.805C47,-148.91 47,-138.78 47,-131.751"/>
<polygon fill="midnightblue" stroke="midnightblue" points="43.5001,-158.083 47,-168.083 50.5001,-158.083 43.5001,-158.083"/>
</g>
<!-- Node23 -->
<g id="node3" class="node"><title>Node23</title>
<g id="a_node3"><a xlink:href="odp__api_8h.html" target="_top" xlink:title="The OpenDataPlane API. ">
<polygon fill="white" stroke="black" points="17.5,-56.5 17.5,-75.5 76.5,-75.5 76.5,-56.5 17.5,-56.5"/>
<text text-anchor="middle" x="47" y="-63.5" font-family="Helvetica,sans-Serif" font-size="10.00">odp_api.h</text>
</a>
</g>
</g>
<!-- Node22&#45;&gt;Node23 -->
<g id="edge2" class="edge"><title>Node22&#45;&gt;Node23</title>
<path fill="none" stroke="midnightblue" d="M47,-101.805C47,-92.9102 47,-82.7798 47,-75.7511"/>
<polygon fill="midnightblue" stroke="midnightblue" points="43.5001,-102.083 47,-112.083 50.5001,-102.083 43.5001,-102.083"/>
</g>
<!-- Node24 -->
<g id="node4" class="node"><title>Node24</title>
<g id="a_node4"><a xlink:href="odp_8h.html" target="_top" xlink:title="WARNING: THIS FILE IS DEPRECATED AND WILL BE REMOVED!!! ODP APPLICATIONS SHOULD NOW INCLUDE odp_api...">
<polygon fill="white" stroke="black" points="26.5,-0.5 26.5,-19.5 67.5,-19.5 67.5,-0.5 26.5,-0.5"/>
<text text-anchor="middle" x="47" y="-7.5" font-family="Helvetica,sans-Serif" font-size="10.00">odp.h</text>
</a>
</g>
</g>
<!-- Node23&#45;&gt;Node24 -->
<g id="edge3" class="edge"><title>Node23&#45;&gt;Node24</title>
<path fill="none" stroke="midnightblue" d="M47,-45.8045C47,-36.9102 47,-26.7798 47,-19.7511"/>
<polygon fill="midnightblue" stroke="midnightblue" points="43.5001,-46.083 47,-56.083 50.5001,-46.083 43.5001,-46.083"/>
</g>
</g>
</svg>
