<?xml version="1.0" encoding="UTF-8" standalone="no"?>
<!DOCTYPE svg PUBLIC "-//W3C//DTD SVG 1.1//EN"
 "http://www.w3.org/Graphics/SVG/1.1/DTD/svg11.dtd">
<!-- Generated by graphviz version 2.36.0 (20140111.2315)
 -->
<!-- Title: time.h Pages: 1 -->
<svg width="703pt" height="812pt"
 viewBox="0.00 0.00 703.00 812.00" xmlns="http://www.w3.org/2000/svg" xmlns:xlink="http://www.w3.org/1999/xlink">
<g id="graph0" class="graph" transform="scale(1 1) rotate(0) translate(4 808)">
<title>time.h</title>
<polygon fill="white" stroke="none" points="-4,4 -4,-808 699,-808 699,4 -4,4"/>
<!-- Node9 -->
<g id="node1" class="node"><title>Node9</title>
<polygon fill="#bfbfbf" stroke="black" points="16,-784.5 16,-803.5 60,-803.5 60,-784.5 16,-784.5"/>
<text text-anchor="middle" x="38" y="-791.5" font-family="Helvetica,sans-Serif" font-size="10.00">time.h</text>
</g>
<!-- Node10 -->
<g id="node2" class="node"><title>Node10</title>
<g id="a_node2"><a xlink:href="api_2spec_2packet_8h.html" target="_top" xlink:title="ODP packet descriptor. ">
<polygon fill="white" stroke="black" points="188,-728.5 188,-747.5 242,-747.5 242,-728.5 188,-728.5"/>
<text text-anchor="middle" x="215" y="-735.5" font-family="Helvetica,sans-Serif" font-size="10.00">packet.h</text>
</a>
</g>
</g>
<!-- Node9&#45;&gt;Node10 -->
<g id="edge1" class="edge"><title>Node9&#45;&gt;Node10</title>
<path fill="none" stroke="midnightblue" d="M69.8475,-783.284C103.476,-773.024 155.932,-757.021 187.722,-747.322"/>
<polygon fill="midnightblue" stroke="midnightblue" points="68.6027,-780.004 60.0593,-786.27 70.6454,-786.7 68.6027,-780.004"/>
</g>
<!-- Node14 -->
<g id="node6" class="node"><title>Node14</title>
<g id="a_node6"><a xlink:href="odp__api_8h.html" target="_top" xlink:title="The OpenDataPlane API. ">
<polygon fill="white" stroke="black" points="334.5,-56.5 334.5,-75.5 393.5,-75.5 393.5,-56.5 334.5,-56.5"/>
<text text-anchor="middle" x="364" y="-63.5" font-family="Helvetica,sans-Serif" font-size="10.00">odp_api.h</text>
</a>
</g>
</g>
<!-- Node9&#45;&gt;Node14 -->
<g id="edge41" class="edge"><title>Node9&#45;&gt;Node14</title>
<path fill="none" stroke="midnightblue" d="M27.8573,-775.429C16.6005,-754.236 0,-717.187 0,-683 0,-683 0,-683 0,-177 0,-135.512 29.83,-130.43 67,-112 113.723,-88.8332 268.716,-74.3987 334.289,-69.1922"/>
<polygon fill="midnightblue" stroke="midnightblue" points="24.8191,-777.168 32.7163,-784.231 30.9473,-773.785 24.8191,-777.168"/>
</g>
<!-- Node24 -->
<g id="node16" class="node"><title>Node24</title>
<g id="a_node16"><a xlink:href="api_2spec_2packet__io_8h.html" target="_top" xlink:title="ODP Packet IO. ">
<polygon fill="white" stroke="black" points="185.5,-392.5 185.5,-411.5 252.5,-411.5 252.5,-392.5 185.5,-392.5"/>
<text text-anchor="middle" x="219" y="-399.5" font-family="Helvetica,sans-Serif" font-size="10.00">packet_io.h</text>
</a>
</g>
</g>
<!-- Node9&#45;&gt;Node24 -->
<g id="edge40" class="edge"><title>Node9&#45;&gt;Node24</title>
<path fill="none" stroke="midnightblue" d="M38,-774.251C38,-752.357 38,-715.052 38,-683 38,-683 38,-683 38,-513 38,-444.789 133.036,-417.674 185.379,-407.913"/>
<polygon fill="midnightblue" stroke="midnightblue" points="34.5001,-774.442 38,-784.442 41.5001,-774.442 34.5001,-774.442"/>
</g>
<!-- Node11 -->
<g id="node3" class="node"><title>Node11</title>
<g id="a_node3"><a xlink:href="api_2packet_8h.html" target="_top" xlink:title="ODP packet descriptor. ">
<polygon fill="white" stroke="black" points="310,-672.5 310,-691.5 364,-691.5 364,-672.5 310,-672.5"/>
<text text-anchor="middle" x="337" y="-679.5" font-family="Helvetica,sans-Serif" font-size="10.00">packet.h</text>
</a>
</g>
</g>
<!-- Node10&#45;&gt;Node11 -->
<g id="edge2" class="edge"><title>Node10&#45;&gt;Node11</title>
<path fill="none" stroke="midnightblue" d="M243.539,-724.368C266.386,-714.255 297.805,-700.349 317.759,-691.516"/>
<polygon fill="midnightblue" stroke="midnightblue" points="242.059,-721.196 234.331,-728.444 244.892,-727.597 242.059,-721.196"/>
</g>
<!-- Node12 -->
<g id="node4" class="node"><title>Node12</title>
<g id="a_node4"><a xlink:href="api_2spec_2comp_8h.html" target="_top" xlink:title="ODP Compression. ">
<polygon fill="white" stroke="black" points="105.5,-616.5 105.5,-635.5 154.5,-635.5 154.5,-616.5 105.5,-616.5"/>
<text text-anchor="middle" x="130" y="-623.5" font-family="Helvetica,sans-Serif" font-size="10.00">comp.h</text>
</a>
</g>
</g>
<!-- Node11&#45;&gt;Node12 -->
<g id="edge3" class="edge"><title>Node11&#45;&gt;Node12</title>
<path fill="none" stroke="midnightblue" d="M300.117,-671.378C258.193,-660.442 190.91,-642.89 154.805,-633.471"/>
<polygon fill="midnightblue" stroke="midnightblue" points="299.379,-674.803 309.938,-673.94 301.146,-668.029 299.379,-674.803"/>
</g>
<!-- Node11&#45;&gt;Node14 -->
<g id="edge39" class="edge"><title>Node11&#45;&gt;Node14</title>
<path fill="none" stroke="midnightblue" d="M374.359,-680.941C444.075,-678.658 587,-662.785 587,-571 587,-571 587,-571 587,-177 587,-91.7409 454.273,-72.5632 393.613,-68.2506"/>
<polygon fill="midnightblue" stroke="midnightblue" points="374.14,-677.445 364.23,-681.194 374.314,-684.443 374.14,-677.445"/>
</g>
<!-- Node16 -->
<g id="node8" class="node"><title>Node16</title>
<g id="a_node8"><a xlink:href="api_2spec_2crypto_8h.html" target="_top" xlink:title="ODP crypto. ">
<polygon fill="white" stroke="black" points="311,-448.5 311,-467.5 363,-467.5 363,-448.5 311,-448.5"/>
<text text-anchor="middle" x="337" y="-455.5" font-family="Helvetica,sans-Serif" font-size="10.00">crypto.h</text>
</a>
</g>
</g>
<!-- Node11&#45;&gt;Node16 -->
<g id="edge7" class="edge"><title>Node11&#45;&gt;Node16</title>
<path fill="none" stroke="midnightblue" d="M337,-662.295C337,-616.644 337,-500.854 337,-467.884"/>
<polygon fill="midnightblue" stroke="midnightblue" points="333.5,-662.297 337,-672.297 340.5,-662.297 333.5,-662.297"/>
</g>
<!-- Node20 -->
<g id="node12" class="node"><title>Node20</title>
<g id="a_node12"><a xlink:href="api_2spec_2event_8h.html" target="_top" xlink:title="ODP event. ">
<polygon fill="white" stroke="black" points="365.5,-616.5 365.5,-635.5 414.5,-635.5 414.5,-616.5 365.5,-616.5"/>
<text text-anchor="middle" x="390" y="-623.5" font-family="Helvetica,sans-Serif" font-size="10.00">event.h</text>
</a>
</g>
</g>
<!-- Node11&#45;&gt;Node20 -->
<g id="edge13" class="edge"><title>Node11&#45;&gt;Node20</title>
<path fill="none" stroke="midnightblue" d="M352.981,-664.718C362.322,-655.2 373.746,-643.561 381.411,-635.751"/>
<polygon fill="midnightblue" stroke="midnightblue" points="350.259,-662.494 345.752,-672.083 355.254,-667.398 350.259,-662.494"/>
</g>
<!-- Node11&#45;&gt;Node24 -->
<g id="edge38" class="edge"><title>Node11&#45;&gt;Node24</title>
<path fill="none" stroke="midnightblue" d="M314.53,-666.395C288.752,-647.669 250,-612.6 250,-571 250,-571 250,-571 250,-513 250,-473.913 231.642,-429.844 223.181,-411.607"/>
<polygon fill="midnightblue" stroke="midnightblue" points="312.818,-669.469 323.022,-672.321 316.824,-663.728 312.818,-669.469"/>
</g>
<!-- Node32 -->
<g id="node24" class="node"><title>Node32</title>
<g id="a_node24"><a xlink:href="api_2spec_2packet__flags_8h.html" target="_top" xlink:title="ODP packet flags. ">
<polygon fill="white" stroke="black" points="615,-560.5 615,-579.5 695,-579.5 695,-560.5 615,-560.5"/>
<text text-anchor="middle" x="655" y="-567.5" font-family="Helvetica,sans-Serif" font-size="10.00">packet_flags.h</text>
</a>
</g>
</g>
<!-- Node11&#45;&gt;Node32 -->
<g id="edge35" class="edge"><title>Node11&#45;&gt;Node32</title>
<path fill="none" stroke="midnightblue" d="M374.376,-677.839C437.728,-671.958 563.023,-657.906 601,-636 624.637,-622.365 642.433,-594.231 650.398,-579.864"/>
<polygon fill="midnightblue" stroke="midnightblue" points="373.674,-674.389 364.031,-678.778 374.307,-681.36 373.674,-674.389"/>
</g>
<!-- Node13 -->
<g id="node5" class="node"><title>Node13</title>
<g id="a_node5"><a xlink:href="api_2comp_8h.html" target="_top" xlink:title="ODP crypto. ">
<polygon fill="white" stroke="black" points="105.5,-504.5 105.5,-523.5 154.5,-523.5 154.5,-504.5 105.5,-504.5"/>
<text text-anchor="middle" x="130" y="-511.5" font-family="Helvetica,sans-Serif" font-size="10.00">comp.h</text>
</a>
</g>
</g>
<!-- Node12&#45;&gt;Node13 -->
<g id="edge4" class="edge"><title>Node12&#45;&gt;Node13</title>
<path fill="none" stroke="midnightblue" d="M130,-606.348C130,-582.254 130,-541.308 130,-523.591"/>
<polygon fill="midnightblue" stroke="midnightblue" points="126.5,-606.368 130,-616.368 133.5,-606.369 126.5,-606.368"/>
</g>
<!-- Node13&#45;&gt;Node14 -->
<g id="edge5" class="edge"><title>Node13&#45;&gt;Node14</title>
<path fill="none" stroke="midnightblue" d="M120.272,-495.226C97.5688,-452.028 43,-337.533 43,-235 43,-235 43,-235 43,-177 43,-135.512 73.063,-130.893 110,-112 184.36,-73.9659 285.182,-67.4656 334.444,-66.7394"/>
<polygon fill="midnightblue" stroke="midnightblue" points="117.269,-497.032 125.073,-504.198 123.441,-493.729 117.269,-497.032"/>
</g>
<!-- Node15 -->
<g id="node7" class="node"><title>Node15</title>
<g id="a_node7"><a xlink:href="odp_8h.html" target="_top" xlink:title="WARNING: THIS FILE IS DEPRECATED AND WILL BE REMOVED!!! ODP APPLICATIONS SHOULD NOW INCLUDE odp_api...">
<polygon fill="white" stroke="black" points="343.5,-0.5 343.5,-19.5 384.5,-19.5 384.5,-0.5 343.5,-0.5"/>
<text text-anchor="middle" x="364" y="-7.5" font-family="Helvetica,sans-Serif" font-size="10.00">odp.h</text>
</a>
</g>
</g>
<!-- Node14&#45;&gt;Node15 -->
<g id="edge6" class="edge"><title>Node14&#45;&gt;Node15</title>
<path fill="none" stroke="midnightblue" d="M364,-45.8045C364,-36.9102 364,-26.7798 364,-19.7511"/>
<polygon fill="midnightblue" stroke="midnightblue" points="360.5,-46.083 364,-56.083 367.5,-46.083 360.5,-46.083"/>
</g>
<!-- Node17 -->
<g id="node9" class="node"><title>Node17</title>
<g id="a_node9"><a xlink:href="api_2crypto_8h.html" target="_top" xlink:title="ODP crypto. ">
<polygon fill="white" stroke="black" points="333,-336.5 333,-355.5 385,-355.5 385,-336.5 333,-336.5"/>
<text text-anchor="middle" x="359" y="-343.5" font-family="Helvetica,sans-Serif" font-size="10.00">crypto.h</text>
</a>
</g>
</g>
<!-- Node16&#45;&gt;Node17 -->
<g id="edge8" class="edge"><title>Node16&#45;&gt;Node17</title>
<path fill="none" stroke="midnightblue" d="M340.73,-438.348C345.549,-414.254 353.738,-373.308 357.282,-355.591"/>
<polygon fill="midnightblue" stroke="midnightblue" points="337.256,-437.876 338.726,-448.368 344.12,-439.249 337.256,-437.876"/>
</g>
<!-- Node17&#45;&gt;Node14 -->
<g id="edge12" class="edge"><title>Node17&#45;&gt;Node14</title>
<path fill="none" stroke="midnightblue" d="M367.526,-327.281C377.005,-305.915 391,-268.671 391,-235 391,-235 391,-235 391,-177 391,-138.262 375.011,-94.0045 367.641,-75.6622"/>
<polygon fill="midnightblue" stroke="midnightblue" points="364.326,-325.862 363.316,-336.408 370.682,-328.793 364.326,-325.862"/>
</g>
<!-- Node18 -->
<g id="node10" class="node"><title>Node18</title>
<g id="a_node10"><a xlink:href="api_2spec_2ipsec_8h.html" target="_top" xlink:title="ODP IPSEC API. ">
<polygon fill="white" stroke="black" points="181,-168.5 181,-187.5 229,-187.5 229,-168.5 181,-168.5"/>
<text text-anchor="middle" x="205" y="-175.5" font-family="Helvetica,sans-Serif" font-size="10.00">ipsec.h</text>
</a>
</g>
</g>
<!-- Node17&#45;&gt;Node18 -->
<g id="edge9" class="edge"><title>Node17&#45;&gt;Node18</title>
<path fill="none" stroke="midnightblue" d="M354.407,-326.501C350.355,-312.733 343.446,-293.983 333,-280 301.149,-237.367 247.048,-202.881 220.554,-187.569"/>
<polygon fill="midnightblue" stroke="midnightblue" points="351.065,-327.551 357.057,-336.288 357.822,-325.721 351.065,-327.551"/>
</g>
<!-- Node19 -->
<g id="node11" class="node"><title>Node19</title>
<g id="a_node11"><a xlink:href="api_2ipsec_8h.html" target="_top" xlink:title="ODP IPSEC API &#45; platform specific header. ">
<polygon fill="white" stroke="black" points="181,-112.5 181,-131.5 229,-131.5 229,-112.5 181,-112.5"/>
<text text-anchor="middle" x="205" y="-119.5" font-family="Helvetica,sans-Serif" font-size="10.00">ipsec.h</text>
</a>
</g>
</g>
<!-- Node18&#45;&gt;Node19 -->
<g id="edge10" class="edge"><title>Node18&#45;&gt;Node19</title>
<path fill="none" stroke="midnightblue" d="M205,-157.805C205,-148.91 205,-138.78 205,-131.751"/>
<polygon fill="midnightblue" stroke="midnightblue" points="201.5,-158.083 205,-168.083 208.5,-158.083 201.5,-158.083"/>
</g>
<!-- Node19&#45;&gt;Node14 -->
<g id="edge11" class="edge"><title>Node19&#45;&gt;Node14</title>
<path fill="none" stroke="midnightblue" d="M238.763,-109.533C268.72,-99.3593 311.809,-84.7253 338.835,-75.5467"/>
<polygon fill="midnightblue" stroke="midnightblue" points="237.492,-106.269 229.149,-112.799 239.743,-112.897 237.492,-106.269"/>
</g>
<!-- Node21 -->
<g id="node13" class="node"><title>Node21</title>
<g id="a_node13"><a xlink:href="api_2event_8h.html" target="_top" xlink:title="ODP event. ">
<polygon fill="white" stroke="black" points="393.5,-560.5 393.5,-579.5 442.5,-579.5 442.5,-560.5 393.5,-560.5"/>
<text text-anchor="middle" x="418" y="-567.5" font-family="Helvetica,sans-Serif" font-size="10.00">event.h</text>
</a>
</g>
</g>
<!-- Node20&#45;&gt;Node21 -->
<g id="edge14" class="edge"><title>Node20&#45;&gt;Node21</title>
<path fill="none" stroke="midnightblue" d="M399.342,-606.983C404.095,-597.817 409.656,-587.092 413.462,-579.751"/>
<polygon fill="midnightblue" stroke="midnightblue" points="396.12,-605.594 394.624,-616.083 402.334,-608.817 396.12,-605.594"/>
</g>
<!-- Node21&#45;&gt;Node14 -->
<g id="edge34" class="edge"><title>Node21&#45;&gt;Node14</title>
<path fill="none" stroke="midnightblue" d="M413.969,-550.57C412.391,-542.464 410.776,-532.803 410,-524 407.032,-490.353 408.498,-481.744 410,-448 414.226,-353.051 429,-330.043 429,-235 429,-235 429,-235 429,-177 429,-133.967 391.672,-92.9849 373.591,-75.6585"/>
<polygon fill="midnightblue" stroke="midnightblue" points="410.556,-551.352 416.013,-560.433 417.41,-549.931 410.556,-551.352"/>
</g>
<!-- Node22 -->
<g id="node14" class="node"><title>Node22</title>
<g id="a_node14"><a xlink:href="api_2spec_2queue_8h.html" target="_top" xlink:title="ODP queue. ">
<polygon fill="white" stroke="black" points="419.5,-504.5 419.5,-523.5 470.5,-523.5 470.5,-504.5 419.5,-504.5"/>
<text text-anchor="middle" x="445" y="-511.5" font-family="Helvetica,sans-Serif" font-size="10.00">queue.h</text>
</a>
</g>
</g>
<!-- Node21&#45;&gt;Node22 -->
<g id="edge15" class="edge"><title>Node21&#45;&gt;Node22</title>
<path fill="none" stroke="midnightblue" d="M427.009,-550.983C431.592,-541.817 436.954,-531.092 440.624,-523.751"/>
<polygon fill="midnightblue" stroke="midnightblue" points="423.8,-549.573 422.459,-560.083 430.061,-552.704 423.8,-549.573"/>
</g>
<!-- Node30 -->
<g id="node22" class="node"><title>Node30</title>
<g id="a_node22"><a xlink:href="api_2spec_2schedule_8h.html" target="_top" xlink:title="ODP schedule. ">
<polygon fill="white" stroke="black" points="495,-392.5 495,-411.5 559,-411.5 559,-392.5 495,-392.5"/>
<text text-anchor="middle" x="527" y="-399.5" font-family="Helvetica,sans-Serif" font-size="10.00">schedule.h</text>
</a>
</g>
</g>
<!-- Node21&#45;&gt;Node30 -->
<g id="edge33" class="edge"><title>Node21&#45;&gt;Node30</title>
<path fill="none" stroke="midnightblue" d="M443.096,-555.049C455.28,-547.238 469.336,-536.544 479,-524 506.998,-487.657 520.775,-432.867 525.28,-411.738"/>
<polygon fill="midnightblue" stroke="midnightblue" points="440.964,-552.25 434.247,-560.444 444.607,-558.227 440.964,-552.25"/>
</g>
<!-- Node23 -->
<g id="node15" class="node"><title>Node23</title>
<g id="a_node15"><a xlink:href="api_2queue_8h.html" target="_top" xlink:title="ODP queue. ">
<polygon fill="white" stroke="black" points="419.5,-448.5 419.5,-467.5 470.5,-467.5 470.5,-448.5 419.5,-448.5"/>
<text text-anchor="middle" x="445" y="-455.5" font-family="Helvetica,sans-Serif" font-size="10.00">queue.h</text>
</a>
</g>
</g>
<!-- Node22&#45;&gt;Node23 -->
<g id="edge16" class="edge"><title>Node22&#45;&gt;Node23</title>
<path fill="none" stroke="midnightblue" d="M445,-493.805C445,-484.91 445,-474.78 445,-467.751"/>
<polygon fill="midnightblue" stroke="midnightblue" points="441.5,-494.083 445,-504.083 448.5,-494.083 441.5,-494.083"/>
</g>
<!-- Node23&#45;&gt;Node14 -->
<g id="edge32" class="edge"><title>Node23&#45;&gt;Node14</title>
<path fill="none" stroke="midnightblue" d="M451.04,-438.447C457.553,-416.76 467,-379.672 467,-347 467,-347 467,-347 467,-177 467,-146.205 462.918,-135.487 443,-112 428.401,-94.7853 405.462,-82.7614 388.055,-75.5007"/>
<polygon fill="midnightblue" stroke="midnightblue" points="447.609,-437.69 447.967,-448.279 454.291,-439.778 447.609,-437.69"/>
</g>
<!-- Node23&#45;&gt;Node17 -->
<g id="edge17" class="edge"><title>Node23&#45;&gt;Node17</title>
<path fill="none" stroke="midnightblue" d="M431.922,-440.272C413.332,-416.494 379.944,-373.789 365.717,-355.591"/>
<polygon fill="midnightblue" stroke="midnightblue" points="429.335,-442.646 438.252,-448.368 434.85,-438.335 429.335,-442.646"/>
</g>
<!-- Node23&#45;&gt;Node24 -->
<g id="edge18" class="edge"><title>Node23&#45;&gt;Node24</title>
<path fill="none" stroke="midnightblue" d="M409.324,-448.476C366.356,-438.209 294.727,-421.094 252.674,-411.046"/>
<polygon fill="midnightblue" stroke="midnightblue" points="408.535,-451.886 419.075,-450.806 410.162,-445.077 408.535,-451.886"/>
</g>
<!-- Node23&#45;&gt;Node30 -->
<g id="edge29" class="edge"><title>Node23&#45;&gt;Node30</title>
<path fill="none" stroke="midnightblue" d="M466.833,-442.622C481.813,-432.757 501.197,-419.992 513.858,-411.655"/>
<polygon fill="midnightblue" stroke="midnightblue" points="464.601,-439.901 458.175,-448.324 468.451,-445.747 464.601,-439.901"/>
</g>
<!-- Node25 -->
<g id="node17" class="node"><title>Node25</title>
<g id="a_node17"><a xlink:href="api_2packet__io_8h.html" target="_top" xlink:title="ODP Packet IO. ">
<polygon fill="white" stroke="black" points="154.5,-336.5 154.5,-355.5 221.5,-355.5 221.5,-336.5 154.5,-336.5"/>
<text text-anchor="middle" x="188" y="-343.5" font-family="Helvetica,sans-Serif" font-size="10.00">packet_io.h</text>
</a>
</g>
</g>
<!-- Node24&#45;&gt;Node25 -->
<g id="edge19" class="edge"><title>Node24&#45;&gt;Node25</title>
<path fill="none" stroke="midnightblue" d="M208.824,-383.275C203.526,-374.045 197.283,-363.17 193.024,-355.751"/>
<polygon fill="midnightblue" stroke="midnightblue" points="205.867,-385.153 213.881,-392.083 211.938,-381.668 205.867,-385.153"/>
</g>
<!-- Node25&#45;&gt;Node14 -->
<g id="edge28" class="edge"><title>Node25&#45;&gt;Node14</title>
<path fill="none" stroke="midnightblue" d="M160.506,-331.773C128.803,-314.376 81,-280.587 81,-235 81,-235 81,-235 81,-177 81,-127.298 126.724,-132.504 172,-112 226.266,-87.4246 295.464,-75.4675 334.225,-70.3289"/>
<polygon fill="midnightblue" stroke="midnightblue" points="158.884,-334.875 169.362,-336.441 162.148,-328.682 158.884,-334.875"/>
</g>
<!-- Node25&#45;&gt;Node18 -->
<g id="edge24" class="edge"><title>Node25&#45;&gt;Node18</title>
<path fill="none" stroke="midnightblue" d="M164.751,-330.683C154.516,-322.988 143.568,-312.502 138,-300 134.384,-291.88 136.695,-288.793 138,-280 141.819,-254.271 141.044,-245.949 155,-224 164.65,-208.823 180.784,-195.622 192.108,-187.511"/>
<polygon fill="midnightblue" stroke="midnightblue" points="162.844,-333.621 173.048,-336.474 166.851,-327.881 162.844,-333.621"/>
</g>
<!-- Node26 -->
<g id="node18" class="node"><title>Node26</title>
<g id="a_node18"><a xlink:href="api_2spec_2classification_8h.html" target="_top" xlink:title="ODP classification descriptor. ">
<polygon fill="white" stroke="black" points="147,-280.5 147,-299.5 229,-299.5 229,-280.5 147,-280.5"/>
<text text-anchor="middle" x="188" y="-287.5" font-family="Helvetica,sans-Serif" font-size="10.00">classification.h</text>
</a>
</g>
</g>
<!-- Node25&#45;&gt;Node26 -->
<g id="edge20" class="edge"><title>Node25&#45;&gt;Node26</title>
<path fill="none" stroke="midnightblue" d="M188,-325.805C188,-316.91 188,-306.78 188,-299.751"/>
<polygon fill="midnightblue" stroke="midnightblue" points="184.5,-326.083 188,-336.083 191.5,-326.083 184.5,-326.083"/>
</g>
<!-- Node28 -->
<g id="node20" class="node"><title>Node28</title>
<g id="a_node20"><a xlink:href="api_2spec_2traffic__mngr_8h.html" target="_top" xlink:title="Copyright (c) 2015&#45;2018, Linaro Limited All rights reserved. ">
<polygon fill="white" stroke="black" points="247.5,-280.5 247.5,-299.5 324.5,-299.5 324.5,-280.5 247.5,-280.5"/>
<text text-anchor="middle" x="286" y="-287.5" font-family="Helvetica,sans-Serif" font-size="10.00">traffic_mngr.h</text>
</a>
</g>
</g>
<!-- Node25&#45;&gt;Node28 -->
<g id="edge25" class="edge"><title>Node25&#45;&gt;Node28</title>
<path fill="none" stroke="midnightblue" d="M212.586,-331.453C230.678,-321.483 254.735,-308.228 270.294,-299.655"/>
<polygon fill="midnightblue" stroke="midnightblue" points="210.815,-328.432 203.745,-336.324 214.193,-334.563 210.815,-328.432"/>
</g>
<!-- Node27 -->
<g id="node19" class="node"><title>Node27</title>
<g id="a_node19"><a xlink:href="api_2classification_8h.html" target="_top" xlink:title="ODP classification descriptor. ">
<polygon fill="white" stroke="black" points="164,-224.5 164,-243.5 246,-243.5 246,-224.5 164,-224.5"/>
<text text-anchor="middle" x="205" y="-231.5" font-family="Helvetica,sans-Serif" font-size="10.00">classification.h</text>
</a>
</g>
</g>
<!-- Node26&#45;&gt;Node27 -->
<g id="edge21" class="edge"><title>Node26&#45;&gt;Node27</title>
<path fill="none" stroke="midnightblue" d="M193.857,-270.396C196.701,-261.362 199.983,-250.936 202.245,-243.751"/>
<polygon fill="midnightblue" stroke="midnightblue" points="190.472,-269.493 190.807,-280.083 197.149,-271.596 190.472,-269.493"/>
</g>
<!-- Node27&#45;&gt;Node14 -->
<g id="edge23" class="edge"><title>Node27&#45;&gt;Node14</title>
<path fill="none" stroke="midnightblue" d="M220.659,-216.651C253.908,-181.939 330.574,-101.898 355.793,-75.5681"/>
<polygon fill="midnightblue" stroke="midnightblue" points="217.938,-214.432 213.549,-224.075 222.993,-219.274 217.938,-214.432"/>
</g>
<!-- Node27&#45;&gt;Node18 -->
<g id="edge22" class="edge"><title>Node27&#45;&gt;Node18</title>
<path fill="none" stroke="midnightblue" d="M205,-213.805C205,-204.91 205,-194.78 205,-187.751"/>
<polygon fill="midnightblue" stroke="midnightblue" points="201.5,-214.083 205,-224.083 208.5,-214.083 201.5,-214.083"/>
</g>
<!-- Node29 -->
<g id="node21" class="node"><title>Node29</title>
<g id="a_node21"><a xlink:href="api_2traffic__mngr_8h.html" target="_top" xlink:title="ODP Traffic manager. ">
<polygon fill="white" stroke="black" points="285.5,-168.5 285.5,-187.5 362.5,-187.5 362.5,-168.5 285.5,-168.5"/>
<text text-anchor="middle" x="324" y="-175.5" font-family="Helvetica,sans-Serif" font-size="10.00">traffic_mngr.h</text>
</a>
</g>
</g>
<!-- Node28&#45;&gt;Node29 -->
<g id="edge26" class="edge"><title>Node28&#45;&gt;Node29</title>
<path fill="none" stroke="midnightblue" d="M292.331,-270.674C300.639,-246.625 314.884,-205.388 321.032,-187.591"/>
<polygon fill="midnightblue" stroke="midnightblue" points="288.939,-269.774 288.982,-280.368 295.555,-272.059 288.939,-269.774"/>
</g>
<!-- Node29&#45;&gt;Node14 -->
<g id="edge27" class="edge"><title>Node29&#45;&gt;Node14</title>
<path fill="none" stroke="midnightblue" d="M330.664,-158.674C339.409,-134.625 354.404,-93.3881 360.876,-75.5914"/>
<polygon fill="midnightblue" stroke="midnightblue" points="327.267,-157.774 327.139,-168.368 333.846,-160.167 327.267,-157.774"/>
</g>
<!-- Node31 -->
<g id="node23" class="node"><title>Node31</title>
<g id="a_node23"><a xlink:href="api_2schedule_8h.html" target="_top" xlink:title="ODP schedule. ">
<polygon fill="white" stroke="black" points="495,-224.5 495,-243.5 559,-243.5 559,-224.5 495,-224.5"/>
<text text-anchor="middle" x="527" y="-231.5" font-family="Helvetica,sans-Serif" font-size="10.00">schedule.h</text>
</a>
</g>
</g>
<!-- Node30&#45;&gt;Node31 -->
<g id="edge30" class="edge"><title>Node30&#45;&gt;Node31</title>
<path fill="none" stroke="midnightblue" d="M527,-381.93C527,-345.92 527,-269.231 527,-243.568"/>
<polygon fill="midnightblue" stroke="midnightblue" points="523.5,-382.075 527,-392.075 530.5,-382.075 523.5,-382.075"/>
</g>
<!-- Node31&#45;&gt;Node14 -->
<g id="edge31" class="edge"><title>Node31&#45;&gt;Node14</title>
<path fill="none" stroke="midnightblue" d="M524.694,-214.293C520.515,-188.075 509.323,-140.433 481,-112 457.347,-88.2552 419.812,-76.7939 393.656,-71.4302"/>
<polygon fill="midnightblue" stroke="midnightblue" points="521.257,-214.981 526.122,-224.393 528.188,-214.002 521.257,-214.981"/>
</g>
<!-- Node33 -->
<g id="node25" class="node"><title>Node33</title>
<g id="a_node25"><a xlink:href="api_2packet__flags_8h.html" target="_top" xlink:title="ODP packet flags. ">
<polygon fill="white" stroke="black" points="615,-112.5 615,-131.5 695,-131.5 695,-112.5 615,-112.5"/>
<text text-anchor="middle" x="655" y="-119.5" font-family="Helvetica,sans-Serif" font-size="10.00">packet_flags.h</text>
</a>
</g>
</g>
<!-- Node32&#45;&gt;Node33 -->
<g id="edge36" class="edge"><title>Node32&#45;&gt;Node33</title>
<path fill="none" stroke="midnightblue" d="M655,-550.251C655,-528.357 655,-491.052 655,-459 655,-459 655,-459 655,-233 655,-195.188 655,-150.064 655,-131.558"/>
<polygon fill="midnightblue" stroke="midnightblue" points="651.5,-550.442 655,-560.442 658.5,-550.442 651.5,-550.442"/>
</g>
<!-- Node33&#45;&gt;Node14 -->
<g id="edge37" class="edge"><title>Node33&#45;&gt;Node14</title>
<path fill="none" stroke="midnightblue" d="M604.69,-111.664C543.792,-100.363 443.247,-81.7056 393.607,-72.4942"/>
<polygon fill="midnightblue" stroke="midnightblue" points="604.372,-115.165 614.843,-113.548 605.65,-108.282 604.372,-115.165"/>
</g>
</g>
</svg>
