<?xml version="1.0" encoding="UTF-8" standalone="no"?>
<!DOCTYPE svg PUBLIC "-//W3C//DTD SVG 1.1//EN"
 "http://www.w3.org/Graphics/SVG/1.1/DTD/svg11.dtd">
<!-- Generated by graphviz version 2.36.0 (20140111.2315)
 -->
<!-- Title: schedule_types.h Pages: 1 -->
<svg width="409pt" height="700pt"
 viewBox="0.00 0.00 409.00 700.00" xmlns="http://www.w3.org/2000/svg" xmlns:xlink="http://www.w3.org/1999/xlink">
<g id="graph0" class="graph" transform="scale(1 1) rotate(0) translate(4 696)">
<title>schedule_types.h</title>
<polygon fill="white" stroke="none" points="-4,4 -4,-696 405,-696 405,4 -4,4"/>
<!-- Node5 -->
<g id="node1" class="node"><title>Node5</title>
<polygon fill="#bfbfbf" stroke="black" points="153.5,-672.5 153.5,-691.5 246.5,-691.5 246.5,-672.5 153.5,-672.5"/>
<text text-anchor="middle" x="200" y="-679.5" font-family="Helvetica,sans-Serif" font-size="10.00">schedule_types.h</text>
</g>
<!-- Node6 -->
<g id="node2" class="node"><title>Node6</title>
<g id="a_node2"><a xlink:href="api_2schedule__types_8h.html" target="_top" xlink:title="ODP schedule. ">
<polygon fill="white" stroke="black" points="153.5,-616.5 153.5,-635.5 246.5,-635.5 246.5,-616.5 153.5,-616.5"/>
<text text-anchor="middle" x="200" y="-623.5" font-family="Helvetica,sans-Serif" font-size="10.00">schedule_types.h</text>
</a>
</g>
</g>
<!-- Node5&#45;&gt;Node6 -->
<g id="edge1" class="edge"><title>Node5&#45;&gt;Node6</title>
<path fill="none" stroke="midnightblue" d="M200,-661.805C200,-652.91 200,-642.78 200,-635.751"/>
<polygon fill="midnightblue" stroke="midnightblue" points="196.5,-662.083 200,-672.083 203.5,-662.083 196.5,-662.083"/>
</g>
<!-- Node7 -->
<g id="node3" class="node"><title>Node7</title>
<g id="a_node3"><a xlink:href="queue__types_8h.html" target="_top" xlink:title="ODP queue types. ">
<polygon fill="white" stroke="black" points="124,-560.5 124,-579.5 204,-579.5 204,-560.5 124,-560.5"/>
<text text-anchor="middle" x="164" y="-567.5" font-family="Helvetica,sans-Serif" font-size="10.00">queue_types.h</text>
</a>
</g>
</g>
<!-- Node6&#45;&gt;Node7 -->
<g id="edge2" class="edge"><title>Node6&#45;&gt;Node7</title>
<path fill="none" stroke="midnightblue" d="M188.377,-607.566C182.183,-598.275 174.832,-587.248 169.834,-579.751"/>
<polygon fill="midnightblue" stroke="midnightblue" points="185.596,-609.704 194.055,-616.083 191.42,-605.821 185.596,-609.704"/>
</g>
<!-- Node21 -->
<g id="node17" class="node"><title>Node21</title>
<g id="a_node17"><a xlink:href="api_2spec_2schedule_8h.html" target="_top" xlink:title="ODP schedule. ">
<polygon fill="white" stroke="black" points="206,-392.5 206,-411.5 270,-411.5 270,-392.5 206,-392.5"/>
<text text-anchor="middle" x="238" y="-399.5" font-family="Helvetica,sans-Serif" font-size="10.00">schedule.h</text>
</a>
</g>
</g>
<!-- Node6&#45;&gt;Node21 -->
<g id="edge26" class="edge"><title>Node6&#45;&gt;Node21</title>
<path fill="none" stroke="midnightblue" d="M205.861,-606.896C208.337,-598.744 211.084,-588.957 213,-580 226.7,-515.967 234.8,-437.246 237.224,-411.549"/>
<polygon fill="midnightblue" stroke="midnightblue" points="202.514,-605.875 202.856,-616.465 209.192,-607.973 202.514,-605.875"/>
</g>
<!-- Node8 -->
<g id="node4" class="node"><title>Node8</title>
<g id="a_node4"><a xlink:href="api_2spec_2queue_8h.html" target="_top" xlink:title="ODP queue. ">
<polygon fill="white" stroke="black" points="130.5,-504.5 130.5,-523.5 181.5,-523.5 181.5,-504.5 130.5,-504.5"/>
<text text-anchor="middle" x="156" y="-511.5" font-family="Helvetica,sans-Serif" font-size="10.00">queue.h</text>
</a>
</g>
</g>
<!-- Node7&#45;&gt;Node8 -->
<g id="edge3" class="edge"><title>Node7&#45;&gt;Node8</title>
<path fill="none" stroke="midnightblue" d="M161.2,-550.101C159.872,-541.136 158.349,-530.858 157.296,-523.751"/>
<polygon fill="midnightblue" stroke="midnightblue" points="157.751,-550.704 162.679,-560.083 164.676,-549.678 157.751,-550.704"/>
</g>
<!-- Node9 -->
<g id="node5" class="node"><title>Node9</title>
<g id="a_node5"><a xlink:href="api_2queue_8h.html" target="_top" xlink:title="ODP queue. ">
<polygon fill="white" stroke="black" points="128.5,-448.5 128.5,-467.5 179.5,-467.5 179.5,-448.5 128.5,-448.5"/>
<text text-anchor="middle" x="154" y="-455.5" font-family="Helvetica,sans-Serif" font-size="10.00">queue.h</text>
</a>
</g>
</g>
<!-- Node8&#45;&gt;Node9 -->
<g id="edge4" class="edge"><title>Node8&#45;&gt;Node9</title>
<path fill="none" stroke="midnightblue" d="M155.289,-493.805C154.96,-484.91 154.584,-474.78 154.324,-467.751"/>
<polygon fill="midnightblue" stroke="midnightblue" points="151.802,-494.219 155.67,-504.083 158.797,-493.96 151.802,-494.219"/>
</g>
<!-- Node10 -->
<g id="node6" class="node"><title>Node10</title>
<g id="a_node6"><a xlink:href="api_2crypto_8h.html" target="_top" xlink:title="ODP crypto. ">
<polygon fill="white" stroke="black" points="28,-224.5 28,-243.5 80,-243.5 80,-224.5 28,-224.5"/>
<text text-anchor="middle" x="54" y="-231.5" font-family="Helvetica,sans-Serif" font-size="10.00">crypto.h</text>
</a>
</g>
</g>
<!-- Node9&#45;&gt;Node10 -->
<g id="edge5" class="edge"><title>Node9&#45;&gt;Node10</title>
<path fill="none" stroke="midnightblue" d="M135.72,-441.464C127.205,-433.411 117.536,-422.976 111,-412 75.982,-353.197 59.8725,-270.401 55.3693,-243.678"/>
<polygon fill="midnightblue" stroke="midnightblue" points="133.624,-444.287 143.39,-448.395 138.318,-439.094 133.624,-444.287"/>
</g>
<!-- Node13 -->
<g id="node9" class="node"><title>Node13</title>
<g id="a_node9"><a xlink:href="odp__api_8h.html" target="_top" xlink:title="The OpenDataPlane API. ">
<polygon fill="white" stroke="black" points="178.5,-56.5 178.5,-75.5 237.5,-75.5 237.5,-56.5 178.5,-56.5"/>
<text text-anchor="middle" x="208" y="-63.5" font-family="Helvetica,sans-Serif" font-size="10.00">odp_api.h</text>
</a>
</g>
</g>
<!-- Node9&#45;&gt;Node13 -->
<g id="edge25" class="edge"><title>Node9&#45;&gt;Node13</title>
<path fill="none" stroke="midnightblue" d="M118.418,-448.469C72.9345,-435.194 0,-404.884 0,-347 0,-347 0,-347 0,-177 0,-97.3426 120.685,-75.2146 178.199,-69.192"/>
<polygon fill="midnightblue" stroke="midnightblue" points="117.652,-451.888 128.224,-451.193 119.526,-445.143 117.652,-451.888"/>
</g>
<!-- Node15 -->
<g id="node11" class="node"><title>Node15</title>
<g id="a_node11"><a xlink:href="api_2spec_2packet__io_8h.html" target="_top" xlink:title="ODP Packet IO. ">
<polygon fill="white" stroke="black" points="120.5,-392.5 120.5,-411.5 187.5,-411.5 187.5,-392.5 120.5,-392.5"/>
<text text-anchor="middle" x="154" y="-399.5" font-family="Helvetica,sans-Serif" font-size="10.00">packet_io.h</text>
</a>
</g>
</g>
<!-- Node9&#45;&gt;Node15 -->
<g id="edge11" class="edge"><title>Node9&#45;&gt;Node15</title>
<path fill="none" stroke="midnightblue" d="M154,-437.805C154,-428.91 154,-418.78 154,-411.751"/>
<polygon fill="midnightblue" stroke="midnightblue" points="150.5,-438.083 154,-448.083 157.5,-438.083 150.5,-438.083"/>
</g>
<!-- Node9&#45;&gt;Node21 -->
<g id="edge22" class="edge"><title>Node9&#45;&gt;Node21</title>
<path fill="none" stroke="midnightblue" d="M175.932,-442.901C191.335,-432.999 211.446,-420.071 224.537,-411.655"/>
<polygon fill="midnightblue" stroke="midnightblue" points="174.015,-439.972 167.496,-448.324 177.801,-445.86 174.015,-439.972"/>
</g>
<!-- Node11 -->
<g id="node7" class="node"><title>Node11</title>
<g id="a_node7"><a xlink:href="api_2spec_2ipsec_8h.html" target="_top" xlink:title="ODP IPSEC API. ">
<polygon fill="white" stroke="black" points="96,-168.5 96,-187.5 144,-187.5 144,-168.5 96,-168.5"/>
<text text-anchor="middle" x="120" y="-175.5" font-family="Helvetica,sans-Serif" font-size="10.00">ipsec.h</text>
</a>
</g>
</g>
<!-- Node10&#45;&gt;Node11 -->
<g id="edge6" class="edge"><title>Node10&#45;&gt;Node11</title>
<path fill="none" stroke="midnightblue" d="M72.5537,-217.82C84.3781,-208.145 99.2856,-195.948 109.203,-187.834"/>
<polygon fill="midnightblue" stroke="midnightblue" points="70.1273,-215.283 64.604,-224.324 74.56,-220.7 70.1273,-215.283"/>
</g>
<!-- Node10&#45;&gt;Node13 -->
<g id="edge10" class="edge"><title>Node10&#45;&gt;Node13</title>
<path fill="none" stroke="midnightblue" d="M58.4268,-214.481C65.4899,-188.521 81.6047,-141.223 111,-112 129.563,-93.5455 157.104,-81.7686 178.101,-74.9119"/>
<polygon fill="midnightblue" stroke="midnightblue" points="55.032,-213.629 55.9417,-224.185 61.8132,-215.366 55.032,-213.629"/>
</g>
<!-- Node12 -->
<g id="node8" class="node"><title>Node12</title>
<g id="a_node8"><a xlink:href="api_2ipsec_8h.html" target="_top" xlink:title="ODP IPSEC API &#45; platform specific header. ">
<polygon fill="white" stroke="black" points="120,-112.5 120,-131.5 168,-131.5 168,-112.5 120,-112.5"/>
<text text-anchor="middle" x="144" y="-119.5" font-family="Helvetica,sans-Serif" font-size="10.00">ipsec.h</text>
</a>
</g>
</g>
<!-- Node11&#45;&gt;Node12 -->
<g id="edge7" class="edge"><title>Node11&#45;&gt;Node12</title>
<path fill="none" stroke="midnightblue" d="M128.138,-158.69C132.183,-149.589 136.883,-139.014 140.111,-131.751"/>
<polygon fill="midnightblue" stroke="midnightblue" points="124.826,-157.523 123.963,-168.083 131.223,-160.366 124.826,-157.523"/>
</g>
<!-- Node12&#45;&gt;Node13 -->
<g id="edge8" class="edge"><title>Node12&#45;&gt;Node13</title>
<path fill="none" stroke="midnightblue" d="M161.991,-105.82C173.458,-96.1452 187.913,-83.9481 197.53,-75.8339"/>
<polygon fill="midnightblue" stroke="midnightblue" points="159.669,-103.2 154.283,-112.324 164.183,-108.55 159.669,-103.2"/>
</g>
<!-- Node14 -->
<g id="node10" class="node"><title>Node14</title>
<g id="a_node10"><a xlink:href="odp_8h.html" target="_top" xlink:title="WARNING: THIS FILE IS DEPRECATED AND WILL BE REMOVED!!! ODP APPLICATIONS SHOULD NOW INCLUDE odp_api...">
<polygon fill="white" stroke="black" points="187.5,-0.5 187.5,-19.5 228.5,-19.5 228.5,-0.5 187.5,-0.5"/>
<text text-anchor="middle" x="208" y="-7.5" font-family="Helvetica,sans-Serif" font-size="10.00">odp.h</text>
</a>
</g>
</g>
<!-- Node13&#45;&gt;Node14 -->
<g id="edge9" class="edge"><title>Node13&#45;&gt;Node14</title>
<path fill="none" stroke="midnightblue" d="M208,-45.8045C208,-36.9102 208,-26.7798 208,-19.7511"/>
<polygon fill="midnightblue" stroke="midnightblue" points="204.5,-46.083 208,-56.083 211.5,-46.083 204.5,-46.083"/>
</g>
<!-- Node16 -->
<g id="node12" class="node"><title>Node16</title>
<g id="a_node12"><a xlink:href="api_2packet__io_8h.html" target="_top" xlink:title="ODP Packet IO. ">
<polygon fill="white" stroke="black" points="143.5,-336.5 143.5,-355.5 210.5,-355.5 210.5,-336.5 143.5,-336.5"/>
<text text-anchor="middle" x="177" y="-343.5" font-family="Helvetica,sans-Serif" font-size="10.00">packet_io.h</text>
</a>
</g>
</g>
<!-- Node15&#45;&gt;Node16 -->
<g id="edge12" class="edge"><title>Node15&#45;&gt;Node16</title>
<path fill="none" stroke="midnightblue" d="M161.799,-382.69C165.675,-373.589 170.179,-363.014 173.273,-355.751"/>
<polygon fill="midnightblue" stroke="midnightblue" points="158.497,-381.511 157.798,-392.083 164.937,-384.254 158.497,-381.511"/>
</g>
<!-- Node16&#45;&gt;Node11 -->
<g id="edge17" class="edge"><title>Node16&#45;&gt;Node11</title>
<path fill="none" stroke="midnightblue" d="M154.068,-330.537C143.905,-322.808 132.927,-312.336 127,-300 108.593,-261.687 114.876,-208.5 118.346,-187.766"/>
<polygon fill="midnightblue" stroke="midnightblue" points="152.102,-333.434 162.284,-336.365 156.153,-327.725 152.102,-333.434"/>
</g>
<!-- Node16&#45;&gt;Node13 -->
<g id="edge21" class="edge"><title>Node16&#45;&gt;Node13</title>
<path fill="none" stroke="midnightblue" d="M200.249,-330.683C210.484,-322.988 221.432,-312.502 227,-300 262.996,-219.176 223.908,-107.044 211.511,-75.5349"/>
<polygon fill="midnightblue" stroke="midnightblue" points="198.149,-327.881 191.952,-336.474 202.156,-333.621 198.149,-327.881"/>
</g>
<!-- Node17 -->
<g id="node13" class="node"><title>Node17</title>
<g id="a_node13"><a xlink:href="api_2spec_2classification_8h.html" target="_top" xlink:title="ODP classification descriptor. ">
<polygon fill="white" stroke="black" points="136,-280.5 136,-299.5 218,-299.5 218,-280.5 136,-280.5"/>
<text text-anchor="middle" x="177" y="-287.5" font-family="Helvetica,sans-Serif" font-size="10.00">classification.h</text>
</a>
</g>
</g>
<!-- Node16&#45;&gt;Node17 -->
<g id="edge13" class="edge"><title>Node16&#45;&gt;Node17</title>
<path fill="none" stroke="midnightblue" d="M177,-325.805C177,-316.91 177,-306.78 177,-299.751"/>
<polygon fill="midnightblue" stroke="midnightblue" points="173.5,-326.083 177,-336.083 180.5,-326.083 173.5,-326.083"/>
</g>
<!-- Node19 -->
<g id="node15" class="node"><title>Node19</title>
<g id="a_node15"><a xlink:href="api_2spec_2traffic__mngr_8h.html" target="_top" xlink:title="Copyright (c) 2015&#45;2018, Linaro Limited All rights reserved. ">
<polygon fill="white" stroke="black" points="274.5,-280.5 274.5,-299.5 351.5,-299.5 351.5,-280.5 274.5,-280.5"/>
<text text-anchor="middle" x="313" y="-287.5" font-family="Helvetica,sans-Serif" font-size="10.00">traffic_mngr.h</text>
</a>
</g>
</g>
<!-- Node16&#45;&gt;Node19 -->
<g id="edge18" class="edge"><title>Node16&#45;&gt;Node19</title>
<path fill="none" stroke="midnightblue" d="M208.135,-332.638C233.657,-322.504 269.109,-308.427 291.551,-299.516"/>
<polygon fill="midnightblue" stroke="midnightblue" points="206.552,-329.5 198.55,-336.444 209.135,-336.006 206.552,-329.5"/>
</g>
<!-- Node18 -->
<g id="node14" class="node"><title>Node18</title>
<g id="a_node14"><a xlink:href="api_2classification_8h.html" target="_top" xlink:title="ODP classification descriptor. ">
<polygon fill="white" stroke="black" points="136,-224.5 136,-243.5 218,-243.5 218,-224.5 136,-224.5"/>
<text text-anchor="middle" x="177" y="-231.5" font-family="Helvetica,sans-Serif" font-size="10.00">classification.h</text>
</a>
</g>
</g>
<!-- Node17&#45;&gt;Node18 -->
<g id="edge14" class="edge"><title>Node17&#45;&gt;Node18</title>
<path fill="none" stroke="midnightblue" d="M177,-269.805C177,-260.91 177,-250.78 177,-243.751"/>
<polygon fill="midnightblue" stroke="midnightblue" points="173.5,-270.083 177,-280.083 180.5,-270.083 173.5,-270.083"/>
</g>
<!-- Node18&#45;&gt;Node11 -->
<g id="edge15" class="edge"><title>Node18&#45;&gt;Node11</title>
<path fill="none" stroke="midnightblue" d="M160.379,-217.253C150.266,-207.673 137.723,-195.791 129.325,-187.834"/>
<polygon fill="midnightblue" stroke="midnightblue" points="158.175,-219.987 167.842,-224.324 162.99,-214.906 158.175,-219.987"/>
</g>
<!-- Node18&#45;&gt;Node13 -->
<g id="edge16" class="edge"><title>Node18&#45;&gt;Node13</title>
<path fill="none" stroke="midnightblue" d="M180.561,-213.93C187.286,-177.92 201.607,-101.231 206.4,-75.5681"/>
<polygon fill="midnightblue" stroke="midnightblue" points="177.062,-213.603 178.667,-224.075 183.943,-214.888 177.062,-213.603"/>
</g>
<!-- Node20 -->
<g id="node16" class="node"><title>Node20</title>
<g id="a_node16"><a xlink:href="api_2traffic__mngr_8h.html" target="_top" xlink:title="ODP Traffic manager. ">
<polygon fill="white" stroke="black" points="274.5,-168.5 274.5,-187.5 351.5,-187.5 351.5,-168.5 274.5,-168.5"/>
<text text-anchor="middle" x="313" y="-175.5" font-family="Helvetica,sans-Serif" font-size="10.00">traffic_mngr.h</text>
</a>
</g>
</g>
<!-- Node19&#45;&gt;Node20 -->
<g id="edge19" class="edge"><title>Node19&#45;&gt;Node20</title>
<path fill="none" stroke="midnightblue" d="M313,-270.348C313,-246.254 313,-205.308 313,-187.591"/>
<polygon fill="midnightblue" stroke="midnightblue" points="309.5,-270.368 313,-280.368 316.5,-270.369 309.5,-270.368"/>
</g>
<!-- Node20&#45;&gt;Node13 -->
<g id="edge20" class="edge"><title>Node20&#45;&gt;Node13</title>
<path fill="none" stroke="midnightblue" d="M300.309,-159.827C290.018,-146.313 274.835,-127.277 260,-112 246.858,-98.4676 230.131,-84.4978 219.249,-75.7853"/>
<polygon fill="midnightblue" stroke="midnightblue" points="297.784,-162.293 306.588,-168.187 303.381,-158.089 297.784,-162.293"/>
</g>
<!-- Node22 -->
<g id="node18" class="node"><title>Node22</title>
<g id="a_node18"><a xlink:href="api_2schedule_8h.html" target="_top" xlink:title="ODP schedule. ">
<polygon fill="white" stroke="black" points="337,-112.5 337,-131.5 401,-131.5 401,-112.5 337,-112.5"/>
<text text-anchor="middle" x="369" y="-119.5" font-family="Helvetica,sans-Serif" font-size="10.00">schedule.h</text>
</a>
</g>
</g>
<!-- Node21&#45;&gt;Node22 -->
<g id="edge23" class="edge"><title>Node21&#45;&gt;Node22</title>
<path fill="none" stroke="midnightblue" d="M277.911,-389.113C319.912,-373.846 380,-342.931 380,-291 380,-291 380,-291 380,-233 380,-194.999 373.42,-149.978 370.438,-131.529"/>
<polygon fill="midnightblue" stroke="midnightblue" points="276.759,-385.808 268.463,-392.398 279.057,-392.42 276.759,-385.808"/>
</g>
<!-- Node22&#45;&gt;Node13 -->
<g id="edge24" class="edge"><title>Node22&#45;&gt;Node13</title>
<path fill="none" stroke="midnightblue" d="M333.735,-109.172C303.419,-99.0039 260.43,-84.5852 233.392,-75.5164"/>
<polygon fill="midnightblue" stroke="midnightblue" points="332.895,-112.582 343.489,-112.444 335.121,-105.945 332.895,-112.582"/>
</g>
</g>
</svg>
