<?xml version="1.0" encoding="UTF-8" standalone="no"?>
<!DOCTYPE svg PUBLIC "-//W3C//DTD SVG 1.1//EN"
 "http://www.w3.org/Graphics/SVG/1.1/DTD/svg11.dtd">
<!-- Generated by graphviz version 2.36.0 (20140111.2315)
 -->
<!-- Title: timer.h Pages: 1 -->
<svg width="450pt" height="252pt"
 viewBox="0.00 0.00 450.00 252.00" xmlns="http://www.w3.org/2000/svg" xmlns:xlink="http://www.w3.org/1999/xlink">
<g id="graph0" class="graph" transform="scale(1 1) rotate(0) translate(4 248)">
<title>timer.h</title>
<polygon fill="white" stroke="none" points="-4,4 -4,-248 446,-248 446,4 -4,4"/>
<!-- Node1 -->
<g id="node1" class="node"><title>Node1</title>
<polygon fill="#bfbfbf" stroke="black" points="194.5,-224.5 194.5,-243.5 241.5,-243.5 241.5,-224.5 194.5,-224.5"/>
<text text-anchor="middle" x="218" y="-231.5" font-family="Helvetica,sans-Serif" font-size="10.00">timer.h</text>
</g>
<!-- Node2 -->
<g id="node2" class="node"><title>Node2</title>
<g id="a_node2"><a xlink:href="arch_2arm32-linux_2odp_2api_2abi_2timer_8h_source.html" target="_top" xlink:title="timer.h">
<polygon fill="white" stroke="black" points="-0.5,-168.5 -0.5,-187.5 46.5,-187.5 46.5,-168.5 -0.5,-168.5"/>
<text text-anchor="middle" x="23" y="-175.5" font-family="Helvetica,sans-Serif" font-size="10.00">timer.h</text>
</a>
</g>
</g>
<!-- Node1&#45;&gt;Node2 -->
<g id="edge1" class="edge"><title>Node1&#45;&gt;Node2</title>
<path fill="none" stroke="midnightblue" d="M184.83,-223.815C145.556,-212.939 81.1318,-195.098 46.605,-185.537"/>
<polygon fill="midnightblue" stroke="midnightblue" points="183.907,-227.191 194.478,-226.486 185.775,-220.444 183.907,-227.191"/>
</g>
<!-- Node3 -->
<g id="node3" class="node"><title>Node3</title>
<g id="a_node3"><a xlink:href="arch_2arm64-linux_2odp_2api_2abi_2timer_8h_source.html" target="_top" xlink:title="timer.h">
<polygon fill="white" stroke="black" points="64.5,-168.5 64.5,-187.5 111.5,-187.5 111.5,-168.5 64.5,-168.5"/>
<text text-anchor="middle" x="88" y="-175.5" font-family="Helvetica,sans-Serif" font-size="10.00">timer.h</text>
</a>
</g>
</g>
<!-- Node1&#45;&gt;Node3 -->
<g id="edge2" class="edge"><title>Node1&#45;&gt;Node3</title>
<path fill="none" stroke="midnightblue" d="M187.915,-220.503C163.543,-210.38 129.86,-196.388 108.503,-187.516"/>
<polygon fill="midnightblue" stroke="midnightblue" points="186.823,-223.84 197.401,-224.444 189.509,-217.375 186.823,-223.84"/>
</g>
<!-- Node4 -->
<g id="node4" class="node"><title>Node4</title>
<g id="a_node4"><a xlink:href="arch_2default-linux_2odp_2api_2abi_2timer_8h_source.html" target="_top" xlink:title="timer.h">
<polygon fill="white" stroke="black" points="129.5,-168.5 129.5,-187.5 176.5,-187.5 176.5,-168.5 129.5,-168.5"/>
<text text-anchor="middle" x="153" y="-175.5" font-family="Helvetica,sans-Serif" font-size="10.00">timer.h</text>
</a>
</g>
</g>
<!-- Node1&#45;&gt;Node4 -->
<g id="edge3" class="edge"><title>Node1&#45;&gt;Node4</title>
<path fill="none" stroke="midnightblue" d="M199.727,-217.82C188.082,-208.145 173.401,-195.948 163.633,-187.834"/>
<polygon fill="midnightblue" stroke="midnightblue" points="197.628,-220.626 207.557,-224.324 202.101,-215.242 197.628,-220.626"/>
</g>
<!-- Node5 -->
<g id="node5" class="node"><title>Node5</title>
<g id="a_node5"><a xlink:href="arch_2mips64-linux_2odp_2api_2abi_2timer_8h_source.html" target="_top" xlink:title="timer.h">
<polygon fill="white" stroke="black" points="194.5,-168.5 194.5,-187.5 241.5,-187.5 241.5,-168.5 194.5,-168.5"/>
<text text-anchor="middle" x="218" y="-175.5" font-family="Helvetica,sans-Serif" font-size="10.00">timer.h</text>
</a>
</g>
</g>
<!-- Node1&#45;&gt;Node5 -->
<g id="edge4" class="edge"><title>Node1&#45;&gt;Node5</title>
<path fill="none" stroke="midnightblue" d="M218,-213.805C218,-204.91 218,-194.78 218,-187.751"/>
<polygon fill="midnightblue" stroke="midnightblue" points="214.5,-214.083 218,-224.083 221.5,-214.083 214.5,-214.083"/>
</g>
<!-- Node6 -->
<g id="node6" class="node"><title>Node6</title>
<g id="a_node6"><a xlink:href="arch_2power64-linux_2odp_2api_2abi_2timer_8h_source.html" target="_top" xlink:title="timer.h">
<polygon fill="white" stroke="black" points="259.5,-168.5 259.5,-187.5 306.5,-187.5 306.5,-168.5 259.5,-168.5"/>
<text text-anchor="middle" x="283" y="-175.5" font-family="Helvetica,sans-Serif" font-size="10.00">timer.h</text>
</a>
</g>
</g>
<!-- Node1&#45;&gt;Node6 -->
<g id="edge5" class="edge"><title>Node1&#45;&gt;Node6</title>
<path fill="none" stroke="midnightblue" d="M236.273,-217.82C247.918,-208.145 262.599,-195.948 272.367,-187.834"/>
<polygon fill="midnightblue" stroke="midnightblue" points="233.899,-215.242 228.443,-224.324 238.372,-220.626 233.899,-215.242"/>
</g>
<!-- Node7 -->
<g id="node7" class="node"><title>Node7</title>
<g id="a_node7"><a xlink:href="arch_2x86__32-linux_2odp_2api_2abi_2timer_8h_source.html" target="_top" xlink:title="timer.h">
<polygon fill="white" stroke="black" points="324.5,-168.5 324.5,-187.5 371.5,-187.5 371.5,-168.5 324.5,-168.5"/>
<text text-anchor="middle" x="348" y="-175.5" font-family="Helvetica,sans-Serif" font-size="10.00">timer.h</text>
</a>
</g>
</g>
<!-- Node1&#45;&gt;Node7 -->
<g id="edge6" class="edge"><title>Node1&#45;&gt;Node7</title>
<path fill="none" stroke="midnightblue" d="M248.085,-220.503C272.457,-210.38 306.14,-196.388 327.497,-187.516"/>
<polygon fill="midnightblue" stroke="midnightblue" points="246.491,-217.375 238.599,-224.444 249.177,-223.84 246.491,-217.375"/>
</g>
<!-- Node8 -->
<g id="node8" class="node"><title>Node8</title>
<g id="a_node8"><a xlink:href="arch_2x86__64-linux_2odp_2api_2abi_2timer_8h_source.html" target="_top" xlink:title="timer.h">
<polygon fill="white" stroke="black" points="389.5,-168.5 389.5,-187.5 436.5,-187.5 436.5,-168.5 389.5,-168.5"/>
<text text-anchor="middle" x="413" y="-175.5" font-family="Helvetica,sans-Serif" font-size="10.00">timer.h</text>
</a>
</g>
</g>
<!-- Node1&#45;&gt;Node8 -->
<g id="edge7" class="edge"><title>Node1&#45;&gt;Node8</title>
<path fill="none" stroke="midnightblue" d="M251.17,-223.815C290.444,-212.939 354.868,-195.098 389.395,-185.537"/>
<polygon fill="midnightblue" stroke="midnightblue" points="250.225,-220.444 241.522,-226.486 252.093,-227.191 250.225,-220.444"/>
</g>
<!-- Node9 -->
<g id="node9" class="node"><title>Node9</title>
<g id="a_node9"><a xlink:href="api_2timer_8h.html" target="_top" xlink:title="ODP timer service. ">
<polygon fill="white" stroke="black" points="389.5,-112.5 389.5,-131.5 436.5,-131.5 436.5,-112.5 389.5,-112.5"/>
<text text-anchor="middle" x="413" y="-119.5" font-family="Helvetica,sans-Serif" font-size="10.00">timer.h</text>
</a>
</g>
</g>
<!-- Node8&#45;&gt;Node9 -->
<g id="edge8" class="edge"><title>Node8&#45;&gt;Node9</title>
<path fill="none" stroke="midnightblue" d="M413,-157.805C413,-148.91 413,-138.78 413,-131.751"/>
<polygon fill="midnightblue" stroke="midnightblue" points="409.5,-158.083 413,-168.083 416.5,-158.083 409.5,-158.083"/>
</g>
<!-- Node10 -->
<g id="node10" class="node"><title>Node10</title>
<g id="a_node10"><a xlink:href="odp__api_8h.html" target="_top" xlink:title="The OpenDataPlane API. ">
<polygon fill="white" stroke="black" points="383.5,-56.5 383.5,-75.5 442.5,-75.5 442.5,-56.5 383.5,-56.5"/>
<text text-anchor="middle" x="413" y="-63.5" font-family="Helvetica,sans-Serif" font-size="10.00">odp_api.h</text>
</a>
</g>
</g>
<!-- Node9&#45;&gt;Node10 -->
<g id="edge9" class="edge"><title>Node9&#45;&gt;Node10</title>
<path fill="none" stroke="midnightblue" d="M413,-101.805C413,-92.9102 413,-82.7798 413,-75.7511"/>
<polygon fill="midnightblue" stroke="midnightblue" points="409.5,-102.083 413,-112.083 416.5,-102.083 409.5,-102.083"/>
</g>
<!-- Node11 -->
<g id="node11" class="node"><title>Node11</title>
<g id="a_node11"><a xlink:href="odp_8h.html" target="_top" xlink:title="WARNING: THIS FILE IS DEPRECATED AND WILL BE REMOVED!!! ODP APPLICATIONS SHOULD NOW INCLUDE odp_api...">
<polygon fill="white" stroke="black" points="392.5,-0.5 392.5,-19.5 433.5,-19.5 433.5,-0.5 392.5,-0.5"/>
<text text-anchor="middle" x="413" y="-7.5" font-family="Helvetica,sans-Serif" font-size="10.00">odp.h</text>
</a>
</g>
</g>
<!-- Node10&#45;&gt;Node11 -->
<g id="edge10" class="edge"><title>Node10&#45;&gt;Node11</title>
<path fill="none" stroke="midnightblue" d="M413,-45.8045C413,-36.9102 413,-26.7798 413,-19.7511"/>
<polygon fill="midnightblue" stroke="midnightblue" points="409.5,-46.083 413,-56.083 416.5,-46.083 409.5,-46.083"/>
</g>
</g>
</svg>
