<?xml version="1.0" encoding="UTF-8" standalone="no"?>
<!DOCTYPE svg PUBLIC "-//W3C//DTD SVG 1.1//EN"
 "http://www.w3.org/Graphics/SVG/1.1/DTD/svg11.dtd">
<!-- Generated by graphviz version 2.36.0 (20140111.2315)
 -->
<!-- Title: packet_flags.h Pages: 1 -->
<svg width="676pt" height="252pt"
 viewBox="0.00 0.00 676.00 252.00" xmlns="http://www.w3.org/2000/svg" xmlns:xlink="http://www.w3.org/1999/xlink">
<g id="graph0" class="graph" transform="scale(1 1) rotate(0) translate(4 248)">
<title>packet_flags.h</title>
<polygon fill="white" stroke="none" points="-4,4 -4,-248 672,-248 672,4 -4,4"/>
<!-- Node1 -->
<g id="node1" class="node"><title>Node1</title>
<polygon fill="#bfbfbf" stroke="black" points="294,-224.5 294,-243.5 374,-243.5 374,-224.5 294,-224.5"/>
<text text-anchor="middle" x="334" y="-231.5" font-family="Helvetica,sans-Serif" font-size="10.00">packet_flags.h</text>
</g>
<!-- Node2 -->
<g id="node2" class="node"><title>Node2</title>
<g id="a_node2"><a xlink:href="arch_2arm32-linux_2odp_2api_2abi_2packet__flags_8h_source.html" target="_top" xlink:title="packet_flags.h">
<polygon fill="white" stroke="black" points="0,-168.5 0,-187.5 80,-187.5 80,-168.5 0,-168.5"/>
<text text-anchor="middle" x="40" y="-175.5" font-family="Helvetica,sans-Serif" font-size="10.00">packet_flags.h</text>
</a>
</g>
</g>
<!-- Node1&#45;&gt;Node2 -->
<g id="edge1" class="edge"><title>Node1&#45;&gt;Node2</title>
<path fill="none" stroke="midnightblue" d="M283.78,-223.776C226.273,-213.213 133.203,-196.119 80.2474,-186.392"/>
<polygon fill="midnightblue" stroke="midnightblue" points="283.269,-227.241 293.737,-225.605 284.534,-220.356 283.269,-227.241"/>
</g>
<!-- Node3 -->
<g id="node3" class="node"><title>Node3</title>
<g id="a_node3"><a xlink:href="arch_2arm64-linux_2odp_2api_2abi_2packet__flags_8h_source.html" target="_top" xlink:title="packet_flags.h">
<polygon fill="white" stroke="black" points="98,-168.5 98,-187.5 178,-187.5 178,-168.5 98,-168.5"/>
<text text-anchor="middle" x="138" y="-175.5" font-family="Helvetica,sans-Serif" font-size="10.00">packet_flags.h</text>
</a>
</g>
</g>
<!-- Node1&#45;&gt;Node3 -->
<g id="edge2" class="edge"><title>Node1&#45;&gt;Node3</title>
<path fill="none" stroke="midnightblue" d="M292.98,-221.699C255.989,-211.507 202.4,-196.743 168.911,-187.516"/>
<polygon fill="midnightblue" stroke="midnightblue" points="292.373,-225.162 302.943,-224.444 294.232,-218.413 292.373,-225.162"/>
</g>
<!-- Node4 -->
<g id="node4" class="node"><title>Node4</title>
<g id="a_node4"><a xlink:href="arch_2default-linux_2odp_2api_2abi_2packet__flags_8h_source.html" target="_top" xlink:title="packet_flags.h">
<polygon fill="white" stroke="black" points="196,-168.5 196,-187.5 276,-187.5 276,-168.5 196,-168.5"/>
<text text-anchor="middle" x="236" y="-175.5" font-family="Helvetica,sans-Serif" font-size="10.00">packet_flags.h</text>
</a>
</g>
</g>
<!-- Node1&#45;&gt;Node4 -->
<g id="edge3" class="edge"><title>Node1&#45;&gt;Node4</title>
<path fill="none" stroke="midnightblue" d="M309.414,-219.453C291.322,-209.483 267.265,-196.228 251.706,-187.655"/>
<polygon fill="midnightblue" stroke="midnightblue" points="307.807,-222.563 318.255,-224.324 311.185,-216.432 307.807,-222.563"/>
</g>
<!-- Node5 -->
<g id="node5" class="node"><title>Node5</title>
<g id="a_node5"><a xlink:href="arch_2mips64-linux_2odp_2api_2abi_2packet__flags_8h_source.html" target="_top" xlink:title="packet_flags.h">
<polygon fill="white" stroke="black" points="294,-168.5 294,-187.5 374,-187.5 374,-168.5 294,-168.5"/>
<text text-anchor="middle" x="334" y="-175.5" font-family="Helvetica,sans-Serif" font-size="10.00">packet_flags.h</text>
</a>
</g>
</g>
<!-- Node1&#45;&gt;Node5 -->
<g id="edge4" class="edge"><title>Node1&#45;&gt;Node5</title>
<path fill="none" stroke="midnightblue" d="M334,-213.805C334,-204.91 334,-194.78 334,-187.751"/>
<polygon fill="midnightblue" stroke="midnightblue" points="330.5,-214.083 334,-224.083 337.5,-214.083 330.5,-214.083"/>
</g>
<!-- Node6 -->
<g id="node6" class="node"><title>Node6</title>
<g id="a_node6"><a xlink:href="arch_2power64-linux_2odp_2api_2abi_2packet__flags_8h_source.html" target="_top" xlink:title="packet_flags.h">
<polygon fill="white" stroke="black" points="392,-168.5 392,-187.5 472,-187.5 472,-168.5 392,-168.5"/>
<text text-anchor="middle" x="432" y="-175.5" font-family="Helvetica,sans-Serif" font-size="10.00">packet_flags.h</text>
</a>
</g>
</g>
<!-- Node1&#45;&gt;Node6 -->
<g id="edge5" class="edge"><title>Node1&#45;&gt;Node6</title>
<path fill="none" stroke="midnightblue" d="M358.586,-219.453C376.678,-209.483 400.735,-196.228 416.294,-187.655"/>
<polygon fill="midnightblue" stroke="midnightblue" points="356.815,-216.432 349.745,-224.324 360.193,-222.563 356.815,-216.432"/>
</g>
<!-- Node7 -->
<g id="node7" class="node"><title>Node7</title>
<g id="a_node7"><a xlink:href="arch_2x86__32-linux_2odp_2api_2abi_2packet__flags_8h_source.html" target="_top" xlink:title="packet_flags.h">
<polygon fill="white" stroke="black" points="490,-168.5 490,-187.5 570,-187.5 570,-168.5 490,-168.5"/>
<text text-anchor="middle" x="530" y="-175.5" font-family="Helvetica,sans-Serif" font-size="10.00">packet_flags.h</text>
</a>
</g>
</g>
<!-- Node1&#45;&gt;Node7 -->
<g id="edge6" class="edge"><title>Node1&#45;&gt;Node7</title>
<path fill="none" stroke="midnightblue" d="M375.02,-221.699C412.011,-211.507 465.6,-196.743 499.089,-187.516"/>
<polygon fill="midnightblue" stroke="midnightblue" points="373.768,-218.413 365.057,-224.444 375.627,-225.162 373.768,-218.413"/>
</g>
<!-- Node8 -->
<g id="node8" class="node"><title>Node8</title>
<g id="a_node8"><a xlink:href="arch_2x86__64-linux_2odp_2api_2abi_2packet__flags_8h_source.html" target="_top" xlink:title="packet_flags.h">
<polygon fill="white" stroke="black" points="588,-168.5 588,-187.5 668,-187.5 668,-168.5 588,-168.5"/>
<text text-anchor="middle" x="628" y="-175.5" font-family="Helvetica,sans-Serif" font-size="10.00">packet_flags.h</text>
</a>
</g>
</g>
<!-- Node1&#45;&gt;Node8 -->
<g id="edge7" class="edge"><title>Node1&#45;&gt;Node8</title>
<path fill="none" stroke="midnightblue" d="M384.22,-223.776C441.727,-213.213 534.797,-196.119 587.753,-186.392"/>
<polygon fill="midnightblue" stroke="midnightblue" points="383.466,-220.356 374.263,-225.605 384.731,-227.241 383.466,-220.356"/>
</g>
<!-- Node9 -->
<g id="node9" class="node"><title>Node9</title>
<g id="a_node9"><a xlink:href="api_2packet__flags_8h.html" target="_top" xlink:title="ODP packet flags. ">
<polygon fill="white" stroke="black" points="588,-112.5 588,-131.5 668,-131.5 668,-112.5 588,-112.5"/>
<text text-anchor="middle" x="628" y="-119.5" font-family="Helvetica,sans-Serif" font-size="10.00">packet_flags.h</text>
</a>
</g>
</g>
<!-- Node8&#45;&gt;Node9 -->
<g id="edge8" class="edge"><title>Node8&#45;&gt;Node9</title>
<path fill="none" stroke="midnightblue" d="M628,-157.805C628,-148.91 628,-138.78 628,-131.751"/>
<polygon fill="midnightblue" stroke="midnightblue" points="624.5,-158.083 628,-168.083 631.5,-158.083 624.5,-158.083"/>
</g>
<!-- Node10 -->
<g id="node10" class="node"><title>Node10</title>
<g id="a_node10"><a xlink:href="odp__api_8h.html" target="_top" xlink:title="The OpenDataPlane API. ">
<polygon fill="white" stroke="black" points="598.5,-56.5 598.5,-75.5 657.5,-75.5 657.5,-56.5 598.5,-56.5"/>
<text text-anchor="middle" x="628" y="-63.5" font-family="Helvetica,sans-Serif" font-size="10.00">odp_api.h</text>
</a>
</g>
</g>
<!-- Node9&#45;&gt;Node10 -->
<g id="edge9" class="edge"><title>Node9&#45;&gt;Node10</title>
<path fill="none" stroke="midnightblue" d="M628,-101.805C628,-92.9102 628,-82.7798 628,-75.7511"/>
<polygon fill="midnightblue" stroke="midnightblue" points="624.5,-102.083 628,-112.083 631.5,-102.083 624.5,-102.083"/>
</g>
<!-- Node11 -->
<g id="node11" class="node"><title>Node11</title>
<g id="a_node11"><a xlink:href="odp_8h.html" target="_top" xlink:title="WARNING: THIS FILE IS DEPRECATED AND WILL BE REMOVED!!! ODP APPLICATIONS SHOULD NOW INCLUDE odp_api...">
<polygon fill="white" stroke="black" points="607.5,-0.5 607.5,-19.5 648.5,-19.5 648.5,-0.5 607.5,-0.5"/>
<text text-anchor="middle" x="628" y="-7.5" font-family="Helvetica,sans-Serif" font-size="10.00">odp.h</text>
</a>
</g>
</g>
<!-- Node10&#45;&gt;Node11 -->
<g id="edge10" class="edge"><title>Node10&#45;&gt;Node11</title>
<path fill="none" stroke="midnightblue" d="M628,-45.8045C628,-36.9102 628,-26.7798 628,-19.7511"/>
<polygon fill="midnightblue" stroke="midnightblue" points="624.5,-46.083 628,-56.083 631.5,-46.083 624.5,-46.083"/>
</g>
</g>
</svg>
