<?xml version="1.0" encoding="UTF-8" standalone="no"?>
<!DOCTYPE svg PUBLIC "-//W3C//DTD SVG 1.1//EN"
 "http://www.w3.org/Graphics/SVG/1.1/DTD/svg11.dtd">
<!-- Generated by graphviz version 2.36.0 (20140111.2315)
 -->
<!-- Title: time.h Pages: 1 -->
<svg width="1059pt" height="924pt"
 viewBox="0.00 0.00 1059.00 924.00" xmlns="http://www.w3.org/2000/svg" xmlns:xlink="http://www.w3.org/1999/xlink">
<g id="graph0" class="graph" transform="scale(1 1) rotate(0) translate(4 920)">
<title>time.h</title>
<polygon fill="white" stroke="none" points="-4,4 -4,-920 1055,-920 1055,4 -4,4"/>
<!-- Node1 -->
<g id="node1" class="node"><title>Node1</title>
<polygon fill="#bfbfbf" stroke="black" points="186,-896.5 186,-915.5 230,-915.5 230,-896.5 186,-896.5"/>
<text text-anchor="middle" x="208" y="-903.5" font-family="Helvetica,sans-Serif" font-size="10.00">time.h</text>
</g>
<!-- Node2 -->
<g id="node2" class="node"><title>Node2</title>
<g id="a_node2"><a xlink:href="arch_2arm32-linux_2odp_2api_2abi_2time_8h_source.html" target="_top" xlink:title="time.h">
<polygon fill="white" stroke="black" points="0,-840.5 0,-859.5 44,-859.5 44,-840.5 0,-840.5"/>
<text text-anchor="middle" x="22" y="-847.5" font-family="Helvetica,sans-Serif" font-size="10.00">time.h</text>
</a>
</g>
</g>
<!-- Node1&#45;&gt;Node2 -->
<g id="edge1" class="edge"><title>Node1&#45;&gt;Node2</title>
<path fill="none" stroke="midnightblue" d="M175.983,-895.705C138.305,-884.766 76.7425,-866.893 44.0383,-857.398"/>
<polygon fill="midnightblue" stroke="midnightblue" points="175.354,-899.166 185.933,-898.593 177.305,-892.444 175.354,-899.166"/>
</g>
<!-- Node3 -->
<g id="node3" class="node"><title>Node3</title>
<g id="a_node3"><a xlink:href="arch_2arm64-linux_2odp_2api_2abi_2time_8h_source.html" target="_top" xlink:title="time.h">
<polygon fill="white" stroke="black" points="62,-840.5 62,-859.5 106,-859.5 106,-840.5 62,-840.5"/>
<text text-anchor="middle" x="84" y="-847.5" font-family="Helvetica,sans-Serif" font-size="10.00">time.h</text>
</a>
</g>
</g>
<!-- Node1&#45;&gt;Node3 -->
<g id="edge2" class="edge"><title>Node1&#45;&gt;Node3</title>
<path fill="none" stroke="midnightblue" d="M178.993,-892.368C155.771,-882.255 123.837,-868.349 103.556,-859.516"/>
<polygon fill="midnightblue" stroke="midnightblue" points="177.786,-895.66 188.352,-896.444 180.581,-889.242 177.786,-895.66"/>
</g>
<!-- Node4 -->
<g id="node4" class="node"><title>Node4</title>
<g id="a_node4"><a xlink:href="arch_2default-linux_2odp_2api_2abi_2time_8h_source.html" target="_top" xlink:title="time.h">
<polygon fill="white" stroke="black" points="124,-840.5 124,-859.5 168,-859.5 168,-840.5 124,-840.5"/>
<text text-anchor="middle" x="146" y="-847.5" font-family="Helvetica,sans-Serif" font-size="10.00">time.h</text>
</a>
</g>
</g>
<!-- Node1&#45;&gt;Node4 -->
<g id="edge3" class="edge"><title>Node1&#45;&gt;Node4</title>
<path fill="none" stroke="midnightblue" d="M190.246,-889.537C179.192,-879.909 165.369,-867.869 156.143,-859.834"/>
<polygon fill="midnightblue" stroke="midnightblue" points="188.199,-892.395 198.039,-896.324 192.797,-887.117 188.199,-892.395"/>
</g>
<!-- Node5 -->
<g id="node5" class="node"><title>Node5</title>
<g id="a_node5"><a xlink:href="arch_2mips64-linux_2odp_2api_2abi_2time_8h_source.html" target="_top" xlink:title="time.h">
<polygon fill="white" stroke="black" points="186,-840.5 186,-859.5 230,-859.5 230,-840.5 186,-840.5"/>
<text text-anchor="middle" x="208" y="-847.5" font-family="Helvetica,sans-Serif" font-size="10.00">time.h</text>
</a>
</g>
</g>
<!-- Node1&#45;&gt;Node5 -->
<g id="edge4" class="edge"><title>Node1&#45;&gt;Node5</title>
<path fill="none" stroke="midnightblue" d="M208,-885.805C208,-876.91 208,-866.78 208,-859.751"/>
<polygon fill="midnightblue" stroke="midnightblue" points="204.5,-886.083 208,-896.083 211.5,-886.083 204.5,-886.083"/>
</g>
<!-- Node6 -->
<g id="node6" class="node"><title>Node6</title>
<g id="a_node6"><a xlink:href="arch_2power64-linux_2odp_2api_2abi_2time_8h_source.html" target="_top" xlink:title="time.h">
<polygon fill="white" stroke="black" points="248,-840.5 248,-859.5 292,-859.5 292,-840.5 248,-840.5"/>
<text text-anchor="middle" x="270" y="-847.5" font-family="Helvetica,sans-Serif" font-size="10.00">time.h</text>
</a>
</g>
</g>
<!-- Node1&#45;&gt;Node6 -->
<g id="edge5" class="edge"><title>Node1&#45;&gt;Node6</title>
<path fill="none" stroke="midnightblue" d="M225.754,-889.537C236.808,-879.909 250.631,-867.869 259.857,-859.834"/>
<polygon fill="midnightblue" stroke="midnightblue" points="223.203,-887.117 217.961,-896.324 227.801,-892.395 223.203,-887.117"/>
</g>
<!-- Node7 -->
<g id="node7" class="node"><title>Node7</title>
<g id="a_node7"><a xlink:href="arch_2x86__32-linux_2odp_2api_2abi_2time_8h_source.html" target="_top" xlink:title="time.h">
<polygon fill="white" stroke="black" points="310,-840.5 310,-859.5 354,-859.5 354,-840.5 310,-840.5"/>
<text text-anchor="middle" x="332" y="-847.5" font-family="Helvetica,sans-Serif" font-size="10.00">time.h</text>
</a>
</g>
</g>
<!-- Node1&#45;&gt;Node7 -->
<g id="edge6" class="edge"><title>Node1&#45;&gt;Node7</title>
<path fill="none" stroke="midnightblue" d="M237.007,-892.368C260.229,-882.255 292.163,-868.349 312.444,-859.516"/>
<polygon fill="midnightblue" stroke="midnightblue" points="235.419,-889.242 227.648,-896.444 238.214,-895.66 235.419,-889.242"/>
</g>
<!-- Node8 -->
<g id="node8" class="node"><title>Node8</title>
<g id="a_node8"><a xlink:href="arch_2x86__64-linux_2odp_2api_2abi_2time_8h_source.html" target="_top" xlink:title="time.h">
<polygon fill="white" stroke="black" points="372,-840.5 372,-859.5 416,-859.5 416,-840.5 372,-840.5"/>
<text text-anchor="middle" x="394" y="-847.5" font-family="Helvetica,sans-Serif" font-size="10.00">time.h</text>
</a>
</g>
</g>
<!-- Node1&#45;&gt;Node8 -->
<g id="edge7" class="edge"><title>Node1&#45;&gt;Node8</title>
<path fill="none" stroke="midnightblue" d="M240.017,-895.705C277.695,-884.766 339.258,-866.893 371.962,-857.398"/>
<polygon fill="midnightblue" stroke="midnightblue" points="238.695,-892.444 230.067,-898.593 240.646,-899.166 238.695,-892.444"/>
</g>
<!-- Node9 -->
<g id="node9" class="node"><title>Node9</title>
<g id="a_node9"><a xlink:href="api_2time_8h.html" target="_top" xlink:title="ODP time. ">
<polygon fill="white" stroke="black" points="372,-784.5 372,-803.5 416,-803.5 416,-784.5 372,-784.5"/>
<text text-anchor="middle" x="394" y="-791.5" font-family="Helvetica,sans-Serif" font-size="10.00">time.h</text>
</a>
</g>
</g>
<!-- Node8&#45;&gt;Node9 -->
<g id="edge8" class="edge"><title>Node8&#45;&gt;Node9</title>
<path fill="none" stroke="midnightblue" d="M394,-829.805C394,-820.91 394,-810.78 394,-803.751"/>
<polygon fill="midnightblue" stroke="midnightblue" points="390.5,-830.083 394,-840.083 397.5,-830.083 390.5,-830.083"/>
</g>
<!-- Node10 -->
<g id="node10" class="node"><title>Node10</title>
<g id="a_node10"><a xlink:href="api_2spec_2packet_8h.html" target="_top" xlink:title="ODP packet descriptor. ">
<polygon fill="white" stroke="black" points="544,-728.5 544,-747.5 598,-747.5 598,-728.5 544,-728.5"/>
<text text-anchor="middle" x="571" y="-735.5" font-family="Helvetica,sans-Serif" font-size="10.00">packet.h</text>
</a>
</g>
</g>
<!-- Node9&#45;&gt;Node10 -->
<g id="edge9" class="edge"><title>Node9&#45;&gt;Node10</title>
<path fill="none" stroke="midnightblue" d="M425.848,-783.284C459.476,-773.024 511.932,-757.021 543.722,-747.322"/>
<polygon fill="midnightblue" stroke="midnightblue" points="424.603,-780.004 416.059,-786.27 426.645,-786.7 424.603,-780.004"/>
</g>
<!-- Node14 -->
<g id="node14" class="node"><title>Node14</title>
<g id="a_node14"><a xlink:href="odp__api_8h.html" target="_top" xlink:title="The OpenDataPlane API. ">
<polygon fill="white" stroke="black" points="690.5,-56.5 690.5,-75.5 749.5,-75.5 749.5,-56.5 690.5,-56.5"/>
<text text-anchor="middle" x="720" y="-63.5" font-family="Helvetica,sans-Serif" font-size="10.00">odp_api.h</text>
</a>
</g>
</g>
<!-- Node9&#45;&gt;Node14 -->
<g id="edge49" class="edge"><title>Node9&#45;&gt;Node14</title>
<path fill="none" stroke="midnightblue" d="M383.857,-775.429C372.6,-754.236 356,-717.187 356,-683 356,-683 356,-683 356,-177 356,-136.145 384.527,-130.408 421,-112 467.864,-88.3483 623.998,-74.1866 690.064,-69.1226"/>
<polygon fill="midnightblue" stroke="midnightblue" points="380.819,-777.168 388.716,-784.231 386.947,-773.785 380.819,-777.168"/>
</g>
<!-- Node24 -->
<g id="node24" class="node"><title>Node24</title>
<g id="a_node24"><a xlink:href="api_2spec_2packet__io_8h.html" target="_top" xlink:title="ODP Packet IO. ">
<polygon fill="white" stroke="black" points="557.5,-392.5 557.5,-411.5 624.5,-411.5 624.5,-392.5 557.5,-392.5"/>
<text text-anchor="middle" x="591" y="-399.5" font-family="Helvetica,sans-Serif" font-size="10.00">packet_io.h</text>
</a>
</g>
</g>
<!-- Node9&#45;&gt;Node24 -->
<g id="edge48" class="edge"><title>Node9&#45;&gt;Node24</title>
<path fill="none" stroke="midnightblue" d="M394,-774.251C394,-752.357 394,-715.052 394,-683 394,-683 394,-683 394,-513 394,-439.161 500.809,-414.422 557.134,-406.509"/>
<polygon fill="midnightblue" stroke="midnightblue" points="390.5,-774.442 394,-784.442 397.5,-774.442 390.5,-774.442"/>
</g>
<!-- Node11 -->
<g id="node11" class="node"><title>Node11</title>
<g id="a_node11"><a xlink:href="api_2packet_8h.html" target="_top" xlink:title="ODP packet descriptor. ">
<polygon fill="white" stroke="black" points="666,-672.5 666,-691.5 720,-691.5 720,-672.5 666,-672.5"/>
<text text-anchor="middle" x="693" y="-679.5" font-family="Helvetica,sans-Serif" font-size="10.00">packet.h</text>
</a>
</g>
</g>
<!-- Node10&#45;&gt;Node11 -->
<g id="edge10" class="edge"><title>Node10&#45;&gt;Node11</title>
<path fill="none" stroke="midnightblue" d="M599.539,-724.368C622.386,-714.255 653.805,-700.349 673.759,-691.516"/>
<polygon fill="midnightblue" stroke="midnightblue" points="598.059,-721.196 590.331,-728.444 600.892,-727.597 598.059,-721.196"/>
</g>
<!-- Node12 -->
<g id="node12" class="node"><title>Node12</title>
<g id="a_node12"><a xlink:href="api_2spec_2comp_8h.html" target="_top" xlink:title="ODP Compression. ">
<polygon fill="white" stroke="black" points="456.5,-616.5 456.5,-635.5 505.5,-635.5 505.5,-616.5 456.5,-616.5"/>
<text text-anchor="middle" x="481" y="-623.5" font-family="Helvetica,sans-Serif" font-size="10.00">comp.h</text>
</a>
</g>
</g>
<!-- Node11&#45;&gt;Node12 -->
<g id="edge11" class="edge"><title>Node11&#45;&gt;Node12</title>
<path fill="none" stroke="midnightblue" d="M655.874,-671.543C612.655,-660.535 542.494,-642.664 505.549,-633.253"/>
<polygon fill="midnightblue" stroke="midnightblue" points="655.164,-674.974 665.719,-674.051 656.892,-668.191 655.164,-674.974"/>
</g>
<!-- Node11&#45;&gt;Node14 -->
<g id="edge47" class="edge"><title>Node11&#45;&gt;Node14</title>
<path fill="none" stroke="midnightblue" d="M730.359,-680.941C800.075,-678.658 943,-662.785 943,-571 943,-571 943,-571 943,-177 943,-91.7409 810.273,-72.5632 749.613,-68.2506"/>
<polygon fill="midnightblue" stroke="midnightblue" points="730.14,-677.445 720.23,-681.194 730.314,-684.443 730.14,-677.445"/>
</g>
<!-- Node16 -->
<g id="node16" class="node"><title>Node16</title>
<g id="a_node16"><a xlink:href="api_2spec_2crypto_8h.html" target="_top" xlink:title="ODP crypto. ">
<polygon fill="white" stroke="black" points="667,-448.5 667,-467.5 719,-467.5 719,-448.5 667,-448.5"/>
<text text-anchor="middle" x="693" y="-455.5" font-family="Helvetica,sans-Serif" font-size="10.00">crypto.h</text>
</a>
</g>
</g>
<!-- Node11&#45;&gt;Node16 -->
<g id="edge15" class="edge"><title>Node11&#45;&gt;Node16</title>
<path fill="none" stroke="midnightblue" d="M693,-662.295C693,-616.644 693,-500.854 693,-467.884"/>
<polygon fill="midnightblue" stroke="midnightblue" points="689.5,-662.297 693,-672.297 696.5,-662.297 689.5,-662.297"/>
</g>
<!-- Node20 -->
<g id="node20" class="node"><title>Node20</title>
<g id="a_node20"><a xlink:href="api_2spec_2event_8h.html" target="_top" xlink:title="ODP event. ">
<polygon fill="white" stroke="black" points="735.5,-616.5 735.5,-635.5 784.5,-635.5 784.5,-616.5 735.5,-616.5"/>
<text text-anchor="middle" x="760" y="-623.5" font-family="Helvetica,sans-Serif" font-size="10.00">event.h</text>
</a>
</g>
</g>
<!-- Node11&#45;&gt;Node20 -->
<g id="edge21" class="edge"><title>Node11&#45;&gt;Node20</title>
<path fill="none" stroke="midnightblue" d="M711.835,-665.82C723.838,-656.145 738.972,-643.948 749.039,-635.834"/>
<polygon fill="midnightblue" stroke="midnightblue" points="709.354,-663.324 703.765,-672.324 713.747,-668.774 709.354,-663.324"/>
</g>
<!-- Node11&#45;&gt;Node24 -->
<g id="edge46" class="edge"><title>Node11&#45;&gt;Node24</title>
<path fill="none" stroke="midnightblue" d="M672.913,-665.913C649.802,-646.664 615,-611.033 615,-571 615,-571 615,-571 615,-513 615,-474.493 600.788,-430.111 594.237,-411.699"/>
<polygon fill="midnightblue" stroke="midnightblue" points="670.82,-668.72 680.812,-672.241 675.196,-663.257 670.82,-668.72"/>
</g>
<!-- Node32 -->
<g id="node32" class="node"><title>Node32</title>
<g id="a_node32"><a xlink:href="api_2spec_2packet__flags_8h.html" target="_top" xlink:title="ODP packet flags. ">
<polygon fill="white" stroke="black" points="971,-560.5 971,-579.5 1051,-579.5 1051,-560.5 971,-560.5"/>
<text text-anchor="middle" x="1011" y="-567.5" font-family="Helvetica,sans-Serif" font-size="10.00">packet_flags.h</text>
</a>
</g>
</g>
<!-- Node11&#45;&gt;Node32 -->
<g id="edge43" class="edge"><title>Node11&#45;&gt;Node32</title>
<path fill="none" stroke="midnightblue" d="M730.376,-677.839C793.728,-671.958 919.023,-657.906 957,-636 980.637,-622.365 998.433,-594.231 1006.4,-579.864"/>
<polygon fill="midnightblue" stroke="midnightblue" points="729.674,-674.389 720.031,-678.778 730.307,-681.36 729.674,-674.389"/>
</g>
<!-- Node13 -->
<g id="node13" class="node"><title>Node13</title>
<g id="a_node13"><a xlink:href="api_2comp_8h.html" target="_top" xlink:title="ODP crypto. ">
<polygon fill="white" stroke="black" points="432.5,-504.5 432.5,-523.5 481.5,-523.5 481.5,-504.5 432.5,-504.5"/>
<text text-anchor="middle" x="457" y="-511.5" font-family="Helvetica,sans-Serif" font-size="10.00">comp.h</text>
</a>
</g>
</g>
<!-- Node12&#45;&gt;Node13 -->
<g id="edge12" class="edge"><title>Node12&#45;&gt;Node13</title>
<path fill="none" stroke="midnightblue" d="M476.93,-606.348C471.674,-582.254 462.74,-541.308 458.874,-523.591"/>
<polygon fill="midnightblue" stroke="midnightblue" points="473.565,-607.344 479.117,-616.368 480.405,-605.852 473.565,-607.344"/>
</g>
<!-- Node13&#45;&gt;Node14 -->
<g id="edge13" class="edge"><title>Node13&#45;&gt;Node14</title>
<path fill="none" stroke="midnightblue" d="M450.529,-494.935C435.403,-451.033 399,-334.993 399,-235 399,-235 399,-235 399,-177 399,-135.829 428.41,-130.873 465,-112 539.512,-73.5655 640.795,-67.2482 690.297,-66.6509"/>
<polygon fill="midnightblue" stroke="midnightblue" points="447.268,-496.211 453.882,-504.488 453.873,-493.894 447.268,-496.211"/>
</g>
<!-- Node15 -->
<g id="node15" class="node"><title>Node15</title>
<g id="a_node15"><a xlink:href="odp_8h.html" target="_top" xlink:title="WARNING: THIS FILE IS DEPRECATED AND WILL BE REMOVED!!! ODP APPLICATIONS SHOULD NOW INCLUDE odp_api...">
<polygon fill="white" stroke="black" points="699.5,-0.5 699.5,-19.5 740.5,-19.5 740.5,-0.5 699.5,-0.5"/>
<text text-anchor="middle" x="720" y="-7.5" font-family="Helvetica,sans-Serif" font-size="10.00">odp.h</text>
</a>
</g>
</g>
<!-- Node14&#45;&gt;Node15 -->
<g id="edge14" class="edge"><title>Node14&#45;&gt;Node15</title>
<path fill="none" stroke="midnightblue" d="M720,-45.8045C720,-36.9102 720,-26.7798 720,-19.7511"/>
<polygon fill="midnightblue" stroke="midnightblue" points="716.5,-46.083 720,-56.083 723.5,-46.083 716.5,-46.083"/>
</g>
<!-- Node17 -->
<g id="node17" class="node"><title>Node17</title>
<g id="a_node17"><a xlink:href="api_2crypto_8h.html" target="_top" xlink:title="ODP crypto. ">
<polygon fill="white" stroke="black" points="688,-336.5 688,-355.5 740,-355.5 740,-336.5 688,-336.5"/>
<text text-anchor="middle" x="714" y="-343.5" font-family="Helvetica,sans-Serif" font-size="10.00">crypto.h</text>
</a>
</g>
</g>
<!-- Node16&#45;&gt;Node17 -->
<g id="edge16" class="edge"><title>Node16&#45;&gt;Node17</title>
<path fill="none" stroke="midnightblue" d="M696.561,-438.348C701.161,-414.254 708.978,-373.308 712.36,-355.591"/>
<polygon fill="midnightblue" stroke="midnightblue" points="693.085,-437.89 694.648,-448.368 699.961,-439.202 693.085,-437.89"/>
</g>
<!-- Node17&#45;&gt;Node14 -->
<g id="edge20" class="edge"><title>Node17&#45;&gt;Node14</title>
<path fill="none" stroke="midnightblue" d="M722.792,-327.309C732.568,-305.972 747,-268.755 747,-235 747,-235 747,-235 747,-177 747,-138.262 731.011,-94.0045 723.641,-75.6622"/>
<polygon fill="midnightblue" stroke="midnightblue" points="719.591,-325.89 718.451,-336.424 725.911,-328.901 719.591,-325.89"/>
</g>
<!-- Node18 -->
<g id="node18" class="node"><title>Node18</title>
<g id="a_node18"><a xlink:href="api_2spec_2ipsec_8h.html" target="_top" xlink:title="ODP IPSEC API. ">
<polygon fill="white" stroke="black" points="537,-168.5 537,-187.5 585,-187.5 585,-168.5 537,-168.5"/>
<text text-anchor="middle" x="561" y="-175.5" font-family="Helvetica,sans-Serif" font-size="10.00">ipsec.h</text>
</a>
</g>
</g>
<!-- Node17&#45;&gt;Node18 -->
<g id="edge17" class="edge"><title>Node17&#45;&gt;Node18</title>
<path fill="none" stroke="midnightblue" d="M709.73,-326.499C705.91,-312.729 699.299,-293.979 689,-280 657.434,-237.155 603.199,-202.769 576.614,-187.524"/>
<polygon fill="midnightblue" stroke="midnightblue" points="706.362,-327.454 712.213,-336.287 713.147,-325.734 706.362,-327.454"/>
</g>
<!-- Node19 -->
<g id="node19" class="node"><title>Node19</title>
<g id="a_node19"><a xlink:href="api_2ipsec_8h.html" target="_top" xlink:title="ODP IPSEC API &#45; platform specific header. ">
<polygon fill="white" stroke="black" points="537,-112.5 537,-131.5 585,-131.5 585,-112.5 537,-112.5"/>
<text text-anchor="middle" x="561" y="-119.5" font-family="Helvetica,sans-Serif" font-size="10.00">ipsec.h</text>
</a>
</g>
</g>
<!-- Node18&#45;&gt;Node19 -->
<g id="edge18" class="edge"><title>Node18&#45;&gt;Node19</title>
<path fill="none" stroke="midnightblue" d="M561,-157.805C561,-148.91 561,-138.78 561,-131.751"/>
<polygon fill="midnightblue" stroke="midnightblue" points="557.5,-158.083 561,-168.083 564.5,-158.083 557.5,-158.083"/>
</g>
<!-- Node19&#45;&gt;Node14 -->
<g id="edge19" class="edge"><title>Node19&#45;&gt;Node14</title>
<path fill="none" stroke="midnightblue" d="M594.763,-109.533C624.72,-99.3593 667.809,-84.7253 694.835,-75.5467"/>
<polygon fill="midnightblue" stroke="midnightblue" points="593.492,-106.269 585.149,-112.799 595.743,-112.897 593.492,-106.269"/>
</g>
<!-- Node21 -->
<g id="node21" class="node"><title>Node21</title>
<g id="a_node21"><a xlink:href="api_2event_8h.html" target="_top" xlink:title="ODP event. ">
<polygon fill="white" stroke="black" points="749.5,-560.5 749.5,-579.5 798.5,-579.5 798.5,-560.5 749.5,-560.5"/>
<text text-anchor="middle" x="774" y="-567.5" font-family="Helvetica,sans-Serif" font-size="10.00">event.h</text>
</a>
</g>
</g>
<!-- Node20&#45;&gt;Node21 -->
<g id="edge22" class="edge"><title>Node20&#45;&gt;Node21</title>
<path fill="none" stroke="midnightblue" d="M764.823,-606.396C767.165,-597.362 769.868,-586.936 771.731,-579.751"/>
<polygon fill="midnightblue" stroke="midnightblue" points="761.434,-605.525 762.312,-616.083 768.21,-607.281 761.434,-605.525"/>
</g>
<!-- Node21&#45;&gt;Node14 -->
<g id="edge42" class="edge"><title>Node21&#45;&gt;Node14</title>
<path fill="none" stroke="midnightblue" d="M770.472,-550.547C769.092,-542.437 767.679,-532.78 767,-524 764.396,-490.323 765.577,-481.748 767,-448 771.004,-353.08 785,-330.004 785,-235 785,-235 785,-235 785,-177 785,-133.967 747.672,-92.9849 729.591,-75.6585"/>
<polygon fill="midnightblue" stroke="midnightblue" points="767.034,-551.204 772.261,-560.419 773.922,-549.955 767.034,-551.204"/>
</g>
<!-- Node22 -->
<g id="node22" class="node"><title>Node22</title>
<g id="a_node22"><a xlink:href="api_2spec_2queue_8h.html" target="_top" xlink:title="ODP queue. ">
<polygon fill="white" stroke="black" points="775.5,-504.5 775.5,-523.5 826.5,-523.5 826.5,-504.5 775.5,-504.5"/>
<text text-anchor="middle" x="801" y="-511.5" font-family="Helvetica,sans-Serif" font-size="10.00">queue.h</text>
</a>
</g>
</g>
<!-- Node21&#45;&gt;Node22 -->
<g id="edge23" class="edge"><title>Node21&#45;&gt;Node22</title>
<path fill="none" stroke="midnightblue" d="M783.009,-550.983C787.592,-541.817 792.954,-531.092 796.624,-523.751"/>
<polygon fill="midnightblue" stroke="midnightblue" points="779.8,-549.573 778.459,-560.083 786.061,-552.704 779.8,-549.573"/>
</g>
<!-- Node30 -->
<g id="node30" class="node"><title>Node30</title>
<g id="a_node30"><a xlink:href="api_2spec_2schedule_8h.html" target="_top" xlink:title="ODP schedule. ">
<polygon fill="white" stroke="black" points="851,-392.5 851,-411.5 915,-411.5 915,-392.5 851,-392.5"/>
<text text-anchor="middle" x="883" y="-399.5" font-family="Helvetica,sans-Serif" font-size="10.00">schedule.h</text>
</a>
</g>
</g>
<!-- Node21&#45;&gt;Node30 -->
<g id="edge41" class="edge"><title>Node21&#45;&gt;Node30</title>
<path fill="none" stroke="midnightblue" d="M799.096,-555.049C811.28,-547.238 825.336,-536.544 835,-524 862.998,-487.657 876.775,-432.867 881.28,-411.738"/>
<polygon fill="midnightblue" stroke="midnightblue" points="796.964,-552.25 790.247,-560.444 800.607,-558.227 796.964,-552.25"/>
</g>
<!-- Node23 -->
<g id="node23" class="node"><title>Node23</title>
<g id="a_node23"><a xlink:href="api_2queue_8h.html" target="_top" xlink:title="ODP queue. ">
<polygon fill="white" stroke="black" points="775.5,-448.5 775.5,-467.5 826.5,-467.5 826.5,-448.5 775.5,-448.5"/>
<text text-anchor="middle" x="801" y="-455.5" font-family="Helvetica,sans-Serif" font-size="10.00">queue.h</text>
</a>
</g>
</g>
<!-- Node22&#45;&gt;Node23 -->
<g id="edge24" class="edge"><title>Node22&#45;&gt;Node23</title>
<path fill="none" stroke="midnightblue" d="M801,-493.805C801,-484.91 801,-474.78 801,-467.751"/>
<polygon fill="midnightblue" stroke="midnightblue" points="797.5,-494.083 801,-504.083 804.5,-494.083 797.5,-494.083"/>
</g>
<!-- Node23&#45;&gt;Node14 -->
<g id="edge40" class="edge"><title>Node23&#45;&gt;Node14</title>
<path fill="none" stroke="midnightblue" d="M807.04,-438.447C813.553,-416.76 823,-379.672 823,-347 823,-347 823,-347 823,-177 823,-146.205 818.918,-135.487 799,-112 784.401,-94.7853 761.462,-82.7614 744.055,-75.5007"/>
<polygon fill="midnightblue" stroke="midnightblue" points="803.609,-437.69 803.967,-448.279 810.291,-439.778 803.609,-437.69"/>
</g>
<!-- Node23&#45;&gt;Node17 -->
<g id="edge25" class="edge"><title>Node23&#45;&gt;Node17</title>
<path fill="none" stroke="midnightblue" d="M787.77,-440.272C768.964,-416.494 735.188,-373.789 720.795,-355.591"/>
<polygon fill="midnightblue" stroke="midnightblue" points="785.225,-442.696 794.173,-448.368 790.715,-438.354 785.225,-442.696"/>
</g>
<!-- Node23&#45;&gt;Node24 -->
<g id="edge26" class="edge"><title>Node23&#45;&gt;Node24</title>
<path fill="none" stroke="midnightblue" d="M765.515,-447.875C726.042,-437.725 662.77,-421.455 624.232,-411.545"/>
<polygon fill="midnightblue" stroke="midnightblue" points="764.693,-451.278 775.25,-450.379 766.437,-444.498 764.693,-451.278"/>
</g>
<!-- Node23&#45;&gt;Node30 -->
<g id="edge37" class="edge"><title>Node23&#45;&gt;Node30</title>
<path fill="none" stroke="midnightblue" d="M822.833,-442.622C837.813,-432.757 857.197,-419.992 869.858,-411.655"/>
<polygon fill="midnightblue" stroke="midnightblue" points="820.601,-439.901 814.175,-448.324 824.451,-445.747 820.601,-439.901"/>
</g>
<!-- Node25 -->
<g id="node25" class="node"><title>Node25</title>
<g id="a_node25"><a xlink:href="api_2packet__io_8h.html" target="_top" xlink:title="ODP Packet IO. ">
<polygon fill="white" stroke="black" points="510.5,-336.5 510.5,-355.5 577.5,-355.5 577.5,-336.5 510.5,-336.5"/>
<text text-anchor="middle" x="544" y="-343.5" font-family="Helvetica,sans-Serif" font-size="10.00">packet_io.h</text>
</a>
</g>
</g>
<!-- Node24&#45;&gt;Node25 -->
<g id="edge27" class="edge"><title>Node24&#45;&gt;Node25</title>
<path fill="none" stroke="midnightblue" d="M576.579,-384.431C568.342,-374.967 558.346,-363.483 551.617,-355.751"/>
<polygon fill="midnightblue" stroke="midnightblue" points="574.034,-386.838 583.239,-392.083 579.314,-382.242 574.034,-386.838"/>
</g>
<!-- Node25&#45;&gt;Node14 -->
<g id="edge36" class="edge"><title>Node25&#45;&gt;Node14</title>
<path fill="none" stroke="midnightblue" d="M516.506,-331.773C484.803,-314.376 437,-280.587 437,-235 437,-235 437,-235 437,-177 437,-127.298 482.724,-132.504 528,-112 582.266,-87.4246 651.464,-75.4675 690.225,-70.3289"/>
<polygon fill="midnightblue" stroke="midnightblue" points="514.884,-334.875 525.362,-336.441 518.148,-328.682 514.884,-334.875"/>
</g>
<!-- Node25&#45;&gt;Node18 -->
<g id="edge32" class="edge"><title>Node25&#45;&gt;Node18</title>
<path fill="none" stroke="midnightblue" d="M520.751,-330.683C510.516,-322.988 499.568,-312.502 494,-300 490.384,-291.88 492.695,-288.793 494,-280 497.819,-254.271 497.044,-245.949 511,-224 520.65,-208.823 536.784,-195.622 548.108,-187.511"/>
<polygon fill="midnightblue" stroke="midnightblue" points="518.844,-333.621 529.048,-336.474 522.851,-327.881 518.844,-333.621"/>
</g>
<!-- Node26 -->
<g id="node26" class="node"><title>Node26</title>
<g id="a_node26"><a xlink:href="api_2spec_2classification_8h.html" target="_top" xlink:title="ODP classification descriptor. ">
<polygon fill="white" stroke="black" points="503,-280.5 503,-299.5 585,-299.5 585,-280.5 503,-280.5"/>
<text text-anchor="middle" x="544" y="-287.5" font-family="Helvetica,sans-Serif" font-size="10.00">classification.h</text>
</a>
</g>
</g>
<!-- Node25&#45;&gt;Node26 -->
<g id="edge28" class="edge"><title>Node25&#45;&gt;Node26</title>
<path fill="none" stroke="midnightblue" d="M544,-325.805C544,-316.91 544,-306.78 544,-299.751"/>
<polygon fill="midnightblue" stroke="midnightblue" points="540.5,-326.083 544,-336.083 547.5,-326.083 540.5,-326.083"/>
</g>
<!-- Node28 -->
<g id="node28" class="node"><title>Node28</title>
<g id="a_node28"><a xlink:href="api_2spec_2traffic__mngr_8h.html" target="_top" xlink:title="Copyright (c) 2015&#45;2018, Linaro Limited All rights reserved. ">
<polygon fill="white" stroke="black" points="603.5,-280.5 603.5,-299.5 680.5,-299.5 680.5,-280.5 603.5,-280.5"/>
<text text-anchor="middle" x="642" y="-287.5" font-family="Helvetica,sans-Serif" font-size="10.00">traffic_mngr.h</text>
</a>
</g>
</g>
<!-- Node25&#45;&gt;Node28 -->
<g id="edge33" class="edge"><title>Node25&#45;&gt;Node28</title>
<path fill="none" stroke="midnightblue" d="M568.586,-331.453C586.678,-321.483 610.735,-308.228 626.294,-299.655"/>
<polygon fill="midnightblue" stroke="midnightblue" points="566.815,-328.432 559.745,-336.324 570.193,-334.563 566.815,-328.432"/>
</g>
<!-- Node27 -->
<g id="node27" class="node"><title>Node27</title>
<g id="a_node27"><a xlink:href="api_2classification_8h.html" target="_top" xlink:title="ODP classification descriptor. ">
<polygon fill="white" stroke="black" points="520,-224.5 520,-243.5 602,-243.5 602,-224.5 520,-224.5"/>
<text text-anchor="middle" x="561" y="-231.5" font-family="Helvetica,sans-Serif" font-size="10.00">classification.h</text>
</a>
</g>
</g>
<!-- Node26&#45;&gt;Node27 -->
<g id="edge29" class="edge"><title>Node26&#45;&gt;Node27</title>
<path fill="none" stroke="midnightblue" d="M549.857,-270.396C552.701,-261.362 555.983,-250.936 558.245,-243.751"/>
<polygon fill="midnightblue" stroke="midnightblue" points="546.472,-269.493 546.807,-280.083 553.149,-271.596 546.472,-269.493"/>
</g>
<!-- Node27&#45;&gt;Node14 -->
<g id="edge31" class="edge"><title>Node27&#45;&gt;Node14</title>
<path fill="none" stroke="midnightblue" d="M576.659,-216.651C609.908,-181.939 686.574,-101.898 711.793,-75.5681"/>
<polygon fill="midnightblue" stroke="midnightblue" points="573.938,-214.432 569.549,-224.075 578.993,-219.274 573.938,-214.432"/>
</g>
<!-- Node27&#45;&gt;Node18 -->
<g id="edge30" class="edge"><title>Node27&#45;&gt;Node18</title>
<path fill="none" stroke="midnightblue" d="M561,-213.805C561,-204.91 561,-194.78 561,-187.751"/>
<polygon fill="midnightblue" stroke="midnightblue" points="557.5,-214.083 561,-224.083 564.5,-214.083 557.5,-214.083"/>
</g>
<!-- Node29 -->
<g id="node29" class="node"><title>Node29</title>
<g id="a_node29"><a xlink:href="api_2traffic__mngr_8h.html" target="_top" xlink:title="ODP Traffic manager. ">
<polygon fill="white" stroke="black" points="641.5,-168.5 641.5,-187.5 718.5,-187.5 718.5,-168.5 641.5,-168.5"/>
<text text-anchor="middle" x="680" y="-175.5" font-family="Helvetica,sans-Serif" font-size="10.00">traffic_mngr.h</text>
</a>
</g>
</g>
<!-- Node28&#45;&gt;Node29 -->
<g id="edge34" class="edge"><title>Node28&#45;&gt;Node29</title>
<path fill="none" stroke="midnightblue" d="M648.331,-270.674C656.639,-246.625 670.884,-205.388 677.032,-187.591"/>
<polygon fill="midnightblue" stroke="midnightblue" points="644.939,-269.774 644.982,-280.368 651.555,-272.059 644.939,-269.774"/>
</g>
<!-- Node29&#45;&gt;Node14 -->
<g id="edge35" class="edge"><title>Node29&#45;&gt;Node14</title>
<path fill="none" stroke="midnightblue" d="M686.664,-158.674C695.409,-134.625 710.404,-93.3881 716.876,-75.5914"/>
<polygon fill="midnightblue" stroke="midnightblue" points="683.267,-157.774 683.139,-168.368 689.846,-160.167 683.267,-157.774"/>
</g>
<!-- Node31 -->
<g id="node31" class="node"><title>Node31</title>
<g id="a_node31"><a xlink:href="api_2schedule_8h.html" target="_top" xlink:title="ODP schedule. ">
<polygon fill="white" stroke="black" points="851,-224.5 851,-243.5 915,-243.5 915,-224.5 851,-224.5"/>
<text text-anchor="middle" x="883" y="-231.5" font-family="Helvetica,sans-Serif" font-size="10.00">schedule.h</text>
</a>
</g>
</g>
<!-- Node30&#45;&gt;Node31 -->
<g id="edge38" class="edge"><title>Node30&#45;&gt;Node31</title>
<path fill="none" stroke="midnightblue" d="M883,-381.93C883,-345.92 883,-269.231 883,-243.568"/>
<polygon fill="midnightblue" stroke="midnightblue" points="879.5,-382.075 883,-392.075 886.5,-382.075 879.5,-382.075"/>
</g>
<!-- Node31&#45;&gt;Node14 -->
<g id="edge39" class="edge"><title>Node31&#45;&gt;Node14</title>
<path fill="none" stroke="midnightblue" d="M880.694,-214.293C876.515,-188.075 865.323,-140.433 837,-112 813.347,-88.2552 775.812,-76.7939 749.656,-71.4302"/>
<polygon fill="midnightblue" stroke="midnightblue" points="877.257,-214.981 882.122,-224.393 884.188,-214.002 877.257,-214.981"/>
</g>
<!-- Node33 -->
<g id="node33" class="node"><title>Node33</title>
<g id="a_node33"><a xlink:href="api_2packet__flags_8h.html" target="_top" xlink:title="ODP packet flags. ">
<polygon fill="white" stroke="black" points="971,-112.5 971,-131.5 1051,-131.5 1051,-112.5 971,-112.5"/>
<text text-anchor="middle" x="1011" y="-119.5" font-family="Helvetica,sans-Serif" font-size="10.00">packet_flags.h</text>
</a>
</g>
</g>
<!-- Node32&#45;&gt;Node33 -->
<g id="edge44" class="edge"><title>Node32&#45;&gt;Node33</title>
<path fill="none" stroke="midnightblue" d="M1011,-550.251C1011,-528.357 1011,-491.052 1011,-459 1011,-459 1011,-459 1011,-233 1011,-195.188 1011,-150.064 1011,-131.558"/>
<polygon fill="midnightblue" stroke="midnightblue" points="1007.5,-550.442 1011,-560.442 1014.5,-550.442 1007.5,-550.442"/>
</g>
<!-- Node33&#45;&gt;Node14 -->
<g id="edge45" class="edge"><title>Node33&#45;&gt;Node14</title>
<path fill="none" stroke="midnightblue" d="M960.69,-111.664C899.792,-100.363 799.247,-81.7056 749.607,-72.4942"/>
<polygon fill="midnightblue" stroke="midnightblue" points="960.372,-115.165 970.843,-113.548 961.65,-108.282 960.372,-115.165"/>
</g>
</g>
</svg>
