<?xml version="1.0" encoding="UTF-8" standalone="no"?>
<!DOCTYPE svg PUBLIC "-//W3C//DTD SVG 1.1//EN"
 "http://www.w3.org/Graphics/SVG/1.1/DTD/svg11.dtd">
<!-- Generated by graphviz version 2.36.0 (20140111.2315)
 -->
<!-- Title: atomic.h Pages: 1 -->
<svg width="1594pt" height="532pt"
 viewBox="0.00 0.00 1594.00 532.00" xmlns="http://www.w3.org/2000/svg" xmlns:xlink="http://www.w3.org/1999/xlink">
<g id="graph0" class="graph" transform="scale(1 1) rotate(0) translate(4 528)">
<title>atomic.h</title>
<polygon fill="white" stroke="none" points="-4,4 -4,-528 1590,-528 1590,4 -4,4"/>
<!-- Node3 -->
<g id="node1" class="node"><title>Node3</title>
<polygon fill="#bfbfbf" stroke="black" points="511,-504.5 511,-523.5 565,-523.5 565,-504.5 511,-504.5"/>
<text text-anchor="middle" x="538" y="-511.5" font-family="Helvetica,sans-Serif" font-size="10.00">atomic.h</text>
</g>
<!-- Node4 -->
<g id="node2" class="node"><title>Node4</title>
<g id="a_node2"><a xlink:href="api_2atomic_8h.html" target="_top" xlink:title="ODP atomic operations. ">
<polygon fill="white" stroke="black" points="511,-448.5 511,-467.5 565,-467.5 565,-448.5 511,-448.5"/>
<text text-anchor="middle" x="538" y="-455.5" font-family="Helvetica,sans-Serif" font-size="10.00">atomic.h</text>
</a>
</g>
</g>
<!-- Node3&#45;&gt;Node4 -->
<g id="edge1" class="edge"><title>Node3&#45;&gt;Node4</title>
<path fill="none" stroke="midnightblue" d="M538,-493.805C538,-484.91 538,-474.78 538,-467.751"/>
<polygon fill="midnightblue" stroke="midnightblue" points="534.5,-494.083 538,-504.083 541.5,-494.083 534.5,-494.083"/>
</g>
<!-- Node5 -->
<g id="node3" class="node"><title>Node5</title>
<g id="a_node3"><a xlink:href="api_2abi-default_2barrier_8h.html" target="_top" xlink:title="ODP barrier. ">
<polygon fill="white" stroke="black" points="245,-392.5 245,-411.5 297,-411.5 297,-392.5 245,-392.5"/>
<text text-anchor="middle" x="271" y="-399.5" font-family="Helvetica,sans-Serif" font-size="10.00">barrier.h</text>
</a>
</g>
</g>
<!-- Node4&#45;&gt;Node5 -->
<g id="edge2" class="edge"><title>Node4&#45;&gt;Node5</title>
<path fill="none" stroke="midnightblue" d="M500.954,-449.508C446.238,-438.441 345.146,-417.996 297.351,-408.329"/>
<polygon fill="midnightblue" stroke="midnightblue" points="500.434,-452.973 510.929,-451.525 501.822,-446.112 500.434,-452.973"/>
</g>
<!-- Node13 -->
<g id="node11" class="node"><title>Node13</title>
<g id="a_node11"><a xlink:href="api_2barrier_8h.html" target="_top" xlink:title="ODP execution barriers. ">
<polygon fill="white" stroke="black" points="458,-280.5 458,-299.5 510,-299.5 510,-280.5 458,-280.5"/>
<text text-anchor="middle" x="484" y="-287.5" font-family="Helvetica,sans-Serif" font-size="10.00">barrier.h</text>
</a>
</g>
</g>
<!-- Node4&#45;&gt;Node13 -->
<g id="edge43" class="edge"><title>Node4&#45;&gt;Node13</title>
<path fill="none" stroke="midnightblue" d="M531.948,-438.395C520.299,-402.585 495.172,-325.342 486.787,-299.568"/>
<polygon fill="midnightblue" stroke="midnightblue" points="528.675,-439.648 535.097,-448.075 535.332,-437.483 528.675,-439.648"/>
</g>
<!-- Node14 -->
<g id="node12" class="node"><title>Node14</title>
<g id="a_node12"><a xlink:href="odp__api_8h.html" target="_top" xlink:title="The OpenDataPlane API. ">
<polygon fill="white" stroke="black" points="555.5,-56.5 555.5,-75.5 614.5,-75.5 614.5,-56.5 555.5,-56.5"/>
<text text-anchor="middle" x="585" y="-63.5" font-family="Helvetica,sans-Serif" font-size="10.00">odp_api.h</text>
</a>
</g>
</g>
<!-- Node4&#45;&gt;Node14 -->
<g id="edge44" class="edge"><title>Node4&#45;&gt;Node14</title>
<path fill="none" stroke="midnightblue" d="M538,-438.251C538,-416.357 538,-379.052 538,-347 538,-347 538,-347 538,-177 538,-136.296 565.551,-93.44 578.465,-75.5872"/>
<polygon fill="midnightblue" stroke="midnightblue" points="534.5,-438.442 538,-448.442 541.5,-438.442 534.5,-438.442"/>
</g>
<!-- Node16 -->
<g id="node14" class="node"><title>Node16</title>
<g id="a_node14"><a xlink:href="api_2abi-default_2rwlock_8h.html" target="_top" xlink:title="ODP rwlock. ">
<polygon fill="white" stroke="black" points="743.5,-392.5 743.5,-411.5 796.5,-411.5 796.5,-392.5 743.5,-392.5"/>
<text text-anchor="middle" x="770" y="-399.5" font-family="Helvetica,sans-Serif" font-size="10.00">rwlock.h</text>
</a>
</g>
</g>
<!-- Node4&#45;&gt;Node16 -->
<g id="edge13" class="edge"><title>Node4&#45;&gt;Node16</title>
<path fill="none" stroke="midnightblue" d="M574.852,-448.422C621.864,-437.48 702.03,-418.821 743.462,-409.177"/>
<polygon fill="midnightblue" stroke="midnightblue" points="574.014,-445.024 565.067,-450.7 575.601,-451.842 574.014,-445.024"/>
</g>
<!-- Node34 -->
<g id="node32" class="node"><title>Node34</title>
<g id="a_node32"><a xlink:href="api_2abi-default_2ticketlock_8h.html" target="_top" xlink:title="ODP ticketlock. ">
<polygon fill="white" stroke="black" points="1275.5,-392.5 1275.5,-411.5 1342.5,-411.5 1342.5,-392.5 1275.5,-392.5"/>
<text text-anchor="middle" x="1309" y="-399.5" font-family="Helvetica,sans-Serif" font-size="10.00">ticketlock.h</text>
</a>
</g>
</g>
<!-- Node4&#45;&gt;Node34 -->
<g id="edge33" class="edge"><title>Node4&#45;&gt;Node34</title>
<path fill="none" stroke="midnightblue" d="M575.462,-454.376C707.359,-445.138 1149.08,-414.201 1275.15,-405.371"/>
<polygon fill="midnightblue" stroke="midnightblue" points="575.171,-450.888 565.44,-455.078 575.66,-457.871 575.171,-450.888"/>
</g>
<!-- Node6 -->
<g id="node4" class="node"><title>Node6</title>
<g id="a_node4"><a xlink:href="arch_2arm32-linux_2odp_2api_2abi_2barrier_8h_source.html" target="_top" xlink:title="barrier.h">
<polygon fill="white" stroke="black" points="0,-336.5 0,-355.5 52,-355.5 52,-336.5 0,-336.5"/>
<text text-anchor="middle" x="26" y="-343.5" font-family="Helvetica,sans-Serif" font-size="10.00">barrier.h</text>
</a>
</g>
</g>
<!-- Node5&#45;&gt;Node6 -->
<g id="edge3" class="edge"><title>Node5&#45;&gt;Node6</title>
<path fill="none" stroke="midnightblue" d="M234.721,-393.692C192.78,-385.136 121.724,-370.307 61,-356 58.1908,-355.338 55.2612,-354.624 52.345,-353.897"/>
<polygon fill="midnightblue" stroke="midnightblue" points="234.235,-397.165 244.732,-395.728 235.63,-390.305 234.235,-397.165"/>
</g>
<!-- Node7 -->
<g id="node5" class="node"><title>Node7</title>
<g id="a_node5"><a xlink:href="arch_2arm64-linux_2odp_2api_2abi_2barrier_8h_source.html" target="_top" xlink:title="barrier.h">
<polygon fill="white" stroke="black" points="70,-336.5 70,-355.5 122,-355.5 122,-336.5 70,-336.5"/>
<text text-anchor="middle" x="96" y="-343.5" font-family="Helvetica,sans-Serif" font-size="10.00">barrier.h</text>
</a>
</g>
</g>
<!-- Node5&#45;&gt;Node7 -->
<g id="edge4" class="edge"><title>Node5&#45;&gt;Node7</title>
<path fill="none" stroke="midnightblue" d="M234.914,-389.865C201.311,-379.496 152.031,-364.289 122.092,-355.051"/>
<polygon fill="midnightblue" stroke="midnightblue" points="234.213,-393.311 244.801,-392.916 236.277,-386.623 234.213,-393.311"/>
</g>
<!-- Node8 -->
<g id="node6" class="node"><title>Node8</title>
<g id="a_node6"><a xlink:href="arch_2default-linux_2odp_2api_2abi_2barrier_8h_source.html" target="_top" xlink:title="barrier.h">
<polygon fill="white" stroke="black" points="140,-336.5 140,-355.5 192,-355.5 192,-336.5 140,-336.5"/>
<text text-anchor="middle" x="166" y="-343.5" font-family="Helvetica,sans-Serif" font-size="10.00">barrier.h</text>
</a>
</g>
</g>
<!-- Node5&#45;&gt;Node8 -->
<g id="edge5" class="edge"><title>Node5&#45;&gt;Node8</title>
<path fill="none" stroke="midnightblue" d="M245.19,-387.726C225.747,-377.727 199.652,-364.307 182.828,-355.655"/>
<polygon fill="midnightblue" stroke="midnightblue" points="243.636,-390.863 254.13,-392.324 246.838,-384.638 243.636,-390.863"/>
</g>
<!-- Node9 -->
<g id="node7" class="node"><title>Node9</title>
<g id="a_node7"><a xlink:href="arch_2mips64-linux_2odp_2api_2abi_2barrier_8h_source.html" target="_top" xlink:title="barrier.h">
<polygon fill="white" stroke="black" points="210,-336.5 210,-355.5 262,-355.5 262,-336.5 210,-336.5"/>
<text text-anchor="middle" x="236" y="-343.5" font-family="Helvetica,sans-Serif" font-size="10.00">barrier.h</text>
</a>
</g>
</g>
<!-- Node5&#45;&gt;Node9 -->
<g id="edge6" class="edge"><title>Node5&#45;&gt;Node9</title>
<path fill="none" stroke="midnightblue" d="M259.7,-383.566C253.678,-374.275 246.531,-363.248 241.672,-355.751"/>
<polygon fill="midnightblue" stroke="midnightblue" points="256.844,-385.595 265.22,-392.083 262.719,-381.788 256.844,-385.595"/>
</g>
<!-- Node10 -->
<g id="node8" class="node"><title>Node10</title>
<g id="a_node8"><a xlink:href="arch_2power64-linux_2odp_2api_2abi_2barrier_8h_source.html" target="_top" xlink:title="barrier.h">
<polygon fill="white" stroke="black" points="280,-336.5 280,-355.5 332,-355.5 332,-336.5 280,-336.5"/>
<text text-anchor="middle" x="306" y="-343.5" font-family="Helvetica,sans-Serif" font-size="10.00">barrier.h</text>
</a>
</g>
</g>
<!-- Node5&#45;&gt;Node10 -->
<g id="edge7" class="edge"><title>Node5&#45;&gt;Node10</title>
<path fill="none" stroke="midnightblue" d="M282.3,-383.566C288.322,-374.275 295.469,-363.248 300.328,-355.751"/>
<polygon fill="midnightblue" stroke="midnightblue" points="279.281,-381.788 276.78,-392.083 285.156,-385.595 279.281,-381.788"/>
</g>
<!-- Node11 -->
<g id="node9" class="node"><title>Node11</title>
<g id="a_node9"><a xlink:href="arch_2x86__32-linux_2odp_2api_2abi_2barrier_8h_source.html" target="_top" xlink:title="barrier.h">
<polygon fill="white" stroke="black" points="350,-336.5 350,-355.5 402,-355.5 402,-336.5 350,-336.5"/>
<text text-anchor="middle" x="376" y="-343.5" font-family="Helvetica,sans-Serif" font-size="10.00">barrier.h</text>
</a>
</g>
</g>
<!-- Node5&#45;&gt;Node11 -->
<g id="edge8" class="edge"><title>Node5&#45;&gt;Node11</title>
<path fill="none" stroke="midnightblue" d="M296.81,-387.726C316.253,-377.727 342.348,-364.307 359.172,-355.655"/>
<polygon fill="midnightblue" stroke="midnightblue" points="295.162,-384.638 287.87,-392.324 298.364,-390.863 295.162,-384.638"/>
</g>
<!-- Node12 -->
<g id="node10" class="node"><title>Node12</title>
<g id="a_node10"><a xlink:href="arch_2x86__64-linux_2odp_2api_2abi_2barrier_8h_source.html" target="_top" xlink:title="barrier.h">
<polygon fill="white" stroke="black" points="420,-336.5 420,-355.5 472,-355.5 472,-336.5 420,-336.5"/>
<text text-anchor="middle" x="446" y="-343.5" font-family="Helvetica,sans-Serif" font-size="10.00">barrier.h</text>
</a>
</g>
</g>
<!-- Node5&#45;&gt;Node12 -->
<g id="edge9" class="edge"><title>Node5&#45;&gt;Node12</title>
<path fill="none" stroke="midnightblue" d="M307.086,-389.865C340.689,-379.496 389.969,-364.289 419.908,-355.051"/>
<polygon fill="midnightblue" stroke="midnightblue" points="305.723,-386.623 297.199,-392.916 307.787,-393.311 305.723,-386.623"/>
</g>
<!-- Node12&#45;&gt;Node13 -->
<g id="edge10" class="edge"><title>Node12&#45;&gt;Node13</title>
<path fill="none" stroke="midnightblue" d="M458.065,-327.855C464.645,-318.505 472.511,-307.327 477.842,-299.751"/>
<polygon fill="midnightblue" stroke="midnightblue" points="455.168,-325.891 452.275,-336.083 460.892,-329.919 455.168,-325.891"/>
</g>
<!-- Node13&#45;&gt;Node14 -->
<g id="edge11" class="edge"><title>Node13&#45;&gt;Node14</title>
<path fill="none" stroke="midnightblue" d="M484.068,-270.054C485.05,-235.75 491.168,-162.251 524,-112 534.653,-95.6947 553.377,-83.2021 567.278,-75.5635"/>
<polygon fill="midnightblue" stroke="midnightblue" points="480.562,-270.396 483.9,-280.451 487.562,-270.509 480.562,-270.396"/>
</g>
<!-- Node15 -->
<g id="node13" class="node"><title>Node15</title>
<g id="a_node13"><a xlink:href="odp_8h.html" target="_top" xlink:title="WARNING: THIS FILE IS DEPRECATED AND WILL BE REMOVED!!! ODP APPLICATIONS SHOULD NOW INCLUDE odp_api...">
<polygon fill="white" stroke="black" points="564.5,-0.5 564.5,-19.5 605.5,-19.5 605.5,-0.5 564.5,-0.5"/>
<text text-anchor="middle" x="585" y="-7.5" font-family="Helvetica,sans-Serif" font-size="10.00">odp.h</text>
</a>
</g>
</g>
<!-- Node14&#45;&gt;Node15 -->
<g id="edge12" class="edge"><title>Node14&#45;&gt;Node15</title>
<path fill="none" stroke="midnightblue" d="M585,-45.8045C585,-36.9102 585,-26.7798 585,-19.7511"/>
<polygon fill="midnightblue" stroke="midnightblue" points="581.5,-46.083 585,-56.083 588.5,-46.083 581.5,-46.083"/>
</g>
<!-- Node17 -->
<g id="node15" class="node"><title>Node17</title>
<g id="a_node15"><a xlink:href="arch_2arm32-linux_2odp_2api_2abi_2rwlock_8h_source.html" target="_top" xlink:title="rwlock.h">
<polygon fill="white" stroke="black" points="566.5,-336.5 566.5,-355.5 619.5,-355.5 619.5,-336.5 566.5,-336.5"/>
<text text-anchor="middle" x="593" y="-343.5" font-family="Helvetica,sans-Serif" font-size="10.00">rwlock.h</text>
</a>
</g>
</g>
<!-- Node16&#45;&gt;Node17 -->
<g id="edge14" class="edge"><title>Node16&#45;&gt;Node17</title>
<path fill="none" stroke="midnightblue" d="M733.13,-389.751C699.214,-379.404 649.741,-364.311 619.556,-355.102"/>
<polygon fill="midnightblue" stroke="midnightblue" points="732.531,-393.228 743.118,-392.799 734.574,-386.533 732.531,-393.228"/>
</g>
<!-- Node18 -->
<g id="node16" class="node"><title>Node18</title>
<g id="a_node16"><a xlink:href="arch_2arm64-linux_2odp_2api_2abi_2rwlock_8h_source.html" target="_top" xlink:title="rwlock.h">
<polygon fill="white" stroke="black" points="637.5,-336.5 637.5,-355.5 690.5,-355.5 690.5,-336.5 637.5,-336.5"/>
<text text-anchor="middle" x="664" y="-343.5" font-family="Helvetica,sans-Serif" font-size="10.00">rwlock.h</text>
</a>
</g>
</g>
<!-- Node16&#45;&gt;Node18 -->
<g id="edge15" class="edge"><title>Node16&#45;&gt;Node18</title>
<path fill="none" stroke="midnightblue" d="M743.944,-387.726C724.316,-377.727 697.972,-364.307 680.988,-355.655"/>
<polygon fill="midnightblue" stroke="midnightblue" points="742.47,-390.903 752.969,-392.324 745.648,-384.666 742.47,-390.903"/>
</g>
<!-- Node19 -->
<g id="node17" class="node"><title>Node19</title>
<g id="a_node17"><a xlink:href="arch_2default-linux_2odp_2api_2abi_2rwlock_8h_source.html" target="_top" xlink:title="rwlock.h">
<polygon fill="white" stroke="black" points="708.5,-336.5 708.5,-355.5 761.5,-355.5 761.5,-336.5 708.5,-336.5"/>
<text text-anchor="middle" x="735" y="-343.5" font-family="Helvetica,sans-Serif" font-size="10.00">rwlock.h</text>
</a>
</g>
</g>
<!-- Node16&#45;&gt;Node19 -->
<g id="edge16" class="edge"><title>Node16&#45;&gt;Node19</title>
<path fill="none" stroke="midnightblue" d="M758.7,-383.566C752.678,-374.275 745.531,-363.248 740.672,-355.751"/>
<polygon fill="midnightblue" stroke="midnightblue" points="755.844,-385.595 764.22,-392.083 761.719,-381.788 755.844,-385.595"/>
</g>
<!-- Node20 -->
<g id="node18" class="node"><title>Node20</title>
<g id="a_node18"><a xlink:href="arch_2mips64-linux_2odp_2api_2abi_2rwlock_8h_source.html" target="_top" xlink:title="rwlock.h">
<polygon fill="white" stroke="black" points="779.5,-336.5 779.5,-355.5 832.5,-355.5 832.5,-336.5 779.5,-336.5"/>
<text text-anchor="middle" x="806" y="-343.5" font-family="Helvetica,sans-Serif" font-size="10.00">rwlock.h</text>
</a>
</g>
</g>
<!-- Node16&#45;&gt;Node20 -->
<g id="edge17" class="edge"><title>Node16&#45;&gt;Node20</title>
<path fill="none" stroke="midnightblue" d="M781.623,-383.566C787.817,-374.275 795.168,-363.248 800.166,-355.751"/>
<polygon fill="midnightblue" stroke="midnightblue" points="778.58,-381.821 775.945,-392.083 784.404,-385.704 778.58,-381.821"/>
</g>
<!-- Node21 -->
<g id="node19" class="node"><title>Node21</title>
<g id="a_node19"><a xlink:href="arch_2power64-linux_2odp_2api_2abi_2rwlock_8h_source.html" target="_top" xlink:title="rwlock.h">
<polygon fill="white" stroke="black" points="850.5,-336.5 850.5,-355.5 903.5,-355.5 903.5,-336.5 850.5,-336.5"/>
<text text-anchor="middle" x="877" y="-343.5" font-family="Helvetica,sans-Serif" font-size="10.00">rwlock.h</text>
</a>
</g>
</g>
<!-- Node16&#45;&gt;Node21 -->
<g id="edge18" class="edge"><title>Node16&#45;&gt;Node21</title>
<path fill="none" stroke="midnightblue" d="M796.302,-387.726C816.115,-377.727 842.707,-364.307 859.851,-355.655"/>
<polygon fill="midnightblue" stroke="midnightblue" points="794.542,-384.694 787.191,-392.324 797.696,-390.943 794.542,-384.694"/>
</g>
<!-- Node22 -->
<g id="node20" class="node"><title>Node22</title>
<g id="a_node20"><a xlink:href="arch_2x86__32-linux_2odp_2api_2abi_2rwlock_8h_source.html" target="_top" xlink:title="rwlock.h">
<polygon fill="white" stroke="black" points="921.5,-336.5 921.5,-355.5 974.5,-355.5 974.5,-336.5 921.5,-336.5"/>
<text text-anchor="middle" x="948" y="-343.5" font-family="Helvetica,sans-Serif" font-size="10.00">rwlock.h</text>
</a>
</g>
</g>
<!-- Node16&#45;&gt;Node22 -->
<g id="edge19" class="edge"><title>Node16&#45;&gt;Node22</title>
<path fill="none" stroke="midnightblue" d="M806.263,-389.999C840.451,-379.627 890.878,-364.329 921.461,-355.051"/>
<polygon fill="midnightblue" stroke="midnightblue" points="805.202,-386.663 796.648,-392.916 807.234,-393.362 805.202,-386.663"/>
</g>
<!-- Node23 -->
<g id="node21" class="node"><title>Node23</title>
<g id="a_node21"><a xlink:href="arch_2x86__64-linux_2odp_2api_2abi_2rwlock_8h_source.html" target="_top" xlink:title="rwlock.h">
<polygon fill="white" stroke="black" points="992.5,-336.5 992.5,-355.5 1045.5,-355.5 1045.5,-336.5 992.5,-336.5"/>
<text text-anchor="middle" x="1019" y="-343.5" font-family="Helvetica,sans-Serif" font-size="10.00">rwlock.h</text>
</a>
</g>
</g>
<!-- Node16&#45;&gt;Node23 -->
<g id="edge20" class="edge"><title>Node16&#45;&gt;Node23</title>
<path fill="none" stroke="midnightblue" d="M806.517,-393.711C849.011,-385.129 921.247,-370.237 983,-356 986.013,-355.305 989.162,-354.555 992.29,-353.794"/>
<polygon fill="midnightblue" stroke="midnightblue" points="805.747,-390.295 796.634,-395.701 807.129,-397.157 805.747,-390.295"/>
</g>
<!-- Node24 -->
<g id="node22" class="node"><title>Node24</title>
<g id="a_node22"><a xlink:href="api_2rwlock_8h.html" target="_top" xlink:title="ODP RW Locks. ">
<polygon fill="white" stroke="black" points="983.5,-280.5 983.5,-299.5 1036.5,-299.5 1036.5,-280.5 983.5,-280.5"/>
<text text-anchor="middle" x="1010" y="-287.5" font-family="Helvetica,sans-Serif" font-size="10.00">rwlock.h</text>
</a>
</g>
</g>
<!-- Node23&#45;&gt;Node24 -->
<g id="edge21" class="edge"><title>Node23&#45;&gt;Node24</title>
<path fill="none" stroke="midnightblue" d="M1015.85,-326.101C1014.36,-317.136 1012.64,-306.858 1011.46,-299.751"/>
<polygon fill="midnightblue" stroke="midnightblue" points="1012.42,-326.794 1017.51,-336.083 1019.32,-325.644 1012.42,-326.794"/>
</g>
<!-- Node24&#45;&gt;Node14 -->
<g id="edge32" class="edge"><title>Node24&#45;&gt;Node14</title>
<path fill="none" stroke="midnightblue" d="M973.284,-285.018C883.049,-274.461 654.13,-242.752 604,-188 574.563,-155.849 580.087,-97.5985 583.457,-75.6653"/>
<polygon fill="midnightblue" stroke="midnightblue" points="972.996,-288.508 983.33,-286.173 973.795,-281.554 972.996,-288.508"/>
</g>
<!-- Node25 -->
<g id="node23" class="node"><title>Node25</title>
<g id="a_node23"><a xlink:href="api_2abi-default_2rwlock__recursive_8h.html" target="_top" xlink:title="ODP recursive read/write lock. ">
<polygon fill="white" stroke="black" points="961,-224.5 961,-243.5 1059,-243.5 1059,-224.5 961,-224.5"/>
<text text-anchor="middle" x="1010" y="-231.5" font-family="Helvetica,sans-Serif" font-size="10.00">rwlock_recursive.h</text>
</a>
</g>
</g>
<!-- Node24&#45;&gt;Node25 -->
<g id="edge22" class="edge"><title>Node24&#45;&gt;Node25</title>
<path fill="none" stroke="midnightblue" d="M1010,-269.805C1010,-260.91 1010,-250.78 1010,-243.751"/>
<polygon fill="midnightblue" stroke="midnightblue" points="1006.5,-270.083 1010,-280.083 1013.5,-270.083 1006.5,-270.083"/>
</g>
<!-- Node26 -->
<g id="node24" class="node"><title>Node26</title>
<g id="a_node24"><a xlink:href="arch_2arm32-linux_2odp_2api_2abi_2rwlock__recursive_8h_source.html" target="_top" xlink:title="rwlock_recursive.h">
<polygon fill="white" stroke="black" points="613,-168.5 613,-187.5 711,-187.5 711,-168.5 613,-168.5"/>
<text text-anchor="middle" x="662" y="-175.5" font-family="Helvetica,sans-Serif" font-size="10.00">rwlock_recursive.h</text>
</a>
</g>
</g>
<!-- Node25&#45;&gt;Node26 -->
<g id="edge23" class="edge"><title>Node25&#45;&gt;Node26</title>
<path fill="none" stroke="midnightblue" d="M950.823,-223.817C883.319,-213.343 774.164,-196.405 711.153,-186.627"/>
<polygon fill="midnightblue" stroke="midnightblue" points="950.46,-227.303 960.878,-225.378 951.533,-220.386 950.46,-227.303"/>
</g>
<!-- Node27 -->
<g id="node25" class="node"><title>Node27</title>
<g id="a_node25"><a xlink:href="arch_2arm64-linux_2odp_2api_2abi_2rwlock__recursive_8h_source.html" target="_top" xlink:title="rwlock_recursive.h">
<polygon fill="white" stroke="black" points="729,-168.5 729,-187.5 827,-187.5 827,-168.5 729,-168.5"/>
<text text-anchor="middle" x="778" y="-175.5" font-family="Helvetica,sans-Serif" font-size="10.00">rwlock_recursive.h</text>
</a>
</g>
</g>
<!-- Node25&#45;&gt;Node27 -->
<g id="edge24" class="edge"><title>Node25&#45;&gt;Node27</title>
<path fill="none" stroke="midnightblue" d="M963.397,-222.153C919.563,-211.95 854.822,-196.881 814.589,-187.516"/>
<polygon fill="midnightblue" stroke="midnightblue" points="962.706,-225.585 973.239,-224.444 964.293,-218.768 962.706,-225.585"/>
</g>
<!-- Node28 -->
<g id="node26" class="node"><title>Node28</title>
<g id="a_node26"><a xlink:href="arch_2default-linux_2odp_2api_2abi_2rwlock__recursive_8h_source.html" target="_top" xlink:title="rwlock_recursive.h">
<polygon fill="white" stroke="black" points="845,-168.5 845,-187.5 943,-187.5 943,-168.5 845,-168.5"/>
<text text-anchor="middle" x="894" y="-175.5" font-family="Helvetica,sans-Serif" font-size="10.00">rwlock_recursive.h</text>
</a>
</g>
</g>
<!-- Node25&#45;&gt;Node28 -->
<g id="edge25" class="edge"><title>Node25&#45;&gt;Node28</title>
<path fill="none" stroke="midnightblue" d="M982.28,-220.096C960.608,-210.007 931.098,-196.27 912.295,-187.516"/>
<polygon fill="midnightblue" stroke="midnightblue" points="981.077,-223.396 991.619,-224.444 984.031,-217.05 981.077,-223.396"/>
</g>
<!-- Node29 -->
<g id="node27" class="node"><title>Node29</title>
<g id="a_node27"><a xlink:href="arch_2mips64-linux_2odp_2api_2abi_2rwlock__recursive_8h_source.html" target="_top" xlink:title="rwlock_recursive.h">
<polygon fill="white" stroke="black" points="961,-168.5 961,-187.5 1059,-187.5 1059,-168.5 961,-168.5"/>
<text text-anchor="middle" x="1010" y="-175.5" font-family="Helvetica,sans-Serif" font-size="10.00">rwlock_recursive.h</text>
</a>
</g>
</g>
<!-- Node25&#45;&gt;Node29 -->
<g id="edge26" class="edge"><title>Node25&#45;&gt;Node29</title>
<path fill="none" stroke="midnightblue" d="M1010,-213.805C1010,-204.91 1010,-194.78 1010,-187.751"/>
<polygon fill="midnightblue" stroke="midnightblue" points="1006.5,-214.083 1010,-224.083 1013.5,-214.083 1006.5,-214.083"/>
</g>
<!-- Node30 -->
<g id="node28" class="node"><title>Node30</title>
<g id="a_node28"><a xlink:href="arch_2power64-linux_2odp_2api_2abi_2rwlock__recursive_8h_source.html" target="_top" xlink:title="rwlock_recursive.h">
<polygon fill="white" stroke="black" points="1077,-168.5 1077,-187.5 1175,-187.5 1175,-168.5 1077,-168.5"/>
<text text-anchor="middle" x="1126" y="-175.5" font-family="Helvetica,sans-Serif" font-size="10.00">rwlock_recursive.h</text>
</a>
</g>
</g>
<!-- Node25&#45;&gt;Node30 -->
<g id="edge27" class="edge"><title>Node25&#45;&gt;Node30</title>
<path fill="none" stroke="midnightblue" d="M1037.72,-220.096C1059.39,-210.007 1088.9,-196.27 1107.71,-187.516"/>
<polygon fill="midnightblue" stroke="midnightblue" points="1035.97,-217.05 1028.38,-224.444 1038.92,-223.396 1035.97,-217.05"/>
</g>
<!-- Node31 -->
<g id="node29" class="node"><title>Node31</title>
<g id="a_node29"><a xlink:href="arch_2x86__32-linux_2odp_2api_2abi_2rwlock__recursive_8h_source.html" target="_top" xlink:title="rwlock_recursive.h">
<polygon fill="white" stroke="black" points="1193,-168.5 1193,-187.5 1291,-187.5 1291,-168.5 1193,-168.5"/>
<text text-anchor="middle" x="1242" y="-175.5" font-family="Helvetica,sans-Serif" font-size="10.00">rwlock_recursive.h</text>
</a>
</g>
</g>
<!-- Node25&#45;&gt;Node31 -->
<g id="edge28" class="edge"><title>Node25&#45;&gt;Node31</title>
<path fill="none" stroke="midnightblue" d="M1056.6,-222.153C1100.44,-211.95 1165.18,-196.881 1205.41,-187.516"/>
<polygon fill="midnightblue" stroke="midnightblue" points="1055.71,-218.768 1046.76,-224.444 1057.29,-225.585 1055.71,-218.768"/>
</g>
<!-- Node32 -->
<g id="node30" class="node"><title>Node32</title>
<g id="a_node30"><a xlink:href="arch_2x86__64-linux_2odp_2api_2abi_2rwlock__recursive_8h_source.html" target="_top" xlink:title="rwlock_recursive.h">
<polygon fill="white" stroke="black" points="1309,-168.5 1309,-187.5 1407,-187.5 1407,-168.5 1309,-168.5"/>
<text text-anchor="middle" x="1358" y="-175.5" font-family="Helvetica,sans-Serif" font-size="10.00">rwlock_recursive.h</text>
</a>
</g>
</g>
<!-- Node25&#45;&gt;Node32 -->
<g id="edge29" class="edge"><title>Node25&#45;&gt;Node32</title>
<path fill="none" stroke="midnightblue" d="M1069.18,-223.817C1136.68,-213.343 1245.84,-196.405 1308.85,-186.627"/>
<polygon fill="midnightblue" stroke="midnightblue" points="1068.47,-220.386 1059.12,-225.378 1069.54,-227.303 1068.47,-220.386"/>
</g>
<!-- Node33 -->
<g id="node31" class="node"><title>Node33</title>
<g id="a_node31"><a xlink:href="api_2rwlock__recursive_8h.html" target="_top" xlink:title="ODP resursive read/write lock. ">
<polygon fill="white" stroke="black" points="961,-112.5 961,-131.5 1059,-131.5 1059,-112.5 961,-112.5"/>
<text text-anchor="middle" x="1010" y="-119.5" font-family="Helvetica,sans-Serif" font-size="10.00">rwlock_recursive.h</text>
</a>
</g>
</g>
<!-- Node32&#45;&gt;Node33 -->
<g id="edge30" class="edge"><title>Node32&#45;&gt;Node33</title>
<path fill="none" stroke="midnightblue" d="M1298.82,-167.817C1231.32,-157.343 1122.16,-140.405 1059.15,-130.627"/>
<polygon fill="midnightblue" stroke="midnightblue" points="1298.46,-171.303 1308.88,-169.378 1299.53,-164.386 1298.46,-171.303"/>
</g>
<!-- Node33&#45;&gt;Node14 -->
<g id="edge31" class="edge"><title>Node33&#45;&gt;Node14</title>
<path fill="none" stroke="midnightblue" d="M950.825,-113.481C858.677,-101.773 684.261,-79.612 614.716,-70.7756"/>
<polygon fill="midnightblue" stroke="midnightblue" points="950.47,-116.964 960.832,-114.753 951.353,-110.02 950.47,-116.964"/>
</g>
<!-- Node35 -->
<g id="node33" class="node"><title>Node35</title>
<g id="a_node33"><a xlink:href="arch_2arm32-linux_2odp_2api_2abi_2ticketlock_8h_source.html" target="_top" xlink:title="ticketlock.h">
<polygon fill="white" stroke="black" points="1063.5,-336.5 1063.5,-355.5 1130.5,-355.5 1130.5,-336.5 1063.5,-336.5"/>
<text text-anchor="middle" x="1097" y="-343.5" font-family="Helvetica,sans-Serif" font-size="10.00">ticketlock.h</text>
</a>
</g>
</g>
<!-- Node34&#45;&gt;Node35 -->
<g id="edge34" class="edge"><title>Node34&#45;&gt;Node35</title>
<path fill="none" stroke="midnightblue" d="M1265.65,-389.959C1225.61,-379.76 1166.97,-364.822 1130.43,-355.516"/>
<polygon fill="midnightblue" stroke="midnightblue" points="1264.85,-393.367 1275.41,-392.444 1266.58,-386.583 1264.85,-393.367"/>
</g>
<!-- Node36 -->
<g id="node34" class="node"><title>Node36</title>
<g id="a_node34"><a xlink:href="arch_2arm64-linux_2odp_2api_2abi_2ticketlock_8h_source.html" target="_top" xlink:title="ticketlock.h">
<polygon fill="white" stroke="black" points="1148.5,-336.5 1148.5,-355.5 1215.5,-355.5 1215.5,-336.5 1148.5,-336.5"/>
<text text-anchor="middle" x="1182" y="-343.5" font-family="Helvetica,sans-Serif" font-size="10.00">ticketlock.h</text>
</a>
</g>
</g>
<!-- Node34&#45;&gt;Node36 -->
<g id="edge35" class="edge"><title>Node34&#45;&gt;Node36</title>
<path fill="none" stroke="midnightblue" d="M1279.61,-388.503C1255.8,-378.38 1222.89,-364.388 1202.03,-355.516"/>
<polygon fill="midnightblue" stroke="midnightblue" points="1278.3,-391.751 1288.88,-392.444 1281.04,-385.31 1278.3,-391.751"/>
</g>
<!-- Node37 -->
<g id="node35" class="node"><title>Node37</title>
<g id="a_node35"><a xlink:href="arch_2default-linux_2odp_2api_2abi_2ticketlock_8h_source.html" target="_top" xlink:title="ticketlock.h">
<polygon fill="white" stroke="black" points="1233.5,-336.5 1233.5,-355.5 1300.5,-355.5 1300.5,-336.5 1233.5,-336.5"/>
<text text-anchor="middle" x="1267" y="-343.5" font-family="Helvetica,sans-Serif" font-size="10.00">ticketlock.h</text>
</a>
</g>
</g>
<!-- Node34&#45;&gt;Node37 -->
<g id="edge36" class="edge"><title>Node34&#45;&gt;Node37</title>
<path fill="none" stroke="midnightblue" d="M1295.89,-384.144C1288.57,-374.736 1279.76,-363.405 1273.81,-355.751"/>
<polygon fill="midnightblue" stroke="midnightblue" points="1293.16,-386.338 1302.06,-392.083 1298.69,-382.041 1293.16,-386.338"/>
</g>
<!-- Node38 -->
<g id="node36" class="node"><title>Node38</title>
<g id="a_node36"><a xlink:href="arch_2mips64-linux_2odp_2api_2abi_2ticketlock_8h_source.html" target="_top" xlink:title="ticketlock.h">
<polygon fill="white" stroke="black" points="1318.5,-336.5 1318.5,-355.5 1385.5,-355.5 1385.5,-336.5 1318.5,-336.5"/>
<text text-anchor="middle" x="1352" y="-343.5" font-family="Helvetica,sans-Serif" font-size="10.00">ticketlock.h</text>
</a>
</g>
</g>
<!-- Node34&#45;&gt;Node38 -->
<g id="edge37" class="edge"><title>Node34&#45;&gt;Node38</title>
<path fill="none" stroke="midnightblue" d="M1322.42,-384.144C1329.91,-374.736 1338.94,-363.405 1345.03,-355.751"/>
<polygon fill="midnightblue" stroke="midnightblue" points="1319.59,-382.08 1316.1,-392.083 1325.07,-386.44 1319.59,-382.08"/>
</g>
<!-- Node39 -->
<g id="node37" class="node"><title>Node39</title>
<g id="a_node37"><a xlink:href="arch_2power64-linux_2odp_2api_2abi_2ticketlock_8h_source.html" target="_top" xlink:title="ticketlock.h">
<polygon fill="white" stroke="black" points="1403.5,-336.5 1403.5,-355.5 1470.5,-355.5 1470.5,-336.5 1403.5,-336.5"/>
<text text-anchor="middle" x="1437" y="-343.5" font-family="Helvetica,sans-Serif" font-size="10.00">ticketlock.h</text>
</a>
</g>
</g>
<!-- Node34&#45;&gt;Node39 -->
<g id="edge38" class="edge"><title>Node34&#45;&gt;Node39</title>
<path fill="none" stroke="midnightblue" d="M1338.62,-388.503C1362.62,-378.38 1395.78,-364.388 1416.81,-355.516"/>
<polygon fill="midnightblue" stroke="midnightblue" points="1337.14,-385.332 1329.28,-392.444 1339.86,-391.781 1337.14,-385.332"/>
</g>
<!-- Node40 -->
<g id="node38" class="node"><title>Node40</title>
<g id="a_node38"><a xlink:href="arch_2x86__32-linux_2odp_2api_2abi_2ticketlock_8h_source.html" target="_top" xlink:title="ticketlock.h">
<polygon fill="white" stroke="black" points="1488.5,-336.5 1488.5,-355.5 1555.5,-355.5 1555.5,-336.5 1488.5,-336.5"/>
<text text-anchor="middle" x="1522" y="-343.5" font-family="Helvetica,sans-Serif" font-size="10.00">ticketlock.h</text>
</a>
</g>
</g>
<!-- Node34&#45;&gt;Node40 -->
<g id="edge39" class="edge"><title>Node34&#45;&gt;Node40</title>
<path fill="none" stroke="midnightblue" d="M1352.55,-389.959C1392.78,-379.76 1451.7,-364.822 1488.41,-355.516"/>
<polygon fill="midnightblue" stroke="midnightblue" points="1351.58,-386.593 1342.75,-392.444 1353.3,-393.379 1351.58,-386.593"/>
</g>
<!-- Node41 -->
<g id="node39" class="node"><title>Node41</title>
<g id="a_node39"><a xlink:href="arch_2x86__64-linux_2odp_2api_2abi_2ticketlock_8h_source.html" target="_top" xlink:title="ticketlock.h">
<polygon fill="white" stroke="black" points="1519.5,-280.5 1519.5,-299.5 1586.5,-299.5 1586.5,-280.5 1519.5,-280.5"/>
<text text-anchor="middle" x="1553" y="-287.5" font-family="Helvetica,sans-Serif" font-size="10.00">ticketlock.h</text>
</a>
</g>
</g>
<!-- Node34&#45;&gt;Node41 -->
<g id="edge40" class="edge"><title>Node34&#45;&gt;Node41</title>
<path fill="none" stroke="midnightblue" d="M1352.72,-399.806C1418.36,-396.987 1537.53,-387.546 1564,-356 1577.54,-339.867 1565.93,-313.346 1558.33,-299.704"/>
<polygon fill="midnightblue" stroke="midnightblue" points="1352.52,-396.311 1342.66,-400.204 1352.79,-403.305 1352.52,-396.311"/>
</g>
<!-- Node42 -->
<g id="node40" class="node"><title>Node42</title>
<g id="a_node40"><a xlink:href="api_2ticketlock_8h.html" target="_top" xlink:title="ODP ticketlock. ">
<polygon fill="white" stroke="black" points="1440.5,-224.5 1440.5,-243.5 1507.5,-243.5 1507.5,-224.5 1440.5,-224.5"/>
<text text-anchor="middle" x="1474" y="-231.5" font-family="Helvetica,sans-Serif" font-size="10.00">ticketlock.h</text>
</a>
</g>
</g>
<!-- Node41&#45;&gt;Node42 -->
<g id="edge41" class="edge"><title>Node41&#45;&gt;Node42</title>
<path fill="none" stroke="midnightblue" d="M1531.97,-274.622C1517.53,-264.757 1498.86,-251.992 1486.66,-243.655"/>
<polygon fill="midnightblue" stroke="midnightblue" points="1530.08,-277.57 1540.31,-280.324 1534.03,-271.791 1530.08,-277.57"/>
</g>
<!-- Node42&#45;&gt;Node14 -->
<g id="edge42" class="edge"><title>Node42&#45;&gt;Node14</title>
<path fill="none" stroke="midnightblue" d="M1463.2,-215.601C1452.8,-200.442 1435.64,-179.185 1415,-168 1272.38,-90.7067 746.153,-71.3914 614.839,-67.7329"/>
<polygon fill="midnightblue" stroke="midnightblue" points="1460.36,-217.659 1468.77,-224.108 1466.22,-213.824 1460.36,-217.659"/>
</g>
</g>
</svg>
