<?xml version="1.0" encoding="UTF-8" standalone="no"?>
<!DOCTYPE svg PUBLIC "-//W3C//DTD SVG 1.1//EN"
 "http://www.w3.org/Graphics/SVG/1.1/DTD/svg11.dtd">
<!-- Generated by graphviz version 2.36.0 (20140111.2315)
 -->
<!-- Title: time.h Pages: 1 -->
<svg width="434pt" height="196pt"
 viewBox="0.00 0.00 434.00 196.00" xmlns="http://www.w3.org/2000/svg" xmlns:xlink="http://www.w3.org/1999/xlink">
<g id="graph0" class="graph" transform="scale(1 1) rotate(0) translate(4 192)">
<title>time.h</title>
<polygon fill="white" stroke="none" points="-4,4 -4,-192 430,-192 430,4 -4,4"/>
<!-- Node0 -->
<g id="node1" class="node"><title>Node0</title>
<polygon fill="#bfbfbf" stroke="black" points="282,-168.5 282,-187.5 326,-187.5 326,-168.5 282,-168.5"/>
<text text-anchor="middle" x="304" y="-175.5" font-family="Helvetica,sans-Serif" font-size="10.00">time.h</text>
</g>
<!-- Node1 -->
<g id="node2" class="node"><title>Node1</title>
<g id="a_node2"><a xlink:href="api_2std__types_8h.html" target="_top" xlink:title="Standard C language types and definitions for ODP. ">
<polygon fill="white" stroke="black" points="148,-112.5 148,-131.5 250,-131.5 250,-112.5 148,-112.5"/>
<text text-anchor="middle" x="199" y="-119.5" font-family="Helvetica,sans-Serif" font-size="10.00">odp/api/std_types.h</text>
</a>
</g>
</g>
<!-- Node0&#45;&gt;Node1 -->
<g id="edge1" class="edge"><title>Node0&#45;&gt;Node1</title>
<path fill="none" stroke="midnightblue" d="M287.13,-168.324C270.291,-159.664 244.193,-146.242 224.762,-136.249"/>
<polygon fill="midnightblue" stroke="midnightblue" points="226.322,-133.116 215.828,-131.655 223.12,-139.341 226.322,-133.116"/>
</g>
<!-- Node7 -->
<g id="node8" class="node"><title>Node7</title>
<polygon fill="white" stroke="#bfbfbf" points="332,-112.5 332,-131.5 426,-131.5 426,-112.5 332,-112.5"/>
<text text-anchor="middle" x="379" y="-119.5" font-family="Helvetica,sans-Serif" font-size="10.00">odp/api/abi/time.h</text>
</g>
<!-- Node0&#45;&gt;Node7 -->
<g id="edge7" class="edge"><title>Node0&#45;&gt;Node7</title>
<path fill="none" stroke="midnightblue" d="M316.05,-168.324C327.463,-160.107 344.831,-147.602 358.435,-137.807"/>
<polygon fill="midnightblue" stroke="midnightblue" points="360.66,-140.517 366.731,-131.834 356.57,-134.837 360.66,-140.517"/>
</g>
<!-- Node8 -->
<g id="node9" class="node"><title>Node8</title>
<g id="a_node9"><a xlink:href="api_2spec_2time_8h.html" target="_top" xlink:title="ODP time. ">
<polygon fill="white" stroke="black" points="280,-56.5 280,-75.5 382,-75.5 382,-56.5 280,-56.5"/>
<text text-anchor="middle" x="331" y="-63.5" font-family="Helvetica,sans-Serif" font-size="10.00">odp/api/spec/time.h</text>
</a>
</g>
</g>
<!-- Node0&#45;&gt;Node8 -->
<g id="edge8" class="edge"><title>Node0&#45;&gt;Node8</title>
<path fill="none" stroke="midnightblue" d="M306.119,-168.368C310.476,-150.617 320.527,-109.666 326.435,-85.5974"/>
<polygon fill="midnightblue" stroke="midnightblue" points="329.906,-86.1375 328.891,-75.5914 323.108,-84.4688 329.906,-86.1375"/>
</g>
<!-- Node2 -->
<g id="node3" class="node"><title>Node2</title>
<polygon fill="white" stroke="#bfbfbf" points="0,-56.5 0,-75.5 118,-75.5 118,-56.5 0,-56.5"/>
<text text-anchor="middle" x="59" y="-63.5" font-family="Helvetica,sans-Serif" font-size="10.00">odp/api/abi/std_types.h</text>
</g>
<!-- Node1&#45;&gt;Node2 -->
<g id="edge2" class="edge"><title>Node1&#45;&gt;Node2</title>
<path fill="none" stroke="midnightblue" d="M176.817,-112.444C153.572,-103.478 116.851,-89.314 90.5848,-79.1827"/>
<polygon fill="midnightblue" stroke="midnightblue" points="91.6692,-75.8497 81.0796,-75.5164 89.1501,-82.3807 91.6692,-75.8497"/>
</g>
<!-- Node3 -->
<g id="node4" class="node"><title>Node3</title>
<g id="a_node4"><a xlink:href="api_2spec_2std__types_8h.html" target="_top" xlink:title="Standard C language types and definitions for ODP. ">
<polygon fill="white" stroke="black" points="136,-56.5 136,-75.5 262,-75.5 262,-56.5 136,-56.5"/>
<text text-anchor="middle" x="199" y="-63.5" font-family="Helvetica,sans-Serif" font-size="10.00">odp/api/spec/std_types.h</text>
</a>
</g>
</g>
<!-- Node1&#45;&gt;Node3 -->
<g id="edge3" class="edge"><title>Node1&#45;&gt;Node3</title>
<path fill="none" stroke="midnightblue" d="M199,-112.083C199,-105.006 199,-94.8611 199,-85.9865"/>
<polygon fill="midnightblue" stroke="midnightblue" points="202.5,-85.751 199,-75.7511 195.5,-85.7511 202.5,-85.751"/>
</g>
<!-- Node4 -->
<g id="node5" class="node"><title>Node4</title>
<g id="a_node5"><a xlink:href="visibility__begin_8h_source.html" target="_top" xlink:title="odp/visibility_begin.h">
<polygon fill="white" stroke="black" points="277.5,-0.5 277.5,-19.5 384.5,-19.5 384.5,-0.5 277.5,-0.5"/>
<text text-anchor="middle" x="331" y="-7.5" font-family="Helvetica,sans-Serif" font-size="10.00">odp/visibility_begin.h</text>
</a>
</g>
</g>
<!-- Node3&#45;&gt;Node4 -->
<g id="edge4" class="edge"><title>Node3&#45;&gt;Node4</title>
<path fill="none" stroke="midnightblue" d="M219.916,-56.4435C241.736,-47.5171 276.15,-33.4387 300.892,-23.3168"/>
<polygon fill="midnightblue" stroke="midnightblue" points="302.252,-26.5422 310.182,-19.5164 299.601,-20.0634 302.252,-26.5422"/>
</g>
<!-- Node5 -->
<g id="node6" class="node"><title>Node5</title>
<polygon fill="white" stroke="#bfbfbf" points="91.5,-0.5 91.5,-19.5 140.5,-19.5 140.5,-0.5 91.5,-0.5"/>
<text text-anchor="middle" x="116" y="-7.5" font-family="Helvetica,sans-Serif" font-size="10.00">stdint.h</text>
</g>
<!-- Node3&#45;&gt;Node5 -->
<g id="edge5" class="edge"><title>Node3&#45;&gt;Node5</title>
<path fill="none" stroke="midnightblue" d="M185.665,-56.324C172.838,-47.979 153.215,-35.2122 138.06,-25.3524"/>
<polygon fill="midnightblue" stroke="midnightblue" points="139.593,-22.1742 129.302,-19.6545 135.776,-28.0417 139.593,-22.1742"/>
</g>
<!-- Node6 -->
<g id="node7" class="node"><title>Node6</title>
<g id="a_node7"><a xlink:href="visibility__end_8h_source.html" target="_top" xlink:title="odp/visibility_end.h">
<polygon fill="white" stroke="black" points="159,-0.5 159,-19.5 259,-19.5 259,-0.5 159,-0.5"/>
<text text-anchor="middle" x="209" y="-7.5" font-family="Helvetica,sans-Serif" font-size="10.00">odp/visibility_end.h</text>
</a>
</g>
</g>
<!-- Node3&#45;&gt;Node6 -->
<g id="edge6" class="edge"><title>Node3&#45;&gt;Node6</title>
<path fill="none" stroke="midnightblue" d="M200.651,-56.083C201.976,-48.9272 203.882,-38.6353 205.539,-29.6911"/>
<polygon fill="midnightblue" stroke="midnightblue" points="209,-30.2212 207.379,-19.7511 202.117,-28.9466 209,-30.2212"/>
</g>
<!-- Node8&#45;&gt;Node4 -->
<g id="edge9" class="edge"><title>Node8&#45;&gt;Node4</title>
<path fill="none" stroke="midnightblue" d="M331,-56.083C331,-49.0059 331,-38.8611 331,-29.9865"/>
<polygon fill="midnightblue" stroke="midnightblue" points="334.5,-29.751 331,-19.7511 327.5,-29.7511 334.5,-29.751"/>
</g>
<!-- Node8&#45;&gt;Node6 -->
<g id="edge10" class="edge"><title>Node8&#45;&gt;Node6</title>
<path fill="none" stroke="midnightblue" d="M311.669,-56.4435C291.68,-47.5961 260.257,-33.6875 237.436,-23.5865"/>
<polygon fill="midnightblue" stroke="midnightblue" points="238.802,-20.3635 228.241,-19.5164 235.968,-26.7645 238.802,-20.3635"/>
</g>
</g>
</svg>
