<?xml version="1.0" encoding="UTF-8" standalone="no"?>
<!DOCTYPE svg PUBLIC "-//W3C//DTD SVG 1.1//EN"
 "http://www.w3.org/Graphics/SVG/1.1/DTD/svg11.dtd">
<!-- Generated by graphviz version 2.36.0 (20140111.2315)
 -->
<!-- Title: ipsec.h Pages: 1 -->
<svg width="457pt" height="252pt"
 viewBox="0.00 0.00 457.00 252.00" xmlns="http://www.w3.org/2000/svg" xmlns:xlink="http://www.w3.org/1999/xlink">
<g id="graph0" class="graph" transform="scale(1 1) rotate(0) translate(4 248)">
<title>ipsec.h</title>
<polygon fill="white" stroke="none" points="-4,4 -4,-248 453,-248 453,4 -4,4"/>
<!-- Node7 -->
<g id="node1" class="node"><title>Node7</title>
<polygon fill="#bfbfbf" stroke="black" points="198,-224.5 198,-243.5 246,-243.5 246,-224.5 198,-224.5"/>
<text text-anchor="middle" x="222" y="-231.5" font-family="Helvetica,sans-Serif" font-size="10.00">ipsec.h</text>
</g>
<!-- Node8 -->
<g id="node2" class="node"><title>Node8</title>
<g id="a_node2"><a xlink:href="arch_2arm32-linux_2odp_2api_2abi_2ipsec_8h_source.html" target="_top" xlink:title="ipsec.h">
<polygon fill="white" stroke="black" points="0,-168.5 0,-187.5 48,-187.5 48,-168.5 0,-168.5"/>
<text text-anchor="middle" x="24" y="-175.5" font-family="Helvetica,sans-Serif" font-size="10.00">ipsec.h</text>
</a>
</g>
</g>
<!-- Node7&#45;&gt;Node8 -->
<g id="edge1" class="edge"><title>Node7&#45;&gt;Node8</title>
<path fill="none" stroke="midnightblue" d="M187.924,-223.707C148.086,-212.842 83.1573,-195.134 48.1673,-185.591"/>
<polygon fill="midnightblue" stroke="midnightblue" points="187.153,-227.124 197.721,-226.379 188.995,-220.371 187.153,-227.124"/>
</g>
<!-- Node9 -->
<g id="node3" class="node"><title>Node9</title>
<g id="a_node3"><a xlink:href="arch_2arm64-linux_2odp_2api_2abi_2ipsec_8h_source.html" target="_top" xlink:title="ipsec.h">
<polygon fill="white" stroke="black" points="66,-168.5 66,-187.5 114,-187.5 114,-168.5 66,-168.5"/>
<text text-anchor="middle" x="90" y="-175.5" font-family="Helvetica,sans-Serif" font-size="10.00">ipsec.h</text>
</a>
</g>
</g>
<!-- Node7&#45;&gt;Node9 -->
<g id="edge2" class="edge"><title>Node7&#45;&gt;Node9</title>
<path fill="none" stroke="midnightblue" d="M191.781,-220.638C167.01,-210.504 132.6,-196.427 110.818,-187.516"/>
<polygon fill="midnightblue" stroke="midnightblue" points="190.503,-223.897 201.084,-224.444 193.154,-217.418 190.503,-223.897"/>
</g>
<!-- Node10 -->
<g id="node4" class="node"><title>Node10</title>
<g id="a_node4"><a xlink:href="arch_2default-linux_2odp_2api_2abi_2ipsec_8h_source.html" target="_top" xlink:title="ipsec.h">
<polygon fill="white" stroke="black" points="132,-168.5 132,-187.5 180,-187.5 180,-168.5 132,-168.5"/>
<text text-anchor="middle" x="156" y="-175.5" font-family="Helvetica,sans-Serif" font-size="10.00">ipsec.h</text>
</a>
</g>
</g>
<!-- Node7&#45;&gt;Node10 -->
<g id="edge3" class="edge"><title>Node7&#45;&gt;Node10</title>
<path fill="none" stroke="midnightblue" d="M203.446,-217.82C191.622,-208.145 176.714,-195.948 166.797,-187.834"/>
<polygon fill="midnightblue" stroke="midnightblue" points="201.44,-220.7 211.396,-224.324 205.873,-215.283 201.44,-220.7"/>
</g>
<!-- Node11 -->
<g id="node5" class="node"><title>Node11</title>
<g id="a_node5"><a xlink:href="arch_2mips64-linux_2odp_2api_2abi_2ipsec_8h_source.html" target="_top" xlink:title="ipsec.h">
<polygon fill="white" stroke="black" points="198,-168.5 198,-187.5 246,-187.5 246,-168.5 198,-168.5"/>
<text text-anchor="middle" x="222" y="-175.5" font-family="Helvetica,sans-Serif" font-size="10.00">ipsec.h</text>
</a>
</g>
</g>
<!-- Node7&#45;&gt;Node11 -->
<g id="edge4" class="edge"><title>Node7&#45;&gt;Node11</title>
<path fill="none" stroke="midnightblue" d="M222,-213.805C222,-204.91 222,-194.78 222,-187.751"/>
<polygon fill="midnightblue" stroke="midnightblue" points="218.5,-214.083 222,-224.083 225.5,-214.083 218.5,-214.083"/>
</g>
<!-- Node12 -->
<g id="node6" class="node"><title>Node12</title>
<g id="a_node6"><a xlink:href="arch_2power64-linux_2odp_2api_2abi_2ipsec_8h_source.html" target="_top" xlink:title="ipsec.h">
<polygon fill="white" stroke="black" points="264,-168.5 264,-187.5 312,-187.5 312,-168.5 264,-168.5"/>
<text text-anchor="middle" x="288" y="-175.5" font-family="Helvetica,sans-Serif" font-size="10.00">ipsec.h</text>
</a>
</g>
</g>
<!-- Node7&#45;&gt;Node12 -->
<g id="edge5" class="edge"><title>Node7&#45;&gt;Node12</title>
<path fill="none" stroke="midnightblue" d="M240.554,-217.82C252.378,-208.145 267.286,-195.948 277.203,-187.834"/>
<polygon fill="midnightblue" stroke="midnightblue" points="238.127,-215.283 232.604,-224.324 242.56,-220.7 238.127,-215.283"/>
</g>
<!-- Node13 -->
<g id="node7" class="node"><title>Node13</title>
<g id="a_node7"><a xlink:href="arch_2x86__32-linux_2odp_2api_2abi_2ipsec_8h_source.html" target="_top" xlink:title="ipsec.h">
<polygon fill="white" stroke="black" points="330,-168.5 330,-187.5 378,-187.5 378,-168.5 330,-168.5"/>
<text text-anchor="middle" x="354" y="-175.5" font-family="Helvetica,sans-Serif" font-size="10.00">ipsec.h</text>
</a>
</g>
</g>
<!-- Node7&#45;&gt;Node13 -->
<g id="edge6" class="edge"><title>Node7&#45;&gt;Node13</title>
<path fill="none" stroke="midnightblue" d="M252.219,-220.638C276.99,-210.504 311.4,-196.427 333.182,-187.516"/>
<polygon fill="midnightblue" stroke="midnightblue" points="250.846,-217.418 242.916,-224.444 253.497,-223.897 250.846,-217.418"/>
</g>
<!-- Node14 -->
<g id="node8" class="node"><title>Node14</title>
<g id="a_node8"><a xlink:href="arch_2x86__64-linux_2odp_2api_2abi_2ipsec_8h_source.html" target="_top" xlink:title="ipsec.h">
<polygon fill="white" stroke="black" points="396,-168.5 396,-187.5 444,-187.5 444,-168.5 396,-168.5"/>
<text text-anchor="middle" x="420" y="-175.5" font-family="Helvetica,sans-Serif" font-size="10.00">ipsec.h</text>
</a>
</g>
</g>
<!-- Node7&#45;&gt;Node14 -->
<g id="edge7" class="edge"><title>Node7&#45;&gt;Node14</title>
<path fill="none" stroke="midnightblue" d="M256.076,-223.707C295.914,-212.842 360.843,-195.134 395.833,-185.591"/>
<polygon fill="midnightblue" stroke="midnightblue" points="255.005,-220.371 246.279,-226.379 256.847,-227.124 255.005,-220.371"/>
</g>
<!-- Node15 -->
<g id="node9" class="node"><title>Node15</title>
<g id="a_node9"><a xlink:href="api_2ipsec_8h.html" target="_top" xlink:title="ODP IPSEC API &#45; platform specific header. ">
<polygon fill="white" stroke="black" points="396,-112.5 396,-131.5 444,-131.5 444,-112.5 396,-112.5"/>
<text text-anchor="middle" x="420" y="-119.5" font-family="Helvetica,sans-Serif" font-size="10.00">ipsec.h</text>
</a>
</g>
</g>
<!-- Node14&#45;&gt;Node15 -->
<g id="edge8" class="edge"><title>Node14&#45;&gt;Node15</title>
<path fill="none" stroke="midnightblue" d="M420,-157.805C420,-148.91 420,-138.78 420,-131.751"/>
<polygon fill="midnightblue" stroke="midnightblue" points="416.5,-158.083 420,-168.083 423.5,-158.083 416.5,-158.083"/>
</g>
<!-- Node16 -->
<g id="node10" class="node"><title>Node16</title>
<g id="a_node10"><a xlink:href="odp__api_8h.html" target="_top" xlink:title="The OpenDataPlane API. ">
<polygon fill="white" stroke="black" points="390.5,-56.5 390.5,-75.5 449.5,-75.5 449.5,-56.5 390.5,-56.5"/>
<text text-anchor="middle" x="420" y="-63.5" font-family="Helvetica,sans-Serif" font-size="10.00">odp_api.h</text>
</a>
</g>
</g>
<!-- Node15&#45;&gt;Node16 -->
<g id="edge9" class="edge"><title>Node15&#45;&gt;Node16</title>
<path fill="none" stroke="midnightblue" d="M420,-101.805C420,-92.9102 420,-82.7798 420,-75.7511"/>
<polygon fill="midnightblue" stroke="midnightblue" points="416.5,-102.083 420,-112.083 423.5,-102.083 416.5,-102.083"/>
</g>
<!-- Node17 -->
<g id="node11" class="node"><title>Node17</title>
<g id="a_node11"><a xlink:href="odp_8h.html" target="_top" xlink:title="WARNING: THIS FILE IS DEPRECATED AND WILL BE REMOVED!!! ODP APPLICATIONS SHOULD NOW INCLUDE odp_api...">
<polygon fill="white" stroke="black" points="399.5,-0.5 399.5,-19.5 440.5,-19.5 440.5,-0.5 399.5,-0.5"/>
<text text-anchor="middle" x="420" y="-7.5" font-family="Helvetica,sans-Serif" font-size="10.00">odp.h</text>
</a>
</g>
</g>
<!-- Node16&#45;&gt;Node17 -->
<g id="edge10" class="edge"><title>Node16&#45;&gt;Node17</title>
<path fill="none" stroke="midnightblue" d="M420,-45.8045C420,-36.9102 420,-26.7798 420,-19.7511"/>
<polygon fill="midnightblue" stroke="midnightblue" points="416.5,-46.083 420,-56.083 423.5,-46.083 416.5,-46.083"/>
</g>
</g>
</svg>
