<?xml version="1.0" encoding="UTF-8" standalone="no"?>
<!DOCTYPE svg PUBLIC "-//W3C//DTD SVG 1.1//EN"
 "http://www.w3.org/Graphics/SVG/1.1/DTD/svg11.dtd">
<!-- Generated by graphviz version 2.36.0 (20140111.2315)
 -->
<!-- Title: buffer.h Pages: 1 -->
<svg width="671pt" height="196pt"
 viewBox="0.00 0.00 671.00 196.00" xmlns="http://www.w3.org/2000/svg" xmlns:xlink="http://www.w3.org/1999/xlink">
<g id="graph0" class="graph" transform="scale(1 1) rotate(0) translate(4 192)">
<title>buffer.h</title>
<polygon fill="white" stroke="none" points="-4,4 -4,-192 667,-192 667,4 -4,4"/>
<!-- Node0 -->
<g id="node1" class="node"><title>Node0</title>
<polygon fill="#bfbfbf" stroke="black" points="359,-168.5 359,-187.5 409,-187.5 409,-168.5 359,-168.5"/>
<text text-anchor="middle" x="384" y="-175.5" font-family="Helvetica,sans-Serif" font-size="10.00">buffer.h</text>
</g>
<!-- Node1 -->
<g id="node2" class="node"><title>Node1</title>
<g id="a_node2"><a xlink:href="api_2std__types_8h.html" target="_top" xlink:title="Standard C language types and definitions for ODP. ">
<polygon fill="white" stroke="black" points="148,-112.5 148,-131.5 250,-131.5 250,-112.5 148,-112.5"/>
<text text-anchor="middle" x="199" y="-119.5" font-family="Helvetica,sans-Serif" font-size="10.00">odp/api/std_types.h</text>
</a>
</g>
</g>
<!-- Node0&#45;&gt;Node1 -->
<g id="edge1" class="edge"><title>Node0&#45;&gt;Node1</title>
<path fill="none" stroke="midnightblue" d="M358.664,-169.605C327.548,-160.522 274.432,-145.018 238.073,-134.405"/>
<polygon fill="midnightblue" stroke="midnightblue" points="238.875,-130.993 228.295,-131.551 236.913,-137.713 238.875,-130.993"/>
</g>
<!-- Node7 -->
<g id="node8" class="node"><title>Node7</title>
<polygon fill="white" stroke="#bfbfbf" points="334.5,-112.5 334.5,-131.5 433.5,-131.5 433.5,-112.5 334.5,-112.5"/>
<text text-anchor="middle" x="384" y="-119.5" font-family="Helvetica,sans-Serif" font-size="10.00">odp/api/abi/event.h</text>
</g>
<!-- Node0&#45;&gt;Node7 -->
<g id="edge7" class="edge"><title>Node0&#45;&gt;Node7</title>
<path fill="none" stroke="midnightblue" d="M384,-168.083C384,-161.006 384,-150.861 384,-141.986"/>
<polygon fill="midnightblue" stroke="midnightblue" points="387.5,-141.751 384,-131.751 380.5,-141.751 387.5,-141.751"/>
</g>
<!-- Node8 -->
<g id="node9" class="node"><title>Node8</title>
<polygon fill="white" stroke="#bfbfbf" points="452,-112.5 452,-131.5 552,-131.5 552,-112.5 452,-112.5"/>
<text text-anchor="middle" x="502" y="-119.5" font-family="Helvetica,sans-Serif" font-size="10.00">odp/api/abi/buffer.h</text>
</g>
<!-- Node0&#45;&gt;Node8 -->
<g id="edge8" class="edge"><title>Node0&#45;&gt;Node8</title>
<path fill="none" stroke="midnightblue" d="M402.697,-168.444C421.944,-159.636 452.152,-145.812 474.2,-135.722"/>
<polygon fill="midnightblue" stroke="midnightblue" points="475.753,-138.86 483.39,-131.516 472.84,-132.495 475.753,-138.86"/>
</g>
<!-- Node9 -->
<g id="node10" class="node"><title>Node9</title>
<polygon fill="white" stroke="#bfbfbf" points="570.5,-112.5 570.5,-131.5 663.5,-131.5 663.5,-112.5 570.5,-112.5"/>
<text text-anchor="middle" x="617" y="-119.5" font-family="Helvetica,sans-Serif" font-size="10.00">odp/api/abi/pool.h</text>
</g>
<!-- Node0&#45;&gt;Node9 -->
<g id="edge9" class="edge"><title>Node0&#45;&gt;Node9</title>
<path fill="none" stroke="midnightblue" d="M409.379,-171.118C447.918,-162.186 521.83,-145.057 570.267,-133.831"/>
<polygon fill="midnightblue" stroke="midnightblue" points="571.243,-137.197 580.195,-131.53 569.663,-130.378 571.243,-137.197"/>
</g>
<!-- Node10 -->
<g id="node11" class="node"><title>Node10</title>
<g id="a_node11"><a xlink:href="api_2spec_2buffer_8h.html" target="_top" xlink:title="ODP buffer descriptor. ">
<polygon fill="white" stroke="black" points="280,-56.5 280,-75.5 388,-75.5 388,-56.5 280,-56.5"/>
<text text-anchor="middle" x="334" y="-63.5" font-family="Helvetica,sans-Serif" font-size="10.00">odp/api/spec/buffer.h</text>
</a>
</g>
</g>
<!-- Node0&#45;&gt;Node10 -->
<g id="edge10" class="edge"><title>Node0&#45;&gt;Node10</title>
<path fill="none" stroke="midnightblue" d="M365.611,-168.471C351.899,-160.997 334.185,-148.71 326,-132 318.896,-117.498 322.138,-99.0794 326.431,-85.5546"/>
<polygon fill="midnightblue" stroke="midnightblue" points="329.804,-86.5194 329.923,-75.9253 323.224,-84.1331 329.804,-86.5194"/>
</g>
<!-- Node2 -->
<g id="node3" class="node"><title>Node2</title>
<polygon fill="white" stroke="#bfbfbf" points="0,-56.5 0,-75.5 118,-75.5 118,-56.5 0,-56.5"/>
<text text-anchor="middle" x="59" y="-63.5" font-family="Helvetica,sans-Serif" font-size="10.00">odp/api/abi/std_types.h</text>
</g>
<!-- Node1&#45;&gt;Node2 -->
<g id="edge2" class="edge"><title>Node1&#45;&gt;Node2</title>
<path fill="none" stroke="midnightblue" d="M176.817,-112.444C153.572,-103.478 116.851,-89.314 90.5848,-79.1827"/>
<polygon fill="midnightblue" stroke="midnightblue" points="91.6692,-75.8497 81.0796,-75.5164 89.1501,-82.3807 91.6692,-75.8497"/>
</g>
<!-- Node3 -->
<g id="node4" class="node"><title>Node3</title>
<g id="a_node4"><a xlink:href="api_2spec_2std__types_8h.html" target="_top" xlink:title="Standard C language types and definitions for ODP. ">
<polygon fill="white" stroke="black" points="136,-56.5 136,-75.5 262,-75.5 262,-56.5 136,-56.5"/>
<text text-anchor="middle" x="199" y="-63.5" font-family="Helvetica,sans-Serif" font-size="10.00">odp/api/spec/std_types.h</text>
</a>
</g>
</g>
<!-- Node1&#45;&gt;Node3 -->
<g id="edge3" class="edge"><title>Node1&#45;&gt;Node3</title>
<path fill="none" stroke="midnightblue" d="M199,-112.083C199,-105.006 199,-94.8611 199,-85.9865"/>
<polygon fill="midnightblue" stroke="midnightblue" points="202.5,-85.751 199,-75.7511 195.5,-85.7511 202.5,-85.751"/>
</g>
<!-- Node4 -->
<g id="node5" class="node"><title>Node4</title>
<g id="a_node5"><a xlink:href="visibility__begin_8h_source.html" target="_top" xlink:title="odp/visibility_begin.h">
<polygon fill="white" stroke="black" points="280.5,-0.5 280.5,-19.5 387.5,-19.5 387.5,-0.5 280.5,-0.5"/>
<text text-anchor="middle" x="334" y="-7.5" font-family="Helvetica,sans-Serif" font-size="10.00">odp/visibility_begin.h</text>
</a>
</g>
</g>
<!-- Node3&#45;&gt;Node4 -->
<g id="edge4" class="edge"><title>Node3&#45;&gt;Node4</title>
<path fill="none" stroke="midnightblue" d="M220.391,-56.4435C242.707,-47.5171 277.903,-33.4387 303.208,-23.3168"/>
<polygon fill="midnightblue" stroke="midnightblue" points="304.724,-26.4801 312.709,-19.5164 302.124,-19.9807 304.724,-26.4801"/>
</g>
<!-- Node5 -->
<g id="node6" class="node"><title>Node5</title>
<polygon fill="white" stroke="#bfbfbf" points="94.5,-0.5 94.5,-19.5 143.5,-19.5 143.5,-0.5 94.5,-0.5"/>
<text text-anchor="middle" x="119" y="-7.5" font-family="Helvetica,sans-Serif" font-size="10.00">stdint.h</text>
</g>
<!-- Node3&#45;&gt;Node5 -->
<g id="edge5" class="edge"><title>Node3&#45;&gt;Node5</title>
<path fill="none" stroke="midnightblue" d="M186.147,-56.324C173.784,-47.979 154.87,-35.2122 140.263,-25.3524"/>
<polygon fill="midnightblue" stroke="midnightblue" points="142.068,-22.3483 131.821,-19.6545 138.152,-28.1503 142.068,-22.3483"/>
</g>
<!-- Node6 -->
<g id="node7" class="node"><title>Node6</title>
<g id="a_node7"><a xlink:href="visibility__end_8h_source.html" target="_top" xlink:title="odp/visibility_end.h">
<polygon fill="white" stroke="black" points="162,-0.5 162,-19.5 262,-19.5 262,-0.5 162,-0.5"/>
<text text-anchor="middle" x="212" y="-7.5" font-family="Helvetica,sans-Serif" font-size="10.00">odp/visibility_end.h</text>
</a>
</g>
</g>
<!-- Node3&#45;&gt;Node6 -->
<g id="edge6" class="edge"><title>Node3&#45;&gt;Node6</title>
<path fill="none" stroke="midnightblue" d="M201.147,-56.083C202.869,-48.9272 205.347,-38.6353 207.5,-29.6911"/>
<polygon fill="midnightblue" stroke="midnightblue" points="210.955,-30.2925 209.893,-19.7511 204.15,-28.6541 210.955,-30.2925"/>
</g>
<!-- Node10&#45;&gt;Node4 -->
<g id="edge11" class="edge"><title>Node10&#45;&gt;Node4</title>
<path fill="none" stroke="midnightblue" d="M334,-56.083C334,-49.0059 334,-38.8611 334,-29.9865"/>
<polygon fill="midnightblue" stroke="midnightblue" points="337.5,-29.751 334,-19.7511 330.5,-29.7511 337.5,-29.751"/>
</g>
<!-- Node10&#45;&gt;Node6 -->
<g id="edge12" class="edge"><title>Node10&#45;&gt;Node6</title>
<path fill="none" stroke="midnightblue" d="M314.669,-56.4435C294.68,-47.5961 263.257,-33.6875 240.436,-23.5865"/>
<polygon fill="midnightblue" stroke="midnightblue" points="241.802,-20.3635 231.241,-19.5164 238.968,-26.7645 241.802,-20.3635"/>
</g>
</g>
</svg>
