<?xml version="1.0" encoding="UTF-8" standalone="no"?>
<!DOCTYPE svg PUBLIC "-//W3C//DTD SVG 1.1//EN"
 "http://www.w3.org/Graphics/SVG/1.1/DTD/svg11.dtd">
<!-- Generated by graphviz version 2.36.0 (20140111.2315)
 -->
<!-- Title: std_types.h Pages: 1 -->
<svg width="2230pt" height="364pt"
 viewBox="0.00 0.00 2230.34 364.00" xmlns="http://www.w3.org/2000/svg" xmlns:xlink="http://www.w3.org/1999/xlink">
<g id="graph0" class="graph" transform="scale(1 1) rotate(0) translate(4 360)">
<title>std_types.h</title>
<polygon fill="white" stroke="none" points="-4,4 -4,-360 2226.34,-360 2226.34,4 -4,4"/>
<!-- Node4 -->
<g id="node1" class="node"><title>Node4</title>
<polygon fill="#bfbfbf" stroke="black" points="586.341,-336.5 586.341,-355.5 654.341,-355.5 654.341,-336.5 586.341,-336.5"/>
<text text-anchor="middle" x="620.341" y="-343.5" font-family="Helvetica,sans-Serif" font-size="10.00">std_types.h</text>
</g>
<!-- Node5 -->
<g id="node2" class="node"><title>Node5</title>
<g id="a_node2"><a xlink:href="arch_2arm32-linux_2odp_2api_2abi_2std__types_8h_source.html" target="_top" xlink:title="std_types.h">
<polygon fill="white" stroke="black" points="328.341,-280.5 328.341,-299.5 396.341,-299.5 396.341,-280.5 328.341,-280.5"/>
<text text-anchor="middle" x="362.341" y="-287.5" font-family="Helvetica,sans-Serif" font-size="10.00">std_types.h</text>
</a>
</g>
</g>
<!-- Node4&#45;&gt;Node5 -->
<g id="edge1" class="edge"><title>Node4&#45;&gt;Node5</title>
<path fill="none" stroke="midnightblue" d="M576.047,-335.729C525.231,-325.093 442.982,-307.878 396.743,-298.2"/>
<polygon fill="midnightblue" stroke="midnightblue" points="575.575,-339.206 586.08,-337.829 577.009,-332.355 575.575,-339.206"/>
</g>
<!-- Node6 -->
<g id="node3" class="node"><title>Node6</title>
<g id="a_node3"><a xlink:href="arch_2arm64-linux_2odp_2api_2abi_2std__types_8h_source.html" target="_top" xlink:title="std_types.h">
<polygon fill="white" stroke="black" points="414.341,-280.5 414.341,-299.5 482.341,-299.5 482.341,-280.5 414.341,-280.5"/>
<text text-anchor="middle" x="448.341" y="-287.5" font-family="Helvetica,sans-Serif" font-size="10.00">std_types.h</text>
</a>
</g>
</g>
<!-- Node4&#45;&gt;Node6 -->
<g id="edge2" class="edge"><title>Node4&#45;&gt;Node6</title>
<path fill="none" stroke="midnightblue" d="M583.508,-333.436C551.079,-323.255 504.604,-308.664 475.467,-299.516"/>
<polygon fill="midnightblue" stroke="midnightblue" points="582.498,-336.787 593.087,-336.444 584.594,-330.109 582.498,-336.787"/>
</g>
<!-- Node7 -->
<g id="node4" class="node"><title>Node7</title>
<g id="a_node4"><a xlink:href="arch_2default-linux_2odp_2api_2abi_2std__types_8h_source.html" target="_top" xlink:title="std_types.h">
<polygon fill="white" stroke="black" points="500.341,-280.5 500.341,-299.5 568.341,-299.5 568.341,-280.5 500.341,-280.5"/>
<text text-anchor="middle" x="534.341" y="-287.5" font-family="Helvetica,sans-Serif" font-size="10.00">std_types.h</text>
</a>
</g>
</g>
<!-- Node4&#45;&gt;Node7 -->
<g id="edge3" class="edge"><title>Node4&#45;&gt;Node7</title>
<path fill="none" stroke="midnightblue" d="M597.886,-330.901C582.116,-320.999 561.527,-308.071 548.124,-299.655"/>
<polygon fill="midnightblue" stroke="midnightblue" points="596.193,-333.97 606.523,-336.324 599.916,-328.042 596.193,-333.97"/>
</g>
<!-- Node8 -->
<g id="node5" class="node"><title>Node8</title>
<g id="a_node5"><a xlink:href="arch_2mips64-linux_2odp_2api_2abi_2std__types_8h_source.html" target="_top" xlink:title="std_types.h">
<polygon fill="white" stroke="black" points="586.341,-280.5 586.341,-299.5 654.341,-299.5 654.341,-280.5 586.341,-280.5"/>
<text text-anchor="middle" x="620.341" y="-287.5" font-family="Helvetica,sans-Serif" font-size="10.00">std_types.h</text>
</a>
</g>
</g>
<!-- Node4&#45;&gt;Node8 -->
<g id="edge4" class="edge"><title>Node4&#45;&gt;Node8</title>
<path fill="none" stroke="midnightblue" d="M620.341,-325.805C620.341,-316.91 620.341,-306.78 620.341,-299.751"/>
<polygon fill="midnightblue" stroke="midnightblue" points="616.841,-326.083 620.341,-336.083 623.841,-326.083 616.841,-326.083"/>
</g>
<!-- Node9 -->
<g id="node6" class="node"><title>Node9</title>
<g id="a_node6"><a xlink:href="arch_2power64-linux_2odp_2api_2abi_2std__types_8h_source.html" target="_top" xlink:title="std_types.h">
<polygon fill="white" stroke="black" points="672.341,-280.5 672.341,-299.5 740.341,-299.5 740.341,-280.5 672.341,-280.5"/>
<text text-anchor="middle" x="706.341" y="-287.5" font-family="Helvetica,sans-Serif" font-size="10.00">std_types.h</text>
</a>
</g>
</g>
<!-- Node4&#45;&gt;Node9 -->
<g id="edge5" class="edge"><title>Node4&#45;&gt;Node9</title>
<path fill="none" stroke="midnightblue" d="M642.795,-330.901C658.565,-320.999 679.154,-308.071 692.558,-299.655"/>
<polygon fill="midnightblue" stroke="midnightblue" points="640.766,-328.042 634.158,-336.324 644.488,-333.97 640.766,-328.042"/>
</g>
<!-- Node10 -->
<g id="node7" class="node"><title>Node10</title>
<g id="a_node7"><a xlink:href="arch_2x86__32-linux_2odp_2api_2abi_2std__types_8h_source.html" target="_top" xlink:title="std_types.h">
<polygon fill="white" stroke="black" points="758.341,-280.5 758.341,-299.5 826.341,-299.5 826.341,-280.5 758.341,-280.5"/>
<text text-anchor="middle" x="792.341" y="-287.5" font-family="Helvetica,sans-Serif" font-size="10.00">std_types.h</text>
</a>
</g>
</g>
<!-- Node4&#45;&gt;Node10 -->
<g id="edge6" class="edge"><title>Node4&#45;&gt;Node10</title>
<path fill="none" stroke="midnightblue" d="M657.173,-333.436C689.602,-323.255 736.078,-308.664 765.214,-299.516"/>
<polygon fill="midnightblue" stroke="midnightblue" points="656.087,-330.109 647.595,-336.444 658.184,-336.787 656.087,-330.109"/>
</g>
<!-- Node11 -->
<g id="node8" class="node"><title>Node11</title>
<g id="a_node8"><a xlink:href="arch_2x86__64-linux_2odp_2api_2abi_2std__types_8h_source.html" target="_top" xlink:title="std_types.h">
<polygon fill="white" stroke="black" points="844.341,-280.5 844.341,-299.5 912.341,-299.5 912.341,-280.5 844.341,-280.5"/>
<text text-anchor="middle" x="878.341" y="-287.5" font-family="Helvetica,sans-Serif" font-size="10.00">std_types.h</text>
</a>
</g>
</g>
<!-- Node4&#45;&gt;Node11 -->
<g id="edge7" class="edge"><title>Node4&#45;&gt;Node11</title>
<path fill="none" stroke="midnightblue" d="M664.634,-335.729C715.451,-325.093 797.699,-307.878 843.939,-298.2"/>
<polygon fill="midnightblue" stroke="midnightblue" points="663.672,-332.355 654.601,-337.829 665.106,-339.206 663.672,-332.355"/>
</g>
<!-- Node12 -->
<g id="node9" class="node"><title>Node12</title>
<g id="a_node9"><a xlink:href="api_2std__clib_8h_source.html" target="_top" xlink:title="std_clib.h">
<polygon fill="white" stroke="black" points="531.841,-224.5 531.841,-243.5 590.841,-243.5 590.841,-224.5 531.841,-224.5"/>
<text text-anchor="middle" x="561.341" y="-231.5" font-family="Helvetica,sans-Serif" font-size="10.00">std_clib.h</text>
</a>
</g>
</g>
<!-- Node11&#45;&gt;Node12 -->
<g id="edge8" class="edge"><title>Node11&#45;&gt;Node12</title>
<path fill="none" stroke="midnightblue" d="M834.09,-279.83C739.587,-262.348 639.648,-246.81 591.013,-239.44"/>
<polygon fill="midnightblue" stroke="midnightblue" points="833.628,-283.304 844.1,-281.693 834.909,-276.422 833.628,-283.304"/>
</g>
<!-- Node15 -->
<g id="node12" class="node"><title>Node15</title>
<g id="a_node12"><a xlink:href="api_2std__types_8h.html" target="_top" xlink:title="Standard C language types and definitions for ODP. ">
<polygon fill="white" stroke="black" points="1160.34,-224.5 1160.34,-243.5 1228.34,-243.5 1228.34,-224.5 1160.34,-224.5"/>
<text text-anchor="middle" x="1194.34" y="-231.5" font-family="Helvetica,sans-Serif" font-size="10.00">std_types.h</text>
</a>
</g>
</g>
<!-- Node11&#45;&gt;Node15 -->
<g id="edge11" class="edge"><title>Node11&#45;&gt;Node15</title>
<path fill="none" stroke="midnightblue" d="M922.578,-281.44C986.201,-270.568 1102.21,-250.744 1159.89,-240.888"/>
<polygon fill="midnightblue" stroke="midnightblue" points="921.726,-278.035 912.458,-283.17 922.905,-284.935 921.726,-278.035"/>
</g>
<!-- Node13 -->
<g id="node10" class="node"><title>Node13</title>
<g id="a_node10"><a xlink:href="odp__api_8h.html" target="_top" xlink:title="The OpenDataPlane API. ">
<polygon fill="white" stroke="black" points="1230.84,-56.5 1230.84,-75.5 1289.84,-75.5 1289.84,-56.5 1230.84,-56.5"/>
<text text-anchor="middle" x="1260.34" y="-63.5" font-family="Helvetica,sans-Serif" font-size="10.00">odp_api.h</text>
</a>
</g>
</g>
<!-- Node12&#45;&gt;Node13 -->
<g id="edge9" class="edge"><title>Node12&#45;&gt;Node13</title>
<path fill="none" stroke="midnightblue" d="M521.664,-232.425C420.403,-230.471 154.727,-222.143 74.3407,-188 33.4312,-170.624 -21.5178,-143.988 9.34067,-112 53.0978,-66.6406 1044.98,-66.5371 1230.57,-66.9164"/>
<polygon fill="midnightblue" stroke="midnightblue" points="521.719,-235.927 531.781,-232.61 521.847,-228.928 521.719,-235.927"/>
</g>
<!-- Node14 -->
<g id="node11" class="node"><title>Node14</title>
<g id="a_node11"><a xlink:href="odp_8h.html" target="_top" xlink:title="WARNING: THIS FILE IS DEPRECATED AND WILL BE REMOVED!!! ODP APPLICATIONS SHOULD NOW INCLUDE odp_api...">
<polygon fill="white" stroke="black" points="1239.84,-0.5 1239.84,-19.5 1280.84,-19.5 1280.84,-0.5 1239.84,-0.5"/>
<text text-anchor="middle" x="1260.34" y="-7.5" font-family="Helvetica,sans-Serif" font-size="10.00">odp.h</text>
</a>
</g>
</g>
<!-- Node13&#45;&gt;Node14 -->
<g id="edge10" class="edge"><title>Node13&#45;&gt;Node14</title>
<path fill="none" stroke="midnightblue" d="M1260.34,-45.8045C1260.34,-36.9102 1260.34,-26.7798 1260.34,-19.7511"/>
<polygon fill="midnightblue" stroke="midnightblue" points="1256.84,-46.083 1260.34,-56.083 1263.84,-46.083 1256.84,-46.083"/>
</g>
<!-- Node15&#45;&gt;Node13 -->
<g id="edge64" class="edge"><title>Node15&#45;&gt;Node13</title>
<path fill="none" stroke="midnightblue" d="M1165.55,-219.92C1122.22,-198.454 1048.64,-153.936 1081.34,-112 1099.52,-88.6887 1184.47,-75.6049 1230.5,-70.1148"/>
<polygon fill="midnightblue" stroke="midnightblue" points="1164.27,-223.191 1174.8,-224.384 1167.31,-216.886 1164.27,-223.191"/>
</g>
<!-- Node16 -->
<g id="node13" class="node"><title>Node16</title>
<g id="a_node13"><a xlink:href="api_2abi-default_2atomic_8h.html" target="_top" xlink:title="ODP atomic operations. ">
<polygon fill="white" stroke="red" points="116.341,-168.5 116.341,-187.5 170.341,-187.5 170.341,-168.5 116.341,-168.5"/>
<text text-anchor="middle" x="143.341" y="-175.5" font-family="Helvetica,sans-Serif" font-size="10.00">atomic.h</text>
</a>
</g>
</g>
<!-- Node15&#45;&gt;Node16 -->
<g id="edge12" class="edge"><title>Node15&#45;&gt;Node16</title>
<path fill="none" stroke="midnightblue" d="M1150.07,-232.219C980.326,-229.043 370.93,-215.907 179.341,-188 176.408,-187.573 173.367,-187.009 170.351,-186.37"/>
<polygon fill="midnightblue" stroke="midnightblue" points="1150.09,-235.72 1160.15,-232.406 1150.22,-228.721 1150.09,-235.72"/>
</g>
<!-- Node25 -->
<g id="node20" class="node"><title>Node25</title>
<g id="a_node20"><a xlink:href="api_2abi-default_2barrier_8h.html" target="_top" xlink:title="ODP barrier. ">
<polygon fill="white" stroke="red" points="188.341,-168.5 188.341,-187.5 240.341,-187.5 240.341,-168.5 188.341,-168.5"/>
<text text-anchor="middle" x="214.341" y="-175.5" font-family="Helvetica,sans-Serif" font-size="10.00">barrier.h</text>
</a>
</g>
</g>
<!-- Node15&#45;&gt;Node25 -->
<g id="edge19" class="edge"><title>Node15&#45;&gt;Node25</title>
<path fill="none" stroke="midnightblue" d="M1150.23,-232.094C988.247,-228.582 426.541,-214.715 249.341,-188 246.487,-187.57 243.529,-187.004 240.595,-186.364"/>
<polygon fill="midnightblue" stroke="midnightblue" points="1150.24,-235.595 1160.31,-232.311 1150.39,-228.597 1150.24,-235.595"/>
</g>
<!-- Node61 -->
<g id="node21" class="node"><title>Node61</title>
<g id="a_node21"><a xlink:href="api_2abi-default_2byteorder_8h.html" target="_top" xlink:title="ODP byteorder. ">
<polygon fill="white" stroke="red" points="258.841,-168.5 258.841,-187.5 323.841,-187.5 323.841,-168.5 258.841,-168.5"/>
<text text-anchor="middle" x="291.341" y="-175.5" font-family="Helvetica,sans-Serif" font-size="10.00">byteorder.h</text>
</a>
</g>
</g>
<!-- Node15&#45;&gt;Node61 -->
<g id="edge20" class="edge"><title>Node15&#45;&gt;Node61</title>
<path fill="none" stroke="midnightblue" d="M1149.9,-233.241C1022.17,-233.384 643.269,-229.954 332.341,-188 329.596,-187.63 326.763,-187.171 323.928,-186.658"/>
<polygon fill="midnightblue" stroke="midnightblue" points="1150.08,-236.741 1160.07,-233.221 1150.06,-229.741 1150.08,-236.741"/>
</g>
<!-- Node70 -->
<g id="node22" class="node"><title>Node70</title>
<g id="a_node22"><a xlink:href="api_2abi-default_2cpumask_8h.html" target="_top" xlink:title="ODP CPU masks and enumeration. ">
<polygon fill="white" stroke="red" points="341.841,-168.5 341.841,-187.5 406.841,-187.5 406.841,-168.5 341.841,-168.5"/>
<text text-anchor="middle" x="374.341" y="-175.5" font-family="Helvetica,sans-Serif" font-size="10.00">cpumask.h</text>
</a>
</g>
</g>
<!-- Node15&#45;&gt;Node70 -->
<g id="edge21" class="edge"><title>Node15&#45;&gt;Node70</title>
<path fill="none" stroke="midnightblue" d="M1149.83,-232.807C1030.48,-231.777 693.553,-225.493 416.341,-188 413.385,-187.6 410.327,-187.106 407.272,-186.556"/>
<polygon fill="midnightblue" stroke="midnightblue" points="1150.01,-236.309 1160.04,-232.887 1150.06,-229.309 1150.01,-236.309"/>
</g>
<!-- Node94 -->
<g id="node23" class="node"><title>Node94</title>
<g id="a_node23"><a xlink:href="api_2abi-default_2init_8h.html" target="_top" xlink:title="ODP initialization. ">
<polygon fill="white" stroke="red" points="425.341,-168.5 425.341,-187.5 463.341,-187.5 463.341,-168.5 425.341,-168.5"/>
<text text-anchor="middle" x="444.341" y="-175.5" font-family="Helvetica,sans-Serif" font-size="10.00">init.h</text>
</a>
</g>
</g>
<!-- Node15&#45;&gt;Node94 -->
<g id="edge22" class="edge"><title>Node15&#45;&gt;Node94</title>
<path fill="none" stroke="midnightblue" d="M1150.18,-231.686C1014.25,-227.416 603.442,-212.754 472.341,-188 469.431,-187.451 466.402,-186.688 463.458,-185.837"/>
<polygon fill="midnightblue" stroke="midnightblue" points="1150.13,-235.186 1160.23,-231.999 1150.34,-228.19 1150.13,-235.186"/>
</g>
<!-- Node102 -->
<g id="node24" class="node"><title>Node102</title>
<g id="a_node24"><a xlink:href="api_2abi-default_2ipsec_8h.html" target="_top" xlink:title="ODP IPSEC API &#45; platform specific types. ">
<polygon fill="white" stroke="red" points="481.341,-168.5 481.341,-187.5 529.341,-187.5 529.341,-168.5 481.341,-168.5"/>
<text text-anchor="middle" x="505.341" y="-175.5" font-family="Helvetica,sans-Serif" font-size="10.00">ipsec.h</text>
</a>
</g>
</g>
<!-- Node15&#45;&gt;Node102 -->
<g id="edge23" class="edge"><title>Node15&#45;&gt;Node102</title>
<path fill="none" stroke="midnightblue" d="M1150.24,-232.971C1044.09,-232.253 766.285,-226.512 538.341,-188 535.413,-187.505 532.37,-186.861 529.369,-186.143"/>
<polygon fill="midnightblue" stroke="midnightblue" points="1150.25,-236.471 1160.26,-233.027 1150.28,-229.471 1150.25,-236.471"/>
</g>
<!-- Node111 -->
<g id="node25" class="node"><title>Node111</title>
<g id="a_node25"><a xlink:href="api_2abi-default_2packet__io_8h.html" target="_top" xlink:title="ODP Packet IO. ">
<polygon fill="white" stroke="red" points="547.841,-168.5 547.841,-187.5 614.841,-187.5 614.841,-168.5 547.841,-168.5"/>
<text text-anchor="middle" x="581.341" y="-175.5" font-family="Helvetica,sans-Serif" font-size="10.00">packet_io.h</text>
</a>
</g>
</g>
<!-- Node15&#45;&gt;Node111 -->
<g id="edge24" class="edge"><title>Node15&#45;&gt;Node111</title>
<path fill="none" stroke="midnightblue" d="M1149.89,-231.421C1053.65,-227.581 818.968,-215.934 624.341,-188 621.321,-187.567 618.195,-187.049 615.07,-186.484"/>
<polygon fill="midnightblue" stroke="midnightblue" points="1149.99,-234.928 1160.12,-231.821 1150.27,-227.933 1149.99,-234.928"/>
</g>
<!-- Node43 -->
<g id="node26" class="node"><title>Node43</title>
<g id="a_node26"><a xlink:href="api_2abi-default_2rwlock__recursive_8h.html" target="_top" xlink:title="ODP recursive read/write lock. ">
<polygon fill="white" stroke="red" points="633.341,-168.5 633.341,-187.5 731.341,-187.5 731.341,-168.5 633.341,-168.5"/>
<text text-anchor="middle" x="682.341" y="-175.5" font-family="Helvetica,sans-Serif" font-size="10.00">rwlock_recursive.h</text>
</a>
</g>
</g>
<!-- Node15&#45;&gt;Node43 -->
<g id="edge25" class="edge"><title>Node15&#45;&gt;Node43</title>
<path fill="none" stroke="midnightblue" d="M1149.72,-229.399C1068.24,-222.642 889.984,-207.012 740.341,-188 737.409,-187.628 734.398,-187.224 731.362,-186.801"/>
<polygon fill="midnightblue" stroke="midnightblue" points="1149.84,-232.921 1160.1,-230.255 1150.42,-225.945 1149.84,-232.921"/>
</g>
<!-- Node137 -->
<g id="node27" class="node"><title>Node137</title>
<g id="a_node27"><a xlink:href="api_2abi-default_2schedule_8h.html" target="_top" xlink:title="ODP schedule. ">
<polygon fill="white" stroke="red" points="749.341,-168.5 749.341,-187.5 813.341,-187.5 813.341,-168.5 749.341,-168.5"/>
<text text-anchor="middle" x="781.341" y="-175.5" font-family="Helvetica,sans-Serif" font-size="10.00">schedule.h</text>
</a>
</g>
</g>
<!-- Node15&#45;&gt;Node137 -->
<g id="edge26" class="edge"><title>Node15&#45;&gt;Node137</title>
<path fill="none" stroke="midnightblue" d="M1150.14,-229.034C1080.25,-222.454 940.079,-207.997 822.341,-188 819.467,-187.512 816.49,-186.957 813.513,-186.367"/>
<polygon fill="midnightblue" stroke="midnightblue" points="1150.05,-232.541 1160.33,-229.985 1150.7,-225.572 1150.05,-232.541"/>
</g>
<!-- Node145 -->
<g id="node28" class="node"><title>Node145</title>
<g id="a_node28"><a xlink:href="api_2abi-default_2spinlock__recursive_8h.html" target="_top" xlink:title="ODP recursive spinlock. ">
<polygon fill="white" stroke="red" points="831.341,-168.5 831.341,-187.5 937.341,-187.5 937.341,-168.5 831.341,-168.5"/>
<text text-anchor="middle" x="884.341" y="-175.5" font-family="Helvetica,sans-Serif" font-size="10.00">spinlock_recursive.h</text>
</a>
</g>
</g>
<!-- Node15&#45;&gt;Node145 -->
<g id="edge27" class="edge"><title>Node15&#45;&gt;Node145</title>
<path fill="none" stroke="midnightblue" d="M1150.43,-225.35C1093.06,-215.357 992.911,-197.912 933.201,-187.511"/>
<polygon fill="midnightblue" stroke="midnightblue" points="1149.83,-228.798 1160.28,-227.067 1151.03,-221.902 1149.83,-228.798"/>
</g>
<!-- Node154 -->
<g id="node29" class="node"><title>Node154</title>
<g id="a_node29"><a xlink:href="api_2abi-default_2traffic__mngr_8h.html" target="_top" xlink:title="ODP traffic mngr. ">
<polygon fill="white" stroke="red" points="955.841,-168.5 955.841,-187.5 1032.84,-187.5 1032.84,-168.5 955.841,-168.5"/>
<text text-anchor="middle" x="994.341" y="-175.5" font-family="Helvetica,sans-Serif" font-size="10.00">traffic_mngr.h</text>
</a>
</g>
</g>
<!-- Node15&#45;&gt;Node154 -->
<g id="edge28" class="edge"><title>Node15&#45;&gt;Node154</title>
<path fill="none" stroke="midnightblue" d="M1152.97,-221.829C1115.2,-211.633 1060.2,-196.782 1025.88,-187.516"/>
<polygon fill="midnightblue" stroke="midnightblue" points="1152.08,-225.216 1162.65,-224.444 1153.91,-218.458 1152.08,-225.216"/>
</g>
<!-- Node33 -->
<g id="node30" class="node"><title>Node33</title>
<g id="a_node30"><a xlink:href="api_2barrier_8h.html" target="_top" xlink:title="ODP execution barriers. ">
<polygon fill="white" stroke="black" points="1090.34,-112.5 1090.34,-131.5 1142.34,-131.5 1142.34,-112.5 1090.34,-112.5"/>
<text text-anchor="middle" x="1116.34" y="-119.5" font-family="Helvetica,sans-Serif" font-size="10.00">barrier.h</text>
</a>
</g>
</g>
<!-- Node15&#45;&gt;Node33 -->
<g id="edge29" class="edge"><title>Node15&#45;&gt;Node33</title>
<path fill="none" stroke="midnightblue" d="M1182.26,-215.957C1165.35,-192.118 1135.28,-149.709 1122.43,-131.591"/>
<polygon fill="midnightblue" stroke="midnightblue" points="1179.58,-218.236 1188.22,-224.368 1185.29,-214.187 1179.58,-218.236"/>
</g>
<!-- Node162 -->
<g id="node31" class="node"><title>Node162</title>
<g id="a_node31"><a xlink:href="api_2buffer_8h.html" target="_top" xlink:title="ODP buffer descriptor. ">
<polygon fill="white" stroke="black" points="1160.34,-112.5 1160.34,-131.5 1210.34,-131.5 1210.34,-112.5 1160.34,-112.5"/>
<text text-anchor="middle" x="1185.34" y="-119.5" font-family="Helvetica,sans-Serif" font-size="10.00">buffer.h</text>
</a>
</g>
</g>
<!-- Node15&#45;&gt;Node162 -->
<g id="edge31" class="edge"><title>Node15&#45;&gt;Node162</title>
<path fill="none" stroke="midnightblue" d="M1192.81,-214.348C1190.84,-190.254 1187.49,-149.308 1186.04,-131.591"/>
<polygon fill="midnightblue" stroke="midnightblue" points="1189.33,-214.687 1193.63,-224.368 1196.31,-214.116 1189.33,-214.687"/>
</g>
<!-- Node119 -->
<g id="node32" class="node"><title>Node119</title>
<g id="a_node32"><a xlink:href="api_2classification_8h.html" target="_top" xlink:title="ODP classification descriptor. ">
<polygon fill="white" stroke="red" points="1364.34,-112.5 1364.34,-131.5 1446.34,-131.5 1446.34,-112.5 1364.34,-112.5"/>
<text text-anchor="middle" x="1405.34" y="-119.5" font-family="Helvetica,sans-Serif" font-size="10.00">classification.h</text>
</a>
</g>
</g>
<!-- Node15&#45;&gt;Node119 -->
<g id="edge33" class="edge"><title>Node15&#45;&gt;Node119</title>
<path fill="none" stroke="midnightblue" d="M1228.56,-220.858C1250.65,-212.573 1279.74,-200.809 1304.34,-188 1338.19,-170.376 1375.25,-144.734 1393.64,-131.543"/>
<polygon fill="midnightblue" stroke="midnightblue" points="1227.12,-217.661 1218.95,-224.411 1229.54,-224.227 1227.12,-217.661"/>
</g>
<!-- Node125 -->
<g id="node33" class="node"><title>Node125</title>
<g id="a_node33"><a xlink:href="api_2crypto_8h.html" target="_top" xlink:title="ODP crypto. ">
<polygon fill="white" stroke="red" points="2074.34,-112.5 2074.34,-131.5 2126.34,-131.5 2126.34,-112.5 2074.34,-112.5"/>
<text text-anchor="middle" x="2100.34" y="-119.5" font-family="Helvetica,sans-Serif" font-size="10.00">crypto.h</text>
</a>
</g>
</g>
<!-- Node15&#45;&gt;Node125 -->
<g id="edge35" class="edge"><title>Node15&#45;&gt;Node125</title>
<path fill="none" stroke="midnightblue" d="M1238.61,-232.538C1419.51,-230.439 2094.42,-220.45 2125.34,-188 2140.69,-171.894 2121.06,-145.361 2108.8,-131.711"/>
<polygon fill="midnightblue" stroke="midnightblue" points="1238.36,-229.041 1228.4,-232.654 1238.44,-236.04 1238.36,-229.041"/>
</g>
<!-- Node121 -->
<g id="node34" class="node"><title>Node121</title>
<g id="a_node34"><a xlink:href="api_2packet_8h.html" target="_top" xlink:title="ODP packet descriptor. ">
<polygon fill="white" stroke="red" points="1241.34,-168.5 1241.34,-187.5 1295.34,-187.5 1295.34,-168.5 1241.34,-168.5"/>
<text text-anchor="middle" x="1268.34" y="-175.5" font-family="Helvetica,sans-Serif" font-size="10.00">packet.h</text>
</a>
</g>
</g>
<!-- Node15&#45;&gt;Node121 -->
<g id="edge37" class="edge"><title>Node15&#45;&gt;Node121</title>
<path fill="none" stroke="midnightblue" d="M1214.37,-218.38C1227.75,-208.62 1244.9,-196.106 1256.23,-187.834"/>
<polygon fill="midnightblue" stroke="midnightblue" points="1212.24,-215.602 1206.23,-224.324 1216.37,-221.257 1212.24,-215.602"/>
</g>
<!-- Node135 -->
<g id="node35" class="node"><title>Node135</title>
<g id="a_node35"><a xlink:href="api_2spec_2packet__flags_8h.html" target="_top" xlink:title="ODP packet flags. ">
<polygon fill="white" stroke="red" points="1228.34,-112.5 1228.34,-131.5 1308.34,-131.5 1308.34,-112.5 1228.34,-112.5"/>
<text text-anchor="middle" x="1268.34" y="-119.5" font-family="Helvetica,sans-Serif" font-size="10.00">packet_flags.h</text>
</a>
</g>
</g>
<!-- Node15&#45;&gt;Node135 -->
<g id="edge52" class="edge"><title>Node15&#45;&gt;Node135</title>
<path fill="none" stroke="midnightblue" d="M1203.76,-215.315C1211.08,-201.997 1221.72,-183.455 1232.34,-168 1241.4,-154.805 1253.2,-140.526 1260.77,-131.672"/>
<polygon fill="midnightblue" stroke="midnightblue" points="1200.56,-213.882 1198.88,-224.343 1206.71,-217.214 1200.56,-213.882"/>
</g>
<!-- Node131 -->
<g id="node36" class="node"><title>Node131</title>
<g id="a_node36"><a xlink:href="api_2packet__io_8h.html" target="_top" xlink:title="ODP Packet IO. ">
<polygon fill="white" stroke="red" points="1389.84,-168.5 1389.84,-187.5 1456.84,-187.5 1456.84,-168.5 1389.84,-168.5"/>
<text text-anchor="middle" x="1423.34" y="-175.5" font-family="Helvetica,sans-Serif" font-size="10.00">packet_io.h</text>
</a>
</g>
</g>
<!-- Node15&#45;&gt;Node131 -->
<g id="edge40" class="edge"><title>Node15&#45;&gt;Node131</title>
<path fill="none" stroke="midnightblue" d="M1238.5,-222.587C1282.63,-212.181 1349.51,-196.409 1389.57,-186.963"/>
<polygon fill="midnightblue" stroke="midnightblue" points="1237.55,-219.214 1228.62,-224.916 1239.16,-226.027 1237.55,-219.214"/>
</g>
<!-- Node133 -->
<g id="node37" class="node"><title>Node133</title>
<g id="a_node37"><a xlink:href="api_2spec_2traffic__mngr_8h.html" target="_top" xlink:title="Copyright (c) 2015&#45;2018, Linaro Limited All rights reserved. ">
<polygon fill="white" stroke="red" points="1464.84,-112.5 1464.84,-131.5 1541.84,-131.5 1541.84,-112.5 1464.84,-112.5"/>
<text text-anchor="middle" x="1503.34" y="-119.5" font-family="Helvetica,sans-Serif" font-size="10.00">traffic_mngr.h</text>
</a>
</g>
</g>
<!-- Node15&#45;&gt;Node133 -->
<g id="edge57" class="edge"><title>Node15&#45;&gt;Node133</title>
<path fill="none" stroke="midnightblue" d="M1233.67,-221.613C1262.16,-213.084 1301.45,-200.737 1335.34,-188 1356.21,-180.157 1360.65,-176.305 1381.34,-168 1414.86,-154.543 1454.14,-140.329 1478.88,-131.561"/>
<polygon fill="midnightblue" stroke="midnightblue" points="1232.66,-218.261 1224.07,-224.465 1234.66,-224.972 1232.66,-218.261"/>
</g>
<!-- Node129 -->
<g id="node38" class="node"><title>Node129</title>
<g id="a_node38"><a xlink:href="api_2queue_8h.html" target="_top" xlink:title="ODP queue. ">
<polygon fill="white" stroke="red" points="2065.84,-168.5 2065.84,-187.5 2116.84,-187.5 2116.84,-168.5 2065.84,-168.5"/>
<text text-anchor="middle" x="2091.34" y="-175.5" font-family="Helvetica,sans-Serif" font-size="10.00">queue.h</text>
</a>
</g>
</g>
<!-- Node15&#45;&gt;Node129 -->
<g id="edge43" class="edge"><title>Node15&#45;&gt;Node129</title>
<path fill="none" stroke="midnightblue" d="M1238.54,-233.302C1365.55,-233.607 1742.33,-230.566 2051.34,-188 2055.99,-187.359 2060.91,-186.45 2065.64,-185.454"/>
<polygon fill="midnightblue" stroke="midnightblue" points="1238.43,-229.802 1228.42,-233.269 1238.41,-236.802 1238.43,-229.802"/>
</g>
<!-- Node88 -->
<g id="node39" class="node"><title>Node88</title>
<g id="a_node39"><a xlink:href="api_2spec_2schedule_8h.html" target="_top" xlink:title="ODP schedule. ">
<polygon fill="white" stroke="red" points="1954.34,-112.5 1954.34,-131.5 2018.34,-131.5 2018.34,-112.5 1954.34,-112.5"/>
<text text-anchor="middle" x="1986.34" y="-119.5" font-family="Helvetica,sans-Serif" font-size="10.00">schedule.h</text>
</a>
</g>
</g>
<!-- Node15&#45;&gt;Node88 -->
<g id="edge54" class="edge"><title>Node15&#45;&gt;Node88</title>
<path fill="none" stroke="midnightblue" d="M1238.58,-232.247C1405.68,-229.189 1990.37,-216.484 2017.34,-188 2033.16,-171.295 2010.22,-145.024 1996.07,-131.569"/>
<polygon fill="midnightblue" stroke="midnightblue" points="1238.35,-228.75 1228.41,-232.43 1238.47,-235.749 1238.35,-228.75"/>
</g>
<!-- Node163 -->
<g id="node40" class="node"><title>Node163</title>
<g id="a_node40"><a xlink:href="spec_2chksum_8h.html" target="_top" xlink:title="ODP Hash functions. ">
<polygon fill="white" stroke="red" points="1474.84,-168.5 1474.84,-187.5 1533.84,-187.5 1533.84,-168.5 1474.84,-168.5"/>
<text text-anchor="middle" x="1504.34" y="-175.5" font-family="Helvetica,sans-Serif" font-size="10.00">chksum.h</text>
</a>
</g>
</g>
<!-- Node15&#45;&gt;Node163 -->
<g id="edge47" class="edge"><title>Node15&#45;&gt;Node163</title>
<path fill="none" stroke="midnightblue" d="M1238.91,-226.469C1292.74,-218.381 1385.96,-203.735 1465.34,-188 1468.34,-187.406 1471.46,-186.75 1474.57,-186.071"/>
<polygon fill="midnightblue" stroke="midnightblue" points="1238.06,-223.058 1228.69,-227.998 1239.1,-229.981 1238.06,-223.058"/>
</g>
<!-- Node165 -->
<g id="node41" class="node"><title>Node165</title>
<g id="a_node41"><a xlink:href="api_2spec_2cpu_8h.html" target="_top" xlink:title="ODP CPU API. ">
<polygon fill="white" stroke="red" points="1551.84,-168.5 1551.84,-187.5 1592.84,-187.5 1592.84,-168.5 1551.84,-168.5"/>
<text text-anchor="middle" x="1572.34" y="-175.5" font-family="Helvetica,sans-Serif" font-size="10.00">cpu.h</text>
</a>
</g>
</g>
<!-- Node15&#45;&gt;Node165 -->
<g id="edge48" class="edge"><title>Node15&#45;&gt;Node165</title>
<path fill="none" stroke="midnightblue" d="M1238.87,-229.579C1305.44,-223.94 1434.6,-210.967 1542.34,-188 1545.43,-187.342 1548.65,-186.521 1551.8,-185.643"/>
<polygon fill="midnightblue" stroke="midnightblue" points="1238.41,-226.105 1228.74,-230.422 1238.99,-233.081 1238.41,-226.105"/>
</g>
<!-- Node167 -->
<g id="node42" class="node"><title>Node167</title>
<g id="a_node42"><a xlink:href="spec_2feature_8h.html" target="_top" xlink:title="ODP features. ">
<polygon fill="white" stroke="red" points="1610.84,-168.5 1610.84,-187.5 1665.84,-187.5 1665.84,-168.5 1610.84,-168.5"/>
<text text-anchor="middle" x="1638.34" y="-175.5" font-family="Helvetica,sans-Serif" font-size="10.00">feature.h</text>
</a>
</g>
</g>
<!-- Node15&#45;&gt;Node167 -->
<g id="edge49" class="edge"><title>Node15&#45;&gt;Node167</title>
<path fill="none" stroke="midnightblue" d="M1238.62,-229.977C1313.67,-224.437 1470.45,-211.057 1601.34,-188 1604.34,-187.472 1607.45,-186.844 1610.54,-186.168"/>
<polygon fill="midnightblue" stroke="midnightblue" points="1238.31,-226.491 1228.59,-230.707 1238.81,-233.472 1238.31,-226.491"/>
</g>
<!-- Node169 -->
<g id="node43" class="node"><title>Node169</title>
<g id="a_node43"><a xlink:href="spec_2hash_8h.html" target="_top" xlink:title="ODP Hash functions. ">
<polygon fill="white" stroke="red" points="1684.34,-168.5 1684.34,-187.5 1730.34,-187.5 1730.34,-168.5 1684.34,-168.5"/>
<text text-anchor="middle" x="1707.34" y="-175.5" font-family="Helvetica,sans-Serif" font-size="10.00">hash.h</text>
</a>
</g>
</g>
<!-- Node15&#45;&gt;Node169 -->
<g id="edge50" class="edge"><title>Node15&#45;&gt;Node169</title>
<path fill="none" stroke="midnightblue" d="M1238.43,-231.413C1323.39,-227.795 1515.45,-216.891 1674.34,-188 1677.5,-187.426 1680.79,-186.694 1684.02,-185.896"/>
<polygon fill="midnightblue" stroke="midnightblue" points="1238.21,-227.919 1228.37,-231.829 1238.5,-234.913 1238.21,-227.919"/>
</g>
<!-- Node90 -->
<g id="node44" class="node"><title>Node90</title>
<g id="a_node44"><a xlink:href="api_2spec_2init_8h.html" target="_top" xlink:title="ODP initialization. ">
<polygon fill="white" stroke="red" points="1748.34,-168.5 1748.34,-187.5 1786.34,-187.5 1786.34,-168.5 1748.34,-168.5"/>
<text text-anchor="middle" x="1767.34" y="-175.5" font-family="Helvetica,sans-Serif" font-size="10.00">init.h</text>
</a>
</g>
</g>
<!-- Node15&#45;&gt;Node90 -->
<g id="edge51" class="edge"><title>Node15&#45;&gt;Node90</title>
<path fill="none" stroke="midnightblue" d="M1238.74,-232.754C1332.26,-231.489 1556,-224.534 1739.34,-188 1742.25,-187.421 1745.27,-186.643 1748.21,-185.785"/>
<polygon fill="midnightblue" stroke="midnightblue" points="1238.47,-229.256 1228.52,-232.876 1238.56,-236.256 1238.47,-229.256"/>
</g>
<!-- Node171 -->
<g id="node45" class="node"><title>Node171</title>
<g id="a_node45"><a xlink:href="api_2spec_2pool_8h.html" target="_top" xlink:title="ODP pool. ">
<polygon fill="white" stroke="red" points="1804.84,-168.5 1804.84,-187.5 1847.84,-187.5 1847.84,-168.5 1804.84,-168.5"/>
<text text-anchor="middle" x="1826.34" y="-175.5" font-family="Helvetica,sans-Serif" font-size="10.00">pool.h</text>
</a>
</g>
</g>
<!-- Node15&#45;&gt;Node171 -->
<g id="edge53" class="edge"><title>Node15&#45;&gt;Node171</title>
<path fill="none" stroke="midnightblue" d="M1238.59,-232.819C1338.61,-231.73 1589.48,-225.172 1795.34,-188 1798.43,-187.442 1801.65,-186.698 1804.8,-185.875"/>
<polygon fill="midnightblue" stroke="midnightblue" points="1238.51,-229.32 1228.54,-232.915 1238.57,-236.319 1238.51,-229.32"/>
</g>
<!-- Node173 -->
<g id="node46" class="node"><title>Node173</title>
<g id="a_node46"><a xlink:href="spec_2threshold_8h.html" target="_top" xlink:title="ODP threshold descriptor. ">
<polygon fill="white" stroke="red" points="1865.84,-168.5 1865.84,-187.5 1930.84,-187.5 1930.84,-168.5 1865.84,-168.5"/>
<text text-anchor="middle" x="1898.34" y="-175.5" font-family="Helvetica,sans-Serif" font-size="10.00">threshold.h</text>
</a>
</g>
</g>
<!-- Node15&#45;&gt;Node173 -->
<g id="edge55" class="edge"><title>Node15&#45;&gt;Node173</title>
<path fill="none" stroke="midnightblue" d="M1238.72,-232.175C1345.55,-229.713 1625.33,-220.433 1856.34,-188 1859.29,-187.585 1862.35,-187.08 1865.41,-186.524"/>
<polygon fill="midnightblue" stroke="midnightblue" points="1238.55,-228.678 1228.63,-232.399 1238.7,-235.676 1238.55,-228.678"/>
</g>
<!-- Node175 -->
<g id="node47" class="node"><title>Node175</title>
<g id="a_node47"><a xlink:href="api_2spec_2thrmask_8h.html" target="_top" xlink:title="ODP thread masks. ">
<polygon fill="white" stroke="red" points="1949.34,-168.5 1949.34,-187.5 2009.34,-187.5 2009.34,-168.5 1949.34,-168.5"/>
<text text-anchor="middle" x="1979.34" y="-175.5" font-family="Helvetica,sans-Serif" font-size="10.00">thrmask.h</text>
</a>
</g>
</g>
<!-- Node15&#45;&gt;Node175 -->
<g id="edge56" class="edge"><title>Node15&#45;&gt;Node175</title>
<path fill="none" stroke="midnightblue" d="M1238.96,-232.802C1355,-231.748 1675.59,-225.389 1939.34,-188 1942.58,-187.54 1945.95,-186.955 1949.3,-186.305"/>
<polygon fill="midnightblue" stroke="midnightblue" points="1238.67,-229.304 1228.7,-232.886 1238.72,-236.304 1238.67,-229.304"/>
</g>
<!-- Node176 -->
<g id="node48" class="node"><title>Node176</title>
<g id="a_node48"><a xlink:href="system__info_8h.html" target="_top" xlink:title="ODP system information. ">
<polygon fill="white" stroke="black" points="2144.34,-112.5 2144.34,-131.5 2222.34,-131.5 2222.34,-112.5 2144.34,-112.5"/>
<text text-anchor="middle" x="2183.34" y="-119.5" font-family="Helvetica,sans-Serif" font-size="10.00">system_info.h</text>
</a>
</g>
</g>
<!-- Node15&#45;&gt;Node176 -->
<g id="edge58" class="edge"><title>Node15&#45;&gt;Node176</title>
<path fill="none" stroke="midnightblue" d="M1238.81,-233.253C1415.56,-233.94 2062.62,-233.314 2141.34,-188 2163.23,-175.399 2175.62,-146.251 2180.66,-131.655"/>
<polygon fill="midnightblue" stroke="midnightblue" points="1238.59,-229.752 1228.57,-233.21 1238.56,-236.752 1238.59,-229.752"/>
</g>
<!-- Node177 -->
<g id="node49" class="node"><title>Node177</title>
<g id="a_node49"><a xlink:href="api_2time_8h.html" target="_top" xlink:title="ODP time. ">
<polygon fill="white" stroke="red" points="18.3407,-112.5 18.3407,-131.5 62.3407,-131.5 62.3407,-112.5 18.3407,-112.5"/>
<text text-anchor="middle" x="40.3407" y="-119.5" font-family="Helvetica,sans-Serif" font-size="10.00">time.h</text>
</a>
</g>
</g>
<!-- Node15&#45;&gt;Node177 -->
<g id="edge60" class="edge"><title>Node15&#45;&gt;Node177</title>
<path fill="none" stroke="midnightblue" d="M1150.22,-232.052C952.54,-227.692 155.956,-208.888 107.341,-188 79.3472,-175.972 56.3356,-146.555 46.0858,-131.776"/>
<polygon fill="midnightblue" stroke="midnightblue" points="1150.17,-235.551 1160.24,-232.272 1150.32,-228.553 1150.17,-235.551"/>
</g>
<!-- Node179 -->
<g id="node50" class="node"><title>Node179</title>
<g id="a_node50"><a xlink:href="api_2timer_8h.html" target="_top" xlink:title="ODP timer service. ">
<polygon fill="white" stroke="black" points="986.841,-112.5 986.841,-131.5 1033.84,-131.5 1033.84,-112.5 986.841,-112.5"/>
<text text-anchor="middle" x="1010.34" y="-119.5" font-family="Helvetica,sans-Serif" font-size="10.00">timer.h</text>
</a>
</g>
</g>
<!-- Node15&#45;&gt;Node179 -->
<g id="edge62" class="edge"><title>Node15&#45;&gt;Node179</title>
<path fill="none" stroke="midnightblue" d="M1157.18,-221.041C1135.41,-213.223 1107.85,-201.89 1085.34,-188 1058.36,-171.353 1031.42,-145.057 1018.4,-131.582"/>
<polygon fill="midnightblue" stroke="midnightblue" points="1156.14,-224.386 1166.74,-224.382 1158.45,-217.778 1156.14,-224.386"/>
</g>
<!-- Node17 -->
<g id="node14" class="node"><title>Node17</title>
<g id="a_node14"><a xlink:href="arch_2arm32-linux_2odp_2api_2abi_2atomic_8h_source.html" target="_top" xlink:title="atomic.h">
<polygon fill="white" stroke="black" points="368.341,-112.5 368.341,-131.5 422.341,-131.5 422.341,-112.5 368.341,-112.5"/>
<text text-anchor="middle" x="395.341" y="-119.5" font-family="Helvetica,sans-Serif" font-size="10.00">atomic.h</text>
</a>
</g>
</g>
<!-- Node16&#45;&gt;Node17 -->
<g id="edge13" class="edge"><title>Node16&#45;&gt;Node17</title>
<path fill="none" stroke="midnightblue" d="M180.504,-167.827C260.653,-150.059 282.853,-149.199 359.341,-132 362.232,-131.35 365.247,-130.643 368.247,-129.92"/>
<polygon fill="midnightblue" stroke="midnightblue" points="179.429,-164.481 170.435,-170.08 180.958,-171.312 179.429,-164.481"/>
</g>
<!-- Node18 -->
<g id="node15" class="node"><title>Node18</title>
<g id="a_node15"><a xlink:href="arch_2arm64-linux_2odp_2api_2abi_2atomic_8h_source.html" target="_top" xlink:title="atomic.h">
<polygon fill="white" stroke="black" points="440.341,-112.5 440.341,-131.5 494.341,-131.5 494.341,-112.5 440.341,-112.5"/>
<text text-anchor="middle" x="467.341" y="-119.5" font-family="Helvetica,sans-Serif" font-size="10.00">atomic.h</text>
</a>
</g>
</g>
<!-- Node16&#45;&gt;Node18 -->
<g id="edge14" class="edge"><title>Node16&#45;&gt;Node18</title>
<path fill="none" stroke="midnightblue" d="M180.38,-167.98C292.129,-146.652 323.458,-153.133 431.341,-132 434.249,-131.43 437.274,-130.775 440.281,-130.083"/>
<polygon fill="midnightblue" stroke="midnightblue" points="179.55,-164.576 170.4,-169.917 180.884,-171.448 179.55,-164.576"/>
</g>
<!-- Node19 -->
<g id="node16" class="node"><title>Node19</title>
<g id="a_node16"><a xlink:href="arch_2default-linux_2odp_2api_2abi_2atomic_8h_source.html" target="_top" xlink:title="atomic.h">
<polygon fill="white" stroke="black" points="80.3407,-112.5 80.3407,-131.5 134.341,-131.5 134.341,-112.5 80.3407,-112.5"/>
<text text-anchor="middle" x="107.341" y="-119.5" font-family="Helvetica,sans-Serif" font-size="10.00">atomic.h</text>
</a>
</g>
</g>
<!-- Node16&#45;&gt;Node19 -->
<g id="edge15" class="edge"><title>Node16&#45;&gt;Node19</title>
<path fill="none" stroke="midnightblue" d="M131.718,-159.566C125.524,-150.275 118.173,-139.248 113.175,-131.751"/>
<polygon fill="midnightblue" stroke="midnightblue" points="128.937,-161.704 137.396,-168.083 134.761,-157.821 128.937,-161.704"/>
</g>
<!-- Node20 -->
<g id="node17" class="node"><title>Node20</title>
<g id="a_node17"><a xlink:href="arch_2mips64-linux_2odp_2api_2abi_2atomic_8h_source.html" target="_top" xlink:title="atomic.h">
<polygon fill="white" stroke="black" points="152.341,-112.5 152.341,-131.5 206.341,-131.5 206.341,-112.5 152.341,-112.5"/>
<text text-anchor="middle" x="179.341" y="-119.5" font-family="Helvetica,sans-Serif" font-size="10.00">atomic.h</text>
</a>
</g>
</g>
<!-- Node16&#45;&gt;Node20 -->
<g id="edge16" class="edge"><title>Node16&#45;&gt;Node20</title>
<path fill="none" stroke="midnightblue" d="M154.964,-159.566C161.158,-150.275 168.508,-139.248 173.507,-131.751"/>
<polygon fill="midnightblue" stroke="midnightblue" points="151.92,-157.821 149.285,-168.083 157.745,-161.704 151.92,-157.821"/>
</g>
<!-- Node21 -->
<g id="node18" class="node"><title>Node21</title>
<g id="a_node18"><a xlink:href="arch_2power64-linux_2odp_2api_2abi_2atomic_8h_source.html" target="_top" xlink:title="atomic.h">
<polygon fill="white" stroke="black" points="224.341,-112.5 224.341,-131.5 278.341,-131.5 278.341,-112.5 224.341,-112.5"/>
<text text-anchor="middle" x="251.341" y="-119.5" font-family="Helvetica,sans-Serif" font-size="10.00">atomic.h</text>
</a>
</g>
</g>
<!-- Node16&#45;&gt;Node21 -->
<g id="edge17" class="edge"><title>Node16&#45;&gt;Node21</title>
<path fill="none" stroke="midnightblue" d="M169.888,-163.726C189.886,-153.727 216.728,-140.307 234.032,-131.655"/>
<polygon fill="midnightblue" stroke="midnightblue" points="168.072,-160.721 160.693,-168.324 171.202,-166.982 168.072,-160.721"/>
</g>
<!-- Node22 -->
<g id="node19" class="node"><title>Node22</title>
<g id="a_node19"><a xlink:href="arch_2x86__32-linux_2odp_2api_2abi_2atomic_8h_source.html" target="_top" xlink:title="atomic.h">
<polygon fill="white" stroke="black" points="296.341,-112.5 296.341,-131.5 350.341,-131.5 350.341,-112.5 296.341,-112.5"/>
<text text-anchor="middle" x="323.341" y="-119.5" font-family="Helvetica,sans-Serif" font-size="10.00">atomic.h</text>
</a>
</g>
</g>
<!-- Node16&#45;&gt;Node22 -->
<g id="edge18" class="edge"><title>Node16&#45;&gt;Node22</title>
<path fill="none" stroke="midnightblue" d="M180.391,-165.885C214.892,-155.534 265.505,-140.351 296.335,-131.102"/>
<polygon fill="midnightblue" stroke="midnightblue" points="179.251,-162.573 170.679,-168.799 181.263,-169.277 179.251,-162.573"/>
</g>
<!-- Node33&#45;&gt;Node13 -->
<g id="edge30" class="edge"><title>Node33&#45;&gt;Node13</title>
<path fill="none" stroke="midnightblue" d="M1148.59,-108.906C1175.66,-98.7536 1213.66,-84.5063 1237.63,-75.5164"/>
<polygon fill="midnightblue" stroke="midnightblue" points="1147.29,-105.655 1139.16,-112.444 1149.75,-112.209 1147.29,-105.655"/>
</g>
<!-- Node162&#45;&gt;Node13 -->
<g id="edge32" class="edge"><title>Node162&#45;&gt;Node13</title>
<path fill="none" stroke="midnightblue" d="M1205.65,-106.38C1219.2,-96.6204 1236.58,-84.1057 1248.07,-75.8339"/>
<polygon fill="midnightblue" stroke="midnightblue" points="1203.46,-103.641 1197.39,-112.324 1207.55,-109.321 1203.46,-103.641"/>
</g>
<!-- Node119&#45;&gt;Node13 -->
<g id="edge34" class="edge"><title>Node119&#45;&gt;Node13</title>
<path fill="none" stroke="midnightblue" d="M1372.87,-108.906C1345.6,-98.7536 1307.35,-84.5063 1283.21,-75.5164"/>
<polygon fill="midnightblue" stroke="midnightblue" points="1371.77,-112.233 1382.36,-112.444 1374.22,-105.674 1371.77,-112.233"/>
</g>
<!-- Node125&#45;&gt;Node13 -->
<g id="edge36" class="edge"><title>Node125&#45;&gt;Node13</title>
<path fill="none" stroke="midnightblue" d="M2064.2,-112.587C2062.9,-112.374 2061.61,-112.177 2060.34,-112 1761.72,-70.2978 1395.28,-66.9534 1289.93,-66.9082"/>
<polygon fill="midnightblue" stroke="midnightblue" points="2063.73,-116.06 2074.2,-114.469 2065.02,-109.181 2063.73,-116.06"/>
</g>
<!-- Node121&#45;&gt;Node13 -->
<g id="edge39" class="edge"><title>Node121&#45;&gt;Node13</title>
<path fill="none" stroke="midnightblue" d="M1291.38,-162.577C1308.2,-150.082 1326.58,-131.06 1317.34,-112 1309.31,-95.4349 1291.9,-83.1278 1278.42,-75.6099"/>
<polygon fill="midnightblue" stroke="midnightblue" points="1289.1,-159.902 1282.88,-168.482 1293.09,-165.651 1289.1,-159.902"/>
</g>
<!-- Node121&#45;&gt;Node135 -->
<g id="edge38" class="edge"><title>Node121&#45;&gt;Node135</title>
<path fill="none" stroke="midnightblue" d="M1268.34,-157.805C1268.34,-148.91 1268.34,-138.78 1268.34,-131.751"/>
<polygon fill="midnightblue" stroke="midnightblue" points="1264.84,-158.083 1268.34,-168.083 1271.84,-158.083 1264.84,-158.083"/>
</g>
<!-- Node131&#45;&gt;Node13 -->
<g id="edge42" class="edge"><title>Node131&#45;&gt;Node13</title>
<path fill="none" stroke="midnightblue" d="M1466.93,-167.231C1499.62,-158.92 1540.37,-146.11 1550.34,-132 1555.47,-124.74 1556.12,-118.75 1550.34,-112 1517.03,-73.116 1357.25,-67.5508 1290.13,-66.9544"/>
<polygon fill="midnightblue" stroke="midnightblue" points="1465.96,-163.867 1457.09,-169.663 1467.64,-170.662 1465.96,-163.867"/>
</g>
<!-- Node131&#45;&gt;Node133 -->
<g id="edge41" class="edge"><title>Node131&#45;&gt;Node133</title>
<path fill="none" stroke="midnightblue" d="M1444.64,-162.622C1459.26,-152.757 1478.17,-139.992 1490.52,-131.655"/>
<polygon fill="midnightblue" stroke="midnightblue" points="1442.52,-159.828 1436.19,-168.324 1446.44,-165.63 1442.52,-159.828"/>
</g>
<!-- Node129&#45;&gt;Node13 -->
<g id="edge46" class="edge"><title>Node129&#45;&gt;Node13</title>
<path fill="none" stroke="midnightblue" d="M2080.22,-160.011C2068.96,-144.436 2050.01,-122.282 2027.34,-112 1959.32,-81.141 1423.1,-69.8321 1290.11,-67.4871"/>
<polygon fill="midnightblue" stroke="midnightblue" points="2077.37,-162.041 2085.93,-168.281 2083.13,-158.064 2077.37,-162.041"/>
</g>
<!-- Node129&#45;&gt;Node125 -->
<g id="edge44" class="edge"><title>Node129&#45;&gt;Node125</title>
<path fill="none" stroke="midnightblue" d="M2094.49,-158.101C2095.98,-149.136 2097.7,-138.858 2098.88,-131.751"/>
<polygon fill="midnightblue" stroke="midnightblue" points="2091.02,-157.644 2092.83,-168.083 2097.92,-158.794 2091.02,-157.644"/>
</g>
<!-- Node129&#45;&gt;Node88 -->
<g id="edge45" class="edge"><title>Node129&#45;&gt;Node88</title>
<path fill="none" stroke="midnightblue" d="M2065.53,-163.726C2046.09,-153.727 2019.99,-140.307 2003.17,-131.655"/>
<polygon fill="midnightblue" stroke="midnightblue" points="2063.98,-166.863 2074.47,-168.324 2067.18,-160.638 2063.98,-166.863"/>
</g>
<!-- Node176&#45;&gt;Node13 -->
<g id="edge59" class="edge"><title>Node176&#45;&gt;Node13</title>
<path fill="none" stroke="midnightblue" d="M2134.17,-112.027C1797.44,-72.6538 1400.14,-67.7133 1289.92,-67.0874"/>
<polygon fill="midnightblue" stroke="midnightblue" points="2133.77,-115.504 2144.11,-113.202 2134.59,-108.553 2133.77,-115.504"/>
</g>
<!-- Node177&#45;&gt;Node13 -->
<g id="edge61" class="edge"><title>Node177&#45;&gt;Node13</title>
<path fill="none" stroke="midnightblue" d="M72.7608,-112.246C325.407,-74.1434 1072.53,-68.0348 1230.72,-67.1401"/>
<polygon fill="midnightblue" stroke="midnightblue" points="71.8794,-108.841 62.5426,-113.849 72.9643,-115.757 71.8794,-108.841"/>
</g>
<!-- Node179&#45;&gt;Node13 -->
<g id="edge63" class="edge"><title>Node179&#45;&gt;Node13</title>
<path fill="none" stroke="midnightblue" d="M1043.92,-113.001C1045.42,-112.66 1046.89,-112.325 1048.34,-112 1113.32,-97.4107 1189.79,-81.4838 1230.8,-73.0432"/>
<polygon fill="midnightblue" stroke="midnightblue" points="1042.99,-109.626 1034.04,-115.297 1044.57,-116.444 1042.99,-109.626"/>
</g>
</g>
</svg>
