<?xml version="1.0" encoding="UTF-8" standalone="no"?>
<!DOCTYPE svg PUBLIC "-//W3C//DTD SVG 1.1//EN"
 "http://www.w3.org/Graphics/SVG/1.1/DTD/svg11.dtd">
<!-- Generated by graphviz version 2.36.0 (20140111.2315)
 -->
<!-- Title: cpumask.h Pages: 1 -->
<svg width="725pt" height="476pt"
 viewBox="0.00 0.00 725.00 476.00" xmlns="http://www.w3.org/2000/svg" xmlns:xlink="http://www.w3.org/1999/xlink">
<g id="graph0" class="graph" transform="scale(1 1) rotate(0) translate(4 472)">
<title>cpumask.h</title>
<polygon fill="white" stroke="none" points="-4,4 -4,-472 721,-472 721,4 -4,4"/>
<!-- Node3 -->
<g id="node1" class="node"><title>Node3</title>
<polygon fill="#bfbfbf" stroke="black" points="523.5,-448.5 523.5,-467.5 588.5,-467.5 588.5,-448.5 523.5,-448.5"/>
<text text-anchor="middle" x="556" y="-455.5" font-family="Helvetica,sans-Serif" font-size="10.00">cpumask.h</text>
</g>
<!-- Node4 -->
<g id="node2" class="node"><title>Node4</title>
<g id="a_node2"><a xlink:href="api_2cpumask_8h.html" target="_top" xlink:title="ODP CPU masks and enumeration. ">
<polygon fill="white" stroke="black" points="523.5,-392.5 523.5,-411.5 588.5,-411.5 588.5,-392.5 523.5,-392.5"/>
<text text-anchor="middle" x="556" y="-399.5" font-family="Helvetica,sans-Serif" font-size="10.00">cpumask.h</text>
</a>
</g>
</g>
<!-- Node3&#45;&gt;Node4 -->
<g id="edge1" class="edge"><title>Node3&#45;&gt;Node4</title>
<path fill="none" stroke="midnightblue" d="M556,-437.805C556,-428.91 556,-418.78 556,-411.751"/>
<polygon fill="midnightblue" stroke="midnightblue" points="552.5,-438.083 556,-448.083 559.5,-438.083 552.5,-438.083"/>
</g>
<!-- Node5 -->
<g id="node3" class="node"><title>Node5</title>
<g id="a_node3"><a xlink:href="api_2abi-default_2thrmask_8h.html" target="_top" xlink:title="ODP thread masks. ">
<polygon fill="white" stroke="black" points="273,-336.5 273,-355.5 333,-355.5 333,-336.5 273,-336.5"/>
<text text-anchor="middle" x="303" y="-343.5" font-family="Helvetica,sans-Serif" font-size="10.00">thrmask.h</text>
</a>
</g>
</g>
<!-- Node4&#45;&gt;Node5 -->
<g id="edge2" class="edge"><title>Node4&#45;&gt;Node5</title>
<path fill="none" stroke="midnightblue" d="M513.373,-391.902C462.245,-380.989 377.845,-362.975 333.069,-353.418"/>
<polygon fill="midnightblue" stroke="midnightblue" points="512.932,-395.386 523.443,-394.051 514.394,-388.541 512.932,-395.386"/>
</g>
<!-- Node16 -->
<g id="node14" class="node"><title>Node16</title>
<g id="a_node14"><a xlink:href="odp__api_8h.html" target="_top" xlink:title="The OpenDataPlane API. ">
<polygon fill="white" stroke="black" points="526.5,-56.5 526.5,-75.5 585.5,-75.5 585.5,-56.5 526.5,-56.5"/>
<text text-anchor="middle" x="556" y="-63.5" font-family="Helvetica,sans-Serif" font-size="10.00">odp_api.h</text>
</a>
</g>
</g>
<!-- Node4&#45;&gt;Node16 -->
<g id="edge22" class="edge"><title>Node4&#45;&gt;Node16</title>
<path fill="none" stroke="midnightblue" d="M556,-382.251C556,-360.357 556,-323.052 556,-291 556,-291 556,-291 556,-177 556,-139.188 556,-94.0636 556,-75.5578"/>
<polygon fill="midnightblue" stroke="midnightblue" points="552.5,-382.442 556,-392.442 559.5,-382.442 552.5,-382.442"/>
</g>
<!-- Node18 -->
<g id="node16" class="node"><title>Node18</title>
<g id="a_node16"><a xlink:href="api_2spec_2init_8h.html" target="_top" xlink:title="ODP initialization. ">
<polygon fill="white" stroke="black" points="584,-336.5 584,-355.5 622,-355.5 622,-336.5 584,-336.5"/>
<text text-anchor="middle" x="603" y="-343.5" font-family="Helvetica,sans-Serif" font-size="10.00">init.h</text>
</a>
</g>
</g>
<!-- Node4&#45;&gt;Node18 -->
<g id="edge16" class="edge"><title>Node4&#45;&gt;Node18</title>
<path fill="none" stroke="midnightblue" d="M570.421,-384.431C578.658,-374.967 588.654,-363.483 595.383,-355.751"/>
<polygon fill="midnightblue" stroke="midnightblue" points="567.686,-382.242 563.761,-392.083 572.966,-386.838 567.686,-382.242"/>
</g>
<!-- Node6 -->
<g id="node4" class="node"><title>Node6</title>
<g id="a_node4"><a xlink:href="arch_2arm32-linux_2odp_2api_2abi_2thrmask_8h_source.html" target="_top" xlink:title="thrmask.h">
<polygon fill="white" stroke="black" points="0,-280.5 0,-299.5 60,-299.5 60,-280.5 0,-280.5"/>
<text text-anchor="middle" x="30" y="-287.5" font-family="Helvetica,sans-Serif" font-size="10.00">thrmask.h</text>
</a>
</g>
</g>
<!-- Node5&#45;&gt;Node6 -->
<g id="edge3" class="edge"><title>Node5&#45;&gt;Node6</title>
<path fill="none" stroke="midnightblue" d="M262.615,-337.7C215.902,-329.149 136.731,-314.323 69,-300 66.1447,-299.396 63.1765,-298.748 60.2093,-298.087"/>
<polygon fill="midnightblue" stroke="midnightblue" points="262.171,-341.177 272.637,-339.53 263.429,-334.291 262.171,-341.177"/>
</g>
<!-- Node7 -->
<g id="node5" class="node"><title>Node7</title>
<g id="a_node5"><a xlink:href="arch_2arm64-linux_2odp_2api_2abi_2thrmask_8h_source.html" target="_top" xlink:title="thrmask.h">
<polygon fill="white" stroke="black" points="78,-280.5 78,-299.5 138,-299.5 138,-280.5 78,-280.5"/>
<text text-anchor="middle" x="108" y="-287.5" font-family="Helvetica,sans-Serif" font-size="10.00">thrmask.h</text>
</a>
</g>
</g>
<!-- Node5&#45;&gt;Node7 -->
<g id="edge4" class="edge"><title>Node5&#45;&gt;Node7</title>
<path fill="none" stroke="midnightblue" d="M262.99,-333.92C225.915,-323.653 171.585,-308.608 138.076,-299.329"/>
<polygon fill="midnightblue" stroke="midnightblue" points="262.387,-337.385 272.959,-336.681 264.255,-330.639 262.387,-337.385"/>
</g>
<!-- Node8 -->
<g id="node6" class="node"><title>Node8</title>
<g id="a_node6"><a xlink:href="arch_2default-linux_2odp_2api_2abi_2thrmask_8h_source.html" target="_top" xlink:title="thrmask.h">
<polygon fill="white" stroke="black" points="156,-280.5 156,-299.5 216,-299.5 216,-280.5 156,-280.5"/>
<text text-anchor="middle" x="186" y="-287.5" font-family="Helvetica,sans-Serif" font-size="10.00">thrmask.h</text>
</a>
</g>
</g>
<!-- Node5&#45;&gt;Node8 -->
<g id="edge5" class="edge"><title>Node5&#45;&gt;Node8</title>
<path fill="none" stroke="midnightblue" d="M275.336,-332.232C253.451,-322.131 223.503,-308.309 204.452,-299.516"/>
<polygon fill="midnightblue" stroke="midnightblue" points="273.915,-335.431 284.461,-336.444 276.848,-329.075 273.915,-335.431"/>
</g>
<!-- Node9 -->
<g id="node7" class="node"><title>Node9</title>
<g id="a_node7"><a xlink:href="arch_2mips64-linux_2odp_2api_2abi_2thrmask_8h_source.html" target="_top" xlink:title="thrmask.h">
<polygon fill="white" stroke="black" points="234,-280.5 234,-299.5 294,-299.5 294,-280.5 234,-280.5"/>
<text text-anchor="middle" x="264" y="-287.5" font-family="Helvetica,sans-Serif" font-size="10.00">thrmask.h</text>
</a>
</g>
</g>
<!-- Node5&#45;&gt;Node9 -->
<g id="edge6" class="edge"><title>Node5&#45;&gt;Node9</title>
<path fill="none" stroke="midnightblue" d="M290.618,-327.855C283.865,-318.505 275.791,-307.327 270.32,-299.751"/>
<polygon fill="midnightblue" stroke="midnightblue" points="287.868,-330.025 296.56,-336.083 293.542,-325.927 287.868,-330.025"/>
</g>
<!-- Node10 -->
<g id="node8" class="node"><title>Node10</title>
<g id="a_node8"><a xlink:href="arch_2power64-linux_2odp_2api_2abi_2thrmask_8h_source.html" target="_top" xlink:title="thrmask.h">
<polygon fill="white" stroke="black" points="312,-280.5 312,-299.5 372,-299.5 372,-280.5 312,-280.5"/>
<text text-anchor="middle" x="342" y="-287.5" font-family="Helvetica,sans-Serif" font-size="10.00">thrmask.h</text>
</a>
</g>
</g>
<!-- Node5&#45;&gt;Node10 -->
<g id="edge7" class="edge"><title>Node5&#45;&gt;Node10</title>
<path fill="none" stroke="midnightblue" d="M315.382,-327.855C322.135,-318.505 330.209,-307.327 335.68,-299.751"/>
<polygon fill="midnightblue" stroke="midnightblue" points="312.458,-325.927 309.44,-336.083 318.132,-330.025 312.458,-325.927"/>
</g>
<!-- Node11 -->
<g id="node9" class="node"><title>Node11</title>
<g id="a_node9"><a xlink:href="arch_2x86__32-linux_2odp_2api_2abi_2thrmask_8h_source.html" target="_top" xlink:title="thrmask.h">
<polygon fill="white" stroke="black" points="390,-280.5 390,-299.5 450,-299.5 450,-280.5 390,-280.5"/>
<text text-anchor="middle" x="420" y="-287.5" font-family="Helvetica,sans-Serif" font-size="10.00">thrmask.h</text>
</a>
</g>
</g>
<!-- Node5&#45;&gt;Node11 -->
<g id="edge8" class="edge"><title>Node5&#45;&gt;Node11</title>
<path fill="none" stroke="midnightblue" d="M330.664,-332.232C352.549,-322.131 382.497,-308.309 401.548,-299.516"/>
<polygon fill="midnightblue" stroke="midnightblue" points="329.152,-329.075 321.539,-336.444 332.085,-335.431 329.152,-329.075"/>
</g>
<!-- Node12 -->
<g id="node10" class="node"><title>Node12</title>
<g id="a_node10"><a xlink:href="arch_2x86__64-linux_2odp_2api_2abi_2thrmask_8h_source.html" target="_top" xlink:title="thrmask.h">
<polygon fill="white" stroke="black" points="468,-280.5 468,-299.5 528,-299.5 528,-280.5 468,-280.5"/>
<text text-anchor="middle" x="498" y="-287.5" font-family="Helvetica,sans-Serif" font-size="10.00">thrmask.h</text>
</a>
</g>
</g>
<!-- Node5&#45;&gt;Node12 -->
<g id="edge9" class="edge"><title>Node5&#45;&gt;Node12</title>
<path fill="none" stroke="midnightblue" d="M343.01,-333.92C380.085,-323.653 434.415,-308.608 467.924,-299.329"/>
<polygon fill="midnightblue" stroke="midnightblue" points="341.745,-330.639 333.041,-336.681 343.613,-337.385 341.745,-330.639"/>
</g>
<!-- Node13 -->
<g id="node11" class="node"><title>Node13</title>
<g id="a_node11"><a xlink:href="api_2thrmask_8h.html" target="_top" xlink:title="ODP thread masks. ">
<polygon fill="white" stroke="black" points="468,-224.5 468,-243.5 528,-243.5 528,-224.5 468,-224.5"/>
<text text-anchor="middle" x="498" y="-231.5" font-family="Helvetica,sans-Serif" font-size="10.00">thrmask.h</text>
</a>
</g>
</g>
<!-- Node12&#45;&gt;Node13 -->
<g id="edge10" class="edge"><title>Node12&#45;&gt;Node13</title>
<path fill="none" stroke="midnightblue" d="M498,-269.805C498,-260.91 498,-250.78 498,-243.751"/>
<polygon fill="midnightblue" stroke="midnightblue" points="494.5,-270.083 498,-280.083 501.5,-270.083 494.5,-270.083"/>
</g>
<!-- Node14 -->
<g id="node12" class="node"><title>Node14</title>
<g id="a_node12"><a xlink:href="api_2spec_2schedule_8h.html" target="_top" xlink:title="ODP schedule. ">
<polygon fill="white" stroke="black" points="426,-168.5 426,-187.5 490,-187.5 490,-168.5 426,-168.5"/>
<text text-anchor="middle" x="458" y="-175.5" font-family="Helvetica,sans-Serif" font-size="10.00">schedule.h</text>
</a>
</g>
</g>
<!-- Node13&#45;&gt;Node14 -->
<g id="edge11" class="edge"><title>Node13&#45;&gt;Node14</title>
<path fill="none" stroke="midnightblue" d="M485.3,-215.855C478.374,-206.505 470.094,-195.327 464.482,-187.751"/>
<polygon fill="midnightblue" stroke="midnightblue" points="482.63,-218.131 491.395,-224.083 488.255,-213.964 482.63,-218.131"/>
</g>
<!-- Node13&#45;&gt;Node16 -->
<g id="edge15" class="edge"><title>Node13&#45;&gt;Node16</title>
<path fill="none" stroke="midnightblue" d="M504.501,-214.395C517.012,-178.585 544.001,-101.342 553.006,-75.5681"/>
<polygon fill="midnightblue" stroke="midnightblue" points="501.113,-213.48 501.118,-224.075 507.721,-215.789 501.113,-213.48"/>
</g>
<!-- Node15 -->
<g id="node13" class="node"><title>Node15</title>
<g id="a_node13"><a xlink:href="api_2schedule_8h.html" target="_top" xlink:title="ODP schedule. ">
<polygon fill="white" stroke="black" points="426,-112.5 426,-131.5 490,-131.5 490,-112.5 426,-112.5"/>
<text text-anchor="middle" x="458" y="-119.5" font-family="Helvetica,sans-Serif" font-size="10.00">schedule.h</text>
</a>
</g>
</g>
<!-- Node14&#45;&gt;Node15 -->
<g id="edge12" class="edge"><title>Node14&#45;&gt;Node15</title>
<path fill="none" stroke="midnightblue" d="M458,-157.805C458,-148.91 458,-138.78 458,-131.751"/>
<polygon fill="midnightblue" stroke="midnightblue" points="454.5,-158.083 458,-168.083 461.5,-158.083 454.5,-158.083"/>
</g>
<!-- Node15&#45;&gt;Node16 -->
<g id="edge13" class="edge"><title>Node15&#45;&gt;Node16</title>
<path fill="none" stroke="midnightblue" d="M482.586,-107.453C500.678,-97.4835 524.735,-84.2279 540.294,-75.6545"/>
<polygon fill="midnightblue" stroke="midnightblue" points="480.815,-104.432 473.745,-112.324 484.193,-110.563 480.815,-104.432"/>
</g>
<!-- Node17 -->
<g id="node15" class="node"><title>Node17</title>
<g id="a_node15"><a xlink:href="odp_8h.html" target="_top" xlink:title="WARNING: THIS FILE IS DEPRECATED AND WILL BE REMOVED!!! ODP APPLICATIONS SHOULD NOW INCLUDE odp_api...">
<polygon fill="white" stroke="black" points="535.5,-0.5 535.5,-19.5 576.5,-19.5 576.5,-0.5 535.5,-0.5"/>
<text text-anchor="middle" x="556" y="-7.5" font-family="Helvetica,sans-Serif" font-size="10.00">odp.h</text>
</a>
</g>
</g>
<!-- Node16&#45;&gt;Node17 -->
<g id="edge14" class="edge"><title>Node16&#45;&gt;Node17</title>
<path fill="none" stroke="midnightblue" d="M556,-45.8045C556,-36.9102 556,-26.7798 556,-19.7511"/>
<polygon fill="midnightblue" stroke="midnightblue" points="552.5,-46.083 556,-56.083 559.5,-46.083 552.5,-46.083"/>
</g>
<!-- Node19 -->
<g id="node17" class="node"><title>Node19</title>
<g id="a_node17"><a xlink:href="api_2init_8h.html" target="_top" xlink:title="ODP initialization. ">
<polygon fill="white" stroke="black" points="584,-224.5 584,-243.5 622,-243.5 622,-224.5 584,-224.5"/>
<text text-anchor="middle" x="603" y="-231.5" font-family="Helvetica,sans-Serif" font-size="10.00">init.h</text>
</a>
</g>
</g>
<!-- Node18&#45;&gt;Node19 -->
<g id="edge17" class="edge"><title>Node18&#45;&gt;Node19</title>
<path fill="none" stroke="midnightblue" d="M603,-326.348C603,-302.254 603,-261.308 603,-243.591"/>
<polygon fill="midnightblue" stroke="midnightblue" points="599.5,-326.368 603,-336.368 606.5,-326.369 599.5,-326.368"/>
</g>
<!-- Node19&#45;&gt;Node16 -->
<g id="edge21" class="edge"><title>Node19&#45;&gt;Node16</title>
<path fill="none" stroke="midnightblue" d="M598.227,-214.707C591.981,-190.962 580.584,-148.27 570,-112 566.287,-99.2761 561.667,-84.6356 558.775,-75.5994"/>
<polygon fill="midnightblue" stroke="midnightblue" points="594.862,-215.676 600.783,-224.462 601.634,-213.902 594.862,-215.676"/>
</g>
<!-- Node20 -->
<g id="node18" class="node"><title>Node20</title>
<g id="a_node18"><a xlink:href="api_2spec_2shared__memory_8h.html" target="_top" xlink:title="ODP shared memory. ">
<polygon fill="white" stroke="black" points="622.5,-168.5 622.5,-187.5 717.5,-187.5 717.5,-168.5 622.5,-168.5"/>
<text text-anchor="middle" x="670" y="-175.5" font-family="Helvetica,sans-Serif" font-size="10.00">shared_memory.h</text>
</a>
</g>
</g>
<!-- Node19&#45;&gt;Node20 -->
<g id="edge18" class="edge"><title>Node19&#45;&gt;Node20</title>
<path fill="none" stroke="midnightblue" d="M621.835,-217.82C633.838,-208.145 648.972,-195.948 659.039,-187.834"/>
<polygon fill="midnightblue" stroke="midnightblue" points="619.354,-215.324 613.765,-224.324 623.747,-220.774 619.354,-215.324"/>
</g>
<!-- Node21 -->
<g id="node19" class="node"><title>Node21</title>
<g id="a_node19"><a xlink:href="api_2shared__memory_8h.html" target="_top" xlink:title="ODP shared memory. ">
<polygon fill="white" stroke="black" points="622.5,-112.5 622.5,-131.5 717.5,-131.5 717.5,-112.5 622.5,-112.5"/>
<text text-anchor="middle" x="670" y="-119.5" font-family="Helvetica,sans-Serif" font-size="10.00">shared_memory.h</text>
</a>
</g>
</g>
<!-- Node20&#45;&gt;Node21 -->
<g id="edge19" class="edge"><title>Node20&#45;&gt;Node21</title>
<path fill="none" stroke="midnightblue" d="M670,-157.805C670,-148.91 670,-138.78 670,-131.751"/>
<polygon fill="midnightblue" stroke="midnightblue" points="666.5,-158.083 670,-168.083 673.5,-158.083 666.5,-158.083"/>
</g>
<!-- Node21&#45;&gt;Node16 -->
<g id="edge20" class="edge"><title>Node21&#45;&gt;Node16</title>
<path fill="none" stroke="midnightblue" d="M642.758,-108.096C621.46,-98.0073 592.458,-84.2697 573.979,-75.5164"/>
<polygon fill="midnightblue" stroke="midnightblue" points="641.401,-111.326 651.936,-112.444 644.397,-105 641.401,-111.326"/>
</g>
</g>
</svg>
