<?xml version="1.0" encoding="UTF-8" standalone="no"?>
<!DOCTYPE svg PUBLIC "-//W3C//DTD SVG 1.1//EN"
 "http://www.w3.org/Graphics/SVG/1.1/DTD/svg11.dtd">
<!-- Generated by graphviz version 2.36.0 (20140111.2315)
 -->
<!-- Title: schedule_types.h Pages: 1 -->
<svg width="1112pt" height="756pt"
 viewBox="0.00 0.00 1112.36 756.00" xmlns="http://www.w3.org/2000/svg" xmlns:xlink="http://www.w3.org/1999/xlink">
<g id="graph0" class="graph" transform="scale(1 1) rotate(0) translate(4 752)">
<title>schedule_types.h</title>
<polygon fill="white" stroke="none" points="-4,4 -4,-752 1108.36,-752 1108.36,4 -4,4"/>
<!-- Node1 -->
<g id="node1" class="node"><title>Node1</title>
<polygon fill="#bfbfbf" stroke="black" points="332.5,-728.5 332.5,-747.5 425.5,-747.5 425.5,-728.5 332.5,-728.5"/>
<text text-anchor="middle" x="379" y="-735.5" font-family="Helvetica,sans-Serif" font-size="10.00">schedule_types.h</text>
</g>
<!-- Node2 -->
<g id="node2" class="node"><title>Node2</title>
<g id="a_node2"><a xlink:href="arch_2arm32-linux_2odp_2api_2abi_2schedule__types_8h_source.html" target="_top" xlink:title="schedule_types.h">
<polygon fill="white" stroke="black" points="-0.5,-672.5 -0.5,-691.5 92.5,-691.5 92.5,-672.5 -0.5,-672.5"/>
<text text-anchor="middle" x="46" y="-679.5" font-family="Helvetica,sans-Serif" font-size="10.00">schedule_types.h</text>
</a>
</g>
</g>
<!-- Node1&#45;&gt;Node2 -->
<g id="edge1" class="edge"><title>Node1&#45;&gt;Node2</title>
<path fill="none" stroke="midnightblue" d="M322.311,-727.807C257.558,-717.307 152.814,-700.321 92.6052,-690.558"/>
<polygon fill="midnightblue" stroke="midnightblue" points="321.916,-731.289 332.347,-729.435 323.036,-724.379 321.916,-731.289"/>
</g>
<!-- Node3 -->
<g id="node3" class="node"><title>Node3</title>
<g id="a_node3"><a xlink:href="arch_2arm64-linux_2odp_2api_2abi_2schedule__types_8h_source.html" target="_top" xlink:title="schedule_types.h">
<polygon fill="white" stroke="black" points="110.5,-672.5 110.5,-691.5 203.5,-691.5 203.5,-672.5 110.5,-672.5"/>
<text text-anchor="middle" x="157" y="-679.5" font-family="Helvetica,sans-Serif" font-size="10.00">schedule_types.h</text>
</a>
</g>
</g>
<!-- Node1&#45;&gt;Node3 -->
<g id="edge2" class="edge"><title>Node1&#45;&gt;Node3</title>
<path fill="none" stroke="midnightblue" d="M333.875,-726.024C291.94,-715.823 230.348,-700.841 192.012,-691.516"/>
<polygon fill="midnightblue" stroke="midnightblue" points="333.28,-729.481 343.823,-728.444 334.934,-722.679 333.28,-729.481"/>
</g>
<!-- Node4 -->
<g id="node4" class="node"><title>Node4</title>
<g id="a_node4"><a xlink:href="arch_2default-linux_2odp_2api_2abi_2schedule__types_8h_source.html" target="_top" xlink:title="schedule_types.h">
<polygon fill="white" stroke="black" points="221.5,-672.5 221.5,-691.5 314.5,-691.5 314.5,-672.5 221.5,-672.5"/>
<text text-anchor="middle" x="268" y="-679.5" font-family="Helvetica,sans-Serif" font-size="10.00">schedule_types.h</text>
</a>
</g>
</g>
<!-- Node1&#45;&gt;Node4 -->
<g id="edge3" class="edge"><title>Node1&#45;&gt;Node4</title>
<path fill="none" stroke="midnightblue" d="M351.995,-723.862C331.412,-713.849 303.655,-700.346 285.79,-691.655"/>
<polygon fill="midnightblue" stroke="midnightblue" points="350.642,-727.097 361.166,-728.324 353.705,-720.802 350.642,-727.097"/>
</g>
<!-- Node5 -->
<g id="node5" class="node"><title>Node5</title>
<g id="a_node5"><a xlink:href="arch_2mips64-linux_2odp_2api_2abi_2schedule__types_8h_source.html" target="_top" xlink:title="schedule_types.h">
<polygon fill="white" stroke="black" points="332.5,-672.5 332.5,-691.5 425.5,-691.5 425.5,-672.5 332.5,-672.5"/>
<text text-anchor="middle" x="379" y="-679.5" font-family="Helvetica,sans-Serif" font-size="10.00">schedule_types.h</text>
</a>
</g>
</g>
<!-- Node1&#45;&gt;Node5 -->
<g id="edge4" class="edge"><title>Node1&#45;&gt;Node5</title>
<path fill="none" stroke="midnightblue" d="M379,-717.805C379,-708.91 379,-698.78 379,-691.751"/>
<polygon fill="midnightblue" stroke="midnightblue" points="375.5,-718.083 379,-728.083 382.5,-718.083 375.5,-718.083"/>
</g>
<!-- Node6 -->
<g id="node6" class="node"><title>Node6</title>
<g id="a_node6"><a xlink:href="arch_2power64-linux_2odp_2api_2abi_2schedule__types_8h_source.html" target="_top" xlink:title="schedule_types.h">
<polygon fill="white" stroke="black" points="443.5,-672.5 443.5,-691.5 536.5,-691.5 536.5,-672.5 443.5,-672.5"/>
<text text-anchor="middle" x="490" y="-679.5" font-family="Helvetica,sans-Serif" font-size="10.00">schedule_types.h</text>
</a>
</g>
</g>
<!-- Node1&#45;&gt;Node6 -->
<g id="edge5" class="edge"><title>Node1&#45;&gt;Node6</title>
<path fill="none" stroke="midnightblue" d="M406.005,-723.862C426.588,-713.849 454.345,-700.346 472.21,-691.655"/>
<polygon fill="midnightblue" stroke="midnightblue" points="404.295,-720.802 396.834,-728.324 407.358,-727.097 404.295,-720.802"/>
</g>
<!-- Node7 -->
<g id="node7" class="node"><title>Node7</title>
<g id="a_node7"><a xlink:href="arch_2x86__32-linux_2odp_2api_2abi_2schedule__types_8h_source.html" target="_top" xlink:title="schedule_types.h">
<polygon fill="white" stroke="black" points="554.5,-672.5 554.5,-691.5 647.5,-691.5 647.5,-672.5 554.5,-672.5"/>
<text text-anchor="middle" x="601" y="-679.5" font-family="Helvetica,sans-Serif" font-size="10.00">schedule_types.h</text>
</a>
</g>
</g>
<!-- Node1&#45;&gt;Node7 -->
<g id="edge6" class="edge"><title>Node1&#45;&gt;Node7</title>
<path fill="none" stroke="midnightblue" d="M424.125,-726.024C466.06,-715.823 527.652,-700.841 565.988,-691.516"/>
<polygon fill="midnightblue" stroke="midnightblue" points="423.066,-722.679 414.177,-728.444 424.72,-729.481 423.066,-722.679"/>
</g>
<!-- Node8 -->
<g id="node8" class="node"><title>Node8</title>
<g id="a_node8"><a xlink:href="arch_2x86__64-linux_2odp_2api_2abi_2schedule__types_8h_source.html" target="_top" xlink:title="schedule_types.h">
<polygon fill="white" stroke="black" points="665.5,-672.5 665.5,-691.5 758.5,-691.5 758.5,-672.5 665.5,-672.5"/>
<text text-anchor="middle" x="712" y="-679.5" font-family="Helvetica,sans-Serif" font-size="10.00">schedule_types.h</text>
</a>
</g>
</g>
<!-- Node1&#45;&gt;Node8 -->
<g id="edge7" class="edge"><title>Node1&#45;&gt;Node8</title>
<path fill="none" stroke="midnightblue" d="M435.689,-727.807C500.442,-717.307 605.186,-700.321 665.395,-690.558"/>
<polygon fill="midnightblue" stroke="midnightblue" points="434.964,-724.379 425.653,-729.435 436.084,-731.289 434.964,-724.379"/>
</g>
<!-- Node9 -->
<g id="node9" class="node"><title>Node9</title>
<g id="a_node9"><a xlink:href="api_2schedule_8h.html" target="_top" xlink:title="ODP schedule. ">
<polygon fill="white" stroke="black" points="702,-336.5 702,-355.5 766,-355.5 766,-336.5 702,-336.5"/>
<text text-anchor="middle" x="734" y="-343.5" font-family="Helvetica,sans-Serif" font-size="10.00">schedule.h</text>
</a>
</g>
</g>
<!-- Node8&#45;&gt;Node9 -->
<g id="edge8" class="edge"><title>Node8&#45;&gt;Node9</title>
<path fill="none" stroke="midnightblue" d="M701.857,-663.429C690.6,-642.236 674,-605.187 674,-571 674,-571 674,-571 674,-457 674,-426.902 678.264,-418.243 693,-392 701.073,-377.624 714.532,-364.059 723.815,-355.654"/>
<polygon fill="midnightblue" stroke="midnightblue" points="698.819,-665.168 706.716,-672.231 704.947,-661.785 698.819,-665.168"/>
</g>
<!-- Node12 -->
<g id="node12" class="node"><title>Node12</title>
<g id="a_node12"><a xlink:href="api_2schedule__types_8h.html" target="_top" xlink:title="ODP schedule. ">
<polygon fill="white" stroke="black" points="702.5,-616.5 702.5,-635.5 795.5,-635.5 795.5,-616.5 702.5,-616.5"/>
<text text-anchor="middle" x="749" y="-623.5" font-family="Helvetica,sans-Serif" font-size="10.00">schedule_types.h</text>
</a>
</g>
</g>
<!-- Node8&#45;&gt;Node12 -->
<g id="edge11" class="edge"><title>Node8&#45;&gt;Node12</title>
<path fill="none" stroke="midnightblue" d="M723.946,-663.566C730.312,-654.275 737.867,-643.248 743.004,-635.751"/>
<polygon fill="midnightblue" stroke="midnightblue" points="720.875,-661.855 718.11,-672.083 726.649,-665.812 720.875,-661.855"/>
</g>
<!-- Node10 -->
<g id="node10" class="node"><title>Node10</title>
<g id="a_node10"><a xlink:href="odp__api_8h.html" target="_top" xlink:title="The OpenDataPlane API. ">
<polygon fill="white" stroke="black" points="872.5,-56.5 872.5,-75.5 931.5,-75.5 931.5,-56.5 872.5,-56.5"/>
<text text-anchor="middle" x="902" y="-63.5" font-family="Helvetica,sans-Serif" font-size="10.00">odp_api.h</text>
</a>
</g>
</g>
<!-- Node9&#45;&gt;Node10 -->
<g id="edge9" class="edge"><title>Node9&#45;&gt;Node10</title>
<path fill="none" stroke="midnightblue" d="M737.015,-326.308C740.272,-304.468 745,-267.212 745,-235 745,-235 745,-235 745,-177 745,-144.189 755.227,-133.514 780,-112 806.42,-89.0557 845.571,-77.3988 872.352,-71.7723"/>
<polygon fill="midnightblue" stroke="midnightblue" points="733.513,-326.053 735.438,-336.471 740.43,-327.126 733.513,-326.053"/>
</g>
<!-- Node11 -->
<g id="node11" class="node"><title>Node11</title>
<g id="a_node11"><a xlink:href="odp_8h.html" target="_top" xlink:title="WARNING: THIS FILE IS DEPRECATED AND WILL BE REMOVED!!! ODP APPLICATIONS SHOULD NOW INCLUDE odp_api...">
<polygon fill="white" stroke="black" points="881.5,-0.5 881.5,-19.5 922.5,-19.5 922.5,-0.5 881.5,-0.5"/>
<text text-anchor="middle" x="902" y="-7.5" font-family="Helvetica,sans-Serif" font-size="10.00">odp.h</text>
</a>
</g>
</g>
<!-- Node10&#45;&gt;Node11 -->
<g id="edge10" class="edge"><title>Node10&#45;&gt;Node11</title>
<path fill="none" stroke="midnightblue" d="M902,-45.8045C902,-36.9102 902,-26.7798 902,-19.7511"/>
<polygon fill="midnightblue" stroke="midnightblue" points="898.5,-46.083 902,-56.083 905.5,-46.083 898.5,-46.083"/>
</g>
<!-- Node13 -->
<g id="node13" class="node"><title>Node13</title>
<g id="a_node13"><a xlink:href="queue__types_8h.html" target="_top" xlink:title="ODP queue types. ">
<polygon fill="white" stroke="black" points="762,-560.5 762,-579.5 842,-579.5 842,-560.5 762,-560.5"/>
<text text-anchor="middle" x="802" y="-567.5" font-family="Helvetica,sans-Serif" font-size="10.00">queue_types.h</text>
</a>
</g>
</g>
<!-- Node12&#45;&gt;Node13 -->
<g id="edge12" class="edge"><title>Node12&#45;&gt;Node13</title>
<path fill="none" stroke="midnightblue" d="M764.981,-608.718C774.322,-599.2 785.746,-587.561 793.411,-579.751"/>
<polygon fill="midnightblue" stroke="midnightblue" points="762.259,-606.494 757.752,-616.083 767.254,-611.398 762.259,-606.494"/>
</g>
<!-- Node25 -->
<g id="node25" class="node"><title>Node25</title>
<g id="a_node25"><a xlink:href="api_2spec_2schedule_8h.html" target="_top" xlink:title="ODP schedule. ">
<polygon fill="white" stroke="black" points="702,-392.5 702,-411.5 766,-411.5 766,-392.5 702,-392.5"/>
<text text-anchor="middle" x="734" y="-399.5" font-family="Helvetica,sans-Serif" font-size="10.00">schedule.h</text>
</a>
</g>
</g>
<!-- Node12&#45;&gt;Node25 -->
<g id="edge34" class="edge"><title>Node12&#45;&gt;Node25</title>
<path fill="none" stroke="midnightblue" d="M747.736,-606.295C744.652,-560.644 736.828,-444.854 734.6,-411.884"/>
<polygon fill="midnightblue" stroke="midnightblue" points="744.246,-606.556 748.412,-616.297 751.23,-606.084 744.246,-606.556"/>
</g>
<!-- Node14 -->
<g id="node14" class="node"><title>Node14</title>
<g id="a_node14"><a xlink:href="api_2spec_2queue_8h.html" target="_top" xlink:title="ODP queue. ">
<polygon fill="white" stroke="black" points="776.5,-504.5 776.5,-523.5 827.5,-523.5 827.5,-504.5 776.5,-504.5"/>
<text text-anchor="middle" x="802" y="-511.5" font-family="Helvetica,sans-Serif" font-size="10.00">queue.h</text>
</a>
</g>
</g>
<!-- Node13&#45;&gt;Node14 -->
<g id="edge13" class="edge"><title>Node13&#45;&gt;Node14</title>
<path fill="none" stroke="midnightblue" d="M802,-549.805C802,-540.91 802,-530.78 802,-523.751"/>
<polygon fill="midnightblue" stroke="midnightblue" points="798.5,-550.083 802,-560.083 805.5,-550.083 798.5,-550.083"/>
</g>
<!-- Node15 -->
<g id="node15" class="node"><title>Node15</title>
<g id="a_node15"><a xlink:href="api_2queue_8h.html" target="_top" xlink:title="ODP queue. ">
<polygon fill="white" stroke="black" points="776.5,-448.5 776.5,-467.5 827.5,-467.5 827.5,-448.5 776.5,-448.5"/>
<text text-anchor="middle" x="802" y="-455.5" font-family="Helvetica,sans-Serif" font-size="10.00">queue.h</text>
</a>
</g>
</g>
<!-- Node14&#45;&gt;Node15 -->
<g id="edge14" class="edge"><title>Node14&#45;&gt;Node15</title>
<path fill="none" stroke="midnightblue" d="M802,-493.805C802,-484.91 802,-474.78 802,-467.751"/>
<polygon fill="midnightblue" stroke="midnightblue" points="798.5,-494.083 802,-504.083 805.5,-494.083 798.5,-494.083"/>
</g>
<!-- Node15&#45;&gt;Node10 -->
<g id="edge33" class="edge"><title>Node15&#45;&gt;Node10</title>
<path fill="none" stroke="midnightblue" d="M799.807,-438.281C797.439,-416.416 794,-379.137 794,-347 794,-347 794,-347 794,-177 794,-126.685 852.245,-90.9466 883.188,-75.5104"/>
<polygon fill="midnightblue" stroke="midnightblue" points="796.356,-438.913 800.954,-448.458 803.312,-438.128 796.356,-438.913"/>
</g>
<!-- Node16 -->
<g id="node16" class="node"><title>Node16</title>
<g id="a_node16"><a xlink:href="api_2crypto_8h.html" target="_top" xlink:title="ODP crypto. ">
<polygon fill="white" stroke="black" points="822,-224.5 822,-243.5 874,-243.5 874,-224.5 822,-224.5"/>
<text text-anchor="middle" x="848" y="-231.5" font-family="Helvetica,sans-Serif" font-size="10.00">crypto.h</text>
</a>
</g>
</g>
<!-- Node15&#45;&gt;Node16 -->
<g id="edge15" class="edge"><title>Node15&#45;&gt;Node16</title>
<path fill="none" stroke="midnightblue" d="M805.876,-438.295C815.335,-392.644 839.328,-276.854 846.159,-243.884"/>
<polygon fill="midnightblue" stroke="midnightblue" points="802.405,-437.795 803.803,-448.297 809.26,-439.216 802.405,-437.795"/>
</g>
<!-- Node19 -->
<g id="node19" class="node"><title>Node19</title>
<g id="a_node19"><a xlink:href="api_2spec_2packet__io_8h.html" target="_top" xlink:title="ODP Packet IO. ">
<polygon fill="white" stroke="black" points="896.5,-392.5 896.5,-411.5 963.5,-411.5 963.5,-392.5 896.5,-392.5"/>
<text text-anchor="middle" x="930" y="-399.5" font-family="Helvetica,sans-Serif" font-size="10.00">packet_io.h</text>
</a>
</g>
</g>
<!-- Node15&#45;&gt;Node19 -->
<g id="edge20" class="edge"><title>Node15&#45;&gt;Node19</title>
<path fill="none" stroke="midnightblue" d="M831.623,-444.503C855.619,-434.38 888.784,-420.388 909.813,-411.516"/>
<polygon fill="midnightblue" stroke="midnightblue" points="830.135,-441.332 822.282,-448.444 832.856,-447.781 830.135,-441.332"/>
</g>
<!-- Node15&#45;&gt;Node25 -->
<g id="edge31" class="edge"><title>Node15&#45;&gt;Node25</title>
<path fill="none" stroke="midnightblue" d="M783.238,-442.101C771,-432.382 755.441,-420.027 745.124,-411.834"/>
<polygon fill="midnightblue" stroke="midnightblue" points="781.067,-444.846 791.075,-448.324 785.42,-439.364 781.067,-444.846"/>
</g>
<!-- Node16&#45;&gt;Node10 -->
<g id="edge19" class="edge"><title>Node16&#45;&gt;Node10</title>
<path fill="none" stroke="midnightblue" d="M848.396,-214.265C849.065,-201.112 850.764,-183.223 855,-168 865.059,-131.853 886.863,-92.4892 896.835,-75.5424"/>
<polygon fill="midnightblue" stroke="midnightblue" points="844.893,-214.301 848.036,-224.419 851.889,-214.55 844.893,-214.301"/>
</g>
<!-- Node17 -->
<g id="node17" class="node"><title>Node17</title>
<g id="a_node17"><a xlink:href="api_2spec_2ipsec_8h.html" target="_top" xlink:title="ODP IPSEC API. ">
<polygon fill="white" stroke="black" points="959,-168.5 959,-187.5 1007,-187.5 1007,-168.5 959,-168.5"/>
<text text-anchor="middle" x="983" y="-175.5" font-family="Helvetica,sans-Serif" font-size="10.00">ipsec.h</text>
</a>
</g>
</g>
<!-- Node16&#45;&gt;Node17 -->
<g id="edge16" class="edge"><title>Node16&#45;&gt;Node17</title>
<path fill="none" stroke="midnightblue" d="M878.906,-220.638C904.24,-210.504 939.431,-196.427 961.709,-187.516"/>
<polygon fill="midnightblue" stroke="midnightblue" points="877.376,-217.48 869.391,-224.444 879.976,-223.979 877.376,-217.48"/>
</g>
<!-- Node18 -->
<g id="node18" class="node"><title>Node18</title>
<g id="a_node18"><a xlink:href="api_2ipsec_8h.html" target="_top" xlink:title="ODP IPSEC API &#45; platform specific header. ">
<polygon fill="white" stroke="black" points="945,-112.5 945,-131.5 993,-131.5 993,-112.5 945,-112.5"/>
<text text-anchor="middle" x="969" y="-119.5" font-family="Helvetica,sans-Serif" font-size="10.00">ipsec.h</text>
</a>
</g>
</g>
<!-- Node17&#45;&gt;Node18 -->
<g id="edge17" class="edge"><title>Node17&#45;&gt;Node18</title>
<path fill="none" stroke="midnightblue" d="M978.177,-158.396C975.835,-149.362 973.132,-138.936 971.269,-131.751"/>
<polygon fill="midnightblue" stroke="midnightblue" points="974.79,-159.281 980.688,-168.083 981.566,-157.525 974.79,-159.281"/>
</g>
<!-- Node18&#45;&gt;Node10 -->
<g id="edge18" class="edge"><title>Node18&#45;&gt;Node10</title>
<path fill="none" stroke="midnightblue" d="M950.165,-105.82C938.162,-96.1452 923.028,-83.9481 912.961,-75.8339"/>
<polygon fill="midnightblue" stroke="midnightblue" points="948.253,-108.774 958.235,-112.324 952.646,-103.324 948.253,-108.774"/>
</g>
<!-- Node20 -->
<g id="node20" class="node"><title>Node20</title>
<g id="a_node20"><a xlink:href="api_2packet__io_8h.html" target="_top" xlink:title="ODP Packet IO. ">
<polygon fill="white" stroke="black" points="932.5,-336.5 932.5,-355.5 999.5,-355.5 999.5,-336.5 932.5,-336.5"/>
<text text-anchor="middle" x="966" y="-343.5" font-family="Helvetica,sans-Serif" font-size="10.00">packet_io.h</text>
</a>
</g>
</g>
<!-- Node19&#45;&gt;Node20 -->
<g id="edge21" class="edge"><title>Node19&#45;&gt;Node20</title>
<path fill="none" stroke="midnightblue" d="M941.623,-383.566C947.817,-374.275 955.168,-363.248 960.166,-355.751"/>
<polygon fill="midnightblue" stroke="midnightblue" points="938.58,-381.821 935.945,-392.083 944.404,-385.704 938.58,-381.821"/>
</g>
<!-- Node20&#45;&gt;Node10 -->
<g id="edge30" class="edge"><title>Node20&#45;&gt;Node10</title>
<path fill="none" stroke="midnightblue" d="M1009.63,-338.412C1034.87,-332.436 1065.42,-321.155 1085,-300 1105.45,-277.913 1104,-265.098 1104,-235 1104,-235 1104,-235 1104,-177 1104,-99.5318 987.995,-76.3056 931.806,-69.5992"/>
<polygon fill="midnightblue" stroke="midnightblue" points="1008.58,-335.059 999.541,-340.592 1010.05,-341.901 1008.58,-335.059"/>
</g>
<!-- Node20&#45;&gt;Node17 -->
<g id="edge26" class="edge"><title>Node20&#45;&gt;Node17</title>
<path fill="none" stroke="midnightblue" d="M967.953,-325.93C971.641,-289.92 979.494,-213.231 982.123,-187.568"/>
<polygon fill="midnightblue" stroke="midnightblue" points="964.451,-325.771 966.914,-336.075 971.415,-326.484 964.451,-325.771"/>
</g>
<!-- Node21 -->
<g id="node21" class="node"><title>Node21</title>
<g id="a_node21"><a xlink:href="api_2spec_2classification_8h.html" target="_top" xlink:title="ODP classification descriptor. ">
<polygon fill="white" stroke="black" points="994,-280.5 994,-299.5 1076,-299.5 1076,-280.5 994,-280.5"/>
<text text-anchor="middle" x="1035" y="-287.5" font-family="Helvetica,sans-Serif" font-size="10.00">classification.h</text>
</a>
</g>
</g>
<!-- Node20&#45;&gt;Node21 -->
<g id="edge22" class="edge"><title>Node20&#45;&gt;Node21</title>
<path fill="none" stroke="midnightblue" d="M985.038,-330.101C997.456,-320.382 1013.24,-308.027 1023.71,-299.834"/>
<polygon fill="midnightblue" stroke="midnightblue" points="982.804,-327.405 977.086,-336.324 987.118,-332.917 982.804,-327.405"/>
</g>
<!-- Node23 -->
<g id="node23" class="node"><title>Node23</title>
<g id="a_node23"><a xlink:href="api_2spec_2traffic__mngr_8h.html" target="_top" xlink:title="Copyright (c) 2015&#45;2018, Linaro Limited All rights reserved. ">
<polygon fill="white" stroke="black" points="860.5,-280.5 860.5,-299.5 937.5,-299.5 937.5,-280.5 860.5,-280.5"/>
<text text-anchor="middle" x="899" y="-287.5" font-family="Helvetica,sans-Serif" font-size="10.00">traffic_mngr.h</text>
</a>
</g>
</g>
<!-- Node20&#45;&gt;Node23 -->
<g id="edge27" class="edge"><title>Node20&#45;&gt;Node23</title>
<path fill="none" stroke="midnightblue" d="M947.165,-329.82C935.162,-320.145 920.028,-307.948 909.961,-299.834"/>
<polygon fill="midnightblue" stroke="midnightblue" points="945.253,-332.774 955.235,-336.324 949.646,-327.324 945.253,-332.774"/>
</g>
<!-- Node22 -->
<g id="node22" class="node"><title>Node22</title>
<g id="a_node22"><a xlink:href="api_2classification_8h.html" target="_top" xlink:title="ODP classification descriptor. ">
<polygon fill="white" stroke="black" points="994,-224.5 994,-243.5 1076,-243.5 1076,-224.5 994,-224.5"/>
<text text-anchor="middle" x="1035" y="-231.5" font-family="Helvetica,sans-Serif" font-size="10.00">classification.h</text>
</a>
</g>
</g>
<!-- Node21&#45;&gt;Node22 -->
<g id="edge23" class="edge"><title>Node21&#45;&gt;Node22</title>
<path fill="none" stroke="midnightblue" d="M1035,-269.805C1035,-260.91 1035,-250.78 1035,-243.751"/>
<polygon fill="midnightblue" stroke="midnightblue" points="1031.5,-270.083 1035,-280.083 1038.5,-270.083 1031.5,-270.083"/>
</g>
<!-- Node22&#45;&gt;Node10 -->
<g id="edge25" class="edge"><title>Node22&#45;&gt;Node10</title>
<path fill="none" stroke="midnightblue" d="M1034.68,-214.223C1033.28,-188.298 1027.14,-141.417 1002,-112 983.943,-90.8685 953.957,-79.2036 931.521,-73.0806"/>
<polygon fill="midnightblue" stroke="midnightblue" points="1031.18,-214.363 1035.04,-224.231 1038.18,-214.112 1031.18,-214.363"/>
</g>
<!-- Node22&#45;&gt;Node17 -->
<g id="edge24" class="edge"><title>Node22&#45;&gt;Node17</title>
<path fill="none" stroke="midnightblue" d="M1019.32,-216.718C1010.16,-207.2 998.947,-195.561 991.427,-187.751"/>
<polygon fill="midnightblue" stroke="midnightblue" points="1016.96,-219.308 1026.41,-224.083 1022,-214.452 1016.96,-219.308"/>
</g>
<!-- Node24 -->
<g id="node24" class="node"><title>Node24</title>
<g id="a_node24"><a xlink:href="api_2traffic__mngr_8h.html" target="_top" xlink:title="ODP Traffic manager. ">
<polygon fill="white" stroke="black" points="863.5,-168.5 863.5,-187.5 940.5,-187.5 940.5,-168.5 863.5,-168.5"/>
<text text-anchor="middle" x="902" y="-175.5" font-family="Helvetica,sans-Serif" font-size="10.00">traffic_mngr.h</text>
</a>
</g>
</g>
<!-- Node23&#45;&gt;Node24 -->
<g id="edge28" class="edge"><title>Node23&#45;&gt;Node24</title>
<path fill="none" stroke="midnightblue" d="M899.509,-270.348C900.166,-246.254 901.283,-205.308 901.766,-187.591"/>
<polygon fill="midnightblue" stroke="midnightblue" points="896.009,-270.277 899.235,-280.368 903.007,-270.468 896.009,-270.277"/>
</g>
<!-- Node24&#45;&gt;Node10 -->
<g id="edge29" class="edge"><title>Node24&#45;&gt;Node10</title>
<path fill="none" stroke="midnightblue" d="M902,-158.348C902,-134.254 902,-93.3079 902,-75.5914"/>
<polygon fill="midnightblue" stroke="midnightblue" points="898.5,-158.368 902,-168.368 905.5,-158.369 898.5,-158.368"/>
</g>
<!-- Node25&#45;&gt;Node9 -->
<g id="edge32" class="edge"><title>Node25&#45;&gt;Node9</title>
<path fill="none" stroke="midnightblue" d="M734,-381.805C734,-372.91 734,-362.78 734,-355.751"/>
<polygon fill="midnightblue" stroke="midnightblue" points="730.5,-382.083 734,-392.083 737.5,-382.083 730.5,-382.083"/>
</g>
</g>
</svg>
