<?xml version="1.0" encoding="UTF-8" standalone="no"?>
<!DOCTYPE svg PUBLIC "-//W3C//DTD SVG 1.1//EN"
 "http://www.w3.org/Graphics/SVG/1.1/DTD/svg11.dtd">
<!-- Generated by graphviz version 2.36.0 (20140111.2315)
 -->
<!-- Title: classification.h Pages: 1 -->
<svg width="99pt" height="252pt"
 viewBox="0.00 0.00 99.00 252.00" xmlns="http://www.w3.org/2000/svg" xmlns:xlink="http://www.w3.org/1999/xlink">
<g id="graph0" class="graph" transform="scale(1 1) rotate(0) translate(4 248)">
<title>classification.h</title>
<polygon fill="white" stroke="none" points="-4,4 -4,-248 95,-248 95,4 -4,4"/>
<!-- Node38 -->
<g id="node1" class="node"><title>Node38</title>
<polygon fill="#bfbfbf" stroke="black" points="9,-224.5 9,-243.5 91,-243.5 91,-224.5 9,-224.5"/>
<text text-anchor="middle" x="50" y="-231.5" font-family="Helvetica,sans-Serif" font-size="10.00">classification.h</text>
</g>
<!-- Node39 -->
<g id="node2" class="node"><title>Node39</title>
<g id="a_node2"><a xlink:href="api_2spec_2ipsec_8h.html" target="_top" xlink:title="ODP IPSEC API. ">
<polygon fill="white" stroke="black" points="0,-168.5 0,-187.5 48,-187.5 48,-168.5 0,-168.5"/>
<text text-anchor="middle" x="24" y="-175.5" font-family="Helvetica,sans-Serif" font-size="10.00">ipsec.h</text>
</a>
</g>
</g>
<!-- Node38&#45;&gt;Node39 -->
<g id="edge1" class="edge"><title>Node38&#45;&gt;Node39</title>
<path fill="none" stroke="midnightblue" d="M41.325,-214.983C36.9118,-205.817 31.7481,-195.092 28.2135,-187.751"/>
<polygon fill="midnightblue" stroke="midnightblue" points="38.2149,-216.591 45.7066,-224.083 44.5219,-213.555 38.2149,-216.591"/>
</g>
<!-- Node41 -->
<g id="node4" class="node"><title>Node41</title>
<g id="a_node4"><a xlink:href="odp__api_8h.html" target="_top" xlink:title="The OpenDataPlane API. ">
<polygon fill="white" stroke="black" points="20.5,-56.5 20.5,-75.5 79.5,-75.5 79.5,-56.5 20.5,-56.5"/>
<text text-anchor="middle" x="50" y="-63.5" font-family="Helvetica,sans-Serif" font-size="10.00">odp_api.h</text>
</a>
</g>
</g>
<!-- Node38&#45;&gt;Node41 -->
<g id="edge5" class="edge"><title>Node38&#45;&gt;Node41</title>
<path fill="none" stroke="midnightblue" d="M53.5281,-214.547C54.9081,-206.437 56.3212,-196.78 57,-188 59.6037,-154.323 59.6037,-145.677 57,-112 56.0127,-99.2296 53.4718,-84.6014 51.7389,-75.5806"/>
<polygon fill="midnightblue" stroke="midnightblue" points="50.0785,-213.955 51.7389,-224.419 56.9663,-215.204 50.0785,-213.955"/>
</g>
<!-- Node40 -->
<g id="node3" class="node"><title>Node40</title>
<g id="a_node3"><a xlink:href="api_2ipsec_8h.html" target="_top" xlink:title="ODP IPSEC API &#45; platform specific header. ">
<polygon fill="white" stroke="black" points="0,-112.5 0,-131.5 48,-131.5 48,-112.5 0,-112.5"/>
<text text-anchor="middle" x="24" y="-119.5" font-family="Helvetica,sans-Serif" font-size="10.00">ipsec.h</text>
</a>
</g>
</g>
<!-- Node39&#45;&gt;Node40 -->
<g id="edge2" class="edge"><title>Node39&#45;&gt;Node40</title>
<path fill="none" stroke="midnightblue" d="M24,-157.805C24,-148.91 24,-138.78 24,-131.751"/>
<polygon fill="midnightblue" stroke="midnightblue" points="20.5001,-158.083 24,-168.083 27.5001,-158.083 20.5001,-158.083"/>
</g>
<!-- Node40&#45;&gt;Node41 -->
<g id="edge3" class="edge"><title>Node40&#45;&gt;Node41</title>
<path fill="none" stroke="midnightblue" d="M32.675,-102.983C37.0882,-93.8168 42.2519,-83.0922 45.7865,-75.7511"/>
<polygon fill="midnightblue" stroke="midnightblue" points="29.4781,-101.555 28.2934,-112.083 35.7851,-104.591 29.4781,-101.555"/>
</g>
<!-- Node42 -->
<g id="node5" class="node"><title>Node42</title>
<g id="a_node5"><a xlink:href="odp_8h.html" target="_top" xlink:title="WARNING: THIS FILE IS DEPRECATED AND WILL BE REMOVED!!! ODP APPLICATIONS SHOULD NOW INCLUDE odp_api...">
<polygon fill="white" stroke="black" points="29.5,-0.5 29.5,-19.5 70.5,-19.5 70.5,-0.5 29.5,-0.5"/>
<text text-anchor="middle" x="50" y="-7.5" font-family="Helvetica,sans-Serif" font-size="10.00">odp.h</text>
</a>
</g>
</g>
<!-- Node41&#45;&gt;Node42 -->
<g id="edge4" class="edge"><title>Node41&#45;&gt;Node42</title>
<path fill="none" stroke="midnightblue" d="M50,-45.8045C50,-36.9102 50,-26.7798 50,-19.7511"/>
<polygon fill="midnightblue" stroke="midnightblue" points="46.5001,-46.083 50,-56.083 53.5001,-46.083 46.5001,-46.083"/>
</g>
</g>
</svg>
