<?xml version="1.0" encoding="UTF-8" standalone="no"?>
<!DOCTYPE svg PUBLIC "-//W3C//DTD SVG 1.1//EN"
 "http://www.w3.org/Graphics/SVG/1.1/DTD/svg11.dtd">
<!-- Generated by graphviz version 2.36.0 (20140111.2315)
 -->
<!-- Title: byteorder.h Pages: 1 -->
<svg width="570pt" height="252pt"
 viewBox="0.00 0.00 570.00 252.00" xmlns="http://www.w3.org/2000/svg" xmlns:xlink="http://www.w3.org/1999/xlink">
<g id="graph0" class="graph" transform="scale(1 1) rotate(0) translate(4 248)">
<title>byteorder.h</title>
<polygon fill="white" stroke="none" points="-4,4 -4,-248 566,-248 566,4 -4,4"/>
<!-- Node7 -->
<g id="node1" class="node"><title>Node7</title>
<polygon fill="#bfbfbf" stroke="black" points="248.5,-224.5 248.5,-243.5 313.5,-243.5 313.5,-224.5 248.5,-224.5"/>
<text text-anchor="middle" x="281" y="-231.5" font-family="Helvetica,sans-Serif" font-size="10.00">byteorder.h</text>
</g>
<!-- Node8 -->
<g id="node2" class="node"><title>Node8</title>
<g id="a_node2"><a xlink:href="arch_2arm32-linux_2odp_2api_2abi_2byteorder_8h_source.html" target="_top" xlink:title="byteorder.h">
<polygon fill="white" stroke="black" points="-0.5,-168.5 -0.5,-187.5 64.5,-187.5 64.5,-168.5 -0.5,-168.5"/>
<text text-anchor="middle" x="32" y="-175.5" font-family="Helvetica,sans-Serif" font-size="10.00">byteorder.h</text>
</a>
</g>
</g>
<!-- Node7&#45;&gt;Node8 -->
<g id="edge1" class="edge"><title>Node7&#45;&gt;Node8</title>
<path fill="none" stroke="midnightblue" d="M238.426,-223.767C189.16,-213.083 109.116,-195.724 64.5604,-186.061"/>
<polygon fill="midnightblue" stroke="midnightblue" points="237.933,-227.241 248.448,-225.94 239.417,-220.4 237.933,-227.241"/>
</g>
<!-- Node9 -->
<g id="node3" class="node"><title>Node9</title>
<g id="a_node3"><a xlink:href="arch_2arm64-linux_2odp_2api_2abi_2byteorder_8h_source.html" target="_top" xlink:title="byteorder.h">
<polygon fill="white" stroke="black" points="82.5,-168.5 82.5,-187.5 147.5,-187.5 147.5,-168.5 82.5,-168.5"/>
<text text-anchor="middle" x="115" y="-175.5" font-family="Helvetica,sans-Serif" font-size="10.00">byteorder.h</text>
</a>
</g>
</g>
<!-- Node7&#45;&gt;Node9 -->
<g id="edge2" class="edge"><title>Node7&#45;&gt;Node9</title>
<path fill="none" stroke="midnightblue" d="M245.047,-221.304C213.768,-211.129 169.179,-196.625 141.18,-187.516"/>
<polygon fill="midnightblue" stroke="midnightblue" points="244.105,-224.678 254.697,-224.444 246.27,-218.022 244.105,-224.678"/>
</g>
<!-- Node10 -->
<g id="node4" class="node"><title>Node10</title>
<g id="a_node4"><a xlink:href="arch_2default-linux_2odp_2api_2abi_2byteorder_8h_source.html" target="_top" xlink:title="byteorder.h">
<polygon fill="white" stroke="black" points="165.5,-168.5 165.5,-187.5 230.5,-187.5 230.5,-168.5 165.5,-168.5"/>
<text text-anchor="middle" x="198" y="-175.5" font-family="Helvetica,sans-Serif" font-size="10.00">byteorder.h</text>
</a>
</g>
</g>
<!-- Node7&#45;&gt;Node10 -->
<g id="edge3" class="edge"><title>Node7&#45;&gt;Node10</title>
<path fill="none" stroke="midnightblue" d="M258.901,-218.622C243.738,-208.757 224.117,-195.992 211.302,-187.655"/>
<polygon fill="midnightblue" stroke="midnightblue" points="257.374,-221.804 267.665,-224.324 261.191,-215.937 257.374,-221.804"/>
</g>
<!-- Node11 -->
<g id="node5" class="node"><title>Node11</title>
<g id="a_node5"><a xlink:href="arch_2mips64-linux_2odp_2api_2abi_2byteorder_8h_source.html" target="_top" xlink:title="byteorder.h">
<polygon fill="white" stroke="black" points="248.5,-168.5 248.5,-187.5 313.5,-187.5 313.5,-168.5 248.5,-168.5"/>
<text text-anchor="middle" x="281" y="-175.5" font-family="Helvetica,sans-Serif" font-size="10.00">byteorder.h</text>
</a>
</g>
</g>
<!-- Node7&#45;&gt;Node11 -->
<g id="edge4" class="edge"><title>Node7&#45;&gt;Node11</title>
<path fill="none" stroke="midnightblue" d="M281,-213.805C281,-204.91 281,-194.78 281,-187.751"/>
<polygon fill="midnightblue" stroke="midnightblue" points="277.5,-214.083 281,-224.083 284.5,-214.083 277.5,-214.083"/>
</g>
<!-- Node12 -->
<g id="node6" class="node"><title>Node12</title>
<g id="a_node6"><a xlink:href="arch_2power64-linux_2odp_2api_2abi_2byteorder_8h_source.html" target="_top" xlink:title="byteorder.h">
<polygon fill="white" stroke="black" points="331.5,-168.5 331.5,-187.5 396.5,-187.5 396.5,-168.5 331.5,-168.5"/>
<text text-anchor="middle" x="364" y="-175.5" font-family="Helvetica,sans-Serif" font-size="10.00">byteorder.h</text>
</a>
</g>
</g>
<!-- Node7&#45;&gt;Node12 -->
<g id="edge5" class="edge"><title>Node7&#45;&gt;Node12</title>
<path fill="none" stroke="midnightblue" d="M303.099,-218.622C318.262,-208.757 337.883,-195.992 350.698,-187.655"/>
<polygon fill="midnightblue" stroke="midnightblue" points="300.809,-215.937 294.335,-224.324 304.626,-221.804 300.809,-215.937"/>
</g>
<!-- Node13 -->
<g id="node7" class="node"><title>Node13</title>
<g id="a_node7"><a xlink:href="arch_2x86__32-linux_2odp_2api_2abi_2byteorder_8h_source.html" target="_top" xlink:title="byteorder.h">
<polygon fill="white" stroke="black" points="414.5,-168.5 414.5,-187.5 479.5,-187.5 479.5,-168.5 414.5,-168.5"/>
<text text-anchor="middle" x="447" y="-175.5" font-family="Helvetica,sans-Serif" font-size="10.00">byteorder.h</text>
</a>
</g>
</g>
<!-- Node7&#45;&gt;Node13 -->
<g id="edge6" class="edge"><title>Node7&#45;&gt;Node13</title>
<path fill="none" stroke="midnightblue" d="M316.953,-221.304C348.232,-211.129 392.821,-196.625 420.82,-187.516"/>
<polygon fill="midnightblue" stroke="midnightblue" points="315.73,-218.022 307.303,-224.444 317.895,-224.678 315.73,-218.022"/>
</g>
<!-- Node14 -->
<g id="node8" class="node"><title>Node14</title>
<g id="a_node8"><a xlink:href="arch_2x86__64-linux_2odp_2api_2abi_2byteorder_8h_source.html" target="_top" xlink:title="byteorder.h">
<polygon fill="white" stroke="black" points="497.5,-168.5 497.5,-187.5 562.5,-187.5 562.5,-168.5 497.5,-168.5"/>
<text text-anchor="middle" x="530" y="-175.5" font-family="Helvetica,sans-Serif" font-size="10.00">byteorder.h</text>
</a>
</g>
</g>
<!-- Node7&#45;&gt;Node14 -->
<g id="edge7" class="edge"><title>Node7&#45;&gt;Node14</title>
<path fill="none" stroke="midnightblue" d="M323.574,-223.767C372.84,-213.083 452.884,-195.724 497.44,-186.061"/>
<polygon fill="midnightblue" stroke="midnightblue" points="322.583,-220.4 313.552,-225.94 324.067,-227.241 322.583,-220.4"/>
</g>
<!-- Node15 -->
<g id="node9" class="node"><title>Node15</title>
<g id="a_node9"><a xlink:href="api_2byteorder_8h.html" target="_top" xlink:title="ODP byteorder. ">
<polygon fill="white" stroke="black" points="497.5,-112.5 497.5,-131.5 562.5,-131.5 562.5,-112.5 497.5,-112.5"/>
<text text-anchor="middle" x="530" y="-119.5" font-family="Helvetica,sans-Serif" font-size="10.00">byteorder.h</text>
</a>
</g>
</g>
<!-- Node14&#45;&gt;Node15 -->
<g id="edge8" class="edge"><title>Node14&#45;&gt;Node15</title>
<path fill="none" stroke="midnightblue" d="M530,-157.805C530,-148.91 530,-138.78 530,-131.751"/>
<polygon fill="midnightblue" stroke="midnightblue" points="526.5,-158.083 530,-168.083 533.5,-158.083 526.5,-158.083"/>
</g>
<!-- Node16 -->
<g id="node10" class="node"><title>Node16</title>
<g id="a_node10"><a xlink:href="odp__api_8h.html" target="_top" xlink:title="The OpenDataPlane API. ">
<polygon fill="white" stroke="black" points="500.5,-56.5 500.5,-75.5 559.5,-75.5 559.5,-56.5 500.5,-56.5"/>
<text text-anchor="middle" x="530" y="-63.5" font-family="Helvetica,sans-Serif" font-size="10.00">odp_api.h</text>
</a>
</g>
</g>
<!-- Node15&#45;&gt;Node16 -->
<g id="edge9" class="edge"><title>Node15&#45;&gt;Node16</title>
<path fill="none" stroke="midnightblue" d="M530,-101.805C530,-92.9102 530,-82.7798 530,-75.7511"/>
<polygon fill="midnightblue" stroke="midnightblue" points="526.5,-102.083 530,-112.083 533.5,-102.083 526.5,-102.083"/>
</g>
<!-- Node17 -->
<g id="node11" class="node"><title>Node17</title>
<g id="a_node11"><a xlink:href="odp_8h.html" target="_top" xlink:title="WARNING: THIS FILE IS DEPRECATED AND WILL BE REMOVED!!! ODP APPLICATIONS SHOULD NOW INCLUDE odp_api...">
<polygon fill="white" stroke="black" points="509.5,-0.5 509.5,-19.5 550.5,-19.5 550.5,-0.5 509.5,-0.5"/>
<text text-anchor="middle" x="530" y="-7.5" font-family="Helvetica,sans-Serif" font-size="10.00">odp.h</text>
</a>
</g>
</g>
<!-- Node16&#45;&gt;Node17 -->
<g id="edge10" class="edge"><title>Node16&#45;&gt;Node17</title>
<path fill="none" stroke="midnightblue" d="M530,-45.8045C530,-36.9102 530,-26.7798 530,-19.7511"/>
<polygon fill="midnightblue" stroke="midnightblue" points="526.5,-46.083 530,-56.083 533.5,-46.083 526.5,-46.083"/>
</g>
</g>
</svg>
