<?xml version="1.0" encoding="UTF-8" standalone="no"?>
<!DOCTYPE svg PUBLIC "-//W3C//DTD SVG 1.1//EN"
 "http://www.w3.org/Graphics/SVG/1.1/DTD/svg11.dtd">
<!-- Generated by graphviz version 2.36.0 (20140111.2315)
 -->
<!-- Title: packet_flags.h Pages: 1 -->
<svg width="859pt" height="364pt"
 viewBox="0.00 0.00 859.00 364.00" xmlns="http://www.w3.org/2000/svg" xmlns:xlink="http://www.w3.org/1999/xlink">
<g id="graph0" class="graph" transform="scale(1 1) rotate(0) translate(4 360)">
<title>packet_flags.h</title>
<polygon fill="white" stroke="none" points="-4,4 -4,-360 855,-360 855,4 -4,4"/>
<!-- Node0 -->
<g id="node1" class="node"><title>Node0</title>
<polygon fill="#bfbfbf" stroke="black" points="151,-336.5 151,-355.5 231,-355.5 231,-336.5 151,-336.5"/>
<text text-anchor="middle" x="191" y="-343.5" font-family="Helvetica,sans-Serif" font-size="10.00">packet_flags.h</text>
</g>
<!-- Node1 -->
<g id="node2" class="node"><title>Node1</title>
<g id="a_node2"><a xlink:href="visibility__begin_8h_source.html" target="_top" xlink:title="odp/visibility_begin.h">
<polygon fill="white" stroke="black" points="458.5,-0.5 458.5,-19.5 565.5,-19.5 565.5,-0.5 458.5,-0.5"/>
<text text-anchor="middle" x="512" y="-7.5" font-family="Helvetica,sans-Serif" font-size="10.00">odp/visibility_begin.h</text>
</a>
</g>
</g>
<!-- Node0&#45;&gt;Node1 -->
<g id="edge1" class="edge"><title>Node0&#45;&gt;Node1</title>
<path fill="none" stroke="midnightblue" d="M231.292,-342.57C374.588,-333.401 851,-298.164 851,-235 851,-235 851,-235 851,-121 851,-63.7797 674.05,-31.823 575.836,-18.4926"/>
<polygon fill="midnightblue" stroke="midnightblue" points="576.09,-14.9957 565.716,-17.1471 575.167,-21.9346 576.09,-14.9957"/>
</g>
<!-- Node2 -->
<g id="node3" class="node"><title>Node2</title>
<g id="a_node3"><a xlink:href="api_2std__types_8h.html" target="_top" xlink:title="Standard C language types and definitions for ODP. ">
<polygon fill="white" stroke="black" points="154,-112.5 154,-131.5 256,-131.5 256,-112.5 154,-112.5"/>
<text text-anchor="middle" x="205" y="-119.5" font-family="Helvetica,sans-Serif" font-size="10.00">odp/api/std_types.h</text>
</a>
</g>
</g>
<!-- Node0&#45;&gt;Node2 -->
<g id="edge2" class="edge"><title>Node0&#45;&gt;Node2</title>
<path fill="none" stroke="midnightblue" d="M175.455,-336.3C150.408,-321.272 102.009,-287.802 83,-244 79.4614,-235.846 81.6233,-232.782 83,-224 87.0489,-198.172 83.4356,-187.364 101,-168 115.473,-152.044 136.593,-141.505 156.025,-134.668"/>
<polygon fill="midnightblue" stroke="midnightblue" points="157.27,-137.943 165.689,-131.511 155.096,-131.289 157.27,-137.943"/>
</g>
<!-- Node6 -->
<g id="node7" class="node"><title>Node6</title>
<g id="a_node7"><a xlink:href="visibility__end_8h_source.html" target="_top" xlink:title="odp/visibility_end.h">
<polygon fill="white" stroke="black" points="64,-0.5 64,-19.5 164,-19.5 164,-0.5 64,-0.5"/>
<text text-anchor="middle" x="114" y="-7.5" font-family="Helvetica,sans-Serif" font-size="10.00">odp/visibility_end.h</text>
</a>
</g>
</g>
<!-- Node0&#45;&gt;Node6 -->
<g id="edge24" class="edge"><title>Node0&#45;&gt;Node6</title>
<path fill="none" stroke="midnightblue" d="M150.96,-339.963C94.9528,-330.425 0,-304.07 0,-235 0,-235 0,-235 0,-121 0,-74.1149 50.5515,-40.8944 84.3292,-23.9302"/>
<polygon fill="midnightblue" stroke="midnightblue" points="85.8676,-27.0742 93.3555,-19.5787 82.8277,-20.7687 85.8676,-27.0742"/>
</g>
<!-- Node7 -->
<g id="node8" class="node"><title>Node7</title>
<g id="a_node8"><a xlink:href="api_2packet_8h.html" target="_top" xlink:title="ODP packet descriptor. ">
<polygon fill="white" stroke="black" points="299.5,-280.5 299.5,-299.5 388.5,-299.5 388.5,-280.5 299.5,-280.5"/>
<text text-anchor="middle" x="344" y="-287.5" font-family="Helvetica,sans-Serif" font-size="10.00">odp/api/packet.h</text>
</a>
</g>
</g>
<!-- Node0&#45;&gt;Node7 -->
<g id="edge8" class="edge"><title>Node0&#45;&gt;Node7</title>
<path fill="none" stroke="midnightblue" d="M215.243,-336.444C240.871,-327.399 281.485,-313.064 310.238,-302.916"/>
<polygon fill="midnightblue" stroke="midnightblue" points="311.605,-306.145 319.87,-299.516 309.275,-299.544 311.605,-306.145"/>
</g>
<!-- Node3 -->
<g id="node4" class="node"><title>Node3</title>
<polygon fill="white" stroke="#bfbfbf" points="286,-56.5 286,-75.5 404,-75.5 404,-56.5 286,-56.5"/>
<text text-anchor="middle" x="345" y="-63.5" font-family="Helvetica,sans-Serif" font-size="10.00">odp/api/abi/std_types.h</text>
</g>
<!-- Node2&#45;&gt;Node3 -->
<g id="edge3" class="edge"><title>Node2&#45;&gt;Node3</title>
<path fill="none" stroke="midnightblue" d="M227.183,-112.444C250.428,-103.478 287.149,-89.314 313.415,-79.1827"/>
<polygon fill="midnightblue" stroke="midnightblue" points="314.85,-82.3807 322.92,-75.5164 312.331,-75.8497 314.85,-82.3807"/>
</g>
<!-- Node4 -->
<g id="node5" class="node"><title>Node4</title>
<g id="a_node5"><a xlink:href="api_2spec_2std__types_8h.html" target="_top" xlink:title="Standard C language types and definitions for ODP. ">
<polygon fill="white" stroke="black" points="142,-56.5 142,-75.5 268,-75.5 268,-56.5 142,-56.5"/>
<text text-anchor="middle" x="205" y="-63.5" font-family="Helvetica,sans-Serif" font-size="10.00">odp/api/spec/std_types.h</text>
</a>
</g>
</g>
<!-- Node2&#45;&gt;Node4 -->
<g id="edge4" class="edge"><title>Node2&#45;&gt;Node4</title>
<path fill="none" stroke="midnightblue" d="M205,-112.083C205,-105.006 205,-94.8611 205,-85.9865"/>
<polygon fill="midnightblue" stroke="midnightblue" points="208.5,-85.751 205,-75.7511 201.5,-85.7511 208.5,-85.751"/>
</g>
<!-- Node4&#45;&gt;Node1 -->
<g id="edge5" class="edge"><title>Node4&#45;&gt;Node1</title>
<path fill="none" stroke="midnightblue" d="M253.645,-56.4435C307.874,-46.9049 395.548,-31.4834 453.482,-21.293"/>
<polygon fill="midnightblue" stroke="midnightblue" points="454.34,-24.696 463.583,-19.5164 453.127,-17.8018 454.34,-24.696"/>
</g>
<!-- Node5 -->
<g id="node6" class="node"><title>Node5</title>
<polygon fill="white" stroke="#bfbfbf" points="182.5,-0.5 182.5,-19.5 231.5,-19.5 231.5,-0.5 182.5,-0.5"/>
<text text-anchor="middle" x="207" y="-7.5" font-family="Helvetica,sans-Serif" font-size="10.00">stdint.h</text>
</g>
<!-- Node4&#45;&gt;Node5 -->
<g id="edge6" class="edge"><title>Node4&#45;&gt;Node5</title>
<path fill="none" stroke="midnightblue" d="M205.33,-56.083C205.592,-49.0059 205.968,-38.8611 206.297,-29.9865"/>
<polygon fill="midnightblue" stroke="midnightblue" points="209.803,-29.8738 206.676,-19.7511 202.808,-29.6147 209.803,-29.8738"/>
</g>
<!-- Node4&#45;&gt;Node6 -->
<g id="edge7" class="edge"><title>Node4&#45;&gt;Node6</title>
<path fill="none" stroke="midnightblue" d="M190.379,-56.324C176.051,-47.8215 153.987,-34.7288 137.251,-24.7975"/>
<polygon fill="midnightblue" stroke="midnightblue" points="138.97,-21.7478 128.584,-19.6545 135.398,-27.7677 138.97,-21.7478"/>
</g>
<!-- Node7&#45;&gt;Node2 -->
<g id="edge9" class="edge"><title>Node7&#45;&gt;Node2</title>
<path fill="none" stroke="midnightblue" d="M299.238,-287.545C234.724,-284.399 120.525,-274.551 95,-244 61.1549,-203.49 134.504,-157.994 177.187,-136.126"/>
<polygon fill="midnightblue" stroke="midnightblue" points="178.903,-139.181 186.286,-131.582 175.776,-132.918 178.903,-139.181"/>
</g>
<!-- Node8 -->
<g id="node9" class="node"><title>Node8</title>
<polygon fill="white" stroke="#bfbfbf" points="104.5,-224.5 104.5,-243.5 203.5,-243.5 203.5,-224.5 104.5,-224.5"/>
<text text-anchor="middle" x="154" y="-231.5" font-family="Helvetica,sans-Serif" font-size="10.00">odp/api/abi/event.h</text>
</g>
<!-- Node7&#45;&gt;Node8 -->
<g id="edge10" class="edge"><title>Node7&#45;&gt;Node8</title>
<path fill="none" stroke="midnightblue" d="M313.894,-280.444C281.374,-271.201 229.421,-256.436 193.609,-246.257"/>
<polygon fill="midnightblue" stroke="midnightblue" points="194.541,-242.884 183.965,-243.516 192.627,-249.617 194.541,-242.884"/>
</g>
<!-- Node9 -->
<g id="node10" class="node"><title>Node9</title>
<polygon fill="white" stroke="#bfbfbf" points="221.5,-224.5 221.5,-243.5 338.5,-243.5 338.5,-224.5 221.5,-224.5"/>
<text text-anchor="middle" x="280" y="-231.5" font-family="Helvetica,sans-Serif" font-size="10.00">odp/api/abi/packet_io.h</text>
</g>
<!-- Node7&#45;&gt;Node9 -->
<g id="edge11" class="edge"><title>Node7&#45;&gt;Node9</title>
<path fill="none" stroke="midnightblue" d="M333.717,-280.324C324.164,-272.263 309.72,-260.077 298.216,-250.369"/>
<polygon fill="midnightblue" stroke="midnightblue" points="300.37,-247.608 290.47,-243.834 295.856,-252.958 300.37,-247.608"/>
</g>
<!-- Node10 -->
<g id="node11" class="node"><title>Node10</title>
<polygon fill="white" stroke="#bfbfbf" points="357,-224.5 357,-243.5 461,-243.5 461,-224.5 357,-224.5"/>
<text text-anchor="middle" x="409" y="-231.5" font-family="Helvetica,sans-Serif" font-size="10.00">odp/api/abi/packet.h</text>
</g>
<!-- Node7&#45;&gt;Node10 -->
<g id="edge12" class="edge"><title>Node7&#45;&gt;Node10</title>
<path fill="none" stroke="midnightblue" d="M354.443,-280.324C364.146,-272.263 378.815,-260.077 390.5,-250.369"/>
<polygon fill="midnightblue" stroke="midnightblue" points="392.911,-252.916 398.367,-243.834 388.438,-247.532 392.911,-252.916"/>
</g>
<!-- Node11 -->
<g id="node12" class="node"><title>Node11</title>
<polygon fill="white" stroke="#bfbfbf" points="611,-224.5 611,-243.5 711,-243.5 711,-224.5 611,-224.5"/>
<text text-anchor="middle" x="661" y="-231.5" font-family="Helvetica,sans-Serif" font-size="10.00">odp/api/abi/buffer.h</text>
</g>
<!-- Node7&#45;&gt;Node11 -->
<g id="edge13" class="edge"><title>Node7&#45;&gt;Node11</title>
<path fill="none" stroke="midnightblue" d="M388.746,-281.378C444.278,-271.918 539.186,-255.751 600.993,-245.222"/>
<polygon fill="midnightblue" stroke="midnightblue" points="601.725,-248.648 610.995,-243.518 600.549,-241.747 601.725,-248.648"/>
</g>
<!-- Node12 -->
<g id="node13" class="node"><title>Node12</title>
<polygon fill="white" stroke="#bfbfbf" points="729.5,-224.5 729.5,-243.5 822.5,-243.5 822.5,-224.5 729.5,-224.5"/>
<text text-anchor="middle" x="776" y="-231.5" font-family="Helvetica,sans-Serif" font-size="10.00">odp/api/abi/pool.h</text>
</g>
<!-- Node7&#45;&gt;Node12 -->
<g id="edge14" class="edge"><title>Node7&#45;&gt;Node12</title>
<path fill="none" stroke="midnightblue" d="M388.643,-284.245C457.283,-276.806 593.121,-261.574 719.062,-244.08"/>
<polygon fill="midnightblue" stroke="midnightblue" points="719.851,-247.504 729.27,-242.654 718.882,-240.572 719.851,-247.504"/>
</g>
<!-- Node13 -->
<g id="node14" class="node"><title>Node13</title>
<g id="a_node14"><a xlink:href="api_2spec_2packet_8h.html" target="_top" xlink:title="ODP packet descriptor. ">
<polygon fill="white" stroke="black" points="479.5,-224.5 479.5,-243.5 592.5,-243.5 592.5,-224.5 479.5,-224.5"/>
<text text-anchor="middle" x="536" y="-231.5" font-family="Helvetica,sans-Serif" font-size="10.00">odp/api/spec/packet.h</text>
</a>
</g>
</g>
<!-- Node7&#45;&gt;Node13 -->
<g id="edge15" class="edge"><title>Node7&#45;&gt;Node13</title>
<path fill="none" stroke="midnightblue" d="M374.423,-280.444C407.285,-271.201 459.785,-256.436 495.974,-246.257"/>
<polygon fill="midnightblue" stroke="midnightblue" points="497.04,-249.593 505.719,-243.516 495.145,-242.855 497.04,-249.593"/>
</g>
<!-- Node13&#45;&gt;Node1 -->
<g id="edge16" class="edge"><title>Node13&#45;&gt;Node1</title>
<path fill="none" stroke="midnightblue" d="M536.987,-224.382C539.702,-198.492 546.179,-119.286 532,-56 529.897,-46.6147 525.78,-36.7878 521.825,-28.72"/>
<polygon fill="midnightblue" stroke="midnightblue" points="524.798,-26.851 517.066,-19.6071 518.593,-30.0914 524.798,-26.851"/>
</g>
<!-- Node13&#45;&gt;Node6 -->
<g id="edge23" class="edge"><title>Node13&#45;&gt;Node6</title>
<path fill="none" stroke="midnightblue" d="M493.058,-224.47C396.733,-204.978 169.887,-156.936 145,-132 117.645,-104.59 113.369,-56.5437 113.285,-29.9879"/>
<polygon fill="midnightblue" stroke="midnightblue" points="116.789,-29.8059 113.462,-19.7469 109.79,-29.685 116.789,-29.8059"/>
</g>
<!-- Node14 -->
<g id="node15" class="node"><title>Node14</title>
<g id="a_node15"><a xlink:href="api_2time_8h.html" target="_top" xlink:title="ODP time. ">
<polygon fill="white" stroke="black" points="396,-168.5 396,-187.5 474,-187.5 474,-168.5 396,-168.5"/>
<text text-anchor="middle" x="435" y="-175.5" font-family="Helvetica,sans-Serif" font-size="10.00">odp/api/time.h</text>
</a>
</g>
</g>
<!-- Node13&#45;&gt;Node14 -->
<g id="edge17" class="edge"><title>Node13&#45;&gt;Node14</title>
<path fill="none" stroke="midnightblue" d="M519.773,-224.324C503.649,-215.703 478.7,-202.364 460.036,-192.386"/>
<polygon fill="midnightblue" stroke="midnightblue" points="461.656,-189.283 451.187,-187.655 458.356,-195.456 461.656,-189.283"/>
</g>
<!-- Node14&#45;&gt;Node2 -->
<g id="edge18" class="edge"><title>Node14&#45;&gt;Node2</title>
<path fill="none" stroke="midnightblue" d="M398.556,-168.444C358.601,-159.063 294.413,-143.993 251.015,-133.804"/>
<polygon fill="midnightblue" stroke="midnightblue" points="251.809,-130.395 241.274,-131.516 250.209,-137.21 251.809,-130.395"/>
</g>
<!-- Node15 -->
<g id="node16" class="node"><title>Node15</title>
<polygon fill="white" stroke="#bfbfbf" points="351,-112.5 351,-131.5 445,-131.5 445,-112.5 351,-112.5"/>
<text text-anchor="middle" x="398" y="-119.5" font-family="Helvetica,sans-Serif" font-size="10.00">odp/api/abi/time.h</text>
</g>
<!-- Node14&#45;&gt;Node15 -->
<g id="edge19" class="edge"><title>Node14&#45;&gt;Node15</title>
<path fill="none" stroke="midnightblue" d="M428.89,-168.083C423.718,-160.534 416.154,-149.495 409.806,-140.23"/>
<polygon fill="midnightblue" stroke="midnightblue" points="412.536,-138.022 403.996,-131.751 406.761,-141.979 412.536,-138.022"/>
</g>
<!-- Node16 -->
<g id="node17" class="node"><title>Node16</title>
<g id="a_node17"><a xlink:href="api_2spec_2time_8h.html" target="_top" xlink:title="ODP time. ">
<polygon fill="white" stroke="black" points="422,-56.5 422,-75.5 524,-75.5 524,-56.5 422,-56.5"/>
<text text-anchor="middle" x="473" y="-63.5" font-family="Helvetica,sans-Serif" font-size="10.00">odp/api/spec/time.h</text>
</a>
</g>
</g>
<!-- Node14&#45;&gt;Node16 -->
<g id="edge20" class="edge"><title>Node14&#45;&gt;Node16</title>
<path fill="none" stroke="midnightblue" d="M438.941,-168.489C443.008,-159.525 449.393,-144.943 454,-132 459.544,-116.424 464.73,-98.3467 468.279,-85.2161"/>
<polygon fill="midnightblue" stroke="midnightblue" points="471.672,-86.076 470.847,-75.5133 464.905,-84.2851 471.672,-86.076"/>
</g>
<!-- Node16&#45;&gt;Node1 -->
<g id="edge21" class="edge"><title>Node16&#45;&gt;Node1</title>
<path fill="none" stroke="midnightblue" d="M479.44,-56.083C484.949,-48.4554 493.031,-37.2645 499.765,-27.9408"/>
<polygon fill="midnightblue" stroke="midnightblue" points="502.662,-29.9071 505.68,-19.7511 496.987,-25.8087 502.662,-29.9071"/>
</g>
<!-- Node16&#45;&gt;Node6 -->
<g id="edge22" class="edge"><title>Node16&#45;&gt;Node6</title>
<path fill="none" stroke="midnightblue" d="M421.688,-57.3066C347.438,-46.1736 215.139,-26.3349 174.23,-20.1785"/>
<polygon fill="midnightblue" stroke="midnightblue" points="174.621,-16.6979 164.211,-18.6679 173.577,-23.6197 174.621,-16.6979"/>
</g>
</g>
</svg>
