<?xml version="1.0" encoding="UTF-8" standalone="no"?>
<!DOCTYPE svg PUBLIC "-//W3C//DTD SVG 1.1//EN"
 "http://www.w3.org/Graphics/SVG/1.1/DTD/svg11.dtd">
<!-- Generated by graphviz version 2.36.0 (20140111.2315)
 -->
<!-- Title: traffic_mngr.h Pages: 1 -->
<svg width="1667pt" height="736pt"
 viewBox="0.00 0.00 1667.00 736.00" xmlns="http://www.w3.org/2000/svg" xmlns:xlink="http://www.w3.org/1999/xlink">
<g id="graph0" class="graph" transform="scale(1 1) rotate(0) translate(4 732)">
<title>traffic_mngr.h</title>
<polygon fill="white" stroke="none" points="-4,4 -4,-732 1663,-732 1663,4 -4,4"/>
<!-- Node0 -->
<g id="node1" class="node"><title>Node0</title>
<polygon fill="#bfbfbf" stroke="black" points="1459.5,-708.5 1459.5,-727.5 1536.5,-727.5 1536.5,-708.5 1459.5,-708.5"/>
<text text-anchor="middle" x="1498" y="-715.5" font-family="Helvetica,sans-Serif" font-size="10.00">traffic_mngr.h</text>
</g>
<!-- Node1 -->
<g id="node2" class="node"><title>Node1</title>
<g id="a_node2"><a xlink:href="visibility__begin_8h_source.html" target="_top" xlink:title="odp/visibility_begin.h">
<polygon fill="white" stroke="black" points="843.5,-0.5 843.5,-19.5 950.5,-19.5 950.5,-0.5 843.5,-0.5"/>
<text text-anchor="middle" x="897" y="-7.5" font-family="Helvetica,sans-Serif" font-size="10.00">odp/visibility_begin.h</text>
</a>
</g>
</g>
<!-- Node0&#45;&gt;Node1 -->
<g id="edge1" class="edge"><title>Node0&#45;&gt;Node1</title>
<path fill="none" stroke="midnightblue" d="M1536.56,-708.614C1584.19,-695.722 1659,-666.072 1659,-607 1659,-607 1659,-607 1659,-133 1659,-39.4078 1554.19,-77.0485 1463,-56 1415.09,-44.9429 1098.1,-23.7893 960.524,-14.9916"/>
<polygon fill="midnightblue" stroke="midnightblue" points="960.743,-11.4985 950.54,-14.3547 960.297,-18.4843 960.743,-11.4985"/>
</g>
<!-- Node2 -->
<g id="node3" class="node"><title>Node2</title>
<g id="a_node3"><a xlink:href="api_2std__types_8h.html" target="_top" xlink:title="Standard C language types and definitions for ODP. ">
<polygon fill="white" stroke="black" points="1223,-124.5 1223,-143.5 1325,-143.5 1325,-124.5 1223,-124.5"/>
<text text-anchor="middle" x="1274" y="-131.5" font-family="Helvetica,sans-Serif" font-size="10.00">odp/api/std_types.h</text>
</a>
</g>
</g>
<!-- Node0&#45;&gt;Node2 -->
<g id="edge2" class="edge"><title>Node0&#45;&gt;Node2</title>
<path fill="none" stroke="midnightblue" d="M1512.6,-708.391C1536.63,-693.26 1583.67,-659.35 1602,-616 1667.7,-460.62 1566.92,-406.441 1509,-248 1497.53,-216.629 1503.09,-200.861 1477,-180 1455.39,-162.721 1386.88,-150.001 1335.38,-142.575"/>
<polygon fill="midnightblue" stroke="midnightblue" points="1335.72,-139.088 1325.33,-141.161 1334.74,-146.02 1335.72,-139.088"/>
</g>
<!-- Node6 -->
<g id="node7" class="node"><title>Node6</title>
<g id="a_node7"><a xlink:href="visibility__end_8h_source.html" target="_top" xlink:title="odp/visibility_end.h">
<polygon fill="white" stroke="black" points="290,-0.5 290,-19.5 390,-19.5 390,-0.5 290,-0.5"/>
<text text-anchor="middle" x="340" y="-7.5" font-family="Helvetica,sans-Serif" font-size="10.00">odp/visibility_end.h</text>
</a>
</g>
</g>
<!-- Node0&#45;&gt;Node6 -->
<g id="edge71" class="edge"><title>Node0&#45;&gt;Node6</title>
<path fill="none" stroke="midnightblue" d="M1459.47,-716.244C1224.99,-711.396 0,-682.46 0,-607 0,-607 0,-607 0,-133 0,-90.6843 19.9154,-78.1024 56,-56 92.5169,-33.6328 207.64,-21.0346 279.61,-15.1573"/>
<polygon fill="midnightblue" stroke="midnightblue" points="280.21,-18.6207 289.901,-14.3385 279.655,-11.6427 280.21,-18.6207"/>
</g>
<!-- Node7 -->
<g id="node8" class="node"><title>Node7</title>
<g id="a_node8"><a xlink:href="api_2packet__io_8h.html" target="_top" xlink:title="ODP Packet IO. ">
<polygon fill="white" stroke="black" points="1325.5,-652.5 1325.5,-671.5 1426.5,-671.5 1426.5,-652.5 1325.5,-652.5"/>
<text text-anchor="middle" x="1376" y="-659.5" font-family="Helvetica,sans-Serif" font-size="10.00">odp/api/packet_io.h</text>
</a>
</g>
</g>
<!-- Node0&#45;&gt;Node7 -->
<g id="edge8" class="edge"><title>Node0&#45;&gt;Node7</title>
<path fill="none" stroke="midnightblue" d="M1478.67,-708.444C1458.68,-699.596 1427.26,-685.687 1404.44,-675.586"/>
<polygon fill="midnightblue" stroke="midnightblue" points="1405.8,-672.363 1395.24,-671.516 1402.97,-678.764 1405.8,-672.363"/>
</g>
<!-- Node3 -->
<g id="node4" class="node"><title>Node3</title>
<polygon fill="white" stroke="#bfbfbf" points="1215,-62.5 1215,-81.5 1333,-81.5 1333,-62.5 1215,-62.5"/>
<text text-anchor="middle" x="1274" y="-69.5" font-family="Helvetica,sans-Serif" font-size="10.00">odp/api/abi/std_types.h</text>
</g>
<!-- Node2&#45;&gt;Node3 -->
<g id="edge3" class="edge"><title>Node2&#45;&gt;Node3</title>
<path fill="none" stroke="midnightblue" d="M1274,-124.403C1274,-115.938 1274,-102.728 1274,-91.8199"/>
<polygon fill="midnightblue" stroke="midnightblue" points="1277.5,-91.5806 1274,-81.5806 1270.5,-91.5806 1277.5,-91.5806"/>
</g>
<!-- Node4 -->
<g id="node5" class="node"><title>Node4</title>
<g id="a_node5"><a xlink:href="api_2spec_2std__types_8h.html" target="_top" xlink:title="Standard C language types and definitions for ODP. ">
<polygon fill="white" stroke="black" points="1030,-62.5 1030,-81.5 1156,-81.5 1156,-62.5 1030,-62.5"/>
<text text-anchor="middle" x="1093" y="-69.5" font-family="Helvetica,sans-Serif" font-size="10.00">odp/api/spec/std_types.h</text>
</a>
</g>
</g>
<!-- Node2&#45;&gt;Node4 -->
<g id="edge4" class="edge"><title>Node2&#45;&gt;Node4</title>
<path fill="none" stroke="midnightblue" d="M1248.07,-124.403C1216.75,-114.022 1163.91,-96.5062 1128.74,-84.849"/>
<polygon fill="midnightblue" stroke="midnightblue" points="1129.48,-81.405 1118.88,-81.5806 1127.28,-88.0494 1129.48,-81.405"/>
</g>
<!-- Node4&#45;&gt;Node1 -->
<g id="edge5" class="edge"><title>Node4&#45;&gt;Node1</title>
<path fill="none" stroke="midnightblue" d="M1064.92,-62.4035C1030.71,-51.9331 972.803,-34.2049 934.73,-22.5501"/>
<polygon fill="midnightblue" stroke="midnightblue" points="935.616,-19.1611 925.03,-19.5806 933.567,-25.8545 935.616,-19.1611"/>
</g>
<!-- Node5 -->
<g id="node6" class="node"><title>Node5</title>
<polygon fill="white" stroke="#bfbfbf" points="1068.5,-0.5 1068.5,-19.5 1117.5,-19.5 1117.5,-0.5 1068.5,-0.5"/>
<text text-anchor="middle" x="1093" y="-7.5" font-family="Helvetica,sans-Serif" font-size="10.00">stdint.h</text>
</g>
<!-- Node4&#45;&gt;Node5 -->
<g id="edge6" class="edge"><title>Node4&#45;&gt;Node5</title>
<path fill="none" stroke="midnightblue" d="M1093,-62.4035C1093,-53.9381 1093,-40.7283 1093,-29.8199"/>
<polygon fill="midnightblue" stroke="midnightblue" points="1096.5,-29.5806 1093,-19.5806 1089.5,-29.5806 1096.5,-29.5806"/>
</g>
<!-- Node4&#45;&gt;Node6 -->
<g id="edge7" class="edge"><title>Node4&#45;&gt;Node6</title>
<path fill="none" stroke="midnightblue" d="M1029.77,-65.9619C886.787,-54.5686 540.153,-26.9484 400.146,-15.7925"/>
<polygon fill="midnightblue" stroke="midnightblue" points="400.276,-12.2919 390.03,-14.9864 399.72,-19.2697 400.276,-12.2919"/>
</g>
<!-- Node7&#45;&gt;Node2 -->
<g id="edge9" class="edge"><title>Node7&#45;&gt;Node2</title>
<path fill="none" stroke="midnightblue" d="M1384.94,-652.198C1412.62,-623.976 1495,-532.144 1495,-439 1495,-439 1495,-439 1495,-257 1495,-183.783 1400.88,-154.171 1335.49,-142.432"/>
<polygon fill="midnightblue" stroke="midnightblue" points="1335.7,-138.919 1325.26,-140.698 1334.53,-145.82 1335.7,-138.919"/>
</g>
<!-- Node8 -->
<g id="node9" class="node"><title>Node8</title>
<polygon fill="white" stroke="#bfbfbf" points="1342.5,-248.5 1342.5,-267.5 1435.5,-267.5 1435.5,-248.5 1342.5,-248.5"/>
<text text-anchor="middle" x="1389" y="-255.5" font-family="Helvetica,sans-Serif" font-size="10.00">odp/api/abi/pool.h</text>
</g>
<!-- Node7&#45;&gt;Node8 -->
<g id="edge10" class="edge"><title>Node7&#45;&gt;Node8</title>
<path fill="none" stroke="midnightblue" d="M1380.62,-652.485C1392.85,-629.426 1425.85,-563.495 1437,-504 1452.94,-418.958 1414.83,-317.571 1397.28,-277.039"/>
<polygon fill="midnightblue" stroke="midnightblue" points="1400.47,-275.605 1393.21,-267.889 1394.07,-278.449 1400.47,-275.605"/>
</g>
<!-- Node9 -->
<g id="node10" class="node"><title>Node9</title>
<polygon fill="white" stroke="#bfbfbf" points="1461,-596.5 1461,-615.5 1593,-615.5 1593,-596.5 1461,-596.5"/>
<text text-anchor="middle" x="1527" y="-603.5" font-family="Helvetica,sans-Serif" font-size="10.00">odp/api/abi/classification.h</text>
</g>
<!-- Node7&#45;&gt;Node9 -->
<g id="edge11" class="edge"><title>Node7&#45;&gt;Node9</title>
<path fill="none" stroke="midnightblue" d="M1399.93,-652.444C1425.22,-643.399 1465.3,-629.064 1493.68,-618.916"/>
<polygon fill="midnightblue" stroke="midnightblue" points="1494.95,-622.179 1503.19,-615.516 1492.59,-615.588 1494.95,-622.179"/>
</g>
<!-- Node10 -->
<g id="node11" class="node"><title>Node10</title>
<polygon fill="white" stroke="#bfbfbf" points="104,-248.5 104,-267.5 208,-267.5 208,-248.5 104,-248.5"/>
<text text-anchor="middle" x="156" y="-255.5" font-family="Helvetica,sans-Serif" font-size="10.00">odp/api/abi/packet.h</text>
</g>
<!-- Node7&#45;&gt;Node10 -->
<g id="edge12" class="edge"><title>Node7&#45;&gt;Node10</title>
<path fill="none" stroke="midnightblue" d="M1325.29,-661.369C1176.99,-661.883 731.396,-659.414 365,-616 223.908,-599.282 52,-693.079 52,-551 52,-551 52,-551 52,-493 52,-404.886 114.341,-312.946 142.49,-275.922"/>
<polygon fill="midnightblue" stroke="midnightblue" points="145.484,-277.774 148.852,-267.729 139.955,-273.481 145.484,-277.774"/>
</g>
<!-- Node11 -->
<g id="node12" class="node"><title>Node11</title>
<polygon fill="white" stroke="#bfbfbf" points="503.5,-248.5 503.5,-267.5 620.5,-267.5 620.5,-248.5 503.5,-248.5"/>
<text text-anchor="middle" x="562" y="-255.5" font-family="Helvetica,sans-Serif" font-size="10.00">odp/api/abi/packet_io.h</text>
</g>
<!-- Node7&#45;&gt;Node11 -->
<g id="edge13" class="edge"><title>Node7&#45;&gt;Node11</title>
<path fill="none" stroke="midnightblue" d="M1325.17,-659.087C1095.51,-650.118 166,-610.161 166,-551 166,-551 166,-551 166,-381 166,-345.458 401.993,-292.086 509.619,-269.593"/>
<polygon fill="midnightblue" stroke="midnightblue" points="510.542,-272.976 519.621,-267.515 509.118,-266.123 510.542,-272.976"/>
</g>
<!-- Node12 -->
<g id="node13" class="node"><title>Node12</title>
<polygon fill="white" stroke="#bfbfbf" points="1327.5,-484.5 1327.5,-503.5 1428.5,-503.5 1428.5,-484.5 1327.5,-484.5"/>
<text text-anchor="middle" x="1378" y="-491.5" font-family="Helvetica,sans-Serif" font-size="10.00">odp/api/abi/queue.h</text>
</g>
<!-- Node7&#45;&gt;Node12 -->
<g id="edge14" class="edge"><title>Node7&#45;&gt;Node12</title>
<path fill="none" stroke="midnightblue" d="M1376.11,-652.075C1376.42,-625.945 1377.35,-549.211 1377.78,-513.577"/>
<polygon fill="midnightblue" stroke="midnightblue" points="1381.28,-513.61 1377.9,-503.568 1374.28,-513.525 1381.28,-513.61"/>
</g>
<!-- Node13 -->
<g id="node14" class="node"><title>Node13</title>
<g id="a_node14"><a xlink:href="api_2spec_2packet__io_8h.html" target="_top" xlink:title="ODP Packet IO. ">
<polygon fill="white" stroke="black" points="686.5,-596.5 686.5,-615.5 811.5,-615.5 811.5,-596.5 686.5,-596.5"/>
<text text-anchor="middle" x="749" y="-603.5" font-family="Helvetica,sans-Serif" font-size="10.00">odp/api/spec/packet_io.h</text>
</a>
</g>
</g>
<!-- Node7&#45;&gt;Node13 -->
<g id="edge15" class="edge"><title>Node7&#45;&gt;Node13</title>
<path fill="none" stroke="midnightblue" d="M1325.49,-656.649C1214.82,-647.119 950.619,-624.364 821.933,-613.281"/>
<polygon fill="midnightblue" stroke="midnightblue" points="822.046,-609.778 811.782,-612.407 821.445,-616.752 822.046,-609.778"/>
</g>
<!-- Node13&#45;&gt;Node1 -->
<g id="edge16" class="edge"><title>Node13&#45;&gt;Node1</title>
<path fill="none" stroke="midnightblue" d="M811.524,-604.76C925.896,-603.423 1163.79,-596.222 1237,-560 1261.56,-547.847 1571,-224.404 1571,-197 1571,-197 1571,-197 1571,-133 1571,-25.6227 1446.96,-78.6542 1342,-56 1271.02,-40.6805 1066.25,-23.7275 961.052,-15.7039"/>
<polygon fill="midnightblue" stroke="midnightblue" points="961.119,-12.199 950.883,-14.9324 960.59,-19.1789 961.119,-12.199"/>
</g>
<!-- Node13&#45;&gt;Node6 -->
<g id="edge70" class="edge"><title>Node13&#45;&gt;Node6</title>
<path fill="none" stroke="midnightblue" d="M686.447,-603.474C548.202,-599.609 225.665,-587.705 185,-560 61.9618,-476.176 38,-407.879 38,-259 38,-259 38,-259 38,-133 38,-71.8586 96.0361,-80.6234 152,-56 192.715,-38.0861 241.663,-26.6593 279.407,-19.8042"/>
<polygon fill="midnightblue" stroke="midnightblue" points="280.495,-23.1668 289.739,-17.9904 279.284,-16.2723 280.495,-23.1668"/>
</g>
<!-- Node14 -->
<g id="node15" class="node"><title>Node14</title>
<g id="a_node15"><a xlink:href="deprecated_8h.html" target="_top" xlink:title="Control deprecated API definitions. ">
<polygon fill="white" stroke="black" points="378.5,-248.5 378.5,-267.5 485.5,-267.5 485.5,-248.5 378.5,-248.5"/>
<text text-anchor="middle" x="432" y="-255.5" font-family="Helvetica,sans-Serif" font-size="10.00">odp/api/deprecated.h</text>
</a>
</g>
</g>
<!-- Node13&#45;&gt;Node14 -->
<g id="edge17" class="edge"><title>Node13&#45;&gt;Node14</title>
<path fill="none" stroke="midnightblue" d="M686.339,-596.666C592.409,-582.393 426,-549.426 426,-495 426,-495 426,-495 426,-381 426,-344.37 428.732,-301.627 430.509,-277.698"/>
<polygon fill="midnightblue" stroke="midnightblue" points="434.01,-277.811 431.288,-267.572 427.031,-277.274 434.01,-277.811"/>
</g>
<!-- Node16 -->
<g id="node17" class="node"><title>Node16</title>
<g id="a_node17"><a xlink:href="packet__io__stats_8h.html" target="_top" xlink:title="ODP packet IO stats. ">
<polygon fill="white" stroke="black" points="194,-540.5 194,-559.5 322,-559.5 322,-540.5 194,-540.5"/>
<text text-anchor="middle" x="258" y="-547.5" font-family="Helvetica,sans-Serif" font-size="10.00">odp/api/packet_io_stats.h</text>
</a>
</g>
</g>
<!-- Node13&#45;&gt;Node16 -->
<g id="edge21" class="edge"><title>Node13&#45;&gt;Node16</title>
<path fill="none" stroke="midnightblue" d="M686.365,-598.3C605.434,-589.615 460.179,-573.929 336,-560 334.882,-559.875 333.756,-559.748 332.622,-559.62"/>
<polygon fill="midnightblue" stroke="midnightblue" points="332.6,-556.096 322.269,-558.448 331.812,-563.051 332.6,-556.096"/>
</g>
<!-- Node18 -->
<g id="node19" class="node"><title>Node18</title>
<g id="a_node19"><a xlink:href="api_2queue_8h.html" target="_top" xlink:title="ODP queue. ">
<polygon fill="white" stroke="black" points="1142,-540.5 1142,-559.5 1228,-559.5 1228,-540.5 1142,-540.5"/>
<text text-anchor="middle" x="1185" y="-547.5" font-family="Helvetica,sans-Serif" font-size="10.00">odp/api/queue.h</text>
</a>
</g>
</g>
<!-- Node13&#45;&gt;Node18 -->
<g id="edge25" class="edge"><title>Node13&#45;&gt;Node18</title>
<path fill="none" stroke="midnightblue" d="M811.933,-597.206C898.096,-586.534 1051.27,-567.563 1131.93,-557.572"/>
<polygon fill="midnightblue" stroke="midnightblue" points="1132.38,-561.044 1141.88,-556.341 1131.52,-554.097 1132.38,-561.044"/>
</g>
<!-- Node24 -->
<g id="node25" class="node"><title>Node24</title>
<g id="a_node25"><a xlink:href="api_2packet_8h.html" target="_top" xlink:title="ODP packet descriptor. ">
<polygon fill="white" stroke="black" points="991.5,-310.5 991.5,-329.5 1080.5,-329.5 1080.5,-310.5 991.5,-310.5"/>
<text text-anchor="middle" x="1036" y="-317.5" font-family="Helvetica,sans-Serif" font-size="10.00">odp/api/packet.h</text>
</a>
</g>
</g>
<!-- Node13&#45;&gt;Node24 -->
<g id="edge69" class="edge"><title>Node13&#45;&gt;Node24</title>
<path fill="none" stroke="midnightblue" d="M811.849,-596.571C905.557,-582.218 1071,-549.201 1071,-495 1071,-495 1071,-495 1071,-437 1071,-401.044 1055.4,-361.389 1045.03,-339.004"/>
<polygon fill="midnightblue" stroke="midnightblue" points="1048.06,-337.246 1040.58,-329.751 1041.76,-340.28 1048.06,-337.246"/>
</g>
<!-- Node26 -->
<g id="node27" class="node"><title>Node26</title>
<g id="a_node27"><a xlink:href="api_2time_8h.html" target="_top" xlink:title="ODP time. ">
<polygon fill="white" stroke="black" points="488,-186.5 488,-205.5 566,-205.5 566,-186.5 488,-186.5"/>
<text text-anchor="middle" x="527" y="-193.5" font-family="Helvetica,sans-Serif" font-size="10.00">odp/api/time.h</text>
</a>
</g>
</g>
<!-- Node13&#45;&gt;Node26 -->
<g id="edge68" class="edge"><title>Node13&#45;&gt;Node26</title>
<path fill="none" stroke="midnightblue" d="M686.217,-600.71C573.853,-591.294 350,-563.891 350,-495 350,-495 350,-495 350,-319 350,-286.334 346.495,-271.677 369,-248 397.195,-218.336 442.717,-205.889 477.673,-200.686"/>
<polygon fill="midnightblue" stroke="midnightblue" points="478.241,-204.141 487.689,-199.347 477.314,-197.203 478.241,-204.141"/>
</g>
<!-- Node15 -->
<g id="node16" class="node"><title>Node15</title>
<g id="a_node16"><a xlink:href="spec_2deprecated_8h.html" target="_top" xlink:title="Macro for deprecated API definitions. ">
<polygon fill="white" stroke="black" points="545.5,-62.5 545.5,-81.5 676.5,-81.5 676.5,-62.5 545.5,-62.5"/>
<text text-anchor="middle" x="611" y="-69.5" font-family="Helvetica,sans-Serif" font-size="10.00">odp/api/spec/deprecated.h</text>
</a>
</g>
</g>
<!-- Node14&#45;&gt;Node15 -->
<g id="edge18" class="edge"><title>Node14&#45;&gt;Node15</title>
<path fill="none" stroke="midnightblue" d="M474.369,-248.423C511.297,-240.123 561.064,-226.672 575,-212 606.676,-178.651 611.392,-121.169 611.556,-91.6643"/>
<polygon fill="midnightblue" stroke="midnightblue" points="615.054,-91.4723 611.433,-81.5155 608.055,-91.5571 615.054,-91.4723"/>
</g>
<!-- Node15&#45;&gt;Node1 -->
<g id="edge19" class="edge"><title>Node15&#45;&gt;Node1</title>
<path fill="none" stroke="midnightblue" d="M651.673,-62.4672C702.922,-51.7156 790.994,-33.239 846.498,-21.5947"/>
<polygon fill="midnightblue" stroke="midnightblue" points="847.399,-24.9821 856.467,-19.5034 845.962,-18.1312 847.399,-24.9821"/>
</g>
<!-- Node15&#45;&gt;Node6 -->
<g id="edge20" class="edge"><title>Node15&#45;&gt;Node6</title>
<path fill="none" stroke="midnightblue" d="M572.46,-62.4672C524,-51.7379 440.792,-33.3157 388.181,-21.6673"/>
<polygon fill="midnightblue" stroke="midnightblue" points="388.927,-18.2479 378.407,-19.5034 387.414,-25.0824 388.927,-18.2479"/>
</g>
<!-- Node17 -->
<g id="node18" class="node"><title>Node17</title>
<g id="a_node18"><a xlink:href="spec_2packet__io__stats_8h.html" target="_top" xlink:title="ODP Packet IO. ">
<polygon fill="white" stroke="black" points="189,-57 189,-87 293,-87 293,-57 189,-57"/>
<text text-anchor="start" x="197" y="-75" font-family="Helvetica,sans-Serif" font-size="10.00">odp/api/spec/packet</text>
<text text-anchor="middle" x="241" y="-64" font-family="Helvetica,sans-Serif" font-size="10.00">_io_stats.h</text>
</a>
</g>
</g>
<!-- Node16&#45;&gt;Node17 -->
<g id="edge22" class="edge"><title>Node16&#45;&gt;Node17</title>
<path fill="none" stroke="midnightblue" d="M250.403,-540.112C222.684,-507.016 126.942,-386.726 95,-268 74.778,-192.837 159.093,-124.961 208.088,-92.7422"/>
<polygon fill="midnightblue" stroke="midnightblue" points="210.273,-95.4988 216.792,-87.1475 206.488,-89.6102 210.273,-95.4988"/>
</g>
<!-- Node17&#45;&gt;Node1 -->
<g id="edge23" class="edge"><title>Node17&#45;&gt;Node1</title>
<path fill="none" stroke="midnightblue" d="M293.024,-66.2417C411.93,-55.3662 703.303,-28.7162 832.967,-16.8566"/>
<polygon fill="midnightblue" stroke="midnightblue" points="833.5,-20.3227 843.139,-15.9263 832.862,-13.3517 833.5,-20.3227"/>
</g>
<!-- Node17&#45;&gt;Node6 -->
<g id="edge24" class="edge"><title>Node17&#45;&gt;Node6</title>
<path fill="none" stroke="midnightblue" d="M264.211,-56.9327C280.168,-47.2619 301.259,-34.4793 317.14,-24.8546"/>
<polygon fill="midnightblue" stroke="midnightblue" points="319.072,-27.7763 325.81,-19.6 315.444,-21.7899 319.072,-27.7763"/>
</g>
<!-- Node18&#45;&gt;Node2 -->
<g id="edge26" class="edge"><title>Node18&#45;&gt;Node2</title>
<path fill="none" stroke="midnightblue" d="M1190.28,-540.231C1200.73,-522.043 1223,-478.601 1223,-439 1223,-439 1223,-439 1223,-381 1223,-351.344 1285.79,-296.497 1294,-268 1305.54,-227.949 1291.26,-179.089 1281.56,-153.176"/>
<polygon fill="midnightblue" stroke="midnightblue" points="1284.7,-151.586 1277.77,-143.568 1278.19,-154.154 1284.7,-151.586"/>
</g>
<!-- Node18&#45;&gt;Node8 -->
<g id="edge30" class="edge"><title>Node18&#45;&gt;Node8</title>
<path fill="none" stroke="midnightblue" d="M1198.2,-540.46C1209.84,-532.33 1226.53,-519.116 1237,-504 1254.53,-478.681 1261,-469.795 1261,-439 1261,-439 1261,-439 1261,-381 1261,-327.228 1320.92,-289.926 1358.77,-271.728"/>
<polygon fill="midnightblue" stroke="midnightblue" points="1360.26,-274.894 1367.86,-267.515 1357.32,-268.542 1360.26,-274.894"/>
</g>
<!-- Node18&#45;&gt;Node12 -->
<g id="edge28" class="edge"><title>Node18&#45;&gt;Node12</title>
<path fill="none" stroke="midnightblue" d="M1215.58,-540.444C1248.61,-531.201 1301.39,-516.436 1337.77,-506.257"/>
<polygon fill="midnightblue" stroke="midnightblue" points="1338.87,-509.582 1347.56,-503.516 1336.99,-502.84 1338.87,-509.582"/>
</g>
<!-- Node19 -->
<g id="node20" class="node"><title>Node19</title>
<polygon fill="white" stroke="#bfbfbf" points="1186.5,-248.5 1186.5,-267.5 1285.5,-267.5 1285.5,-248.5 1186.5,-248.5"/>
<text text-anchor="middle" x="1236" y="-255.5" font-family="Helvetica,sans-Serif" font-size="10.00">odp/api/abi/event.h</text>
</g>
<!-- Node18&#45;&gt;Node19 -->
<g id="edge27" class="edge"><title>Node18&#45;&gt;Node19</title>
<path fill="none" stroke="midnightblue" d="M1185,-540.442C1185,-521.936 1185,-476.812 1185,-439 1185,-439 1185,-439 1185,-381 1185,-341.027 1208.59,-298.989 1223.69,-276.189"/>
<polygon fill="midnightblue" stroke="midnightblue" points="1226.77,-277.883 1229.54,-267.657 1221,-273.922 1226.77,-277.883"/>
</g>
<!-- Node20 -->
<g id="node21" class="node"><title>Node20</title>
<polygon fill="white" stroke="#bfbfbf" points="1068,-248.5 1068,-267.5 1168,-267.5 1168,-248.5 1068,-248.5"/>
<text text-anchor="middle" x="1118" y="-255.5" font-family="Helvetica,sans-Serif" font-size="10.00">odp/api/abi/buffer.h</text>
</g>
<!-- Node18&#45;&gt;Node20 -->
<g id="edge29" class="edge"><title>Node18&#45;&gt;Node20</title>
<path fill="none" stroke="midnightblue" d="M1179.72,-540.231C1169.27,-522.043 1147,-478.601 1147,-439 1147,-439 1147,-439 1147,-381 1147,-343.241 1133.69,-300.648 1125.1,-277.101"/>
<polygon fill="midnightblue" stroke="midnightblue" points="1128.36,-275.827 1121.56,-267.709 1121.82,-278.301 1128.36,-275.827"/>
</g>
<!-- Node21 -->
<g id="node22" class="node"><title>Node21</title>
<g id="a_node22"><a xlink:href="api_2spec_2queue_8h.html" target="_top" xlink:title="ODP queue. ">
<polygon fill="white" stroke="black" points="852,-484.5 852,-503.5 962,-503.5 962,-484.5 852,-484.5"/>
<text text-anchor="middle" x="907" y="-491.5" font-family="Helvetica,sans-Serif" font-size="10.00">odp/api/spec/queue.h</text>
</a>
</g>
</g>
<!-- Node18&#45;&gt;Node21 -->
<g id="edge31" class="edge"><title>Node18&#45;&gt;Node21</title>
<path fill="none" stroke="midnightblue" d="M1141.87,-540.622C1093.15,-531.159 1013.81,-515.748 961.015,-505.492"/>
<polygon fill="midnightblue" stroke="midnightblue" points="961.637,-502.048 951.153,-503.577 960.302,-508.919 961.637,-502.048"/>
</g>
<!-- Node21&#45;&gt;Node1 -->
<g id="edge32" class="edge"><title>Node21&#45;&gt;Node1</title>
<path fill="none" stroke="midnightblue" d="M908.167,-484.462C910.913,-464.646 918.147,-414.014 926,-372 940.624,-293.765 964,-276.59 964,-197 964,-197 964,-197 964,-133 964,-90.5745 932.486,-48.9588 912.685,-26.997"/>
<polygon fill="midnightblue" stroke="midnightblue" points="915.143,-24.5009 905.759,-19.5816 910.027,-29.2789 915.143,-24.5009"/>
</g>
<!-- Node21&#45;&gt;Node6 -->
<g id="edge67" class="edge"><title>Node21&#45;&gt;Node6</title>
<path fill="none" stroke="midnightblue" d="M851.757,-485.748C723.778,-466.044 404.618,-399.78 230,-212 179.522,-157.717 125.829,-114.773 171,-56 184.404,-38.5604 236.767,-26.4471 279.698,-19.2172"/>
<polygon fill="midnightblue" stroke="midnightblue" points="280.508,-22.6316 289.817,-17.5723 279.385,-15.7223 280.508,-22.6316"/>
</g>
<!-- Node22 -->
<g id="node23" class="node"><title>Node22</title>
<g id="a_node23"><a xlink:href="api_2event_8h.html" target="_top" xlink:title="ODP event. ">
<polygon fill="white" stroke="black" points="947.5,-428.5 947.5,-447.5 1030.5,-447.5 1030.5,-428.5 947.5,-428.5"/>
<text text-anchor="middle" x="989" y="-435.5" font-family="Helvetica,sans-Serif" font-size="10.00">odp/api/event.h</text>
</a>
</g>
</g>
<!-- Node21&#45;&gt;Node22 -->
<g id="edge33" class="edge"><title>Node21&#45;&gt;Node22</title>
<path fill="none" stroke="midnightblue" d="M920.175,-484.324C932.847,-475.979 952.233,-463.212 967.206,-453.352"/>
<polygon fill="midnightblue" stroke="midnightblue" points="969.431,-456.078 975.858,-447.655 965.581,-450.231 969.431,-456.078"/>
</g>
<!-- Node29 -->
<g id="node30" class="node"><title>Node29</title>
<g id="a_node30"><a xlink:href="queue__types_8h.html" target="_top" xlink:title="ODP queue types. ">
<polygon fill="white" stroke="black" points="783.5,-305 783.5,-335 884.5,-335 884.5,-305 783.5,-305"/>
<text text-anchor="start" x="791.5" y="-323" font-family="Helvetica,sans-Serif" font-size="10.00">odp/api/spec/queue</text>
<text text-anchor="middle" x="834" y="-312" font-family="Helvetica,sans-Serif" font-size="10.00">_types.h</text>
</a>
</g>
</g>
<!-- Node21&#45;&gt;Node29 -->
<g id="edge54" class="edge"><title>Node21&#45;&gt;Node29</title>
<path fill="none" stroke="midnightblue" d="M903.28,-484.234C892.398,-458.595 860.365,-383.119 843.948,-344.438"/>
<polygon fill="midnightblue" stroke="midnightblue" points="847.076,-342.849 839.947,-335.012 840.632,-345.584 847.076,-342.849"/>
</g>
<!-- Node22&#45;&gt;Node19 -->
<g id="edge34" class="edge"><title>Node22&#45;&gt;Node19</title>
<path fill="none" stroke="midnightblue" d="M1000.9,-428.391C1013.39,-419.346 1033.59,-404.699 1051,-392 1104.43,-353.02 1117.14,-342.382 1171,-304 1185.57,-293.617 1202.16,-282.139 1214.93,-273.375"/>
<polygon fill="midnightblue" stroke="midnightblue" points="1217.19,-276.064 1223.47,-267.527 1213.24,-270.288 1217.19,-276.064"/>
</g>
<!-- Node23 -->
<g id="node24" class="node"><title>Node23</title>
<g id="a_node24"><a xlink:href="api_2spec_2event_8h.html" target="_top" xlink:title="ODP event. ">
<polygon fill="white" stroke="black" points="935.5,-372.5 935.5,-391.5 1042.5,-391.5 1042.5,-372.5 935.5,-372.5"/>
<text text-anchor="middle" x="989" y="-379.5" font-family="Helvetica,sans-Serif" font-size="10.00">odp/api/spec/event.h</text>
</a>
</g>
</g>
<!-- Node22&#45;&gt;Node23 -->
<g id="edge35" class="edge"><title>Node22&#45;&gt;Node23</title>
<path fill="none" stroke="midnightblue" d="M989,-428.083C989,-421.006 989,-410.861 989,-401.986"/>
<polygon fill="midnightblue" stroke="midnightblue" points="992.5,-401.751 989,-391.751 985.5,-401.751 992.5,-401.751"/>
</g>
<!-- Node23&#45;&gt;Node1 -->
<g id="edge36" class="edge"><title>Node23&#45;&gt;Node1</title>
<path fill="none" stroke="midnightblue" d="M987.261,-372.419C985.528,-363.399 982.987,-348.77 982,-336 980.904,-321.82 980.688,-318.162 982,-304 986.463,-255.827 1002,-245.379 1002,-197 1002,-197 1002,-197 1002,-133 1002,-97.154 1000.62,-83.8069 978,-56 966.23,-41.532 948.508,-30.939 932.639,-23.6786"/>
<polygon fill="midnightblue" stroke="midnightblue" points="933.638,-20.2992 923.067,-19.5838 930.884,-26.735 933.638,-20.2992"/>
</g>
<!-- Node23&#45;&gt;Node6 -->
<g id="edge53" class="edge"><title>Node23&#45;&gt;Node6</title>
<path fill="none" stroke="midnightblue" d="M935.273,-378.968C799.384,-372.666 447.236,-348.731 369,-268 304.914,-201.87 324.898,-76.7519 335.381,-29.6033"/>
<polygon fill="midnightblue" stroke="midnightblue" points="338.849,-30.143 337.728,-19.6077 332.035,-28.543 338.849,-30.143"/>
</g>
<!-- Node23&#45;&gt;Node24 -->
<g id="edge37" class="edge"><title>Node23&#45;&gt;Node24</title>
<path fill="none" stroke="midnightblue" d="M995.734,-372.403C1002.78,-363.403 1014.03,-349.041 1022.85,-337.782"/>
<polygon fill="midnightblue" stroke="midnightblue" points="1025.87,-339.611 1029.28,-329.581 1020.36,-335.295 1025.87,-339.611"/>
</g>
<!-- Node24&#45;&gt;Node2 -->
<g id="edge38" class="edge"><title>Node24&#45;&gt;Node2</title>
<path fill="none" stroke="midnightblue" d="M1036.74,-310.112C1038.37,-295.56 1043.47,-266.431 1059,-248 1104.75,-193.692 1183.34,-161.936 1231.77,-146.562"/>
<polygon fill="midnightblue" stroke="midnightblue" points="1232.81,-149.906 1241.33,-143.616 1230.75,-143.217 1232.81,-149.906"/>
</g>
<!-- Node24&#45;&gt;Node8 -->
<g id="edge43" class="edge"><title>Node24&#45;&gt;Node8</title>
<path fill="none" stroke="midnightblue" d="M1080.71,-311.401C1144.72,-300.521 1262.46,-280.508 1332.45,-268.612"/>
<polygon fill="midnightblue" stroke="midnightblue" points="1333.14,-272.044 1342.41,-266.918 1331.97,-265.143 1333.14,-272.044"/>
</g>
<!-- Node24&#45;&gt;Node10 -->
<g id="edge41" class="edge"><title>Node24&#45;&gt;Node10</title>
<path fill="none" stroke="midnightblue" d="M991.283,-313.804C963.111,-310.656 925.962,-306.734 893,-304 643.552,-283.312 345.868,-268.003 218.651,-261.904"/>
<polygon fill="midnightblue" stroke="midnightblue" points="218.486,-258.392 208.331,-261.411 218.153,-265.384 218.486,-258.392"/>
</g>
<!-- Node24&#45;&gt;Node11 -->
<g id="edge40" class="edge"><title>Node24&#45;&gt;Node11</title>
<path fill="none" stroke="midnightblue" d="M991.417,-313.545C918.35,-304.575 768.266,-286.032 631.095,-268.264"/>
<polygon fill="midnightblue" stroke="midnightblue" points="631.189,-264.747 620.822,-266.932 630.289,-271.689 631.189,-264.747"/>
</g>
<!-- Node24&#45;&gt;Node19 -->
<g id="edge39" class="edge"><title>Node24&#45;&gt;Node19</title>
<path fill="none" stroke="midnightblue" d="M1064.66,-310.403C1099.56,-299.933 1158.65,-282.205 1197.5,-270.55"/>
<polygon fill="midnightblue" stroke="midnightblue" points="1198.83,-273.807 1207.4,-267.581 1196.81,-267.102 1198.83,-273.807"/>
</g>
<!-- Node24&#45;&gt;Node20 -->
<g id="edge42" class="edge"><title>Node24&#45;&gt;Node20</title>
<path fill="none" stroke="midnightblue" d="M1047.75,-310.403C1060.9,-300.78 1082.43,-285.024 1098.2,-273.489"/>
<polygon fill="midnightblue" stroke="midnightblue" points="1100.27,-276.31 1106.27,-267.581 1096.14,-270.661 1100.27,-276.31"/>
</g>
<!-- Node25 -->
<g id="node26" class="node"><title>Node25</title>
<g id="a_node26"><a xlink:href="api_2spec_2packet_8h.html" target="_top" xlink:title="ODP packet descriptor. ">
<polygon fill="white" stroke="black" points="638.5,-248.5 638.5,-267.5 751.5,-267.5 751.5,-248.5 638.5,-248.5"/>
<text text-anchor="middle" x="695" y="-255.5" font-family="Helvetica,sans-Serif" font-size="10.00">odp/api/spec/packet.h</text>
</a>
</g>
</g>
<!-- Node24&#45;&gt;Node25 -->
<g id="edge44" class="edge"><title>Node24&#45;&gt;Node25</title>
<path fill="none" stroke="midnightblue" d="M991.42,-311.156C930.461,-300.43 820.981,-281.167 753.493,-269.292"/>
<polygon fill="midnightblue" stroke="midnightblue" points="753.899,-265.81 743.444,-267.524 752.686,-272.704 753.899,-265.81"/>
</g>
<!-- Node25&#45;&gt;Node1 -->
<g id="edge45" class="edge"><title>Node25&#45;&gt;Node1</title>
<path fill="none" stroke="midnightblue" d="M706.091,-248.209C734.97,-224.844 813.534,-158.176 861,-88 873.629,-69.3288 884.004,-45.525 890.319,-29.3611"/>
<polygon fill="midnightblue" stroke="midnightblue" points="893.765,-30.14 894.019,-19.5482 887.216,-27.6699 893.765,-30.14"/>
</g>
<!-- Node25&#45;&gt;Node6 -->
<g id="edge52" class="edge"><title>Node25&#45;&gt;Node6</title>
<path fill="none" stroke="midnightblue" d="M642.575,-248.47C588.449,-239.238 507.943,-224.202 479,-212 429.136,-190.978 409.806,-187.781 378,-144 352.559,-108.98 344.105,-57.3393 341.33,-29.8447"/>
<polygon fill="midnightblue" stroke="midnightblue" points="344.798,-29.3223 340.455,-19.6585 337.824,-29.9214 344.798,-29.3223"/>
</g>
<!-- Node25&#45;&gt;Node26 -->
<g id="edge46" class="edge"><title>Node25&#45;&gt;Node26</title>
<path fill="none" stroke="midnightblue" d="M670.93,-248.403C641.987,-238.067 593.238,-220.656 560.598,-208.999"/>
<polygon fill="midnightblue" stroke="midnightblue" points="561.62,-205.648 551.026,-205.581 559.266,-212.24 561.62,-205.648"/>
</g>
<!-- Node26&#45;&gt;Node2 -->
<g id="edge47" class="edge"><title>Node26&#45;&gt;Node2</title>
<path fill="none" stroke="midnightblue" d="M566.26,-187.261C580.883,-184.614 597.653,-181.856 613,-180 832.751,-153.43 1095.64,-141.377 1212.64,-137.031"/>
<polygon fill="midnightblue" stroke="midnightblue" points="1212.96,-140.521 1222.82,-136.658 1212.7,-133.526 1212.96,-140.521"/>
</g>
<!-- Node27 -->
<g id="node28" class="node"><title>Node27</title>
<polygon fill="white" stroke="#bfbfbf" points="387,-124.5 387,-143.5 481,-143.5 481,-124.5 387,-124.5"/>
<text text-anchor="middle" x="434" y="-131.5" font-family="Helvetica,sans-Serif" font-size="10.00">odp/api/abi/time.h</text>
</g>
<!-- Node26&#45;&gt;Node27 -->
<g id="edge48" class="edge"><title>Node26&#45;&gt;Node27</title>
<path fill="none" stroke="midnightblue" d="M513.675,-186.403C498.62,-176.691 473.884,-160.732 455.963,-149.17"/>
<polygon fill="midnightblue" stroke="midnightblue" points="457.6,-146.061 447.3,-143.581 453.805,-151.943 457.6,-146.061"/>
</g>
<!-- Node28 -->
<g id="node29" class="node"><title>Node28</title>
<g id="a_node29"><a xlink:href="api_2spec_2time_8h.html" target="_top" xlink:title="ODP time. ">
<polygon fill="white" stroke="black" points="425,-62.5 425,-81.5 527,-81.5 527,-62.5 425,-62.5"/>
<text text-anchor="middle" x="476" y="-69.5" font-family="Helvetica,sans-Serif" font-size="10.00">odp/api/spec/time.h</text>
</a>
</g>
</g>
<!-- Node26&#45;&gt;Node28 -->
<g id="edge49" class="edge"><title>Node26&#45;&gt;Node28</title>
<path fill="none" stroke="midnightblue" d="M523.332,-186.226C515.025,-166.354 494.634,-117.576 483.52,-90.9894"/>
<polygon fill="midnightblue" stroke="midnightblue" points="486.721,-89.5708 479.635,-81.6944 480.262,-92.2707 486.721,-89.5708"/>
</g>
<!-- Node28&#45;&gt;Node1 -->
<g id="edge50" class="edge"><title>Node28&#45;&gt;Node1</title>
<path fill="none" stroke="midnightblue" d="M506.984,-62.4945C516.265,-60.153 526.5,-57.7728 536,-56 639.263,-36.7292 760.725,-23.5042 833.151,-16.6033"/>
<polygon fill="midnightblue" stroke="midnightblue" points="833.846,-20.0534 843.474,-15.631 833.189,-13.0843 833.846,-20.0534"/>
</g>
<!-- Node28&#45;&gt;Node6 -->
<g id="edge51" class="edge"><title>Node28&#45;&gt;Node6</title>
<path fill="none" stroke="midnightblue" d="M456.515,-62.4035C433.59,-52.2896 395.315,-35.4036 368.925,-23.761"/>
<polygon fill="midnightblue" stroke="midnightblue" points="370.011,-20.4148 359.449,-19.5806 367.186,-26.8193 370.011,-20.4148"/>
</g>
<!-- Node29&#45;&gt;Node1 -->
<g id="edge55" class="edge"><title>Node29&#45;&gt;Node1</title>
<path fill="none" stroke="midnightblue" d="M863.435,-304.827C878.527,-296.156 895.998,-283.7 907,-268 925.746,-241.249 926,-229.666 926,-197 926,-197 926,-197 926,-133 926,-95.2414 912.689,-52.6478 904.103,-29.1015"/>
<polygon fill="midnightblue" stroke="midnightblue" points="907.364,-27.8273 900.556,-19.709 900.815,-30.3007 907.364,-27.8273"/>
</g>
<!-- Node29&#45;&gt;Node6 -->
<g id="edge66" class="edge"><title>Node29&#45;&gt;Node6</title>
<path fill="none" stroke="midnightblue" d="M783.247,-317.509C678.4,-313.774 441.633,-301.763 369,-268 263.809,-219.103 225.695,-194.621 180,-88 174.398,-74.9277 171.412,-67.3366 180,-56 192.288,-39.779 239.606,-27.7721 279.622,-20.2598"/>
<polygon fill="midnightblue" stroke="midnightblue" points="280.398,-23.6762 289.613,-18.4469 279.149,-16.7886 280.398,-23.6762"/>
</g>
<!-- Node29&#45;&gt;Node14 -->
<g id="edge65" class="edge"><title>Node29&#45;&gt;Node14</title>
<path fill="none" stroke="midnightblue" d="M783.493,-311.462C710.489,-300.566 575.51,-280.419 495.743,-268.514"/>
<polygon fill="midnightblue" stroke="midnightblue" points="496.227,-265.048 485.82,-267.033 495.194,-271.971 496.227,-265.048"/>
</g>
<!-- Node30 -->
<g id="node31" class="node"><title>Node30</title>
<g id="a_node31"><a xlink:href="api_2schedule__types_8h.html" target="_top" xlink:title="ODP schedule. ">
<polygon fill="white" stroke="black" points="770,-248.5 770,-267.5 898,-267.5 898,-248.5 770,-248.5"/>
<text text-anchor="middle" x="834" y="-255.5" font-family="Helvetica,sans-Serif" font-size="10.00">odp/api/schedule_types.h</text>
</a>
</g>
</g>
<!-- Node29&#45;&gt;Node30 -->
<g id="edge56" class="edge"><title>Node29&#45;&gt;Node30</title>
<path fill="none" stroke="midnightblue" d="M834,-304.781C834,-296.781 834,-286.689 834,-278.017"/>
<polygon fill="midnightblue" stroke="midnightblue" points="837.5,-277.73 834,-267.731 830.5,-277.731 837.5,-277.73"/>
</g>
<!-- Node31 -->
<g id="node32" class="node"><title>Node31</title>
<polygon fill="white" stroke="#bfbfbf" points="792,-181 792,-211 898,-211 898,-181 792,-181"/>
<text text-anchor="start" x="800" y="-199" font-family="Helvetica,sans-Serif" font-size="10.00">odp/api/abi/schedule</text>
<text text-anchor="middle" x="845" y="-188" font-family="Helvetica,sans-Serif" font-size="10.00">_types.h</text>
</g>
<!-- Node30&#45;&gt;Node31 -->
<g id="edge57" class="edge"><title>Node30&#45;&gt;Node31</title>
<path fill="none" stroke="midnightblue" d="M835.576,-248.403C836.885,-241.265 838.812,-230.752 840.583,-221.09"/>
<polygon fill="midnightblue" stroke="midnightblue" points="844.047,-221.608 842.408,-211.141 837.162,-220.346 844.047,-221.608"/>
</g>
<!-- Node32 -->
<g id="node33" class="node"><title>Node32</title>
<g id="a_node33"><a xlink:href="api_2spec_2schedule__types_8h.html" target="_top" xlink:title="ODP schedule types. ">
<polygon fill="white" stroke="black" points="622,-181 622,-211 736,-211 736,-181 622,-181"/>
<text text-anchor="start" x="630" y="-199" font-family="Helvetica,sans-Serif" font-size="10.00">odp/api/spec/schedule</text>
<text text-anchor="middle" x="679" y="-188" font-family="Helvetica,sans-Serif" font-size="10.00">_types.h</text>
</a>
</g>
</g>
<!-- Node30&#45;&gt;Node32 -->
<g id="edge58" class="edge"><title>Node30&#45;&gt;Node32</title>
<path fill="none" stroke="midnightblue" d="M811.792,-248.403C789.155,-239.641 753.385,-225.794 724.67,-214.679"/>
<polygon fill="midnightblue" stroke="midnightblue" points="725.821,-211.371 715.232,-211.025 723.294,-217.899 725.821,-211.371"/>
</g>
<!-- Node32&#45;&gt;Node1 -->
<g id="edge59" class="edge"><title>Node32&#45;&gt;Node1</title>
<path fill="none" stroke="midnightblue" d="M709.858,-180.878C728.443,-171.666 752.09,-158.655 771,-144 817.53,-107.94 862.638,-54.5045 884.06,-27.6646"/>
<polygon fill="midnightblue" stroke="midnightblue" points="886.94,-29.6648 890.385,-19.6456 881.444,-25.3299 886.94,-29.6648"/>
</g>
<!-- Node32&#45;&gt;Node6 -->
<g id="edge64" class="edge"><title>Node32&#45;&gt;Node6</title>
<path fill="none" stroke="midnightblue" d="M642.123,-180.949C574.494,-155.041 435.723,-101.182 416,-88 390.733,-71.1132 367.047,-44.8145 353.036,-27.7462"/>
<polygon fill="midnightblue" stroke="midnightblue" points="355.619,-25.3736 346.633,-19.7608 350.158,-29.7522 355.619,-25.3736"/>
</g>
<!-- Node33 -->
<g id="node34" class="node"><title>Node33</title>
<g id="a_node34"><a xlink:href="support_8h.html" target="_top" xlink:title="ODP support API &#45; platform specific header. ">
<polygon fill="white" stroke="black" points="670,-124.5 670,-143.5 762,-143.5 762,-124.5 670,-124.5"/>
<text text-anchor="middle" x="716" y="-131.5" font-family="Helvetica,sans-Serif" font-size="10.00">odp/api/support.h</text>
</a>
</g>
</g>
<!-- Node32&#45;&gt;Node33 -->
<g id="edge60" class="edge"><title>Node32&#45;&gt;Node33</title>
<path fill="none" stroke="midnightblue" d="M687.768,-180.781C693.034,-172.242 699.77,-161.318 705.342,-152.283"/>
<polygon fill="midnightblue" stroke="midnightblue" points="708.346,-154.079 710.616,-143.731 702.388,-150.405 708.346,-154.079"/>
</g>
<!-- Node34 -->
<g id="node35" class="node"><title>Node34</title>
<g id="a_node35"><a xlink:href="spec_2support_8h.html" target="_top" xlink:title="ODP support API. ">
<polygon fill="white" stroke="black" points="695,-62.5 695,-81.5 811,-81.5 811,-62.5 695,-62.5"/>
<text text-anchor="middle" x="753" y="-69.5" font-family="Helvetica,sans-Serif" font-size="10.00">odp/api/spec/support.h</text>
</a>
</g>
</g>
<!-- Node33&#45;&gt;Node34 -->
<g id="edge61" class="edge"><title>Node33&#45;&gt;Node34</title>
<path fill="none" stroke="midnightblue" d="M721.301,-124.403C726.796,-115.493 735.533,-101.325 742.444,-90.1177"/>
<polygon fill="midnightblue" stroke="midnightblue" points="745.439,-91.9294 747.709,-81.5806 739.481,-88.2552 745.439,-91.9294"/>
</g>
<!-- Node34&#45;&gt;Node1 -->
<g id="edge62" class="edge"><title>Node34&#45;&gt;Node1</title>
<path fill="none" stroke="midnightblue" d="M773.632,-62.4035C798.119,-52.2004 839.147,-35.1055 867.109,-23.4544"/>
<polygon fill="midnightblue" stroke="midnightblue" points="868.522,-26.6576 876.407,-19.5806 865.83,-20.196 868.522,-26.6576"/>
</g>
<!-- Node34&#45;&gt;Node6 -->
<g id="edge63" class="edge"><title>Node34&#45;&gt;Node6</title>
<path fill="none" stroke="midnightblue" d="M717.12,-62.4704C706.789,-60.1817 695.479,-57.8356 685,-56 585.822,-38.6274 469.526,-24.7994 400.455,-17.2658"/>
<polygon fill="midnightblue" stroke="midnightblue" points="400.519,-13.7523 390.2,-16.1557 399.766,-20.7116 400.519,-13.7523"/>
</g>
</g>
</svg>
