<?xml version="1.0" encoding="UTF-8" standalone="no"?>
<!DOCTYPE svg PUBLIC "-//W3C//DTD SVG 1.1//EN"
 "http://www.w3.org/Graphics/SVG/1.1/DTD/svg11.dtd">
<!-- Generated by graphviz version 2.36.0 (20140111.2315)
 -->
<!-- Title: rwlock_recursive.h Pages: 1 -->
<svg width="890pt" height="208pt"
 viewBox="0.00 0.00 890.00 208.00" xmlns="http://www.w3.org/2000/svg" xmlns:xlink="http://www.w3.org/1999/xlink">
<g id="graph0" class="graph" transform="scale(1 1) rotate(0) translate(4 204)">
<title>rwlock_recursive.h</title>
<polygon fill="white" stroke="none" points="-4,4 -4,-204 886,-204 886,4 -4,4"/>
<!-- Node0 -->
<g id="node1" class="node"><title>Node0</title>
<polygon fill="#bfbfbf" stroke="black" points="438,-180.5 438,-199.5 536,-199.5 536,-180.5 438,-180.5"/>
<text text-anchor="middle" x="487" y="-187.5" font-family="Helvetica,sans-Serif" font-size="10.00">rwlock_recursive.h</text>
</g>
<!-- Node1 -->
<g id="node2" class="node"><title>Node1</title>
<g id="a_node2"><a xlink:href="api_2rwlock_8h.html" target="_top" xlink:title="ODP RW Locks. ">
<polygon fill="white" stroke="black" points="443,-124.5 443,-143.5 531,-143.5 531,-124.5 443,-124.5"/>
<text text-anchor="middle" x="487" y="-131.5" font-family="Helvetica,sans-Serif" font-size="10.00">odp/api/rwlock.h</text>
</a>
</g>
</g>
<!-- Node0&#45;&gt;Node1 -->
<g id="edge1" class="edge"><title>Node0&#45;&gt;Node1</title>
<path fill="none" stroke="midnightblue" d="M487,-180.083C487,-173.006 487,-162.861 487,-153.986"/>
<polygon fill="midnightblue" stroke="midnightblue" points="490.5,-153.751 487,-143.751 483.5,-153.751 490.5,-153.751"/>
</g>
<!-- Node6 -->
<g id="node7" class="node"><title>Node6</title>
<g id="a_node7"><a xlink:href="api_2std__types_8h.html" target="_top" xlink:title="Standard C language types and definitions for ODP. ">
<polygon fill="white" stroke="black" points="628,-124.5 628,-143.5 730,-143.5 730,-124.5 628,-124.5"/>
<text text-anchor="middle" x="679" y="-131.5" font-family="Helvetica,sans-Serif" font-size="10.00">odp/api/std_types.h</text>
</a>
</g>
</g>
<!-- Node0&#45;&gt;Node6 -->
<g id="edge6" class="edge"><title>Node0&#45;&gt;Node6</title>
<path fill="none" stroke="midnightblue" d="M517.423,-180.444C550.285,-171.201 602.785,-156.436 638.974,-146.257"/>
<polygon fill="midnightblue" stroke="midnightblue" points="640.04,-149.593 648.719,-143.516 638.145,-142.855 640.04,-149.593"/>
</g>
<!-- Node10 -->
<g id="node11" class="node"><title>Node10</title>
<g id="a_node11"><a xlink:href="api_2thread_8h.html" target="_top" xlink:title="ODP thread API. ">
<polygon fill="white" stroke="black" points="190,-124.5 190,-143.5 276,-143.5 276,-124.5 190,-124.5"/>
<text text-anchor="middle" x="233" y="-131.5" font-family="Helvetica,sans-Serif" font-size="10.00">odp/api/thread.h</text>
</a>
</g>
</g>
<!-- Node0&#45;&gt;Node10 -->
<g id="edge12" class="edge"><title>Node0&#45;&gt;Node10</title>
<path fill="none" stroke="midnightblue" d="M446.753,-180.444C402.35,-171.004 330.847,-155.802 282.912,-145.611"/>
<polygon fill="midnightblue" stroke="midnightblue" points="283.568,-142.173 273.059,-143.516 282.112,-149.02 283.568,-142.173"/>
</g>
<!-- Node2 -->
<g id="node3" class="node"><title>Node2</title>
<polygon fill="white" stroke="#bfbfbf" points="498,-62.5 498,-81.5 602,-81.5 602,-62.5 498,-62.5"/>
<text text-anchor="middle" x="550" y="-69.5" font-family="Helvetica,sans-Serif" font-size="10.00">odp/api/abi/rwlock.h</text>
</g>
<!-- Node1&#45;&gt;Node2 -->
<g id="edge2" class="edge"><title>Node1&#45;&gt;Node2</title>
<path fill="none" stroke="midnightblue" d="M496.026,-124.403C505.757,-115.136 521.458,-100.183 533.423,-88.7876"/>
<polygon fill="midnightblue" stroke="midnightblue" points="536.163,-91.0117 540.99,-81.5806 531.335,-85.9427 536.163,-91.0117"/>
</g>
<!-- Node3 -->
<g id="node4" class="node"><title>Node3</title>
<g id="a_node4"><a xlink:href="api_2spec_2rwlock_8h.html" target="_top" xlink:title="ODP RW Locks. ">
<polygon fill="white" stroke="black" points="368,-62.5 368,-81.5 480,-81.5 480,-62.5 368,-62.5"/>
<text text-anchor="middle" x="424" y="-69.5" font-family="Helvetica,sans-Serif" font-size="10.00">odp/api/spec/rwlock.h</text>
</a>
</g>
</g>
<!-- Node1&#45;&gt;Node3 -->
<g id="edge3" class="edge"><title>Node1&#45;&gt;Node3</title>
<path fill="none" stroke="midnightblue" d="M477.974,-124.403C468.243,-115.136 452.542,-100.183 440.577,-88.7876"/>
<polygon fill="midnightblue" stroke="midnightblue" points="442.665,-85.9427 433.01,-81.5806 437.837,-91.0117 442.665,-85.9427"/>
</g>
<!-- Node4 -->
<g id="node5" class="node"><title>Node4</title>
<g id="a_node5"><a xlink:href="visibility__begin_8h_source.html" target="_top" xlink:title="odp/visibility_begin.h">
<polygon fill="white" stroke="black" points="309.5,-0.5 309.5,-19.5 416.5,-19.5 416.5,-0.5 309.5,-0.5"/>
<text text-anchor="middle" x="363" y="-7.5" font-family="Helvetica,sans-Serif" font-size="10.00">odp/visibility_begin.h</text>
</a>
</g>
</g>
<!-- Node3&#45;&gt;Node4 -->
<g id="edge4" class="edge"><title>Node3&#45;&gt;Node4</title>
<path fill="none" stroke="midnightblue" d="M415.26,-62.4035C405.838,-53.1361 390.636,-38.1828 379.051,-26.7876"/>
<polygon fill="midnightblue" stroke="midnightblue" points="381.307,-24.0978 371.724,-19.5806 376.399,-29.0883 381.307,-24.0978"/>
</g>
<!-- Node5 -->
<g id="node6" class="node"><title>Node5</title>
<g id="a_node6"><a xlink:href="visibility__end_8h_source.html" target="_top" xlink:title="odp/visibility_end.h">
<polygon fill="white" stroke="black" points="435,-0.5 435,-19.5 535,-19.5 535,-0.5 435,-0.5"/>
<text text-anchor="middle" x="485" y="-7.5" font-family="Helvetica,sans-Serif" font-size="10.00">odp/visibility_end.h</text>
</a>
</g>
</g>
<!-- Node3&#45;&gt;Node5 -->
<g id="edge5" class="edge"><title>Node3&#45;&gt;Node5</title>
<path fill="none" stroke="midnightblue" d="M432.74,-62.4035C442.162,-53.1361 457.364,-38.1828 468.949,-26.7876"/>
<polygon fill="midnightblue" stroke="midnightblue" points="471.601,-29.0883 476.276,-19.5806 466.693,-24.0978 471.601,-29.0883"/>
</g>
<!-- Node7 -->
<g id="node8" class="node"><title>Node7</title>
<polygon fill="white" stroke="#bfbfbf" points="620,-62.5 620,-81.5 738,-81.5 738,-62.5 620,-62.5"/>
<text text-anchor="middle" x="679" y="-69.5" font-family="Helvetica,sans-Serif" font-size="10.00">odp/api/abi/std_types.h</text>
</g>
<!-- Node6&#45;&gt;Node7 -->
<g id="edge7" class="edge"><title>Node6&#45;&gt;Node7</title>
<path fill="none" stroke="midnightblue" d="M679,-124.403C679,-115.938 679,-102.728 679,-91.8199"/>
<polygon fill="midnightblue" stroke="midnightblue" points="682.5,-91.5806 679,-81.5806 675.5,-91.5806 682.5,-91.5806"/>
</g>
<!-- Node8 -->
<g id="node9" class="node"><title>Node8</title>
<g id="a_node9"><a xlink:href="api_2spec_2std__types_8h.html" target="_top" xlink:title="Standard C language types and definitions for ODP. ">
<polygon fill="white" stroke="black" points="756,-62.5 756,-81.5 882,-81.5 882,-62.5 756,-62.5"/>
<text text-anchor="middle" x="819" y="-69.5" font-family="Helvetica,sans-Serif" font-size="10.00">odp/api/spec/std_types.h</text>
</a>
</g>
</g>
<!-- Node6&#45;&gt;Node8 -->
<g id="edge8" class="edge"><title>Node6&#45;&gt;Node8</title>
<path fill="none" stroke="midnightblue" d="M699.059,-124.403C722.762,-114.245 762.406,-97.2547 789.583,-85.6074"/>
<polygon fill="midnightblue" stroke="midnightblue" points="791.166,-88.7369 798.979,-81.5806 788.408,-82.3028 791.166,-88.7369"/>
</g>
<!-- Node8&#45;&gt;Node4 -->
<g id="edge9" class="edge"><title>Node8&#45;&gt;Node4</title>
<path fill="none" stroke="midnightblue" d="M781.382,-62.4688C770.343,-60.1537 758.221,-57.7941 747,-56 608.423,-33.8443 570.116,-37.9508 426.659,-20.0398"/>
<polygon fill="midnightblue" stroke="midnightblue" points="426.961,-16.5502 416.601,-18.7697 426.084,-23.495 426.961,-16.5502"/>
</g>
<!-- Node8&#45;&gt;Node5 -->
<g id="edge11" class="edge"><title>Node8&#45;&gt;Node5</title>
<path fill="none" stroke="midnightblue" d="M779.438,-62.4961C768.911,-60.305 757.537,-58.0018 747,-56 677.995,-42.8901 598.438,-29.4636 545.265,-20.7303"/>
<polygon fill="midnightblue" stroke="midnightblue" points="545.756,-17.2643 535.322,-19.1016 544.625,-24.1722 545.756,-17.2643"/>
</g>
<!-- Node9 -->
<g id="node10" class="node"><title>Node9</title>
<polygon fill="white" stroke="#bfbfbf" points="794.5,-0.5 794.5,-19.5 843.5,-19.5 843.5,-0.5 794.5,-0.5"/>
<text text-anchor="middle" x="819" y="-7.5" font-family="Helvetica,sans-Serif" font-size="10.00">stdint.h</text>
</g>
<!-- Node8&#45;&gt;Node9 -->
<g id="edge10" class="edge"><title>Node8&#45;&gt;Node9</title>
<path fill="none" stroke="midnightblue" d="M819,-62.4035C819,-53.9381 819,-40.7283 819,-29.8199"/>
<polygon fill="midnightblue" stroke="midnightblue" points="822.5,-29.5806 819,-19.5806 815.5,-29.5806 822.5,-29.5806"/>
</g>
<!-- Node11 -->
<g id="node12" class="node"><title>Node11</title>
<g id="a_node12"><a xlink:href="thread__types_8h.html" target="_top" xlink:title="ODP thread API types. ">
<polygon fill="white" stroke="black" points="0,-57 0,-87 102,-87 102,-57 0,-57"/>
<text text-anchor="start" x="8" y="-75" font-family="Helvetica,sans-Serif" font-size="10.00">odp/api/spec/thread</text>
<text text-anchor="middle" x="51" y="-64" font-family="Helvetica,sans-Serif" font-size="10.00">_types.h</text>
</a>
</g>
</g>
<!-- Node10&#45;&gt;Node11 -->
<g id="edge13" class="edge"><title>Node10&#45;&gt;Node11</title>
<path fill="none" stroke="midnightblue" d="M206.924,-124.403C179.997,-115.526 137.244,-101.432 103.311,-90.2453"/>
<polygon fill="midnightblue" stroke="midnightblue" points="104.137,-86.8323 93.5435,-87.0253 101.945,-93.4804 104.137,-86.8323"/>
</g>
<!-- Node12 -->
<g id="node13" class="node"><title>Node12</title>
<polygon fill="white" stroke="#bfbfbf" points="120,-62.5 120,-81.5 222,-81.5 222,-62.5 120,-62.5"/>
<text text-anchor="middle" x="171" y="-69.5" font-family="Helvetica,sans-Serif" font-size="10.00">odp/api/abi/thread.h</text>
</g>
<!-- Node10&#45;&gt;Node12 -->
<g id="edge14" class="edge"><title>Node10&#45;&gt;Node12</title>
<path fill="none" stroke="midnightblue" d="M224.117,-124.403C214.541,-115.136 199.089,-100.183 187.314,-88.7876"/>
<polygon fill="midnightblue" stroke="midnightblue" points="189.487,-86.0197 179.867,-81.5806 184.619,-91.05 189.487,-86.0197"/>
</g>
<!-- Node13 -->
<g id="node14" class="node"><title>Node13</title>
<g id="a_node14"><a xlink:href="api_2spec_2thread_8h.html" target="_top" xlink:title="ODP thread API. ">
<polygon fill="white" stroke="black" points="240,-62.5 240,-81.5 350,-81.5 350,-62.5 240,-62.5"/>
<text text-anchor="middle" x="295" y="-69.5" font-family="Helvetica,sans-Serif" font-size="10.00">odp/api/spec/thread.h</text>
</a>
</g>
</g>
<!-- Node10&#45;&gt;Node13 -->
<g id="edge15" class="edge"><title>Node10&#45;&gt;Node13</title>
<path fill="none" stroke="midnightblue" d="M241.883,-124.403C251.459,-115.136 266.911,-100.183 278.686,-88.7876"/>
<polygon fill="midnightblue" stroke="midnightblue" points="281.381,-91.05 286.133,-81.5806 276.513,-86.0197 281.381,-91.05"/>
</g>
<!-- Node13&#45;&gt;Node4 -->
<g id="edge16" class="edge"><title>Node13&#45;&gt;Node4</title>
<path fill="none" stroke="midnightblue" d="M304.743,-62.4035C315.347,-53.047 332.519,-37.8948 345.479,-26.4599"/>
<polygon fill="midnightblue" stroke="midnightblue" points="348.093,-28.8213 353.275,-19.5806 343.461,-23.5724 348.093,-28.8213"/>
</g>
<!-- Node13&#45;&gt;Node5 -->
<g id="edge17" class="edge"><title>Node13&#45;&gt;Node5</title>
<path fill="none" stroke="midnightblue" d="M322.222,-62.4035C355.237,-51.9777 411.04,-34.3557 447.953,-22.6992"/>
<polygon fill="midnightblue" stroke="midnightblue" points="449.346,-25.9295 457.828,-19.5806 447.238,-19.2544 449.346,-25.9295"/>
</g>
</g>
</svg>
