<?xml version="1.0" encoding="UTF-8" standalone="no"?>
<!DOCTYPE svg PUBLIC "-//W3C//DTD SVG 1.1//EN"
 "http://www.w3.org/Graphics/SVG/1.1/DTD/svg11.dtd">
<!-- Generated by graphviz version 2.36.0 (20140111.2315)
 -->
<!-- Title: rwlock_recursive.h Pages: 1 -->
<svg width="284pt" height="152pt"
 viewBox="0.00 0.00 284.00 152.00" xmlns="http://www.w3.org/2000/svg" xmlns:xlink="http://www.w3.org/1999/xlink">
<g id="graph0" class="graph" transform="scale(1 1) rotate(0) translate(4 148)">
<title>rwlock_recursive.h</title>
<polygon fill="white" stroke="none" points="-4,4 -4,-148 280,-148 280,4 -4,4"/>
<!-- Node0 -->
<g id="node1" class="node"><title>Node0</title>
<polygon fill="#bfbfbf" stroke="black" points="57,-124.5 57,-143.5 155,-143.5 155,-124.5 57,-124.5"/>
<text text-anchor="middle" x="106" y="-131.5" font-family="Helvetica,sans-Serif" font-size="10.00">rwlock_recursive.h</text>
</g>
<!-- Node1 -->
<g id="node2" class="node"><title>Node1</title>
<polygon fill="white" stroke="#bfbfbf" points="-0.5,-57 -0.5,-87 94.5,-87 94.5,-57 -0.5,-57"/>
<text text-anchor="start" x="7.5" y="-75" font-family="Helvetica,sans-Serif" font-size="10.00">odp/api/abi/rwlock</text>
<text text-anchor="middle" x="47" y="-64" font-family="Helvetica,sans-Serif" font-size="10.00">_recursive.h</text>
</g>
<!-- Node0&#45;&gt;Node1 -->
<g id="edge1" class="edge"><title>Node0&#45;&gt;Node1</title>
<path fill="none" stroke="midnightblue" d="M97.5467,-124.403C89.8547,-116.581 78.1792,-104.708 67.9867,-94.3424"/>
<polygon fill="midnightblue" stroke="midnightblue" points="70.4122,-91.8171 60.9051,-87.1408 65.421,-96.7251 70.4122,-91.8171"/>
</g>
<!-- Node2 -->
<g id="node3" class="node"><title>Node2</title>
<g id="a_node3"><a xlink:href="api_2spec_2rwlock__recursive_8h.html" target="_top" xlink:title="ODP recursive read/write lock. ">
<polygon fill="white" stroke="black" points="113,-57 113,-87 217,-87 217,-57 113,-57"/>
<text text-anchor="start" x="121" y="-75" font-family="Helvetica,sans-Serif" font-size="10.00">odp/api/spec/rwlock</text>
<text text-anchor="middle" x="165" y="-64" font-family="Helvetica,sans-Serif" font-size="10.00">_recursive.h</text>
</a>
</g>
</g>
<!-- Node0&#45;&gt;Node2 -->
<g id="edge2" class="edge"><title>Node0&#45;&gt;Node2</title>
<path fill="none" stroke="midnightblue" d="M114.453,-124.403C122.145,-116.581 133.821,-104.708 144.013,-94.3424"/>
<polygon fill="midnightblue" stroke="midnightblue" points="146.579,-96.7251 151.095,-87.1408 141.588,-91.8171 146.579,-96.7251"/>
</g>
<!-- Node3 -->
<g id="node4" class="node"><title>Node3</title>
<g id="a_node4"><a xlink:href="visibility__begin_8h_source.html" target="_top" xlink:title="odp/visibility_begin.h">
<polygon fill="white" stroke="black" points="50.5,-0.5 50.5,-19.5 157.5,-19.5 157.5,-0.5 50.5,-0.5"/>
<text text-anchor="middle" x="104" y="-7.5" font-family="Helvetica,sans-Serif" font-size="10.00">odp/visibility_begin.h</text>
</a>
</g>
</g>
<!-- Node2&#45;&gt;Node3 -->
<g id="edge3" class="edge"><title>Node2&#45;&gt;Node3</title>
<path fill="none" stroke="midnightblue" d="M150.544,-56.7808C141.406,-47.7925 129.581,-36.162 120.138,-26.8731"/>
<polygon fill="midnightblue" stroke="midnightblue" points="122.46,-24.2477 112.876,-19.7305 117.551,-29.2382 122.46,-24.2477"/>
</g>
<!-- Node4 -->
<g id="node5" class="node"><title>Node4</title>
<g id="a_node5"><a xlink:href="visibility__end_8h_source.html" target="_top" xlink:title="odp/visibility_end.h">
<polygon fill="white" stroke="black" points="176,-0.5 176,-19.5 276,-19.5 276,-0.5 176,-0.5"/>
<text text-anchor="middle" x="226" y="-7.5" font-family="Helvetica,sans-Serif" font-size="10.00">odp/visibility_end.h</text>
</a>
</g>
</g>
<!-- Node2&#45;&gt;Node4 -->
<g id="edge4" class="edge"><title>Node2&#45;&gt;Node4</title>
<path fill="none" stroke="midnightblue" d="M179.456,-56.7808C188.594,-47.7925 200.419,-36.162 209.862,-26.8731"/>
<polygon fill="midnightblue" stroke="midnightblue" points="212.449,-29.2382 217.124,-19.7305 207.54,-24.2477 212.449,-29.2382"/>
</g>
</g>
</svg>
