<?xml version="1.0" encoding="UTF-8" standalone="no"?>
<!DOCTYPE svg PUBLIC "-//W3C//DTD SVG 1.1//EN"
 "http://www.w3.org/Graphics/SVG/1.1/DTD/svg11.dtd">
<!-- Generated by graphviz version 2.36.0 (20140111.2315)
 -->
<!-- Title: spinlock_recursive.h Pages: 1 -->
<svg width="857pt" height="252pt"
 viewBox="0.00 0.00 857.00 252.00" xmlns="http://www.w3.org/2000/svg" xmlns:xlink="http://www.w3.org/1999/xlink">
<g id="graph0" class="graph" transform="scale(1 1) rotate(0) translate(4 248)">
<title>spinlock_recursive.h</title>
<polygon fill="white" stroke="none" points="-4,4 -4,-248 853,-248 853,4 -4,4"/>
<!-- Node10 -->
<g id="node1" class="node"><title>Node10</title>
<polygon fill="#bfbfbf" stroke="black" points="371,-224.5 371,-243.5 477,-243.5 477,-224.5 371,-224.5"/>
<text text-anchor="middle" x="424" y="-231.5" font-family="Helvetica,sans-Serif" font-size="10.00">spinlock_recursive.h</text>
</g>
<!-- Node11 -->
<g id="node2" class="node"><title>Node11</title>
<g id="a_node2"><a xlink:href="arch_2arm32-linux_2odp_2api_2abi_2spinlock__recursive_8h_source.html" target="_top" xlink:title="spinlock_recursive.h">
<polygon fill="white" stroke="black" points="-1,-168.5 -1,-187.5 105,-187.5 105,-168.5 -1,-168.5"/>
<text text-anchor="middle" x="52" y="-175.5" font-family="Helvetica,sans-Serif" font-size="10.00">spinlock_recursive.h</text>
</a>
</g>
</g>
<!-- Node10&#45;&gt;Node11 -->
<g id="edge1" class="edge"><title>Node10&#45;&gt;Node11</title>
<path fill="none" stroke="midnightblue" d="M360.416,-223.77C288.466,-213.326 172.554,-196.5 105.2,-186.723"/>
<polygon fill="midnightblue" stroke="midnightblue" points="360.302,-227.29 370.701,-225.263 361.308,-220.363 360.302,-227.29"/>
</g>
<!-- Node12 -->
<g id="node3" class="node"><title>Node12</title>
<g id="a_node3"><a xlink:href="arch_2arm64-linux_2odp_2api_2abi_2spinlock__recursive_8h_source.html" target="_top" xlink:title="spinlock_recursive.h">
<polygon fill="white" stroke="black" points="123,-168.5 123,-187.5 229,-187.5 229,-168.5 123,-168.5"/>
<text text-anchor="middle" x="176" y="-175.5" font-family="Helvetica,sans-Serif" font-size="10.00">spinlock_recursive.h</text>
</a>
</g>
</g>
<!-- Node10&#45;&gt;Node12 -->
<g id="edge2" class="edge"><title>Node10&#45;&gt;Node12</title>
<path fill="none" stroke="midnightblue" d="M374.774,-222.281C327.909,-212.077 258.301,-196.92 215.112,-187.516"/>
<polygon fill="midnightblue" stroke="midnightblue" points="374.188,-225.736 384.704,-224.444 375.677,-218.896 374.188,-225.736"/>
</g>
<!-- Node13 -->
<g id="node4" class="node"><title>Node13</title>
<g id="a_node4"><a xlink:href="arch_2default-linux_2odp_2api_2abi_2spinlock__recursive_8h_source.html" target="_top" xlink:title="spinlock_recursive.h">
<polygon fill="white" stroke="black" points="247,-168.5 247,-187.5 353,-187.5 353,-168.5 247,-168.5"/>
<text text-anchor="middle" x="300" y="-175.5" font-family="Helvetica,sans-Serif" font-size="10.00">spinlock_recursive.h</text>
</a>
</g>
</g>
<!-- Node10&#45;&gt;Node13 -->
<g id="edge3" class="edge"><title>Node10&#45;&gt;Node13</title>
<path fill="none" stroke="midnightblue" d="M394.993,-220.368C371.771,-210.255 339.837,-196.349 319.556,-187.516"/>
<polygon fill="midnightblue" stroke="midnightblue" points="393.786,-223.66 404.352,-224.444 396.581,-217.242 393.786,-223.66"/>
</g>
<!-- Node14 -->
<g id="node5" class="node"><title>Node14</title>
<g id="a_node5"><a xlink:href="arch_2mips64-linux_2odp_2api_2abi_2spinlock__recursive_8h_source.html" target="_top" xlink:title="spinlock_recursive.h">
<polygon fill="white" stroke="black" points="371,-168.5 371,-187.5 477,-187.5 477,-168.5 371,-168.5"/>
<text text-anchor="middle" x="424" y="-175.5" font-family="Helvetica,sans-Serif" font-size="10.00">spinlock_recursive.h</text>
</a>
</g>
</g>
<!-- Node10&#45;&gt;Node14 -->
<g id="edge4" class="edge"><title>Node10&#45;&gt;Node14</title>
<path fill="none" stroke="midnightblue" d="M424,-213.805C424,-204.91 424,-194.78 424,-187.751"/>
<polygon fill="midnightblue" stroke="midnightblue" points="420.5,-214.083 424,-224.083 427.5,-214.083 420.5,-214.083"/>
</g>
<!-- Node15 -->
<g id="node6" class="node"><title>Node15</title>
<g id="a_node6"><a xlink:href="arch_2power64-linux_2odp_2api_2abi_2spinlock__recursive_8h_source.html" target="_top" xlink:title="spinlock_recursive.h">
<polygon fill="white" stroke="black" points="495,-168.5 495,-187.5 601,-187.5 601,-168.5 495,-168.5"/>
<text text-anchor="middle" x="548" y="-175.5" font-family="Helvetica,sans-Serif" font-size="10.00">spinlock_recursive.h</text>
</a>
</g>
</g>
<!-- Node10&#45;&gt;Node15 -->
<g id="edge5" class="edge"><title>Node10&#45;&gt;Node15</title>
<path fill="none" stroke="midnightblue" d="M453.007,-220.368C476.229,-210.255 508.163,-196.349 528.444,-187.516"/>
<polygon fill="midnightblue" stroke="midnightblue" points="451.419,-217.242 443.648,-224.444 454.214,-223.66 451.419,-217.242"/>
</g>
<!-- Node16 -->
<g id="node7" class="node"><title>Node16</title>
<g id="a_node7"><a xlink:href="arch_2x86__32-linux_2odp_2api_2abi_2spinlock__recursive_8h_source.html" target="_top" xlink:title="spinlock_recursive.h">
<polygon fill="white" stroke="black" points="619,-168.5 619,-187.5 725,-187.5 725,-168.5 619,-168.5"/>
<text text-anchor="middle" x="672" y="-175.5" font-family="Helvetica,sans-Serif" font-size="10.00">spinlock_recursive.h</text>
</a>
</g>
</g>
<!-- Node10&#45;&gt;Node16 -->
<g id="edge6" class="edge"><title>Node10&#45;&gt;Node16</title>
<path fill="none" stroke="midnightblue" d="M473.226,-222.281C520.091,-212.077 589.699,-196.92 632.888,-187.516"/>
<polygon fill="midnightblue" stroke="midnightblue" points="472.323,-218.896 463.296,-224.444 473.812,-225.736 472.323,-218.896"/>
</g>
<!-- Node17 -->
<g id="node8" class="node"><title>Node17</title>
<g id="a_node8"><a xlink:href="arch_2x86__64-linux_2odp_2api_2abi_2spinlock__recursive_8h_source.html" target="_top" xlink:title="spinlock_recursive.h">
<polygon fill="white" stroke="black" points="743,-168.5 743,-187.5 849,-187.5 849,-168.5 743,-168.5"/>
<text text-anchor="middle" x="796" y="-175.5" font-family="Helvetica,sans-Serif" font-size="10.00">spinlock_recursive.h</text>
</a>
</g>
</g>
<!-- Node10&#45;&gt;Node17 -->
<g id="edge7" class="edge"><title>Node10&#45;&gt;Node17</title>
<path fill="none" stroke="midnightblue" d="M487.584,-223.77C559.534,-213.326 675.446,-196.5 742.8,-186.723"/>
<polygon fill="midnightblue" stroke="midnightblue" points="486.692,-220.363 477.299,-225.263 487.698,-227.29 486.692,-220.363"/>
</g>
<!-- Node18 -->
<g id="node9" class="node"><title>Node18</title>
<g id="a_node9"><a xlink:href="api_2spinlock__recursive_8h.html" target="_top" xlink:title="ODP resursive spinlock. ">
<polygon fill="white" stroke="black" points="743,-112.5 743,-131.5 849,-131.5 849,-112.5 743,-112.5"/>
<text text-anchor="middle" x="796" y="-119.5" font-family="Helvetica,sans-Serif" font-size="10.00">spinlock_recursive.h</text>
</a>
</g>
</g>
<!-- Node17&#45;&gt;Node18 -->
<g id="edge8" class="edge"><title>Node17&#45;&gt;Node18</title>
<path fill="none" stroke="midnightblue" d="M796,-157.805C796,-148.91 796,-138.78 796,-131.751"/>
<polygon fill="midnightblue" stroke="midnightblue" points="792.5,-158.083 796,-168.083 799.5,-158.083 792.5,-158.083"/>
</g>
<!-- Node19 -->
<g id="node10" class="node"><title>Node19</title>
<g id="a_node10"><a xlink:href="odp__api_8h.html" target="_top" xlink:title="The OpenDataPlane API. ">
<polygon fill="white" stroke="black" points="766.5,-56.5 766.5,-75.5 825.5,-75.5 825.5,-56.5 766.5,-56.5"/>
<text text-anchor="middle" x="796" y="-63.5" font-family="Helvetica,sans-Serif" font-size="10.00">odp_api.h</text>
</a>
</g>
</g>
<!-- Node18&#45;&gt;Node19 -->
<g id="edge9" class="edge"><title>Node18&#45;&gt;Node19</title>
<path fill="none" stroke="midnightblue" d="M796,-101.805C796,-92.9102 796,-82.7798 796,-75.7511"/>
<polygon fill="midnightblue" stroke="midnightblue" points="792.5,-102.083 796,-112.083 799.5,-102.083 792.5,-102.083"/>
</g>
<!-- Node20 -->
<g id="node11" class="node"><title>Node20</title>
<g id="a_node11"><a xlink:href="odp_8h.html" target="_top" xlink:title="WARNING: THIS FILE IS DEPRECATED AND WILL BE REMOVED!!! ODP APPLICATIONS SHOULD NOW INCLUDE odp_api...">
<polygon fill="white" stroke="black" points="775.5,-0.5 775.5,-19.5 816.5,-19.5 816.5,-0.5 775.5,-0.5"/>
<text text-anchor="middle" x="796" y="-7.5" font-family="Helvetica,sans-Serif" font-size="10.00">odp.h</text>
</a>
</g>
</g>
<!-- Node19&#45;&gt;Node20 -->
<g id="edge10" class="edge"><title>Node19&#45;&gt;Node20</title>
<path fill="none" stroke="midnightblue" d="M796,-45.8045C796,-36.9102 796,-26.7798 796,-19.7511"/>
<polygon fill="midnightblue" stroke="midnightblue" points="792.5,-46.083 796,-56.083 799.5,-46.083 792.5,-46.083"/>
</g>
</g>
</svg>
