<?xml version="1.0" encoding="UTF-8" standalone="no"?>
<!DOCTYPE svg PUBLIC "-//W3C//DTD SVG 1.1//EN"
 "http://www.w3.org/Graphics/SVG/1.1/DTD/svg11.dtd">
<!-- Generated by graphviz version 2.36.0 (20140111.2315)
 -->
<!-- Title: init.h Pages: 1 -->
<svg width="1171pt" height="320pt"
 viewBox="0.00 0.00 1170.54 320.00" xmlns="http://www.w3.org/2000/svg" xmlns:xlink="http://www.w3.org/1999/xlink">
<g id="graph0" class="graph" transform="scale(1 1) rotate(0) translate(4 316)">
<title>init.h</title>
<polygon fill="white" stroke="none" points="-4,4 -4,-316 1166.54,-316 1166.54,4 -4,4"/>
<!-- Node0 -->
<g id="node1" class="node"><title>Node0</title>
<polygon fill="#bfbfbf" stroke="black" points="403.814,-292.5 403.814,-311.5 441.814,-311.5 441.814,-292.5 403.814,-292.5"/>
<text text-anchor="middle" x="422.814" y="-299.5" font-family="Helvetica,sans-Serif" font-size="10.00">init.h</text>
</g>
<!-- Node1 -->
<g id="node2" class="node"><title>Node1</title>
<g id="a_node2"><a xlink:href="visibility__begin_8h_source.html" target="_top" xlink:title="odp/visibility_begin.h">
<polygon fill="white" stroke="black" points="306.314,-0.5 306.314,-19.5 413.314,-19.5 413.314,-0.5 306.314,-0.5"/>
<text text-anchor="middle" x="359.814" y="-7.5" font-family="Helvetica,sans-Serif" font-size="10.00">odp/visibility_begin.h</text>
</a>
</g>
</g>
<!-- Node0&#45;&gt;Node1 -->
<g id="edge1" class="edge"><title>Node0&#45;&gt;Node1</title>
<path fill="none" stroke="midnightblue" d="M403.631,-300.187C321.271,-296.184 1.81411,-275.232 1.81411,-191 1.81411,-191 1.81411,-191 1.81411,-133 1.81411,-97.7513 -5.44234,-79.5174 20.8141,-56 60.2702,-20.66 209.418,-12.7226 296.177,-11.1571"/>
<polygon fill="midnightblue" stroke="midnightblue" points="296.234,-14.6567 306.178,-10.9998 296.124,-7.65756 296.234,-14.6567"/>
</g>
<!-- Node2 -->
<g id="node3" class="node"><title>Node2</title>
<g id="a_node3"><a xlink:href="api_2std__types_8h.html" target="_top" xlink:title="Standard C language types and definitions for ODP. ">
<polygon fill="white" stroke="black" points="182.814,-124.5 182.814,-143.5 284.814,-143.5 284.814,-124.5 182.814,-124.5"/>
<text text-anchor="middle" x="233.814" y="-131.5" font-family="Helvetica,sans-Serif" font-size="10.00">odp/api/std_types.h</text>
</a>
</g>
</g>
<!-- Node0&#45;&gt;Node2 -->
<g id="edge2" class="edge"><title>Node0&#45;&gt;Node2</title>
<path fill="none" stroke="midnightblue" d="M403.626,-301.228C370.66,-300.532 303.216,-294.181 265.814,-256 238.661,-228.281 233.819,-180.357 233.373,-153.903"/>
<polygon fill="midnightblue" stroke="midnightblue" points="236.874,-153.716 233.407,-143.705 229.874,-153.693 236.874,-153.716"/>
</g>
<!-- Node6 -->
<g id="node7" class="node"><title>Node6</title>
<g id="a_node7"><a xlink:href="visibility__end_8h_source.html" target="_top" xlink:title="odp/visibility_end.h">
<polygon fill="white" stroke="black" points="615.814,-0.5 615.814,-19.5 715.814,-19.5 715.814,-0.5 615.814,-0.5"/>
<text text-anchor="middle" x="665.814" y="-7.5" font-family="Helvetica,sans-Serif" font-size="10.00">odp/visibility_end.h</text>
</a>
</g>
</g>
<!-- Node0&#45;&gt;Node6 -->
<g id="edge28" class="edge"><title>Node0&#45;&gt;Node6</title>
<path fill="none" stroke="midnightblue" d="M442.174,-300.214C558.615,-295.239 1160.81,-265.891 1160.81,-191 1160.81,-191 1160.81,-191 1160.81,-133 1160.81,-97.6422 1167.73,-78.9282 1140.81,-56 1109.87,-29.6421 847.147,-17.2488 726.252,-12.901"/>
<polygon fill="midnightblue" stroke="midnightblue" points="726.169,-9.39597 716.052,-12.5412 725.922,-16.3916 726.169,-9.39597"/>
</g>
<!-- Node7 -->
<g id="node8" class="node"><title>Node7</title>
<g id="a_node8"><a xlink:href="hints_8h.html" target="_top" xlink:title="ODP compiler hints. ">
<polygon fill="white" stroke="black" points="382.814,-236.5 382.814,-255.5 462.814,-255.5 462.814,-236.5 382.814,-236.5"/>
<text text-anchor="middle" x="422.814" y="-243.5" font-family="Helvetica,sans-Serif" font-size="10.00">odp/api/hints.h</text>
</a>
</g>
</g>
<!-- Node0&#45;&gt;Node7 -->
<g id="edge8" class="edge"><title>Node0&#45;&gt;Node7</title>
<path fill="none" stroke="midnightblue" d="M422.814,-292.083C422.814,-285.006 422.814,-274.861 422.814,-265.986"/>
<polygon fill="midnightblue" stroke="midnightblue" points="426.314,-265.751 422.814,-255.751 419.314,-265.751 426.314,-265.751"/>
</g>
<!-- Node9 -->
<g id="node10" class="node"><title>Node9</title>
<g id="a_node10"><a xlink:href="feature_8h.html" target="_top" xlink:title="ODP features. ">
<polygon fill="white" stroke="black" points="275.314,-236.5 275.314,-255.5 364.314,-255.5 364.314,-236.5 275.314,-236.5"/>
<text text-anchor="middle" x="319.814" y="-243.5" font-family="Helvetica,sans-Serif" font-size="10.00">odp/api/feature.h</text>
</a>
</g>
</g>
<!-- Node0&#45;&gt;Node9 -->
<g id="edge12" class="edge"><title>Node0&#45;&gt;Node9</title>
<path fill="none" stroke="midnightblue" d="M406.265,-292.324C389.822,-283.703 364.379,-270.364 345.346,-260.386"/>
<polygon fill="midnightblue" stroke="midnightblue" points="346.804,-257.198 336.322,-255.655 343.553,-263.398 346.804,-257.198"/>
</g>
<!-- Node11 -->
<g id="node12" class="node"><title>Node11</title>
<g id="a_node12"><a xlink:href="api_2thread_8h.html" target="_top" xlink:title="ODP thread API. ">
<polygon fill="white" stroke="black" points="914.814,-124.5 914.814,-143.5 1000.81,-143.5 1000.81,-124.5 914.814,-124.5"/>
<text text-anchor="middle" x="957.814" y="-131.5" font-family="Helvetica,sans-Serif" font-size="10.00">odp/api/thread.h</text>
</a>
</g>
</g>
<!-- Node0&#45;&gt;Node11 -->
<g id="edge17" class="edge"><title>Node0&#45;&gt;Node11</title>
<path fill="none" stroke="midnightblue" d="M441.855,-295.092C519.767,-270.917 815.114,-179.277 920.319,-146.634"/>
<polygon fill="midnightblue" stroke="midnightblue" points="921.668,-149.88 930.181,-143.574 919.593,-143.195 921.668,-149.88"/>
</g>
<!-- Node15 -->
<g id="node16" class="node"><title>Node15</title>
<g id="a_node16"><a xlink:href="api_2cpumask_8h.html" target="_top" xlink:title="ODP CPU masks and enumeration. ">
<polygon fill="white" stroke="black" points="482.314,-124.5 482.314,-143.5 581.314,-143.5 581.314,-124.5 482.314,-124.5"/>
<text text-anchor="middle" x="531.814" y="-131.5" font-family="Helvetica,sans-Serif" font-size="10.00">odp/api/cpumask.h</text>
</a>
</g>
</g>
<!-- Node0&#45;&gt;Node15 -->
<g id="edge23" class="edge"><title>Node0&#45;&gt;Node15</title>
<path fill="none" stroke="midnightblue" d="M434.45,-292.36C445.166,-283.966 460.994,-270.408 471.814,-256 496.713,-222.845 515.842,-177.76 525.292,-153.046"/>
<polygon fill="midnightblue" stroke="midnightblue" points="528.631,-154.11 528.839,-143.517 522.071,-151.668 528.631,-154.11"/>
</g>
<!-- Node3 -->
<g id="node4" class="node"><title>Node3</title>
<polygon fill="white" stroke="#bfbfbf" points="173.814,-62.5 173.814,-81.5 291.814,-81.5 291.814,-62.5 173.814,-62.5"/>
<text text-anchor="middle" x="232.814" y="-69.5" font-family="Helvetica,sans-Serif" font-size="10.00">odp/api/abi/std_types.h</text>
</g>
<!-- Node2&#45;&gt;Node3 -->
<g id="edge3" class="edge"><title>Node2&#45;&gt;Node3</title>
<path fill="none" stroke="midnightblue" d="M233.671,-124.403C233.53,-115.938 233.31,-102.728 233.128,-91.8199"/>
<polygon fill="midnightblue" stroke="midnightblue" points="236.623,-91.5208 232.957,-81.5806 229.624,-91.6376 236.623,-91.5208"/>
</g>
<!-- Node4 -->
<g id="node5" class="node"><title>Node4</title>
<g id="a_node5"><a xlink:href="api_2spec_2std__types_8h.html" target="_top" xlink:title="Standard C language types and definitions for ODP. ">
<polygon fill="white" stroke="black" points="29.8141,-62.5 29.8141,-81.5 155.814,-81.5 155.814,-62.5 29.8141,-62.5"/>
<text text-anchor="middle" x="92.8141" y="-69.5" font-family="Helvetica,sans-Serif" font-size="10.00">odp/api/spec/std_types.h</text>
</a>
</g>
</g>
<!-- Node2&#45;&gt;Node4 -->
<g id="edge4" class="edge"><title>Node2&#45;&gt;Node4</title>
<path fill="none" stroke="midnightblue" d="M213.612,-124.403C189.74,-114.245 149.813,-97.2547 122.441,-85.6074"/>
<polygon fill="midnightblue" stroke="midnightblue" points="123.551,-82.2757 112.978,-81.5806 120.81,-88.7167 123.551,-82.2757"/>
</g>
<!-- Node4&#45;&gt;Node1 -->
<g id="edge5" class="edge"><title>Node4&#45;&gt;Node1</title>
<path fill="none" stroke="midnightblue" d="M130.785,-62.4672C178.431,-51.7602 260.169,-33.3922 312.021,-21.74"/>
<polygon fill="midnightblue" stroke="midnightblue" points="312.985,-25.1108 321.974,-19.5034 311.45,-18.2811 312.985,-25.1108"/>
</g>
<!-- Node5 -->
<g id="node6" class="node"><title>Node5</title>
<polygon fill="white" stroke="#bfbfbf" points="68.3141,-0.5 68.3141,-19.5 117.314,-19.5 117.314,-0.5 68.3141,-0.5"/>
<text text-anchor="middle" x="92.8141" y="-7.5" font-family="Helvetica,sans-Serif" font-size="10.00">stdint.h</text>
</g>
<!-- Node4&#45;&gt;Node5 -->
<g id="edge6" class="edge"><title>Node4&#45;&gt;Node5</title>
<path fill="none" stroke="midnightblue" d="M92.8141,-62.4035C92.8141,-53.9381 92.8141,-40.7283 92.8141,-29.8199"/>
<polygon fill="midnightblue" stroke="midnightblue" points="96.3142,-29.5806 92.8141,-19.5806 89.3142,-29.5806 96.3142,-29.5806"/>
</g>
<!-- Node4&#45;&gt;Node6 -->
<g id="edge7" class="edge"><title>Node4&#45;&gt;Node6</title>
<path fill="none" stroke="midnightblue" d="M129.665,-62.4666C140.901,-60.0964 153.321,-57.7075 164.814,-56 323.008,-32.4977 511.257,-19.5921 605.603,-14.1495"/>
<polygon fill="midnightblue" stroke="midnightblue" points="606.026,-17.6312 615.811,-13.5687 605.628,-10.6425 606.026,-17.6312"/>
</g>
<!-- Node8 -->
<g id="node9" class="node"><title>Node8</title>
<g id="a_node9"><a xlink:href="spec_2hints_8h.html" target="_top" xlink:title="ODP compiler hints. ">
<polygon fill="white" stroke="black" points="347.814,-62.5 347.814,-81.5 451.814,-81.5 451.814,-62.5 347.814,-62.5"/>
<text text-anchor="middle" x="399.814" y="-69.5" font-family="Helvetica,sans-Serif" font-size="10.00">odp/api/spec/hints.h</text>
</a>
</g>
</g>
<!-- Node7&#45;&gt;Node8 -->
<g id="edge9" class="edge"><title>Node7&#45;&gt;Node8</title>
<path fill="none" stroke="midnightblue" d="M421.642,-236.234C418.073,-209.548 407.286,-128.877 402.341,-91.8931"/>
<polygon fill="midnightblue" stroke="midnightblue" points="405.751,-90.9921 400.957,-81.5442 398.813,-91.9199 405.751,-90.9921"/>
</g>
<!-- Node8&#45;&gt;Node1 -->
<g id="edge10" class="edge"><title>Node8&#45;&gt;Node1</title>
<path fill="none" stroke="midnightblue" d="M394.083,-62.4035C388.142,-53.4925 378.697,-39.3247 371.226,-28.1177"/>
<polygon fill="midnightblue" stroke="midnightblue" points="373.994,-25.9596 365.535,-19.5806 368.169,-29.8426 373.994,-25.9596"/>
</g>
<!-- Node8&#45;&gt;Node6 -->
<g id="edge11" class="edge"><title>Node8&#45;&gt;Node6</title>
<path fill="none" stroke="midnightblue" d="M433.976,-62.4397C442.715,-60.2939 452.104,-58.0266 460.814,-56 513.436,-43.7565 573.872,-30.5997 615.418,-21.6948"/>
<polygon fill="midnightblue" stroke="midnightblue" points="616.248,-25.0966 625.294,-19.5818 614.783,-18.2515 616.248,-25.0966"/>
</g>
<!-- Node10 -->
<g id="node11" class="node"><title>Node10</title>
<g id="a_node11"><a xlink:href="spec_2feature_8h.html" target="_top" xlink:title="ODP features. ">
<polygon fill="white" stroke="black" points="263.314,-180.5 263.314,-199.5 376.314,-199.5 376.314,-180.5 263.314,-180.5"/>
<text text-anchor="middle" x="319.814" y="-187.5" font-family="Helvetica,sans-Serif" font-size="10.00">odp/api/spec/feature.h</text>
</a>
</g>
</g>
<!-- Node9&#45;&gt;Node10 -->
<g id="edge13" class="edge"><title>Node9&#45;&gt;Node10</title>
<path fill="none" stroke="midnightblue" d="M319.814,-236.083C319.814,-229.006 319.814,-218.861 319.814,-209.986"/>
<polygon fill="midnightblue" stroke="midnightblue" points="323.314,-209.751 319.814,-199.751 316.314,-209.751 323.314,-209.751"/>
</g>
<!-- Node10&#45;&gt;Node1 -->
<g id="edge14" class="edge"><title>Node10&#45;&gt;Node1</title>
<path fill="none" stroke="midnightblue" d="M320.167,-180.412C321.235,-158.984 325.241,-101.606 338.814,-56 341.611,-46.6007 346.069,-36.6697 350.159,-28.5353"/>
<polygon fill="midnightblue" stroke="midnightblue" points="353.27,-30.14 354.83,-19.6607 347.075,-26.88 353.27,-30.14"/>
</g>
<!-- Node10&#45;&gt;Node2 -->
<g id="edge15" class="edge"><title>Node10&#45;&gt;Node2</title>
<path fill="none" stroke="midnightblue" d="M305.997,-180.324C292.581,-171.9 271.99,-158.971 256.228,-149.074"/>
<polygon fill="midnightblue" stroke="midnightblue" points="257.927,-146.008 247.597,-143.655 254.205,-151.936 257.927,-146.008"/>
</g>
<!-- Node10&#45;&gt;Node6 -->
<g id="edge16" class="edge"><title>Node10&#45;&gt;Node6</title>
<path fill="none" stroke="midnightblue" d="M376.373,-187.355C502.97,-182.349 802.843,-162.693 863.814,-88 904.384,-38.3 798.408,-20.59 726.304,-14.343"/>
<polygon fill="midnightblue" stroke="midnightblue" points="726.183,-10.8218 715.933,-13.502 725.617,-17.7989 726.183,-10.8218"/>
</g>
<!-- Node12 -->
<g id="node13" class="node"><title>Node12</title>
<g id="a_node13"><a xlink:href="thread__types_8h.html" target="_top" xlink:title="ODP thread API types. ">
<polygon fill="white" stroke="black" points="910.814,-57 910.814,-87 1012.81,-87 1012.81,-57 910.814,-57"/>
<text text-anchor="start" x="918.814" y="-75" font-family="Helvetica,sans-Serif" font-size="10.00">odp/api/spec/thread</text>
<text text-anchor="middle" x="961.814" y="-64" font-family="Helvetica,sans-Serif" font-size="10.00">_types.h</text>
</a>
</g>
</g>
<!-- Node11&#45;&gt;Node12 -->
<g id="edge18" class="edge"><title>Node11&#45;&gt;Node12</title>
<path fill="none" stroke="midnightblue" d="M958.387,-124.403C958.858,-117.341 959.549,-106.975 960.188,-97.399"/>
<polygon fill="midnightblue" stroke="midnightblue" points="963.698,-97.3515 960.871,-87.1408 956.714,-96.8858 963.698,-97.3515"/>
</g>
<!-- Node13 -->
<g id="node14" class="node"><title>Node13</title>
<polygon fill="white" stroke="#bfbfbf" points="1030.81,-62.5 1030.81,-81.5 1132.81,-81.5 1132.81,-62.5 1030.81,-62.5"/>
<text text-anchor="middle" x="1081.81" y="-69.5" font-family="Helvetica,sans-Serif" font-size="10.00">odp/api/abi/thread.h</text>
</g>
<!-- Node11&#45;&gt;Node13 -->
<g id="edge19" class="edge"><title>Node11&#45;&gt;Node13</title>
<path fill="none" stroke="midnightblue" d="M975.58,-124.403C996.298,-114.379 1030.77,-97.7006 1054.8,-86.0699"/>
<polygon fill="midnightblue" stroke="midnightblue" points="1056.6,-89.0868 1064.08,-81.5806 1053.55,-82.7857 1056.6,-89.0868"/>
</g>
<!-- Node14 -->
<g id="node15" class="node"><title>Node14</title>
<g id="a_node15"><a xlink:href="api_2spec_2thread_8h.html" target="_top" xlink:title="ODP thread API. ">
<polygon fill="white" stroke="black" points="744.814,-62.5 744.814,-81.5 854.814,-81.5 854.814,-62.5 744.814,-62.5"/>
<text text-anchor="middle" x="799.814" y="-69.5" font-family="Helvetica,sans-Serif" font-size="10.00">odp/api/spec/thread.h</text>
</a>
</g>
</g>
<!-- Node11&#45;&gt;Node14 -->
<g id="edge20" class="edge"><title>Node11&#45;&gt;Node14</title>
<path fill="none" stroke="midnightblue" d="M935.177,-124.403C908.074,-114.111 862.504,-96.8064 831.81,-85.1504"/>
<polygon fill="midnightblue" stroke="midnightblue" points="833.001,-81.8587 822.41,-81.5806 830.516,-88.4028 833.001,-81.8587"/>
</g>
<!-- Node14&#45;&gt;Node1 -->
<g id="edge21" class="edge"><title>Node14&#45;&gt;Node1</title>
<path fill="none" stroke="midnightblue" d="M765.883,-62.445C755.917,-60.1294 744.967,-57.7754 734.814,-56 626.24,-37.0143 498.57,-23.5598 423.692,-16.5582"/>
<polygon fill="midnightblue" stroke="midnightblue" points="423.764,-13.05 413.484,-15.6132 423.119,-20.0202 423.764,-13.05"/>
</g>
<!-- Node14&#45;&gt;Node6 -->
<g id="edge22" class="edge"><title>Node14&#45;&gt;Node6</title>
<path fill="none" stroke="midnightblue" d="M780.615,-62.4035C758.027,-52.2896 720.315,-35.4036 694.314,-23.761"/>
<polygon fill="midnightblue" stroke="midnightblue" points="695.535,-20.4729 684.977,-19.5806 692.674,-26.8617 695.535,-20.4729"/>
</g>
<!-- Node16 -->
<g id="node17" class="node"><title>Node16</title>
<polygon fill="white" stroke="#bfbfbf" points="611.314,-62.5 611.314,-81.5 726.314,-81.5 726.314,-62.5 611.314,-62.5"/>
<text text-anchor="middle" x="668.814" y="-69.5" font-family="Helvetica,sans-Serif" font-size="10.00">odp/api/abi/cpumask.h</text>
</g>
<!-- Node15&#45;&gt;Node16 -->
<g id="edge24" class="edge"><title>Node15&#45;&gt;Node16</title>
<path fill="none" stroke="midnightblue" d="M551.443,-124.403C574.638,-114.245 613.433,-97.2547 640.027,-85.6074"/>
<polygon fill="midnightblue" stroke="midnightblue" points="641.466,-88.7984 649.222,-81.5806 638.658,-82.3863 641.466,-88.7984"/>
</g>
<!-- Node17 -->
<g id="node18" class="node"><title>Node17</title>
<g id="a_node18"><a xlink:href="api_2spec_2cpumask_8h.html" target="_top" xlink:title="ODP CPU masks and enumeration. ">
<polygon fill="white" stroke="black" points="470.314,-62.5 470.314,-81.5 593.314,-81.5 593.314,-62.5 470.314,-62.5"/>
<text text-anchor="middle" x="531.814" y="-69.5" font-family="Helvetica,sans-Serif" font-size="10.00">odp/api/spec/cpumask.h</text>
</a>
</g>
</g>
<!-- Node15&#45;&gt;Node17 -->
<g id="edge25" class="edge"><title>Node15&#45;&gt;Node17</title>
<path fill="none" stroke="midnightblue" d="M531.814,-124.403C531.814,-115.938 531.814,-102.728 531.814,-91.8199"/>
<polygon fill="midnightblue" stroke="midnightblue" points="535.314,-91.5806 531.814,-81.5806 528.314,-91.5806 535.314,-91.5806"/>
</g>
<!-- Node17&#45;&gt;Node1 -->
<g id="edge26" class="edge"><title>Node17&#45;&gt;Node1</title>
<path fill="none" stroke="midnightblue" d="M507.171,-62.4035C477.539,-52.0668 427.629,-34.6564 394.212,-22.9994"/>
<polygon fill="midnightblue" stroke="midnightblue" points="395.007,-19.5697 384.412,-19.5806 392.701,-26.1791 395.007,-19.5697"/>
</g>
<!-- Node17&#45;&gt;Node6 -->
<g id="edge27" class="edge"><title>Node17&#45;&gt;Node6</title>
<path fill="none" stroke="midnightblue" d="M551.013,-62.4035C573.601,-52.2896 611.313,-35.4036 637.315,-23.761"/>
<polygon fill="midnightblue" stroke="midnightblue" points="638.954,-26.8617 646.651,-19.5806 636.094,-20.4729 638.954,-26.8617"/>
</g>
</g>
</svg>
