<?xml version="1.0" encoding="UTF-8" standalone="no"?>
<!DOCTYPE svg PUBLIC "-//W3C//DTD SVG 1.1//EN"
 "http://www.w3.org/Graphics/SVG/1.1/DTD/svg11.dtd">
<!-- Generated by graphviz version 2.36.0 (20140111.2315)
 -->
<!-- Title: debug.h Pages: 1 -->
<svg width="293pt" height="140pt"
 viewBox="0.00 0.00 293.00 140.00" xmlns="http://www.w3.org/2000/svg" xmlns:xlink="http://www.w3.org/1999/xlink">
<g id="graph0" class="graph" transform="scale(1 1) rotate(0) translate(4 136)">
<title>debug.h</title>
<polygon fill="white" stroke="none" points="-4,4 -4,-136 289,-136 289,4 -4,4"/>
<!-- Node0 -->
<g id="node1" class="node"><title>Node0</title>
<polygon fill="#bfbfbf" stroke="black" points="86.5,-112.5 86.5,-131.5 137.5,-131.5 137.5,-112.5 86.5,-112.5"/>
<text text-anchor="middle" x="112" y="-119.5" font-family="Helvetica,sans-Serif" font-size="10.00">debug.h</text>
</g>
<!-- Node1 -->
<g id="node2" class="node"><title>Node1</title>
<polygon fill="white" stroke="#bfbfbf" points="-0.5,-56.5 -0.5,-75.5 100.5,-75.5 100.5,-56.5 -0.5,-56.5"/>
<text text-anchor="middle" x="50" y="-63.5" font-family="Helvetica,sans-Serif" font-size="10.00">odp/api/abi/debug.h</text>
</g>
<!-- Node0&#45;&gt;Node1 -->
<g id="edge1" class="edge"><title>Node0&#45;&gt;Node1</title>
<path fill="none" stroke="midnightblue" d="M102.039,-112.324C92.8734,-104.341 79.0628,-92.3128 67.9718,-82.6529"/>
<polygon fill="midnightblue" stroke="midnightblue" points="69.9822,-79.7624 60.1426,-75.8339 65.3847,-85.041 69.9822,-79.7624"/>
</g>
<!-- Node2 -->
<g id="node3" class="node"><title>Node2</title>
<g id="a_node3"><a xlink:href="api_2spec_2debug_8h.html" target="_top" xlink:title="ODP debug. ">
<polygon fill="white" stroke="black" points="119,-56.5 119,-75.5 229,-75.5 229,-56.5 119,-56.5"/>
<text text-anchor="middle" x="174" y="-63.5" font-family="Helvetica,sans-Serif" font-size="10.00">odp/api/spec/debug.h</text>
</a>
</g>
</g>
<!-- Node0&#45;&gt;Node2 -->
<g id="edge2" class="edge"><title>Node0&#45;&gt;Node2</title>
<path fill="none" stroke="midnightblue" d="M121.961,-112.324C131.127,-104.341 144.937,-92.3128 156.028,-82.6529"/>
<polygon fill="midnightblue" stroke="midnightblue" points="158.615,-85.041 163.857,-75.8339 154.018,-79.7624 158.615,-85.041"/>
</g>
<!-- Node3 -->
<g id="node4" class="node"><title>Node3</title>
<g id="a_node4"><a xlink:href="visibility__begin_8h_source.html" target="_top" xlink:title="odp/visibility_begin.h">
<polygon fill="white" stroke="black" points="59.5,-0.5 59.5,-19.5 166.5,-19.5 166.5,-0.5 59.5,-0.5"/>
<text text-anchor="middle" x="113" y="-7.5" font-family="Helvetica,sans-Serif" font-size="10.00">odp/visibility_begin.h</text>
</a>
</g>
</g>
<!-- Node2&#45;&gt;Node3 -->
<g id="edge3" class="edge"><title>Node2&#45;&gt;Node3</title>
<path fill="none" stroke="midnightblue" d="M164.199,-56.324C155.182,-48.3414 141.594,-36.3128 130.682,-26.6529"/>
<polygon fill="midnightblue" stroke="midnightblue" points="132.787,-23.8416 122.979,-19.8339 128.147,-29.083 132.787,-23.8416"/>
</g>
<!-- Node4 -->
<g id="node5" class="node"><title>Node4</title>
<g id="a_node5"><a xlink:href="visibility__end_8h_source.html" target="_top" xlink:title="odp/visibility_end.h">
<polygon fill="white" stroke="black" points="185,-0.5 185,-19.5 285,-19.5 285,-0.5 185,-0.5"/>
<text text-anchor="middle" x="235" y="-7.5" font-family="Helvetica,sans-Serif" font-size="10.00">odp/visibility_end.h</text>
</a>
</g>
</g>
<!-- Node2&#45;&gt;Node4 -->
<g id="edge4" class="edge"><title>Node2&#45;&gt;Node4</title>
<path fill="none" stroke="midnightblue" d="M183.801,-56.324C192.818,-48.3414 206.406,-36.3128 217.318,-26.6529"/>
<polygon fill="midnightblue" stroke="midnightblue" points="219.853,-29.083 225.021,-19.8339 215.213,-23.8416 219.853,-29.083"/>
</g>
</g>
</svg>
