<?xml version="1.0" encoding="UTF-8" standalone="no"?>
<!DOCTYPE svg PUBLIC "-//W3C//DTD SVG 1.1//EN"
 "http://www.w3.org/Graphics/SVG/1.1/DTD/svg11.dtd">
<!-- Generated by graphviz version 2.36.0 (20140111.2315)
 -->
<!-- Title: align.h Pages: 1 -->
<svg width="1758pt" height="588pt"
 viewBox="0.00 0.00 1758.00 588.00" xmlns="http://www.w3.org/2000/svg" xmlns:xlink="http://www.w3.org/1999/xlink">
<g id="graph0" class="graph" transform="scale(1 1) rotate(0) translate(4 584)">
<title>align.h</title>
<polygon fill="white" stroke="none" points="-4,4 -4,-584 1754,-584 1754,4 -4,4"/>
<!-- Node2 -->
<g id="node1" class="node"><title>Node2</title>
<polygon fill="#bfbfbf" stroke="black" points="947.5,-560.5 947.5,-579.5 992.5,-579.5 992.5,-560.5 947.5,-560.5"/>
<text text-anchor="middle" x="970" y="-567.5" font-family="Helvetica,sans-Serif" font-size="10.00">align.h</text>
</g>
<!-- Node3 -->
<g id="node2" class="node"><title>Node3</title>
<g id="a_node2"><a xlink:href="arch_2arm32-linux_2odp_2api_2abi_2align_8h_source.html" target="_top" xlink:title="align.h">
<polygon fill="white" stroke="black" points="758.5,-504.5 758.5,-523.5 803.5,-523.5 803.5,-504.5 758.5,-504.5"/>
<text text-anchor="middle" x="781" y="-511.5" font-family="Helvetica,sans-Serif" font-size="10.00">align.h</text>
</a>
</g>
</g>
<!-- Node2&#45;&gt;Node3 -->
<g id="edge1" class="edge"><title>Node2&#45;&gt;Node3</title>
<path fill="none" stroke="midnightblue" d="M937.58,-559.737C899.378,-548.822 836.897,-530.971 803.584,-521.453"/>
<polygon fill="midnightblue" stroke="midnightblue" points="936.625,-563.104 947.202,-562.486 938.548,-556.374 936.625,-563.104"/>
</g>
<!-- Node4 -->
<g id="node3" class="node"><title>Node4</title>
<g id="a_node3"><a xlink:href="arch_2arm64-linux_2odp_2api_2abi_2align_8h_source.html" target="_top" xlink:title="align.h">
<polygon fill="white" stroke="black" points="821.5,-504.5 821.5,-523.5 866.5,-523.5 866.5,-504.5 821.5,-504.5"/>
<text text-anchor="middle" x="844" y="-511.5" font-family="Helvetica,sans-Serif" font-size="10.00">align.h</text>
</a>
</g>
</g>
<!-- Node2&#45;&gt;Node4 -->
<g id="edge2" class="edge"><title>Node2&#45;&gt;Node4</title>
<path fill="none" stroke="midnightblue" d="M940.84,-556.503C917.219,-546.38 884.572,-532.388 863.872,-523.516"/>
<polygon fill="midnightblue" stroke="midnightblue" points="939.465,-559.721 950.035,-560.444 942.222,-553.287 939.465,-559.721"/>
</g>
<!-- Node5 -->
<g id="node4" class="node"><title>Node5</title>
<g id="a_node4"><a xlink:href="arch_2default-linux_2odp_2api_2abi_2align_8h_source.html" target="_top" xlink:title="align.h">
<polygon fill="white" stroke="black" points="884.5,-504.5 884.5,-523.5 929.5,-523.5 929.5,-504.5 884.5,-504.5"/>
<text text-anchor="middle" x="907" y="-511.5" font-family="Helvetica,sans-Serif" font-size="10.00">align.h</text>
</a>
</g>
</g>
<!-- Node2&#45;&gt;Node5 -->
<g id="edge3" class="edge"><title>Node2&#45;&gt;Node5</title>
<path fill="none" stroke="midnightblue" d="M951.96,-553.537C940.727,-543.909 926.681,-531.869 917.306,-523.834"/>
<polygon fill="midnightblue" stroke="midnightblue" points="950.008,-556.473 959.878,-560.324 954.563,-551.159 950.008,-556.473"/>
</g>
<!-- Node6 -->
<g id="node5" class="node"><title>Node6</title>
<g id="a_node5"><a xlink:href="arch_2mips64-linux_2odp_2api_2abi_2align_8h_source.html" target="_top" xlink:title="align.h">
<polygon fill="white" stroke="black" points="947.5,-504.5 947.5,-523.5 992.5,-523.5 992.5,-504.5 947.5,-504.5"/>
<text text-anchor="middle" x="970" y="-511.5" font-family="Helvetica,sans-Serif" font-size="10.00">align.h</text>
</a>
</g>
</g>
<!-- Node2&#45;&gt;Node6 -->
<g id="edge4" class="edge"><title>Node2&#45;&gt;Node6</title>
<path fill="none" stroke="midnightblue" d="M970,-549.805C970,-540.91 970,-530.78 970,-523.751"/>
<polygon fill="midnightblue" stroke="midnightblue" points="966.5,-550.083 970,-560.083 973.5,-550.083 966.5,-550.083"/>
</g>
<!-- Node7 -->
<g id="node6" class="node"><title>Node7</title>
<g id="a_node6"><a xlink:href="arch_2power64-linux_2odp_2api_2abi_2align_8h_source.html" target="_top" xlink:title="align.h">
<polygon fill="white" stroke="black" points="1010.5,-504.5 1010.5,-523.5 1055.5,-523.5 1055.5,-504.5 1010.5,-504.5"/>
<text text-anchor="middle" x="1033" y="-511.5" font-family="Helvetica,sans-Serif" font-size="10.00">align.h</text>
</a>
</g>
</g>
<!-- Node2&#45;&gt;Node7 -->
<g id="edge5" class="edge"><title>Node2&#45;&gt;Node7</title>
<path fill="none" stroke="midnightblue" d="M988.04,-553.537C999.273,-543.909 1013.32,-531.869 1022.69,-523.834"/>
<polygon fill="midnightblue" stroke="midnightblue" points="985.437,-551.159 980.122,-560.324 989.992,-556.473 985.437,-551.159"/>
</g>
<!-- Node8 -->
<g id="node7" class="node"><title>Node8</title>
<g id="a_node7"><a xlink:href="arch_2x86__32-linux_2odp_2api_2abi_2align_8h_source.html" target="_top" xlink:title="align.h">
<polygon fill="white" stroke="black" points="1073.5,-504.5 1073.5,-523.5 1118.5,-523.5 1118.5,-504.5 1073.5,-504.5"/>
<text text-anchor="middle" x="1096" y="-511.5" font-family="Helvetica,sans-Serif" font-size="10.00">align.h</text>
</a>
</g>
</g>
<!-- Node2&#45;&gt;Node8 -->
<g id="edge6" class="edge"><title>Node2&#45;&gt;Node8</title>
<path fill="none" stroke="midnightblue" d="M999.16,-556.503C1022.78,-546.38 1055.43,-532.388 1076.13,-523.516"/>
<polygon fill="midnightblue" stroke="midnightblue" points="997.778,-553.287 989.965,-560.444 1000.54,-559.721 997.778,-553.287"/>
</g>
<!-- Node9 -->
<g id="node8" class="node"><title>Node9</title>
<g id="a_node8"><a xlink:href="arch_2x86__64-linux_2odp_2api_2abi_2align_8h_source.html" target="_top" xlink:title="align.h">
<polygon fill="white" stroke="black" points="1136.5,-504.5 1136.5,-523.5 1181.5,-523.5 1181.5,-504.5 1136.5,-504.5"/>
<text text-anchor="middle" x="1159" y="-511.5" font-family="Helvetica,sans-Serif" font-size="10.00">align.h</text>
</a>
</g>
</g>
<!-- Node2&#45;&gt;Node9 -->
<g id="edge7" class="edge"><title>Node2&#45;&gt;Node9</title>
<path fill="none" stroke="midnightblue" d="M1002.42,-559.737C1040.62,-548.822 1103.1,-530.971 1136.42,-521.453"/>
<polygon fill="midnightblue" stroke="midnightblue" points="1001.45,-556.374 992.798,-562.486 1003.37,-563.104 1001.45,-556.374"/>
</g>
<!-- Node10 -->
<g id="node9" class="node"><title>Node10</title>
<g id="a_node9"><a xlink:href="api_2align_8h.html" target="_top" xlink:title="ODP alignments. ">
<polygon fill="white" stroke="black" points="1136.5,-448.5 1136.5,-467.5 1181.5,-467.5 1181.5,-448.5 1136.5,-448.5"/>
<text text-anchor="middle" x="1159" y="-455.5" font-family="Helvetica,sans-Serif" font-size="10.00">align.h</text>
</a>
</g>
</g>
<!-- Node9&#45;&gt;Node10 -->
<g id="edge8" class="edge"><title>Node9&#45;&gt;Node10</title>
<path fill="none" stroke="midnightblue" d="M1159,-493.805C1159,-484.91 1159,-474.78 1159,-467.751"/>
<polygon fill="midnightblue" stroke="midnightblue" points="1155.5,-494.083 1159,-504.083 1162.5,-494.083 1155.5,-494.083"/>
</g>
<!-- Node11 -->
<g id="node10" class="node"><title>Node11</title>
<g id="a_node10"><a xlink:href="api_2abi-default_2atomic_8h.html" target="_top" xlink:title="ODP atomic operations. ">
<polygon fill="white" stroke="black" points="614,-392.5 614,-411.5 668,-411.5 668,-392.5 614,-392.5"/>
<text text-anchor="middle" x="641" y="-399.5" font-family="Helvetica,sans-Serif" font-size="10.00">atomic.h</text>
</a>
</g>
</g>
<!-- Node10&#45;&gt;Node11 -->
<g id="edge9" class="edge"><title>Node10&#45;&gt;Node11</title>
<path fill="none" stroke="midnightblue" d="M1126.23,-453.584C1031.1,-443.667 756.093,-414.998 668.29,-405.845"/>
<polygon fill="midnightblue" stroke="midnightblue" points="1126.1,-457.089 1136.41,-454.645 1126.83,-450.127 1126.1,-457.089"/>
</g>
<!-- Node29 -->
<g id="node28" class="node"><title>Node29</title>
<g id="a_node28"><a xlink:href="odp__api_8h.html" target="_top" xlink:title="The OpenDataPlane API. ">
<polygon fill="white" stroke="black" points="818.5,-56.5 818.5,-75.5 877.5,-75.5 877.5,-56.5 818.5,-56.5"/>
<text text-anchor="middle" x="848" y="-63.5" font-family="Helvetica,sans-Serif" font-size="10.00">odp_api.h</text>
</a>
</g>
</g>
<!-- Node10&#45;&gt;Node29 -->
<g id="edge53" class="edge"><title>Node10&#45;&gt;Node29</title>
<path fill="none" stroke="midnightblue" d="M1159,-438.251C1159,-416.357 1159,-379.052 1159,-347 1159,-347 1159,-347 1159,-177 1159,-117.653 955.169,-82.3027 877.539,-70.9913"/>
<polygon fill="midnightblue" stroke="midnightblue" points="1155.5,-438.442 1159,-448.442 1162.5,-438.442 1155.5,-438.442"/>
</g>
<!-- Node58 -->
<g id="node40" class="node"><title>Node58</title>
<g id="a_node40"><a xlink:href="api_2abi-default_2cpumask_8h.html" target="_top" xlink:title="ODP CPU masks and enumeration. ">
<polygon fill="white" stroke="black" points="1394.5,-392.5 1394.5,-411.5 1459.5,-411.5 1459.5,-392.5 1394.5,-392.5"/>
<text text-anchor="middle" x="1427" y="-399.5" font-family="Helvetica,sans-Serif" font-size="10.00">cpumask.h</text>
</a>
</g>
</g>
<!-- Node10&#45;&gt;Node58 -->
<g id="edge41" class="edge"><title>Node10&#45;&gt;Node58</title>
<path fill="none" stroke="midnightblue" d="M1191.8,-450.392C1243.38,-439.997 1342.89,-419.947 1394.37,-409.574"/>
<polygon fill="midnightblue" stroke="midnightblue" points="1190.96,-446.99 1181.85,-452.396 1192.34,-453.852 1190.96,-446.99"/>
</g>
<!-- Node12 -->
<g id="node11" class="node"><title>Node12</title>
<g id="a_node11"><a xlink:href="arch_2arm32-linux_2odp_2api_2abi_2atomic_8h_source.html" target="_top" xlink:title="atomic.h">
<polygon fill="white" stroke="black" points="362,-336.5 362,-355.5 416,-355.5 416,-336.5 362,-336.5"/>
<text text-anchor="middle" x="389" y="-343.5" font-family="Helvetica,sans-Serif" font-size="10.00">atomic.h</text>
</a>
</g>
</g>
<!-- Node11&#45;&gt;Node12 -->
<g id="edge10" class="edge"><title>Node11&#45;&gt;Node12</title>
<path fill="none" stroke="midnightblue" d="M603.963,-393.748C560.865,-385.201 487.606,-370.341 425,-356 422.111,-355.338 419.098,-354.624 416.099,-353.897"/>
<polygon fill="midnightblue" stroke="midnightblue" points="603.497,-397.223 613.986,-395.729 604.855,-390.356 603.497,-397.223"/>
</g>
<!-- Node13 -->
<g id="node12" class="node"><title>Node13</title>
<g id="a_node12"><a xlink:href="arch_2arm64-linux_2odp_2api_2abi_2atomic_8h_source.html" target="_top" xlink:title="atomic.h">
<polygon fill="white" stroke="black" points="434,-336.5 434,-355.5 488,-355.5 488,-336.5 434,-336.5"/>
<text text-anchor="middle" x="461" y="-343.5" font-family="Helvetica,sans-Serif" font-size="10.00">atomic.h</text>
</a>
</g>
</g>
<!-- Node11&#45;&gt;Node13 -->
<g id="edge11" class="edge"><title>Node11&#45;&gt;Node13</title>
<path fill="none" stroke="midnightblue" d="M603.95,-389.885C569.448,-379.534 518.835,-364.351 488.006,-355.102"/>
<polygon fill="midnightblue" stroke="midnightblue" points="603.078,-393.277 613.662,-392.799 605.089,-386.573 603.078,-393.277"/>
</g>
<!-- Node14 -->
<g id="node13" class="node"><title>Node14</title>
<g id="a_node13"><a xlink:href="arch_2default-linux_2odp_2api_2abi_2atomic_8h_source.html" target="_top" xlink:title="atomic.h">
<polygon fill="white" stroke="black" points="506,-336.5 506,-355.5 560,-355.5 560,-336.5 506,-336.5"/>
<text text-anchor="middle" x="533" y="-343.5" font-family="Helvetica,sans-Serif" font-size="10.00">atomic.h</text>
</a>
</g>
</g>
<!-- Node11&#45;&gt;Node14 -->
<g id="edge12" class="edge"><title>Node11&#45;&gt;Node14</title>
<path fill="none" stroke="midnightblue" d="M614.452,-387.726C594.454,-377.727 567.613,-364.307 550.309,-355.655"/>
<polygon fill="midnightblue" stroke="midnightblue" points="613.138,-390.982 623.648,-392.324 616.269,-384.721 613.138,-390.982"/>
</g>
<!-- Node15 -->
<g id="node14" class="node"><title>Node15</title>
<g id="a_node14"><a xlink:href="arch_2mips64-linux_2odp_2api_2abi_2atomic_8h_source.html" target="_top" xlink:title="atomic.h">
<polygon fill="white" stroke="black" points="578,-336.5 578,-355.5 632,-355.5 632,-336.5 578,-336.5"/>
<text text-anchor="middle" x="605" y="-343.5" font-family="Helvetica,sans-Serif" font-size="10.00">atomic.h</text>
</a>
</g>
</g>
<!-- Node11&#45;&gt;Node15 -->
<g id="edge13" class="edge"><title>Node11&#45;&gt;Node15</title>
<path fill="none" stroke="midnightblue" d="M629.377,-383.566C623.183,-374.275 615.832,-363.248 610.834,-355.751"/>
<polygon fill="midnightblue" stroke="midnightblue" points="626.596,-385.704 635.055,-392.083 632.42,-381.821 626.596,-385.704"/>
</g>
<!-- Node16 -->
<g id="node15" class="node"><title>Node16</title>
<g id="a_node15"><a xlink:href="arch_2power64-linux_2odp_2api_2abi_2atomic_8h_source.html" target="_top" xlink:title="atomic.h">
<polygon fill="white" stroke="black" points="650,-336.5 650,-355.5 704,-355.5 704,-336.5 650,-336.5"/>
<text text-anchor="middle" x="677" y="-343.5" font-family="Helvetica,sans-Serif" font-size="10.00">atomic.h</text>
</a>
</g>
</g>
<!-- Node11&#45;&gt;Node16 -->
<g id="edge14" class="edge"><title>Node11&#45;&gt;Node16</title>
<path fill="none" stroke="midnightblue" d="M652.623,-383.566C658.817,-374.275 666.168,-363.248 671.166,-355.751"/>
<polygon fill="midnightblue" stroke="midnightblue" points="649.58,-381.821 646.945,-392.083 655.404,-385.704 649.58,-381.821"/>
</g>
<!-- Node17 -->
<g id="node16" class="node"><title>Node17</title>
<g id="a_node16"><a xlink:href="arch_2x86__32-linux_2odp_2api_2abi_2atomic_8h_source.html" target="_top" xlink:title="atomic.h">
<polygon fill="white" stroke="black" points="722,-336.5 722,-355.5 776,-355.5 776,-336.5 722,-336.5"/>
<text text-anchor="middle" x="749" y="-343.5" font-family="Helvetica,sans-Serif" font-size="10.00">atomic.h</text>
</a>
</g>
</g>
<!-- Node11&#45;&gt;Node17 -->
<g id="edge15" class="edge"><title>Node11&#45;&gt;Node17</title>
<path fill="none" stroke="midnightblue" d="M667.548,-387.726C687.546,-377.727 714.387,-364.307 731.691,-355.655"/>
<polygon fill="midnightblue" stroke="midnightblue" points="665.731,-384.721 658.352,-392.324 668.862,-390.982 665.731,-384.721"/>
</g>
<!-- Node18 -->
<g id="node17" class="node"><title>Node18</title>
<g id="a_node17"><a xlink:href="arch_2x86__64-linux_2odp_2api_2abi_2atomic_8h_source.html" target="_top" xlink:title="atomic.h">
<polygon fill="white" stroke="black" points="794,-336.5 794,-355.5 848,-355.5 848,-336.5 794,-336.5"/>
<text text-anchor="middle" x="821" y="-343.5" font-family="Helvetica,sans-Serif" font-size="10.00">atomic.h</text>
</a>
</g>
</g>
<!-- Node11&#45;&gt;Node18 -->
<g id="edge16" class="edge"><title>Node11&#45;&gt;Node18</title>
<path fill="none" stroke="midnightblue" d="M678.05,-389.885C712.552,-379.534 763.165,-364.351 793.994,-355.102"/>
<polygon fill="midnightblue" stroke="midnightblue" points="676.911,-386.573 668.338,-392.799 678.922,-393.277 676.911,-386.573"/>
</g>
<!-- Node19 -->
<g id="node18" class="node"><title>Node19</title>
<g id="a_node18"><a xlink:href="api_2atomic_8h.html" target="_top" xlink:title="ODP atomic operations. ">
<polygon fill="white" stroke="black" points="609,-280.5 609,-299.5 663,-299.5 663,-280.5 609,-280.5"/>
<text text-anchor="middle" x="636" y="-287.5" font-family="Helvetica,sans-Serif" font-size="10.00">atomic.h</text>
</a>
</g>
</g>
<!-- Node18&#45;&gt;Node19 -->
<g id="edge17" class="edge"><title>Node18&#45;&gt;Node19</title>
<path fill="none" stroke="midnightblue" d="M783.669,-334.103C747.954,-323.679 694.951,-308.207 663.108,-298.913"/>
<polygon fill="midnightblue" stroke="midnightblue" points="783.122,-337.59 793.703,-337.032 785.084,-330.87 783.122,-337.59"/>
</g>
<!-- Node20 -->
<g id="node19" class="node"><title>Node20</title>
<g id="a_node19"><a xlink:href="api_2abi-default_2barrier_8h.html" target="_top" xlink:title="ODP barrier. ">
<polygon fill="white" stroke="black" points="245,-224.5 245,-243.5 297,-243.5 297,-224.5 245,-224.5"/>
<text text-anchor="middle" x="271" y="-231.5" font-family="Helvetica,sans-Serif" font-size="10.00">barrier.h</text>
</a>
</g>
</g>
<!-- Node19&#45;&gt;Node20 -->
<g id="edge18" class="edge"><title>Node19&#45;&gt;Node20</title>
<path fill="none" stroke="midnightblue" d="M598.621,-283.47C524.645,-272.526 361.218,-248.347 297.328,-238.895"/>
<polygon fill="midnightblue" stroke="midnightblue" points="598.459,-286.984 608.864,-284.985 599.484,-280.059 598.459,-286.984"/>
</g>
<!-- Node28 -->
<g id="node27" class="node"><title>Node28</title>
<g id="a_node27"><a xlink:href="api_2barrier_8h.html" target="_top" xlink:title="ODP execution barriers. ">
<polygon fill="white" stroke="black" points="458,-112.5 458,-131.5 510,-131.5 510,-112.5 458,-112.5"/>
<text text-anchor="middle" x="484" y="-119.5" font-family="Helvetica,sans-Serif" font-size="10.00">barrier.h</text>
</a>
</g>
</g>
<!-- Node19&#45;&gt;Node28 -->
<g id="edge39" class="edge"><title>Node19&#45;&gt;Node28</title>
<path fill="none" stroke="midnightblue" d="M598.836,-282.485C574.515,-276.406 543.707,-264.984 524,-244 492.951,-210.938 485.979,-153.235 484.433,-131.557"/>
<polygon fill="midnightblue" stroke="midnightblue" points="598.281,-285.948 608.81,-284.775 599.847,-279.126 598.281,-285.948"/>
</g>
<!-- Node19&#45;&gt;Node29 -->
<g id="edge40" class="edge"><title>Node19&#45;&gt;Node29</title>
<path fill="none" stroke="midnightblue" d="M614.499,-274.463C583.156,-251.458 531.4,-205.431 558,-168 618.684,-82.6056 757.07,-68.7982 818.119,-66.9928"/>
<polygon fill="midnightblue" stroke="midnightblue" points="612.541,-277.365 622.716,-280.315 616.601,-271.663 612.541,-277.365"/>
</g>
<!-- Node31 -->
<g id="node30" class="node"><title>Node31</title>
<g id="a_node30"><a xlink:href="api_2abi-default_2rwlock_8h.html" target="_top" xlink:title="ODP rwlock. ">
<polygon fill="white" stroke="black" points="743.5,-224.5 743.5,-243.5 796.5,-243.5 796.5,-224.5 743.5,-224.5"/>
<text text-anchor="middle" x="770" y="-231.5" font-family="Helvetica,sans-Serif" font-size="10.00">rwlock.h</text>
</a>
</g>
</g>
<!-- Node19&#45;&gt;Node31 -->
<g id="edge29" class="edge"><title>Node19&#45;&gt;Node31</title>
<path fill="none" stroke="midnightblue" d="M666.677,-276.638C691.823,-266.504 726.754,-252.427 748.867,-243.516"/>
<polygon fill="midnightblue" stroke="midnightblue" points="665.2,-273.459 657.233,-280.444 667.816,-279.952 665.2,-273.459"/>
</g>
<!-- Node49 -->
<g id="node38" class="node"><title>Node49</title>
<g id="a_node38"><a xlink:href="api_2abi-default_2ticketlock_8h.html" target="_top" xlink:title="ODP ticketlock. ">
<polygon fill="white" stroke="red" points="956.5,-224.5 956.5,-243.5 1023.5,-243.5 1023.5,-224.5 956.5,-224.5"/>
<text text-anchor="middle" x="990" y="-231.5" font-family="Helvetica,sans-Serif" font-size="10.00">ticketlock.h</text>
</a>
</g>
</g>
<!-- Node19&#45;&gt;Node49 -->
<g id="edge37" class="edge"><title>Node19&#45;&gt;Node49</title>
<path fill="none" stroke="midnightblue" d="M673.208,-283.324C742.419,-272.767 889.936,-250.264 956.356,-240.132"/>
<polygon fill="midnightblue" stroke="midnightblue" points="672.548,-279.884 663.19,-284.852 673.603,-286.804 672.548,-279.884"/>
</g>
<!-- Node21 -->
<g id="node20" class="node"><title>Node21</title>
<g id="a_node20"><a xlink:href="arch_2arm32-linux_2odp_2api_2abi_2barrier_8h_source.html" target="_top" xlink:title="barrier.h">
<polygon fill="white" stroke="black" points="0,-168.5 0,-187.5 52,-187.5 52,-168.5 0,-168.5"/>
<text text-anchor="middle" x="26" y="-175.5" font-family="Helvetica,sans-Serif" font-size="10.00">barrier.h</text>
</a>
</g>
</g>
<!-- Node20&#45;&gt;Node21 -->
<g id="edge19" class="edge"><title>Node20&#45;&gt;Node21</title>
<path fill="none" stroke="midnightblue" d="M234.721,-225.692C192.78,-217.136 121.724,-202.307 61,-188 58.1908,-187.338 55.2612,-186.624 52.345,-185.897"/>
<polygon fill="midnightblue" stroke="midnightblue" points="234.235,-229.165 244.732,-227.728 235.63,-222.305 234.235,-229.165"/>
</g>
<!-- Node22 -->
<g id="node21" class="node"><title>Node22</title>
<g id="a_node21"><a xlink:href="arch_2arm64-linux_2odp_2api_2abi_2barrier_8h_source.html" target="_top" xlink:title="barrier.h">
<polygon fill="white" stroke="black" points="70,-168.5 70,-187.5 122,-187.5 122,-168.5 70,-168.5"/>
<text text-anchor="middle" x="96" y="-175.5" font-family="Helvetica,sans-Serif" font-size="10.00">barrier.h</text>
</a>
</g>
</g>
<!-- Node20&#45;&gt;Node22 -->
<g id="edge20" class="edge"><title>Node20&#45;&gt;Node22</title>
<path fill="none" stroke="midnightblue" d="M234.914,-221.865C201.311,-211.496 152.031,-196.289 122.092,-187.051"/>
<polygon fill="midnightblue" stroke="midnightblue" points="234.213,-225.311 244.801,-224.916 236.277,-218.623 234.213,-225.311"/>
</g>
<!-- Node23 -->
<g id="node22" class="node"><title>Node23</title>
<g id="a_node22"><a xlink:href="arch_2default-linux_2odp_2api_2abi_2barrier_8h_source.html" target="_top" xlink:title="barrier.h">
<polygon fill="white" stroke="black" points="140,-168.5 140,-187.5 192,-187.5 192,-168.5 140,-168.5"/>
<text text-anchor="middle" x="166" y="-175.5" font-family="Helvetica,sans-Serif" font-size="10.00">barrier.h</text>
</a>
</g>
</g>
<!-- Node20&#45;&gt;Node23 -->
<g id="edge21" class="edge"><title>Node20&#45;&gt;Node23</title>
<path fill="none" stroke="midnightblue" d="M245.19,-219.726C225.747,-209.727 199.652,-196.307 182.828,-187.655"/>
<polygon fill="midnightblue" stroke="midnightblue" points="243.636,-222.863 254.13,-224.324 246.838,-216.638 243.636,-222.863"/>
</g>
<!-- Node24 -->
<g id="node23" class="node"><title>Node24</title>
<g id="a_node23"><a xlink:href="arch_2mips64-linux_2odp_2api_2abi_2barrier_8h_source.html" target="_top" xlink:title="barrier.h">
<polygon fill="white" stroke="black" points="210,-168.5 210,-187.5 262,-187.5 262,-168.5 210,-168.5"/>
<text text-anchor="middle" x="236" y="-175.5" font-family="Helvetica,sans-Serif" font-size="10.00">barrier.h</text>
</a>
</g>
</g>
<!-- Node20&#45;&gt;Node24 -->
<g id="edge22" class="edge"><title>Node20&#45;&gt;Node24</title>
<path fill="none" stroke="midnightblue" d="M259.7,-215.566C253.678,-206.275 246.531,-195.248 241.672,-187.751"/>
<polygon fill="midnightblue" stroke="midnightblue" points="256.844,-217.595 265.22,-224.083 262.719,-213.788 256.844,-217.595"/>
</g>
<!-- Node25 -->
<g id="node24" class="node"><title>Node25</title>
<g id="a_node24"><a xlink:href="arch_2power64-linux_2odp_2api_2abi_2barrier_8h_source.html" target="_top" xlink:title="barrier.h">
<polygon fill="white" stroke="black" points="280,-168.5 280,-187.5 332,-187.5 332,-168.5 280,-168.5"/>
<text text-anchor="middle" x="306" y="-175.5" font-family="Helvetica,sans-Serif" font-size="10.00">barrier.h</text>
</a>
</g>
</g>
<!-- Node20&#45;&gt;Node25 -->
<g id="edge23" class="edge"><title>Node20&#45;&gt;Node25</title>
<path fill="none" stroke="midnightblue" d="M282.3,-215.566C288.322,-206.275 295.469,-195.248 300.328,-187.751"/>
<polygon fill="midnightblue" stroke="midnightblue" points="279.281,-213.788 276.78,-224.083 285.156,-217.595 279.281,-213.788"/>
</g>
<!-- Node26 -->
<g id="node25" class="node"><title>Node26</title>
<g id="a_node25"><a xlink:href="arch_2x86__32-linux_2odp_2api_2abi_2barrier_8h_source.html" target="_top" xlink:title="barrier.h">
<polygon fill="white" stroke="black" points="350,-168.5 350,-187.5 402,-187.5 402,-168.5 350,-168.5"/>
<text text-anchor="middle" x="376" y="-175.5" font-family="Helvetica,sans-Serif" font-size="10.00">barrier.h</text>
</a>
</g>
</g>
<!-- Node20&#45;&gt;Node26 -->
<g id="edge24" class="edge"><title>Node20&#45;&gt;Node26</title>
<path fill="none" stroke="midnightblue" d="M296.81,-219.726C316.253,-209.727 342.348,-196.307 359.172,-187.655"/>
<polygon fill="midnightblue" stroke="midnightblue" points="295.162,-216.638 287.87,-224.324 298.364,-222.863 295.162,-216.638"/>
</g>
<!-- Node27 -->
<g id="node26" class="node"><title>Node27</title>
<g id="a_node26"><a xlink:href="arch_2x86__64-linux_2odp_2api_2abi_2barrier_8h_source.html" target="_top" xlink:title="barrier.h">
<polygon fill="white" stroke="black" points="420,-168.5 420,-187.5 472,-187.5 472,-168.5 420,-168.5"/>
<text text-anchor="middle" x="446" y="-175.5" font-family="Helvetica,sans-Serif" font-size="10.00">barrier.h</text>
</a>
</g>
</g>
<!-- Node20&#45;&gt;Node27 -->
<g id="edge25" class="edge"><title>Node20&#45;&gt;Node27</title>
<path fill="none" stroke="midnightblue" d="M307.086,-221.865C340.689,-211.496 389.969,-196.289 419.908,-187.051"/>
<polygon fill="midnightblue" stroke="midnightblue" points="305.723,-218.623 297.199,-224.916 307.787,-225.311 305.723,-218.623"/>
</g>
<!-- Node27&#45;&gt;Node28 -->
<g id="edge26" class="edge"><title>Node27&#45;&gt;Node28</title>
<path fill="none" stroke="midnightblue" d="M458.065,-159.855C464.645,-150.505 472.511,-139.327 477.842,-131.751"/>
<polygon fill="midnightblue" stroke="midnightblue" points="455.168,-157.891 452.275,-168.083 460.892,-161.919 455.168,-157.891"/>
</g>
<!-- Node28&#45;&gt;Node29 -->
<g id="edge27" class="edge"><title>Node28&#45;&gt;Node29</title>
<path fill="none" stroke="midnightblue" d="M520.166,-112.721C521.458,-112.47 522.739,-112.229 524,-112 631.84,-92.4142 761.231,-76.7832 818.385,-70.2761"/>
<polygon fill="midnightblue" stroke="midnightblue" points="519.273,-109.331 510.186,-114.78 520.687,-116.187 519.273,-109.331"/>
</g>
<!-- Node30 -->
<g id="node29" class="node"><title>Node30</title>
<g id="a_node29"><a xlink:href="odp_8h.html" target="_top" xlink:title="WARNING: THIS FILE IS DEPRECATED AND WILL BE REMOVED!!! ODP APPLICATIONS SHOULD NOW INCLUDE odp_api...">
<polygon fill="white" stroke="black" points="827.5,-0.5 827.5,-19.5 868.5,-19.5 868.5,-0.5 827.5,-0.5"/>
<text text-anchor="middle" x="848" y="-7.5" font-family="Helvetica,sans-Serif" font-size="10.00">odp.h</text>
</a>
</g>
</g>
<!-- Node29&#45;&gt;Node30 -->
<g id="edge28" class="edge"><title>Node29&#45;&gt;Node30</title>
<path fill="none" stroke="midnightblue" d="M848,-45.8045C848,-36.9102 848,-26.7798 848,-19.7511"/>
<polygon fill="midnightblue" stroke="midnightblue" points="844.5,-46.083 848,-56.083 851.5,-46.083 844.5,-46.083"/>
</g>
<!-- Node32 -->
<g id="node31" class="node"><title>Node32</title>
<g id="a_node31"><a xlink:href="arch_2arm32-linux_2odp_2api_2abi_2rwlock_8h_source.html" target="_top" xlink:title="rwlock.h">
<polygon fill="white" stroke="black" points="566.5,-168.5 566.5,-187.5 619.5,-187.5 619.5,-168.5 566.5,-168.5"/>
<text text-anchor="middle" x="593" y="-175.5" font-family="Helvetica,sans-Serif" font-size="10.00">rwlock.h</text>
</a>
</g>
</g>
<!-- Node31&#45;&gt;Node32 -->
<g id="edge30" class="edge"><title>Node31&#45;&gt;Node32</title>
<path fill="none" stroke="midnightblue" d="M733.13,-221.751C699.214,-211.404 649.741,-196.311 619.556,-187.102"/>
<polygon fill="midnightblue" stroke="midnightblue" points="732.531,-225.228 743.118,-224.799 734.574,-218.533 732.531,-225.228"/>
</g>
<!-- Node33 -->
<g id="node32" class="node"><title>Node33</title>
<g id="a_node32"><a xlink:href="arch_2arm64-linux_2odp_2api_2abi_2rwlock_8h_source.html" target="_top" xlink:title="rwlock.h">
<polygon fill="white" stroke="black" points="637.5,-168.5 637.5,-187.5 690.5,-187.5 690.5,-168.5 637.5,-168.5"/>
<text text-anchor="middle" x="664" y="-175.5" font-family="Helvetica,sans-Serif" font-size="10.00">rwlock.h</text>
</a>
</g>
</g>
<!-- Node31&#45;&gt;Node33 -->
<g id="edge31" class="edge"><title>Node31&#45;&gt;Node33</title>
<path fill="none" stroke="midnightblue" d="M743.944,-219.726C724.316,-209.727 697.972,-196.307 680.988,-187.655"/>
<polygon fill="midnightblue" stroke="midnightblue" points="742.47,-222.903 752.969,-224.324 745.648,-216.666 742.47,-222.903"/>
</g>
<!-- Node34 -->
<g id="node33" class="node"><title>Node34</title>
<g id="a_node33"><a xlink:href="arch_2default-linux_2odp_2api_2abi_2rwlock_8h_source.html" target="_top" xlink:title="rwlock.h">
<polygon fill="white" stroke="black" points="708.5,-168.5 708.5,-187.5 761.5,-187.5 761.5,-168.5 708.5,-168.5"/>
<text text-anchor="middle" x="735" y="-175.5" font-family="Helvetica,sans-Serif" font-size="10.00">rwlock.h</text>
</a>
</g>
</g>
<!-- Node31&#45;&gt;Node34 -->
<g id="edge32" class="edge"><title>Node31&#45;&gt;Node34</title>
<path fill="none" stroke="midnightblue" d="M758.7,-215.566C752.678,-206.275 745.531,-195.248 740.672,-187.751"/>
<polygon fill="midnightblue" stroke="midnightblue" points="755.844,-217.595 764.22,-224.083 761.719,-213.788 755.844,-217.595"/>
</g>
<!-- Node35 -->
<g id="node34" class="node"><title>Node35</title>
<g id="a_node34"><a xlink:href="arch_2mips64-linux_2odp_2api_2abi_2rwlock_8h_source.html" target="_top" xlink:title="rwlock.h">
<polygon fill="white" stroke="black" points="779.5,-168.5 779.5,-187.5 832.5,-187.5 832.5,-168.5 779.5,-168.5"/>
<text text-anchor="middle" x="806" y="-175.5" font-family="Helvetica,sans-Serif" font-size="10.00">rwlock.h</text>
</a>
</g>
</g>
<!-- Node31&#45;&gt;Node35 -->
<g id="edge33" class="edge"><title>Node31&#45;&gt;Node35</title>
<path fill="none" stroke="midnightblue" d="M781.623,-215.566C787.817,-206.275 795.168,-195.248 800.166,-187.751"/>
<polygon fill="midnightblue" stroke="midnightblue" points="778.58,-213.821 775.945,-224.083 784.404,-217.704 778.58,-213.821"/>
</g>
<!-- Node36 -->
<g id="node35" class="node"><title>Node36</title>
<g id="a_node35"><a xlink:href="arch_2power64-linux_2odp_2api_2abi_2rwlock_8h_source.html" target="_top" xlink:title="rwlock.h">
<polygon fill="white" stroke="black" points="850.5,-168.5 850.5,-187.5 903.5,-187.5 903.5,-168.5 850.5,-168.5"/>
<text text-anchor="middle" x="877" y="-175.5" font-family="Helvetica,sans-Serif" font-size="10.00">rwlock.h</text>
</a>
</g>
</g>
<!-- Node31&#45;&gt;Node36 -->
<g id="edge34" class="edge"><title>Node31&#45;&gt;Node36</title>
<path fill="none" stroke="midnightblue" d="M796.302,-219.726C816.115,-209.727 842.707,-196.307 859.851,-187.655"/>
<polygon fill="midnightblue" stroke="midnightblue" points="794.542,-216.694 787.191,-224.324 797.696,-222.943 794.542,-216.694"/>
</g>
<!-- Node37 -->
<g id="node36" class="node"><title>Node37</title>
<g id="a_node36"><a xlink:href="arch_2x86__32-linux_2odp_2api_2abi_2rwlock_8h_source.html" target="_top" xlink:title="rwlock.h">
<polygon fill="white" stroke="black" points="921.5,-168.5 921.5,-187.5 974.5,-187.5 974.5,-168.5 921.5,-168.5"/>
<text text-anchor="middle" x="948" y="-175.5" font-family="Helvetica,sans-Serif" font-size="10.00">rwlock.h</text>
</a>
</g>
</g>
<!-- Node31&#45;&gt;Node37 -->
<g id="edge35" class="edge"><title>Node31&#45;&gt;Node37</title>
<path fill="none" stroke="midnightblue" d="M806.263,-221.999C840.451,-211.627 890.878,-196.329 921.461,-187.051"/>
<polygon fill="midnightblue" stroke="midnightblue" points="805.202,-218.663 796.648,-224.916 807.234,-225.362 805.202,-218.663"/>
</g>
<!-- Node38 -->
<g id="node37" class="node"><title>Node38</title>
<g id="a_node37"><a xlink:href="arch_2x86__64-linux_2odp_2api_2abi_2rwlock_8h_source.html" target="_top" xlink:title="rwlock.h">
<polygon fill="white" stroke="red" points="992.5,-168.5 992.5,-187.5 1045.5,-187.5 1045.5,-168.5 992.5,-168.5"/>
<text text-anchor="middle" x="1019" y="-175.5" font-family="Helvetica,sans-Serif" font-size="10.00">rwlock.h</text>
</a>
</g>
</g>
<!-- Node31&#45;&gt;Node38 -->
<g id="edge36" class="edge"><title>Node31&#45;&gt;Node38</title>
<path fill="none" stroke="midnightblue" d="M806.517,-225.711C849.011,-217.129 921.247,-202.237 983,-188 986.013,-187.305 989.162,-186.555 992.29,-185.794"/>
<polygon fill="midnightblue" stroke="midnightblue" points="805.747,-222.295 796.634,-227.701 807.129,-229.157 805.747,-222.295"/>
</g>
<!-- Node50 -->
<g id="node39" class="node"><title>Node50</title>
<g id="a_node39"><a xlink:href="arch_2arm32-linux_2odp_2api_2abi_2ticketlock_8h_source.html" target="_top" xlink:title="ticketlock.h">
<polygon fill="white" stroke="black" points="1063.5,-168.5 1063.5,-187.5 1130.5,-187.5 1130.5,-168.5 1063.5,-168.5"/>
<text text-anchor="middle" x="1097" y="-175.5" font-family="Helvetica,sans-Serif" font-size="10.00">ticketlock.h</text>
</a>
</g>
</g>
<!-- Node49&#45;&gt;Node50 -->
<g id="edge38" class="edge"><title>Node49&#45;&gt;Node50</title>
<path fill="none" stroke="midnightblue" d="M1016.3,-219.726C1036.11,-209.727 1062.71,-196.307 1079.85,-187.655"/>
<polygon fill="midnightblue" stroke="midnightblue" points="1014.54,-216.694 1007.19,-224.324 1017.7,-222.943 1014.54,-216.694"/>
</g>
<!-- Node59 -->
<g id="node41" class="node"><title>Node59</title>
<g id="a_node41"><a xlink:href="arch_2arm32-linux_2odp_2api_2abi_2cpumask_8h_source.html" target="_top" xlink:title="cpumask.h">
<polygon fill="white" stroke="black" points="1187.5,-336.5 1187.5,-355.5 1252.5,-355.5 1252.5,-336.5 1187.5,-336.5"/>
<text text-anchor="middle" x="1220" y="-343.5" font-family="Helvetica,sans-Serif" font-size="10.00">cpumask.h</text>
</a>
</g>
</g>
<!-- Node58&#45;&gt;Node59 -->
<g id="edge42" class="edge"><title>Node58&#45;&gt;Node59</title>
<path fill="none" stroke="midnightblue" d="M1384.18,-389.829C1345.09,-379.633 1288.17,-364.782 1252.65,-355.516"/>
<polygon fill="midnightblue" stroke="midnightblue" points="1383.64,-393.306 1394.2,-392.444 1385.41,-386.533 1383.64,-393.306"/>
</g>
<!-- Node60 -->
<g id="node42" class="node"><title>Node60</title>
<g id="a_node42"><a xlink:href="arch_2arm64-linux_2odp_2api_2abi_2cpumask_8h_source.html" target="_top" xlink:title="cpumask.h">
<polygon fill="white" stroke="black" points="1270.5,-336.5 1270.5,-355.5 1335.5,-355.5 1335.5,-336.5 1270.5,-336.5"/>
<text text-anchor="middle" x="1303" y="-343.5" font-family="Helvetica,sans-Serif" font-size="10.00">cpumask.h</text>
</a>
</g>
</g>
<!-- Node58&#45;&gt;Node60 -->
<g id="edge43" class="edge"><title>Node58&#45;&gt;Node60</title>
<path fill="none" stroke="midnightblue" d="M1397.99,-388.368C1374.77,-378.255 1342.84,-364.349 1322.56,-355.516"/>
<polygon fill="midnightblue" stroke="midnightblue" points="1396.79,-391.66 1407.35,-392.444 1399.58,-385.242 1396.79,-391.66"/>
</g>
<!-- Node61 -->
<g id="node43" class="node"><title>Node61</title>
<g id="a_node43"><a xlink:href="arch_2default-linux_2odp_2api_2abi_2cpumask_8h_source.html" target="_top" xlink:title="cpumask.h">
<polygon fill="white" stroke="black" points="1353.5,-336.5 1353.5,-355.5 1418.5,-355.5 1418.5,-336.5 1353.5,-336.5"/>
<text text-anchor="middle" x="1386" y="-343.5" font-family="Helvetica,sans-Serif" font-size="10.00">cpumask.h</text>
</a>
</g>
</g>
<!-- Node58&#45;&gt;Node61 -->
<g id="edge44" class="edge"><title>Node58&#45;&gt;Node61</title>
<path fill="none" stroke="midnightblue" d="M1413.98,-383.855C1406.88,-374.505 1398.4,-363.327 1392.64,-355.751"/>
<polygon fill="midnightblue" stroke="midnightblue" points="1411.39,-386.235 1420.23,-392.083 1416.97,-382.002 1411.39,-386.235"/>
</g>
<!-- Node62 -->
<g id="node44" class="node"><title>Node62</title>
<g id="a_node44"><a xlink:href="arch_2mips64-linux_2odp_2api_2abi_2cpumask_8h_source.html" target="_top" xlink:title="cpumask.h">
<polygon fill="white" stroke="black" points="1436.5,-336.5 1436.5,-355.5 1501.5,-355.5 1501.5,-336.5 1436.5,-336.5"/>
<text text-anchor="middle" x="1469" y="-343.5" font-family="Helvetica,sans-Serif" font-size="10.00">cpumask.h</text>
</a>
</g>
</g>
<!-- Node58&#45;&gt;Node62 -->
<g id="edge45" class="edge"><title>Node58&#45;&gt;Node62</title>
<path fill="none" stroke="midnightblue" d="M1440.11,-384.144C1447.43,-374.736 1456.24,-363.405 1462.19,-355.751"/>
<polygon fill="midnightblue" stroke="midnightblue" points="1437.31,-382.041 1433.94,-392.083 1442.84,-386.338 1437.31,-382.041"/>
</g>
<!-- Node63 -->
<g id="node45" class="node"><title>Node63</title>
<g id="a_node45"><a xlink:href="arch_2power64-linux_2odp_2api_2abi_2cpumask_8h_source.html" target="_top" xlink:title="cpumask.h">
<polygon fill="white" stroke="black" points="1519.5,-336.5 1519.5,-355.5 1584.5,-355.5 1584.5,-336.5 1519.5,-336.5"/>
<text text-anchor="middle" x="1552" y="-343.5" font-family="Helvetica,sans-Serif" font-size="10.00">cpumask.h</text>
</a>
</g>
</g>
<!-- Node58&#45;&gt;Node63 -->
<g id="edge46" class="edge"><title>Node58&#45;&gt;Node63</title>
<path fill="none" stroke="midnightblue" d="M1456.24,-388.368C1479.65,-378.255 1511.84,-364.349 1532.29,-355.516"/>
<polygon fill="midnightblue" stroke="midnightblue" points="1454.6,-385.265 1446.81,-392.444 1457.37,-391.691 1454.6,-385.265"/>
</g>
<!-- Node64 -->
<g id="node46" class="node"><title>Node64</title>
<g id="a_node46"><a xlink:href="arch_2x86__32-linux_2odp_2api_2abi_2cpumask_8h_source.html" target="_top" xlink:title="cpumask.h">
<polygon fill="white" stroke="black" points="1602.5,-336.5 1602.5,-355.5 1667.5,-355.5 1667.5,-336.5 1602.5,-336.5"/>
<text text-anchor="middle" x="1635" y="-343.5" font-family="Helvetica,sans-Serif" font-size="10.00">cpumask.h</text>
</a>
</g>
</g>
<!-- Node58&#45;&gt;Node64 -->
<g id="edge47" class="edge"><title>Node58&#45;&gt;Node64</title>
<path fill="none" stroke="midnightblue" d="M1469.78,-389.894C1509.06,-379.697 1566.43,-364.802 1602.2,-355.516"/>
<polygon fill="midnightblue" stroke="midnightblue" points="1468.76,-386.543 1459.96,-392.444 1470.52,-393.318 1468.76,-386.543"/>
</g>
<!-- Node65 -->
<g id="node47" class="node"><title>Node65</title>
<g id="a_node47"><a xlink:href="arch_2x86__64-linux_2odp_2api_2abi_2cpumask_8h_source.html" target="_top" xlink:title="cpumask.h">
<polygon fill="white" stroke="black" points="1685.5,-336.5 1685.5,-355.5 1750.5,-355.5 1750.5,-336.5 1685.5,-336.5"/>
<text text-anchor="middle" x="1718" y="-343.5" font-family="Helvetica,sans-Serif" font-size="10.00">cpumask.h</text>
</a>
</g>
</g>
<!-- Node58&#45;&gt;Node65 -->
<g id="edge48" class="edge"><title>Node58&#45;&gt;Node65</title>
<path fill="none" stroke="midnightblue" d="M1469.75,-393.707C1519.41,-385.134 1603.78,-370.26 1676,-356 1679.07,-355.393 1682.27,-354.743 1685.46,-354.081"/>
<polygon fill="midnightblue" stroke="midnightblue" points="1468.95,-390.292 1459.69,-395.438 1470.14,-397.191 1468.95,-390.292"/>
</g>
<!-- Node66 -->
<g id="node48" class="node"><title>Node66</title>
<g id="a_node48"><a xlink:href="api_2cpumask_8h.html" target="_top" xlink:title="ODP CPU masks and enumeration. ">
<polygon fill="white" stroke="black" points="1585.5,-280.5 1585.5,-299.5 1650.5,-299.5 1650.5,-280.5 1585.5,-280.5"/>
<text text-anchor="middle" x="1618" y="-287.5" font-family="Helvetica,sans-Serif" font-size="10.00">cpumask.h</text>
</a>
</g>
</g>
<!-- Node65&#45;&gt;Node66 -->
<g id="edge49" class="edge"><title>Node65&#45;&gt;Node66</title>
<path fill="none" stroke="midnightblue" d="M1692.91,-331.453C1674.45,-321.483 1649.9,-308.228 1634.03,-299.655"/>
<polygon fill="midnightblue" stroke="midnightblue" points="1691.47,-334.652 1701.93,-336.324 1694.8,-328.493 1691.47,-334.652"/>
</g>
<!-- Node66&#45;&gt;Node29 -->
<g id="edge52" class="edge"><title>Node66&#45;&gt;Node29</title>
<path fill="none" stroke="midnightblue" d="M1591.6,-275.866C1523.88,-242.767 1337.74,-155.485 1173,-112 1066.43,-83.8691 935.283,-72.5547 877.599,-68.7068"/>
<polygon fill="midnightblue" stroke="midnightblue" points="1590.19,-279.076 1600.71,-280.345 1593.28,-272.794 1590.19,-279.076"/>
</g>
<!-- Node67 -->
<g id="node49" class="node"><title>Node67</title>
<g id="a_node49"><a xlink:href="api_2abi-default_2thrmask_8h.html" target="_top" xlink:title="ODP thread masks. ">
<polygon fill="white" stroke="red" points="1555,-224.5 1555,-243.5 1615,-243.5 1615,-224.5 1555,-224.5"/>
<text text-anchor="middle" x="1585" y="-231.5" font-family="Helvetica,sans-Serif" font-size="10.00">thrmask.h</text>
</a>
</g>
</g>
<!-- Node66&#45;&gt;Node67 -->
<g id="edge50" class="edge"><title>Node66&#45;&gt;Node67</title>
<path fill="none" stroke="midnightblue" d="M1607.17,-271.275C1601.53,-262.045 1594.88,-251.17 1590.35,-243.751"/>
<polygon fill="midnightblue" stroke="midnightblue" points="1604.35,-273.375 1612.55,-280.083 1610.32,-269.725 1604.35,-273.375"/>
</g>
<!-- Node78 -->
<g id="node50" class="node"><title>Node78</title>
<g id="a_node50"><a xlink:href="api_2spec_2init_8h.html" target="_top" xlink:title="ODP initialization. ">
<polygon fill="white" stroke="red" points="1633,-224.5 1633,-243.5 1671,-243.5 1671,-224.5 1633,-224.5"/>
<text text-anchor="middle" x="1652" y="-231.5" font-family="Helvetica,sans-Serif" font-size="10.00">init.h</text>
</a>
</g>
</g>
<!-- Node66&#45;&gt;Node78 -->
<g id="edge51" class="edge"><title>Node66&#45;&gt;Node78</title>
<path fill="none" stroke="midnightblue" d="M1628.98,-271.566C1634.83,-262.275 1641.77,-251.248 1646.49,-243.751"/>
<polygon fill="midnightblue" stroke="midnightblue" points="1625.98,-269.756 1623.61,-280.083 1631.9,-273.486 1625.98,-269.756"/>
</g>
</g>
</svg>
