<?xml version="1.0" encoding="UTF-8" standalone="no"?>
<!DOCTYPE svg PUBLIC "-//W3C//DTD SVG 1.1//EN"
 "http://www.w3.org/Graphics/SVG/1.1/DTD/svg11.dtd">
<!-- Generated by graphviz version 2.36.0 (20140111.2315)
 -->
<!-- Title: atomic.h Pages: 1 -->
<svg width="505pt" height="196pt"
 viewBox="0.00 0.00 505.00 196.00" xmlns="http://www.w3.org/2000/svg" xmlns:xlink="http://www.w3.org/1999/xlink">
<g id="graph0" class="graph" transform="scale(1 1) rotate(0) translate(4 192)">
<title>atomic.h</title>
<polygon fill="white" stroke="none" points="-4,4 -4,-192 501,-192 501,4 -4,4"/>
<!-- Node0 -->
<g id="node1" class="node"><title>Node0</title>
<polygon fill="#bfbfbf" stroke="black" points="240,-168.5 240,-187.5 294,-187.5 294,-168.5 240,-168.5"/>
<text text-anchor="middle" x="267" y="-175.5" font-family="Helvetica,sans-Serif" font-size="10.00">atomic.h</text>
</g>
<!-- Node1 -->
<g id="node2" class="node"><title>Node1</title>
<g id="a_node2"><a xlink:href="api_2std__types_8h.html" target="_top" xlink:title="Standard C language types and definitions for ODP. ">
<polygon fill="white" stroke="black" points="152,-112.5 152,-131.5 254,-131.5 254,-112.5 152,-112.5"/>
<text text-anchor="middle" x="203" y="-119.5" font-family="Helvetica,sans-Serif" font-size="10.00">odp/api/std_types.h</text>
</a>
</g>
</g>
<!-- Node0&#45;&gt;Node1 -->
<g id="edge1" class="edge"><title>Node0&#45;&gt;Node1</title>
<path fill="none" stroke="midnightblue" d="M256.717,-168.324C247.164,-160.263 232.72,-148.077 221.216,-138.369"/>
<polygon fill="midnightblue" stroke="midnightblue" points="223.37,-135.608 213.47,-131.834 218.856,-140.958 223.37,-135.608"/>
</g>
<!-- Node7 -->
<g id="node8" class="node"><title>Node7</title>
<g id="a_node8"><a xlink:href="api_2align_8h.html" target="_top" xlink:title="ODP alignments. ">
<polygon fill="white" stroke="black" points="292,-112.5 292,-131.5 372,-131.5 372,-112.5 292,-112.5"/>
<text text-anchor="middle" x="332" y="-119.5" font-family="Helvetica,sans-Serif" font-size="10.00">odp/api/align.h</text>
</a>
</g>
</g>
<!-- Node0&#45;&gt;Node7 -->
<g id="edge7" class="edge"><title>Node0&#45;&gt;Node7</title>
<path fill="none" stroke="midnightblue" d="M277.443,-168.324C287.146,-160.263 301.815,-148.077 313.5,-138.369"/>
<polygon fill="midnightblue" stroke="midnightblue" points="315.911,-140.916 321.367,-131.834 311.438,-135.532 315.911,-140.916"/>
</g>
<!-- Node2 -->
<g id="node3" class="node"><title>Node2</title>
<polygon fill="white" stroke="#bfbfbf" points="144,-56.5 144,-75.5 262,-75.5 262,-56.5 144,-56.5"/>
<text text-anchor="middle" x="203" y="-63.5" font-family="Helvetica,sans-Serif" font-size="10.00">odp/api/abi/std_types.h</text>
</g>
<!-- Node1&#45;&gt;Node2 -->
<g id="edge2" class="edge"><title>Node1&#45;&gt;Node2</title>
<path fill="none" stroke="midnightblue" d="M203,-112.083C203,-105.006 203,-94.8611 203,-85.9865"/>
<polygon fill="midnightblue" stroke="midnightblue" points="206.5,-85.751 203,-75.7511 199.5,-85.7511 206.5,-85.751"/>
</g>
<!-- Node3 -->
<g id="node4" class="node"><title>Node3</title>
<g id="a_node4"><a xlink:href="api_2spec_2std__types_8h.html" target="_top" xlink:title="Standard C language types and definitions for ODP. ">
<polygon fill="white" stroke="black" points="0,-56.5 0,-75.5 126,-75.5 126,-56.5 0,-56.5"/>
<text text-anchor="middle" x="63" y="-63.5" font-family="Helvetica,sans-Serif" font-size="10.00">odp/api/spec/std_types.h</text>
</a>
</g>
</g>
<!-- Node1&#45;&gt;Node3 -->
<g id="edge3" class="edge"><title>Node1&#45;&gt;Node3</title>
<path fill="none" stroke="midnightblue" d="M180.817,-112.444C157.572,-103.478 120.851,-89.314 94.5848,-79.1827"/>
<polygon fill="midnightblue" stroke="midnightblue" points="95.6692,-75.8497 85.0796,-75.5164 93.1501,-82.3807 95.6692,-75.8497"/>
</g>
<!-- Node4 -->
<g id="node5" class="node"><title>Node4</title>
<g id="a_node5"><a xlink:href="visibility__begin_8h_source.html" target="_top" xlink:title="odp/visibility_begin.h">
<polygon fill="white" stroke="black" points="264.5,-0.5 264.5,-19.5 371.5,-19.5 371.5,-0.5 264.5,-0.5"/>
<text text-anchor="middle" x="318" y="-7.5" font-family="Helvetica,sans-Serif" font-size="10.00">odp/visibility_begin.h</text>
</a>
</g>
</g>
<!-- Node3&#45;&gt;Node4 -->
<g id="edge4" class="edge"><title>Node3&#45;&gt;Node4</title>
<path fill="none" stroke="midnightblue" d="M103.406,-56.4435C147.983,-47.0036 219.768,-31.802 267.892,-21.6111"/>
<polygon fill="midnightblue" stroke="midnightblue" points="268.726,-25.0123 277.784,-19.5164 267.275,-18.1641 268.726,-25.0123"/>
</g>
<!-- Node5 -->
<g id="node6" class="node"><title>Node5</title>
<polygon fill="white" stroke="#bfbfbf" points="38.5,-0.5 38.5,-19.5 87.5,-19.5 87.5,-0.5 38.5,-0.5"/>
<text text-anchor="middle" x="63" y="-7.5" font-family="Helvetica,sans-Serif" font-size="10.00">stdint.h</text>
</g>
<!-- Node3&#45;&gt;Node5 -->
<g id="edge5" class="edge"><title>Node3&#45;&gt;Node5</title>
<path fill="none" stroke="midnightblue" d="M63,-56.083C63,-49.0059 63,-38.8611 63,-29.9865"/>
<polygon fill="midnightblue" stroke="midnightblue" points="66.5001,-29.751 63,-19.7511 59.5001,-29.7511 66.5001,-29.751"/>
</g>
<!-- Node6 -->
<g id="node7" class="node"><title>Node6</title>
<g id="a_node7"><a xlink:href="visibility__end_8h_source.html" target="_top" xlink:title="odp/visibility_end.h">
<polygon fill="white" stroke="black" points="133,-0.5 133,-19.5 233,-19.5 233,-0.5 133,-0.5"/>
<text text-anchor="middle" x="183" y="-7.5" font-family="Helvetica,sans-Serif" font-size="10.00">odp/visibility_end.h</text>
</a>
</g>
</g>
<!-- Node3&#45;&gt;Node6 -->
<g id="edge6" class="edge"><title>Node3&#45;&gt;Node6</title>
<path fill="none" stroke="midnightblue" d="M82.0144,-56.4435C101.588,-47.6356 132.308,-33.8116 154.729,-23.722"/>
<polygon fill="midnightblue" stroke="midnightblue" points="156.392,-26.8119 164.075,-19.5164 153.519,-20.4284 156.392,-26.8119"/>
</g>
<!-- Node8 -->
<g id="node9" class="node"><title>Node8</title>
<polygon fill="white" stroke="#bfbfbf" points="402.5,-56.5 402.5,-75.5 497.5,-75.5 497.5,-56.5 402.5,-56.5"/>
<text text-anchor="middle" x="450" y="-63.5" font-family="Helvetica,sans-Serif" font-size="10.00">odp/api/abi/align.h</text>
</g>
<!-- Node7&#45;&gt;Node8 -->
<g id="edge8" class="edge"><title>Node7&#45;&gt;Node8</title>
<path fill="none" stroke="midnightblue" d="M350.697,-112.444C369.944,-103.636 400.152,-89.8116 422.2,-79.722"/>
<polygon fill="midnightblue" stroke="midnightblue" points="423.753,-82.8603 431.39,-75.5164 420.84,-76.4951 423.753,-82.8603"/>
</g>
<!-- Node9 -->
<g id="node10" class="node"><title>Node9</title>
<g id="a_node10"><a xlink:href="api_2spec_2align_8h.html" target="_top" xlink:title="ODP alignments. ">
<polygon fill="white" stroke="black" points="280,-56.5 280,-75.5 384,-75.5 384,-56.5 280,-56.5"/>
<text text-anchor="middle" x="332" y="-63.5" font-family="Helvetica,sans-Serif" font-size="10.00">odp/api/spec/align.h</text>
</a>
</g>
</g>
<!-- Node7&#45;&gt;Node9 -->
<g id="edge9" class="edge"><title>Node7&#45;&gt;Node9</title>
<path fill="none" stroke="midnightblue" d="M332,-112.083C332,-105.006 332,-94.8611 332,-85.9865"/>
<polygon fill="midnightblue" stroke="midnightblue" points="335.5,-85.751 332,-75.7511 328.5,-85.7511 335.5,-85.751"/>
</g>
<!-- Node9&#45;&gt;Node4 -->
<g id="edge10" class="edge"><title>Node9&#45;&gt;Node4</title>
<path fill="none" stroke="midnightblue" d="M329.688,-56.083C327.833,-48.9272 325.165,-38.6353 322.846,-29.6911"/>
<polygon fill="midnightblue" stroke="midnightblue" points="326.166,-28.5527 320.269,-19.7511 319.391,-30.3094 326.166,-28.5527"/>
</g>
<!-- Node9&#45;&gt;Node6 -->
<g id="edge11" class="edge"><title>Node9&#45;&gt;Node6</title>
<path fill="none" stroke="midnightblue" d="M308.391,-56.4435C283.542,-47.4381 244.226,-33.1891 216.246,-23.049"/>
<polygon fill="midnightblue" stroke="midnightblue" points="217.093,-19.6332 206.499,-19.5164 214.708,-26.2144 217.093,-19.6332"/>
</g>
</g>
</svg>
