<?xml version="1.0" encoding="UTF-8" standalone="no"?>
<!DOCTYPE svg PUBLIC "-//W3C//DTD SVG 1.1//EN"
 "http://www.w3.org/Graphics/SVG/1.1/DTD/svg11.dtd">
<!-- Generated by graphviz version 2.36.0 (20140111.2315)
 -->
<!-- Title: std_types.h Pages: 1 -->
<svg width="2931pt" height="308pt"
 viewBox="0.00 0.00 2931.00 308.00" xmlns="http://www.w3.org/2000/svg" xmlns:xlink="http://www.w3.org/1999/xlink">
<g id="graph0" class="graph" transform="scale(1 1) rotate(0) translate(4 304)">
<title>std_types.h</title>
<polygon fill="white" stroke="none" points="-4,4 -4,-304 2927,-304 2927,4 -4,4"/>
<!-- Node4 -->
<g id="node1" class="node"><title>Node4</title>
<polygon fill="#bfbfbf" stroke="black" points="1987,-280.5 1987,-299.5 2055,-299.5 2055,-280.5 1987,-280.5"/>
<text text-anchor="middle" x="2021" y="-287.5" font-family="Helvetica,sans-Serif" font-size="10.00">std_types.h</text>
</g>
<!-- Node5 -->
<g id="node2" class="node"><title>Node5</title>
<g id="a_node2"><a xlink:href="api_2std__types_8h.html" target="_top" xlink:title="Standard C language types and definitions for ODP. ">
<polygon fill="white" stroke="black" points="1987,-224.5 1987,-243.5 2055,-243.5 2055,-224.5 1987,-224.5"/>
<text text-anchor="middle" x="2021" y="-231.5" font-family="Helvetica,sans-Serif" font-size="10.00">std_types.h</text>
</a>
</g>
</g>
<!-- Node4&#45;&gt;Node5 -->
<g id="edge1" class="edge"><title>Node4&#45;&gt;Node5</title>
<path fill="none" stroke="midnightblue" d="M2021,-269.805C2021,-260.91 2021,-250.78 2021,-243.751"/>
<polygon fill="midnightblue" stroke="midnightblue" points="2017.5,-270.083 2021,-280.083 2024.5,-270.083 2017.5,-270.083"/>
</g>
<!-- Node6 -->
<g id="node3" class="node"><title>Node6</title>
<g id="a_node3"><a xlink:href="api_2abi-default_2atomic_8h.html" target="_top" xlink:title="ODP atomic operations. ">
<polygon fill="white" stroke="black" points="252,-168.5 252,-187.5 306,-187.5 306,-168.5 252,-168.5"/>
<text text-anchor="middle" x="279" y="-175.5" font-family="Helvetica,sans-Serif" font-size="10.00">atomic.h</text>
</a>
</g>
</g>
<!-- Node5&#45;&gt;Node6 -->
<g id="edge2" class="edge"><title>Node5&#45;&gt;Node6</title>
<path fill="none" stroke="midnightblue" d="M1976.87,-231.632C1728.03,-223.918 504.253,-185.983 306.119,-179.841"/>
<polygon fill="midnightblue" stroke="midnightblue" points="1976.88,-235.134 1986.98,-231.946 1977.1,-228.137 1976.88,-235.134"/>
</g>
<!-- Node15 -->
<g id="node11" class="node"><title>Node15</title>
<g id="a_node11"><a xlink:href="api_2abi-default_2barrier_8h.html" target="_top" xlink:title="ODP barrier. ">
<polygon fill="white" stroke="black" points="749,-168.5 749,-187.5 801,-187.5 801,-168.5 749,-168.5"/>
<text text-anchor="middle" x="775" y="-175.5" font-family="Helvetica,sans-Serif" font-size="10.00">barrier.h</text>
</a>
</g>
</g>
<!-- Node5&#45;&gt;Node15 -->
<g id="edge10" class="edge"><title>Node5&#45;&gt;Node15</title>
<path fill="none" stroke="midnightblue" d="M1976.53,-231.073C1775.95,-222.38 958.319,-186.945 801.189,-180.135"/>
<polygon fill="midnightblue" stroke="midnightblue" points="1976.56,-234.577 1986.7,-231.514 1976.86,-227.584 1976.56,-234.577"/>
</g>
<!-- Node23 -->
<g id="node19" class="node"><title>Node23</title>
<g id="a_node19"><a xlink:href="api_2barrier_8h.html" target="_top" xlink:title="ODP execution barriers. ">
<polygon fill="white" stroke="black" points="962,-56.5 962,-75.5 1014,-75.5 1014,-56.5 962,-56.5"/>
<text text-anchor="middle" x="988" y="-63.5" font-family="Helvetica,sans-Serif" font-size="10.00">barrier.h</text>
</a>
</g>
</g>
<!-- Node5&#45;&gt;Node23 -->
<g id="edge30" class="edge"><title>Node5&#45;&gt;Node23</title>
<path fill="none" stroke="midnightblue" d="M1976.82,-232.385C1789.2,-229.598 1066.28,-217.008 1028,-188 991.496,-160.341 987.873,-98.2992 987.823,-75.562"/>
<polygon fill="midnightblue" stroke="midnightblue" points="1976.83,-235.886 1986.88,-232.533 1976.93,-228.886 1976.83,-235.886"/>
</g>
<!-- Node24 -->
<g id="node20" class="node"><title>Node24</title>
<g id="a_node20"><a xlink:href="odp__api_8h.html" target="_top" xlink:title="The OpenDataPlane API. ">
<polygon fill="white" stroke="red" points="2055.5,-0.5 2055.5,-19.5 2114.5,-19.5 2114.5,-0.5 2055.5,-0.5"/>
<text text-anchor="middle" x="2085" y="-7.5" font-family="Helvetica,sans-Serif" font-size="10.00">odp_api.h</text>
</a>
</g>
</g>
<!-- Node5&#45;&gt;Node24 -->
<g id="edge64" class="edge"><title>Node5&#45;&gt;Node24</title>
<path fill="none" stroke="midnightblue" d="M1976.85,-232.607C1792.6,-230.754 1092.99,-221.526 1061,-188 1037.68,-163.563 1038.32,-137.029 1061,-112 1129.64,-36.2583 1894.04,-15.2187 2055.26,-11.6104"/>
<polygon fill="midnightblue" stroke="midnightblue" points="1976.96,-236.108 1986.99,-232.707 1977.03,-229.108 1976.96,-236.108"/>
</g>
<!-- Node53 -->
<g id="node21" class="node"><title>Node53</title>
<g id="a_node21"><a xlink:href="api_2abi-default_2byteorder_8h.html" target="_top" xlink:title="ODP byteorder. ">
<polygon fill="white" stroke="red" points="1070.5,-168.5 1070.5,-187.5 1135.5,-187.5 1135.5,-168.5 1070.5,-168.5"/>
<text text-anchor="middle" x="1103" y="-175.5" font-family="Helvetica,sans-Serif" font-size="10.00">byteorder.h</text>
</a>
</g>
</g>
<!-- Node5&#45;&gt;Node53 -->
<g id="edge20" class="edge"><title>Node5&#45;&gt;Node53</title>
<path fill="none" stroke="midnightblue" d="M1976.69,-233.297C1847.62,-233.611 1461.08,-230.64 1144,-188 1141.26,-187.631 1138.42,-187.173 1135.59,-186.661"/>
<polygon fill="midnightblue" stroke="midnightblue" points="1976.97,-236.796 1986.95,-233.264 1976.94,-229.796 1976.97,-236.796"/>
</g>
<!-- Node62 -->
<g id="node23" class="node"><title>Node62</title>
<g id="a_node23"><a xlink:href="api_2abi-default_2cpumask_8h.html" target="_top" xlink:title="ODP CPU masks and enumeration. ">
<polygon fill="white" stroke="red" points="1153.5,-168.5 1153.5,-187.5 1218.5,-187.5 1218.5,-168.5 1153.5,-168.5"/>
<text text-anchor="middle" x="1186" y="-175.5" font-family="Helvetica,sans-Serif" font-size="10.00">cpumask.h</text>
</a>
</g>
</g>
<!-- Node5&#45;&gt;Node62 -->
<g id="edge22" class="edge"><title>Node5&#45;&gt;Node62</title>
<path fill="none" stroke="midnightblue" d="M1976.49,-232.876C1855.59,-232.023 1511.22,-226.149 1228,-188 1225.04,-187.602 1221.99,-187.108 1218.93,-186.559"/>
<polygon fill="midnightblue" stroke="midnightblue" points="1976.79,-236.378 1986.81,-232.941 1976.84,-229.378 1976.79,-236.378"/>
</g>
<!-- Node86 -->
<g id="node24" class="node"><title>Node86</title>
<g id="a_node24"><a xlink:href="api_2abi-default_2init_8h.html" target="_top" xlink:title="ODP initialization. ">
<polygon fill="white" stroke="red" points="1237,-168.5 1237,-187.5 1275,-187.5 1275,-168.5 1237,-168.5"/>
<text text-anchor="middle" x="1256" y="-175.5" font-family="Helvetica,sans-Serif" font-size="10.00">init.h</text>
</a>
</g>
</g>
<!-- Node5&#45;&gt;Node86 -->
<g id="edge23" class="edge"><title>Node5&#45;&gt;Node86</title>
<path fill="none" stroke="midnightblue" d="M1976.39,-231.738C1838.13,-227.594 1417.98,-213.211 1284,-188 1281.09,-187.452 1278.06,-186.691 1275.12,-185.841"/>
<polygon fill="midnightblue" stroke="midnightblue" points="1976.52,-235.243 1986.62,-232.041 1976.72,-228.246 1976.52,-235.243"/>
</g>
<!-- Node94 -->
<g id="node25" class="node"><title>Node94</title>
<g id="a_node25"><a xlink:href="api_2abi-default_2ipsec_8h.html" target="_top" xlink:title="ODP IPSEC API &#45; platform specific types. ">
<polygon fill="white" stroke="red" points="1293,-168.5 1293,-187.5 1341,-187.5 1341,-168.5 1293,-168.5"/>
<text text-anchor="middle" x="1317" y="-175.5" font-family="Helvetica,sans-Serif" font-size="10.00">ipsec.h</text>
</a>
</g>
</g>
<!-- Node5&#45;&gt;Node94 -->
<g id="edge24" class="edge"><title>Node5&#45;&gt;Node94</title>
<path fill="none" stroke="midnightblue" d="M1976.67,-233.066C1868.68,-232.57 1583.72,-227.304 1350,-188 1347.07,-187.508 1344.03,-186.864 1341.03,-186.148"/>
<polygon fill="midnightblue" stroke="midnightblue" points="1976.85,-236.567 1986.86,-233.101 1976.87,-229.567 1976.85,-236.567"/>
</g>
<!-- Node103 -->
<g id="node26" class="node"><title>Node103</title>
<g id="a_node26"><a xlink:href="api_2abi-default_2packet__io_8h.html" target="_top" xlink:title="ODP Packet IO. ">
<polygon fill="white" stroke="red" points="1359.5,-168.5 1359.5,-187.5 1426.5,-187.5 1426.5,-168.5 1359.5,-168.5"/>
<text text-anchor="middle" x="1393" y="-175.5" font-family="Helvetica,sans-Serif" font-size="10.00">packet_io.h</text>
</a>
</g>
</g>
<!-- Node5&#45;&gt;Node103 -->
<g id="edge25" class="edge"><title>Node5&#45;&gt;Node103</title>
<path fill="none" stroke="midnightblue" d="M1976.75,-231.554C1878.86,-227.926 1636.68,-216.597 1436,-188 1432.98,-187.57 1429.85,-187.054 1426.73,-186.49"/>
<polygon fill="midnightblue" stroke="midnightblue" points="1976.75,-235.056 1986.87,-231.92 1977.01,-228.061 1976.75,-235.056"/>
</g>
<!-- Node35 -->
<g id="node27" class="node"><title>Node35</title>
<g id="a_node27"><a xlink:href="api_2abi-default_2rwlock__recursive_8h.html" target="_top" xlink:title="ODP recursive read/write lock. ">
<polygon fill="white" stroke="red" points="1445,-168.5 1445,-187.5 1543,-187.5 1543,-168.5 1445,-168.5"/>
<text text-anchor="middle" x="1494" y="-175.5" font-family="Helvetica,sans-Serif" font-size="10.00">rwlock_recursive.h</text>
</a>
</g>
</g>
<!-- Node5&#45;&gt;Node35 -->
<g id="edge26" class="edge"><title>Node5&#45;&gt;Node35</title>
<path fill="none" stroke="midnightblue" d="M1976.67,-229.613C1893.33,-223.054 1707.66,-207.529 1552,-188 1549.07,-187.632 1546.06,-187.232 1543.02,-186.812"/>
<polygon fill="midnightblue" stroke="midnightblue" points="1976.55,-233.115 1986.79,-230.405 1977.1,-226.136 1976.55,-233.115"/>
</g>
<!-- Node129 -->
<g id="node28" class="node"><title>Node129</title>
<g id="a_node28"><a xlink:href="api_2abi-default_2schedule_8h.html" target="_top" xlink:title="ODP schedule. ">
<polygon fill="white" stroke="red" points="1561,-168.5 1561,-187.5 1625,-187.5 1625,-168.5 1561,-168.5"/>
<text text-anchor="middle" x="1593" y="-175.5" font-family="Helvetica,sans-Serif" font-size="10.00">schedule.h</text>
</a>
</g>
</g>
<!-- Node5&#45;&gt;Node129 -->
<g id="edge27" class="edge"><title>Node5&#45;&gt;Node129</title>
<path fill="none" stroke="midnightblue" d="M1976.86,-229.32C1904.79,-222.987 1757.51,-208.684 1634,-188 1631.13,-187.519 1628.15,-186.968 1625.17,-186.381"/>
<polygon fill="midnightblue" stroke="midnightblue" points="1976.67,-232.816 1986.93,-230.196 1977.27,-225.843 1976.67,-232.816"/>
</g>
<!-- Node137 -->
<g id="node29" class="node"><title>Node137</title>
<g id="a_node29"><a xlink:href="api_2abi-default_2spinlock__recursive_8h.html" target="_top" xlink:title="ODP recursive spinlock. ">
<polygon fill="white" stroke="red" points="1643,-168.5 1643,-187.5 1749,-187.5 1749,-168.5 1643,-168.5"/>
<text text-anchor="middle" x="1696" y="-175.5" font-family="Helvetica,sans-Serif" font-size="10.00">spinlock_recursive.h</text>
</a>
</g>
</g>
<!-- Node5&#45;&gt;Node137 -->
<g id="edge28" class="edge"><title>Node5&#45;&gt;Node137</title>
<path fill="none" stroke="midnightblue" d="M1976.94,-225.68C1917.15,-215.744 1810.51,-198.027 1747.22,-187.51"/>
<polygon fill="midnightblue" stroke="midnightblue" points="1976.4,-229.137 1986.83,-227.323 1977.54,-222.231 1976.4,-229.137"/>
</g>
<!-- Node146 -->
<g id="node30" class="node"><title>Node146</title>
<g id="a_node30"><a xlink:href="api_2abi-default_2traffic__mngr_8h.html" target="_top" xlink:title="ODP traffic mngr. ">
<polygon fill="white" stroke="red" points="1767.5,-168.5 1767.5,-187.5 1844.5,-187.5 1844.5,-168.5 1767.5,-168.5"/>
<text text-anchor="middle" x="1806" y="-175.5" font-family="Helvetica,sans-Serif" font-size="10.00">traffic_mngr.h</text>
</a>
</g>
</g>
<!-- Node5&#45;&gt;Node146 -->
<g id="edge29" class="edge"><title>Node5&#45;&gt;Node146</title>
<path fill="none" stroke="midnightblue" d="M1977.04,-221.959C1936.43,-211.76 1876.96,-196.822 1839.91,-187.516"/>
<polygon fill="midnightblue" stroke="midnightblue" points="1976.38,-225.402 1986.93,-224.444 1978.09,-218.613 1976.38,-225.402"/>
</g>
<!-- Node154 -->
<g id="node31" class="node"><title>Node154</title>
<g id="a_node31"><a xlink:href="api_2buffer_8h.html" target="_top" xlink:title="ODP buffer descriptor. ">
<polygon fill="white" stroke="black" points="1802,-56.5 1802,-75.5 1852,-75.5 1852,-56.5 1802,-56.5"/>
<text text-anchor="middle" x="1827" y="-63.5" font-family="Helvetica,sans-Serif" font-size="10.00">buffer.h</text>
</a>
</g>
</g>
<!-- Node5&#45;&gt;Node154 -->
<g id="edge31" class="edge"><title>Node5&#45;&gt;Node154</title>
<path fill="none" stroke="midnightblue" d="M1980.25,-221.231C1959.58,-213.915 1934.91,-203.005 1916,-188 1874.12,-154.771 1842.24,-97.1691 1831.2,-75.537"/>
<polygon fill="midnightblue" stroke="midnightblue" points="1979.14,-224.55 1989.73,-224.439 1981.38,-217.919 1979.14,-224.55"/>
</g>
<!-- Node111 -->
<g id="node32" class="node"><title>Node111</title>
<g id="a_node32"><a xlink:href="api_2classification_8h.html" target="_top" xlink:title="ODP classification descriptor. ">
<polygon fill="white" stroke="red" points="1870,-56.5 1870,-75.5 1952,-75.5 1952,-56.5 1870,-56.5"/>
<text text-anchor="middle" x="1911" y="-63.5" font-family="Helvetica,sans-Serif" font-size="10.00">classification.h</text>
</a>
</g>
</g>
<!-- Node5&#45;&gt;Node111 -->
<g id="edge33" class="edge"><title>Node5&#45;&gt;Node111</title>
<path fill="none" stroke="midnightblue" d="M1977.42,-221.13C1960.07,-214.23 1941.53,-203.699 1930,-188 1904.32,-153.042 1907.5,-96.9621 1909.85,-75.622"/>
<polygon fill="midnightblue" stroke="midnightblue" points="1976.28,-224.442 1986.88,-224.599 1978.69,-217.87 1976.28,-224.442"/>
</g>
<!-- Node117 -->
<g id="node33" class="node"><title>Node117</title>
<g id="a_node33"><a xlink:href="api_2crypto_8h.html" target="_top" xlink:title="ODP crypto. ">
<polygon fill="white" stroke="red" points="2209,-112.5 2209,-131.5 2261,-131.5 2261,-112.5 2209,-112.5"/>
<text text-anchor="middle" x="2235" y="-119.5" font-family="Helvetica,sans-Serif" font-size="10.00">crypto.h</text>
</a>
</g>
</g>
<!-- Node5&#45;&gt;Node117 -->
<g id="edge35" class="edge"><title>Node5&#45;&gt;Node117</title>
<path fill="none" stroke="midnightblue" d="M2062.24,-221.419C2087.23,-213.615 2119.32,-202.167 2146,-188 2177.09,-171.488 2209.47,-145.133 2225.22,-131.614"/>
<polygon fill="midnightblue" stroke="midnightblue" points="2060.89,-218.171 2052.35,-224.435 2062.94,-224.866 2060.89,-218.171"/>
</g>
<!-- Node113 -->
<g id="node34" class="node"><title>Node113</title>
<g id="a_node34"><a xlink:href="api_2packet_8h.html" target="_top" xlink:title="ODP packet descriptor. ">
<polygon fill="white" stroke="red" points="1939,-168.5 1939,-187.5 1993,-187.5 1993,-168.5 1939,-168.5"/>
<text text-anchor="middle" x="1966" y="-175.5" font-family="Helvetica,sans-Serif" font-size="10.00">packet.h</text>
</a>
</g>
</g>
<!-- Node5&#45;&gt;Node113 -->
<g id="edge37" class="edge"><title>Node5&#45;&gt;Node113</title>
<path fill="none" stroke="midnightblue" d="M2004.71,-217.002C1994.96,-207.433 1982.95,-195.639 1974.91,-187.751"/>
<polygon fill="midnightblue" stroke="midnightblue" points="2002.33,-219.575 2011.92,-224.083 2007.23,-214.58 2002.33,-219.575"/>
</g>
<!-- Node127 -->
<g id="node35" class="node"><title>Node127</title>
<g id="a_node35"><a xlink:href="api_2spec_2packet__flags_8h.html" target="_top" xlink:title="ODP packet flags. ">
<polygon fill="white" stroke="red" points="1977,-112.5 1977,-131.5 2057,-131.5 2057,-112.5 1977,-112.5"/>
<text text-anchor="middle" x="2017" y="-119.5" font-family="Helvetica,sans-Serif" font-size="10.00">packet_flags.h</text>
</a>
</g>
</g>
<!-- Node5&#45;&gt;Node127 -->
<g id="edge52" class="edge"><title>Node5&#45;&gt;Node127</title>
<path fill="none" stroke="midnightblue" d="M2020.32,-214.348C2019.45,-190.254 2017.96,-149.308 2017.31,-131.591"/>
<polygon fill="midnightblue" stroke="midnightblue" points="2016.82,-214.502 2020.69,-224.368 2023.82,-214.248 2016.82,-214.502"/>
</g>
<!-- Node123 -->
<g id="node36" class="node"><title>Node123</title>
<g id="a_node36"><a xlink:href="api_2packet__io_8h.html" target="_top" xlink:title="ODP Packet IO. ">
<polygon fill="white" stroke="red" points="2049.5,-168.5 2049.5,-187.5 2116.5,-187.5 2116.5,-168.5 2049.5,-168.5"/>
<text text-anchor="middle" x="2083" y="-175.5" font-family="Helvetica,sans-Serif" font-size="10.00">packet_io.h</text>
</a>
</g>
</g>
<!-- Node5&#45;&gt;Node123 -->
<g id="edge40" class="edge"><title>Node5&#45;&gt;Node123</title>
<path fill="none" stroke="midnightblue" d="M2038.75,-217.537C2049.81,-207.909 2063.63,-195.869 2072.86,-187.834"/>
<polygon fill="midnightblue" stroke="midnightblue" points="2036.2,-215.117 2030.96,-224.324 2040.8,-220.395 2036.2,-215.117"/>
</g>
<!-- Node125 -->
<g id="node37" class="node"><title>Node125</title>
<g id="a_node37"><a xlink:href="api_2spec_2traffic__mngr_8h.html" target="_top" xlink:title="Copyright (c) 2015&#45;2018, Linaro Limited All rights reserved. ">
<polygon fill="white" stroke="red" points="2113.5,-112.5 2113.5,-131.5 2190.5,-131.5 2190.5,-112.5 2113.5,-112.5"/>
<text text-anchor="middle" x="2152" y="-119.5" font-family="Helvetica,sans-Serif" font-size="10.00">traffic_mngr.h</text>
</a>
</g>
</g>
<!-- Node5&#45;&gt;Node125 -->
<g id="edge57" class="edge"><title>Node5&#45;&gt;Node125</title>
<path fill="none" stroke="midnightblue" d="M2065.01,-222.237C2085.44,-215.339 2108.74,-204.498 2125,-188 2140.78,-171.985 2147.83,-145.413 2150.54,-131.732"/>
<polygon fill="midnightblue" stroke="midnightblue" points="2063.74,-218.967 2055.26,-225.314 2065.85,-225.643 2063.74,-218.967"/>
</g>
<!-- Node121 -->
<g id="node38" class="node"><title>Node121</title>
<g id="a_node38"><a xlink:href="api_2queue_8h.html" target="_top" xlink:title="ODP queue. ">
<polygon fill="white" stroke="red" points="2211.5,-168.5 2211.5,-187.5 2262.5,-187.5 2262.5,-168.5 2211.5,-168.5"/>
<text text-anchor="middle" x="2237" y="-175.5" font-family="Helvetica,sans-Serif" font-size="10.00">queue.h</text>
</a>
</g>
</g>
<!-- Node5&#45;&gt;Node121 -->
<g id="edge43" class="edge"><title>Node5&#45;&gt;Node121</title>
<path fill="none" stroke="midnightblue" d="M2065.09,-221.977C2109.14,-210.964 2175.35,-194.414 2211.39,-185.403"/>
<polygon fill="midnightblue" stroke="midnightblue" points="2064.08,-218.623 2055.23,-224.444 2065.78,-225.414 2064.08,-218.623"/>
</g>
<!-- Node80 -->
<g id="node39" class="node"><title>Node80</title>
<g id="a_node39"><a xlink:href="api_2spec_2schedule_8h.html" target="_top" xlink:title="ODP schedule. ">
<polygon fill="white" stroke="red" points="2317,-112.5 2317,-131.5 2381,-131.5 2381,-112.5 2317,-112.5"/>
<text text-anchor="middle" x="2349" y="-119.5" font-family="Helvetica,sans-Serif" font-size="10.00">schedule.h</text>
</a>
</g>
</g>
<!-- Node5&#45;&gt;Node80 -->
<g id="edge54" class="edge"><title>Node5&#45;&gt;Node80</title>
<path fill="none" stroke="midnightblue" d="M2065.58,-231.802C2117.24,-228.902 2203.88,-219.304 2271,-188 2300.71,-174.141 2328.43,-146.108 2341.36,-131.813"/>
<polygon fill="midnightblue" stroke="midnightblue" points="2065.22,-228.315 2055.41,-232.31 2065.57,-235.306 2065.22,-228.315"/>
</g>
<!-- Node155 -->
<g id="node40" class="node"><title>Node155</title>
<g id="a_node40"><a xlink:href="spec_2chksum_8h.html" target="_top" xlink:title="ODP Hash functions. ">
<polygon fill="white" stroke="red" points="2319.5,-168.5 2319.5,-187.5 2378.5,-187.5 2378.5,-168.5 2319.5,-168.5"/>
<text text-anchor="middle" x="2349" y="-175.5" font-family="Helvetica,sans-Serif" font-size="10.00">chksum.h</text>
</a>
</g>
</g>
<!-- Node5&#45;&gt;Node155 -->
<g id="edge47" class="edge"><title>Node5&#45;&gt;Node155</title>
<path fill="none" stroke="midnightblue" d="M2065.11,-226.635C2121.03,-218.42 2220.38,-203.351 2305,-188 2309.6,-187.165 2314.47,-186.227 2319.21,-185.28"/>
<polygon fill="midnightblue" stroke="midnightblue" points="2064.57,-223.176 2055.18,-228.087 2065.58,-230.102 2064.57,-223.176"/>
</g>
<!-- Node157 -->
<g id="node41" class="node"><title>Node157</title>
<g id="a_node41"><a xlink:href="api_2spec_2cpu_8h.html" target="_top" xlink:title="ODP CPU API. ">
<polygon fill="white" stroke="red" points="2396.5,-168.5 2396.5,-187.5 2437.5,-187.5 2437.5,-168.5 2396.5,-168.5"/>
<text text-anchor="middle" x="2417" y="-175.5" font-family="Helvetica,sans-Serif" font-size="10.00">cpu.h</text>
</a>
</g>
</g>
<!-- Node5&#45;&gt;Node157 -->
<g id="edge48" class="edge"><title>Node5&#45;&gt;Node157</title>
<path fill="none" stroke="midnightblue" d="M2065.23,-229.989C2134.43,-224.735 2272.28,-212.08 2387,-188 2390.09,-187.352 2393.31,-186.536 2396.46,-185.661"/>
<polygon fill="midnightblue" stroke="midnightblue" points="2064.84,-226.508 2055.12,-230.74 2065.35,-233.489 2064.84,-226.508"/>
</g>
<!-- Node159 -->
<g id="node42" class="node"><title>Node159</title>
<g id="a_node42"><a xlink:href="spec_2feature_8h.html" target="_top" xlink:title="ODP features. ">
<polygon fill="white" stroke="red" points="2455.5,-168.5 2455.5,-187.5 2510.5,-187.5 2510.5,-168.5 2455.5,-168.5"/>
<text text-anchor="middle" x="2483" y="-175.5" font-family="Helvetica,sans-Serif" font-size="10.00">feature.h</text>
</a>
</g>
</g>
<!-- Node5&#45;&gt;Node159 -->
<g id="edge49" class="edge"><title>Node5&#45;&gt;Node159</title>
<path fill="none" stroke="midnightblue" d="M2065.46,-230.249C2143.1,-225.01 2308.28,-211.93 2446,-188 2449,-187.479 2452.11,-186.855 2455.2,-186.182"/>
<polygon fill="midnightblue" stroke="midnightblue" points="2064.84,-226.782 2055.09,-230.937 2065.3,-233.767 2064.84,-226.782"/>
</g>
<!-- Node161 -->
<g id="node43" class="node"><title>Node161</title>
<g id="a_node43"><a xlink:href="spec_2hash_8h.html" target="_top" xlink:title="ODP Hash functions. ">
<polygon fill="white" stroke="red" points="2529,-168.5 2529,-187.5 2575,-187.5 2575,-168.5 2529,-168.5"/>
<text text-anchor="middle" x="2552" y="-175.5" font-family="Helvetica,sans-Serif" font-size="10.00">hash.h</text>
</a>
</g>
</g>
<!-- Node5&#45;&gt;Node161 -->
<g id="edge50" class="edge"><title>Node5&#45;&gt;Node161</title>
<path fill="none" stroke="midnightblue" d="M2065.17,-231.618C2152.5,-228.313 2353.16,-217.867 2519,-188 2522.16,-187.432 2525.45,-186.703 2528.68,-185.906"/>
<polygon fill="midnightblue" stroke="midnightblue" points="2064.96,-228.124 2055.09,-231.987 2065.21,-235.119 2064.96,-228.124"/>
</g>
<!-- Node82 -->
<g id="node44" class="node"><title>Node82</title>
<g id="a_node44"><a xlink:href="api_2spec_2init_8h.html" target="_top" xlink:title="ODP initialization. ">
<polygon fill="white" stroke="red" points="2593,-168.5 2593,-187.5 2631,-187.5 2631,-168.5 2593,-168.5"/>
<text text-anchor="middle" x="2612" y="-175.5" font-family="Helvetica,sans-Serif" font-size="10.00">init.h</text>
</a>
</g>
</g>
<!-- Node5&#45;&gt;Node82 -->
<g id="edge51" class="edge"><title>Node5&#45;&gt;Node82</title>
<path fill="none" stroke="midnightblue" d="M2065.17,-232.922C2160.73,-232.003 2393.47,-225.706 2584,-188 2586.91,-187.425 2589.93,-186.649 2592.87,-185.792"/>
<polygon fill="midnightblue" stroke="midnightblue" points="2064.98,-229.424 2055.01,-233.004 2065.03,-236.423 2064.98,-229.424"/>
</g>
<!-- Node163 -->
<g id="node45" class="node"><title>Node163</title>
<g id="a_node45"><a xlink:href="api_2spec_2pool_8h.html" target="_top" xlink:title="ODP pool. ">
<polygon fill="white" stroke="red" points="2649.5,-168.5 2649.5,-187.5 2692.5,-187.5 2692.5,-168.5 2649.5,-168.5"/>
<text text-anchor="middle" x="2671" y="-175.5" font-family="Helvetica,sans-Serif" font-size="10.00">pool.h</text>
</a>
</g>
</g>
<!-- Node5&#45;&gt;Node163 -->
<g id="edge53" class="edge"><title>Node5&#45;&gt;Node163</title>
<path fill="none" stroke="midnightblue" d="M2065.45,-232.954C2167.72,-232.158 2427.2,-226.187 2640,-188 2643.09,-187.446 2646.31,-186.703 2649.46,-185.881"/>
<polygon fill="midnightblue" stroke="midnightblue" points="2065.17,-229.456 2055.2,-233.021 2065.22,-236.456 2065.17,-229.456"/>
</g>
<!-- Node165 -->
<g id="node46" class="node"><title>Node165</title>
<g id="a_node46"><a xlink:href="spec_2threshold_8h.html" target="_top" xlink:title="ODP threshold descriptor. ">
<polygon fill="white" stroke="red" points="2710.5,-168.5 2710.5,-187.5 2775.5,-187.5 2775.5,-168.5 2710.5,-168.5"/>
<text text-anchor="middle" x="2743" y="-175.5" font-family="Helvetica,sans-Serif" font-size="10.00">threshold.h</text>
</a>
</g>
</g>
<!-- Node5&#45;&gt;Node165 -->
<g id="edge55" class="edge"><title>Node5&#45;&gt;Node165</title>
<path fill="none" stroke="midnightblue" d="M2065.41,-232.286C2174.26,-230.054 2462.85,-221.217 2701,-188 2703.95,-187.588 2707.01,-187.085 2710.07,-186.529"/>
<polygon fill="midnightblue" stroke="midnightblue" points="2065.07,-228.792 2055.14,-232.488 2065.21,-235.791 2065.07,-228.792"/>
</g>
<!-- Node167 -->
<g id="node47" class="node"><title>Node167</title>
<g id="a_node47"><a xlink:href="api_2spec_2thrmask_8h.html" target="_top" xlink:title="ODP thread masks. ">
<polygon fill="white" stroke="red" points="2794,-168.5 2794,-187.5 2854,-187.5 2854,-168.5 2794,-168.5"/>
<text text-anchor="middle" x="2824" y="-175.5" font-family="Helvetica,sans-Serif" font-size="10.00">thrmask.h</text>
</a>
</g>
</g>
<!-- Node5&#45;&gt;Node167 -->
<g id="edge56" class="edge"><title>Node5&#45;&gt;Node167</title>
<path fill="none" stroke="midnightblue" d="M2065.09,-232.896C2182.56,-232.08 2512.65,-226.271 2784,-188 2787.24,-187.543 2790.61,-186.959 2793.96,-186.31"/>
<polygon fill="midnightblue" stroke="midnightblue" points="2065.02,-229.396 2055.04,-232.957 2065.06,-236.396 2065.02,-229.396"/>
</g>
<!-- Node168 -->
<g id="node48" class="node"><title>Node168</title>
<g id="a_node48"><a xlink:href="system__info_8h.html" target="_top" xlink:title="ODP system information. ">
<polygon fill="white" stroke="black" points="2546,-56.5 2546,-75.5 2624,-75.5 2624,-56.5 2546,-56.5"/>
<text text-anchor="middle" x="2585" y="-63.5" font-family="Helvetica,sans-Serif" font-size="10.00">system_info.h</text>
</a>
</g>
</g>
<!-- Node5&#45;&gt;Node168 -->
<g id="edge58" class="edge"><title>Node5&#45;&gt;Node168</title>
<path fill="none" stroke="midnightblue" d="M2065.1,-232.303C2234.36,-229.416 2834.37,-217.152 2862,-188 2935.56,-110.399 2716.56,-79.6752 2624.1,-70.3662"/>
<polygon fill="midnightblue" stroke="midnightblue" points="2064.98,-228.804 2055.04,-232.472 2065.1,-235.803 2064.98,-228.804"/>
</g>
<!-- Node169 -->
<g id="node49" class="node"><title>Node169</title>
<g id="a_node49"><a xlink:href="api_2time_8h.html" target="_top" xlink:title="ODP time. ">
<polygon fill="white" stroke="red" points="2757,-56.5 2757,-75.5 2801,-75.5 2801,-56.5 2757,-56.5"/>
<text text-anchor="middle" x="2779" y="-63.5" font-family="Helvetica,sans-Serif" font-size="10.00">time.h</text>
</a>
</g>
</g>
<!-- Node5&#45;&gt;Node169 -->
<g id="edge60" class="edge"><title>Node5&#45;&gt;Node169</title>
<path fill="none" stroke="midnightblue" d="M2065.28,-232.357C2237.37,-229.646 2853.65,-217.876 2882,-188 2899.4,-169.667 2879.76,-134.575 2860,-112 2844.21,-93.964 2819.36,-81.6788 2801.35,-74.56"/>
<polygon fill="midnightblue" stroke="midnightblue" points="2065.01,-228.861 2055.06,-232.516 2065.12,-235.86 2065.01,-228.861"/>
</g>
<!-- Node171 -->
<g id="node50" class="node"><title>Node171</title>
<g id="a_node50"><a xlink:href="api_2timer_8h.html" target="_top" xlink:title="ODP timer service. ">
<polygon fill="white" stroke="black" points="2876.5,-56.5 2876.5,-75.5 2923.5,-75.5 2923.5,-56.5 2876.5,-56.5"/>
<text text-anchor="middle" x="2900" y="-63.5" font-family="Helvetica,sans-Serif" font-size="10.00">timer.h</text>
</a>
</g>
</g>
<!-- Node5&#45;&gt;Node171 -->
<g id="edge62" class="edge"><title>Node5&#45;&gt;Node171</title>
<path fill="none" stroke="midnightblue" d="M2065.3,-232.396C2239.58,-229.81 2869.9,-218.378 2899,-188 2928.79,-156.901 2911.51,-98.0177 2903.44,-75.7906"/>
<polygon fill="midnightblue" stroke="midnightblue" points="2065.15,-228.898 2055.2,-232.544 2065.25,-235.897 2065.15,-228.898"/>
</g>
<!-- Node7 -->
<g id="node4" class="node"><title>Node7</title>
<g id="a_node4"><a xlink:href="arch_2arm32-linux_2odp_2api_2abi_2atomic_8h_source.html" target="_top" xlink:title="atomic.h">
<polygon fill="white" stroke="black" points="432,-112.5 432,-131.5 486,-131.5 486,-112.5 432,-112.5"/>
<text text-anchor="middle" x="459" y="-119.5" font-family="Helvetica,sans-Serif" font-size="10.00">atomic.h</text>
</a>
</g>
</g>
<!-- Node6&#45;&gt;Node7 -->
<g id="edge3" class="edge"><title>Node6&#45;&gt;Node7</title>
<path fill="none" stroke="midnightblue" d="M316.05,-165.885C350.552,-155.534 401.165,-140.351 431.994,-131.102"/>
<polygon fill="midnightblue" stroke="midnightblue" points="314.911,-162.573 306.338,-168.799 316.922,-169.277 314.911,-162.573"/>
</g>
<!-- Node8 -->
<g id="node5" class="node"><title>Node8</title>
<g id="a_node5"><a xlink:href="arch_2arm64-linux_2odp_2api_2abi_2atomic_8h_source.html" target="_top" xlink:title="atomic.h">
<polygon fill="white" stroke="black" points="0,-112.5 0,-131.5 54,-131.5 54,-112.5 0,-112.5"/>
<text text-anchor="middle" x="27" y="-119.5" font-family="Helvetica,sans-Serif" font-size="10.00">atomic.h</text>
</a>
</g>
</g>
<!-- Node6&#45;&gt;Node8 -->
<g id="edge4" class="edge"><title>Node6&#45;&gt;Node8</title>
<path fill="none" stroke="midnightblue" d="M241.963,-169.748C198.865,-161.201 125.606,-146.341 63,-132 60.1113,-131.338 57.0984,-130.624 54.0992,-129.897"/>
<polygon fill="midnightblue" stroke="midnightblue" points="241.497,-173.223 251.986,-171.729 242.855,-166.356 241.497,-173.223"/>
</g>
<!-- Node9 -->
<g id="node6" class="node"><title>Node9</title>
<g id="a_node6"><a xlink:href="arch_2default-linux_2odp_2api_2abi_2atomic_8h_source.html" target="_top" xlink:title="atomic.h">
<polygon fill="white" stroke="black" points="72,-112.5 72,-131.5 126,-131.5 126,-112.5 72,-112.5"/>
<text text-anchor="middle" x="99" y="-119.5" font-family="Helvetica,sans-Serif" font-size="10.00">atomic.h</text>
</a>
</g>
</g>
<!-- Node6&#45;&gt;Node9 -->
<g id="edge5" class="edge"><title>Node6&#45;&gt;Node9</title>
<path fill="none" stroke="midnightblue" d="M241.95,-165.885C207.448,-155.534 156.835,-140.351 126.006,-131.102"/>
<polygon fill="midnightblue" stroke="midnightblue" points="241.078,-169.277 251.662,-168.799 243.089,-162.573 241.078,-169.277"/>
</g>
<!-- Node10 -->
<g id="node7" class="node"><title>Node10</title>
<g id="a_node7"><a xlink:href="arch_2mips64-linux_2odp_2api_2abi_2atomic_8h_source.html" target="_top" xlink:title="atomic.h">
<polygon fill="white" stroke="black" points="144,-112.5 144,-131.5 198,-131.5 198,-112.5 144,-112.5"/>
<text text-anchor="middle" x="171" y="-119.5" font-family="Helvetica,sans-Serif" font-size="10.00">atomic.h</text>
</a>
</g>
</g>
<!-- Node6&#45;&gt;Node10 -->
<g id="edge6" class="edge"><title>Node6&#45;&gt;Node10</title>
<path fill="none" stroke="midnightblue" d="M252.452,-163.726C232.454,-153.727 205.613,-140.307 188.309,-131.655"/>
<polygon fill="midnightblue" stroke="midnightblue" points="251.138,-166.982 261.648,-168.324 254.269,-160.721 251.138,-166.982"/>
</g>
<!-- Node11 -->
<g id="node8" class="node"><title>Node11</title>
<g id="a_node8"><a xlink:href="arch_2power64-linux_2odp_2api_2abi_2atomic_8h_source.html" target="_top" xlink:title="atomic.h">
<polygon fill="white" stroke="black" points="216,-112.5 216,-131.5 270,-131.5 270,-112.5 216,-112.5"/>
<text text-anchor="middle" x="243" y="-119.5" font-family="Helvetica,sans-Serif" font-size="10.00">atomic.h</text>
</a>
</g>
</g>
<!-- Node6&#45;&gt;Node11 -->
<g id="edge7" class="edge"><title>Node6&#45;&gt;Node11</title>
<path fill="none" stroke="midnightblue" d="M267.377,-159.566C261.183,-150.275 253.832,-139.248 248.834,-131.751"/>
<polygon fill="midnightblue" stroke="midnightblue" points="264.596,-161.704 273.055,-168.083 270.42,-157.821 264.596,-161.704"/>
</g>
<!-- Node12 -->
<g id="node9" class="node"><title>Node12</title>
<g id="a_node9"><a xlink:href="arch_2x86__32-linux_2odp_2api_2abi_2atomic_8h_source.html" target="_top" xlink:title="atomic.h">
<polygon fill="white" stroke="black" points="288,-112.5 288,-131.5 342,-131.5 342,-112.5 288,-112.5"/>
<text text-anchor="middle" x="315" y="-119.5" font-family="Helvetica,sans-Serif" font-size="10.00">atomic.h</text>
</a>
</g>
</g>
<!-- Node6&#45;&gt;Node12 -->
<g id="edge8" class="edge"><title>Node6&#45;&gt;Node12</title>
<path fill="none" stroke="midnightblue" d="M290.623,-159.566C296.817,-150.275 304.168,-139.248 309.166,-131.751"/>
<polygon fill="midnightblue" stroke="midnightblue" points="287.58,-157.821 284.945,-168.083 293.404,-161.704 287.58,-157.821"/>
</g>
<!-- Node13 -->
<g id="node10" class="node"><title>Node13</title>
<g id="a_node10"><a xlink:href="arch_2x86__64-linux_2odp_2api_2abi_2atomic_8h_source.html" target="_top" xlink:title="atomic.h">
<polygon fill="white" stroke="red" points="360,-112.5 360,-131.5 414,-131.5 414,-112.5 360,-112.5"/>
<text text-anchor="middle" x="387" y="-119.5" font-family="Helvetica,sans-Serif" font-size="10.00">atomic.h</text>
</a>
</g>
</g>
<!-- Node6&#45;&gt;Node13 -->
<g id="edge9" class="edge"><title>Node6&#45;&gt;Node13</title>
<path fill="none" stroke="midnightblue" d="M305.548,-163.726C325.546,-153.727 352.387,-140.307 369.691,-131.655"/>
<polygon fill="midnightblue" stroke="midnightblue" points="303.731,-160.721 296.352,-168.324 306.862,-166.982 303.731,-160.721"/>
</g>
<!-- Node16 -->
<g id="node12" class="node"><title>Node16</title>
<g id="a_node12"><a xlink:href="arch_2arm32-linux_2odp_2api_2abi_2barrier_8h_source.html" target="_top" xlink:title="barrier.h">
<polygon fill="white" stroke="black" points="854,-112.5 854,-131.5 906,-131.5 906,-112.5 854,-112.5"/>
<text text-anchor="middle" x="880" y="-119.5" font-family="Helvetica,sans-Serif" font-size="10.00">barrier.h</text>
</a>
</g>
</g>
<!-- Node15&#45;&gt;Node16 -->
<g id="edge11" class="edge"><title>Node15&#45;&gt;Node16</title>
<path fill="none" stroke="midnightblue" d="M800.81,-163.726C820.253,-153.727 846.348,-140.307 863.172,-131.655"/>
<polygon fill="midnightblue" stroke="midnightblue" points="799.162,-160.638 791.87,-168.324 802.364,-166.863 799.162,-160.638"/>
</g>
<!-- Node17 -->
<g id="node13" class="node"><title>Node17</title>
<g id="a_node13"><a xlink:href="arch_2arm64-linux_2odp_2api_2abi_2barrier_8h_source.html" target="_top" xlink:title="barrier.h">
<polygon fill="white" stroke="black" points="504,-112.5 504,-131.5 556,-131.5 556,-112.5 504,-112.5"/>
<text text-anchor="middle" x="530" y="-119.5" font-family="Helvetica,sans-Serif" font-size="10.00">barrier.h</text>
</a>
</g>
</g>
<!-- Node15&#45;&gt;Node17 -->
<g id="edge12" class="edge"><title>Node15&#45;&gt;Node17</title>
<path fill="none" stroke="midnightblue" d="M738.721,-169.692C696.78,-161.136 625.724,-146.307 565,-132 562.191,-131.338 559.261,-130.624 556.345,-129.897"/>
<polygon fill="midnightblue" stroke="midnightblue" points="738.235,-173.165 748.732,-171.728 739.63,-166.305 738.235,-173.165"/>
</g>
<!-- Node18 -->
<g id="node14" class="node"><title>Node18</title>
<g id="a_node14"><a xlink:href="arch_2default-linux_2odp_2api_2abi_2barrier_8h_source.html" target="_top" xlink:title="barrier.h">
<polygon fill="white" stroke="black" points="574,-112.5 574,-131.5 626,-131.5 626,-112.5 574,-112.5"/>
<text text-anchor="middle" x="600" y="-119.5" font-family="Helvetica,sans-Serif" font-size="10.00">barrier.h</text>
</a>
</g>
</g>
<!-- Node15&#45;&gt;Node18 -->
<g id="edge13" class="edge"><title>Node15&#45;&gt;Node18</title>
<path fill="none" stroke="midnightblue" d="M738.914,-165.865C705.311,-155.496 656.031,-140.289 626.092,-131.051"/>
<polygon fill="midnightblue" stroke="midnightblue" points="738.213,-169.311 748.801,-168.916 740.277,-162.623 738.213,-169.311"/>
</g>
<!-- Node19 -->
<g id="node15" class="node"><title>Node19</title>
<g id="a_node15"><a xlink:href="arch_2mips64-linux_2odp_2api_2abi_2barrier_8h_source.html" target="_top" xlink:title="barrier.h">
<polygon fill="white" stroke="black" points="644,-112.5 644,-131.5 696,-131.5 696,-112.5 644,-112.5"/>
<text text-anchor="middle" x="670" y="-119.5" font-family="Helvetica,sans-Serif" font-size="10.00">barrier.h</text>
</a>
</g>
</g>
<!-- Node15&#45;&gt;Node19 -->
<g id="edge14" class="edge"><title>Node15&#45;&gt;Node19</title>
<path fill="none" stroke="midnightblue" d="M749.19,-163.726C729.747,-153.727 703.652,-140.307 686.828,-131.655"/>
<polygon fill="midnightblue" stroke="midnightblue" points="747.636,-166.863 758.13,-168.324 750.838,-160.638 747.636,-166.863"/>
</g>
<!-- Node20 -->
<g id="node16" class="node"><title>Node20</title>
<g id="a_node16"><a xlink:href="arch_2power64-linux_2odp_2api_2abi_2barrier_8h_source.html" target="_top" xlink:title="barrier.h">
<polygon fill="white" stroke="black" points="714,-112.5 714,-131.5 766,-131.5 766,-112.5 714,-112.5"/>
<text text-anchor="middle" x="740" y="-119.5" font-family="Helvetica,sans-Serif" font-size="10.00">barrier.h</text>
</a>
</g>
</g>
<!-- Node15&#45;&gt;Node20 -->
<g id="edge15" class="edge"><title>Node15&#45;&gt;Node20</title>
<path fill="none" stroke="midnightblue" d="M763.7,-159.566C757.678,-150.275 750.531,-139.248 745.672,-131.751"/>
<polygon fill="midnightblue" stroke="midnightblue" points="760.844,-161.595 769.22,-168.083 766.719,-157.788 760.844,-161.595"/>
</g>
<!-- Node21 -->
<g id="node17" class="node"><title>Node21</title>
<g id="a_node17"><a xlink:href="arch_2x86__32-linux_2odp_2api_2abi_2barrier_8h_source.html" target="_top" xlink:title="barrier.h">
<polygon fill="white" stroke="black" points="784,-112.5 784,-131.5 836,-131.5 836,-112.5 784,-112.5"/>
<text text-anchor="middle" x="810" y="-119.5" font-family="Helvetica,sans-Serif" font-size="10.00">barrier.h</text>
</a>
</g>
</g>
<!-- Node15&#45;&gt;Node21 -->
<g id="edge16" class="edge"><title>Node15&#45;&gt;Node21</title>
<path fill="none" stroke="midnightblue" d="M786.3,-159.566C792.322,-150.275 799.469,-139.248 804.328,-131.751"/>
<polygon fill="midnightblue" stroke="midnightblue" points="783.281,-157.788 780.78,-168.083 789.156,-161.595 783.281,-157.788"/>
</g>
<!-- Node22 -->
<g id="node18" class="node"><title>Node22</title>
<g id="a_node18"><a xlink:href="arch_2x86__64-linux_2odp_2api_2abi_2barrier_8h_source.html" target="_top" xlink:title="barrier.h">
<polygon fill="white" stroke="black" points="924,-112.5 924,-131.5 976,-131.5 976,-112.5 924,-112.5"/>
<text text-anchor="middle" x="950" y="-119.5" font-family="Helvetica,sans-Serif" font-size="10.00">barrier.h</text>
</a>
</g>
</g>
<!-- Node15&#45;&gt;Node22 -->
<g id="edge17" class="edge"><title>Node15&#45;&gt;Node22</title>
<path fill="none" stroke="midnightblue" d="M811.086,-165.865C844.689,-155.496 893.969,-140.289 923.908,-131.051"/>
<polygon fill="midnightblue" stroke="midnightblue" points="809.723,-162.623 801.199,-168.916 811.787,-169.311 809.723,-162.623"/>
</g>
<!-- Node22&#45;&gt;Node23 -->
<g id="edge18" class="edge"><title>Node22&#45;&gt;Node23</title>
<path fill="none" stroke="midnightblue" d="M962.065,-103.855C968.645,-94.5048 976.511,-83.3265 981.842,-75.7511"/>
<polygon fill="midnightblue" stroke="midnightblue" points="959.168,-101.891 956.275,-112.083 964.892,-105.919 959.168,-101.891"/>
</g>
<!-- Node23&#45;&gt;Node24 -->
<g id="edge19" class="edge"><title>Node23&#45;&gt;Node24</title>
<path fill="none" stroke="midnightblue" d="M1024.14,-56.5643C1025.44,-56.3579 1026.73,-56.1685 1028,-56 1234.66,-28.5762 1905.91,-14.4046 2055.34,-11.5458"/>
<polygon fill="midnightblue" stroke="midnightblue" points="1023.33,-53.1558 1014.13,-58.4175 1024.6,-60.0388 1023.33,-53.1558"/>
</g>
<!-- Node54 -->
<g id="node22" class="node"><title>Node54</title>
<g id="a_node22"><a xlink:href="arch_2arm32-linux_2odp_2api_2abi_2byteorder_8h_source.html" target="_top" xlink:title="byteorder.h">
<polygon fill="white" stroke="black" points="1070.5,-112.5 1070.5,-131.5 1135.5,-131.5 1135.5,-112.5 1070.5,-112.5"/>
<text text-anchor="middle" x="1103" y="-119.5" font-family="Helvetica,sans-Serif" font-size="10.00">byteorder.h</text>
</a>
</g>
</g>
<!-- Node53&#45;&gt;Node54 -->
<g id="edge21" class="edge"><title>Node53&#45;&gt;Node54</title>
<path fill="none" stroke="midnightblue" d="M1103,-157.805C1103,-148.91 1103,-138.78 1103,-131.751"/>
<polygon fill="midnightblue" stroke="midnightblue" points="1099.5,-158.083 1103,-168.083 1106.5,-158.083 1099.5,-158.083"/>
</g>
<!-- Node154&#45;&gt;Node24 -->
<g id="edge32" class="edge"><title>Node154&#45;&gt;Node24</title>
<path fill="none" stroke="midnightblue" d="M1862.28,-55.8106C1937.13,-38.5902 2013.97,-23.9832 2055.16,-16.399"/>
<polygon fill="midnightblue" stroke="midnightblue" points="1861.16,-52.4765 1852.21,-58.1455 1862.74,-59.2955 1861.16,-52.4765"/>
</g>
<!-- Node111&#45;&gt;Node24 -->
<g id="edge34" class="edge"><title>Node111&#45;&gt;Node24</title>
<path fill="none" stroke="midnightblue" d="M1948.26,-53.4363C1981.07,-43.2551 2028.08,-28.664 2057.56,-19.5164"/>
<polygon fill="midnightblue" stroke="midnightblue" points="1947.08,-50.1368 1938.57,-56.4435 1949.16,-56.8222 1947.08,-50.1368"/>
</g>
<!-- Node117&#45;&gt;Node24 -->
<g id="edge36" class="edge"><title>Node117&#45;&gt;Node24</title>
<path fill="none" stroke="midnightblue" d="M2215.11,-106.417C2183.39,-83.1513 2122.3,-38.3501 2096.72,-19.5914"/>
<polygon fill="midnightblue" stroke="midnightblue" points="2213.1,-109.277 2223.23,-112.368 2217.24,-103.632 2213.1,-109.277"/>
</g>
<!-- Node113&#45;&gt;Node24 -->
<g id="edge39" class="edge"><title>Node113&#45;&gt;Node24</title>
<path fill="none" stroke="midnightblue" d="M1962.74,-158.474C1961.24,-144.937 1961.09,-126.492 1968,-112 1989.36,-67.1856 2040.95,-34.3966 2067.92,-19.656"/>
<polygon fill="midnightblue" stroke="midnightblue" points="1959.29,-159.1 1964.19,-168.496 1966.22,-158.098 1959.29,-159.1"/>
</g>
<!-- Node113&#45;&gt;Node127 -->
<g id="edge38" class="edge"><title>Node113&#45;&gt;Node127</title>
<path fill="none" stroke="midnightblue" d="M1981.38,-160.718C1990.37,-151.2 2001.36,-139.561 2008.74,-131.751"/>
<polygon fill="midnightblue" stroke="midnightblue" points="1978.74,-158.41 1974.42,-168.083 1983.83,-163.216 1978.74,-158.41"/>
</g>
<!-- Node123&#45;&gt;Node24 -->
<g id="edge42" class="edge"><title>Node123&#45;&gt;Node24</title>
<path fill="none" stroke="midnightblue" d="M2083.23,-157.93C2083.66,-121.92 2084.59,-45.2312 2084.9,-19.5681"/>
<polygon fill="midnightblue" stroke="midnightblue" points="2079.73,-158.034 2083.11,-168.075 2086.73,-158.118 2079.73,-158.034"/>
</g>
<!-- Node123&#45;&gt;Node125 -->
<g id="edge41" class="edge"><title>Node123&#45;&gt;Node125</title>
<path fill="none" stroke="midnightblue" d="M2102.04,-162.101C2114.46,-152.382 2130.24,-140.027 2140.71,-131.834"/>
<polygon fill="midnightblue" stroke="midnightblue" points="2099.8,-159.405 2094.09,-168.324 2104.12,-164.917 2099.8,-159.405"/>
</g>
<!-- Node121&#45;&gt;Node24 -->
<g id="edge46" class="edge"><title>Node121&#45;&gt;Node24</title>
<path fill="none" stroke="midnightblue" d="M2254.38,-161.013C2266.66,-147.705 2279.4,-128.359 2270,-112 2237.01,-54.5665 2158.19,-27.8584 2114.84,-17.1386"/>
<polygon fill="midnightblue" stroke="midnightblue" points="2251.57,-158.88 2247,-168.438 2256.53,-163.816 2251.57,-158.88"/>
</g>
<!-- Node121&#45;&gt;Node117 -->
<g id="edge44" class="edge"><title>Node121&#45;&gt;Node117</title>
<path fill="none" stroke="midnightblue" d="M2236.29,-157.805C2235.96,-148.91 2235.58,-138.78 2235.32,-131.751"/>
<polygon fill="midnightblue" stroke="midnightblue" points="2232.8,-158.219 2236.67,-168.083 2239.8,-157.96 2232.8,-158.219"/>
</g>
<!-- Node121&#45;&gt;Node80 -->
<g id="edge45" class="edge"><title>Node121&#45;&gt;Node80</title>
<path fill="none" stroke="midnightblue" d="M2264.25,-163.862C2285.02,-153.849 2313.02,-140.346 2331.05,-131.655"/>
<polygon fill="midnightblue" stroke="midnightblue" points="2262.48,-160.828 2254.99,-168.324 2265.52,-167.134 2262.48,-160.828"/>
</g>
<!-- Node168&#45;&gt;Node24 -->
<g id="edge59" class="edge"><title>Node168&#45;&gt;Node24</title>
<path fill="none" stroke="midnightblue" d="M2535.63,-59.6683C2432.63,-48.5442 2197.52,-23.1526 2114.61,-14.1981"/>
<polygon fill="midnightblue" stroke="midnightblue" points="2535.45,-63.1686 2545.77,-60.7627 2536.2,-56.2091 2535.45,-63.1686"/>
</g>
<!-- Node169&#45;&gt;Node24 -->
<g id="edge61" class="edge"><title>Node169&#45;&gt;Node24</title>
<path fill="none" stroke="midnightblue" d="M2746.55,-62.4749C2629.13,-53.3389 2227.44,-22.0831 2114.66,-13.3078"/>
<polygon fill="midnightblue" stroke="midnightblue" points="2746.45,-65.9781 2756.7,-63.2645 2747,-58.9992 2746.45,-65.9781"/>
</g>
<!-- Node171&#45;&gt;Node24 -->
<g id="edge63" class="edge"><title>Node171&#45;&gt;Node24</title>
<path fill="none" stroke="midnightblue" d="M2866.35,-61.3764C2849.2,-59.6044 2828,-57.5297 2809,-56 2539.74,-34.324 2213.41,-17.3795 2114.68,-12.4554"/>
<polygon fill="midnightblue" stroke="midnightblue" points="2866.14,-64.8736 2876.45,-62.433 2866.87,-57.9116 2866.14,-64.8736"/>
</g>
</g>
</svg>
