<?xml version="1.0" encoding="UTF-8" standalone="no"?>
<!DOCTYPE svg PUBLIC "-//W3C//DTD SVG 1.1//EN"
 "http://www.w3.org/Graphics/SVG/1.1/DTD/svg11.dtd">
<!-- Generated by graphviz version 2.36.0 (20140111.2315)
 -->
<!-- Title: schedule.h Pages: 1 -->
<svg width="1690pt" height="668pt"
 viewBox="0.00 0.00 1690.00 668.00" xmlns="http://www.w3.org/2000/svg" xmlns:xlink="http://www.w3.org/1999/xlink">
<g id="graph0" class="graph" transform="scale(1 1) rotate(0) translate(4 664)">
<title>schedule.h</title>
<polygon fill="white" stroke="none" points="-4,4 -4,-664 1686,-664 1686,4 -4,4"/>
<!-- Node0 -->
<g id="node1" class="node"><title>Node0</title>
<polygon fill="#bfbfbf" stroke="black" points="1389,-640.5 1389,-659.5 1453,-659.5 1453,-640.5 1389,-640.5"/>
<text text-anchor="middle" x="1421" y="-647.5" font-family="Helvetica,sans-Serif" font-size="10.00">schedule.h</text>
</g>
<!-- Node1 -->
<g id="node2" class="node"><title>Node1</title>
<polygon fill="white" stroke="#bfbfbf" points="1548,-169 1548,-199 1654,-199 1654,-169 1548,-169"/>
<text text-anchor="start" x="1556" y="-187" font-family="Helvetica,sans-Serif" font-size="10.00">odp/api/abi/schedule</text>
<text text-anchor="middle" x="1601" y="-176" font-family="Helvetica,sans-Serif" font-size="10.00">_types.h</text>
</g>
<!-- Node0&#45;&gt;Node1 -->
<g id="edge1" class="edge"><title>Node0&#45;&gt;Node1</title>
<path fill="none" stroke="midnightblue" d="M1453.43,-647.542C1515.27,-642.839 1644,-622.964 1644,-539 1644,-539 1644,-539 1644,-307 1644,-270.879 1627.03,-231.988 1614.41,-208.067"/>
<polygon fill="midnightblue" stroke="midnightblue" points="1617.36,-206.175 1609.5,-199.078 1611.22,-209.531 1617.36,-206.175"/>
</g>
<!-- Node2 -->
<g id="node3" class="node"><title>Node2</title>
<polygon fill="white" stroke="#bfbfbf" points="1364,-584.5 1364,-603.5 1478,-603.5 1478,-584.5 1364,-584.5"/>
<text text-anchor="middle" x="1421" y="-591.5" font-family="Helvetica,sans-Serif" font-size="10.00">odp/api/abi/schedule.h</text>
</g>
<!-- Node0&#45;&gt;Node2 -->
<g id="edge2" class="edge"><title>Node0&#45;&gt;Node2</title>
<path fill="none" stroke="midnightblue" d="M1421,-640.083C1421,-633.006 1421,-622.861 1421,-613.986"/>
<polygon fill="midnightblue" stroke="midnightblue" points="1424.5,-613.751 1421,-603.751 1417.5,-613.751 1424.5,-613.751"/>
</g>
<!-- Node3 -->
<g id="node4" class="node"><title>Node3</title>
<g id="a_node4"><a xlink:href="api_2spec_2schedule_8h.html" target="_top" xlink:title="ODP schedule. ">
<polygon fill="white" stroke="black" points="950,-584.5 950,-603.5 1072,-603.5 1072,-584.5 950,-584.5"/>
<text text-anchor="middle" x="1011" y="-591.5" font-family="Helvetica,sans-Serif" font-size="10.00">odp/api/spec/schedule.h</text>
</a>
</g>
</g>
<!-- Node0&#45;&gt;Node3 -->
<g id="edge3" class="edge"><title>Node0&#45;&gt;Node3</title>
<path fill="none" stroke="midnightblue" d="M1388.83,-644.763C1323.12,-636.108 1172.12,-616.221 1082.18,-604.374"/>
<polygon fill="midnightblue" stroke="midnightblue" points="1082.43,-600.877 1072.06,-603.042 1081.51,-607.817 1082.43,-600.877"/>
</g>
<!-- Node4 -->
<g id="node5" class="node"><title>Node4</title>
<g id="a_node5"><a xlink:href="visibility__begin_8h_source.html" target="_top" xlink:title="odp/visibility_begin.h">
<polygon fill="white" stroke="black" points="772.5,-0.5 772.5,-19.5 879.5,-19.5 879.5,-0.5 772.5,-0.5"/>
<text text-anchor="middle" x="826" y="-7.5" font-family="Helvetica,sans-Serif" font-size="10.00">odp/visibility_begin.h</text>
</a>
</g>
</g>
<!-- Node3&#45;&gt;Node4 -->
<g id="edge4" class="edge"><title>Node3&#45;&gt;Node4</title>
<path fill="none" stroke="midnightblue" d="M949.737,-593.481C774.659,-594.293 274.69,-592.535 118,-548 60.4064,-531.63 0,-542.875 0,-483 0,-483 0,-483 0,-121 0,-44.1632 568.864,-19.1 762.417,-12.7962"/>
<polygon fill="midnightblue" stroke="midnightblue" points="762.557,-16.2936 772.44,-12.4756 762.333,-9.29716 762.557,-16.2936"/>
</g>
<!-- Node5 -->
<g id="node6" class="node"><title>Node5</title>
<g id="a_node6"><a xlink:href="api_2std__types_8h.html" target="_top" xlink:title="Standard C language types and definitions for ODP. ">
<polygon fill="white" stroke="black" points="352,-112.5 352,-131.5 454,-131.5 454,-112.5 352,-112.5"/>
<text text-anchor="middle" x="403" y="-119.5" font-family="Helvetica,sans-Serif" font-size="10.00">odp/api/std_types.h</text>
</a>
</g>
</g>
<!-- Node3&#45;&gt;Node5 -->
<g id="edge5" class="edge"><title>Node3&#45;&gt;Node5</title>
<path fill="none" stroke="midnightblue" d="M949.766,-592.536C736.316,-590.12 38,-575.172 38,-483 38,-483 38,-483 38,-245 38,-197.227 70.543,-189.902 113,-168 151.867,-147.95 269.022,-134.554 341.985,-127.905"/>
<polygon fill="midnightblue" stroke="midnightblue" points="342.326,-131.388 351.974,-127.011 341.702,-124.416 342.326,-131.388"/>
</g>
<!-- Node9 -->
<g id="node10" class="node"><title>Node9</title>
<g id="a_node10"><a xlink:href="visibility__end_8h_source.html" target="_top" xlink:title="odp/visibility_end.h">
<polygon fill="white" stroke="black" points="1202,-0.5 1202,-19.5 1302,-19.5 1302,-0.5 1202,-0.5"/>
<text text-anchor="middle" x="1252" y="-7.5" font-family="Helvetica,sans-Serif" font-size="10.00">odp/visibility_end.h</text>
</a>
</g>
</g>
<!-- Node3&#45;&gt;Node9 -->
<g id="edge65" class="edge"><title>Node3&#45;&gt;Node9</title>
<path fill="none" stroke="midnightblue" d="M1072.16,-588.076C1223.99,-575.035 1606,-536.87 1606,-483 1606,-483 1606,-483 1606,-425 1606,-338.98 1682,-333.02 1682,-247 1682,-247 1682,-247 1682,-121 1682,-45.564 1430.47,-21.1735 1312.16,-13.8735"/>
<polygon fill="midnightblue" stroke="midnightblue" points="1312.36,-10.379 1302.17,-13.2779 1311.94,-17.3666 1312.36,-10.379"/>
</g>
<!-- Node10 -->
<g id="node11" class="node"><title>Node10</title>
<g id="a_node11"><a xlink:href="api_2event_8h.html" target="_top" xlink:title="ODP event. ">
<polygon fill="white" stroke="black" points="832.5,-416.5 832.5,-435.5 915.5,-435.5 915.5,-416.5 832.5,-416.5"/>
<text text-anchor="middle" x="874" y="-423.5" font-family="Helvetica,sans-Serif" font-size="10.00">odp/api/event.h</text>
</a>
</g>
</g>
<!-- Node3&#45;&gt;Node10 -->
<g id="edge11" class="edge"><title>Node3&#45;&gt;Node10</title>
<path fill="none" stroke="midnightblue" d="M996.269,-584.42C971.254,-569.091 920.511,-534.581 893,-492 883.928,-477.959 879.072,-459.463 876.548,-445.793"/>
<polygon fill="midnightblue" stroke="midnightblue" points="879.962,-444.974 874.934,-435.648 873.049,-446.074 879.962,-444.974"/>
</g>
<!-- Node22 -->
<g id="node23" class="node"><title>Node22</title>
<g id="a_node23"><a xlink:href="api_2queue_8h.html" target="_top" xlink:title="ODP queue. ">
<polygon fill="white" stroke="black" points="653,-528.5 653,-547.5 739,-547.5 739,-528.5 653,-528.5"/>
<text text-anchor="middle" x="696" y="-535.5" font-family="Helvetica,sans-Serif" font-size="10.00">odp/api/queue.h</text>
</a>
</g>
</g>
<!-- Node3&#45;&gt;Node22 -->
<g id="edge32" class="edge"><title>Node3&#45;&gt;Node22</title>
<path fill="none" stroke="midnightblue" d="M961.087,-584.444C903.198,-574.52 808.164,-558.228 748.994,-548.085"/>
<polygon fill="midnightblue" stroke="midnightblue" points="749.547,-544.628 739.099,-546.388 748.364,-551.528 749.547,-544.628"/>
</g>
<!-- Node26 -->
<g id="node27" class="node"><title>Node26</title>
<g id="a_node27"><a xlink:href="api_2schedule__types_8h.html" target="_top" xlink:title="ODP schedule. ">
<polygon fill="white" stroke="black" points="1409,-236.5 1409,-255.5 1537,-255.5 1537,-236.5 1409,-236.5"/>
<text text-anchor="middle" x="1473" y="-243.5" font-family="Helvetica,sans-Serif" font-size="10.00">odp/api/schedule_types.h</text>
</a>
</g>
</g>
<!-- Node3&#45;&gt;Node26 -->
<g id="edge58" class="edge"><title>Node3&#45;&gt;Node26</title>
<path fill="none" stroke="midnightblue" d="M1072.4,-590.231C1192.31,-583.142 1446,-559.145 1446,-483 1446,-483 1446,-483 1446,-369 1446,-331.546 1458.28,-289.119 1466.28,-265.463"/>
<polygon fill="midnightblue" stroke="midnightblue" points="1469.68,-266.326 1469.69,-255.731 1463.08,-264.011 1469.68,-266.326"/>
</g>
<!-- Node32 -->
<g id="node33" class="node"><title>Node32</title>
<g id="a_node33"><a xlink:href="api_2thrmask_8h.html" target="_top" xlink:title="ODP thread masks. ">
<polygon fill="white" stroke="black" points="1257.5,-236.5 1257.5,-255.5 1352.5,-255.5 1352.5,-236.5 1257.5,-236.5"/>
<text text-anchor="middle" x="1305" y="-243.5" font-family="Helvetica,sans-Serif" font-size="10.00">odp/api/thrmask.h</text>
</a>
</g>
</g>
<!-- Node3&#45;&gt;Node32 -->
<g id="edge59" class="edge"><title>Node3&#45;&gt;Node32</title>
<path fill="none" stroke="midnightblue" d="M1072.28,-585.436C1168.21,-571.863 1343,-539.394 1343,-483 1343,-483 1343,-483 1343,-369 1343,-330.351 1325.4,-287.804 1314.16,-264.564"/>
<polygon fill="midnightblue" stroke="midnightblue" points="1317.27,-262.963 1309.66,-255.59 1311.01,-266.099 1317.27,-262.963"/>
</g>
<!-- Node6 -->
<g id="node7" class="node"><title>Node6</title>
<polygon fill="white" stroke="#bfbfbf" points="484,-56.5 484,-75.5 602,-75.5 602,-56.5 484,-56.5"/>
<text text-anchor="middle" x="543" y="-63.5" font-family="Helvetica,sans-Serif" font-size="10.00">odp/api/abi/std_types.h</text>
</g>
<!-- Node5&#45;&gt;Node6 -->
<g id="edge6" class="edge"><title>Node5&#45;&gt;Node6</title>
<path fill="none" stroke="midnightblue" d="M425.183,-112.444C448.428,-103.478 485.149,-89.314 511.415,-79.1827"/>
<polygon fill="midnightblue" stroke="midnightblue" points="512.85,-82.3807 520.92,-75.5164 510.331,-75.8497 512.85,-82.3807"/>
</g>
<!-- Node7 -->
<g id="node8" class="node"><title>Node7</title>
<g id="a_node8"><a xlink:href="api_2spec_2std__types_8h.html" target="_top" xlink:title="Standard C language types and definitions for ODP. ">
<polygon fill="white" stroke="black" points="340,-56.5 340,-75.5 466,-75.5 466,-56.5 340,-56.5"/>
<text text-anchor="middle" x="403" y="-63.5" font-family="Helvetica,sans-Serif" font-size="10.00">odp/api/spec/std_types.h</text>
</a>
</g>
</g>
<!-- Node5&#45;&gt;Node7 -->
<g id="edge7" class="edge"><title>Node5&#45;&gt;Node7</title>
<path fill="none" stroke="midnightblue" d="M403,-112.083C403,-105.006 403,-94.8611 403,-85.9865"/>
<polygon fill="midnightblue" stroke="midnightblue" points="406.5,-85.751 403,-75.7511 399.5,-85.7511 406.5,-85.751"/>
</g>
<!-- Node7&#45;&gt;Node4 -->
<g id="edge8" class="edge"><title>Node7&#45;&gt;Node4</title>
<path fill="none" stroke="midnightblue" d="M466.327,-56.9157C546.116,-46.7299 682.444,-29.3263 762.374,-19.1225"/>
<polygon fill="midnightblue" stroke="midnightblue" points="762.835,-22.5921 772.311,-17.8539 761.948,-15.6485 762.835,-22.5921"/>
</g>
<!-- Node8 -->
<g id="node9" class="node"><title>Node8</title>
<polygon fill="white" stroke="#bfbfbf" points="378.5,-0.5 378.5,-19.5 427.5,-19.5 427.5,-0.5 378.5,-0.5"/>
<text text-anchor="middle" x="403" y="-7.5" font-family="Helvetica,sans-Serif" font-size="10.00">stdint.h</text>
</g>
<!-- Node7&#45;&gt;Node8 -->
<g id="edge9" class="edge"><title>Node7&#45;&gt;Node8</title>
<path fill="none" stroke="midnightblue" d="M403,-56.083C403,-49.0059 403,-38.8611 403,-29.9865"/>
<polygon fill="midnightblue" stroke="midnightblue" points="406.5,-29.751 403,-19.7511 399.5,-29.7511 406.5,-29.751"/>
</g>
<!-- Node7&#45;&gt;Node9 -->
<g id="edge10" class="edge"><title>Node7&#45;&gt;Node9</title>
<path fill="none" stroke="midnightblue" d="M466.19,-56.86C469.167,-56.5525 472.115,-56.2636 475,-56 741.613,-31.6435 1060.97,-18.0332 1191.72,-13.1248"/>
<polygon fill="midnightblue" stroke="midnightblue" points="1192.06,-16.6147 1201.92,-12.7451 1191.79,-9.61952 1192.06,-16.6147"/>
</g>
<!-- Node11 -->
<g id="node12" class="node"><title>Node11</title>
<polygon fill="white" stroke="#bfbfbf" points="104.5,-236.5 104.5,-255.5 203.5,-255.5 203.5,-236.5 104.5,-236.5"/>
<text text-anchor="middle" x="154" y="-243.5" font-family="Helvetica,sans-Serif" font-size="10.00">odp/api/abi/event.h</text>
</g>
<!-- Node10&#45;&gt;Node11 -->
<g id="edge12" class="edge"><title>Node10&#45;&gt;Node11</title>
<path fill="none" stroke="midnightblue" d="M839.273,-416.415C720.593,-387.074 331.158,-290.798 198.625,-258.032"/>
<polygon fill="midnightblue" stroke="midnightblue" points="199.347,-254.605 188.799,-255.603 197.667,-261.401 199.347,-254.605"/>
</g>
<!-- Node12 -->
<g id="node13" class="node"><title>Node12</title>
<g id="a_node13"><a xlink:href="api_2spec_2event_8h.html" target="_top" xlink:title="ODP event. ">
<polygon fill="white" stroke="black" points="820.5,-360.5 820.5,-379.5 927.5,-379.5 927.5,-360.5 820.5,-360.5"/>
<text text-anchor="middle" x="874" y="-367.5" font-family="Helvetica,sans-Serif" font-size="10.00">odp/api/spec/event.h</text>
</a>
</g>
</g>
<!-- Node10&#45;&gt;Node12 -->
<g id="edge13" class="edge"><title>Node10&#45;&gt;Node12</title>
<path fill="none" stroke="midnightblue" d="M874,-416.083C874,-409.006 874,-398.861 874,-389.986"/>
<polygon fill="midnightblue" stroke="midnightblue" points="877.5,-389.751 874,-379.751 870.5,-389.751 877.5,-389.751"/>
</g>
<!-- Node12&#45;&gt;Node4 -->
<g id="edge14" class="edge"><title>Node12&#45;&gt;Node4</title>
<path fill="none" stroke="midnightblue" d="M875.995,-360.366C880.623,-338.348 890.223,-278.821 870,-236 858.466,-211.577 698.165,-100.593 687,-76 670.908,-40.5558 718.47,-24.3969 762.264,-17.0554"/>
<polygon fill="midnightblue" stroke="midnightblue" points="763.046,-20.4763 772.397,-15.4954 761.981,-13.5578 763.046,-20.4763"/>
</g>
<!-- Node12&#45;&gt;Node9 -->
<g id="edge31" class="edge"><title>Node12&#45;&gt;Node9</title>
<path fill="none" stroke="midnightblue" d="M881.38,-360.416C914.426,-322.244 1052.96,-164.984 1185,-56 1198.87,-44.5497 1215.68,-33.2672 1228.99,-24.8636"/>
<polygon fill="midnightblue" stroke="midnightblue" points="1230.92,-27.7869 1237.57,-19.539 1227.23,-21.8397 1230.92,-27.7869"/>
</g>
<!-- Node13 -->
<g id="node14" class="node"><title>Node13</title>
<g id="a_node14"><a xlink:href="api_2packet_8h.html" target="_top" xlink:title="ODP packet descriptor. ">
<polygon fill="white" stroke="black" points="528.5,-298.5 528.5,-317.5 617.5,-317.5 617.5,-298.5 528.5,-298.5"/>
<text text-anchor="middle" x="573" y="-305.5" font-family="Helvetica,sans-Serif" font-size="10.00">odp/api/packet.h</text>
</a>
</g>
</g>
<!-- Node12&#45;&gt;Node13 -->
<g id="edge15" class="edge"><title>Node12&#45;&gt;Node13</title>
<path fill="none" stroke="midnightblue" d="M831.194,-360.467C777.145,-349.693 684.181,-331.162 625.787,-319.522"/>
<polygon fill="midnightblue" stroke="midnightblue" points="626.15,-316.026 615.659,-317.503 624.781,-322.891 626.15,-316.026"/>
</g>
<!-- Node13&#45;&gt;Node5 -->
<g id="edge16" class="edge"><title>Node13&#45;&gt;Node5</title>
<path fill="none" stroke="midnightblue" d="M542.222,-298.476C533.177,-296.161 523.233,-293.8 514,-292 456.1,-280.715 289.78,-300.45 251,-256 207.308,-205.92 311.632,-157.092 368.747,-135.113"/>
<polygon fill="midnightblue" stroke="midnightblue" points="370.023,-138.373 378.148,-131.573 367.556,-131.822 370.023,-138.373"/>
</g>
<!-- Node13&#45;&gt;Node11 -->
<g id="edge17" class="edge"><title>Node13&#45;&gt;Node11</title>
<path fill="none" stroke="midnightblue" d="M542.543,-298.465C533.418,-296.123 523.35,-293.75 514,-292 383.736,-267.623 349.4,-273.228 218,-256 216.54,-255.809 215.061,-255.613 213.57,-255.414"/>
<polygon fill="midnightblue" stroke="midnightblue" points="213.98,-251.938 203.602,-254.068 213.043,-258.875 213.98,-251.938"/>
</g>
<!-- Node14 -->
<g id="node15" class="node"><title>Node14</title>
<polygon fill="white" stroke="#bfbfbf" points="260.5,-236.5 260.5,-255.5 377.5,-255.5 377.5,-236.5 260.5,-236.5"/>
<text text-anchor="middle" x="319" y="-243.5" font-family="Helvetica,sans-Serif" font-size="10.00">odp/api/abi/packet_io.h</text>
</g>
<!-- Node13&#45;&gt;Node14 -->
<g id="edge18" class="edge"><title>Node13&#45;&gt;Node14</title>
<path fill="none" stroke="midnightblue" d="M539.955,-298.461C531.503,-296.315 522.422,-294.042 514,-292 463.991,-279.874 406.577,-266.717 367.066,-257.78"/>
<polygon fill="midnightblue" stroke="midnightblue" points="367.697,-254.335 357.171,-255.546 366.155,-261.163 367.697,-254.335"/>
</g>
<!-- Node15 -->
<g id="node16" class="node"><title>Node15</title>
<polygon fill="white" stroke="#bfbfbf" points="396,-236.5 396,-255.5 500,-255.5 500,-236.5 396,-236.5"/>
<text text-anchor="middle" x="448" y="-243.5" font-family="Helvetica,sans-Serif" font-size="10.00">odp/api/abi/packet.h</text>
</g>
<!-- Node13&#45;&gt;Node15 -->
<g id="edge19" class="edge"><title>Node13&#45;&gt;Node15</title>
<path fill="none" stroke="midnightblue" d="M555.091,-298.403C534.113,-288.334 499.15,-271.552 474.907,-259.915"/>
<polygon fill="midnightblue" stroke="midnightblue" points="476.406,-256.753 465.876,-255.581 473.377,-263.063 476.406,-256.753"/>
</g>
<!-- Node16 -->
<g id="node17" class="node"><title>Node16</title>
<polygon fill="white" stroke="#bfbfbf" points="650,-236.5 650,-255.5 750,-255.5 750,-236.5 650,-236.5"/>
<text text-anchor="middle" x="700" y="-243.5" font-family="Helvetica,sans-Serif" font-size="10.00">odp/api/abi/buffer.h</text>
</g>
<!-- Node13&#45;&gt;Node16 -->
<g id="edge20" class="edge"><title>Node13&#45;&gt;Node16</title>
<path fill="none" stroke="midnightblue" d="M591.196,-298.403C612.509,-288.334 648.031,-271.552 672.663,-259.915"/>
<polygon fill="midnightblue" stroke="midnightblue" points="674.291,-263.017 681.838,-255.581 671.301,-256.688 674.291,-263.017"/>
</g>
<!-- Node17 -->
<g id="node18" class="node"><title>Node17</title>
<polygon fill="white" stroke="#bfbfbf" points="768.5,-236.5 768.5,-255.5 861.5,-255.5 861.5,-236.5 768.5,-236.5"/>
<text text-anchor="middle" x="815" y="-243.5" font-family="Helvetica,sans-Serif" font-size="10.00">odp/api/abi/pool.h</text>
</g>
<!-- Node13&#45;&gt;Node17 -->
<g id="edge21" class="edge"><title>Node13&#45;&gt;Node17</title>
<path fill="none" stroke="midnightblue" d="M607.416,-298.467C650.33,-287.827 723.76,-269.622 770.798,-257.959"/>
<polygon fill="midnightblue" stroke="midnightblue" points="771.839,-261.307 780.703,-255.503 770.155,-254.513 771.839,-261.307"/>
</g>
<!-- Node18 -->
<g id="node19" class="node"><title>Node18</title>
<g id="a_node19"><a xlink:href="api_2spec_2packet_8h.html" target="_top" xlink:title="ODP packet descriptor. ">
<polygon fill="white" stroke="black" points="518.5,-236.5 518.5,-255.5 631.5,-255.5 631.5,-236.5 518.5,-236.5"/>
<text text-anchor="middle" x="575" y="-243.5" font-family="Helvetica,sans-Serif" font-size="10.00">odp/api/spec/packet.h</text>
</a>
</g>
</g>
<!-- Node13&#45;&gt;Node18 -->
<g id="edge22" class="edge"><title>Node13&#45;&gt;Node18</title>
<path fill="none" stroke="midnightblue" d="M573.287,-298.403C573.569,-289.938 574.009,-276.728 574.373,-265.82"/>
<polygon fill="midnightblue" stroke="midnightblue" points="577.879,-265.692 574.714,-255.581 570.883,-265.458 577.879,-265.692"/>
</g>
<!-- Node18&#45;&gt;Node4 -->
<g id="edge23" class="edge"><title>Node18&#45;&gt;Node4</title>
<path fill="none" stroke="midnightblue" d="M582.481,-236.212C589.592,-227.497 600.183,-213.526 607,-200 637.298,-139.88 604.999,-102.165 654,-56 682.831,-28.8376 725.98,-17.5996 761.846,-13.1462"/>
<polygon fill="midnightblue" stroke="midnightblue" points="762.671,-16.5773 772.234,-12.0169 761.914,-9.61826 762.671,-16.5773"/>
</g>
<!-- Node18&#45;&gt;Node9 -->
<g id="edge30" class="edge"><title>Node18&#45;&gt;Node9</title>
<path fill="none" stroke="midnightblue" d="M600.013,-236.466C669.292,-212.677 869.29,-142.962 1032,-76 1051.86,-67.8249 1055.74,-63.1327 1076,-56 1116.89,-41.6076 1164.6,-29.6989 1200.02,-21.7553"/>
<polygon fill="midnightblue" stroke="midnightblue" points="1201.13,-25.0958 1210.13,-19.5202 1199.61,-18.2607 1201.13,-25.0958"/>
</g>
<!-- Node19 -->
<g id="node20" class="node"><title>Node19</title>
<g id="a_node20"><a xlink:href="api_2time_8h.html" target="_top" xlink:title="ODP time. ">
<polygon fill="white" stroke="black" points="520,-174.5 520,-193.5 598,-193.5 598,-174.5 520,-174.5"/>
<text text-anchor="middle" x="559" y="-181.5" font-family="Helvetica,sans-Serif" font-size="10.00">odp/api/time.h</text>
</a>
</g>
</g>
<!-- Node18&#45;&gt;Node19 -->
<g id="edge24" class="edge"><title>Node18&#45;&gt;Node19</title>
<path fill="none" stroke="midnightblue" d="M572.708,-236.403C570.426,-227.849 566.853,-214.45 563.927,-203.476"/>
<polygon fill="midnightblue" stroke="midnightblue" points="567.247,-202.341 561.288,-193.581 560.483,-204.145 567.247,-202.341"/>
</g>
<!-- Node19&#45;&gt;Node5 -->
<g id="edge25" class="edge"><title>Node19&#45;&gt;Node5</title>
<path fill="none" stroke="midnightblue" d="M536.649,-174.403C510.005,-164.156 465.286,-146.956 434.986,-135.302"/>
<polygon fill="midnightblue" stroke="midnightblue" points="435.899,-131.904 425.31,-131.581 433.387,-138.437 435.899,-131.904"/>
</g>
<!-- Node20 -->
<g id="node21" class="node"><title>Node20</title>
<polygon fill="white" stroke="#bfbfbf" points="508,-112.5 508,-131.5 602,-131.5 602,-112.5 508,-112.5"/>
<text text-anchor="middle" x="555" y="-119.5" font-family="Helvetica,sans-Serif" font-size="10.00">odp/api/abi/time.h</text>
</g>
<!-- Node19&#45;&gt;Node20 -->
<g id="edge26" class="edge"><title>Node19&#45;&gt;Node20</title>
<path fill="none" stroke="midnightblue" d="M558.427,-174.403C557.863,-165.938 556.982,-152.728 556.255,-141.82"/>
<polygon fill="midnightblue" stroke="midnightblue" points="559.73,-141.326 555.572,-131.581 552.745,-141.791 559.73,-141.326"/>
</g>
<!-- Node21 -->
<g id="node22" class="node"><title>Node21</title>
<g id="a_node22"><a xlink:href="api_2spec_2time_8h.html" target="_top" xlink:title="ODP time. ">
<polygon fill="white" stroke="black" points="696,-56.5 696,-75.5 798,-75.5 798,-56.5 696,-56.5"/>
<text text-anchor="middle" x="747" y="-63.5" font-family="Helvetica,sans-Serif" font-size="10.00">odp/api/spec/time.h</text>
</a>
</g>
</g>
<!-- Node19&#45;&gt;Node21 -->
<g id="edge27" class="edge"><title>Node19&#45;&gt;Node21</title>
<path fill="none" stroke="midnightblue" d="M572.824,-174.47C605.011,-154.61 685.201,-105.131 724.53,-80.8643"/>
<polygon fill="midnightblue" stroke="midnightblue" points="726.483,-83.772 733.156,-75.5423 722.807,-77.8147 726.483,-83.772"/>
</g>
<!-- Node21&#45;&gt;Node4 -->
<g id="edge28" class="edge"><title>Node21&#45;&gt;Node4</title>
<path fill="none" stroke="midnightblue" d="M759.693,-56.324C771.901,-47.979 790.578,-35.2122 805.003,-25.3524"/>
<polygon fill="midnightblue" stroke="midnightblue" points="807.058,-28.1871 813.339,-19.6545 803.108,-22.4082 807.058,-28.1871"/>
</g>
<!-- Node21&#45;&gt;Node9 -->
<g id="edge29" class="edge"><title>Node21&#45;&gt;Node9</title>
<path fill="none" stroke="midnightblue" d="M798.201,-59.525C892.142,-49.4799 1091.57,-28.1549 1191.82,-17.4353"/>
<polygon fill="midnightblue" stroke="midnightblue" points="1192.22,-20.9127 1201.79,-16.3692 1191.47,-13.9524 1192.22,-20.9127"/>
</g>
<!-- Node22&#45;&gt;Node5 -->
<g id="edge33" class="edge"><title>Node22&#45;&gt;Node5</title>
<path fill="none" stroke="midnightblue" d="M652.895,-533.924C512.293,-523.321 76,-485.691 76,-427 76,-427 76,-427 76,-245 76,-188.875 247.232,-150.093 341.877,-132.944"/>
<polygon fill="midnightblue" stroke="midnightblue" points="342.676,-136.357 351.906,-131.156 341.447,-129.466 342.676,-136.357"/>
</g>
<!-- Node22&#45;&gt;Node11 -->
<g id="edge34" class="edge"><title>Node22&#45;&gt;Node11</title>
<path fill="none" stroke="midnightblue" d="M652.884,-533.968C551.603,-525.664 307,-498.236 307,-427 307,-427 307,-427 307,-369 307,-310.604 238.024,-275.626 192.697,-258.944"/>
<polygon fill="midnightblue" stroke="midnightblue" points="193.733,-255.598 183.138,-255.566 191.4,-262.198 193.733,-255.598"/>
</g>
<!-- Node22&#45;&gt;Node16 -->
<g id="edge36" class="edge"><title>Node22&#45;&gt;Node16</title>
<path fill="none" stroke="midnightblue" d="M676.704,-528.48C662.571,-521.081 644.443,-508.887 636,-492 632.025,-484.05 634.772,-480.804 636,-472 646.977,-393.291 678.567,-303.445 692.844,-265.477"/>
<polygon fill="midnightblue" stroke="midnightblue" points="696.237,-266.401 696.529,-255.811 689.696,-263.908 696.237,-266.401"/>
</g>
<!-- Node22&#45;&gt;Node17 -->
<g id="edge37" class="edge"><title>Node22&#45;&gt;Node17</title>
<path fill="none" stroke="midnightblue" d="M712.795,-528.404C726.224,-520.668 744.486,-508.059 755,-492 803.223,-418.346 812.709,-309.284 814.559,-265.847"/>
<polygon fill="midnightblue" stroke="midnightblue" points="818.057,-265.958 814.894,-255.846 811.061,-265.723 818.057,-265.958"/>
</g>
<!-- Node23 -->
<g id="node24" class="node"><title>Node23</title>
<polygon fill="white" stroke="#bfbfbf" points="645.5,-472.5 645.5,-491.5 746.5,-491.5 746.5,-472.5 645.5,-472.5"/>
<text text-anchor="middle" x="696" y="-479.5" font-family="Helvetica,sans-Serif" font-size="10.00">odp/api/abi/queue.h</text>
</g>
<!-- Node22&#45;&gt;Node23 -->
<g id="edge35" class="edge"><title>Node22&#45;&gt;Node23</title>
<path fill="none" stroke="midnightblue" d="M696,-528.083C696,-521.006 696,-510.861 696,-501.986"/>
<polygon fill="midnightblue" stroke="midnightblue" points="699.5,-501.751 696,-491.751 692.5,-501.751 699.5,-501.751"/>
</g>
<!-- Node24 -->
<g id="node25" class="node"><title>Node24</title>
<g id="a_node25"><a xlink:href="api_2spec_2queue_8h.html" target="_top" xlink:title="ODP queue. ">
<polygon fill="white" stroke="black" points="902,-472.5 902,-491.5 1012,-491.5 1012,-472.5 902,-472.5"/>
<text text-anchor="middle" x="957" y="-479.5" font-family="Helvetica,sans-Serif" font-size="10.00">odp/api/spec/queue.h</text>
</a>
</g>
</g>
<!-- Node22&#45;&gt;Node24 -->
<g id="edge38" class="edge"><title>Node22&#45;&gt;Node24</title>
<path fill="none" stroke="midnightblue" d="M737.356,-528.444C783.078,-518.984 856.764,-503.738 906.022,-493.547"/>
<polygon fill="midnightblue" stroke="midnightblue" points="906.754,-496.97 915.837,-491.516 905.336,-490.115 906.754,-496.97"/>
</g>
<!-- Node24&#45;&gt;Node4 -->
<g id="edge39" class="edge"><title>Node24&#45;&gt;Node4</title>
<path fill="none" stroke="midnightblue" d="M955.911,-472.411C953.298,-452.486 946.128,-401.641 936,-360 904.668,-231.179 851.321,-80.464 832.672,-29.1554"/>
<polygon fill="midnightblue" stroke="midnightblue" points="835.869,-27.7063 829.15,-19.5145 829.294,-30.1084 835.869,-27.7063"/>
</g>
<!-- Node24&#45;&gt;Node9 -->
<g id="edge57" class="edge"><title>Node24&#45;&gt;Node9</title>
<path fill="none" stroke="midnightblue" d="M989.128,-472.469C1065.8,-450.413 1260.54,-384.076 1361,-256 1401.58,-204.258 1409.65,-176.108 1395,-112 1388.85,-85.0635 1388.3,-74.749 1368,-56 1350.46,-39.7936 1326.43,-29.1921 1304.79,-22.3771"/>
<polygon fill="midnightblue" stroke="midnightblue" points="1305.63,-18.9757 1295.05,-19.5058 1303.65,-25.6902 1305.63,-18.9757"/>
</g>
<!-- Node24&#45;&gt;Node10 -->
<g id="edge40" class="edge"><title>Node24&#45;&gt;Node10</title>
<path fill="none" stroke="midnightblue" d="M943.665,-472.324C930.838,-463.979 911.215,-451.212 896.06,-441.352"/>
<polygon fill="midnightblue" stroke="midnightblue" points="897.593,-438.174 887.302,-435.655 893.776,-444.042 897.593,-438.174"/>
</g>
<!-- Node25 -->
<g id="node26" class="node"><title>Node25</title>
<g id="a_node26"><a xlink:href="queue__types_8h.html" target="_top" xlink:title="ODP queue types. ">
<polygon fill="white" stroke="black" points="1032.5,-293 1032.5,-323 1133.5,-323 1133.5,-293 1032.5,-293"/>
<text text-anchor="start" x="1040.5" y="-311" font-family="Helvetica,sans-Serif" font-size="10.00">odp/api/spec/queue</text>
<text text-anchor="middle" x="1083" y="-300" font-family="Helvetica,sans-Serif" font-size="10.00">_types.h</text>
</a>
</g>
</g>
<!-- Node24&#45;&gt;Node25 -->
<g id="edge41" class="edge"><title>Node24&#45;&gt;Node25</title>
<path fill="none" stroke="midnightblue" d="M963.422,-472.234C982.364,-446.376 1038.44,-369.831 1066.55,-331.459"/>
<polygon fill="midnightblue" stroke="midnightblue" points="1069.65,-333.147 1072.74,-323.012 1064,-329.01 1069.65,-333.147"/>
</g>
<!-- Node25&#45;&gt;Node4 -->
<g id="edge42" class="edge"><title>Node25&#45;&gt;Node4</title>
<path fill="none" stroke="midnightblue" d="M1070.6,-292.723C1027.67,-243.278 885.487,-79.5139 840.074,-27.2095"/>
<polygon fill="midnightblue" stroke="midnightblue" points="842.622,-24.8057 833.423,-19.5494 837.336,-29.395 842.622,-24.8057"/>
</g>
<!-- Node25&#45;&gt;Node9 -->
<g id="edge56" class="edge"><title>Node25&#45;&gt;Node9</title>
<path fill="none" stroke="midnightblue" d="M1080.83,-292.67C1077.53,-265.375 1074.35,-205.325 1103,-168 1118.82,-147.388 1303.69,-97.6886 1318,-76 1331.61,-55.3801 1305.12,-36.1027 1281.76,-23.9808"/>
<polygon fill="midnightblue" stroke="midnightblue" points="1283.24,-20.8093 1272.72,-19.5454 1280.16,-27.0932 1283.24,-20.8093"/>
</g>
<!-- Node25&#45;&gt;Node26 -->
<g id="edge43" class="edge"><title>Node25&#45;&gt;Node26</title>
<path fill="none" stroke="midnightblue" d="M1133.59,-299.218C1203.61,-288.445 1330.15,-268.977 1407.37,-257.096"/>
<polygon fill="midnightblue" stroke="midnightblue" points="1408.12,-260.523 1417.47,-255.543 1407.05,-253.605 1408.12,-260.523"/>
</g>
<!-- Node30 -->
<g id="node31" class="node"><title>Node30</title>
<g id="a_node31"><a xlink:href="deprecated_8h.html" target="_top" xlink:title="Control deprecated API definitions. ">
<polygon fill="white" stroke="black" points="954.5,-112.5 954.5,-131.5 1061.5,-131.5 1061.5,-112.5 954.5,-112.5"/>
<text text-anchor="middle" x="1008" y="-119.5" font-family="Helvetica,sans-Serif" font-size="10.00">odp/api/deprecated.h</text>
</a>
</g>
</g>
<!-- Node25&#45;&gt;Node30 -->
<g id="edge52" class="edge"><title>Node25&#45;&gt;Node30</title>
<path fill="none" stroke="midnightblue" d="M1077.24,-292.867C1063.82,-259.933 1030.46,-178.096 1015.48,-141.361"/>
<polygon fill="midnightblue" stroke="midnightblue" points="1018.64,-139.83 1011.62,-131.891 1012.16,-142.473 1018.64,-139.83"/>
</g>
<!-- Node26&#45;&gt;Node1 -->
<g id="edge44" class="edge"><title>Node26&#45;&gt;Node1</title>
<path fill="none" stroke="midnightblue" d="M1491.34,-236.403C1509.57,-227.86 1538.1,-214.483 1561.5,-203.517"/>
<polygon fill="midnightblue" stroke="midnightblue" points="1563.26,-206.554 1570.83,-199.141 1560.29,-200.216 1563.26,-206.554"/>
</g>
<!-- Node27 -->
<g id="node28" class="node"><title>Node27</title>
<g id="a_node28"><a xlink:href="api_2spec_2schedule__types_8h.html" target="_top" xlink:title="ODP schedule types. ">
<polygon fill="white" stroke="black" points="1416,-169 1416,-199 1530,-199 1530,-169 1416,-169"/>
<text text-anchor="start" x="1424" y="-187" font-family="Helvetica,sans-Serif" font-size="10.00">odp/api/spec/schedule</text>
<text text-anchor="middle" x="1473" y="-176" font-family="Helvetica,sans-Serif" font-size="10.00">_types.h</text>
</a>
</g>
</g>
<!-- Node26&#45;&gt;Node27 -->
<g id="edge45" class="edge"><title>Node26&#45;&gt;Node27</title>
<path fill="none" stroke="midnightblue" d="M1473,-236.403C1473,-229.341 1473,-218.975 1473,-209.399"/>
<polygon fill="midnightblue" stroke="midnightblue" points="1476.5,-209.141 1473,-199.141 1469.5,-209.141 1476.5,-209.141"/>
</g>
<!-- Node27&#45;&gt;Node4 -->
<g id="edge46" class="edge"><title>Node27&#45;&gt;Node4</title>
<path fill="none" stroke="midnightblue" d="M1417.62,-168.965C1380.03,-159.199 1329.31,-145.545 1285,-132 1184.87,-101.389 1163.23,-82.7606 1062,-56 1004.4,-40.7733 937.604,-28.5288 889.807,-20.6791"/>
<polygon fill="midnightblue" stroke="midnightblue" points="890.338,-17.2196 879.906,-19.0713 889.216,-24.1291 890.338,-17.2196"/>
</g>
<!-- Node27&#45;&gt;Node9 -->
<g id="edge51" class="edge"><title>Node27&#45;&gt;Node9</title>
<path fill="none" stroke="midnightblue" d="M1472.19,-168.836C1469.89,-142.584 1461.16,-86.2935 1428,-56 1396.82,-27.5135 1350.1,-16.5159 1312.63,-12.5053"/>
<polygon fill="midnightblue" stroke="midnightblue" points="1312.61,-8.98834 1302.33,-11.5506 1311.97,-15.9585 1312.61,-8.98834"/>
</g>
<!-- Node28 -->
<g id="node29" class="node"><title>Node28</title>
<g id="a_node29"><a xlink:href="support_8h.html" target="_top" xlink:title="ODP support API &#45; platform specific header. ">
<polygon fill="white" stroke="black" points="1294,-112.5 1294,-131.5 1386,-131.5 1386,-112.5 1294,-112.5"/>
<text text-anchor="middle" x="1340" y="-119.5" font-family="Helvetica,sans-Serif" font-size="10.00">odp/api/support.h</text>
</a>
</g>
</g>
<!-- Node27&#45;&gt;Node28 -->
<g id="edge47" class="edge"><title>Node27&#45;&gt;Node28</title>
<path fill="none" stroke="midnightblue" d="M1441.82,-168.933C1419.58,-158.9 1389.92,-145.519 1368.35,-135.789"/>
<polygon fill="midnightblue" stroke="midnightblue" points="1369.62,-132.522 1359.06,-131.6 1366.74,-138.903 1369.62,-132.522"/>
</g>
<!-- Node29 -->
<g id="node30" class="node"><title>Node29</title>
<g id="a_node30"><a xlink:href="spec_2support_8h.html" target="_top" xlink:title="ODP support API. ">
<polygon fill="white" stroke="black" points="1194,-56.5 1194,-75.5 1310,-75.5 1310,-56.5 1194,-56.5"/>
<text text-anchor="middle" x="1252" y="-63.5" font-family="Helvetica,sans-Serif" font-size="10.00">odp/api/spec/support.h</text>
</a>
</g>
</g>
<!-- Node28&#45;&gt;Node29 -->
<g id="edge48" class="edge"><title>Node28&#45;&gt;Node29</title>
<path fill="none" stroke="midnightblue" d="M1325.86,-112.324C1312.13,-103.9 1291.06,-90.9709 1274.94,-81.0741"/>
<polygon fill="midnightblue" stroke="midnightblue" points="1276.46,-77.9016 1266.1,-75.6545 1272.8,-83.8678 1276.46,-77.9016"/>
</g>
<!-- Node29&#45;&gt;Node4 -->
<g id="edge49" class="edge"><title>Node29&#45;&gt;Node4</title>
<path fill="none" stroke="midnightblue" d="M1193.66,-57.6048C1114.04,-47.5115 971.849,-29.488 889.582,-19.0597"/>
<polygon fill="midnightblue" stroke="midnightblue" points="889.97,-15.581 879.609,-17.7956 889.09,-22.5254 889.97,-15.581"/>
</g>
<!-- Node29&#45;&gt;Node9 -->
<g id="edge50" class="edge"><title>Node29&#45;&gt;Node9</title>
<path fill="none" stroke="midnightblue" d="M1252,-56.083C1252,-49.0059 1252,-38.8611 1252,-29.9865"/>
<polygon fill="midnightblue" stroke="midnightblue" points="1255.5,-29.751 1252,-19.7511 1248.5,-29.7511 1255.5,-29.751"/>
</g>
<!-- Node31 -->
<g id="node32" class="node"><title>Node31</title>
<g id="a_node32"><a xlink:href="spec_2deprecated_8h.html" target="_top" xlink:title="Macro for deprecated API definitions. ">
<polygon fill="white" stroke="black" points="892.5,-56.5 892.5,-75.5 1023.5,-75.5 1023.5,-56.5 892.5,-56.5"/>
<text text-anchor="middle" x="958" y="-63.5" font-family="Helvetica,sans-Serif" font-size="10.00">odp/api/spec/deprecated.h</text>
</a>
</g>
</g>
<!-- Node30&#45;&gt;Node31 -->
<g id="edge53" class="edge"><title>Node30&#45;&gt;Node31</title>
<path fill="none" stroke="midnightblue" d="M999.744,-112.083C992.535,-104.298 981.89,-92.8015 973.154,-83.3665"/>
<polygon fill="midnightblue" stroke="midnightblue" points="975.465,-80.7108 966.103,-75.7511 970.329,-85.4666 975.465,-80.7108"/>
</g>
<!-- Node31&#45;&gt;Node4 -->
<g id="edge54" class="edge"><title>Node31&#45;&gt;Node4</title>
<path fill="none" stroke="midnightblue" d="M937.084,-56.4435C915.264,-47.5171 880.85,-33.4387 856.108,-23.3168"/>
<polygon fill="midnightblue" stroke="midnightblue" points="857.399,-20.0634 846.818,-19.5164 854.748,-26.5422 857.399,-20.0634"/>
</g>
<!-- Node31&#45;&gt;Node9 -->
<g id="edge55" class="edge"><title>Node31&#45;&gt;Node9</title>
<path fill="none" stroke="midnightblue" d="M1004.59,-56.4435C1056.41,-46.9246 1140.13,-31.5472 1195.62,-21.3563"/>
<polygon fill="midnightblue" stroke="midnightblue" points="1196.43,-24.7654 1205.63,-19.5164 1195.16,-17.8806 1196.43,-24.7654"/>
</g>
<!-- Node33 -->
<g id="node34" class="node"><title>Node33</title>
<polygon fill="white" stroke="#bfbfbf" points="1250,-174.5 1250,-193.5 1360,-193.5 1360,-174.5 1250,-174.5"/>
<text text-anchor="middle" x="1305" y="-181.5" font-family="Helvetica,sans-Serif" font-size="10.00">odp/api/abi/thrmask.h</text>
</g>
<!-- Node32&#45;&gt;Node33 -->
<g id="edge60" class="edge"><title>Node32&#45;&gt;Node33</title>
<path fill="none" stroke="midnightblue" d="M1305,-236.403C1305,-227.938 1305,-214.728 1305,-203.82"/>
<polygon fill="midnightblue" stroke="midnightblue" points="1308.5,-203.581 1305,-193.581 1301.5,-203.581 1308.5,-203.581"/>
</g>
<!-- Node34 -->
<g id="node35" class="node"><title>Node34</title>
<g id="a_node35"><a xlink:href="api_2spec_2thrmask_8h.html" target="_top" xlink:title="ODP thread masks. ">
<polygon fill="white" stroke="black" points="1112.5,-174.5 1112.5,-193.5 1231.5,-193.5 1231.5,-174.5 1112.5,-174.5"/>
<text text-anchor="middle" x="1172" y="-181.5" font-family="Helvetica,sans-Serif" font-size="10.00">odp/api/spec/thrmask.h</text>
</a>
</g>
</g>
<!-- Node32&#45;&gt;Node34 -->
<g id="edge61" class="edge"><title>Node32&#45;&gt;Node34</title>
<path fill="none" stroke="midnightblue" d="M1285.94,-236.403C1263.53,-226.29 1226.09,-209.404 1200.29,-197.761"/>
<polygon fill="midnightblue" stroke="midnightblue" points="1201.57,-194.502 1191.02,-193.581 1198.7,-200.883 1201.57,-194.502"/>
</g>
<!-- Node34&#45;&gt;Node4 -->
<g id="edge62" class="edge"><title>Node34&#45;&gt;Node4</title>
<path fill="none" stroke="midnightblue" d="M1165.21,-174.243C1146.65,-150.949 1092.38,-87.1216 1032,-56 987.66,-33.1464 932.158,-21.8724 889.939,-16.3256"/>
<polygon fill="midnightblue" stroke="midnightblue" points="890.135,-12.8232 879.781,-15.0672 889.274,-19.7701 890.135,-12.8232"/>
</g>
<!-- Node34&#45;&gt;Node5 -->
<g id="edge63" class="edge"><title>Node34&#45;&gt;Node5</title>
<path fill="none" stroke="midnightblue" d="M1112.1,-178.821C994.51,-170.538 725.216,-151.174 499,-132 487.776,-131.049 475.82,-129.976 464.292,-128.911"/>
<polygon fill="midnightblue" stroke="midnightblue" points="464.583,-125.423 454.301,-127.98 463.933,-132.392 464.583,-125.423"/>
</g>
<!-- Node34&#45;&gt;Node9 -->
<g id="edge64" class="edge"><title>Node34&#45;&gt;Node9</title>
<path fill="none" stroke="midnightblue" d="M1185.04,-174.399C1205.9,-160.74 1248.15,-133.442 1285,-112 1314.22,-94.998 1334.65,-105.014 1352,-76 1367.41,-50.2306 1333.28,-32.8 1300.79,-22.5292"/>
<polygon fill="midnightblue" stroke="midnightblue" points="1301.4,-19.0589 1290.81,-19.5703 1299.4,-25.7698 1301.4,-19.0589"/>
</g>
</g>
</svg>
