<?xml version="1.0" encoding="UTF-8" standalone="no"?>
<!DOCTYPE svg PUBLIC "-//W3C//DTD SVG 1.1//EN"
 "http://www.w3.org/Graphics/SVG/1.1/DTD/svg11.dtd">
<!-- Generated by graphviz version 2.36.0 (20140111.2315)
 -->
<!-- Title: packet.h Pages: 1 -->
<svg width="744pt" height="308pt"
 viewBox="0.00 0.00 744.00 308.00" xmlns="http://www.w3.org/2000/svg" xmlns:xlink="http://www.w3.org/1999/xlink">
<g id="graph0" class="graph" transform="scale(1 1) rotate(0) translate(4 304)">
<title>packet.h</title>
<polygon fill="white" stroke="none" points="-4,4 -4,-304 740,-304 740,4 -4,4"/>
<!-- Node0 -->
<g id="node1" class="node"><title>Node0</title>
<polygon fill="#bfbfbf" stroke="black" points="299,-280.5 299,-299.5 353,-299.5 353,-280.5 299,-280.5"/>
<text text-anchor="middle" x="326" y="-287.5" font-family="Helvetica,sans-Serif" font-size="10.00">packet.h</text>
</g>
<!-- Node1 -->
<g id="node2" class="node"><title>Node1</title>
<g id="a_node2"><a xlink:href="api_2std__types_8h.html" target="_top" xlink:title="Standard C language types and definitions for ODP. ">
<polygon fill="white" stroke="black" points="47,-112.5 47,-131.5 149,-131.5 149,-112.5 47,-112.5"/>
<text text-anchor="middle" x="98" y="-119.5" font-family="Helvetica,sans-Serif" font-size="10.00">odp/api/std_types.h</text>
</a>
</g>
</g>
<!-- Node0&#45;&gt;Node1 -->
<g id="edge1" class="edge"><title>Node0&#45;&gt;Node1</title>
<path fill="none" stroke="midnightblue" d="M298.826,-289.454C229.229,-289.979 47.4065,-287.111 10,-244 -21.5661,-207.62 38.7668,-160.459 74.4289,-137.222"/>
<polygon fill="midnightblue" stroke="midnightblue" points="76.7421,-139.9 83.3152,-131.59 72.995,-133.987 76.7421,-139.9"/>
</g>
<!-- Node7 -->
<g id="node8" class="node"><title>Node7</title>
<polygon fill="white" stroke="#bfbfbf" points="150.5,-224.5 150.5,-243.5 249.5,-243.5 249.5,-224.5 150.5,-224.5"/>
<text text-anchor="middle" x="200" y="-231.5" font-family="Helvetica,sans-Serif" font-size="10.00">odp/api/abi/event.h</text>
</g>
<!-- Node0&#45;&gt;Node7 -->
<g id="edge7" class="edge"><title>Node0&#45;&gt;Node7</title>
<path fill="none" stroke="midnightblue" d="M306.035,-280.444C285.391,-271.596 252.937,-257.687 229.368,-247.586"/>
<polygon fill="midnightblue" stroke="midnightblue" points="230.442,-244.239 219.872,-243.516 227.684,-250.673 230.442,-244.239"/>
</g>
<!-- Node8 -->
<g id="node9" class="node"><title>Node8</title>
<polygon fill="white" stroke="#bfbfbf" points="267.5,-224.5 267.5,-243.5 384.5,-243.5 384.5,-224.5 267.5,-224.5"/>
<text text-anchor="middle" x="326" y="-231.5" font-family="Helvetica,sans-Serif" font-size="10.00">odp/api/abi/packet_io.h</text>
</g>
<!-- Node0&#45;&gt;Node8 -->
<g id="edge8" class="edge"><title>Node0&#45;&gt;Node8</title>
<path fill="none" stroke="midnightblue" d="M326,-280.083C326,-273.006 326,-262.861 326,-253.986"/>
<polygon fill="midnightblue" stroke="midnightblue" points="329.5,-253.751 326,-243.751 322.5,-253.751 329.5,-253.751"/>
</g>
<!-- Node9 -->
<g id="node10" class="node"><title>Node9</title>
<polygon fill="white" stroke="#bfbfbf" points="403,-224.5 403,-243.5 507,-243.5 507,-224.5 403,-224.5"/>
<text text-anchor="middle" x="455" y="-231.5" font-family="Helvetica,sans-Serif" font-size="10.00">odp/api/abi/packet.h</text>
</g>
<!-- Node0&#45;&gt;Node9 -->
<g id="edge9" class="edge"><title>Node0&#45;&gt;Node9</title>
<path fill="none" stroke="midnightblue" d="M346.44,-280.444C367.67,-271.557 401.099,-257.563 425.255,-247.451"/>
<polygon fill="midnightblue" stroke="midnightblue" points="426.782,-250.606 434.655,-243.516 424.079,-244.149 426.782,-250.606"/>
</g>
<!-- Node10 -->
<g id="node11" class="node"><title>Node10</title>
<polygon fill="white" stroke="#bfbfbf" points="525,-224.5 525,-243.5 625,-243.5 625,-224.5 525,-224.5"/>
<text text-anchor="middle" x="575" y="-231.5" font-family="Helvetica,sans-Serif" font-size="10.00">odp/api/abi/buffer.h</text>
</g>
<!-- Node0&#45;&gt;Node10 -->
<g id="edge10" class="edge"><title>Node0&#45;&gt;Node10</title>
<path fill="none" stroke="midnightblue" d="M353.121,-283.118C394.48,-274.149 473.956,-256.913 525.707,-245.69"/>
<polygon fill="midnightblue" stroke="midnightblue" points="526.637,-249.07 535.668,-243.53 525.153,-242.229 526.637,-249.07"/>
</g>
<!-- Node11 -->
<g id="node12" class="node"><title>Node11</title>
<polygon fill="white" stroke="#bfbfbf" points="643.5,-224.5 643.5,-243.5 736.5,-243.5 736.5,-224.5 643.5,-224.5"/>
<text text-anchor="middle" x="690" y="-231.5" font-family="Helvetica,sans-Serif" font-size="10.00">odp/api/abi/pool.h</text>
</g>
<!-- Node0&#45;&gt;Node11 -->
<g id="edge11" class="edge"><title>Node0&#45;&gt;Node11</title>
<path fill="none" stroke="midnightblue" d="M353.212,-285.157C405.355,-277.765 523.201,-260.922 633.31,-244.087"/>
<polygon fill="midnightblue" stroke="midnightblue" points="633.902,-247.538 643.257,-242.563 632.842,-240.618 633.902,-247.538"/>
</g>
<!-- Node12 -->
<g id="node13" class="node"><title>Node12</title>
<g id="a_node13"><a xlink:href="api_2spec_2packet_8h.html" target="_top" xlink:title="ODP packet descriptor. ">
<polygon fill="white" stroke="black" points="19.5,-224.5 19.5,-243.5 132.5,-243.5 132.5,-224.5 19.5,-224.5"/>
<text text-anchor="middle" x="76" y="-231.5" font-family="Helvetica,sans-Serif" font-size="10.00">odp/api/spec/packet.h</text>
</a>
</g>
</g>
<!-- Node0&#45;&gt;Node12 -->
<g id="edge12" class="edge"><title>Node0&#45;&gt;Node12</title>
<path fill="none" stroke="midnightblue" d="M298.77,-283.118C257.245,-274.149 177.45,-256.913 125.491,-245.69"/>
<polygon fill="midnightblue" stroke="midnightblue" points="126.004,-242.22 115.49,-243.53 124.526,-249.062 126.004,-242.22"/>
</g>
<!-- Node2 -->
<g id="node3" class="node"><title>Node2</title>
<polygon fill="white" stroke="#bfbfbf" points="179,-56.5 179,-75.5 297,-75.5 297,-56.5 179,-56.5"/>
<text text-anchor="middle" x="238" y="-63.5" font-family="Helvetica,sans-Serif" font-size="10.00">odp/api/abi/std_types.h</text>
</g>
<!-- Node1&#45;&gt;Node2 -->
<g id="edge2" class="edge"><title>Node1&#45;&gt;Node2</title>
<path fill="none" stroke="midnightblue" d="M120.183,-112.444C143.428,-103.478 180.149,-89.314 206.415,-79.1827"/>
<polygon fill="midnightblue" stroke="midnightblue" points="207.85,-82.3807 215.92,-75.5164 205.331,-75.8497 207.85,-82.3807"/>
</g>
<!-- Node3 -->
<g id="node4" class="node"><title>Node3</title>
<g id="a_node4"><a xlink:href="api_2spec_2std__types_8h.html" target="_top" xlink:title="Standard C language types and definitions for ODP. ">
<polygon fill="white" stroke="black" points="35,-56.5 35,-75.5 161,-75.5 161,-56.5 35,-56.5"/>
<text text-anchor="middle" x="98" y="-63.5" font-family="Helvetica,sans-Serif" font-size="10.00">odp/api/spec/std_types.h</text>
</a>
</g>
</g>
<!-- Node1&#45;&gt;Node3 -->
<g id="edge3" class="edge"><title>Node1&#45;&gt;Node3</title>
<path fill="none" stroke="midnightblue" d="M98,-112.083C98,-105.006 98,-94.8611 98,-85.9865"/>
<polygon fill="midnightblue" stroke="midnightblue" points="101.5,-85.751 98,-75.7511 94.5001,-85.7511 101.5,-85.751"/>
</g>
<!-- Node4 -->
<g id="node5" class="node"><title>Node4</title>
<g id="a_node5"><a xlink:href="visibility__begin_8h_source.html" target="_top" xlink:title="odp/visibility_begin.h">
<polygon fill="white" stroke="black" points="-0.5,-0.5 -0.5,-19.5 106.5,-19.5 106.5,-0.5 -0.5,-0.5"/>
<text text-anchor="middle" x="53" y="-7.5" font-family="Helvetica,sans-Serif" font-size="10.00">odp/visibility_begin.h</text>
</a>
</g>
</g>
<!-- Node3&#45;&gt;Node4 -->
<g id="edge4" class="edge"><title>Node3&#45;&gt;Node4</title>
<path fill="none" stroke="midnightblue" d="M90.5692,-56.083C84.1473,-48.3768 74.6944,-37.0333 66.8775,-27.6531"/>
<polygon fill="midnightblue" stroke="midnightblue" points="69.3832,-25.1927 60.2926,-19.7511 64.0057,-29.674 69.3832,-25.1927"/>
</g>
<!-- Node5 -->
<g id="node6" class="node"><title>Node5</title>
<polygon fill="white" stroke="#bfbfbf" points="124.5,-0.5 124.5,-19.5 173.5,-19.5 173.5,-0.5 124.5,-0.5"/>
<text text-anchor="middle" x="149" y="-7.5" font-family="Helvetica,sans-Serif" font-size="10.00">stdint.h</text>
</g>
<!-- Node3&#45;&gt;Node5 -->
<g id="edge5" class="edge"><title>Node3&#45;&gt;Node5</title>
<path fill="none" stroke="midnightblue" d="M106.422,-56.083C113.848,-48.2195 124.852,-36.5688 133.812,-27.0813"/>
<polygon fill="midnightblue" stroke="midnightblue" points="136.413,-29.4244 140.735,-19.7511 131.324,-24.618 136.413,-29.4244"/>
</g>
<!-- Node6 -->
<g id="node7" class="node"><title>Node6</title>
<g id="a_node7"><a xlink:href="visibility__end_8h_source.html" target="_top" xlink:title="odp/visibility_end.h">
<polygon fill="white" stroke="black" points="316,-0.5 316,-19.5 416,-19.5 416,-0.5 316,-0.5"/>
<text text-anchor="middle" x="366" y="-7.5" font-family="Helvetica,sans-Serif" font-size="10.00">odp/visibility_end.h</text>
</a>
</g>
</g>
<!-- Node3&#45;&gt;Node6 -->
<g id="edge6" class="edge"><title>Node3&#45;&gt;Node6</title>
<path fill="none" stroke="midnightblue" d="M140.465,-56.4435C187.413,-46.9839 263.076,-31.7384 313.654,-21.5472"/>
<polygon fill="midnightblue" stroke="midnightblue" points="314.622,-24.9228 323.733,-19.5164 313.239,-18.0607 314.622,-24.9228"/>
</g>
<!-- Node12&#45;&gt;Node4 -->
<g id="edge13" class="edge"><title>Node12&#45;&gt;Node4</title>
<path fill="none" stroke="midnightblue" d="M71.8914,-224.418C61.0793,-201.192 32.2382,-134.885 26,-76 25.0635,-67.1606 23.6273,-64.5664 26,-56 28.7919,-45.9205 34.5091,-35.832 39.9668,-27.7694"/>
<polygon fill="midnightblue" stroke="midnightblue" points="42.8249,-29.7899 45.8485,-19.6357 37.1526,-25.6881 42.8249,-29.7899"/>
</g>
<!-- Node12&#45;&gt;Node6 -->
<g id="edge20" class="edge"><title>Node12&#45;&gt;Node6</title>
<path fill="none" stroke="midnightblue" d="M105.155,-224.425C182.287,-201.084 388.301,-134.251 425,-76 437.384,-56.3433 414.098,-37.0484 393.233,-24.6545"/>
<polygon fill="midnightblue" stroke="midnightblue" points="394.687,-21.4577 384.252,-19.6268 391.268,-27.5657 394.687,-21.4577"/>
</g>
<!-- Node13 -->
<g id="node14" class="node"><title>Node13</title>
<g id="a_node14"><a xlink:href="api_2time_8h.html" target="_top" xlink:title="ODP time. ">
<polygon fill="white" stroke="black" points="98,-168.5 98,-187.5 176,-187.5 176,-168.5 98,-168.5"/>
<text text-anchor="middle" x="137" y="-175.5" font-family="Helvetica,sans-Serif" font-size="10.00">odp/api/time.h</text>
</a>
</g>
</g>
<!-- Node12&#45;&gt;Node13 -->
<g id="edge14" class="edge"><title>Node12&#45;&gt;Node13</title>
<path fill="none" stroke="midnightblue" d="M85.8007,-224.324C94.8181,-216.341 108.406,-204.313 119.318,-194.653"/>
<polygon fill="midnightblue" stroke="midnightblue" points="121.853,-197.083 127.021,-187.834 117.213,-191.842 121.853,-197.083"/>
</g>
<!-- Node13&#45;&gt;Node1 -->
<g id="edge15" class="edge"><title>Node13&#45;&gt;Node1</title>
<path fill="none" stroke="midnightblue" d="M130.56,-168.083C125.051,-160.455 116.969,-149.264 110.235,-139.941"/>
<polygon fill="midnightblue" stroke="midnightblue" points="113.013,-137.809 104.32,-131.751 107.338,-141.907 113.013,-137.809"/>
</g>
<!-- Node14 -->
<g id="node15" class="node"><title>Node14</title>
<polygon fill="white" stroke="#bfbfbf" points="205,-112.5 205,-131.5 299,-131.5 299,-112.5 205,-112.5"/>
<text text-anchor="middle" x="252" y="-119.5" font-family="Helvetica,sans-Serif" font-size="10.00">odp/api/abi/time.h</text>
</g>
<!-- Node13&#45;&gt;Node14 -->
<g id="edge16" class="edge"><title>Node13&#45;&gt;Node14</title>
<path fill="none" stroke="midnightblue" d="M155.222,-168.444C173.896,-159.675 203.156,-145.935 224.617,-135.858"/>
<polygon fill="midnightblue" stroke="midnightblue" points="226.299,-138.935 233.863,-131.516 223.324,-132.599 226.299,-138.935"/>
</g>
<!-- Node15 -->
<g id="node16" class="node"><title>Node15</title>
<g id="a_node16"><a xlink:href="api_2spec_2time_8h.html" target="_top" xlink:title="ODP time. ">
<polygon fill="white" stroke="black" points="315,-56.5 315,-75.5 417,-75.5 417,-56.5 315,-56.5"/>
<text text-anchor="middle" x="366" y="-63.5" font-family="Helvetica,sans-Serif" font-size="10.00">odp/api/spec/time.h</text>
</a>
</g>
</g>
<!-- Node13&#45;&gt;Node15 -->
<g id="edge17" class="edge"><title>Node13&#45;&gt;Node15</title>
<path fill="none" stroke="midnightblue" d="M142.388,-168.381C151.608,-154.366 171.778,-126.726 196,-112 215.563,-100.107 270.55,-86.7039 312.742,-77.6423"/>
<polygon fill="midnightblue" stroke="midnightblue" points="313.56,-81.0467 322.618,-75.5497 312.109,-74.1987 313.56,-81.0467"/>
</g>
<!-- Node15&#45;&gt;Node4 -->
<g id="edge18" class="edge"><title>Node15&#45;&gt;Node4</title>
<path fill="none" stroke="midnightblue" d="M316.404,-56.4435C261.001,-46.8851 171.357,-31.4195 112.295,-21.2298"/>
<polygon fill="midnightblue" stroke="midnightblue" points="112.813,-17.7676 102.364,-19.5164 111.623,-24.6657 112.813,-17.7676"/>
</g>
<!-- Node15&#45;&gt;Node6 -->
<g id="edge19" class="edge"><title>Node15&#45;&gt;Node6</title>
<path fill="none" stroke="midnightblue" d="M366,-56.083C366,-49.0059 366,-38.8611 366,-29.9865"/>
<polygon fill="midnightblue" stroke="midnightblue" points="369.5,-29.751 366,-19.7511 362.5,-29.7511 369.5,-29.751"/>
</g>
</g>
</svg>
