<?xml version="1.0" encoding="UTF-8" standalone="no"?>
<!DOCTYPE svg PUBLIC "-//W3C//DTD SVG 1.1//EN"
 "http://www.w3.org/Graphics/SVG/1.1/DTD/svg11.dtd">
<!-- Generated by graphviz version 2.36.0 (20140111.2315)
 -->
<!-- Title: event.h Pages: 1 -->
<svg width="986pt" height="420pt"
 viewBox="0.00 0.00 986.00 420.00" xmlns="http://www.w3.org/2000/svg" xmlns:xlink="http://www.w3.org/1999/xlink">
<g id="graph0" class="graph" transform="scale(1 1) rotate(0) translate(4 416)">
<title>event.h</title>
<polygon fill="white" stroke="none" points="-4,4 -4,-416 982,-416 982,4 -4,4"/>
<!-- Node0 -->
<g id="node1" class="node"><title>Node0</title>
<polygon fill="#bfbfbf" stroke="black" points="148.5,-392.5 148.5,-411.5 197.5,-411.5 197.5,-392.5 148.5,-392.5"/>
<text text-anchor="middle" x="173" y="-399.5" font-family="Helvetica,sans-Serif" font-size="10.00">event.h</text>
</g>
<!-- Node1 -->
<g id="node2" class="node"><title>Node1</title>
<polygon fill="white" stroke="#bfbfbf" points="-0.5,-224.5 -0.5,-243.5 98.5,-243.5 98.5,-224.5 -0.5,-224.5"/>
<text text-anchor="middle" x="49" y="-231.5" font-family="Helvetica,sans-Serif" font-size="10.00">odp/api/abi/event.h</text>
</g>
<!-- Node0&#45;&gt;Node1 -->
<g id="edge1" class="edge"><title>Node0&#45;&gt;Node1</title>
<path fill="none" stroke="midnightblue" d="M166.333,-392.075C146.477,-365.493 87.4982,-286.538 61.522,-251.763"/>
<polygon fill="midnightblue" stroke="midnightblue" points="64.1889,-249.485 55.4003,-243.568 58.5808,-253.674 64.1889,-249.485"/>
</g>
<!-- Node2 -->
<g id="node3" class="node"><title>Node2</title>
<g id="a_node3"><a xlink:href="api_2spec_2event_8h.html" target="_top" xlink:title="ODP event. ">
<polygon fill="white" stroke="black" points="223.5,-336.5 223.5,-355.5 330.5,-355.5 330.5,-336.5 223.5,-336.5"/>
<text text-anchor="middle" x="277" y="-343.5" font-family="Helvetica,sans-Serif" font-size="10.00">odp/api/spec/event.h</text>
</a>
</g>
</g>
<!-- Node0&#45;&gt;Node2 -->
<g id="edge2" class="edge"><title>Node0&#45;&gt;Node2</title>
<path fill="none" stroke="midnightblue" d="M189.709,-392.324C206.312,-383.703 232.002,-370.364 251.22,-360.386"/>
<polygon fill="midnightblue" stroke="midnightblue" points="253.07,-363.369 260.332,-355.655 249.844,-357.156 253.07,-363.369"/>
</g>
<!-- Node3 -->
<g id="node4" class="node"><title>Node3</title>
<g id="a_node4"><a xlink:href="visibility__begin_8h_source.html" target="_top" xlink:title="odp/visibility_begin.h">
<polygon fill="white" stroke="black" points="846.5,-0.5 846.5,-19.5 953.5,-19.5 953.5,-0.5 846.5,-0.5"/>
<text text-anchor="middle" x="900" y="-7.5" font-family="Helvetica,sans-Serif" font-size="10.00">odp/visibility_begin.h</text>
</a>
</g>
</g>
<!-- Node2&#45;&gt;Node3 -->
<g id="edge3" class="edge"><title>Node2&#45;&gt;Node3</title>
<path fill="none" stroke="midnightblue" d="M330.553,-342.236C494.422,-333.073 978,-300.484 978,-235 978,-235 978,-235 978,-121 978,-80.967 943.198,-45.3355 920.087,-26.0874"/>
<polygon fill="midnightblue" stroke="midnightblue" points="922.18,-23.2799 912.188,-19.7595 917.804,-28.7432 922.18,-23.2799"/>
</g>
<!-- Node4 -->
<g id="node5" class="node"><title>Node4</title>
<g id="a_node5"><a xlink:href="api_2packet_8h.html" target="_top" xlink:title="ODP packet descriptor. ">
<polygon fill="white" stroke="black" points="358.5,-280.5 358.5,-299.5 447.5,-299.5 447.5,-280.5 358.5,-280.5"/>
<text text-anchor="middle" x="403" y="-287.5" font-family="Helvetica,sans-Serif" font-size="10.00">odp/api/packet.h</text>
</a>
</g>
</g>
<!-- Node2&#45;&gt;Node4 -->
<g id="edge4" class="edge"><title>Node2&#45;&gt;Node4</title>
<path fill="none" stroke="midnightblue" d="M296.965,-336.444C317.609,-327.596 350.063,-313.687 373.632,-303.586"/>
<polygon fill="midnightblue" stroke="midnightblue" points="375.316,-306.673 383.128,-299.516 372.558,-300.239 375.316,-306.673"/>
</g>
<!-- Node9 -->
<g id="node10" class="node"><title>Node9</title>
<g id="a_node10"><a xlink:href="visibility__end_8h_source.html" target="_top" xlink:title="odp/visibility_end.h">
<polygon fill="white" stroke="black" points="452,-0.5 452,-19.5 552,-19.5 552,-0.5 452,-0.5"/>
<text text-anchor="middle" x="502" y="-7.5" font-family="Helvetica,sans-Serif" font-size="10.00">odp/visibility_end.h</text>
</a>
</g>
</g>
<!-- Node2&#45;&gt;Node9 -->
<g id="edge25" class="edge"><title>Node2&#45;&gt;Node9</title>
<path fill="none" stroke="midnightblue" d="M243.337,-336.483C199.112,-323.036 127,-292.321 127,-235 127,-235 127,-235 127,-121 127,-56.242 335.513,-26.8974 441.572,-16.1599"/>
<polygon fill="midnightblue" stroke="midnightblue" points="442.207,-19.6142 451.815,-15.1485 441.519,-12.6481 442.207,-19.6142"/>
</g>
<!-- Node4&#45;&gt;Node1 -->
<g id="edge11" class="edge"><title>Node4&#45;&gt;Node1</title>
<path fill="none" stroke="midnightblue" d="M358.166,-282.161C294.86,-272.504 179.149,-254.853 108.648,-244.099"/>
<polygon fill="midnightblue" stroke="midnightblue" points="109,-240.612 98.5862,-242.564 107.944,-247.532 109,-240.612"/>
</g>
<!-- Node5 -->
<g id="node6" class="node"><title>Node5</title>
<g id="a_node6"><a xlink:href="api_2std__types_8h.html" target="_top" xlink:title="Standard C language types and definitions for ODP. ">
<polygon fill="white" stroke="black" points="615,-112.5 615,-131.5 717,-131.5 717,-112.5 615,-112.5"/>
<text text-anchor="middle" x="666" y="-119.5" font-family="Helvetica,sans-Serif" font-size="10.00">odp/api/std_types.h</text>
</a>
</g>
</g>
<!-- Node4&#45;&gt;Node5 -->
<g id="edge5" class="edge"><title>Node4&#45;&gt;Node5</title>
<path fill="none" stroke="midnightblue" d="M447.656,-285.793C506.772,-280.642 606.625,-268.515 633,-244 661.619,-217.399 666.331,-168.638 666.59,-141.853"/>
<polygon fill="midnightblue" stroke="midnightblue" points="670.086,-141.51 666.475,-131.55 663.087,-141.588 670.086,-141.51"/>
</g>
<!-- Node10 -->
<g id="node11" class="node"><title>Node10</title>
<polygon fill="white" stroke="#bfbfbf" points="155.5,-224.5 155.5,-243.5 272.5,-243.5 272.5,-224.5 155.5,-224.5"/>
<text text-anchor="middle" x="214" y="-231.5" font-family="Helvetica,sans-Serif" font-size="10.00">odp/api/abi/packet_io.h</text>
</g>
<!-- Node4&#45;&gt;Node10 -->
<g id="edge12" class="edge"><title>Node4&#45;&gt;Node10</title>
<path fill="none" stroke="midnightblue" d="M373.052,-280.444C340.842,-271.241 289.466,-256.562 253.858,-246.388"/>
<polygon fill="midnightblue" stroke="midnightblue" points="254.384,-242.898 243.808,-243.516 252.461,-249.629 254.384,-242.898"/>
</g>
<!-- Node11 -->
<g id="node12" class="node"><title>Node11</title>
<polygon fill="white" stroke="#bfbfbf" points="291,-224.5 291,-243.5 395,-243.5 395,-224.5 291,-224.5"/>
<text text-anchor="middle" x="343" y="-231.5" font-family="Helvetica,sans-Serif" font-size="10.00">odp/api/abi/packet.h</text>
</g>
<!-- Node4&#45;&gt;Node11 -->
<g id="edge13" class="edge"><title>Node4&#45;&gt;Node11</title>
<path fill="none" stroke="midnightblue" d="M393.36,-280.324C384.49,-272.341 371.125,-260.313 360.392,-250.653"/>
<polygon fill="midnightblue" stroke="midnightblue" points="362.59,-247.922 352.815,-243.834 357.907,-253.125 362.59,-247.922"/>
</g>
<!-- Node12 -->
<g id="node13" class="node"><title>Node12</title>
<polygon fill="white" stroke="#bfbfbf" points="413,-224.5 413,-243.5 513,-243.5 513,-224.5 413,-224.5"/>
<text text-anchor="middle" x="463" y="-231.5" font-family="Helvetica,sans-Serif" font-size="10.00">odp/api/abi/buffer.h</text>
</g>
<!-- Node4&#45;&gt;Node12 -->
<g id="edge14" class="edge"><title>Node4&#45;&gt;Node12</title>
<path fill="none" stroke="midnightblue" d="M412.64,-280.324C421.51,-272.341 434.875,-260.313 445.608,-250.653"/>
<polygon fill="midnightblue" stroke="midnightblue" points="448.093,-253.125 453.185,-243.834 443.41,-247.922 448.093,-253.125"/>
</g>
<!-- Node13 -->
<g id="node14" class="node"><title>Node13</title>
<polygon fill="white" stroke="#bfbfbf" points="531.5,-224.5 531.5,-243.5 624.5,-243.5 624.5,-224.5 531.5,-224.5"/>
<text text-anchor="middle" x="578" y="-231.5" font-family="Helvetica,sans-Serif" font-size="10.00">odp/api/abi/pool.h</text>
</g>
<!-- Node4&#45;&gt;Node13 -->
<g id="edge15" class="edge"><title>Node4&#45;&gt;Node13</title>
<path fill="none" stroke="midnightblue" d="M430.729,-280.444C460.426,-271.28 507.716,-256.688 540.669,-246.519"/>
<polygon fill="midnightblue" stroke="midnightblue" points="541.877,-249.809 550.4,-243.516 539.813,-243.121 541.877,-249.809"/>
</g>
<!-- Node14 -->
<g id="node15" class="node"><title>Node14</title>
<g id="a_node15"><a xlink:href="api_2spec_2packet_8h.html" target="_top" xlink:title="ODP packet descriptor. ">
<polygon fill="white" stroke="black" points="691.5,-224.5 691.5,-243.5 804.5,-243.5 804.5,-224.5 691.5,-224.5"/>
<text text-anchor="middle" x="748" y="-231.5" font-family="Helvetica,sans-Serif" font-size="10.00">odp/api/spec/packet.h</text>
</a>
</g>
</g>
<!-- Node4&#45;&gt;Node14 -->
<g id="edge16" class="edge"><title>Node4&#45;&gt;Node14</title>
<path fill="none" stroke="midnightblue" d="M447.749,-281.996C507.752,-272.604 614.672,-255.869 683.403,-245.111"/>
<polygon fill="midnightblue" stroke="midnightblue" points="684.336,-248.508 693.674,-243.503 683.253,-241.592 684.336,-248.508"/>
</g>
<!-- Node6 -->
<g id="node7" class="node"><title>Node6</title>
<polygon fill="white" stroke="#bfbfbf" points="674,-56.5 674,-75.5 792,-75.5 792,-56.5 674,-56.5"/>
<text text-anchor="middle" x="733" y="-63.5" font-family="Helvetica,sans-Serif" font-size="10.00">odp/api/abi/std_types.h</text>
</g>
<!-- Node5&#45;&gt;Node6 -->
<g id="edge6" class="edge"><title>Node5&#45;&gt;Node6</title>
<path fill="none" stroke="midnightblue" d="M676.765,-112.324C686.766,-104.263 701.887,-92.0765 713.93,-82.3695"/>
<polygon fill="midnightblue" stroke="midnightblue" points="716.45,-84.8343 722.039,-75.8339 712.057,-79.3841 716.45,-84.8343"/>
</g>
<!-- Node7 -->
<g id="node8" class="node"><title>Node7</title>
<g id="a_node8"><a xlink:href="api_2spec_2std__types_8h.html" target="_top" xlink:title="Standard C language types and definitions for ODP. ">
<polygon fill="white" stroke="black" points="530,-56.5 530,-75.5 656,-75.5 656,-56.5 530,-56.5"/>
<text text-anchor="middle" x="593" y="-63.5" font-family="Helvetica,sans-Serif" font-size="10.00">odp/api/spec/std_types.h</text>
</a>
</g>
</g>
<!-- Node5&#45;&gt;Node7 -->
<g id="edge7" class="edge"><title>Node5&#45;&gt;Node7</title>
<path fill="none" stroke="midnightblue" d="M654.271,-112.324C643.163,-104.107 626.258,-91.6017 613.017,-81.8069"/>
<polygon fill="midnightblue" stroke="midnightblue" points="615.063,-78.9671 604.942,-75.8339 610.9,-84.5948 615.063,-78.9671"/>
</g>
<!-- Node7&#45;&gt;Node3 -->
<g id="edge8" class="edge"><title>Node7&#45;&gt;Node3</title>
<path fill="none" stroke="midnightblue" d="M641.645,-56.4435C695.874,-46.9049 783.548,-31.4834 841.482,-21.293"/>
<polygon fill="midnightblue" stroke="midnightblue" points="842.34,-24.696 851.583,-19.5164 841.127,-17.8018 842.34,-24.696"/>
</g>
<!-- Node8 -->
<g id="node9" class="node"><title>Node8</title>
<polygon fill="white" stroke="#bfbfbf" points="570.5,-0.5 570.5,-19.5 619.5,-19.5 619.5,-0.5 570.5,-0.5"/>
<text text-anchor="middle" x="595" y="-7.5" font-family="Helvetica,sans-Serif" font-size="10.00">stdint.h</text>
</g>
<!-- Node7&#45;&gt;Node8 -->
<g id="edge9" class="edge"><title>Node7&#45;&gt;Node8</title>
<path fill="none" stroke="midnightblue" d="M593.33,-56.083C593.592,-49.0059 593.968,-38.8611 594.297,-29.9865"/>
<polygon fill="midnightblue" stroke="midnightblue" points="597.803,-29.8738 594.676,-19.7511 590.808,-29.6147 597.803,-29.8738"/>
</g>
<!-- Node7&#45;&gt;Node9 -->
<g id="edge10" class="edge"><title>Node7&#45;&gt;Node9</title>
<path fill="none" stroke="midnightblue" d="M578.379,-56.324C564.051,-47.8215 541.987,-34.7288 525.251,-24.7975"/>
<polygon fill="midnightblue" stroke="midnightblue" points="526.97,-21.7478 516.584,-19.6545 523.398,-27.7677 526.97,-21.7478"/>
</g>
<!-- Node14&#45;&gt;Node3 -->
<g id="edge17" class="edge"><title>Node14&#45;&gt;Node3</title>
<path fill="none" stroke="midnightblue" d="M764.593,-224.357C792.961,-208.932 851.359,-174.282 889,-132 913.256,-104.753 927.573,-91.685 920,-56 918.003,-46.5915 913.899,-36.7618 909.925,-28.6981"/>
<polygon fill="midnightblue" stroke="midnightblue" points="912.887,-26.8101 905.13,-19.5932 906.693,-30.0721 912.887,-26.8101"/>
</g>
<!-- Node14&#45;&gt;Node9 -->
<g id="edge24" class="edge"><title>Node14&#45;&gt;Node9</title>
<path fill="none" stroke="midnightblue" d="M727.212,-224.47C682.481,-205.043 576.656,-153.133 521,-76 511.218,-62.4437 506.441,-43.8943 504.127,-30.0804"/>
<polygon fill="midnightblue" stroke="midnightblue" points="507.543,-29.2306 502.706,-19.804 500.609,-30.1891 507.543,-29.2306"/>
</g>
<!-- Node15 -->
<g id="node16" class="node"><title>Node15</title>
<g id="a_node16"><a xlink:href="api_2time_8h.html" target="_top" xlink:title="ODP time. ">
<polygon fill="white" stroke="black" points="719,-168.5 719,-187.5 797,-187.5 797,-168.5 719,-168.5"/>
<text text-anchor="middle" x="758" y="-175.5" font-family="Helvetica,sans-Serif" font-size="10.00">odp/api/time.h</text>
</a>
</g>
</g>
<!-- Node14&#45;&gt;Node15 -->
<g id="edge18" class="edge"><title>Node14&#45;&gt;Node15</title>
<path fill="none" stroke="midnightblue" d="M749.651,-224.083C750.976,-216.927 752.882,-206.635 754.539,-197.691"/>
<polygon fill="midnightblue" stroke="midnightblue" points="758,-198.221 756.379,-187.751 751.117,-196.947 758,-198.221"/>
</g>
<!-- Node15&#45;&gt;Node5 -->
<g id="edge19" class="edge"><title>Node15&#45;&gt;Node5</title>
<path fill="none" stroke="midnightblue" d="M743.219,-168.324C728.733,-159.822 706.427,-146.729 689.507,-136.797"/>
<polygon fill="midnightblue" stroke="midnightblue" points="691.141,-133.698 680.745,-131.655 687.597,-139.735 691.141,-133.698"/>
</g>
<!-- Node16 -->
<g id="node17" class="node"><title>Node16</title>
<polygon fill="white" stroke="#bfbfbf" points="786,-112.5 786,-131.5 880,-131.5 880,-112.5 786,-112.5"/>
<text text-anchor="middle" x="833" y="-119.5" font-family="Helvetica,sans-Serif" font-size="10.00">odp/api/abi/time.h</text>
</g>
<!-- Node15&#45;&gt;Node16 -->
<g id="edge20" class="edge"><title>Node15&#45;&gt;Node16</title>
<path fill="none" stroke="midnightblue" d="M770.05,-168.324C781.463,-160.107 798.831,-147.602 812.435,-137.807"/>
<polygon fill="midnightblue" stroke="midnightblue" points="814.66,-140.517 820.731,-131.834 810.57,-134.837 814.66,-140.517"/>
</g>
<!-- Node17 -->
<g id="node18" class="node"><title>Node17</title>
<g id="a_node18"><a xlink:href="api_2spec_2time_8h.html" target="_top" xlink:title="ODP time. ">
<polygon fill="white" stroke="black" points="810,-56.5 810,-75.5 912,-75.5 912,-56.5 810,-56.5"/>
<text text-anchor="middle" x="861" y="-63.5" font-family="Helvetica,sans-Serif" font-size="10.00">odp/api/spec/time.h</text>
</a>
</g>
</g>
<!-- Node15&#45;&gt;Node17 -->
<g id="edge21" class="edge"><title>Node15&#45;&gt;Node17</title>
<path fill="none" stroke="midnightblue" d="M758.429,-168.454C759.517,-155.028 763.369,-128.798 777,-112 789.026,-97.1801 807.27,-86.5788 823.687,-79.4035"/>
<polygon fill="midnightblue" stroke="midnightblue" points="825.146,-82.5886 833.081,-75.5687 822.5,-76.1078 825.146,-82.5886"/>
</g>
<!-- Node17&#45;&gt;Node3 -->
<g id="edge22" class="edge"><title>Node17&#45;&gt;Node3</title>
<path fill="none" stroke="midnightblue" d="M867.44,-56.083C872.949,-48.4554 881.031,-37.2645 887.765,-27.9408"/>
<polygon fill="midnightblue" stroke="midnightblue" points="890.662,-29.9071 893.68,-19.7511 884.987,-25.8087 890.662,-29.9071"/>
</g>
<!-- Node17&#45;&gt;Node9 -->
<g id="edge23" class="edge"><title>Node17&#45;&gt;Node9</title>
<path fill="none" stroke="midnightblue" d="M809.688,-57.3066C735.438,-46.1736 603.139,-26.3349 562.23,-20.1785"/>
<polygon fill="midnightblue" stroke="midnightblue" points="562.621,-16.6979 552.211,-18.6679 561.577,-23.6197 562.621,-16.6979"/>
</g>
</g>
</svg>
