<?xml version="1.0" encoding="UTF-8" standalone="no"?>
<!DOCTYPE svg PUBLIC "-//W3C//DTD SVG 1.1//EN"
 "http://www.w3.org/Graphics/SVG/1.1/DTD/svg11.dtd">
<!-- Generated by graphviz version 2.36.0 (20140111.2315)
 -->
<!-- Title: comp.h Pages: 1 -->
<svg width="933pt" height="420pt"
 viewBox="0.00 0.00 932.89 420.00" xmlns="http://www.w3.org/2000/svg" xmlns:xlink="http://www.w3.org/1999/xlink">
<g id="graph0" class="graph" transform="scale(1 1) rotate(0) translate(4 416)">
<title>comp.h</title>
<polygon fill="white" stroke="none" points="-4,4 -4,-416 928.89,-416 928.89,4 -4,4"/>
<!-- Node0 -->
<g id="node1" class="node"><title>Node0</title>
<polygon fill="#bfbfbf" stroke="black" points="388.39,-392.5 388.39,-411.5 437.39,-411.5 437.39,-392.5 388.39,-392.5"/>
<text text-anchor="middle" x="412.89" y="-399.5" font-family="Helvetica,sans-Serif" font-size="10.00">comp.h</text>
</g>
<!-- Node1 -->
<g id="node2" class="node"><title>Node1</title>
<polygon fill="white" stroke="#bfbfbf" points="127.39,-336.5 127.39,-355.5 226.39,-355.5 226.39,-336.5 127.39,-336.5"/>
<text text-anchor="middle" x="176.89" y="-343.5" font-family="Helvetica,sans-Serif" font-size="10.00">odp/api/abi/comp.h</text>
</g>
<!-- Node0&#45;&gt;Node1 -->
<g id="edge1" class="edge"><title>Node0&#45;&gt;Node1</title>
<path fill="none" stroke="midnightblue" d="M388.08,-395.323C349.218,-386.431 273.334,-369.068 223.902,-357.757"/>
<polygon fill="midnightblue" stroke="midnightblue" points="224.611,-354.329 214.082,-355.51 223.05,-361.153 224.611,-354.329"/>
</g>
<!-- Node2 -->
<g id="node3" class="node"><title>Node2</title>
<polygon fill="white" stroke="#bfbfbf" points="826.39,-224.5 826.39,-243.5 925.39,-243.5 925.39,-224.5 826.39,-224.5"/>
<text text-anchor="middle" x="875.89" y="-231.5" font-family="Helvetica,sans-Serif" font-size="10.00">odp/api/abi/event.h</text>
</g>
<!-- Node0&#45;&gt;Node2 -->
<g id="edge2" class="edge"><title>Node0&#45;&gt;Node2</title>
<path fill="none" stroke="midnightblue" d="M428.879,-392.412C453.957,-379.161 504.288,-353.439 548.89,-336 648.225,-297.162 769.032,-263.13 832.358,-246.261"/>
<polygon fill="midnightblue" stroke="midnightblue" points="833.615,-249.549 842.386,-243.605 831.823,-242.782 833.615,-249.549"/>
</g>
<!-- Node3 -->
<g id="node4" class="node"><title>Node3</title>
<polygon fill="white" stroke="#bfbfbf" points="557.39,-336.5 557.39,-355.5 658.39,-355.5 658.39,-336.5 557.39,-336.5"/>
<text text-anchor="middle" x="607.89" y="-343.5" font-family="Helvetica,sans-Serif" font-size="10.00">odp/api/abi/queue.h</text>
</g>
<!-- Node0&#45;&gt;Node3 -->
<g id="edge3" class="edge"><title>Node0&#45;&gt;Node3</title>
<path fill="none" stroke="midnightblue" d="M437.587,-394.161C470.207,-385.128 528.086,-369.1 567.212,-358.265"/>
<polygon fill="midnightblue" stroke="midnightblue" points="568.271,-361.603 576.975,-355.561 566.403,-354.857 568.271,-361.603"/>
</g>
<!-- Node4 -->
<g id="node5" class="node"><title>Node4</title>
<g id="a_node5"><a xlink:href="api_2spec_2comp_8h.html" target="_top" xlink:title="ODP Compression. ">
<polygon fill="white" stroke="black" points="244.39,-336.5 244.39,-355.5 351.39,-355.5 351.39,-336.5 244.39,-336.5"/>
<text text-anchor="middle" x="297.89" y="-343.5" font-family="Helvetica,sans-Serif" font-size="10.00">odp/api/spec/comp.h</text>
</a>
</g>
</g>
<!-- Node0&#45;&gt;Node4 -->
<g id="edge4" class="edge"><title>Node0&#45;&gt;Node4</title>
<path fill="none" stroke="midnightblue" d="M394.668,-392.444C375.994,-383.675 346.734,-369.935 325.272,-359.858"/>
<polygon fill="midnightblue" stroke="midnightblue" points="326.566,-356.599 316.027,-355.516 323.591,-362.935 326.566,-356.599"/>
</g>
<!-- Node5 -->
<g id="node6" class="node"><title>Node5</title>
<g id="a_node6"><a xlink:href="visibility__begin_8h_source.html" target="_top" xlink:title="odp/visibility_begin.h">
<polygon fill="white" stroke="black" points="117.39,-0.5 117.39,-19.5 224.39,-19.5 224.39,-0.5 117.39,-0.5"/>
<text text-anchor="middle" x="170.89" y="-7.5" font-family="Helvetica,sans-Serif" font-size="10.00">odp/visibility_begin.h</text>
</a>
</g>
</g>
<!-- Node4&#45;&gt;Node5 -->
<g id="edge5" class="edge"><title>Node4&#45;&gt;Node5</title>
<path fill="none" stroke="midnightblue" d="M244.314,-337.061C164.722,-325.165 24.0869,-303.707 19.8898,-300 -2.66939,-280.076 0.889795,-265.098 0.889795,-235 0.889795,-235 0.889795,-235 0.889795,-121 0.889795,-90.9022 -1.33663,-77.3381 19.8898,-56 42.8554,-32.9136 77.114,-21.5675 107.197,-16.035"/>
<polygon fill="midnightblue" stroke="midnightblue" points="107.924,-19.4623 117.217,-14.3731 106.779,-12.5566 107.924,-19.4623"/>
</g>
<!-- Node6 -->
<g id="node7" class="node"><title>Node6</title>
<g id="a_node7"><a xlink:href="support_8h.html" target="_top" xlink:title="ODP support API &#45; platform specific header. ">
<polygon fill="white" stroke="black" points="28.8898,-280.5 28.8898,-299.5 120.89,-299.5 120.89,-280.5 28.8898,-280.5"/>
<text text-anchor="middle" x="74.8898" y="-287.5" font-family="Helvetica,sans-Serif" font-size="10.00">odp/api/support.h</text>
</a>
</g>
</g>
<!-- Node4&#45;&gt;Node6 -->
<g id="edge6" class="edge"><title>Node4&#45;&gt;Node6</title>
<path fill="none" stroke="midnightblue" d="M262.555,-336.444C223.979,-327.102 162.105,-312.119 120.037,-301.933"/>
<polygon fill="midnightblue" stroke="midnightblue" points="120.602,-298.468 110.059,-299.516 118.955,-305.272 120.602,-298.468"/>
</g>
<!-- Node8 -->
<g id="node9" class="node"><title>Node8</title>
<g id="a_node9"><a xlink:href="visibility__end_8h_source.html" target="_top" xlink:title="odp/visibility_end.h">
<polygon fill="white" stroke="black" points="242.89,-0.5 242.89,-19.5 342.89,-19.5 342.89,-0.5 242.89,-0.5"/>
<text text-anchor="middle" x="292.89" y="-7.5" font-family="Helvetica,sans-Serif" font-size="10.00">odp/visibility_end.h</text>
</a>
</g>
</g>
<!-- Node4&#45;&gt;Node8 -->
<g id="edge31" class="edge"><title>Node4&#45;&gt;Node8</title>
<path fill="none" stroke="midnightblue" d="M275.979,-336.48C243.829,-322.631 185.072,-291.871 160.89,-244 131.562,-185.942 58.9422,-271.717 229.89,-56 239.966,-43.2847 254.546,-32.5559 267.143,-24.7671"/>
<polygon fill="midnightblue" stroke="midnightblue" points="269.029,-27.718 275.872,-19.6289 265.478,-21.6855 269.029,-27.718"/>
</g>
<!-- Node9 -->
<g id="node10" class="node"><title>Node9</title>
<g id="a_node10"><a xlink:href="api_2packet_8h.html" target="_top" xlink:title="ODP packet descriptor. ">
<polygon fill="white" stroke="black" points="411.39,-280.5 411.39,-299.5 500.39,-299.5 500.39,-280.5 411.39,-280.5"/>
<text text-anchor="middle" x="455.89" y="-287.5" font-family="Helvetica,sans-Serif" font-size="10.00">odp/api/packet.h</text>
</a>
</g>
</g>
<!-- Node4&#45;&gt;Node9 -->
<g id="edge10" class="edge"><title>Node4&#45;&gt;Node9</title>
<path fill="none" stroke="midnightblue" d="M322.925,-336.444C349.506,-327.359 391.699,-312.939 421.413,-302.783"/>
<polygon fill="midnightblue" stroke="midnightblue" points="422.641,-306.062 430.971,-299.516 420.377,-299.439 422.641,-306.062"/>
</g>
<!-- Node7 -->
<g id="node8" class="node"><title>Node7</title>
<g id="a_node8"><a xlink:href="spec_2support_8h.html" target="_top" xlink:title="ODP support API. ">
<polygon fill="white" stroke="black" points="28.8898,-56.5 28.8898,-75.5 144.89,-75.5 144.89,-56.5 28.8898,-56.5"/>
<text text-anchor="middle" x="86.8898" y="-63.5" font-family="Helvetica,sans-Serif" font-size="10.00">odp/api/spec/support.h</text>
</a>
</g>
</g>
<!-- Node6&#45;&gt;Node7 -->
<g id="edge7" class="edge"><title>Node6&#45;&gt;Node7</title>
<path fill="none" stroke="midnightblue" d="M75.3602,-280.297C77.1259,-247.633 83.3835,-131.866 85.8651,-85.9573"/>
<polygon fill="midnightblue" stroke="midnightblue" points="89.3646,-86.0581 86.4096,-75.8837 82.3748,-85.6802 89.3646,-86.0581"/>
</g>
<!-- Node7&#45;&gt;Node5 -->
<g id="edge8" class="edge"><title>Node7&#45;&gt;Node5</title>
<path fill="none" stroke="midnightblue" d="M100.386,-56.324C113.489,-47.9002 133.602,-34.9709 148.997,-25.0741"/>
<polygon fill="midnightblue" stroke="midnightblue" points="150.908,-28.0063 157.427,-19.6545 147.123,-22.118 150.908,-28.0063"/>
</g>
<!-- Node7&#45;&gt;Node8 -->
<g id="edge9" class="edge"><title>Node7&#45;&gt;Node8</title>
<path fill="none" stroke="midnightblue" d="M119.531,-56.4435C154.94,-47.1616 211.599,-32.3093 250.442,-22.127"/>
<polygon fill="midnightblue" stroke="midnightblue" points="251.616,-25.4378 260.401,-19.5164 249.841,-18.6666 251.616,-25.4378"/>
</g>
<!-- Node9&#45;&gt;Node2 -->
<g id="edge17" class="edge"><title>Node9&#45;&gt;Node2</title>
<path fill="none" stroke="midnightblue" d="M500.647,-282.025C505.452,-281.32 510.27,-280.632 514.89,-280 646.628,-261.972 680.048,-261.259 811.89,-244 813.35,-243.809 814.829,-243.614 816.32,-243.415"/>
<polygon fill="midnightblue" stroke="midnightblue" points="816.846,-246.876 826.288,-242.07 815.91,-239.939 816.846,-246.876"/>
</g>
<!-- Node10 -->
<g id="node11" class="node"><title>Node10</title>
<g id="a_node11"><a xlink:href="api_2std__types_8h.html" target="_top" xlink:title="Standard C language types and definitions for ODP. ">
<polygon fill="white" stroke="black" points="506.89,-112.5 506.89,-131.5 608.89,-131.5 608.89,-112.5 506.89,-112.5"/>
<text text-anchor="middle" x="557.89" y="-119.5" font-family="Helvetica,sans-Serif" font-size="10.00">odp/api/std_types.h</text>
</a>
</g>
</g>
<!-- Node9&#45;&gt;Node10 -->
<g id="edge11" class="edge"><title>Node9&#45;&gt;Node10</title>
<path fill="none" stroke="midnightblue" d="M500.657,-282.095C505.46,-281.377 510.275,-280.667 514.89,-280 573.491,-271.535 739.953,-288.606 778.89,-244 830.527,-184.843 701.078,-149.154 619.115,-133.108"/>
<polygon fill="midnightblue" stroke="midnightblue" points="619.602,-129.637 609.123,-131.202 618.291,-136.514 619.602,-129.637"/>
</g>
<!-- Node14 -->
<g id="node15" class="node"><title>Node14</title>
<polygon fill="white" stroke="#bfbfbf" points="530.39,-224.5 530.39,-243.5 647.39,-243.5 647.39,-224.5 530.39,-224.5"/>
<text text-anchor="middle" x="588.89" y="-231.5" font-family="Helvetica,sans-Serif" font-size="10.00">odp/api/abi/packet_io.h</text>
</g>
<!-- Node9&#45;&gt;Node14 -->
<g id="edge18" class="edge"><title>Node9&#45;&gt;Node14</title>
<path fill="none" stroke="midnightblue" d="M476.964,-280.444C498.95,-271.517 533.624,-257.439 558.554,-247.317"/>
<polygon fill="midnightblue" stroke="midnightblue" points="559.965,-250.521 567.914,-243.516 557.332,-244.035 559.965,-250.521"/>
</g>
<!-- Node15 -->
<g id="node16" class="node"><title>Node15</title>
<polygon fill="white" stroke="#bfbfbf" points="665.89,-224.5 665.89,-243.5 769.89,-243.5 769.89,-224.5 665.89,-224.5"/>
<text text-anchor="middle" x="717.89" y="-231.5" font-family="Helvetica,sans-Serif" font-size="10.00">odp/api/abi/packet.h</text>
</g>
<!-- Node9&#45;&gt;Node15 -->
<g id="edge19" class="edge"><title>Node9&#45;&gt;Node15</title>
<path fill="none" stroke="midnightblue" d="M497.404,-280.444C543.301,-270.984 617.27,-255.738 666.716,-245.547"/>
<polygon fill="midnightblue" stroke="midnightblue" points="667.482,-248.963 676.569,-243.516 666.069,-242.107 667.482,-248.963"/>
</g>
<!-- Node16 -->
<g id="node17" class="node"><title>Node16</title>
<polygon fill="white" stroke="#bfbfbf" points="169.89,-224.5 169.89,-243.5 269.89,-243.5 269.89,-224.5 169.89,-224.5"/>
<text text-anchor="middle" x="219.89" y="-231.5" font-family="Helvetica,sans-Serif" font-size="10.00">odp/api/abi/buffer.h</text>
</g>
<!-- Node9&#45;&gt;Node16 -->
<g id="edge20" class="edge"><title>Node9&#45;&gt;Node16</title>
<path fill="none" stroke="midnightblue" d="M418.495,-280.444C377.498,-271.063 311.635,-255.993 267.106,-245.804"/>
<polygon fill="midnightblue" stroke="midnightblue" points="267.639,-242.335 257.11,-243.516 266.077,-249.159 267.639,-242.335"/>
</g>
<!-- Node17 -->
<g id="node18" class="node"><title>Node17</title>
<polygon fill="white" stroke="#bfbfbf" points="288.39,-224.5 288.39,-243.5 381.39,-243.5 381.39,-224.5 288.39,-224.5"/>
<text text-anchor="middle" x="334.89" y="-231.5" font-family="Helvetica,sans-Serif" font-size="10.00">odp/api/abi/pool.h</text>
</g>
<!-- Node9&#45;&gt;Node17 -->
<g id="edge21" class="edge"><title>Node9&#45;&gt;Node17</title>
<path fill="none" stroke="midnightblue" d="M436.717,-280.444C416.981,-271.636 386.005,-257.812 363.396,-247.722"/>
<polygon fill="midnightblue" stroke="midnightblue" points="364.531,-244.396 353.973,-243.516 361.678,-250.788 364.531,-244.396"/>
</g>
<!-- Node18 -->
<g id="node19" class="node"><title>Node18</title>
<g id="a_node19"><a xlink:href="api_2spec_2packet_8h.html" target="_top" xlink:title="ODP packet descriptor. ">
<polygon fill="white" stroke="black" points="399.39,-224.5 399.39,-243.5 512.39,-243.5 512.39,-224.5 399.39,-224.5"/>
<text text-anchor="middle" x="455.89" y="-231.5" font-family="Helvetica,sans-Serif" font-size="10.00">odp/api/spec/packet.h</text>
</a>
</g>
</g>
<!-- Node9&#45;&gt;Node18 -->
<g id="edge22" class="edge"><title>Node9&#45;&gt;Node18</title>
<path fill="none" stroke="midnightblue" d="M455.89,-280.083C455.89,-273.006 455.89,-262.861 455.89,-253.986"/>
<polygon fill="midnightblue" stroke="midnightblue" points="459.39,-253.751 455.89,-243.751 452.39,-253.751 459.39,-253.751"/>
</g>
<!-- Node11 -->
<g id="node12" class="node"><title>Node11</title>
<polygon fill="white" stroke="#bfbfbf" points="358.89,-56.5 358.89,-75.5 476.89,-75.5 476.89,-56.5 358.89,-56.5"/>
<text text-anchor="middle" x="417.89" y="-63.5" font-family="Helvetica,sans-Serif" font-size="10.00">odp/api/abi/std_types.h</text>
</g>
<!-- Node10&#45;&gt;Node11 -->
<g id="edge12" class="edge"><title>Node10&#45;&gt;Node11</title>
<path fill="none" stroke="midnightblue" d="M535.706,-112.444C512.461,-103.478 475.741,-89.314 449.475,-79.1827"/>
<polygon fill="midnightblue" stroke="midnightblue" points="450.559,-75.8497 439.969,-75.5164 448.04,-82.3807 450.559,-75.8497"/>
</g>
<!-- Node12 -->
<g id="node13" class="node"><title>Node12</title>
<g id="a_node13"><a xlink:href="api_2spec_2std__types_8h.html" target="_top" xlink:title="Standard C language types and definitions for ODP. ">
<polygon fill="white" stroke="black" points="494.89,-56.5 494.89,-75.5 620.89,-75.5 620.89,-56.5 494.89,-56.5"/>
<text text-anchor="middle" x="557.89" y="-63.5" font-family="Helvetica,sans-Serif" font-size="10.00">odp/api/spec/std_types.h</text>
</a>
</g>
</g>
<!-- Node10&#45;&gt;Node12 -->
<g id="edge13" class="edge"><title>Node10&#45;&gt;Node12</title>
<path fill="none" stroke="midnightblue" d="M557.89,-112.083C557.89,-105.006 557.89,-94.8611 557.89,-85.9865"/>
<polygon fill="midnightblue" stroke="midnightblue" points="561.39,-85.751 557.89,-75.7511 554.39,-85.7511 561.39,-85.751"/>
</g>
<!-- Node12&#45;&gt;Node5 -->
<g id="edge14" class="edge"><title>Node12&#45;&gt;Node5</title>
<path fill="none" stroke="midnightblue" d="M496.069,-56.4865C433.029,-47.7887 332.107,-33.8191 234.543,-20.0874"/>
<polygon fill="midnightblue" stroke="midnightblue" points="234.894,-16.6025 224.504,-18.6736 233.918,-23.5341 234.894,-16.6025"/>
</g>
<!-- Node12&#45;&gt;Node8 -->
<g id="edge16" class="edge"><title>Node12&#45;&gt;Node8</title>
<path fill="none" stroke="midnightblue" d="M515.9,-56.4435C469.477,-46.9839 394.662,-31.7384 344.649,-21.5472"/>
<polygon fill="midnightblue" stroke="midnightblue" points="345.181,-18.0837 334.683,-19.5164 343.783,-24.9427 345.181,-18.0837"/>
</g>
<!-- Node13 -->
<g id="node14" class="node"><title>Node13</title>
<polygon fill="white" stroke="#bfbfbf" points="533.39,-0.5 533.39,-19.5 582.39,-19.5 582.39,-0.5 533.39,-0.5"/>
<text text-anchor="middle" x="557.89" y="-7.5" font-family="Helvetica,sans-Serif" font-size="10.00">stdint.h</text>
</g>
<!-- Node12&#45;&gt;Node13 -->
<g id="edge15" class="edge"><title>Node12&#45;&gt;Node13</title>
<path fill="none" stroke="midnightblue" d="M557.89,-56.083C557.89,-49.0059 557.89,-38.8611 557.89,-29.9865"/>
<polygon fill="midnightblue" stroke="midnightblue" points="561.39,-29.751 557.89,-19.7511 554.39,-29.7511 561.39,-29.751"/>
</g>
<!-- Node18&#45;&gt;Node5 -->
<g id="edge23" class="edge"><title>Node18&#45;&gt;Node5</title>
<path fill="none" stroke="midnightblue" d="M441.318,-224.483C404.138,-202.42 303.491,-140.612 229.89,-76 212.791,-60.9892 195.569,-41.3794 184.183,-27.6402"/>
<polygon fill="midnightblue" stroke="midnightblue" points="186.635,-25.1077 177.604,-19.5667 181.208,-29.5297 186.635,-25.1077"/>
</g>
<!-- Node18&#45;&gt;Node8 -->
<g id="edge30" class="edge"><title>Node18&#45;&gt;Node8</title>
<path fill="none" stroke="midnightblue" d="M476.912,-224.326C534.961,-199.216 689.35,-123.928 629.89,-56 611.973,-35.5318 445.121,-21.208 353.114,-14.7927"/>
<polygon fill="midnightblue" stroke="midnightblue" points="353.31,-11.298 343.094,-14.1046 352.83,-18.2815 353.31,-11.298"/>
</g>
<!-- Node19 -->
<g id="node20" class="node"><title>Node19</title>
<g id="a_node20"><a xlink:href="api_2time_8h.html" target="_top" xlink:title="ODP time. ">
<polygon fill="white" stroke="black" points="409.89,-168.5 409.89,-187.5 487.89,-187.5 487.89,-168.5 409.89,-168.5"/>
<text text-anchor="middle" x="448.89" y="-175.5" font-family="Helvetica,sans-Serif" font-size="10.00">odp/api/time.h</text>
</a>
</g>
</g>
<!-- Node18&#45;&gt;Node19 -->
<g id="edge24" class="edge"><title>Node18&#45;&gt;Node19</title>
<path fill="none" stroke="midnightblue" d="M454.734,-224.083C453.806,-216.927 452.472,-206.635 451.313,-197.691"/>
<polygon fill="midnightblue" stroke="midnightblue" points="454.781,-197.218 450.024,-187.751 447.839,-198.118 454.781,-197.218"/>
</g>
<!-- Node19&#45;&gt;Node10 -->
<g id="edge25" class="edge"><title>Node19&#45;&gt;Node10</title>
<path fill="none" stroke="midnightblue" d="M466.403,-168.324C483.962,-159.625 511.221,-146.12 531.421,-136.113"/>
<polygon fill="midnightblue" stroke="midnightblue" points="533.014,-139.23 540.421,-131.655 529.906,-132.958 533.014,-139.23"/>
</g>
<!-- Node20 -->
<g id="node21" class="node"><title>Node20</title>
<polygon fill="white" stroke="#bfbfbf" points="394.89,-112.5 394.89,-131.5 488.89,-131.5 488.89,-112.5 394.89,-112.5"/>
<text text-anchor="middle" x="441.89" y="-119.5" font-family="Helvetica,sans-Serif" font-size="10.00">odp/api/abi/time.h</text>
</g>
<!-- Node19&#45;&gt;Node20 -->
<g id="edge26" class="edge"><title>Node19&#45;&gt;Node20</title>
<path fill="none" stroke="midnightblue" d="M447.734,-168.083C446.806,-160.927 445.472,-150.635 444.313,-141.691"/>
<polygon fill="midnightblue" stroke="midnightblue" points="447.781,-141.218 443.024,-131.751 440.839,-142.118 447.781,-141.218"/>
</g>
<!-- Node21 -->
<g id="node22" class="node"><title>Node21</title>
<g id="a_node22"><a xlink:href="api_2spec_2time_8h.html" target="_top" xlink:title="ODP time. ">
<polygon fill="white" stroke="black" points="238.89,-56.5 238.89,-75.5 340.89,-75.5 340.89,-56.5 238.89,-56.5"/>
<text text-anchor="middle" x="289.89" y="-63.5" font-family="Helvetica,sans-Serif" font-size="10.00">odp/api/spec/time.h</text>
</a>
</g>
</g>
<!-- Node19&#45;&gt;Node21 -->
<g id="edge27" class="edge"><title>Node19&#45;&gt;Node21</title>
<path fill="none" stroke="midnightblue" d="M436.413,-168.368C409.245,-149.573 344.482,-104.768 310.897,-81.5334"/>
<polygon fill="midnightblue" stroke="midnightblue" points="312.523,-78.4025 302.308,-75.5914 308.541,-84.1592 312.523,-78.4025"/>
</g>
<!-- Node21&#45;&gt;Node5 -->
<g id="edge28" class="edge"><title>Node21&#45;&gt;Node5</title>
<path fill="none" stroke="midnightblue" d="M271.034,-56.4435C251.624,-47.6356 221.16,-33.8116 198.925,-23.722"/>
<polygon fill="midnightblue" stroke="midnightblue" points="200.21,-20.4615 189.657,-19.5164 197.317,-26.836 200.21,-20.4615"/>
</g>
<!-- Node21&#45;&gt;Node8 -->
<g id="edge29" class="edge"><title>Node21&#45;&gt;Node8</title>
<path fill="none" stroke="midnightblue" d="M290.385,-56.083C290.778,-49.0059 291.342,-38.8611 291.835,-29.9865"/>
<polygon fill="midnightblue" stroke="midnightblue" points="295.343,-29.9299 292.404,-19.7511 288.354,-29.5415 295.343,-29.9299"/>
</g>
</g>
</svg>
