<?xml version="1.0" encoding="UTF-8" standalone="no"?>
<!DOCTYPE svg PUBLIC "-//W3C//DTD SVG 1.1//EN"
 "http://www.w3.org/Graphics/SVG/1.1/DTD/svg11.dtd">
<!-- Generated by graphviz version 2.36.0 (20140111.2315)
 -->
<!-- Title: thrmask.h Pages: 1 -->
<svg width="407pt" height="252pt"
 viewBox="0.00 0.00 407.00 252.00" xmlns="http://www.w3.org/2000/svg" xmlns:xlink="http://www.w3.org/1999/xlink">
<g id="graph0" class="graph" transform="scale(1 1) rotate(0) translate(4 248)">
<title>thrmask.h</title>
<polygon fill="white" stroke="none" points="-4,4 -4,-248 403,-248 403,4 -4,4"/>
<!-- Node0 -->
<g id="node1" class="node"><title>Node0</title>
<polygon fill="#bfbfbf" stroke="black" points="91,-224.5 91,-243.5 151,-243.5 151,-224.5 91,-224.5"/>
<text text-anchor="middle" x="121" y="-231.5" font-family="Helvetica,sans-Serif" font-size="10.00">thrmask.h</text>
</g>
<!-- Node1 -->
<g id="node2" class="node"><title>Node1</title>
<polygon fill="white" stroke="#bfbfbf" points="0,-168.5 0,-187.5 110,-187.5 110,-168.5 0,-168.5"/>
<text text-anchor="middle" x="55" y="-175.5" font-family="Helvetica,sans-Serif" font-size="10.00">odp/api/abi/thrmask.h</text>
</g>
<!-- Node0&#45;&gt;Node1 -->
<g id="edge1" class="edge"><title>Node0&#45;&gt;Node1</title>
<path fill="none" stroke="midnightblue" d="M110.396,-224.324C100.544,-216.263 85.6491,-204.077 73.7849,-194.369"/>
<polygon fill="midnightblue" stroke="midnightblue" points="75.7529,-191.457 65.797,-187.834 71.3202,-196.875 75.7529,-191.457"/>
</g>
<!-- Node2 -->
<g id="node3" class="node"><title>Node2</title>
<g id="a_node3"><a xlink:href="api_2spec_2thrmask_8h.html" target="_top" xlink:title="ODP thread masks. ">
<polygon fill="white" stroke="black" points="128.5,-168.5 128.5,-187.5 247.5,-187.5 247.5,-168.5 128.5,-168.5"/>
<text text-anchor="middle" x="188" y="-175.5" font-family="Helvetica,sans-Serif" font-size="10.00">odp/api/spec/thrmask.h</text>
</a>
</g>
</g>
<!-- Node0&#45;&gt;Node2 -->
<g id="edge2" class="edge"><title>Node0&#45;&gt;Node2</title>
<path fill="none" stroke="midnightblue" d="M131.765,-224.324C141.766,-216.263 156.887,-204.077 168.93,-194.369"/>
<polygon fill="midnightblue" stroke="midnightblue" points="171.45,-196.834 177.039,-187.834 167.057,-191.384 171.45,-196.834"/>
</g>
<!-- Node3 -->
<g id="node4" class="node"><title>Node3</title>
<g id="a_node4"><a xlink:href="visibility__begin_8h_source.html" target="_top" xlink:title="odp/visibility_begin.h">
<polygon fill="white" stroke="black" points="42.5,-0.5 42.5,-19.5 149.5,-19.5 149.5,-0.5 42.5,-0.5"/>
<text text-anchor="middle" x="96" y="-7.5" font-family="Helvetica,sans-Serif" font-size="10.00">odp/visibility_begin.h</text>
</a>
</g>
</g>
<!-- Node2&#45;&gt;Node3 -->
<g id="edge3" class="edge"><title>Node2&#45;&gt;Node3</title>
<path fill="none" stroke="midnightblue" d="M165.667,-168.413C133.231,-154.569 74.313,-123.923 50,-76 40.5723,-57.4172 58.1924,-38.1839 74.2783,-25.508"/>
<polygon fill="midnightblue" stroke="midnightblue" points="76.431,-28.2692 82.399,-19.5152 72.2745,-22.6369 76.431,-28.2692"/>
</g>
<!-- Node4 -->
<g id="node5" class="node"><title>Node4</title>
<g id="a_node5"><a xlink:href="api_2std__types_8h.html" target="_top" xlink:title="Standard C language types and definitions for ODP. ">
<polygon fill="white" stroke="black" points="137,-112.5 137,-131.5 239,-131.5 239,-112.5 137,-112.5"/>
<text text-anchor="middle" x="188" y="-119.5" font-family="Helvetica,sans-Serif" font-size="10.00">odp/api/std_types.h</text>
</a>
</g>
</g>
<!-- Node2&#45;&gt;Node4 -->
<g id="edge4" class="edge"><title>Node2&#45;&gt;Node4</title>
<path fill="none" stroke="midnightblue" d="M188,-168.083C188,-161.006 188,-150.861 188,-141.986"/>
<polygon fill="midnightblue" stroke="midnightblue" points="191.5,-141.751 188,-131.751 184.5,-141.751 191.5,-141.751"/>
</g>
<!-- Node8 -->
<g id="node9" class="node"><title>Node8</title>
<g id="a_node9"><a xlink:href="visibility__end_8h_source.html" target="_top" xlink:title="odp/visibility_end.h">
<polygon fill="white" stroke="black" points="299,-0.5 299,-19.5 399,-19.5 399,-0.5 299,-0.5"/>
<text text-anchor="middle" x="349" y="-7.5" font-family="Helvetica,sans-Serif" font-size="10.00">odp/visibility_end.h</text>
</a>
</g>
</g>
<!-- Node2&#45;&gt;Node8 -->
<g id="edge10" class="edge"><title>Node2&#45;&gt;Node8</title>
<path fill="none" stroke="midnightblue" d="M207.72,-168.289C238.489,-153.688 297.726,-121.354 330,-76 339.692,-62.3796 344.479,-43.8373 346.82,-30.0424"/>
<polygon fill="midnightblue" stroke="midnightblue" points="350.336,-30.1739 348.265,-19.7835 343.404,-29.1976 350.336,-30.1739"/>
</g>
<!-- Node5 -->
<g id="node6" class="node"><title>Node5</title>
<polygon fill="white" stroke="#bfbfbf" points="59,-56.5 59,-75.5 177,-75.5 177,-56.5 59,-56.5"/>
<text text-anchor="middle" x="118" y="-63.5" font-family="Helvetica,sans-Serif" font-size="10.00">odp/api/abi/std_types.h</text>
</g>
<!-- Node4&#45;&gt;Node5 -->
<g id="edge5" class="edge"><title>Node4&#45;&gt;Node5</title>
<path fill="none" stroke="midnightblue" d="M176.753,-112.324C166.203,-104.185 150.199,-91.8395 137.558,-82.0874"/>
<polygon fill="midnightblue" stroke="midnightblue" points="139.507,-79.1707 129.451,-75.8339 135.231,-84.7132 139.507,-79.1707"/>
</g>
<!-- Node6 -->
<g id="node7" class="node"><title>Node6</title>
<g id="a_node7"><a xlink:href="api_2spec_2std__types_8h.html" target="_top" xlink:title="Standard C language types and definitions for ODP. ">
<polygon fill="white" stroke="black" points="195,-56.5 195,-75.5 321,-75.5 321,-56.5 195,-56.5"/>
<text text-anchor="middle" x="258" y="-63.5" font-family="Helvetica,sans-Serif" font-size="10.00">odp/api/spec/std_types.h</text>
</a>
</g>
</g>
<!-- Node4&#45;&gt;Node6 -->
<g id="edge6" class="edge"><title>Node4&#45;&gt;Node6</title>
<path fill="none" stroke="midnightblue" d="M199.247,-112.324C209.797,-104.185 225.801,-91.8395 238.442,-82.0874"/>
<polygon fill="midnightblue" stroke="midnightblue" points="240.769,-84.7132 246.549,-75.8339 236.493,-79.1707 240.769,-84.7132"/>
</g>
<!-- Node6&#45;&gt;Node3 -->
<g id="edge7" class="edge"><title>Node6&#45;&gt;Node3</title>
<path fill="none" stroke="midnightblue" d="M232.331,-56.4435C205.077,-47.3591 161.816,-32.9388 131.349,-22.7831"/>
<polygon fill="midnightblue" stroke="midnightblue" points="132.143,-19.3584 121.549,-19.5164 129.929,-25.9992 132.143,-19.3584"/>
</g>
<!-- Node7 -->
<g id="node8" class="node"><title>Node7</title>
<polygon fill="white" stroke="#bfbfbf" points="231.5,-0.5 231.5,-19.5 280.5,-19.5 280.5,-0.5 231.5,-0.5"/>
<text text-anchor="middle" x="256" y="-7.5" font-family="Helvetica,sans-Serif" font-size="10.00">stdint.h</text>
</g>
<!-- Node6&#45;&gt;Node7 -->
<g id="edge8" class="edge"><title>Node6&#45;&gt;Node7</title>
<path fill="none" stroke="midnightblue" d="M257.67,-56.083C257.408,-49.0059 257.032,-38.8611 256.703,-29.9865"/>
<polygon fill="midnightblue" stroke="midnightblue" points="260.192,-29.6147 256.324,-19.7511 253.197,-29.8738 260.192,-29.6147"/>
</g>
<!-- Node6&#45;&gt;Node8 -->
<g id="edge9" class="edge"><title>Node6&#45;&gt;Node8</title>
<path fill="none" stroke="midnightblue" d="M272.621,-56.324C286.949,-47.8215 309.013,-34.7288 325.749,-24.7975"/>
<polygon fill="midnightblue" stroke="midnightblue" points="327.602,-27.7677 334.416,-19.6545 324.03,-21.7478 327.602,-27.7677"/>
</g>
</g>
</svg>
