<?xml version="1.0" encoding="UTF-8" standalone="no"?>
<!DOCTYPE svg PUBLIC "-//W3C//DTD SVG 1.1//EN"
 "http://www.w3.org/Graphics/SVG/1.1/DTD/svg11.dtd">
<!-- Generated by graphviz version 2.36.0 (20140111.2315)
 -->
<!-- Title: std_clib.h Pages: 1 -->
<svg width="528pt" height="252pt"
 viewBox="0.00 0.00 528.00 252.00" xmlns="http://www.w3.org/2000/svg" xmlns:xlink="http://www.w3.org/1999/xlink">
<g id="graph0" class="graph" transform="scale(1 1) rotate(0) translate(4 248)">
<title>std_clib.h</title>
<polygon fill="white" stroke="none" points="-4,4 -4,-248 524,-248 524,4 -4,4"/>
<!-- Node1 -->
<g id="node1" class="node"><title>Node1</title>
<polygon fill="#bfbfbf" stroke="black" points="230.5,-224.5 230.5,-243.5 289.5,-243.5 289.5,-224.5 230.5,-224.5"/>
<text text-anchor="middle" x="260" y="-231.5" font-family="Helvetica,sans-Serif" font-size="10.00">std_clib.h</text>
</g>
<!-- Node2 -->
<g id="node2" class="node"><title>Node2</title>
<g id="a_node2"><a xlink:href="arch_2arm32-linux_2odp_2api_2abi_2std__clib_8h_source.html" target="_top" xlink:title="std_clib.h">
<polygon fill="white" stroke="black" points="-0.5,-168.5 -0.5,-187.5 58.5,-187.5 58.5,-168.5 -0.5,-168.5"/>
<text text-anchor="middle" x="29" y="-175.5" font-family="Helvetica,sans-Serif" font-size="10.00">std_clib.h</text>
</a>
</g>
</g>
<!-- Node1&#45;&gt;Node2 -->
<g id="edge1" class="edge"><title>Node1&#45;&gt;Node2</title>
<path fill="none" stroke="midnightblue" d="M220.371,-223.736C174.436,-212.998 99.7867,-195.548 58.6122,-185.922"/>
<polygon fill="midnightblue" stroke="midnightblue" points="219.739,-227.183 230.274,-226.051 221.333,-220.367 219.739,-227.183"/>
</g>
<!-- Node3 -->
<g id="node3" class="node"><title>Node3</title>
<g id="a_node3"><a xlink:href="arch_2arm64-linux_2odp_2api_2abi_2std__clib_8h_source.html" target="_top" xlink:title="std_clib.h">
<polygon fill="white" stroke="black" points="76.5,-168.5 76.5,-187.5 135.5,-187.5 135.5,-168.5 76.5,-168.5"/>
<text text-anchor="middle" x="106" y="-175.5" font-family="Helvetica,sans-Serif" font-size="10.00">std_clib.h</text>
</a>
</g>
</g>
<!-- Node1&#45;&gt;Node3 -->
<g id="edge2" class="edge"><title>Node1&#45;&gt;Node3</title>
<path fill="none" stroke="midnightblue" d="M225.889,-221.039C196.913,-210.879 156.038,-196.546 130.288,-187.516"/>
<polygon fill="midnightblue" stroke="midnightblue" points="225.003,-224.437 235.598,-224.444 227.32,-217.832 225.003,-224.437"/>
</g>
<!-- Node4 -->
<g id="node4" class="node"><title>Node4</title>
<g id="a_node4"><a xlink:href="arch_2default-linux_2odp_2api_2abi_2std__clib_8h_source.html" target="_top" xlink:title="std_clib.h">
<polygon fill="white" stroke="black" points="153.5,-168.5 153.5,-187.5 212.5,-187.5 212.5,-168.5 153.5,-168.5"/>
<text text-anchor="middle" x="183" y="-175.5" font-family="Helvetica,sans-Serif" font-size="10.00">std_clib.h</text>
</a>
</g>
</g>
<!-- Node1&#45;&gt;Node4 -->
<g id="edge3" class="edge"><title>Node1&#45;&gt;Node4</title>
<path fill="none" stroke="midnightblue" d="M239.099,-218.342C225.089,-208.517 207.117,-195.913 195.341,-187.655"/>
<polygon fill="midnightblue" stroke="midnightblue" points="237.432,-221.448 247.629,-224.324 241.451,-215.717 237.432,-221.448"/>
</g>
<!-- Node5 -->
<g id="node5" class="node"><title>Node5</title>
<g id="a_node5"><a xlink:href="arch_2mips64-linux_2odp_2api_2abi_2std__clib_8h_source.html" target="_top" xlink:title="std_clib.h">
<polygon fill="white" stroke="black" points="230.5,-168.5 230.5,-187.5 289.5,-187.5 289.5,-168.5 230.5,-168.5"/>
<text text-anchor="middle" x="260" y="-175.5" font-family="Helvetica,sans-Serif" font-size="10.00">std_clib.h</text>
</a>
</g>
</g>
<!-- Node1&#45;&gt;Node5 -->
<g id="edge4" class="edge"><title>Node1&#45;&gt;Node5</title>
<path fill="none" stroke="midnightblue" d="M260,-213.805C260,-204.91 260,-194.78 260,-187.751"/>
<polygon fill="midnightblue" stroke="midnightblue" points="256.5,-214.083 260,-224.083 263.5,-214.083 256.5,-214.083"/>
</g>
<!-- Node6 -->
<g id="node6" class="node"><title>Node6</title>
<g id="a_node6"><a xlink:href="arch_2power64-linux_2odp_2api_2abi_2std__clib_8h_source.html" target="_top" xlink:title="std_clib.h">
<polygon fill="white" stroke="black" points="307.5,-168.5 307.5,-187.5 366.5,-187.5 366.5,-168.5 307.5,-168.5"/>
<text text-anchor="middle" x="337" y="-175.5" font-family="Helvetica,sans-Serif" font-size="10.00">std_clib.h</text>
</a>
</g>
</g>
<!-- Node1&#45;&gt;Node6 -->
<g id="edge5" class="edge"><title>Node1&#45;&gt;Node6</title>
<path fill="none" stroke="midnightblue" d="M280.901,-218.342C294.911,-208.517 312.883,-195.913 324.659,-187.655"/>
<polygon fill="midnightblue" stroke="midnightblue" points="278.549,-215.717 272.371,-224.324 282.568,-221.448 278.549,-215.717"/>
</g>
<!-- Node7 -->
<g id="node7" class="node"><title>Node7</title>
<g id="a_node7"><a xlink:href="arch_2x86__32-linux_2odp_2api_2abi_2std__clib_8h_source.html" target="_top" xlink:title="std_clib.h">
<polygon fill="white" stroke="black" points="384.5,-168.5 384.5,-187.5 443.5,-187.5 443.5,-168.5 384.5,-168.5"/>
<text text-anchor="middle" x="414" y="-175.5" font-family="Helvetica,sans-Serif" font-size="10.00">std_clib.h</text>
</a>
</g>
</g>
<!-- Node1&#45;&gt;Node7 -->
<g id="edge6" class="edge"><title>Node1&#45;&gt;Node7</title>
<path fill="none" stroke="midnightblue" d="M294.111,-221.039C323.087,-210.879 363.962,-196.546 389.712,-187.516"/>
<polygon fill="midnightblue" stroke="midnightblue" points="292.68,-217.832 284.402,-224.444 294.997,-224.437 292.68,-217.832"/>
</g>
<!-- Node8 -->
<g id="node8" class="node"><title>Node8</title>
<g id="a_node8"><a xlink:href="arch_2x86__64-linux_2odp_2api_2abi_2std__clib_8h_source.html" target="_top" xlink:title="std_clib.h">
<polygon fill="white" stroke="black" points="461.5,-168.5 461.5,-187.5 520.5,-187.5 520.5,-168.5 461.5,-168.5"/>
<text text-anchor="middle" x="491" y="-175.5" font-family="Helvetica,sans-Serif" font-size="10.00">std_clib.h</text>
</a>
</g>
</g>
<!-- Node1&#45;&gt;Node8 -->
<g id="edge7" class="edge"><title>Node1&#45;&gt;Node8</title>
<path fill="none" stroke="midnightblue" d="M299.629,-223.736C345.564,-212.998 420.213,-195.548 461.388,-185.922"/>
<polygon fill="midnightblue" stroke="midnightblue" points="298.667,-220.367 289.726,-226.051 300.261,-227.183 298.667,-220.367"/>
</g>
<!-- Node9 -->
<g id="node9" class="node"><title>Node9</title>
<g id="a_node9"><a xlink:href="api_2std__clib_8h_source.html" target="_top" xlink:title="std_clib.h">
<polygon fill="white" stroke="black" points="461.5,-112.5 461.5,-131.5 520.5,-131.5 520.5,-112.5 461.5,-112.5"/>
<text text-anchor="middle" x="491" y="-119.5" font-family="Helvetica,sans-Serif" font-size="10.00">std_clib.h</text>
</a>
</g>
</g>
<!-- Node8&#45;&gt;Node9 -->
<g id="edge8" class="edge"><title>Node8&#45;&gt;Node9</title>
<path fill="none" stroke="midnightblue" d="M491,-157.805C491,-148.91 491,-138.78 491,-131.751"/>
<polygon fill="midnightblue" stroke="midnightblue" points="487.5,-158.083 491,-168.083 494.5,-158.083 487.5,-158.083"/>
</g>
<!-- Node10 -->
<g id="node10" class="node"><title>Node10</title>
<g id="a_node10"><a xlink:href="odp__api_8h.html" target="_top" xlink:title="The OpenDataPlane API. ">
<polygon fill="white" stroke="black" points="461.5,-56.5 461.5,-75.5 520.5,-75.5 520.5,-56.5 461.5,-56.5"/>
<text text-anchor="middle" x="491" y="-63.5" font-family="Helvetica,sans-Serif" font-size="10.00">odp_api.h</text>
</a>
</g>
</g>
<!-- Node9&#45;&gt;Node10 -->
<g id="edge9" class="edge"><title>Node9&#45;&gt;Node10</title>
<path fill="none" stroke="midnightblue" d="M491,-101.805C491,-92.9102 491,-82.7798 491,-75.7511"/>
<polygon fill="midnightblue" stroke="midnightblue" points="487.5,-102.083 491,-112.083 494.5,-102.083 487.5,-102.083"/>
</g>
<!-- Node11 -->
<g id="node11" class="node"><title>Node11</title>
<g id="a_node11"><a xlink:href="odp_8h.html" target="_top" xlink:title="WARNING: THIS FILE IS DEPRECATED AND WILL BE REMOVED!!! ODP APPLICATIONS SHOULD NOW INCLUDE odp_api...">
<polygon fill="white" stroke="black" points="470.5,-0.5 470.5,-19.5 511.5,-19.5 511.5,-0.5 470.5,-0.5"/>
<text text-anchor="middle" x="491" y="-7.5" font-family="Helvetica,sans-Serif" font-size="10.00">odp.h</text>
</a>
</g>
</g>
<!-- Node10&#45;&gt;Node11 -->
<g id="edge10" class="edge"><title>Node10&#45;&gt;Node11</title>
<path fill="none" stroke="midnightblue" d="M491,-45.8045C491,-36.9102 491,-26.7798 491,-19.7511"/>
<polygon fill="midnightblue" stroke="midnightblue" points="487.5,-46.083 491,-56.083 494.5,-46.083 487.5,-46.083"/>
</g>
</g>
</svg>
