<?xml version="1.0" encoding="UTF-8" standalone="no"?>
<!DOCTYPE svg PUBLIC "-//W3C//DTD SVG 1.1//EN"
 "http://www.w3.org/Graphics/SVG/1.1/DTD/svg11.dtd">
<!-- Generated by graphviz version 2.36.0 (20140111.2315)
 -->
<!-- Title: spinlock.h Pages: 1 -->
<svg width="875pt" height="420pt"
 viewBox="0.00 0.00 875.13 420.00" xmlns="http://www.w3.org/2000/svg" xmlns:xlink="http://www.w3.org/1999/xlink">
<g id="graph0" class="graph" transform="scale(1 1) rotate(0) translate(4 416)">
<title>spinlock.h</title>
<polygon fill="white" stroke="none" points="-4,4 -4,-416 871.126,-416 871.126,4 -4,4"/>
<!-- Node1 -->
<g id="node1" class="node"><title>Node1</title>
<polygon fill="#bfbfbf" stroke="black" points="445.5,-392.5 445.5,-411.5 506.5,-411.5 506.5,-392.5 445.5,-392.5"/>
<text text-anchor="middle" x="476" y="-399.5" font-family="Helvetica,sans-Serif" font-size="10.00">spinlock.h</text>
</g>
<!-- Node2 -->
<g id="node2" class="node"><title>Node2</title>
<g id="a_node2"><a xlink:href="arch_2arm32-linux_2odp_2api_2abi_2spinlock_8h_source.html" target="_top" xlink:title="spinlock.h">
<polygon fill="white" stroke="black" points="208.5,-336.5 208.5,-355.5 269.5,-355.5 269.5,-336.5 208.5,-336.5"/>
<text text-anchor="middle" x="239" y="-343.5" font-family="Helvetica,sans-Serif" font-size="10.00">spinlock.h</text>
</a>
</g>
</g>
<!-- Node1&#45;&gt;Node2 -->
<g id="edge1" class="edge"><title>Node1&#45;&gt;Node2</title>
<path fill="none" stroke="midnightblue" d="M435.557,-391.85C395.535,-382.785 332.528,-368.488 278,-356 275.291,-355.379 272.476,-354.733 269.655,-354.084"/>
<polygon fill="midnightblue" stroke="midnightblue" points="434.939,-395.298 445.465,-394.093 436.485,-388.471 434.939,-395.298"/>
</g>
<!-- Node3 -->
<g id="node3" class="node"><title>Node3</title>
<g id="a_node3"><a xlink:href="arch_2arm64-linux_2odp_2api_2abi_2spinlock_8h_source.html" target="_top" xlink:title="spinlock.h">
<polygon fill="white" stroke="black" points="287.5,-336.5 287.5,-355.5 348.5,-355.5 348.5,-336.5 287.5,-336.5"/>
<text text-anchor="middle" x="318" y="-343.5" font-family="Helvetica,sans-Serif" font-size="10.00">spinlock.h</text>
</a>
</g>
</g>
<!-- Node1&#45;&gt;Node3 -->
<g id="edge2" class="edge"><title>Node1&#45;&gt;Node3</title>
<path fill="none" stroke="midnightblue" d="M441.392,-389.172C411.641,-379.004 369.453,-364.585 342.918,-355.516"/>
<polygon fill="midnightblue" stroke="midnightblue" points="440.37,-392.521 450.964,-392.444 442.634,-385.898 440.37,-392.521"/>
</g>
<!-- Node4 -->
<g id="node4" class="node"><title>Node4</title>
<g id="a_node4"><a xlink:href="arch_2default-linux_2odp_2api_2abi_2spinlock_8h_source.html" target="_top" xlink:title="spinlock.h">
<polygon fill="white" stroke="black" points="366.5,-336.5 366.5,-355.5 427.5,-355.5 427.5,-336.5 366.5,-336.5"/>
<text text-anchor="middle" x="397" y="-343.5" font-family="Helvetica,sans-Serif" font-size="10.00">spinlock.h</text>
</a>
</g>
</g>
<!-- Node1&#45;&gt;Node4 -->
<g id="edge3" class="edge"><title>Node1&#45;&gt;Node4</title>
<path fill="none" stroke="midnightblue" d="M454.966,-386.622C440.534,-376.757 421.859,-363.992 409.661,-355.655"/>
<polygon fill="midnightblue" stroke="midnightblue" points="453.077,-389.57 463.307,-392.324 457.027,-383.791 453.077,-389.57"/>
</g>
<!-- Node5 -->
<g id="node5" class="node"><title>Node5</title>
<g id="a_node5"><a xlink:href="arch_2mips64-linux_2odp_2api_2abi_2spinlock_8h_source.html" target="_top" xlink:title="spinlock.h">
<polygon fill="white" stroke="black" points="445.5,-336.5 445.5,-355.5 506.5,-355.5 506.5,-336.5 445.5,-336.5"/>
<text text-anchor="middle" x="476" y="-343.5" font-family="Helvetica,sans-Serif" font-size="10.00">spinlock.h</text>
</a>
</g>
</g>
<!-- Node1&#45;&gt;Node5 -->
<g id="edge4" class="edge"><title>Node1&#45;&gt;Node5</title>
<path fill="none" stroke="midnightblue" d="M476,-381.805C476,-372.91 476,-362.78 476,-355.751"/>
<polygon fill="midnightblue" stroke="midnightblue" points="472.5,-382.083 476,-392.083 479.5,-382.083 472.5,-382.083"/>
</g>
<!-- Node6 -->
<g id="node6" class="node"><title>Node6</title>
<g id="a_node6"><a xlink:href="arch_2power64-linux_2odp_2api_2abi_2spinlock_8h_source.html" target="_top" xlink:title="spinlock.h">
<polygon fill="white" stroke="black" points="524.5,-336.5 524.5,-355.5 585.5,-355.5 585.5,-336.5 524.5,-336.5"/>
<text text-anchor="middle" x="555" y="-343.5" font-family="Helvetica,sans-Serif" font-size="10.00">spinlock.h</text>
</a>
</g>
</g>
<!-- Node1&#45;&gt;Node6 -->
<g id="edge5" class="edge"><title>Node1&#45;&gt;Node6</title>
<path fill="none" stroke="midnightblue" d="M497.034,-386.622C511.466,-376.757 530.141,-363.992 542.339,-355.655"/>
<polygon fill="midnightblue" stroke="midnightblue" points="494.973,-383.791 488.693,-392.324 498.923,-389.57 494.973,-383.791"/>
</g>
<!-- Node7 -->
<g id="node7" class="node"><title>Node7</title>
<g id="a_node7"><a xlink:href="arch_2x86__32-linux_2odp_2api_2abi_2spinlock_8h_source.html" target="_top" xlink:title="spinlock.h">
<polygon fill="white" stroke="black" points="603.5,-336.5 603.5,-355.5 664.5,-355.5 664.5,-336.5 603.5,-336.5"/>
<text text-anchor="middle" x="634" y="-343.5" font-family="Helvetica,sans-Serif" font-size="10.00">spinlock.h</text>
</a>
</g>
</g>
<!-- Node1&#45;&gt;Node7 -->
<g id="edge6" class="edge"><title>Node1&#45;&gt;Node7</title>
<path fill="none" stroke="midnightblue" d="M510.608,-389.172C540.359,-379.004 582.547,-364.585 609.082,-355.516"/>
<polygon fill="midnightblue" stroke="midnightblue" points="509.366,-385.898 501.036,-392.444 511.63,-392.521 509.366,-385.898"/>
</g>
<!-- Node8 -->
<g id="node8" class="node"><title>Node8</title>
<g id="a_node8"><a xlink:href="arch_2x86__64-linux_2odp_2api_2abi_2spinlock_8h_source.html" target="_top" xlink:title="spinlock.h">
<polygon fill="white" stroke="black" points="682.5,-336.5 682.5,-355.5 743.5,-355.5 743.5,-336.5 682.5,-336.5"/>
<text text-anchor="middle" x="713" y="-343.5" font-family="Helvetica,sans-Serif" font-size="10.00">spinlock.h</text>
</a>
</g>
</g>
<!-- Node1&#45;&gt;Node8 -->
<g id="edge7" class="edge"><title>Node1&#45;&gt;Node8</title>
<path fill="none" stroke="midnightblue" d="M516.846,-391.693C563.902,-380.972 640.148,-363.599 682.384,-353.976"/>
<polygon fill="midnightblue" stroke="midnightblue" points="515.956,-388.306 506.984,-393.94 517.511,-395.131 515.956,-388.306"/>
</g>
<!-- Node9 -->
<g id="node9" class="node"><title>Node9</title>
<g id="a_node9"><a xlink:href="api_2spinlock_8h.html" target="_top" xlink:title="ODP spinlock. ">
<polygon fill="white" stroke="black" points="682.5,-280.5 682.5,-299.5 743.5,-299.5 743.5,-280.5 682.5,-280.5"/>
<text text-anchor="middle" x="713" y="-287.5" font-family="Helvetica,sans-Serif" font-size="10.00">spinlock.h</text>
</a>
</g>
</g>
<!-- Node8&#45;&gt;Node9 -->
<g id="edge8" class="edge"><title>Node8&#45;&gt;Node9</title>
<path fill="none" stroke="midnightblue" d="M713,-325.805C713,-316.91 713,-306.78 713,-299.751"/>
<polygon fill="midnightblue" stroke="midnightblue" points="709.5,-326.083 713,-336.083 716.5,-326.083 709.5,-326.083"/>
</g>
<!-- Node10 -->
<g id="node10" class="node"><title>Node10</title>
<g id="a_node10"><a xlink:href="api_2abi-default_2spinlock__recursive_8h.html" target="_top" xlink:title="ODP recursive spinlock. ">
<polygon fill="white" stroke="black" points="434,-224.5 434,-243.5 540,-243.5 540,-224.5 434,-224.5"/>
<text text-anchor="middle" x="487" y="-231.5" font-family="Helvetica,sans-Serif" font-size="10.00">spinlock_recursive.h</text>
</a>
</g>
</g>
<!-- Node9&#45;&gt;Node10 -->
<g id="edge9" class="edge"><title>Node9&#45;&gt;Node10</title>
<path fill="none" stroke="midnightblue" d="M672.284,-279.271C629.68,-269.092 563.45,-253.267 522.787,-243.551"/>
<polygon fill="midnightblue" stroke="midnightblue" points="671.51,-282.685 682.05,-281.605 673.137,-275.877 671.51,-282.685"/>
</g>
<!-- Node19 -->
<g id="node19" class="node"><title>Node19</title>
<g id="a_node19"><a xlink:href="odp__api_8h.html" target="_top" xlink:title="The OpenDataPlane API. ">
<polygon fill="white" stroke="black" points="807.5,-56.5 807.5,-75.5 866.5,-75.5 866.5,-56.5 807.5,-56.5"/>
<text text-anchor="middle" x="837" y="-63.5" font-family="Helvetica,sans-Serif" font-size="10.00">odp_api.h</text>
</a>
</g>
</g>
<!-- Node9&#45;&gt;Node19 -->
<g id="edge20" class="edge"><title>Node9&#45;&gt;Node19</title>
<path fill="none" stroke="midnightblue" d="M746.65,-276.543C781.707,-261.533 834.703,-232.62 858,-188 873.634,-158.058 865.316,-144.976 858,-112 855.012,-98.5333 847.556,-84.3218 842.384,-75.557"/>
<polygon fill="midnightblue" stroke="midnightblue" points="745.187,-273.361 737.278,-280.41 747.857,-279.832 745.187,-273.361"/>
</g>
<!-- Node11 -->
<g id="node11" class="node"><title>Node11</title>
<g id="a_node11"><a xlink:href="arch_2arm32-linux_2odp_2api_2abi_2spinlock__recursive_8h_source.html" target="_top" xlink:title="spinlock_recursive.h">
<polygon fill="white" stroke="black" points="0,-168.5 0,-187.5 106,-187.5 106,-168.5 0,-168.5"/>
<text text-anchor="middle" x="53" y="-175.5" font-family="Helvetica,sans-Serif" font-size="10.00">spinlock_recursive.h</text>
</a>
</g>
</g>
<!-- Node10&#45;&gt;Node11 -->
<g id="edge10" class="edge"><title>Node10&#45;&gt;Node11</title>
<path fill="none" stroke="midnightblue" d="M423.878,-225.827C349.829,-217.306 223.397,-202.422 115,-188 112.089,-187.613 109.102,-187.207 106.088,-186.791"/>
<polygon fill="midnightblue" stroke="midnightblue" points="423.637,-229.323 433.971,-226.987 424.436,-222.368 423.637,-229.323"/>
</g>
<!-- Node12 -->
<g id="node12" class="node"><title>Node12</title>
<g id="a_node12"><a xlink:href="arch_2arm64-linux_2odp_2api_2abi_2spinlock__recursive_8h_source.html" target="_top" xlink:title="spinlock_recursive.h">
<polygon fill="white" stroke="black" points="124,-168.5 124,-187.5 230,-187.5 230,-168.5 124,-168.5"/>
<text text-anchor="middle" x="177" y="-175.5" font-family="Helvetica,sans-Serif" font-size="10.00">spinlock_recursive.h</text>
</a>
</g>
</g>
<!-- Node10&#45;&gt;Node12 -->
<g id="edge11" class="edge"><title>Node10&#45;&gt;Node12</title>
<path fill="none" stroke="midnightblue" d="M427.665,-222.664C369.08,-212.459 280.555,-197.039 225.891,-187.516"/>
<polygon fill="midnightblue" stroke="midnightblue" points="427.427,-226.175 437.88,-224.444 428.629,-219.279 427.427,-226.175"/>
</g>
<!-- Node13 -->
<g id="node13" class="node"><title>Node13</title>
<g id="a_node13"><a xlink:href="arch_2default-linux_2odp_2api_2abi_2spinlock__recursive_8h_source.html" target="_top" xlink:title="spinlock_recursive.h">
<polygon fill="white" stroke="black" points="248,-168.5 248,-187.5 354,-187.5 354,-168.5 248,-168.5"/>
<text text-anchor="middle" x="301" y="-175.5" font-family="Helvetica,sans-Serif" font-size="10.00">spinlock_recursive.h</text>
</a>
</g>
</g>
<!-- Node10&#45;&gt;Node13 -->
<g id="edge12" class="edge"><title>Node10&#45;&gt;Node13</title>
<path fill="none" stroke="midnightblue" d="M447.622,-221.568C412.534,-211.381 361.979,-196.703 330.334,-187.516"/>
<polygon fill="midnightblue" stroke="midnightblue" points="446.948,-225.017 457.528,-224.444 448.9,-218.294 446.948,-225.017"/>
</g>
<!-- Node14 -->
<g id="node14" class="node"><title>Node14</title>
<g id="a_node14"><a xlink:href="arch_2mips64-linux_2odp_2api_2abi_2spinlock__recursive_8h_source.html" target="_top" xlink:title="spinlock_recursive.h">
<polygon fill="white" stroke="black" points="372,-168.5 372,-187.5 478,-187.5 478,-168.5 372,-168.5"/>
<text text-anchor="middle" x="425" y="-175.5" font-family="Helvetica,sans-Serif" font-size="10.00">spinlock_recursive.h</text>
</a>
</g>
</g>
<!-- Node10&#45;&gt;Node14 -->
<g id="edge13" class="edge"><title>Node10&#45;&gt;Node14</title>
<path fill="none" stroke="midnightblue" d="M469.246,-217.537C458.192,-207.909 444.369,-195.869 435.143,-187.834"/>
<polygon fill="midnightblue" stroke="midnightblue" points="467.199,-220.395 477.039,-224.324 471.797,-215.117 467.199,-220.395"/>
</g>
<!-- Node15 -->
<g id="node15" class="node"><title>Node15</title>
<g id="a_node15"><a xlink:href="arch_2power64-linux_2odp_2api_2abi_2spinlock__recursive_8h_source.html" target="_top" xlink:title="spinlock_recursive.h">
<polygon fill="white" stroke="black" points="496,-168.5 496,-187.5 602,-187.5 602,-168.5 496,-168.5"/>
<text text-anchor="middle" x="549" y="-175.5" font-family="Helvetica,sans-Serif" font-size="10.00">spinlock_recursive.h</text>
</a>
</g>
</g>
<!-- Node10&#45;&gt;Node15 -->
<g id="edge14" class="edge"><title>Node10&#45;&gt;Node15</title>
<path fill="none" stroke="midnightblue" d="M504.754,-217.537C515.808,-207.909 529.631,-195.869 538.857,-187.834"/>
<polygon fill="midnightblue" stroke="midnightblue" points="502.203,-215.117 496.961,-224.324 506.801,-220.395 502.203,-215.117"/>
</g>
<!-- Node16 -->
<g id="node16" class="node"><title>Node16</title>
<g id="a_node16"><a xlink:href="arch_2x86__32-linux_2odp_2api_2abi_2spinlock__recursive_8h_source.html" target="_top" xlink:title="spinlock_recursive.h">
<polygon fill="white" stroke="black" points="620,-168.5 620,-187.5 726,-187.5 726,-168.5 620,-168.5"/>
<text text-anchor="middle" x="673" y="-175.5" font-family="Helvetica,sans-Serif" font-size="10.00">spinlock_recursive.h</text>
</a>
</g>
</g>
<!-- Node10&#45;&gt;Node16 -->
<g id="edge15" class="edge"><title>Node10&#45;&gt;Node16</title>
<path fill="none" stroke="midnightblue" d="M526.378,-221.568C561.466,-211.381 612.021,-196.703 643.666,-187.516"/>
<polygon fill="midnightblue" stroke="midnightblue" points="525.1,-218.294 516.472,-224.444 527.052,-225.017 525.1,-218.294"/>
</g>
<!-- Node17 -->
<g id="node17" class="node"><title>Node17</title>
<g id="a_node17"><a xlink:href="arch_2x86__64-linux_2odp_2api_2abi_2spinlock__recursive_8h_source.html" target="_top" xlink:title="spinlock_recursive.h">
<polygon fill="white" stroke="black" points="744,-168.5 744,-187.5 850,-187.5 850,-168.5 744,-168.5"/>
<text text-anchor="middle" x="797" y="-175.5" font-family="Helvetica,sans-Serif" font-size="10.00">spinlock_recursive.h</text>
</a>
</g>
</g>
<!-- Node10&#45;&gt;Node17 -->
<g id="edge16" class="edge"><title>Node10&#45;&gt;Node17</title>
<path fill="none" stroke="midnightblue" d="M546.335,-222.664C604.92,-212.459 693.445,-197.039 748.109,-187.516"/>
<polygon fill="midnightblue" stroke="midnightblue" points="545.371,-219.279 536.12,-224.444 546.573,-226.175 545.371,-219.279"/>
</g>
<!-- Node18 -->
<g id="node18" class="node"><title>Node18</title>
<g id="a_node18"><a xlink:href="api_2spinlock__recursive_8h.html" target="_top" xlink:title="ODP resursive spinlock. ">
<polygon fill="white" stroke="black" points="744,-112.5 744,-131.5 850,-131.5 850,-112.5 744,-112.5"/>
<text text-anchor="middle" x="797" y="-119.5" font-family="Helvetica,sans-Serif" font-size="10.00">spinlock_recursive.h</text>
</a>
</g>
</g>
<!-- Node17&#45;&gt;Node18 -->
<g id="edge17" class="edge"><title>Node17&#45;&gt;Node18</title>
<path fill="none" stroke="midnightblue" d="M797,-157.805C797,-148.91 797,-138.78 797,-131.751"/>
<polygon fill="midnightblue" stroke="midnightblue" points="793.5,-158.083 797,-168.083 800.5,-158.083 793.5,-158.083"/>
</g>
<!-- Node18&#45;&gt;Node19 -->
<g id="edge18" class="edge"><title>Node18&#45;&gt;Node19</title>
<path fill="none" stroke="midnightblue" d="M809.7,-103.855C816.626,-94.5048 824.906,-83.3265 830.518,-75.7511"/>
<polygon fill="midnightblue" stroke="midnightblue" points="806.745,-101.964 803.605,-112.083 812.37,-106.131 806.745,-101.964"/>
</g>
<!-- Node20 -->
<g id="node20" class="node"><title>Node20</title>
<g id="a_node20"><a xlink:href="odp_8h.html" target="_top" xlink:title="WARNING: THIS FILE IS DEPRECATED AND WILL BE REMOVED!!! ODP APPLICATIONS SHOULD NOW INCLUDE odp_api...">
<polygon fill="white" stroke="black" points="816.5,-0.5 816.5,-19.5 857.5,-19.5 857.5,-0.5 816.5,-0.5"/>
<text text-anchor="middle" x="837" y="-7.5" font-family="Helvetica,sans-Serif" font-size="10.00">odp.h</text>
</a>
</g>
</g>
<!-- Node19&#45;&gt;Node20 -->
<g id="edge19" class="edge"><title>Node19&#45;&gt;Node20</title>
<path fill="none" stroke="midnightblue" d="M837,-45.8045C837,-36.9102 837,-26.7798 837,-19.7511"/>
<polygon fill="midnightblue" stroke="midnightblue" points="833.5,-46.083 837,-56.083 840.5,-46.083 833.5,-46.083"/>
</g>
</g>
</svg>
