<?xml version="1.0" encoding="UTF-8" standalone="no"?>
<!DOCTYPE svg PUBLIC "-//W3C//DTD SVG 1.1//EN"
 "http://www.w3.org/Graphics/SVG/1.1/DTD/svg11.dtd">
<!-- Generated by graphviz version 2.36.0 (20140111.2315)
 -->
<!-- Title: traffic_mngr.h Pages: 1 -->
<svg width="654pt" height="252pt"
 viewBox="0.00 0.00 654.00 252.00" xmlns="http://www.w3.org/2000/svg" xmlns:xlink="http://www.w3.org/1999/xlink">
<g id="graph0" class="graph" transform="scale(1 1) rotate(0) translate(4 248)">
<title>traffic_mngr.h</title>
<polygon fill="white" stroke="none" points="-4,4 -4,-248 650,-248 650,4 -4,4"/>
<!-- Node7 -->
<g id="node1" class="node"><title>Node7</title>
<polygon fill="#bfbfbf" stroke="black" points="284.5,-224.5 284.5,-243.5 361.5,-243.5 361.5,-224.5 284.5,-224.5"/>
<text text-anchor="middle" x="323" y="-231.5" font-family="Helvetica,sans-Serif" font-size="10.00">traffic_mngr.h</text>
</g>
<!-- Node8 -->
<g id="node2" class="node"><title>Node8</title>
<g id="a_node2"><a xlink:href="arch_2arm32-linux_2odp_2api_2abi_2traffic__mngr_8h_source.html" target="_top" xlink:title="traffic_mngr.h">
<polygon fill="white" stroke="black" points="-0.5,-168.5 -0.5,-187.5 76.5,-187.5 76.5,-168.5 -0.5,-168.5"/>
<text text-anchor="middle" x="38" y="-175.5" font-family="Helvetica,sans-Serif" font-size="10.00">traffic_mngr.h</text>
</a>
</g>
</g>
<!-- Node7&#45;&gt;Node8 -->
<g id="edge1" class="edge"><title>Node7&#45;&gt;Node8</title>
<path fill="none" stroke="midnightblue" d="M274.252,-223.764C218.367,-213.175 127.899,-196.033 76.6483,-186.323"/>
<polygon fill="midnightblue" stroke="midnightblue" points="273.79,-227.238 284.267,-225.661 275.093,-220.361 273.79,-227.238"/>
</g>
<!-- Node9 -->
<g id="node3" class="node"><title>Node9</title>
<g id="a_node3"><a xlink:href="arch_2arm64-linux_2odp_2api_2abi_2traffic__mngr_8h_source.html" target="_top" xlink:title="traffic_mngr.h">
<polygon fill="white" stroke="black" points="94.5,-168.5 94.5,-187.5 171.5,-187.5 171.5,-168.5 94.5,-168.5"/>
<text text-anchor="middle" x="133" y="-175.5" font-family="Helvetica,sans-Serif" font-size="10.00">traffic_mngr.h</text>
</a>
</g>
</g>
<!-- Node7&#45;&gt;Node9 -->
<g id="edge2" class="edge"><title>Node7&#45;&gt;Node9</title>
<path fill="none" stroke="midnightblue" d="M283.236,-221.699C247.377,-211.507 195.429,-196.743 162.965,-187.516"/>
<polygon fill="midnightblue" stroke="midnightblue" points="282.318,-225.076 292.894,-224.444 284.232,-218.343 282.318,-225.076"/>
</g>
<!-- Node10 -->
<g id="node4" class="node"><title>Node10</title>
<g id="a_node4"><a xlink:href="arch_2default-linux_2odp_2api_2abi_2traffic__mngr_8h_source.html" target="_top" xlink:title="traffic_mngr.h">
<polygon fill="white" stroke="black" points="189.5,-168.5 189.5,-187.5 266.5,-187.5 266.5,-168.5 189.5,-168.5"/>
<text text-anchor="middle" x="228" y="-175.5" font-family="Helvetica,sans-Serif" font-size="10.00">traffic_mngr.h</text>
</a>
</g>
</g>
<!-- Node7&#45;&gt;Node10 -->
<g id="edge3" class="edge"><title>Node7&#45;&gt;Node10</title>
<path fill="none" stroke="midnightblue" d="M298.682,-219.177C281.201,-209.241 258.17,-196.149 243.226,-187.655"/>
<polygon fill="midnightblue" stroke="midnightblue" points="297.313,-222.425 307.737,-224.324 300.773,-216.339 297.313,-222.425"/>
</g>
<!-- Node11 -->
<g id="node5" class="node"><title>Node11</title>
<g id="a_node5"><a xlink:href="arch_2mips64-linux_2odp_2api_2abi_2traffic__mngr_8h_source.html" target="_top" xlink:title="traffic_mngr.h">
<polygon fill="white" stroke="black" points="284.5,-168.5 284.5,-187.5 361.5,-187.5 361.5,-168.5 284.5,-168.5"/>
<text text-anchor="middle" x="323" y="-175.5" font-family="Helvetica,sans-Serif" font-size="10.00">traffic_mngr.h</text>
</a>
</g>
</g>
<!-- Node7&#45;&gt;Node11 -->
<g id="edge4" class="edge"><title>Node7&#45;&gt;Node11</title>
<path fill="none" stroke="midnightblue" d="M323,-213.805C323,-204.91 323,-194.78 323,-187.751"/>
<polygon fill="midnightblue" stroke="midnightblue" points="319.5,-214.083 323,-224.083 326.5,-214.083 319.5,-214.083"/>
</g>
<!-- Node12 -->
<g id="node6" class="node"><title>Node12</title>
<g id="a_node6"><a xlink:href="arch_2power64-linux_2odp_2api_2abi_2traffic__mngr_8h_source.html" target="_top" xlink:title="traffic_mngr.h">
<polygon fill="white" stroke="black" points="379.5,-168.5 379.5,-187.5 456.5,-187.5 456.5,-168.5 379.5,-168.5"/>
<text text-anchor="middle" x="418" y="-175.5" font-family="Helvetica,sans-Serif" font-size="10.00">traffic_mngr.h</text>
</a>
</g>
</g>
<!-- Node7&#45;&gt;Node12 -->
<g id="edge5" class="edge"><title>Node7&#45;&gt;Node12</title>
<path fill="none" stroke="midnightblue" d="M347.318,-219.177C364.799,-209.241 387.83,-196.149 402.774,-187.655"/>
<polygon fill="midnightblue" stroke="midnightblue" points="345.227,-216.339 338.263,-224.324 348.687,-222.425 345.227,-216.339"/>
</g>
<!-- Node13 -->
<g id="node7" class="node"><title>Node13</title>
<g id="a_node7"><a xlink:href="arch_2x86__32-linux_2odp_2api_2abi_2traffic__mngr_8h_source.html" target="_top" xlink:title="traffic_mngr.h">
<polygon fill="white" stroke="black" points="474.5,-168.5 474.5,-187.5 551.5,-187.5 551.5,-168.5 474.5,-168.5"/>
<text text-anchor="middle" x="513" y="-175.5" font-family="Helvetica,sans-Serif" font-size="10.00">traffic_mngr.h</text>
</a>
</g>
</g>
<!-- Node7&#45;&gt;Node13 -->
<g id="edge6" class="edge"><title>Node7&#45;&gt;Node13</title>
<path fill="none" stroke="midnightblue" d="M362.764,-221.699C398.623,-211.507 450.571,-196.743 483.035,-187.516"/>
<polygon fill="midnightblue" stroke="midnightblue" points="361.768,-218.343 353.106,-224.444 363.682,-225.076 361.768,-218.343"/>
</g>
<!-- Node14 -->
<g id="node8" class="node"><title>Node14</title>
<g id="a_node8"><a xlink:href="arch_2x86__64-linux_2odp_2api_2abi_2traffic__mngr_8h_source.html" target="_top" xlink:title="traffic_mngr.h">
<polygon fill="white" stroke="black" points="569.5,-168.5 569.5,-187.5 646.5,-187.5 646.5,-168.5 569.5,-168.5"/>
<text text-anchor="middle" x="608" y="-175.5" font-family="Helvetica,sans-Serif" font-size="10.00">traffic_mngr.h</text>
</a>
</g>
</g>
<!-- Node7&#45;&gt;Node14 -->
<g id="edge7" class="edge"><title>Node7&#45;&gt;Node14</title>
<path fill="none" stroke="midnightblue" d="M371.748,-223.764C427.633,-213.175 518.101,-196.033 569.352,-186.323"/>
<polygon fill="midnightblue" stroke="midnightblue" points="370.907,-220.361 361.733,-225.661 372.21,-227.238 370.907,-220.361"/>
</g>
<!-- Node15 -->
<g id="node9" class="node"><title>Node15</title>
<g id="a_node9"><a xlink:href="api_2traffic__mngr_8h.html" target="_top" xlink:title="ODP Traffic manager. ">
<polygon fill="white" stroke="black" points="569.5,-112.5 569.5,-131.5 646.5,-131.5 646.5,-112.5 569.5,-112.5"/>
<text text-anchor="middle" x="608" y="-119.5" font-family="Helvetica,sans-Serif" font-size="10.00">traffic_mngr.h</text>
</a>
</g>
</g>
<!-- Node14&#45;&gt;Node15 -->
<g id="edge8" class="edge"><title>Node14&#45;&gt;Node15</title>
<path fill="none" stroke="midnightblue" d="M608,-157.805C608,-148.91 608,-138.78 608,-131.751"/>
<polygon fill="midnightblue" stroke="midnightblue" points="604.5,-158.083 608,-168.083 611.5,-158.083 604.5,-158.083"/>
</g>
<!-- Node16 -->
<g id="node10" class="node"><title>Node16</title>
<g id="a_node10"><a xlink:href="odp__api_8h.html" target="_top" xlink:title="The OpenDataPlane API. ">
<polygon fill="white" stroke="black" points="578.5,-56.5 578.5,-75.5 637.5,-75.5 637.5,-56.5 578.5,-56.5"/>
<text text-anchor="middle" x="608" y="-63.5" font-family="Helvetica,sans-Serif" font-size="10.00">odp_api.h</text>
</a>
</g>
</g>
<!-- Node15&#45;&gt;Node16 -->
<g id="edge9" class="edge"><title>Node15&#45;&gt;Node16</title>
<path fill="none" stroke="midnightblue" d="M608,-101.805C608,-92.9102 608,-82.7798 608,-75.7511"/>
<polygon fill="midnightblue" stroke="midnightblue" points="604.5,-102.083 608,-112.083 611.5,-102.083 604.5,-102.083"/>
</g>
<!-- Node17 -->
<g id="node11" class="node"><title>Node17</title>
<g id="a_node11"><a xlink:href="odp_8h.html" target="_top" xlink:title="WARNING: THIS FILE IS DEPRECATED AND WILL BE REMOVED!!! ODP APPLICATIONS SHOULD NOW INCLUDE odp_api...">
<polygon fill="white" stroke="black" points="587.5,-0.5 587.5,-19.5 628.5,-19.5 628.5,-0.5 587.5,-0.5"/>
<text text-anchor="middle" x="608" y="-7.5" font-family="Helvetica,sans-Serif" font-size="10.00">odp.h</text>
</a>
</g>
</g>
<!-- Node16&#45;&gt;Node17 -->
<g id="edge10" class="edge"><title>Node16&#45;&gt;Node17</title>
<path fill="none" stroke="midnightblue" d="M608,-45.8045C608,-36.9102 608,-26.7798 608,-19.7511"/>
<polygon fill="midnightblue" stroke="midnightblue" points="604.5,-46.083 608,-56.083 611.5,-46.083 604.5,-46.083"/>
</g>
</g>
</svg>
