<?xml version="1.0" encoding="UTF-8" standalone="no"?>
<!DOCTYPE svg PUBLIC "-//W3C//DTD SVG 1.1//EN"
 "http://www.w3.org/Graphics/SVG/1.1/DTD/svg11.dtd">
<!-- Generated by graphviz version 2.36.0 (20140111.2315)
 -->
<!-- Title: spinlock.h Pages: 1 -->
<svg width="875pt" height="308pt"
 viewBox="0.00 0.00 875.13 308.00" xmlns="http://www.w3.org/2000/svg" xmlns:xlink="http://www.w3.org/1999/xlink">
<g id="graph0" class="graph" transform="scale(1 1) rotate(0) translate(4 304)">
<title>spinlock.h</title>
<polygon fill="white" stroke="none" points="-4,4 -4,-304 871.126,-304 871.126,4 -4,4"/>
<!-- Node5 -->
<g id="node1" class="node"><title>Node5</title>
<polygon fill="#bfbfbf" stroke="black" points="682.5,-280.5 682.5,-299.5 743.5,-299.5 743.5,-280.5 682.5,-280.5"/>
<text text-anchor="middle" x="713" y="-287.5" font-family="Helvetica,sans-Serif" font-size="10.00">spinlock.h</text>
</g>
<!-- Node6 -->
<g id="node2" class="node"><title>Node6</title>
<g id="a_node2"><a xlink:href="api_2abi-default_2spinlock__recursive_8h.html" target="_top" xlink:title="ODP recursive spinlock. ">
<polygon fill="white" stroke="black" points="434,-224.5 434,-243.5 540,-243.5 540,-224.5 434,-224.5"/>
<text text-anchor="middle" x="487" y="-231.5" font-family="Helvetica,sans-Serif" font-size="10.00">spinlock_recursive.h</text>
</a>
</g>
</g>
<!-- Node5&#45;&gt;Node6 -->
<g id="edge1" class="edge"><title>Node5&#45;&gt;Node6</title>
<path fill="none" stroke="midnightblue" d="M672.284,-279.271C629.68,-269.092 563.45,-253.267 522.787,-243.551"/>
<polygon fill="midnightblue" stroke="midnightblue" points="671.51,-282.685 682.05,-281.605 673.137,-275.877 671.51,-282.685"/>
</g>
<!-- Node15 -->
<g id="node11" class="node"><title>Node15</title>
<g id="a_node11"><a xlink:href="odp__api_8h.html" target="_top" xlink:title="The OpenDataPlane API. ">
<polygon fill="white" stroke="black" points="807.5,-56.5 807.5,-75.5 866.5,-75.5 866.5,-56.5 807.5,-56.5"/>
<text text-anchor="middle" x="837" y="-63.5" font-family="Helvetica,sans-Serif" font-size="10.00">odp_api.h</text>
</a>
</g>
</g>
<!-- Node5&#45;&gt;Node15 -->
<g id="edge12" class="edge"><title>Node5&#45;&gt;Node15</title>
<path fill="none" stroke="midnightblue" d="M746.65,-276.543C781.707,-261.533 834.703,-232.62 858,-188 873.634,-158.058 865.316,-144.976 858,-112 855.012,-98.5333 847.556,-84.3218 842.384,-75.557"/>
<polygon fill="midnightblue" stroke="midnightblue" points="745.187,-273.361 737.278,-280.41 747.857,-279.832 745.187,-273.361"/>
</g>
<!-- Node7 -->
<g id="node3" class="node"><title>Node7</title>
<g id="a_node3"><a xlink:href="arch_2arm32-linux_2odp_2api_2abi_2spinlock__recursive_8h_source.html" target="_top" xlink:title="spinlock_recursive.h">
<polygon fill="white" stroke="black" points="0,-168.5 0,-187.5 106,-187.5 106,-168.5 0,-168.5"/>
<text text-anchor="middle" x="53" y="-175.5" font-family="Helvetica,sans-Serif" font-size="10.00">spinlock_recursive.h</text>
</a>
</g>
</g>
<!-- Node6&#45;&gt;Node7 -->
<g id="edge2" class="edge"><title>Node6&#45;&gt;Node7</title>
<path fill="none" stroke="midnightblue" d="M423.878,-225.827C349.829,-217.306 223.397,-202.422 115,-188 112.089,-187.613 109.102,-187.207 106.088,-186.791"/>
<polygon fill="midnightblue" stroke="midnightblue" points="423.637,-229.323 433.971,-226.987 424.436,-222.368 423.637,-229.323"/>
</g>
<!-- Node8 -->
<g id="node4" class="node"><title>Node8</title>
<g id="a_node4"><a xlink:href="arch_2arm64-linux_2odp_2api_2abi_2spinlock__recursive_8h_source.html" target="_top" xlink:title="spinlock_recursive.h">
<polygon fill="white" stroke="black" points="124,-168.5 124,-187.5 230,-187.5 230,-168.5 124,-168.5"/>
<text text-anchor="middle" x="177" y="-175.5" font-family="Helvetica,sans-Serif" font-size="10.00">spinlock_recursive.h</text>
</a>
</g>
</g>
<!-- Node6&#45;&gt;Node8 -->
<g id="edge3" class="edge"><title>Node6&#45;&gt;Node8</title>
<path fill="none" stroke="midnightblue" d="M427.665,-222.664C369.08,-212.459 280.555,-197.039 225.891,-187.516"/>
<polygon fill="midnightblue" stroke="midnightblue" points="427.427,-226.175 437.88,-224.444 428.629,-219.279 427.427,-226.175"/>
</g>
<!-- Node9 -->
<g id="node5" class="node"><title>Node9</title>
<g id="a_node5"><a xlink:href="arch_2default-linux_2odp_2api_2abi_2spinlock__recursive_8h_source.html" target="_top" xlink:title="spinlock_recursive.h">
<polygon fill="white" stroke="black" points="248,-168.5 248,-187.5 354,-187.5 354,-168.5 248,-168.5"/>
<text text-anchor="middle" x="301" y="-175.5" font-family="Helvetica,sans-Serif" font-size="10.00">spinlock_recursive.h</text>
</a>
</g>
</g>
<!-- Node6&#45;&gt;Node9 -->
<g id="edge4" class="edge"><title>Node6&#45;&gt;Node9</title>
<path fill="none" stroke="midnightblue" d="M447.622,-221.568C412.534,-211.381 361.979,-196.703 330.334,-187.516"/>
<polygon fill="midnightblue" stroke="midnightblue" points="446.948,-225.017 457.528,-224.444 448.9,-218.294 446.948,-225.017"/>
</g>
<!-- Node10 -->
<g id="node6" class="node"><title>Node10</title>
<g id="a_node6"><a xlink:href="arch_2mips64-linux_2odp_2api_2abi_2spinlock__recursive_8h_source.html" target="_top" xlink:title="spinlock_recursive.h">
<polygon fill="white" stroke="black" points="372,-168.5 372,-187.5 478,-187.5 478,-168.5 372,-168.5"/>
<text text-anchor="middle" x="425" y="-175.5" font-family="Helvetica,sans-Serif" font-size="10.00">spinlock_recursive.h</text>
</a>
</g>
</g>
<!-- Node6&#45;&gt;Node10 -->
<g id="edge5" class="edge"><title>Node6&#45;&gt;Node10</title>
<path fill="none" stroke="midnightblue" d="M469.246,-217.537C458.192,-207.909 444.369,-195.869 435.143,-187.834"/>
<polygon fill="midnightblue" stroke="midnightblue" points="467.199,-220.395 477.039,-224.324 471.797,-215.117 467.199,-220.395"/>
</g>
<!-- Node11 -->
<g id="node7" class="node"><title>Node11</title>
<g id="a_node7"><a xlink:href="arch_2power64-linux_2odp_2api_2abi_2spinlock__recursive_8h_source.html" target="_top" xlink:title="spinlock_recursive.h">
<polygon fill="white" stroke="black" points="496,-168.5 496,-187.5 602,-187.5 602,-168.5 496,-168.5"/>
<text text-anchor="middle" x="549" y="-175.5" font-family="Helvetica,sans-Serif" font-size="10.00">spinlock_recursive.h</text>
</a>
</g>
</g>
<!-- Node6&#45;&gt;Node11 -->
<g id="edge6" class="edge"><title>Node6&#45;&gt;Node11</title>
<path fill="none" stroke="midnightblue" d="M504.754,-217.537C515.808,-207.909 529.631,-195.869 538.857,-187.834"/>
<polygon fill="midnightblue" stroke="midnightblue" points="502.203,-215.117 496.961,-224.324 506.801,-220.395 502.203,-215.117"/>
</g>
<!-- Node12 -->
<g id="node8" class="node"><title>Node12</title>
<g id="a_node8"><a xlink:href="arch_2x86__32-linux_2odp_2api_2abi_2spinlock__recursive_8h_source.html" target="_top" xlink:title="spinlock_recursive.h">
<polygon fill="white" stroke="black" points="620,-168.5 620,-187.5 726,-187.5 726,-168.5 620,-168.5"/>
<text text-anchor="middle" x="673" y="-175.5" font-family="Helvetica,sans-Serif" font-size="10.00">spinlock_recursive.h</text>
</a>
</g>
</g>
<!-- Node6&#45;&gt;Node12 -->
<g id="edge7" class="edge"><title>Node6&#45;&gt;Node12</title>
<path fill="none" stroke="midnightblue" d="M526.378,-221.568C561.466,-211.381 612.021,-196.703 643.666,-187.516"/>
<polygon fill="midnightblue" stroke="midnightblue" points="525.1,-218.294 516.472,-224.444 527.052,-225.017 525.1,-218.294"/>
</g>
<!-- Node13 -->
<g id="node9" class="node"><title>Node13</title>
<g id="a_node9"><a xlink:href="arch_2x86__64-linux_2odp_2api_2abi_2spinlock__recursive_8h_source.html" target="_top" xlink:title="spinlock_recursive.h">
<polygon fill="white" stroke="black" points="744,-168.5 744,-187.5 850,-187.5 850,-168.5 744,-168.5"/>
<text text-anchor="middle" x="797" y="-175.5" font-family="Helvetica,sans-Serif" font-size="10.00">spinlock_recursive.h</text>
</a>
</g>
</g>
<!-- Node6&#45;&gt;Node13 -->
<g id="edge8" class="edge"><title>Node6&#45;&gt;Node13</title>
<path fill="none" stroke="midnightblue" d="M546.335,-222.664C604.92,-212.459 693.445,-197.039 748.109,-187.516"/>
<polygon fill="midnightblue" stroke="midnightblue" points="545.371,-219.279 536.12,-224.444 546.573,-226.175 545.371,-219.279"/>
</g>
<!-- Node14 -->
<g id="node10" class="node"><title>Node14</title>
<g id="a_node10"><a xlink:href="api_2spinlock__recursive_8h.html" target="_top" xlink:title="ODP resursive spinlock. ">
<polygon fill="white" stroke="black" points="744,-112.5 744,-131.5 850,-131.5 850,-112.5 744,-112.5"/>
<text text-anchor="middle" x="797" y="-119.5" font-family="Helvetica,sans-Serif" font-size="10.00">spinlock_recursive.h</text>
</a>
</g>
</g>
<!-- Node13&#45;&gt;Node14 -->
<g id="edge9" class="edge"><title>Node13&#45;&gt;Node14</title>
<path fill="none" stroke="midnightblue" d="M797,-157.805C797,-148.91 797,-138.78 797,-131.751"/>
<polygon fill="midnightblue" stroke="midnightblue" points="793.5,-158.083 797,-168.083 800.5,-158.083 793.5,-158.083"/>
</g>
<!-- Node14&#45;&gt;Node15 -->
<g id="edge10" class="edge"><title>Node14&#45;&gt;Node15</title>
<path fill="none" stroke="midnightblue" d="M809.7,-103.855C816.626,-94.5048 824.906,-83.3265 830.518,-75.7511"/>
<polygon fill="midnightblue" stroke="midnightblue" points="806.745,-101.964 803.605,-112.083 812.37,-106.131 806.745,-101.964"/>
</g>
<!-- Node16 -->
<g id="node12" class="node"><title>Node16</title>
<g id="a_node12"><a xlink:href="odp_8h.html" target="_top" xlink:title="WARNING: THIS FILE IS DEPRECATED AND WILL BE REMOVED!!! ODP APPLICATIONS SHOULD NOW INCLUDE odp_api...">
<polygon fill="white" stroke="black" points="816.5,-0.5 816.5,-19.5 857.5,-19.5 857.5,-0.5 816.5,-0.5"/>
<text text-anchor="middle" x="837" y="-7.5" font-family="Helvetica,sans-Serif" font-size="10.00">odp.h</text>
</a>
</g>
</g>
<!-- Node15&#45;&gt;Node16 -->
<g id="edge11" class="edge"><title>Node15&#45;&gt;Node16</title>
<path fill="none" stroke="midnightblue" d="M837,-45.8045C837,-36.9102 837,-26.7798 837,-19.7511"/>
<polygon fill="midnightblue" stroke="midnightblue" points="833.5,-46.083 837,-56.083 840.5,-46.083 833.5,-46.083"/>
</g>
</g>
</svg>
