<?xml version="1.0" encoding="UTF-8" standalone="no"?>
<!DOCTYPE svg PUBLIC "-//W3C//DTD SVG 1.1//EN"
 "http://www.w3.org/Graphics/SVG/1.1/DTD/svg11.dtd">
<!-- Generated by graphviz version 2.36.0 (20140111.2315)
 -->
<!-- Title: packet_flags.h Pages: 1 -->
<svg width="865pt" height="432pt"
 viewBox="0.00 0.00 865.00 432.00" xmlns="http://www.w3.org/2000/svg" xmlns:xlink="http://www.w3.org/1999/xlink">
<g id="graph0" class="graph" transform="scale(1 1) rotate(0) translate(4 428)">
<title>packet_flags.h</title>
<polygon fill="white" stroke="none" points="-4,4 -4,-428 861,-428 861,4 -4,4"/>
<!-- Node0 -->
<g id="node1" class="node"><title>Node0</title>
<polygon fill="#bfbfbf" stroke="black" points="67,-404.5 67,-423.5 147,-423.5 147,-404.5 67,-404.5"/>
<text text-anchor="middle" x="107" y="-411.5" font-family="Helvetica,sans-Serif" font-size="10.00">packet_flags.h</text>
</g>
<!-- Node1 -->
<g id="node2" class="node"><title>Node1</title>
<polygon fill="white" stroke="#bfbfbf" points="0,-337 0,-367 96,-367 96,-337 0,-337"/>
<text text-anchor="start" x="8" y="-355" font-family="Helvetica,sans-Serif" font-size="10.00">odp/api/abi/packet</text>
<text text-anchor="middle" x="48" y="-344" font-family="Helvetica,sans-Serif" font-size="10.00">_flags.h</text>
</g>
<!-- Node0&#45;&gt;Node1 -->
<g id="edge1" class="edge"><title>Node0&#45;&gt;Node1</title>
<path fill="none" stroke="midnightblue" d="M98.5467,-404.403C90.8547,-396.581 79.1792,-384.708 68.9867,-374.342"/>
<polygon fill="midnightblue" stroke="midnightblue" points="71.4122,-371.817 61.9051,-367.141 66.421,-376.725 71.4122,-371.817"/>
</g>
<!-- Node2 -->
<g id="node3" class="node"><title>Node2</title>
<g id="a_node3"><a xlink:href="api_2spec_2packet__flags_8h.html" target="_top" xlink:title="ODP packet flags. ">
<polygon fill="white" stroke="black" points="114,-337 114,-367 218,-367 218,-337 114,-337"/>
<text text-anchor="start" x="122" y="-355" font-family="Helvetica,sans-Serif" font-size="10.00">odp/api/spec/packet</text>
<text text-anchor="middle" x="166" y="-344" font-family="Helvetica,sans-Serif" font-size="10.00">_flags.h</text>
</a>
</g>
</g>
<!-- Node0&#45;&gt;Node2 -->
<g id="edge2" class="edge"><title>Node0&#45;&gt;Node2</title>
<path fill="none" stroke="midnightblue" d="M115.453,-404.403C123.145,-396.581 134.821,-384.708 145.013,-374.342"/>
<polygon fill="midnightblue" stroke="midnightblue" points="147.579,-376.725 152.095,-367.141 142.588,-371.817 147.579,-376.725"/>
</g>
<!-- Node3 -->
<g id="node4" class="node"><title>Node3</title>
<g id="a_node4"><a xlink:href="visibility__begin_8h_source.html" target="_top" xlink:title="odp/visibility_begin.h">
<polygon fill="white" stroke="black" points="464.5,-0.5 464.5,-19.5 571.5,-19.5 571.5,-0.5 464.5,-0.5"/>
<text text-anchor="middle" x="518" y="-7.5" font-family="Helvetica,sans-Serif" font-size="10.00">odp/visibility_begin.h</text>
</a>
</g>
</g>
<!-- Node2&#45;&gt;Node3 -->
<g id="edge3" class="edge"><title>Node2&#45;&gt;Node3</title>
<path fill="none" stroke="midnightblue" d="M218.221,-347.745C379.199,-337.021 857,-299.737 857,-235 857,-235 857,-235 857,-121 857,-63.7797 680.05,-31.823 581.836,-18.4926"/>
<polygon fill="midnightblue" stroke="midnightblue" points="582.09,-14.9957 571.716,-17.1471 581.167,-21.9346 582.09,-14.9957"/>
</g>
<!-- Node4 -->
<g id="node5" class="node"><title>Node4</title>
<g id="a_node5"><a xlink:href="api_2std__types_8h.html" target="_top" xlink:title="Standard C language types and definitions for ODP. ">
<polygon fill="white" stroke="black" points="160,-112.5 160,-131.5 262,-131.5 262,-112.5 160,-112.5"/>
<text text-anchor="middle" x="211" y="-119.5" font-family="Helvetica,sans-Serif" font-size="10.00">odp/api/std_types.h</text>
</a>
</g>
</g>
<!-- Node2&#45;&gt;Node4 -->
<g id="edge4" class="edge"><title>Node2&#45;&gt;Node4</title>
<path fill="none" stroke="midnightblue" d="M148.596,-336.921C123.717,-314.993 81.7321,-270.362 89,-224 93.0489,-198.172 89.4356,-187.364 107,-168 121.473,-152.044 142.593,-141.505 162.025,-134.668"/>
<polygon fill="midnightblue" stroke="midnightblue" points="163.27,-137.943 171.689,-131.511 161.096,-131.289 163.27,-137.943"/>
</g>
<!-- Node8 -->
<g id="node9" class="node"><title>Node8</title>
<g id="a_node9"><a xlink:href="visibility__end_8h_source.html" target="_top" xlink:title="odp/visibility_end.h">
<polygon fill="white" stroke="black" points="70,-0.5 70,-19.5 170,-19.5 170,-0.5 70,-0.5"/>
<text text-anchor="middle" x="120" y="-7.5" font-family="Helvetica,sans-Serif" font-size="10.00">odp/visibility_end.h</text>
</a>
</g>
</g>
<!-- Node2&#45;&gt;Node8 -->
<g id="edge26" class="edge"><title>Node2&#45;&gt;Node8</title>
<path fill="none" stroke="midnightblue" d="M113.61,-336.85C66.9473,-320.691 6,-289.21 6,-235 6,-235 6,-235 6,-121 6,-74.1149 56.5515,-40.8944 90.3292,-23.9302"/>
<polygon fill="midnightblue" stroke="midnightblue" points="91.8676,-27.0742 99.3555,-19.5787 88.8277,-20.7687 91.8676,-27.0742"/>
</g>
<!-- Node9 -->
<g id="node10" class="node"><title>Node9</title>
<g id="a_node10"><a xlink:href="api_2packet_8h.html" target="_top" xlink:title="ODP packet descriptor. ">
<polygon fill="white" stroke="black" points="306.5,-280.5 306.5,-299.5 395.5,-299.5 395.5,-280.5 306.5,-280.5"/>
<text text-anchor="middle" x="351" y="-287.5" font-family="Helvetica,sans-Serif" font-size="10.00">odp/api/packet.h</text>
</a>
</g>
</g>
<!-- Node2&#45;&gt;Node9 -->
<g id="edge10" class="edge"><title>Node2&#45;&gt;Node9</title>
<path fill="none" stroke="midnightblue" d="M209.374,-336.933C241.518,-326.508 284.811,-312.467 315.038,-302.663"/>
<polygon fill="midnightblue" stroke="midnightblue" points="316.32,-305.927 324.753,-299.513 314.161,-299.269 316.32,-305.927"/>
</g>
<!-- Node5 -->
<g id="node6" class="node"><title>Node5</title>
<polygon fill="white" stroke="#bfbfbf" points="292,-56.5 292,-75.5 410,-75.5 410,-56.5 292,-56.5"/>
<text text-anchor="middle" x="351" y="-63.5" font-family="Helvetica,sans-Serif" font-size="10.00">odp/api/abi/std_types.h</text>
</g>
<!-- Node4&#45;&gt;Node5 -->
<g id="edge5" class="edge"><title>Node4&#45;&gt;Node5</title>
<path fill="none" stroke="midnightblue" d="M233.183,-112.444C256.428,-103.478 293.149,-89.314 319.415,-79.1827"/>
<polygon fill="midnightblue" stroke="midnightblue" points="320.85,-82.3807 328.92,-75.5164 318.331,-75.8497 320.85,-82.3807"/>
</g>
<!-- Node6 -->
<g id="node7" class="node"><title>Node6</title>
<g id="a_node7"><a xlink:href="api_2spec_2std__types_8h.html" target="_top" xlink:title="Standard C language types and definitions for ODP. ">
<polygon fill="white" stroke="black" points="148,-56.5 148,-75.5 274,-75.5 274,-56.5 148,-56.5"/>
<text text-anchor="middle" x="211" y="-63.5" font-family="Helvetica,sans-Serif" font-size="10.00">odp/api/spec/std_types.h</text>
</a>
</g>
</g>
<!-- Node4&#45;&gt;Node6 -->
<g id="edge6" class="edge"><title>Node4&#45;&gt;Node6</title>
<path fill="none" stroke="midnightblue" d="M211,-112.083C211,-105.006 211,-94.8611 211,-85.9865"/>
<polygon fill="midnightblue" stroke="midnightblue" points="214.5,-85.751 211,-75.7511 207.5,-85.7511 214.5,-85.751"/>
</g>
<!-- Node6&#45;&gt;Node3 -->
<g id="edge7" class="edge"><title>Node6&#45;&gt;Node3</title>
<path fill="none" stroke="midnightblue" d="M259.645,-56.4435C313.874,-46.9049 401.548,-31.4834 459.482,-21.293"/>
<polygon fill="midnightblue" stroke="midnightblue" points="460.34,-24.696 469.583,-19.5164 459.127,-17.8018 460.34,-24.696"/>
</g>
<!-- Node7 -->
<g id="node8" class="node"><title>Node7</title>
<polygon fill="white" stroke="#bfbfbf" points="188.5,-0.5 188.5,-19.5 237.5,-19.5 237.5,-0.5 188.5,-0.5"/>
<text text-anchor="middle" x="213" y="-7.5" font-family="Helvetica,sans-Serif" font-size="10.00">stdint.h</text>
</g>
<!-- Node6&#45;&gt;Node7 -->
<g id="edge8" class="edge"><title>Node6&#45;&gt;Node7</title>
<path fill="none" stroke="midnightblue" d="M211.33,-56.083C211.592,-49.0059 211.968,-38.8611 212.297,-29.9865"/>
<polygon fill="midnightblue" stroke="midnightblue" points="215.803,-29.8738 212.676,-19.7511 208.808,-29.6147 215.803,-29.8738"/>
</g>
<!-- Node6&#45;&gt;Node8 -->
<g id="edge9" class="edge"><title>Node6&#45;&gt;Node8</title>
<path fill="none" stroke="midnightblue" d="M196.379,-56.324C182.051,-47.8215 159.987,-34.7288 143.251,-24.7975"/>
<polygon fill="midnightblue" stroke="midnightblue" points="144.97,-21.7478 134.584,-19.6545 141.398,-27.7677 144.97,-21.7478"/>
</g>
<!-- Node9&#45;&gt;Node4 -->
<g id="edge11" class="edge"><title>Node9&#45;&gt;Node4</title>
<path fill="none" stroke="midnightblue" d="M306.328,-287.586C241.606,-284.49 126.67,-274.704 101,-244 67.1407,-203.502 140.496,-158.001 183.184,-136.128"/>
<polygon fill="midnightblue" stroke="midnightblue" points="184.901,-139.183 192.284,-131.584 181.773,-132.921 184.901,-139.183"/>
</g>
<!-- Node10 -->
<g id="node11" class="node"><title>Node10</title>
<polygon fill="white" stroke="#bfbfbf" points="110.5,-224.5 110.5,-243.5 209.5,-243.5 209.5,-224.5 110.5,-224.5"/>
<text text-anchor="middle" x="160" y="-231.5" font-family="Helvetica,sans-Serif" font-size="10.00">odp/api/abi/event.h</text>
</g>
<!-- Node9&#45;&gt;Node10 -->
<g id="edge12" class="edge"><title>Node9&#45;&gt;Node10</title>
<path fill="none" stroke="midnightblue" d="M320.735,-280.444C288.045,-271.201 235.818,-256.436 199.817,-246.257"/>
<polygon fill="midnightblue" stroke="midnightblue" points="200.698,-242.869 190.123,-243.516 198.794,-249.605 200.698,-242.869"/>
</g>
<!-- Node11 -->
<g id="node12" class="node"><title>Node11</title>
<polygon fill="white" stroke="#bfbfbf" points="227.5,-224.5 227.5,-243.5 344.5,-243.5 344.5,-224.5 227.5,-224.5"/>
<text text-anchor="middle" x="286" y="-231.5" font-family="Helvetica,sans-Serif" font-size="10.00">odp/api/abi/packet_io.h</text>
</g>
<!-- Node9&#45;&gt;Node11 -->
<g id="edge13" class="edge"><title>Node9&#45;&gt;Node11</title>
<path fill="none" stroke="midnightblue" d="M340.557,-280.324C330.854,-272.263 316.185,-260.077 304.5,-250.369"/>
<polygon fill="midnightblue" stroke="midnightblue" points="306.562,-247.532 296.633,-243.834 302.089,-252.916 306.562,-247.532"/>
</g>
<!-- Node12 -->
<g id="node13" class="node"><title>Node12</title>
<polygon fill="white" stroke="#bfbfbf" points="363,-224.5 363,-243.5 467,-243.5 467,-224.5 363,-224.5"/>
<text text-anchor="middle" x="415" y="-231.5" font-family="Helvetica,sans-Serif" font-size="10.00">odp/api/abi/packet.h</text>
</g>
<!-- Node9&#45;&gt;Node12 -->
<g id="edge14" class="edge"><title>Node9&#45;&gt;Node12</title>
<path fill="none" stroke="midnightblue" d="M361.283,-280.324C370.836,-272.263 385.28,-260.077 396.784,-250.369"/>
<polygon fill="midnightblue" stroke="midnightblue" points="399.144,-252.958 404.53,-243.834 394.63,-247.608 399.144,-252.958"/>
</g>
<!-- Node13 -->
<g id="node14" class="node"><title>Node13</title>
<polygon fill="white" stroke="#bfbfbf" points="617,-224.5 617,-243.5 717,-243.5 717,-224.5 617,-224.5"/>
<text text-anchor="middle" x="667" y="-231.5" font-family="Helvetica,sans-Serif" font-size="10.00">odp/api/abi/buffer.h</text>
</g>
<!-- Node9&#45;&gt;Node13 -->
<g id="edge15" class="edge"><title>Node9&#45;&gt;Node13</title>
<path fill="none" stroke="midnightblue" d="M395.605,-281.378C450.962,-271.918 545.57,-255.751 607.182,-245.222"/>
<polygon fill="midnightblue" stroke="midnightblue" points="607.885,-248.653 617.153,-243.518 606.706,-241.753 607.885,-248.653"/>
</g>
<!-- Node14 -->
<g id="node15" class="node"><title>Node14</title>
<polygon fill="white" stroke="#bfbfbf" points="735.5,-224.5 735.5,-243.5 828.5,-243.5 828.5,-224.5 735.5,-224.5"/>
<text text-anchor="middle" x="782" y="-231.5" font-family="Helvetica,sans-Serif" font-size="10.00">odp/api/abi/pool.h</text>
</g>
<!-- Node9&#45;&gt;Node14 -->
<g id="edge16" class="edge"><title>Node9&#45;&gt;Node14</title>
<path fill="none" stroke="midnightblue" d="M395.524,-284.239C463.981,-276.792 599.457,-261.549 725.087,-244.077"/>
<polygon fill="midnightblue" stroke="midnightblue" points="725.851,-247.505 735.27,-242.653 724.882,-240.572 725.851,-247.505"/>
</g>
<!-- Node15 -->
<g id="node16" class="node"><title>Node15</title>
<g id="a_node16"><a xlink:href="api_2spec_2packet_8h.html" target="_top" xlink:title="ODP packet descriptor. ">
<polygon fill="white" stroke="black" points="485.5,-224.5 485.5,-243.5 598.5,-243.5 598.5,-224.5 485.5,-224.5"/>
<text text-anchor="middle" x="542" y="-231.5" font-family="Helvetica,sans-Serif" font-size="10.00">odp/api/spec/packet.h</text>
</a>
</g>
</g>
<!-- Node9&#45;&gt;Node15 -->
<g id="edge17" class="edge"><title>Node9&#45;&gt;Node15</title>
<path fill="none" stroke="midnightblue" d="M381.265,-280.444C413.955,-271.201 466.182,-256.436 502.183,-246.257"/>
<polygon fill="midnightblue" stroke="midnightblue" points="503.206,-249.605 511.877,-243.516 501.302,-242.869 503.206,-249.605"/>
</g>
<!-- Node15&#45;&gt;Node3 -->
<g id="edge18" class="edge"><title>Node15&#45;&gt;Node3</title>
<path fill="none" stroke="midnightblue" d="M542.987,-224.382C545.702,-198.492 552.179,-119.286 538,-56 535.897,-46.6147 531.78,-36.7878 527.825,-28.72"/>
<polygon fill="midnightblue" stroke="midnightblue" points="530.798,-26.851 523.066,-19.6071 524.593,-30.0914 530.798,-26.851"/>
</g>
<!-- Node15&#45;&gt;Node8 -->
<g id="edge25" class="edge"><title>Node15&#45;&gt;Node8</title>
<path fill="none" stroke="midnightblue" d="M499.058,-224.47C402.733,-204.978 175.887,-156.936 151,-132 123.645,-104.59 119.369,-56.5437 119.285,-29.9879"/>
<polygon fill="midnightblue" stroke="midnightblue" points="122.789,-29.8059 119.462,-19.7469 115.79,-29.685 122.789,-29.8059"/>
</g>
<!-- Node16 -->
<g id="node17" class="node"><title>Node16</title>
<g id="a_node17"><a xlink:href="api_2time_8h.html" target="_top" xlink:title="ODP time. ">
<polygon fill="white" stroke="black" points="402,-168.5 402,-187.5 480,-187.5 480,-168.5 402,-168.5"/>
<text text-anchor="middle" x="441" y="-175.5" font-family="Helvetica,sans-Serif" font-size="10.00">odp/api/time.h</text>
</a>
</g>
</g>
<!-- Node15&#45;&gt;Node16 -->
<g id="edge19" class="edge"><title>Node15&#45;&gt;Node16</title>
<path fill="none" stroke="midnightblue" d="M525.773,-224.324C509.649,-215.703 484.7,-202.364 466.036,-192.386"/>
<polygon fill="midnightblue" stroke="midnightblue" points="467.656,-189.283 457.187,-187.655 464.356,-195.456 467.656,-189.283"/>
</g>
<!-- Node16&#45;&gt;Node4 -->
<g id="edge20" class="edge"><title>Node16&#45;&gt;Node4</title>
<path fill="none" stroke="midnightblue" d="M404.556,-168.444C364.601,-159.063 300.413,-143.993 257.015,-133.804"/>
<polygon fill="midnightblue" stroke="midnightblue" points="257.809,-130.395 247.274,-131.516 256.209,-137.21 257.809,-130.395"/>
</g>
<!-- Node17 -->
<g id="node18" class="node"><title>Node17</title>
<polygon fill="white" stroke="#bfbfbf" points="357,-112.5 357,-131.5 451,-131.5 451,-112.5 357,-112.5"/>
<text text-anchor="middle" x="404" y="-119.5" font-family="Helvetica,sans-Serif" font-size="10.00">odp/api/abi/time.h</text>
</g>
<!-- Node16&#45;&gt;Node17 -->
<g id="edge21" class="edge"><title>Node16&#45;&gt;Node17</title>
<path fill="none" stroke="midnightblue" d="M434.89,-168.083C429.718,-160.534 422.154,-149.495 415.806,-140.23"/>
<polygon fill="midnightblue" stroke="midnightblue" points="418.536,-138.022 409.996,-131.751 412.761,-141.979 418.536,-138.022"/>
</g>
<!-- Node18 -->
<g id="node19" class="node"><title>Node18</title>
<g id="a_node19"><a xlink:href="api_2spec_2time_8h.html" target="_top" xlink:title="ODP time. ">
<polygon fill="white" stroke="black" points="428,-56.5 428,-75.5 530,-75.5 530,-56.5 428,-56.5"/>
<text text-anchor="middle" x="479" y="-63.5" font-family="Helvetica,sans-Serif" font-size="10.00">odp/api/spec/time.h</text>
</a>
</g>
</g>
<!-- Node16&#45;&gt;Node18 -->
<g id="edge22" class="edge"><title>Node16&#45;&gt;Node18</title>
<path fill="none" stroke="midnightblue" d="M444.941,-168.489C449.008,-159.525 455.393,-144.943 460,-132 465.544,-116.424 470.73,-98.3467 474.279,-85.2161"/>
<polygon fill="midnightblue" stroke="midnightblue" points="477.672,-86.076 476.847,-75.5133 470.905,-84.2851 477.672,-86.076"/>
</g>
<!-- Node18&#45;&gt;Node3 -->
<g id="edge23" class="edge"><title>Node18&#45;&gt;Node3</title>
<path fill="none" stroke="midnightblue" d="M485.44,-56.083C490.949,-48.4554 499.031,-37.2645 505.765,-27.9408"/>
<polygon fill="midnightblue" stroke="midnightblue" points="508.662,-29.9071 511.68,-19.7511 502.987,-25.8087 508.662,-29.9071"/>
</g>
<!-- Node18&#45;&gt;Node8 -->
<g id="edge24" class="edge"><title>Node18&#45;&gt;Node8</title>
<path fill="none" stroke="midnightblue" d="M427.945,-57.3205C362.538,-47.482 249.347,-30.4561 179.925,-20.0139"/>
<polygon fill="midnightblue" stroke="midnightblue" points="180.421,-16.5491 170.011,-18.5226 179.38,-23.4712 180.421,-16.5491"/>
</g>
</g>
</svg>
