<?xml version="1.0" encoding="UTF-8" standalone="no"?>
<!DOCTYPE svg PUBLIC "-//W3C//DTD SVG 1.1//EN"
 "http://www.w3.org/Graphics/SVG/1.1/DTD/svg11.dtd">
<!-- Generated by graphviz version 2.36.0 (20140111.2315)
 -->
<!-- Title: thrmask.h Pages: 1 -->
<svg width="100pt" height="308pt"
 viewBox="0.00 0.00 100.00 308.00" xmlns="http://www.w3.org/2000/svg" xmlns:xlink="http://www.w3.org/1999/xlink">
<g id="graph0" class="graph" transform="scale(1 1) rotate(0) translate(4 304)">
<title>thrmask.h</title>
<polygon fill="white" stroke="none" points="-4,4 -4,-304 96,-304 96,4 -4,4"/>
<!-- Node7 -->
<g id="node1" class="node"><title>Node7</title>
<polygon fill="#bfbfbf" stroke="black" points="32,-280.5 32,-299.5 92,-299.5 92,-280.5 32,-280.5"/>
<text text-anchor="middle" x="62" y="-287.5" font-family="Helvetica,sans-Serif" font-size="10.00">thrmask.h</text>
</g>
<!-- Node8 -->
<g id="node2" class="node"><title>Node8</title>
<g id="a_node2"><a xlink:href="api_2thrmask_8h.html" target="_top" xlink:title="ODP thread masks. ">
<polygon fill="white" stroke="black" points="32,-224.5 32,-243.5 92,-243.5 92,-224.5 32,-224.5"/>
<text text-anchor="middle" x="62" y="-231.5" font-family="Helvetica,sans-Serif" font-size="10.00">thrmask.h</text>
</a>
</g>
</g>
<!-- Node7&#45;&gt;Node8 -->
<g id="edge1" class="edge"><title>Node7&#45;&gt;Node8</title>
<path fill="none" stroke="midnightblue" d="M62,-269.805C62,-260.91 62,-250.78 62,-243.751"/>
<polygon fill="midnightblue" stroke="midnightblue" points="58.5001,-270.083 62,-280.083 65.5001,-270.083 58.5001,-270.083"/>
</g>
<!-- Node9 -->
<g id="node3" class="node"><title>Node9</title>
<g id="a_node3"><a xlink:href="api_2spec_2schedule_8h.html" target="_top" xlink:title="ODP schedule. ">
<polygon fill="white" stroke="black" points="0,-168.5 0,-187.5 64,-187.5 64,-168.5 0,-168.5"/>
<text text-anchor="middle" x="32" y="-175.5" font-family="Helvetica,sans-Serif" font-size="10.00">schedule.h</text>
</a>
</g>
</g>
<!-- Node8&#45;&gt;Node9 -->
<g id="edge2" class="edge"><title>Node8&#45;&gt;Node9</title>
<path fill="none" stroke="midnightblue" d="M52.1526,-215.275C47.0252,-206.045 40.9835,-195.17 36.8617,-187.751"/>
<polygon fill="midnightblue" stroke="midnightblue" points="49.1301,-217.041 57.0461,-224.083 55.2492,-213.642 49.1301,-217.041"/>
</g>
<!-- Node11 -->
<g id="node5" class="node"><title>Node11</title>
<g id="a_node5"><a xlink:href="odp__api_8h.html" target="_top" xlink:title="The OpenDataPlane API. ">
<polygon fill="white" stroke="black" points="32.5,-56.5 32.5,-75.5 91.5,-75.5 91.5,-56.5 32.5,-56.5"/>
<text text-anchor="middle" x="62" y="-63.5" font-family="Helvetica,sans-Serif" font-size="10.00">odp_api.h</text>
</a>
</g>
</g>
<!-- Node8&#45;&gt;Node11 -->
<g id="edge6" class="edge"><title>Node8&#45;&gt;Node11</title>
<path fill="none" stroke="midnightblue" d="M67.5399,-214.656C69.7077,-206.566 71.9288,-196.893 73,-188 77.0393,-154.465 77.0393,-145.535 73,-112 71.4419,-99.0646 67.4508,-84.4802 64.7299,-75.5139"/>
<polygon fill="midnightblue" stroke="midnightblue" points="64.1132,-213.909 64.7299,-224.486 70.8437,-215.833 64.1132,-213.909"/>
</g>
<!-- Node10 -->
<g id="node4" class="node"><title>Node10</title>
<g id="a_node4"><a xlink:href="api_2schedule_8h.html" target="_top" xlink:title="ODP schedule. ">
<polygon fill="white" stroke="black" points="0,-112.5 0,-131.5 64,-131.5 64,-112.5 0,-112.5"/>
<text text-anchor="middle" x="32" y="-119.5" font-family="Helvetica,sans-Serif" font-size="10.00">schedule.h</text>
</a>
</g>
</g>
<!-- Node9&#45;&gt;Node10 -->
<g id="edge3" class="edge"><title>Node9&#45;&gt;Node10</title>
<path fill="none" stroke="midnightblue" d="M32,-157.805C32,-148.91 32,-138.78 32,-131.751"/>
<polygon fill="midnightblue" stroke="midnightblue" points="28.5001,-158.083 32,-168.083 35.5001,-158.083 28.5001,-158.083"/>
</g>
<!-- Node10&#45;&gt;Node11 -->
<g id="edge4" class="edge"><title>Node10&#45;&gt;Node11</title>
<path fill="none" stroke="midnightblue" d="M41.8474,-103.275C46.9748,-94.0454 53.0165,-83.1703 57.1383,-75.7511"/>
<polygon fill="midnightblue" stroke="midnightblue" points="38.7508,-101.642 36.9539,-112.083 44.8699,-105.041 38.7508,-101.642"/>
</g>
<!-- Node12 -->
<g id="node6" class="node"><title>Node12</title>
<g id="a_node6"><a xlink:href="odp_8h.html" target="_top" xlink:title="WARNING: THIS FILE IS DEPRECATED AND WILL BE REMOVED!!! ODP APPLICATIONS SHOULD NOW INCLUDE odp_api...">
<polygon fill="white" stroke="black" points="41.5,-0.5 41.5,-19.5 82.5,-19.5 82.5,-0.5 41.5,-0.5"/>
<text text-anchor="middle" x="62" y="-7.5" font-family="Helvetica,sans-Serif" font-size="10.00">odp.h</text>
</a>
</g>
</g>
<!-- Node11&#45;&gt;Node12 -->
<g id="edge5" class="edge"><title>Node11&#45;&gt;Node12</title>
<path fill="none" stroke="midnightblue" d="M62,-45.8045C62,-36.9102 62,-26.7798 62,-19.7511"/>
<polygon fill="midnightblue" stroke="midnightblue" points="58.5001,-46.083 62,-56.083 65.5001,-46.083 58.5001,-46.083"/>
</g>
</g>
</svg>
