<?xml version="1.0" encoding="UTF-8" standalone="no"?>
<!DOCTYPE svg PUBLIC "-//W3C//DTD SVG 1.1//EN"
 "http://www.w3.org/Graphics/SVG/1.1/DTD/svg11.dtd">
<!-- Generated by graphviz version 2.36.0 (20140111.2315)
 -->
<!-- Title: packet.h Pages: 1 -->
<svg width="434pt" height="252pt"
 viewBox="0.00 0.00 433.87 252.00" xmlns="http://www.w3.org/2000/svg" xmlns:xlink="http://www.w3.org/1999/xlink">
<g id="graph0" class="graph" transform="scale(1 1) rotate(0) translate(4 248)">
<title>packet.h</title>
<polygon fill="white" stroke="none" points="-4,4 -4,-248 429.873,-248 429.873,4 -4,4"/>
<!-- Node0 -->
<g id="node1" class="node"><title>Node0</title>
<polygon fill="#bfbfbf" stroke="black" points="163.873,-224.5 163.873,-243.5 217.873,-243.5 217.873,-224.5 163.873,-224.5"/>
<text text-anchor="middle" x="190.873" y="-231.5" font-family="Helvetica,sans-Serif" font-size="10.00">packet.h</text>
</g>
<!-- Node1 -->
<g id="node2" class="node"><title>Node1</title>
<g id="a_node2"><a xlink:href="visibility__begin_8h_source.html" target="_top" xlink:title="odp/visibility_begin.h">
<polygon fill="white" stroke="black" points="9.37272,-0.5 9.37272,-19.5 116.373,-19.5 116.373,-0.5 9.37272,-0.5"/>
<text text-anchor="middle" x="62.8727" y="-7.5" font-family="Helvetica,sans-Serif" font-size="10.00">odp/visibility_begin.h</text>
</a>
</g>
</g>
<!-- Node0&#45;&gt;Node1 -->
<g id="edge1" class="edge"><title>Node0&#45;&gt;Node1</title>
<path fill="none" stroke="midnightblue" d="M172.092,-224.368C131.969,-204.74 38.6353,-152.459 2.87272,-76 -6.83241,-55.2509 15.14,-36.6148 35.1712,-24.6731"/>
<polygon fill="midnightblue" stroke="midnightblue" points="37.0952,-27.6074 44.1174,-19.6739 33.6805,-21.4967 37.0952,-27.6074"/>
</g>
<!-- Node2 -->
<g id="node3" class="node"><title>Node2</title>
<g id="a_node3"><a xlink:href="api_2time_8h.html" target="_top" xlink:title="ODP time. ">
<polygon fill="white" stroke="black" points="151.873,-168.5 151.873,-187.5 229.873,-187.5 229.873,-168.5 151.873,-168.5"/>
<text text-anchor="middle" x="190.873" y="-175.5" font-family="Helvetica,sans-Serif" font-size="10.00">odp/api/time.h</text>
</a>
</g>
</g>
<!-- Node0&#45;&gt;Node2 -->
<g id="edge2" class="edge"><title>Node0&#45;&gt;Node2</title>
<path fill="none" stroke="midnightblue" d="M190.873,-224.083C190.873,-217.006 190.873,-206.861 190.873,-197.986"/>
<polygon fill="midnightblue" stroke="midnightblue" points="194.373,-197.751 190.873,-187.751 187.373,-197.751 194.373,-197.751"/>
</g>
<!-- Node7 -->
<g id="node8" class="node"><title>Node7</title>
<g id="a_node8"><a xlink:href="visibility__end_8h_source.html" target="_top" xlink:title="odp/visibility_end.h">
<polygon fill="white" stroke="black" points="325.873,-0.5 325.873,-19.5 425.873,-19.5 425.873,-0.5 325.873,-0.5"/>
<text text-anchor="middle" x="375.873" y="-7.5" font-family="Helvetica,sans-Serif" font-size="10.00">odp/visibility_end.h</text>
</a>
</g>
</g>
<!-- Node0&#45;&gt;Node7 -->
<g id="edge13" class="edge"><title>Node0&#45;&gt;Node7</title>
<path fill="none" stroke="midnightblue" d="M211.208,-224.467C245.336,-209.449 315.086,-175.7 362.873,-132 385.444,-111.359 393.539,-105.127 402.873,-76 408.266,-59.1705 398.948,-40.6111 389.82,-27.6476"/>
<polygon fill="midnightblue" stroke="midnightblue" points="392.566,-25.4774 383.714,-19.6569 387.004,-29.7277 392.566,-25.4774"/>
</g>
<!-- Node3 -->
<g id="node4" class="node"><title>Node3</title>
<g id="a_node4"><a xlink:href="api_2std__types_8h.html" target="_top" xlink:title="Standard C language types and definitions for ODP. ">
<polygon fill="white" stroke="black" points="139.873,-112.5 139.873,-131.5 241.873,-131.5 241.873,-112.5 139.873,-112.5"/>
<text text-anchor="middle" x="190.873" y="-119.5" font-family="Helvetica,sans-Serif" font-size="10.00">odp/api/std_types.h</text>
</a>
</g>
</g>
<!-- Node2&#45;&gt;Node3 -->
<g id="edge3" class="edge"><title>Node2&#45;&gt;Node3</title>
<path fill="none" stroke="midnightblue" d="M190.873,-168.083C190.873,-161.006 190.873,-150.861 190.873,-141.986"/>
<polygon fill="midnightblue" stroke="midnightblue" points="194.373,-141.751 190.873,-131.751 187.373,-141.751 194.373,-141.751"/>
</g>
<!-- Node8 -->
<g id="node9" class="node"><title>Node8</title>
<polygon fill="white" stroke="#bfbfbf" points="259.873,-112.5 259.873,-131.5 353.873,-131.5 353.873,-112.5 259.873,-112.5"/>
<text text-anchor="middle" x="306.873" y="-119.5" font-family="Helvetica,sans-Serif" font-size="10.00">odp/api/abi/time.h</text>
</g>
<!-- Node2&#45;&gt;Node8 -->
<g id="edge9" class="edge"><title>Node2&#45;&gt;Node8</title>
<path fill="none" stroke="midnightblue" d="M209.253,-168.444C228.089,-159.675 257.604,-145.935 279.252,-135.858"/>
<polygon fill="midnightblue" stroke="midnightblue" points="280.989,-138.91 288.578,-131.516 278.035,-132.564 280.989,-138.91"/>
</g>
<!-- Node9 -->
<g id="node10" class="node"><title>Node9</title>
<g id="a_node10"><a xlink:href="api_2spec_2time_8h.html" target="_top" xlink:title="ODP time. ">
<polygon fill="white" stroke="black" points="11.8727,-56.5 11.8727,-75.5 113.873,-75.5 113.873,-56.5 11.8727,-56.5"/>
<text text-anchor="middle" x="62.8727" y="-63.5" font-family="Helvetica,sans-Serif" font-size="10.00">odp/api/spec/time.h</text>
</a>
</g>
</g>
<!-- Node2&#45;&gt;Node9 -->
<g id="edge10" class="edge"><title>Node2&#45;&gt;Node9</title>
<path fill="none" stroke="midnightblue" d="M178.593,-168.445C166.229,-159.682 146.764,-145.472 130.873,-132 112.128,-116.11 91.9263,-96.4433 78.4562,-82.9295"/>
<polygon fill="midnightblue" stroke="midnightblue" points="80.8851,-80.4081 71.3649,-75.7588 75.9078,-85.3302 80.8851,-80.4081"/>
</g>
<!-- Node4 -->
<g id="node5" class="node"><title>Node4</title>
<polygon fill="white" stroke="#bfbfbf" points="131.873,-56.5 131.873,-75.5 249.873,-75.5 249.873,-56.5 131.873,-56.5"/>
<text text-anchor="middle" x="190.873" y="-63.5" font-family="Helvetica,sans-Serif" font-size="10.00">odp/api/abi/std_types.h</text>
</g>
<!-- Node3&#45;&gt;Node4 -->
<g id="edge4" class="edge"><title>Node3&#45;&gt;Node4</title>
<path fill="none" stroke="midnightblue" d="M190.873,-112.083C190.873,-105.006 190.873,-94.8611 190.873,-85.9865"/>
<polygon fill="midnightblue" stroke="midnightblue" points="194.373,-85.751 190.873,-75.7511 187.373,-85.7511 194.373,-85.751"/>
</g>
<!-- Node5 -->
<g id="node6" class="node"><title>Node5</title>
<g id="a_node6"><a xlink:href="api_2spec_2std__types_8h.html" target="_top" xlink:title="Standard C language types and definitions for ODP. ">
<polygon fill="white" stroke="black" points="267.873,-56.5 267.873,-75.5 393.873,-75.5 393.873,-56.5 267.873,-56.5"/>
<text text-anchor="middle" x="330.873" y="-63.5" font-family="Helvetica,sans-Serif" font-size="10.00">odp/api/spec/std_types.h</text>
</a>
</g>
</g>
<!-- Node3&#45;&gt;Node5 -->
<g id="edge5" class="edge"><title>Node3&#45;&gt;Node5</title>
<path fill="none" stroke="midnightblue" d="M213.056,-112.444C236.301,-103.478 273.022,-89.314 299.288,-79.1827"/>
<polygon fill="midnightblue" stroke="midnightblue" points="300.723,-82.3807 308.793,-75.5164 298.203,-75.8497 300.723,-82.3807"/>
</g>
<!-- Node5&#45;&gt;Node1 -->
<g id="edge6" class="edge"><title>Node5&#45;&gt;Node1</title>
<path fill="none" stroke="midnightblue" d="M288.407,-56.4435C241.459,-46.9839 165.797,-31.7384 115.218,-21.5472"/>
<polygon fill="midnightblue" stroke="midnightblue" points="115.634,-18.0607 105.139,-19.5164 114.251,-24.9228 115.634,-18.0607"/>
</g>
<!-- Node6 -->
<g id="node7" class="node"><title>Node6</title>
<polygon fill="white" stroke="#bfbfbf" points="258.373,-0.5 258.373,-19.5 307.373,-19.5 307.373,-0.5 258.373,-0.5"/>
<text text-anchor="middle" x="282.873" y="-7.5" font-family="Helvetica,sans-Serif" font-size="10.00">stdint.h</text>
</g>
<!-- Node5&#45;&gt;Node6 -->
<g id="edge7" class="edge"><title>Node5&#45;&gt;Node6</title>
<path fill="none" stroke="midnightblue" d="M322.946,-56.083C316.027,-48.2982 305.807,-36.8015 297.421,-27.3665"/>
<polygon fill="midnightblue" stroke="midnightblue" points="299.911,-24.8999 290.651,-19.7511 294.679,-29.5505 299.911,-24.8999"/>
</g>
<!-- Node5&#45;&gt;Node7 -->
<g id="edge8" class="edge"><title>Node5&#45;&gt;Node7</title>
<path fill="none" stroke="midnightblue" d="M338.304,-56.083C344.725,-48.3768 354.178,-37.0333 361.995,-27.6531"/>
<polygon fill="midnightblue" stroke="midnightblue" points="364.867,-29.674 368.58,-19.7511 359.489,-25.1927 364.867,-29.674"/>
</g>
<!-- Node9&#45;&gt;Node1 -->
<g id="edge11" class="edge"><title>Node9&#45;&gt;Node1</title>
<path fill="none" stroke="midnightblue" d="M62.8727,-56.083C62.8727,-49.0059 62.8727,-38.8611 62.8727,-29.9865"/>
<polygon fill="midnightblue" stroke="midnightblue" points="66.3728,-29.751 62.8727,-19.7511 59.3728,-29.7511 66.3728,-29.751"/>
</g>
<!-- Node9&#45;&gt;Node7 -->
<g id="edge12" class="edge"><title>Node9&#45;&gt;Node7</title>
<path fill="none" stroke="midnightblue" d="M112.468,-56.4435C167.872,-46.8851 257.515,-31.4195 316.578,-21.2298"/>
<polygon fill="midnightblue" stroke="midnightblue" points="317.25,-24.6657 326.509,-19.5164 316.059,-17.7676 317.25,-24.6657"/>
</g>
</g>
</svg>
