<?xml version="1.0" encoding="UTF-8" standalone="no"?>
<!DOCTYPE svg PUBLIC "-//W3C//DTD SVG 1.1//EN"
 "http://www.w3.org/Graphics/SVG/1.1/DTD/svg11.dtd">
<!-- Generated by graphviz version 2.36.0 (20140111.2315)
 -->
<!-- Title: arch Pages: 1 -->
<svg width="730pt" height="159pt"
 viewBox="0.00 0.00 730.00 159.00" xmlns="http://www.w3.org/2000/svg" xmlns:xlink="http://www.w3.org/1999/xlink">
<g id="graph0" class="graph" transform="scale(1 1) rotate(0) translate(4 155)">
<title>arch</title>
<polygon fill="white" stroke="none" points="-4,4 -4,-155 726,-155 726,4 -4,4"/>
<g id="clust1" class="cluster"><title>clusterdir_a97ec78d987d17ef5986981beb9a2005</title>
<g id="a_clust1"><a xlink:href="dir_a97ec78d987d17ef5986981beb9a2005.html" target="_top" xlink:title="odp">
<polygon fill="#ddddee" stroke="black" points="8,-56 8,-143 714,-143 714,-56 8,-56"/>
<text text-anchor="middle" x="361" y="-131" font-family="Helvetica,sans-Serif" font-size="10.00">odp</text>
</a>
</g>
</g>
<g id="clust2" class="cluster"><title>clusterdir_4eda4fd55dd0f0d3e72752e79818319a</title>
<g id="a_clust2"><a xlink:href="dir_4eda4fd55dd0f0d3e72752e79818319a.html" target="_top">
<polygon fill="#eeeeff" stroke="black" points="16,-64 16,-116 706,-116 706,-64 16,-64"/>
</a>
</g>
</g>
<!-- dir_4eda4fd55dd0f0d3e72752e79818319a -->
<g id="node1" class="node"><title>dir_4eda4fd55dd0f0d3e72752e79818319a</title>
<text text-anchor="middle" x="671" y="-87.5" font-family="Helvetica,sans-Serif" font-size="10.00">arch</text>
</g>
<!-- dir_052e7602a29a4e1039e7de666bce86ca -->
<g id="node2" class="node"><title>dir_052e7602a29a4e1039e7de666bce86ca</title>
<g id="a_node2"><a xlink:href="dir_052e7602a29a4e1039e7de666bce86ca.html" target="_top" xlink:title="arm32&#45;linux">
<polygon fill="white" stroke="red" points="625.25,-108 558.75,-108 558.75,-72 625.25,-72 625.25,-108"/>
<text text-anchor="middle" x="592" y="-87.5" font-family="Helvetica,sans-Serif" font-size="10.00">arm32&#45;linux</text>
</a>
</g>
</g>
<!-- dir_be9f6d876b8eda462084eff1b3ea4553 -->
<g id="node9" class="node"><title>dir_be9f6d876b8eda462084eff1b3ea4553</title>
<g id="a_node9"><a xlink:href="dir_be9f6d876b8eda462084eff1b3ea4553.html" target="_top" xlink:title="api">
<polygon fill="white" stroke="red" points="360,-36 306,-36 306,-0 360,-0 360,-36"/>
<text text-anchor="middle" x="333" y="-15.5" font-family="Helvetica,sans-Serif" font-size="10.00">api</text>
</a>
</g>
</g>
<!-- dir_052e7602a29a4e1039e7de666bce86ca&#45;&gt;dir_be9f6d876b8eda462084eff1b3ea4553 -->
<g id="edge7" class="edge"><title>dir_052e7602a29a4e1039e7de666bce86ca&#45;&gt;dir_be9f6d876b8eda462084eff1b3ea4553</title>
<path fill="none" stroke="black" d="M573.587,-71.7156C566.408,-65.8644 557.795,-59.8446 549,-56 489.939,-30.1821 414.45,-22.3315 370.143,-19.9744"/>
<polygon fill="black" stroke="black" points="370.264,-16.4764 360.112,-19.507 369.938,-23.4688 370.264,-16.4764"/>
<g id="a_edge7&#45;headlabel"><a xlink:href="dir_000006_000002.html" target="_top" xlink:title="25">
<text text-anchor="middle" x="373.987" y="-11.3074" font-family="Helvetica,sans-Serif" font-size="10.00">25</text>
</a>
</g>
</g>
<!-- dir_70eaa2f41713610ea0cf8498c63ac358 -->
<g id="node3" class="node"><title>dir_70eaa2f41713610ea0cf8498c63ac358</title>
<g id="a_node3"><a xlink:href="dir_70eaa2f41713610ea0cf8498c63ac358.html" target="_top" xlink:title="arm64&#45;linux">
<polygon fill="white" stroke="red" points="540.25,-108 473.75,-108 473.75,-72 540.25,-72 540.25,-108"/>
<text text-anchor="middle" x="507" y="-87.5" font-family="Helvetica,sans-Serif" font-size="10.00">arm64&#45;linux</text>
</a>
</g>
</g>
<!-- dir_70eaa2f41713610ea0cf8498c63ac358&#45;&gt;dir_be9f6d876b8eda462084eff1b3ea4553 -->
<g id="edge2" class="edge"><title>dir_70eaa2f41713610ea0cf8498c63ac358&#45;&gt;dir_be9f6d876b8eda462084eff1b3ea4553</title>
<path fill="none" stroke="black" d="M487.928,-71.8725C480.813,-66.1775 472.411,-60.2191 464,-56 434.03,-40.9672 397.044,-31.2326 370.023,-25.5409"/>
<polygon fill="black" stroke="black" points="370.685,-22.1041 360.19,-23.5548 369.299,-28.9655 370.685,-22.1041"/>
<g id="a_edge2&#45;headlabel"><a xlink:href="dir_000010_000002.html" target="_top" xlink:title="25">
<text text-anchor="middle" x="374.771" y="-17.5327" font-family="Helvetica,sans-Serif" font-size="10.00">25</text>
</a>
</g>
</g>
<!-- dir_48117faa50f292645806ea8fb70008d8 -->
<g id="node4" class="node"><title>dir_48117faa50f292645806ea8fb70008d8</title>
<g id="a_node4"><a xlink:href="dir_48117faa50f292645806ea8fb70008d8.html" target="_top" xlink:title="default&#45;linux">
<polygon fill="white" stroke="red" points="455.25,-108 386.75,-108 386.75,-72 455.25,-72 455.25,-108"/>
<text text-anchor="middle" x="421" y="-87.5" font-family="Helvetica,sans-Serif" font-size="10.00">default&#45;linux</text>
</a>
</g>
</g>
<!-- dir_48117faa50f292645806ea8fb70008d8&#45;&gt;dir_be9f6d876b8eda462084eff1b3ea4553 -->
<g id="edge4" class="edge"><title>dir_48117faa50f292645806ea8fb70008d8&#45;&gt;dir_be9f6d876b8eda462084eff1b3ea4553</title>
<path fill="none" stroke="black" d="M399.247,-71.6966C388.164,-62.8807 374.526,-52.0321 362.51,-42.4742"/>
<polygon fill="black" stroke="black" points="364.507,-39.5905 354.503,-36.1043 360.15,-45.0687 364.507,-39.5905"/>
<g id="a_edge4&#45;headlabel"><a xlink:href="dir_000014_000002.html" target="_top" xlink:title="25">
<text text-anchor="middle" x="369.088" y="-37.1062" font-family="Helvetica,sans-Serif" font-size="10.00">25</text>
</a>
</g>
</g>
<!-- dir_178cc946f187f307d85774a5fd402eaa -->
<g id="node5" class="node"><title>dir_178cc946f187f307d85774a5fd402eaa</title>
<g id="a_node5"><a xlink:href="dir_178cc946f187f307d85774a5fd402eaa.html" target="_top" xlink:title="mips64&#45;linux">
<polygon fill="white" stroke="red" points="368.25,-108 297.75,-108 297.75,-72 368.25,-72 368.25,-108"/>
<text text-anchor="middle" x="333" y="-87.5" font-family="Helvetica,sans-Serif" font-size="10.00">mips64&#45;linux</text>
</a>
</g>
</g>
<!-- dir_178cc946f187f307d85774a5fd402eaa&#45;&gt;dir_be9f6d876b8eda462084eff1b3ea4553 -->
<g id="edge6" class="edge"><title>dir_178cc946f187f307d85774a5fd402eaa&#45;&gt;dir_be9f6d876b8eda462084eff1b3ea4553</title>
<path fill="none" stroke="black" d="M333,-71.6966C333,-63.9827 333,-54.7125 333,-46.1124"/>
<polygon fill="black" stroke="black" points="336.5,-46.1043 333,-36.1043 329.5,-46.1044 336.5,-46.1043"/>
<g id="a_edge6&#45;headlabel"><a xlink:href="dir_000018_000002.html" target="_top" xlink:title="25">
<text text-anchor="middle" x="339.339" y="-47.199" font-family="Helvetica,sans-Serif" font-size="10.00">25</text>
</a>
</g>
</g>
<!-- dir_03c05aea247c636c5180e1c14df87c04 -->
<g id="node6" class="node"><title>dir_03c05aea247c636c5180e1c14df87c04</title>
<g id="a_node6"><a xlink:href="dir_03c05aea247c636c5180e1c14df87c04.html" target="_top" xlink:title="power64&#45;linux">
<polygon fill="white" stroke="red" points="279.25,-108 202.75,-108 202.75,-72 279.25,-72 279.25,-108"/>
<text text-anchor="middle" x="241" y="-87.5" font-family="Helvetica,sans-Serif" font-size="10.00">power64&#45;linux</text>
</a>
</g>
</g>
<!-- dir_03c05aea247c636c5180e1c14df87c04&#45;&gt;dir_be9f6d876b8eda462084eff1b3ea4553 -->
<g id="edge5" class="edge"><title>dir_03c05aea247c636c5180e1c14df87c04&#45;&gt;dir_be9f6d876b8eda462084eff1b3ea4553</title>
<path fill="none" stroke="black" d="M263.742,-71.6966C275.44,-62.796 289.861,-51.8232 302.51,-42.1989"/>
<polygon fill="black" stroke="black" points="304.681,-44.945 310.52,-36.1043 300.442,-39.3742 304.681,-44.945"/>
<g id="a_edge5&#45;headlabel"><a xlink:href="dir_000022_000002.html" target="_top" xlink:title="25">
<text text-anchor="middle" x="303.54" y="-46.8811" font-family="Helvetica,sans-Serif" font-size="10.00">25</text>
</a>
</g>
</g>
<!-- dir_8bf6b7e80d8919b75edbcc15956e61d9 -->
<g id="node7" class="node"><title>dir_8bf6b7e80d8919b75edbcc15956e61d9</title>
<g id="a_node7"><a xlink:href="dir_8bf6b7e80d8919b75edbcc15956e61d9.html" target="_top" xlink:title="x86_32&#45;linux">
<polygon fill="white" stroke="red" points="184.25,-108 113.75,-108 113.75,-72 184.25,-72 184.25,-108"/>
<text text-anchor="middle" x="149" y="-87.5" font-family="Helvetica,sans-Serif" font-size="10.00">x86_32&#45;linux</text>
</a>
</g>
</g>
<!-- dir_8bf6b7e80d8919b75edbcc15956e61d9&#45;&gt;dir_be9f6d876b8eda462084eff1b3ea4553 -->
<g id="edge1" class="edge"><title>dir_8bf6b7e80d8919b75edbcc15956e61d9&#45;&gt;dir_be9f6d876b8eda462084eff1b3ea4553</title>
<path fill="none" stroke="black" d="M169.03,-71.8322C176.484,-66.1334 185.262,-60.183 194,-56 226.699,-40.3473 267.012,-30.5488 295.788,-24.9985"/>
<polygon fill="black" stroke="black" points="296.634,-28.4015 305.832,-23.1429 295.362,-21.518 296.634,-28.4015"/>
<g id="a_edge1&#45;headlabel"><a xlink:href="dir_000026_000002.html" target="_top" xlink:title="25">
<text text-anchor="middle" x="293.615" y="-29.3465" font-family="Helvetica,sans-Serif" font-size="10.00">25</text>
</a>
</g>
</g>
<!-- dir_e8c392aee706068680f6562db90ecbae -->
<g id="node8" class="node"><title>dir_e8c392aee706068680f6562db90ecbae</title>
<g id="a_node8"><a xlink:href="dir_e8c392aee706068680f6562db90ecbae.html" target="_top" xlink:title="x86_64&#45;linux">
<polygon fill="white" stroke="red" points="95.25,-108 24.75,-108 24.75,-72 95.25,-72 95.25,-108"/>
<text text-anchor="middle" x="60" y="-87.5" font-family="Helvetica,sans-Serif" font-size="10.00">x86_64&#45;linux</text>
</a>
</g>
</g>
<!-- dir_e8c392aee706068680f6562db90ecbae&#45;&gt;dir_be9f6d876b8eda462084eff1b3ea4553 -->
<g id="edge3" class="edge"><title>dir_e8c392aee706068680f6562db90ecbae&#45;&gt;dir_be9f6d876b8eda462084eff1b3ea4553</title>
<path fill="none" stroke="black" d="M79.3668,-71.688C86.8909,-65.8337 95.886,-59.8191 105,-56 168.478,-29.4 249.322,-21.8363 295.714,-19.7399"/>
<polygon fill="black" stroke="black" points="296.048,-23.2297 305.904,-19.3431 295.775,-16.235 296.048,-23.2297"/>
<g id="a_edge3&#45;headlabel"><a xlink:href="dir_000030_000002.html" target="_top" xlink:title="25">
<text text-anchor="middle" x="292.566" y="-23.7066" font-family="Helvetica,sans-Serif" font-size="10.00">25</text>
</a>
</g>
</g>
</g>
</svg>
