<?xml version="1.0" encoding="UTF-8" standalone="no"?>
<!DOCTYPE svg PUBLIC "-//W3C//DTD SVG 1.1//EN"
 "http://www.w3.org/Graphics/SVG/1.1/DTD/svg11.dtd">
<!-- Generated by graphviz version 2.36.0 (20140111.2315)
 -->
<!-- Title: feature.h Pages: 1 -->
<svg width="172pt" height="364pt"
 viewBox="0.00 0.00 172.00 364.00" xmlns="http://www.w3.org/2000/svg" xmlns:xlink="http://www.w3.org/1999/xlink">
<g id="graph0" class="graph" transform="scale(1 1) rotate(0) translate(4 360)">
<title>feature.h</title>
<polygon fill="white" stroke="none" points="-4,4 -4,-360 168,-360 168,4 -4,4"/>
<!-- Node8 -->
<g id="node1" class="node"><title>Node8</title>
<polygon fill="#bfbfbf" stroke="black" points="109.5,-336.5 109.5,-355.5 164.5,-355.5 164.5,-336.5 109.5,-336.5"/>
<text text-anchor="middle" x="137" y="-343.5" font-family="Helvetica,sans-Serif" font-size="10.00">feature.h</text>
</g>
<!-- Node9 -->
<g id="node2" class="node"><title>Node9</title>
<g id="a_node2"><a xlink:href="api_2spec_2init_8h.html" target="_top" xlink:title="ODP initialization. ">
<polygon fill="white" stroke="black" points="95,-280.5 95,-299.5 133,-299.5 133,-280.5 95,-280.5"/>
<text text-anchor="middle" x="114" y="-287.5" font-family="Helvetica,sans-Serif" font-size="10.00">init.h</text>
</a>
</g>
</g>
<!-- Node8&#45;&gt;Node9 -->
<g id="edge1" class="edge"><title>Node8&#45;&gt;Node9</title>
<path fill="none" stroke="midnightblue" d="M129.201,-326.69C125.325,-317.589 120.821,-307.014 117.727,-299.751"/>
<polygon fill="midnightblue" stroke="midnightblue" points="126.063,-328.254 133.202,-336.083 132.503,-325.511 126.063,-328.254"/>
</g>
<!-- Node13 -->
<g id="node6" class="node"><title>Node13</title>
<g id="a_node6"><a xlink:href="odp__api_8h.html" target="_top" xlink:title="The OpenDataPlane API. ">
<polygon fill="white" stroke="black" points="93.5,-56.5 93.5,-75.5 152.5,-75.5 152.5,-56.5 93.5,-56.5"/>
<text text-anchor="middle" x="123" y="-63.5" font-family="Helvetica,sans-Serif" font-size="10.00">odp_api.h</text>
</a>
</g>
</g>
<!-- Node8&#45;&gt;Node13 -->
<g id="edge8" class="edge"><title>Node8&#45;&gt;Node13</title>
<path fill="none" stroke="midnightblue" d="M143.491,-326.786C150.599,-305.182 161,-267.941 161,-235 161,-235 161,-235 161,-177 161,-137.399 138.725,-93.957 128.284,-75.769"/>
<polygon fill="midnightblue" stroke="midnightblue" points="140.162,-325.706 140.237,-336.301 146.785,-327.972 140.162,-325.706"/>
</g>
<!-- Node10 -->
<g id="node3" class="node"><title>Node10</title>
<g id="a_node3"><a xlink:href="api_2init_8h.html" target="_top" xlink:title="ODP initialization. ">
<polygon fill="white" stroke="black" points="95,-224.5 95,-243.5 133,-243.5 133,-224.5 95,-224.5"/>
<text text-anchor="middle" x="114" y="-231.5" font-family="Helvetica,sans-Serif" font-size="10.00">init.h</text>
</a>
</g>
</g>
<!-- Node9&#45;&gt;Node10 -->
<g id="edge2" class="edge"><title>Node9&#45;&gt;Node10</title>
<path fill="none" stroke="midnightblue" d="M114,-269.805C114,-260.91 114,-250.78 114,-243.751"/>
<polygon fill="midnightblue" stroke="midnightblue" points="110.5,-270.083 114,-280.083 117.5,-270.083 110.5,-270.083"/>
</g>
<!-- Node11 -->
<g id="node4" class="node"><title>Node11</title>
<g id="a_node4"><a xlink:href="api_2spec_2shared__memory_8h.html" target="_top" xlink:title="ODP shared memory. ">
<polygon fill="white" stroke="black" points="-0.5,-168.5 -0.5,-187.5 94.5,-187.5 94.5,-168.5 -0.5,-168.5"/>
<text text-anchor="middle" x="47" y="-175.5" font-family="Helvetica,sans-Serif" font-size="10.00">shared_memory.h</text>
</a>
</g>
</g>
<!-- Node10&#45;&gt;Node11 -->
<g id="edge3" class="edge"><title>Node10&#45;&gt;Node11</title>
<path fill="none" stroke="midnightblue" d="M95.1652,-217.82C83.1616,-208.145 68.0283,-195.948 57.9606,-187.834"/>
<polygon fill="midnightblue" stroke="midnightblue" points="93.253,-220.774 103.235,-224.324 97.6457,-215.324 93.253,-220.774"/>
</g>
<!-- Node10&#45;&gt;Node13 -->
<g id="edge7" class="edge"><title>Node10&#45;&gt;Node13</title>
<path fill="none" stroke="midnightblue" d="M115.034,-213.93C116.986,-177.92 121.144,-101.231 122.535,-75.5681"/>
<polygon fill="midnightblue" stroke="midnightblue" points="111.53,-213.9 114.484,-224.075 118.52,-214.279 111.53,-213.9"/>
</g>
<!-- Node12 -->
<g id="node5" class="node"><title>Node12</title>
<g id="a_node5"><a xlink:href="api_2shared__memory_8h.html" target="_top" xlink:title="ODP shared memory. ">
<polygon fill="white" stroke="black" points="-0.5,-112.5 -0.5,-131.5 94.5,-131.5 94.5,-112.5 -0.5,-112.5"/>
<text text-anchor="middle" x="47" y="-119.5" font-family="Helvetica,sans-Serif" font-size="10.00">shared_memory.h</text>
</a>
</g>
</g>
<!-- Node11&#45;&gt;Node12 -->
<g id="edge4" class="edge"><title>Node11&#45;&gt;Node12</title>
<path fill="none" stroke="midnightblue" d="M47,-157.805C47,-148.91 47,-138.78 47,-131.751"/>
<polygon fill="midnightblue" stroke="midnightblue" points="43.5001,-158.083 47,-168.083 50.5001,-158.083 43.5001,-158.083"/>
</g>
<!-- Node12&#45;&gt;Node13 -->
<g id="edge5" class="edge"><title>Node12&#45;&gt;Node13</title>
<path fill="none" stroke="midnightblue" d="M67.5758,-106.38C81.312,-96.6204 98.9253,-84.1057 110.567,-75.8339"/>
<polygon fill="midnightblue" stroke="midnightblue" points="65.3353,-103.679 59.2107,-112.324 69.3898,-109.385 65.3353,-103.679"/>
</g>
<!-- Node14 -->
<g id="node7" class="node"><title>Node14</title>
<g id="a_node7"><a xlink:href="odp_8h.html" target="_top" xlink:title="WARNING: THIS FILE IS DEPRECATED AND WILL BE REMOVED!!! ODP APPLICATIONS SHOULD NOW INCLUDE odp_api...">
<polygon fill="white" stroke="black" points="102.5,-0.5 102.5,-19.5 143.5,-19.5 143.5,-0.5 102.5,-0.5"/>
<text text-anchor="middle" x="123" y="-7.5" font-family="Helvetica,sans-Serif" font-size="10.00">odp.h</text>
</a>
</g>
</g>
<!-- Node13&#45;&gt;Node14 -->
<g id="edge6" class="edge"><title>Node13&#45;&gt;Node14</title>
<path fill="none" stroke="midnightblue" d="M123,-45.8045C123,-36.9102 123,-26.7798 123,-19.7511"/>
<polygon fill="midnightblue" stroke="midnightblue" points="119.5,-46.083 123,-56.083 126.5,-46.083 119.5,-46.083"/>
</g>
</g>
</svg>
