<?xml version="1.0" encoding="UTF-8" standalone="no"?>
<!DOCTYPE svg PUBLIC "-//W3C//DTD SVG 1.1//EN"
 "http://www.w3.org/Graphics/SVG/1.1/DTD/svg11.dtd">
<!-- Generated by graphviz version 2.36.0 (20140111.2315)
 -->
<!-- Title: odp.h Pages: 1 -->
<svg width="4588pt" height="308pt"
 viewBox="0.00 0.00 4588.00 308.00" xmlns="http://www.w3.org/2000/svg" xmlns:xlink="http://www.w3.org/1999/xlink">
<g id="graph0" class="graph" transform="scale(1 1) rotate(0) translate(4 304)">
<title>odp.h</title>
<polygon fill="white" stroke="none" points="-4,4 -4,-304 4584,-304 4584,4 -4,4"/>
<!-- Node0 -->
<g id="node1" class="node"><title>Node0</title>
<polygon fill="#bfbfbf" stroke="black" points="2099.5,-280.5 2099.5,-299.5 2140.5,-299.5 2140.5,-280.5 2099.5,-280.5"/>
<text text-anchor="middle" x="2120" y="-287.5" font-family="Helvetica,sans-Serif" font-size="10.00">odp.h</text>
</g>
<!-- Node1 -->
<g id="node2" class="node"><title>Node1</title>
<g id="a_node2"><a xlink:href="odp__api_8h.html" target="_top" xlink:title="The OpenDataPlane API. ">
<polygon fill="white" stroke="black" points="2090.5,-224.5 2090.5,-243.5 2149.5,-243.5 2149.5,-224.5 2090.5,-224.5"/>
<text text-anchor="middle" x="2120" y="-231.5" font-family="Helvetica,sans-Serif" font-size="10.00">odp_api.h</text>
</a>
</g>
</g>
<!-- Node0&#45;&gt;Node1 -->
<g id="edge1" class="edge"><title>Node0&#45;&gt;Node1</title>
<path fill="none" stroke="midnightblue" d="M2120,-280.083C2120,-273.006 2120,-262.861 2120,-253.986"/>
<polygon fill="midnightblue" stroke="midnightblue" points="2123.5,-253.751 2120,-243.751 2116.5,-253.751 2123.5,-253.751"/>
</g>
<!-- Node2 -->
<g id="node3" class="node"><title>Node2</title>
<g id="a_node3"><a xlink:href="deprecated_8h.html" target="_top" xlink:title="Control deprecated API definitions. ">
<polygon fill="white" stroke="black" points="88.5,-168.5 88.5,-187.5 195.5,-187.5 195.5,-168.5 88.5,-168.5"/>
<text text-anchor="middle" x="142" y="-175.5" font-family="Helvetica,sans-Serif" font-size="10.00">odp/api/deprecated.h</text>
</a>
</g>
</g>
<!-- Node1&#45;&gt;Node2 -->
<g id="edge2" class="edge"><title>Node1&#45;&gt;Node2</title>
<path fill="none" stroke="midnightblue" d="M2090.49,-232.728C1917.3,-231.04 1015.4,-220.96 280,-188 255.764,-186.914 229.16,-185.283 205.834,-183.706"/>
<polygon fill="midnightblue" stroke="midnightblue" points="205.928,-180.205 195.712,-183.012 205.449,-187.188 205.928,-180.205"/>
</g>
<!-- Node6 -->
<g id="node5" class="node"><title>Node6</title>
<g id="a_node5"><a xlink:href="api_2version_8h.html" target="_top" xlink:title="ODP version. ">
<polygon fill="white" stroke="black" points="289.5,-168.5 289.5,-187.5 380.5,-187.5 380.5,-168.5 289.5,-168.5"/>
<text text-anchor="middle" x="335" y="-175.5" font-family="Helvetica,sans-Serif" font-size="10.00">odp/api/version.h</text>
</a>
</g>
</g>
<!-- Node1&#45;&gt;Node6 -->
<g id="edge4" class="edge"><title>Node1&#45;&gt;Node6</title>
<path fill="none" stroke="midnightblue" d="M2090.33,-232.499C1928.8,-229.703 1139.06,-215.177 494,-188 459.627,-186.552 421.103,-184.385 390.585,-182.541"/>
<polygon fill="midnightblue" stroke="midnightblue" points="390.755,-179.044 380.56,-181.929 390.328,-186.031 390.755,-179.044"/>
</g>
<!-- Node9 -->
<g id="node8" class="node"><title>Node9</title>
<g id="a_node8"><a xlink:href="api_2std__types_8h.html" target="_top" xlink:title="Standard C language types and definitions for ODP. ">
<polygon fill="white" stroke="red" points="941,-56.5 941,-75.5 1043,-75.5 1043,-56.5 941,-56.5"/>
<text text-anchor="middle" x="992" y="-63.5" font-family="Helvetica,sans-Serif" font-size="10.00">odp/api/std_types.h</text>
</a>
</g>
</g>
<!-- Node1&#45;&gt;Node9 -->
<g id="edge7" class="edge"><title>Node1&#45;&gt;Node9</title>
<path fill="none" stroke="midnightblue" d="M2090.45,-232.843C1918.54,-231.8 1053.56,-224.734 1012,-188 983.243,-162.584 985.066,-112.972 988.663,-85.8373"/>
<polygon fill="midnightblue" stroke="midnightblue" points="992.159,-86.138 990.23,-75.7202 985.241,-85.067 992.159,-86.138"/>
</g>
<!-- Node13 -->
<g id="node10" class="node"><title>Node13</title>
<g id="a_node10"><a xlink:href="api_2align_8h.html" target="_top" xlink:title="ODP alignments. ">
<polygon fill="white" stroke="red" points="1419,-168.5 1419,-187.5 1499,-187.5 1499,-168.5 1419,-168.5"/>
<text text-anchor="middle" x="1459" y="-175.5" font-family="Helvetica,sans-Serif" font-size="10.00">odp/api/align.h</text>
</a>
</g>
</g>
<!-- Node1&#45;&gt;Node13 -->
<g id="edge9" class="edge"><title>Node1&#45;&gt;Node13</title>
<path fill="none" stroke="midnightblue" d="M2090.27,-231.956C2002.8,-228.642 1738.6,-216.906 1509.26,-188.022"/>
<polygon fill="midnightblue" stroke="midnightblue" points="1509.42,-184.514 1499.06,-186.722 1508.53,-191.458 1509.42,-184.514"/>
</g>
<!-- Node16 -->
<g id="node11" class="node"><title>Node16</title>
<g id="a_node11"><a xlink:href="hash_8h.html" target="_top" xlink:title="ODP Hash function. ">
<polygon fill="white" stroke="red" points="1517,-168.5 1517,-187.5 1597,-187.5 1597,-168.5 1517,-168.5"/>
<text text-anchor="middle" x="1557" y="-175.5" font-family="Helvetica,sans-Serif" font-size="10.00">odp/api/hash.h</text>
</a>
</g>
</g>
<!-- Node1&#45;&gt;Node16 -->
<g id="edge10" class="edge"><title>Node1&#45;&gt;Node16</title>
<path fill="none" stroke="midnightblue" d="M2090.34,-231.385C2012.72,-226.951 1797.07,-213.294 1607.23,-188.043"/>
<polygon fill="midnightblue" stroke="midnightblue" points="1607.44,-184.54 1597.06,-186.676 1606.51,-191.478 1607.44,-184.54"/>
</g>
<!-- Node18 -->
<g id="node12" class="node"><title>Node18</title>
<g id="a_node12"><a xlink:href="chksum_8h.html" target="_top" xlink:title="ODP checksum functions. ">
<polygon fill="white" stroke="red" points="1615,-168.5 1615,-187.5 1709,-187.5 1709,-168.5 1615,-168.5"/>
<text text-anchor="middle" x="1662" y="-175.5" font-family="Helvetica,sans-Serif" font-size="10.00">odp/api/chksum.h</text>
</a>
</g>
</g>
<!-- Node1&#45;&gt;Node18 -->
<g id="edge11" class="edge"><title>Node1&#45;&gt;Node18</title>
<path fill="none" stroke="midnightblue" d="M2090.44,-230.18C2025.33,-223.865 1864.44,-207.686 1719.03,-188.082"/>
<polygon fill="midnightblue" stroke="midnightblue" points="1719.41,-184.602 1709.03,-186.726 1718.47,-191.539 1719.41,-184.602"/>
</g>
<!-- Node20 -->
<g id="node13" class="node"><title>Node20</title>
<g id="a_node13"><a xlink:href="api_2comp_8h.html" target="_top" xlink:title="ODP crypto. ">
<polygon fill="white" stroke="red" points="1727.5,-168.5 1727.5,-187.5 1810.5,-187.5 1810.5,-168.5 1727.5,-168.5"/>
<text text-anchor="middle" x="1769" y="-175.5" font-family="Helvetica,sans-Serif" font-size="10.00">odp/api/comp.h</text>
</a>
</g>
</g>
<!-- Node1&#45;&gt;Node20 -->
<g id="edge12" class="edge"><title>Node1&#45;&gt;Node20</title>
<path fill="none" stroke="midnightblue" d="M2090.15,-228.783C2037.86,-221.339 1926.04,-205.17 1820.89,-188.109"/>
<polygon fill="midnightblue" stroke="midnightblue" points="1821.17,-184.608 1810.73,-186.455 1820.04,-191.517 1821.17,-184.608"/>
</g>
<!-- Node36 -->
<g id="node14" class="node"><title>Node36</title>
<g id="a_node14"><a xlink:href="hints_8h.html" target="_top" xlink:title="ODP compiler hints. ">
<polygon fill="white" stroke="red" points="1829,-168.5 1829,-187.5 1909,-187.5 1909,-168.5 1829,-168.5"/>
<text text-anchor="middle" x="1869" y="-175.5" font-family="Helvetica,sans-Serif" font-size="10.00">odp/api/hints.h</text>
</a>
</g>
</g>
<!-- Node1&#45;&gt;Node36 -->
<g id="edge13" class="edge"><title>Node1&#45;&gt;Node36</title>
<path fill="none" stroke="midnightblue" d="M2090.22,-226.593C2047.86,-217.479 1969.66,-200.655 1918.5,-189.648"/>
<polygon fill="midnightblue" stroke="midnightblue" points="1919.15,-186.21 1908.64,-187.529 1917.68,-193.054 1919.15,-186.21"/>
</g>
<!-- Node38 -->
<g id="node15" class="node"><title>Node38</title>
<g id="a_node15"><a xlink:href="api_2debug_8h.html" target="_top" xlink:title="ODP debug. ">
<polygon fill="white" stroke="red" points="1927,-168.5 1927,-187.5 2013,-187.5 2013,-168.5 1927,-168.5"/>
<text text-anchor="middle" x="1970" y="-175.5" font-family="Helvetica,sans-Serif" font-size="10.00">odp/api/debug.h</text>
</a>
</g>
</g>
<!-- Node1&#45;&gt;Node38 -->
<g id="edge14" class="edge"><title>Node1&#45;&gt;Node38</title>
<path fill="none" stroke="midnightblue" d="M2096.23,-224.444C2071.11,-215.399 2031.29,-201.064 2003.1,-190.916"/>
<polygon fill="midnightblue" stroke="midnightblue" points="2004.25,-187.611 1993.66,-187.516 2001.88,-194.197 2004.25,-187.611"/>
</g>
<!-- Node41 -->
<g id="node16" class="node"><title>Node41</title>
<g id="a_node16"><a xlink:href="api_2byteorder_8h.html" target="_top" xlink:title="ODP byteorder. ">
<polygon fill="white" stroke="red" points="2031,-168.5 2031,-187.5 2131,-187.5 2131,-168.5 2031,-168.5"/>
<text text-anchor="middle" x="2081" y="-175.5" font-family="Helvetica,sans-Serif" font-size="10.00">odp/api/byteorder.h</text>
</a>
</g>
</g>
<!-- Node1&#45;&gt;Node41 -->
<g id="edge15" class="edge"><title>Node1&#45;&gt;Node41</title>
<path fill="none" stroke="midnightblue" d="M2113.56,-224.083C2108.05,-216.455 2099.97,-205.264 2093.24,-195.941"/>
<polygon fill="midnightblue" stroke="midnightblue" points="2096.01,-193.809 2087.32,-187.751 2090.34,-197.907 2096.01,-193.809"/>
</g>
<!-- Node44 -->
<g id="node17" class="node"><title>Node44</title>
<g id="a_node17"><a xlink:href="api_2cpu_8h.html" target="_top" xlink:title="ODP CPU. ">
<polygon fill="white" stroke="red" points="2187.5,-168.5 2187.5,-187.5 2262.5,-187.5 2262.5,-168.5 2187.5,-168.5"/>
<text text-anchor="middle" x="2225" y="-175.5" font-family="Helvetica,sans-Serif" font-size="10.00">odp/api/cpu.h</text>
</a>
</g>
</g>
<!-- Node1&#45;&gt;Node44 -->
<g id="edge16" class="edge"><title>Node1&#45;&gt;Node44</title>
<path fill="none" stroke="midnightblue" d="M2136.87,-224.324C2153.71,-215.664 2179.81,-202.242 2199.24,-192.249"/>
<polygon fill="midnightblue" stroke="midnightblue" points="2200.88,-195.341 2208.17,-187.655 2197.68,-189.116 2200.88,-195.341"/>
</g>
<!-- Node46 -->
<g id="node18" class="node"><title>Node46</title>
<g id="a_node18"><a xlink:href="api_2thread_8h.html" target="_top" xlink:title="ODP thread API. ">
<polygon fill="white" stroke="red" points="2149,-112.5 2149,-131.5 2235,-131.5 2235,-112.5 2149,-112.5"/>
<text text-anchor="middle" x="2192" y="-119.5" font-family="Helvetica,sans-Serif" font-size="10.00">odp/api/thread.h</text>
</a>
</g>
</g>
<!-- Node1&#45;&gt;Node46 -->
<g id="edge28" class="edge"><title>Node1&#45;&gt;Node46</title>
<path fill="none" stroke="midnightblue" d="M2125.65,-224.368C2137.53,-206.215 2165.29,-163.802 2180.88,-139.99"/>
<polygon fill="midnightblue" stroke="midnightblue" points="2183.83,-141.875 2186.38,-131.591 2177.97,-138.042 2183.83,-141.875"/>
</g>
<!-- Node51 -->
<g id="node19" class="node"><title>Node51</title>
<g id="a_node19"><a xlink:href="api_2cpumask_8h.html" target="_top" xlink:title="ODP CPU masks and enumeration. ">
<polygon fill="white" stroke="red" points="2280.5,-168.5 2280.5,-187.5 2379.5,-187.5 2379.5,-168.5 2280.5,-168.5"/>
<text text-anchor="middle" x="2330" y="-175.5" font-family="Helvetica,sans-Serif" font-size="10.00">odp/api/cpumask.h</text>
</a>
</g>
</g>
<!-- Node1&#45;&gt;Node51 -->
<g id="edge18" class="edge"><title>Node1&#45;&gt;Node51</title>
<path fill="none" stroke="midnightblue" d="M2149.64,-225.378C2185.47,-216.165 2246.03,-200.592 2286.99,-190.06"/>
<polygon fill="midnightblue" stroke="midnightblue" points="2287.88,-193.444 2296.7,-187.564 2286.14,-186.664 2287.88,-193.444"/>
</g>
<!-- Node54 -->
<g id="node20" class="node"><title>Node54</title>
<g id="a_node20"><a xlink:href="api_2barrier_8h.html" target="_top" xlink:title="ODP execution barriers. ">
<polygon fill="white" stroke="red" points="1021,-168.5 1021,-187.5 1107,-187.5 1107,-168.5 1021,-168.5"/>
<text text-anchor="middle" x="1064" y="-175.5" font-family="Helvetica,sans-Serif" font-size="10.00">odp/api/barrier.h</text>
</a>
</g>
</g>
<!-- Node1&#45;&gt;Node54 -->
<g id="edge19" class="edge"><title>Node1&#45;&gt;Node54</title>
<path fill="none" stroke="midnightblue" d="M2090.49,-232.872C1969.89,-232.095 1502.74,-226.613 1121,-188 1119.74,-187.872 1118.46,-187.735 1117.18,-187.59"/>
<polygon fill="midnightblue" stroke="midnightblue" points="1117.55,-184.11 1107.19,-186.339 1116.68,-191.056 1117.55,-184.11"/>
</g>
<!-- Node55 -->
<g id="node21" class="node"><title>Node55</title>
<g id="a_node21"><a xlink:href="api_2atomic_8h.html" target="_top" xlink:title="ODP atomic operations. ">
<polygon fill="white" stroke="red" points="1039.5,-112.5 1039.5,-131.5 1128.5,-131.5 1128.5,-112.5 1039.5,-112.5"/>
<text text-anchor="middle" x="1084" y="-119.5" font-family="Helvetica,sans-Serif" font-size="10.00">odp/api/atomic.h</text>
</a>
</g>
</g>
<!-- Node1&#45;&gt;Node55 -->
<g id="edge23" class="edge"><title>Node1&#45;&gt;Node55</title>
<path fill="none" stroke="midnightblue" d="M2090.39,-233.018C1955.03,-232.869 1394.59,-229.698 1225,-188 1180.75,-177.119 1133.45,-152.26 1106.43,-136.632"/>
<polygon fill="midnightblue" stroke="midnightblue" points="1108.15,-133.583 1097.75,-131.527 1104.6,-139.615 1108.15,-133.583"/>
</g>
<!-- Node61 -->
<g id="node22" class="node"><title>Node61</title>
<g id="a_node22"><a xlink:href="api_2spinlock_8h.html" target="_top" xlink:title="ODP spinlock. ">
<polygon fill="white" stroke="red" points="2397.5,-168.5 2397.5,-187.5 2492.5,-187.5 2492.5,-168.5 2397.5,-168.5"/>
<text text-anchor="middle" x="2445" y="-175.5" font-family="Helvetica,sans-Serif" font-size="10.00">odp/api/spinlock.h</text>
</a>
</g>
</g>
<!-- Node1&#45;&gt;Node61 -->
<g id="edge22" class="edge"><title>Node1&#45;&gt;Node61</title>
<path fill="none" stroke="midnightblue" d="M2149.7,-228.065C2203.47,-219.131 2317.8,-200.135 2387.36,-188.576"/>
<polygon fill="midnightblue" stroke="midnightblue" points="2388,-192.019 2397.29,-186.927 2386.85,-185.114 2388,-192.019"/>
</g>
<!-- Node64 -->
<g id="node23" class="node"><title>Node64</title>
<g id="a_node23"><a xlink:href="feature_8h.html" target="_top" xlink:title="ODP features. ">
<polygon fill="white" stroke="red" points="2510.5,-168.5 2510.5,-187.5 2599.5,-187.5 2599.5,-168.5 2510.5,-168.5"/>
<text text-anchor="middle" x="2555" y="-175.5" font-family="Helvetica,sans-Serif" font-size="10.00">odp/api/feature.h</text>
</a>
</g>
</g>
<!-- Node1&#45;&gt;Node64 -->
<g id="edge24" class="edge"><title>Node1&#45;&gt;Node64</title>
<path fill="none" stroke="midnightblue" d="M2149.7,-229.978C2212.35,-223.5 2362.85,-207.392 2499.97,-188.085"/>
<polygon fill="midnightblue" stroke="midnightblue" points="2500.83,-191.498 2510.24,-186.629 2499.84,-184.567 2500.83,-191.498"/>
</g>
<!-- Node66 -->
<g id="node24" class="node"><title>Node66</title>
<g id="a_node24"><a xlink:href="api_2init_8h.html" target="_top" xlink:title="ODP initialization. ">
<polygon fill="white" stroke="red" points="2618,-168.5 2618,-187.5 2690,-187.5 2690,-168.5 2618,-168.5"/>
<text text-anchor="middle" x="2654" y="-175.5" font-family="Helvetica,sans-Serif" font-size="10.00">odp/api/init.h</text>
</a>
</g>
</g>
<!-- Node1&#45;&gt;Node66 -->
<g id="edge25" class="edge"><title>Node1&#45;&gt;Node66</title>
<path fill="none" stroke="midnightblue" d="M2149.55,-231.321C2225.77,-226.765 2435.14,-212.815 2608,-188 2608.1,-187.986 2608.2,-187.971 2608.3,-187.956"/>
<polygon fill="midnightblue" stroke="midnightblue" points="2608.58,-191.457 2617.9,-186.422 2607.47,-184.545 2608.58,-191.457"/>
</g>
<!-- Node69 -->
<g id="node25" class="node"><title>Node69</title>
<g id="a_node25"><a xlink:href="system__info_8h.html" target="_top" xlink:title="ODP system information. ">
<polygon fill="white" stroke="red" points="1146.5,-112.5 1146.5,-131.5 1259.5,-131.5 1259.5,-112.5 1146.5,-112.5"/>
<text text-anchor="middle" x="1203" y="-119.5" font-family="Helvetica,sans-Serif" font-size="10.00">odp/api/system_info.h</text>
</a>
</g>
</g>
<!-- Node1&#45;&gt;Node69 -->
<g id="edge26" class="edge"><title>Node1&#45;&gt;Node69</title>
<path fill="none" stroke="midnightblue" d="M2090.09,-232.956C1945.88,-232.543 1326.18,-228.413 1251,-188 1231.94,-177.757 1218.43,-156.266 1210.69,-140.797"/>
<polygon fill="midnightblue" stroke="midnightblue" points="1213.84,-139.265 1206.44,-131.679 1207.5,-142.222 1213.84,-139.265"/>
</g>
<!-- Node71 -->
<g id="node26" class="node"><title>Node71</title>
<g id="a_node26"><a xlink:href="api_2shared__memory_8h.html" target="_top" xlink:title="ODP shared memory. ">
<polygon fill="white" stroke="red" points="2708.5,-168.5 2708.5,-187.5 2837.5,-187.5 2837.5,-168.5 2708.5,-168.5"/>
<text text-anchor="middle" x="2773" y="-175.5" font-family="Helvetica,sans-Serif" font-size="10.00">odp/api/shared_memory.h</text>
</a>
</g>
</g>
<!-- Node1&#45;&gt;Node71 -->
<g id="edge29" class="edge"><title>Node1&#45;&gt;Node71</title>
<path fill="none" stroke="midnightblue" d="M2149.57,-231.158C2233.59,-225.826 2481.17,-209.446 2698.45,-188.011"/>
<polygon fill="midnightblue" stroke="midnightblue" points="2698.84,-191.489 2708.44,-187.019 2698.15,-184.523 2698.84,-191.489"/>
</g>
<!-- Node73 -->
<g id="node27" class="node"><title>Node73</title>
<g id="a_node27"><a xlink:href="api_2buffer_8h.html" target="_top" xlink:title="ODP buffer descriptor. ">
<polygon fill="white" stroke="red" points="1278,-112.5 1278,-131.5 1362,-131.5 1362,-112.5 1278,-112.5"/>
<text text-anchor="middle" x="1320" y="-119.5" font-family="Helvetica,sans-Serif" font-size="10.00">odp/api/buffer.h</text>
</a>
</g>
</g>
<!-- Node1&#45;&gt;Node73 -->
<g id="edge30" class="edge"><title>Node1&#45;&gt;Node73</title>
<path fill="none" stroke="midnightblue" d="M2090.03,-232.576C1941.37,-230.328 1289.17,-218.738 1260,-188 1243.29,-170.397 1270.07,-149.759 1293.02,-136.54"/>
<polygon fill="midnightblue" stroke="midnightblue" points="1294.77,-139.575 1301.84,-131.692 1291.4,-133.439 1294.77,-139.575"/>
</g>
<!-- Node75 -->
<g id="node28" class="node"><title>Node75</title>
<g id="a_node28"><a xlink:href="api_2pool_8h.html" target="_top" xlink:title="ODP pool. ">
<polygon fill="white" stroke="red" points="2855.5,-168.5 2855.5,-187.5 2932.5,-187.5 2932.5,-168.5 2855.5,-168.5"/>
<text text-anchor="middle" x="2894" y="-175.5" font-family="Helvetica,sans-Serif" font-size="10.00">odp/api/pool.h</text>
</a>
</g>
</g>
<!-- Node1&#45;&gt;Node75 -->
<g id="edge32" class="edge"><title>Node1&#45;&gt;Node75</title>
<path fill="none" stroke="midnightblue" d="M2149.51,-232.476C2247.18,-230.468 2568.89,-221.66 2845.07,-187.944"/>
<polygon fill="midnightblue" stroke="midnightblue" points="2845.8,-191.381 2855.29,-186.682 2844.94,-184.434 2845.8,-191.381"/>
</g>
<!-- Node77 -->
<g id="node29" class="node"><title>Node77</title>
<g id="a_node29"><a xlink:href="api_2queue_8h.html" target="_top" xlink:title="ODP queue. ">
<polygon fill="white" stroke="red" points="1380,-112.5 1380,-131.5 1466,-131.5 1466,-112.5 1380,-112.5"/>
<text text-anchor="middle" x="1423" y="-119.5" font-family="Helvetica,sans-Serif" font-size="10.00">odp/api/queue.h</text>
</a>
</g>
</g>
<!-- Node1&#45;&gt;Node77 -->
<g id="edge33" class="edge"><title>Node1&#45;&gt;Node77</title>
<path fill="none" stroke="midnightblue" d="M2090.31,-232.565C1943.03,-230.265 1296.89,-218.46 1268,-188 1261.88,-181.551 1262.66,-175.108 1268,-168 1274.65,-159.14 1332.26,-144.048 1375.32,-133.809"/>
<polygon fill="midnightblue" stroke="midnightblue" points="1376.15,-137.209 1385.08,-131.51 1374.54,-130.395 1376.15,-137.209"/>
</g>
<!-- Node85 -->
<g id="node30" class="node"><title>Node85</title>
<g id="a_node30"><a xlink:href="api_2ticketlock_8h.html" target="_top" xlink:title="ODP ticketlock. ">
<polygon fill="white" stroke="red" points="2950.5,-168.5 2950.5,-187.5 3051.5,-187.5 3051.5,-168.5 2950.5,-168.5"/>
<text text-anchor="middle" x="3001" y="-175.5" font-family="Helvetica,sans-Serif" font-size="10.00">odp/api/ticketlock.h</text>
</a>
</g>
</g>
<!-- Node1&#45;&gt;Node85 -->
<g id="edge35" class="edge"><title>Node1&#45;&gt;Node85</title>
<path fill="none" stroke="midnightblue" d="M2149.53,-232.386C2255.19,-229.977 2624.43,-219.746 2940.04,-187.989"/>
<polygon fill="midnightblue" stroke="midnightblue" points="2940.71,-191.44 2950.3,-186.947 2940,-184.476 2940.71,-191.44"/>
</g>
<!-- Node33 -->
<g id="node31" class="node"><title>Node33</title>
<g id="a_node31"><a xlink:href="api_2time_8h.html" target="_top" xlink:title="ODP time. ">
<polygon fill="white" stroke="red" points="407,-112.5 407,-131.5 485,-131.5 485,-112.5 407,-112.5"/>
<text text-anchor="middle" x="446" y="-119.5" font-family="Helvetica,sans-Serif" font-size="10.00">odp/api/time.h</text>
</a>
</g>
</g>
<!-- Node1&#45;&gt;Node33 -->
<g id="edge36" class="edge"><title>Node1&#45;&gt;Node33</title>
<path fill="none" stroke="midnightblue" d="M2090.22,-233.045C1910.16,-233.172 965.083,-231.716 679,-188 606.055,-176.853 523.477,-150.386 478.855,-134.881"/>
<polygon fill="midnightblue" stroke="midnightblue" points="479.997,-131.573 469.402,-131.563 477.678,-138.178 479.997,-131.573"/>
</g>
<!-- Node88 -->
<g id="node32" class="node"><title>Node88</title>
<g id="a_node32"><a xlink:href="api_2timer_8h.html" target="_top" xlink:title="ODP timer service. ">
<polygon fill="white" stroke="red" points="503.5,-112.5 503.5,-131.5 584.5,-131.5 584.5,-112.5 503.5,-112.5"/>
<text text-anchor="middle" x="544" y="-119.5" font-family="Helvetica,sans-Serif" font-size="10.00">odp/api/timer.h</text>
</a>
</g>
</g>
<!-- Node1&#45;&gt;Node88 -->
<g id="edge38" class="edge"><title>Node1&#45;&gt;Node88</title>
<path fill="none" stroke="midnightblue" d="M2090.45,-232.999C1917.79,-232.847 1037.78,-229.99 771,-188 699.995,-176.824 619.765,-150.464 576.257,-134.963"/>
<polygon fill="midnightblue" stroke="midnightblue" points="577.375,-131.646 566.78,-131.551 575.003,-138.232 577.375,-131.646"/>
</g>
<!-- Node91 -->
<g id="node33" class="node"><title>Node91</title>
<g id="a_node33"><a xlink:href="api_2schedule_8h.html" target="_top" xlink:title="ODP schedule. ">
<polygon fill="white" stroke="red" points="3070,-168.5 3070,-187.5 3168,-187.5 3168,-168.5 3070,-168.5"/>
<text text-anchor="middle" x="3119" y="-175.5" font-family="Helvetica,sans-Serif" font-size="10.00">odp/api/schedule.h</text>
</a>
</g>
</g>
<!-- Node1&#45;&gt;Node91 -->
<g id="edge40" class="edge"><title>Node1&#45;&gt;Node91</title>
<path fill="none" stroke="midnightblue" d="M2149.72,-232.696C2265.14,-231.282 2694.89,-223.839 3059.83,-187.886"/>
<polygon fill="midnightblue" stroke="midnightblue" points="3060.19,-191.368 3069.79,-186.896 3059.5,-184.402 3060.19,-191.368"/>
</g>
<!-- Node97 -->
<g id="node34" class="node"><title>Node97</title>
<g id="a_node34"><a xlink:href="api_2sync_8h.html" target="_top" xlink:title="ODP synchronisation. ">
<polygon fill="white" stroke="red" points="3186,-168.5 3186,-187.5 3266,-187.5 3266,-168.5 3186,-168.5"/>
<text text-anchor="middle" x="3226" y="-175.5" font-family="Helvetica,sans-Serif" font-size="10.00">odp/api/sync.h</text>
</a>
</g>
</g>
<!-- Node1&#45;&gt;Node97 -->
<g id="edge41" class="edge"><title>Node1&#45;&gt;Node97</title>
<path fill="none" stroke="midnightblue" d="M2149.51,-233.203C2274.32,-233.756 2771.11,-232.858 3176,-188 3176.1,-187.989 3176.2,-187.977 3176.3,-187.966"/>
<polygon fill="midnightblue" stroke="midnightblue" points="3176.49,-191.471 3185.95,-186.701 3175.58,-184.531 3176.49,-191.471"/>
</g>
<!-- Node27 -->
<g id="node35" class="node"><title>Node27</title>
<g id="a_node35"><a xlink:href="api_2packet_8h.html" target="_top" xlink:title="ODP packet descriptor. ">
<polygon fill="white" stroke="red" points="602.5,-112.5 602.5,-131.5 691.5,-131.5 691.5,-112.5 602.5,-112.5"/>
<text text-anchor="middle" x="647" y="-119.5" font-family="Helvetica,sans-Serif" font-size="10.00">odp/api/packet.h</text>
</a>
</g>
</g>
<!-- Node1&#45;&gt;Node27 -->
<g id="edge42" class="edge"><title>Node1&#45;&gt;Node27</title>
<path fill="none" stroke="midnightblue" d="M2090.43,-233.012C1924.18,-232.92 1104.54,-230.293 856,-188 790.731,-176.893 717.493,-150.796 677.368,-135.258"/>
<polygon fill="midnightblue" stroke="midnightblue" points="678.493,-131.94 667.905,-131.551 675.939,-138.457 678.493,-131.94"/>
</g>
<!-- Node100 -->
<g id="node36" class="node"><title>Node100</title>
<g id="a_node36"><a xlink:href="api_2packet__flags_8h.html" target="_top" xlink:title="ODP packet flags. ">
<polygon fill="white" stroke="red" points="3284.5,-168.5 3284.5,-187.5 3399.5,-187.5 3399.5,-168.5 3284.5,-168.5"/>
<text text-anchor="middle" x="3342" y="-175.5" font-family="Helvetica,sans-Serif" font-size="10.00">odp/api/packet_flags.h</text>
</a>
</g>
</g>
<!-- Node1&#45;&gt;Node100 -->
<g id="edge44" class="edge"><title>Node1&#45;&gt;Node100</title>
<path fill="none" stroke="midnightblue" d="M2149.51,-232.876C2280.23,-232.113 2820.17,-226.709 3274.26,-187.967"/>
<polygon fill="midnightblue" stroke="midnightblue" points="3274.63,-191.448 3284.29,-187.104 3274.03,-184.474 3274.63,-191.448"/>
</g>
<!-- Node103 -->
<g id="node37" class="node"><title>Node103</title>
<g id="a_node37"><a xlink:href="api_2packet__io_8h.html" target="_top" xlink:title="ODP Packet IO. ">
<polygon fill="white" stroke="red" points="709.5,-112.5 709.5,-131.5 810.5,-131.5 810.5,-112.5 709.5,-112.5"/>
<text text-anchor="middle" x="760" y="-119.5" font-family="Helvetica,sans-Serif" font-size="10.00">odp/api/packet_io.h</text>
</a>
</g>
</g>
<!-- Node1&#45;&gt;Node103 -->
<g id="edge45" class="edge"><title>Node1&#45;&gt;Node103</title>
<path fill="none" stroke="midnightblue" d="M2090.4,-233.241C1929.29,-234.349 1156.69,-236.982 924,-188 872.667,-177.194 816.61,-151.751 785.129,-136.094"/>
<polygon fill="midnightblue" stroke="midnightblue" points="786.685,-132.959 776.181,-131.576 783.53,-139.207 786.685,-132.959"/>
</g>
<!-- Node108 -->
<g id="node38" class="node"><title>Node108</title>
<g id="a_node38"><a xlink:href="api_2crypto_8h.html" target="_top" xlink:title="ODP crypto. ">
<polygon fill="white" stroke="red" points="1277,-168.5 1277,-187.5 1363,-187.5 1363,-168.5 1277,-168.5"/>
<text text-anchor="middle" x="1320" y="-175.5" font-family="Helvetica,sans-Serif" font-size="10.00">odp/api/crypto.h</text>
</a>
</g>
</g>
<!-- Node1&#45;&gt;Node108 -->
<g id="edge47" class="edge"><title>Node1&#45;&gt;Node108</title>
<path fill="none" stroke="midnightblue" d="M2090.18,-232.223C1989.54,-229.382 1653.21,-218.1 1377,-188 1375.74,-187.863 1374.46,-187.717 1373.18,-187.564"/>
<polygon fill="midnightblue" stroke="midnightblue" points="1373.57,-184.085 1363.2,-186.268 1372.67,-191.027 1373.57,-184.085"/>
</g>
<!-- Node111 -->
<g id="node39" class="node"><title>Node111</title>
<g id="a_node39"><a xlink:href="api_2classification_8h.html" target="_top" xlink:title="ODP classification descriptor. ">
<polygon fill="white" stroke="red" points="829,-112.5 829,-131.5 945,-131.5 945,-112.5 829,-112.5"/>
<text text-anchor="middle" x="887" y="-119.5" font-family="Helvetica,sans-Serif" font-size="10.00">odp/api/classification.h</text>
</a>
</g>
</g>
<!-- Node1&#45;&gt;Node111 -->
<g id="edge50" class="edge"><title>Node1&#45;&gt;Node111</title>
<path fill="none" stroke="midnightblue" d="M2090.39,-233.054C1919.82,-233.208 1066.54,-231.773 959,-188 934.258,-177.93 912.534,-155.383 899.587,-139.688"/>
<polygon fill="midnightblue" stroke="midnightblue" points="902.288,-137.46 893.334,-131.796 896.801,-141.807 902.288,-137.46"/>
</g>
<!-- Node115 -->
<g id="node40" class="node"><title>Node115</title>
<g id="a_node40"><a xlink:href="api_2rwlock_8h.html" target="_top" xlink:title="ODP RW Locks. ">
<polygon fill="white" stroke="red" points="3417,-168.5 3417,-187.5 3505,-187.5 3505,-168.5 3417,-168.5"/>
<text text-anchor="middle" x="3461" y="-175.5" font-family="Helvetica,sans-Serif" font-size="10.00">odp/api/rwlock.h</text>
</a>
</g>
</g>
<!-- Node1&#45;&gt;Node115 -->
<g id="edge52" class="edge"><title>Node1&#45;&gt;Node115</title>
<path fill="none" stroke="midnightblue" d="M2149.51,-232.504C2315.12,-229.643 3131.06,-214.467 3406.46,-187.983"/>
<polygon fill="midnightblue" stroke="midnightblue" points="3407.21,-191.427 3416.81,-186.956 3406.52,-184.461 3407.21,-191.427"/>
</g>
<!-- Node79 -->
<g id="node41" class="node"><title>Node79</title>
<g id="a_node41"><a xlink:href="api_2event_8h.html" target="_top" xlink:title="ODP event. ">
<polygon fill="white" stroke="red" points="3523.5,-168.5 3523.5,-187.5 3606.5,-187.5 3606.5,-168.5 3523.5,-168.5"/>
<text text-anchor="middle" x="3565" y="-175.5" font-family="Helvetica,sans-Serif" font-size="10.00">odp/api/event.h</text>
</a>
</g>
</g>
<!-- Node1&#45;&gt;Node79 -->
<g id="edge53" class="edge"><title>Node1&#45;&gt;Node79</title>
<path fill="none" stroke="midnightblue" d="M2149.59,-232.605C2325.47,-230.174 3235.13,-216.396 3513,-188 3513.11,-187.989 3513.21,-187.978 3513.32,-187.967"/>
<polygon fill="midnightblue" stroke="midnightblue" points="3513.85,-191.428 3523.35,-186.734 3513,-184.481 3513.85,-191.428"/>
</g>
<!-- Node118 -->
<g id="node42" class="node"><title>Node118</title>
<g id="a_node42"><a xlink:href="random_8h.html" target="_top" xlink:title="ODP random number API. ">
<polygon fill="white" stroke="red" points="3625,-168.5 3625,-187.5 3717,-187.5 3717,-168.5 3625,-168.5"/>
<text text-anchor="middle" x="3671" y="-175.5" font-family="Helvetica,sans-Serif" font-size="10.00">odp/api/random.h</text>
</a>
</g>
</g>
<!-- Node1&#45;&gt;Node118 -->
<g id="edge54" class="edge"><title>Node1&#45;&gt;Node118</title>
<path fill="none" stroke="midnightblue" d="M2149.64,-232.631C2331.1,-230.295 3294.45,-216.753 3614.71,-187.838"/>
<polygon fill="midnightblue" stroke="midnightblue" points="3615.28,-191.3 3624.92,-186.89 3614.63,-184.33 3615.28,-191.3"/>
</g>
<!-- Node120 -->
<g id="node43" class="node"><title>Node120</title>
<g id="a_node43"><a xlink:href="errno_8h.html" target="_top" xlink:title="ODP errno API. ">
<polygon fill="white" stroke="red" points="3735.5,-168.5 3735.5,-187.5 3816.5,-187.5 3816.5,-168.5 3735.5,-168.5"/>
<text text-anchor="middle" x="3776" y="-175.5" font-family="Helvetica,sans-Serif" font-size="10.00">odp/api/errno.h</text>
</a>
</g>
</g>
<!-- Node1&#45;&gt;Node120 -->
<g id="edge55" class="edge"><title>Node1&#45;&gt;Node120</title>
<path fill="none" stroke="midnightblue" d="M2149.65,-232.778C2339.05,-231.267 3382.11,-221.571 3725.22,-187.861"/>
<polygon fill="midnightblue" stroke="midnightblue" points="3725.82,-191.319 3735.41,-186.831 3725.11,-184.355 3725.82,-191.319"/>
</g>
<!-- Node94 -->
<g id="node44" class="node"><title>Node94</title>
<g id="a_node44"><a xlink:href="api_2thrmask_8h.html" target="_top" xlink:title="ODP thread masks. ">
<polygon fill="white" stroke="red" points="3834.5,-168.5 3834.5,-187.5 3929.5,-187.5 3929.5,-168.5 3834.5,-168.5"/>
<text text-anchor="middle" x="3882" y="-175.5" font-family="Helvetica,sans-Serif" font-size="10.00">odp/api/thrmask.h</text>
</a>
</g>
</g>
<!-- Node1&#45;&gt;Node94 -->
<g id="edge56" class="edge"><title>Node1&#45;&gt;Node94</title>
<path fill="none" stroke="midnightblue" d="M2149.54,-232.747C2345.4,-230.994 3459.97,-219.78 3824.43,-187.88"/>
<polygon fill="midnightblue" stroke="midnightblue" points="3824.83,-191.359 3834.47,-186.978 3824.2,-184.387 3824.83,-191.359"/>
</g>
<!-- Node122 -->
<g id="node45" class="node"><title>Node122</title>
<g id="a_node45"><a xlink:href="api_2traffic__mngr_8h.html" target="_top" xlink:title="ODP Traffic manager. ">
<polygon fill="white" stroke="red" points="3947.5,-168.5 3947.5,-187.5 4058.5,-187.5 4058.5,-168.5 3947.5,-168.5"/>
<text text-anchor="middle" x="4003" y="-175.5" font-family="Helvetica,sans-Serif" font-size="10.00">odp/api/traffic_mngr.h</text>
</a>
</g>
</g>
<!-- Node1&#45;&gt;Node122 -->
<g id="edge57" class="edge"><title>Node1&#45;&gt;Node122</title>
<path fill="none" stroke="midnightblue" d="M2149.81,-232.724C2353.95,-230.763 3548.56,-218.174 3937.23,-187.931"/>
<polygon fill="midnightblue" stroke="midnightblue" points="3937.69,-191.406 3947.38,-187.122 3937.13,-184.428 3937.69,-191.406"/>
</g>
<!-- Node125 -->
<g id="node46" class="node"><title>Node125</title>
<g id="a_node46"><a xlink:href="api_2spinlock__recursive_8h.html" target="_top" xlink:title="ODP resursive spinlock. ">
<polygon fill="white" stroke="red" points="4077,-168.5 4077,-187.5 4217,-187.5 4217,-168.5 4077,-168.5"/>
<text text-anchor="middle" x="4147" y="-175.5" font-family="Helvetica,sans-Serif" font-size="10.00">odp/api/spinlock_recursive.h</text>
</a>
</g>
</g>
<!-- Node1&#45;&gt;Node125 -->
<g id="edge58" class="edge"><title>Node1&#45;&gt;Node125</title>
<path fill="none" stroke="midnightblue" d="M2149.83,-232.675C2362.36,-230.307 3650.06,-215.044 4066.81,-187.919"/>
<polygon fill="midnightblue" stroke="midnightblue" points="4067.05,-191.411 4076.79,-187.256 4066.58,-184.427 4067.05,-191.411"/>
</g>
<!-- Node128 -->
<g id="node47" class="node"><title>Node128</title>
<g id="a_node47"><a xlink:href="api_2rwlock__recursive_8h.html" target="_top" xlink:title="ODP resursive read/write lock. ">
<polygon fill="white" stroke="red" points="4235.5,-168.5 4235.5,-187.5 4368.5,-187.5 4368.5,-168.5 4235.5,-168.5"/>
<text text-anchor="middle" x="4302" y="-175.5" font-family="Helvetica,sans-Serif" font-size="10.00">odp/api/rwlock_recursive.h</text>
</a>
</g>
</g>
<!-- Node1&#45;&gt;Node128 -->
<g id="edge59" class="edge"><title>Node1&#45;&gt;Node128</title>
<path fill="none" stroke="midnightblue" d="M2149.73,-232.76C2371.78,-230.907 3774.73,-218.166 4225.17,-187.961"/>
<polygon fill="midnightblue" stroke="midnightblue" points="4225.57,-191.442 4235.31,-187.267 4225.09,-184.458 4225.57,-191.442"/>
</g>
<!-- Node131 -->
<g id="node48" class="node"><title>Node131</title>
<g id="a_node48"><a xlink:href="api_2std__clib_8h_source.html" target="_top" xlink:title="odp/api/std_clib.h">
<polygon fill="white" stroke="red" points="1282.5,-56.5 1282.5,-75.5 1375.5,-75.5 1375.5,-56.5 1282.5,-56.5"/>
<text text-anchor="middle" x="1329" y="-63.5" font-family="Helvetica,sans-Serif" font-size="10.00">odp/api/std_clib.h</text>
</a>
</g>
</g>
<!-- Node1&#45;&gt;Node131 -->
<g id="edge60" class="edge"><title>Node1&#45;&gt;Node131</title>
<path fill="none" stroke="midnightblue" d="M2090.16,-232.237C1958.34,-228.722 1433.64,-213.187 1410,-188 1403.92,-181.519 1405.14,-175.442 1410,-168 1431.76,-134.676 1470.24,-165.324 1492,-132 1496.86,-124.558 1497.38,-119.072 1492,-112 1478.98,-94.8988 1427.53,-82.6384 1385.87,-75.276"/>
<polygon fill="midnightblue" stroke="midnightblue" points="1386.24,-71.7883 1375.79,-73.5548 1385.06,-78.6884 1386.24,-71.7883"/>
</g>
<!-- Node25 -->
<g id="node49" class="node"><title>Node25</title>
<g id="a_node49"><a xlink:href="support_8h.html" target="_top" xlink:title="ODP support API &#45; platform specific header. ">
<polygon fill="white" stroke="red" points="4387,-168.5 4387,-187.5 4479,-187.5 4479,-168.5 4387,-168.5"/>
<text text-anchor="middle" x="4433" y="-175.5" font-family="Helvetica,sans-Serif" font-size="10.00">odp/api/support.h</text>
</a>
</g>
</g>
<!-- Node1&#45;&gt;Node25 -->
<g id="edge62" class="edge"><title>Node1&#45;&gt;Node25</title>
<path fill="none" stroke="midnightblue" d="M2149.62,-232.978C2380.4,-232.725 3894.01,-229.513 4376.75,-187.825"/>
<polygon fill="midnightblue" stroke="midnightblue" points="4377.27,-191.294 4386.92,-186.928 4376.65,-184.321 4377.27,-191.294"/>
</g>
<!-- Node134 -->
<g id="node50" class="node"><title>Node134</title>
<g id="a_node50"><a xlink:href="api_2ipsec_8h.html" target="_top" xlink:title="ODP IPSEC API &#45; platform specific header. ">
<polygon fill="white" stroke="red" points="4497.5,-168.5 4497.5,-187.5 4580.5,-187.5 4580.5,-168.5 4497.5,-168.5"/>
<text text-anchor="middle" x="4539" y="-175.5" font-family="Helvetica,sans-Serif" font-size="10.00">odp/api/ipsec.h</text>
</a>
</g>
</g>
<!-- Node1&#45;&gt;Node134 -->
<g id="edge63" class="edge"><title>Node1&#45;&gt;Node134</title>
<path fill="none" stroke="midnightblue" d="M2149.56,-233.072C2386.54,-233.559 3981.27,-235.065 4487.04,-187.88"/>
<polygon fill="midnightblue" stroke="midnightblue" points="4487.7,-191.333 4497.32,-186.899 4487.04,-184.364 4487.7,-191.333"/>
</g>
<!-- Node3 -->
<g id="node4" class="node"><title>Node3</title>
<g id="a_node4"><a xlink:href="spec_2deprecated_8h.html" target="_top" xlink:title="Macro for deprecated API definitions. ">
<polygon fill="white" stroke="red" points="-0.5,-112.5 -0.5,-131.5 130.5,-131.5 130.5,-112.5 -0.5,-112.5"/>
<text text-anchor="middle" x="65" y="-119.5" font-family="Helvetica,sans-Serif" font-size="10.00">odp/api/spec/deprecated.h</text>
</a>
</g>
</g>
<!-- Node2&#45;&gt;Node3 -->
<g id="edge3" class="edge"><title>Node2&#45;&gt;Node3</title>
<path fill="none" stroke="midnightblue" d="M129.629,-168.324C117.842,-160.058 99.8677,-147.453 85.8645,-137.632"/>
<polygon fill="midnightblue" stroke="midnightblue" points="87.5376,-134.531 77.3407,-131.655 83.5184,-140.262 87.5376,-134.531"/>
</g>
<!-- Node7 -->
<g id="node6" class="node"><title>Node7</title>
<polygon fill="white" stroke="#bfbfbf" points="281.5,-112.5 281.5,-131.5 388.5,-131.5 388.5,-112.5 281.5,-112.5"/>
<text text-anchor="middle" x="335" y="-119.5" font-family="Helvetica,sans-Serif" font-size="10.00">odp/api/abi/version.h</text>
</g>
<!-- Node6&#45;&gt;Node7 -->
<g id="edge5" class="edge"><title>Node6&#45;&gt;Node7</title>
<path fill="none" stroke="midnightblue" d="M335,-168.083C335,-161.006 335,-150.861 335,-141.986"/>
<polygon fill="midnightblue" stroke="midnightblue" points="338.5,-141.751 335,-131.751 331.5,-141.751 338.5,-141.751"/>
</g>
<!-- Node8 -->
<g id="node7" class="node"><title>Node8</title>
<g id="a_node7"><a xlink:href="api_2spec_2version_8h.html" target="_top" xlink:title="ODP version. ">
<polygon fill="white" stroke="red" points="148.5,-112.5 148.5,-131.5 263.5,-131.5 263.5,-112.5 148.5,-112.5"/>
<text text-anchor="middle" x="206" y="-119.5" font-family="Helvetica,sans-Serif" font-size="10.00">odp/api/spec/version.h</text>
</a>
</g>
</g>
<!-- Node6&#45;&gt;Node8 -->
<g id="edge6" class="edge"><title>Node6&#45;&gt;Node8</title>
<path fill="none" stroke="midnightblue" d="M314.56,-168.444C293.33,-159.557 259.901,-145.563 235.745,-135.451"/>
<polygon fill="midnightblue" stroke="midnightblue" points="236.921,-132.149 226.345,-131.516 234.218,-138.606 236.921,-132.149"/>
</g>
<!-- Node10 -->
<g id="node9" class="node"><title>Node10</title>
<polygon fill="white" stroke="#bfbfbf" points="1101,-0.5 1101,-19.5 1219,-19.5 1219,-0.5 1101,-0.5"/>
<text text-anchor="middle" x="1160" y="-7.5" font-family="Helvetica,sans-Serif" font-size="10.00">odp/api/abi/std_types.h</text>
</g>
<!-- Node9&#45;&gt;Node10 -->
<g id="edge8" class="edge"><title>Node9&#45;&gt;Node10</title>
<path fill="none" stroke="midnightblue" d="M1018.62,-56.4435C1047.01,-47.3196 1092.14,-32.8133 1123.75,-22.6509"/>
<polygon fill="midnightblue" stroke="midnightblue" points="1125.06,-25.9087 1133.5,-19.5164 1122.91,-19.2445 1125.06,-25.9087"/>
</g>
<!-- Node44&#45;&gt;Node46 -->
<g id="edge17" class="edge"><title>Node44&#45;&gt;Node46</title>
<path fill="none" stroke="midnightblue" d="M2219.55,-168.083C2214.99,-160.613 2208.33,-149.724 2202.71,-140.52"/>
<polygon fill="midnightblue" stroke="midnightblue" points="2205.55,-138.459 2197.35,-131.751 2199.58,-142.109 2205.55,-138.459"/>
</g>
<!-- Node54&#45;&gt;Node9 -->
<g id="edge20" class="edge"><title>Node54&#45;&gt;Node9</title>
<path fill="none" stroke="midnightblue" d="M1056.91,-168.261C1049.8,-159.355 1038.69,-145.035 1030,-132 1019.6,-116.4 1008.92,-97.8751 1001.55,-84.6008"/>
<polygon fill="midnightblue" stroke="midnightblue" points="1004.49,-82.6885 996.608,-75.6086 998.354,-86.0585 1004.49,-82.6885"/>
</g>
<!-- Node54&#45;&gt;Node55 -->
<g id="edge21" class="edge"><title>Node54&#45;&gt;Node55</title>
<path fill="none" stroke="midnightblue" d="M1067.3,-168.083C1069.98,-160.849 1073.85,-150.409 1077.19,-141.397"/>
<polygon fill="midnightblue" stroke="midnightblue" points="1080.57,-142.344 1080.76,-131.751 1074,-139.913 1080.57,-142.344"/>
</g>
<!-- Node69&#45;&gt;Node9 -->
<g id="edge27" class="edge"><title>Node69&#45;&gt;Node9</title>
<path fill="none" stroke="midnightblue" d="M1169.57,-112.444C1133.14,-103.122 1074.77,-88.1828 1034.97,-77.9972"/>
<polygon fill="midnightblue" stroke="midnightblue" points="1035.83,-74.6051 1025.28,-75.5164 1034.1,-81.3866 1035.83,-74.6051"/>
</g>
<!-- Node73&#45;&gt;Node9 -->
<g id="edge31" class="edge"><title>Node73&#45;&gt;Node9</title>
<path fill="none" stroke="midnightblue" d="M1277.72,-113.647C1274.43,-113.086 1271.16,-112.531 1268,-112 1194.19,-99.5964 1109.2,-85.8136 1053.25,-76.8102"/>
<polygon fill="midnightblue" stroke="midnightblue" points="1053.58,-73.3183 1043.15,-75.1861 1052.46,-80.2295 1053.58,-73.3183"/>
</g>
<!-- Node77&#45;&gt;Node9 -->
<g id="edge34" class="edge"><title>Node77&#45;&gt;Node9</title>
<path fill="none" stroke="midnightblue" d="M1379.93,-113.502C1376.57,-112.974 1373.23,-112.467 1370,-112 1258.64,-95.927 1128.23,-81.3306 1053.35,-73.3551"/>
<polygon fill="midnightblue" stroke="midnightblue" points="1053.47,-69.8487 1043.16,-72.2742 1052.73,-76.8096 1053.47,-69.8487"/>
</g>
<!-- Node33&#45;&gt;Node9 -->
<g id="edge37" class="edge"><title>Node33&#45;&gt;Node9</title>
<path fill="none" stroke="midnightblue" d="M485.243,-113.327C488.201,-112.845 491.145,-112.396 494,-112 650.646,-90.2873 836.53,-76.6892 930.717,-70.6518"/>
<polygon fill="midnightblue" stroke="midnightblue" points="931.159,-74.1309 940.917,-70.0046 930.715,-67.1449 931.159,-74.1309"/>
</g>
<!-- Node88&#45;&gt;Node9 -->
<g id="edge39" class="edge"><title>Node88&#45;&gt;Node9</title>
<path fill="none" stroke="midnightblue" d="M584.606,-113.318C587.443,-112.85 590.262,-112.405 593,-112 712.122,-94.3646 852.158,-80.0394 930.643,-72.587"/>
<polygon fill="midnightblue" stroke="midnightblue" points="931.208,-76.0494 940.835,-71.6251 930.551,-69.0803 931.208,-76.0494"/>
</g>
<!-- Node27&#45;&gt;Node9 -->
<g id="edge43" class="edge"><title>Node27&#45;&gt;Node9</title>
<path fill="none" stroke="midnightblue" d="M691.525,-113.388C694.392,-112.914 697.236,-112.448 700,-112 779.694,-99.0935 871.771,-85.0471 930.879,-76.1412"/>
<polygon fill="midnightblue" stroke="midnightblue" points="931.43,-79.5978 940.797,-74.6484 930.388,-72.6758 931.43,-79.5978"/>
</g>
<!-- Node103&#45;&gt;Node9 -->
<g id="edge46" class="edge"><title>Node103&#45;&gt;Node9</title>
<path fill="none" stroke="midnightblue" d="M796.761,-112.444C837.063,-103.063 901.809,-87.9926 945.585,-77.8036"/>
<polygon fill="midnightblue" stroke="midnightblue" points="946.465,-81.1924 955.411,-75.5164 944.878,-74.3746 946.465,-81.1924"/>
</g>
<!-- Node108&#45;&gt;Node9 -->
<g id="edge48" class="edge"><title>Node108&#45;&gt;Node9</title>
<path fill="none" stroke="midnightblue" d="M1363.36,-170.324C1404.36,-163.022 1461.54,-149.925 1475,-132 1480.34,-124.892 1480.99,-118.57 1475,-112 1447.1,-81.3847 1176.87,-71.249 1053.22,-68.1965"/>
<polygon fill="midnightblue" stroke="midnightblue" points="1053.22,-64.6958 1043.14,-67.9555 1053.06,-71.6938 1053.22,-64.6958"/>
</g>
<!-- Node108&#45;&gt;Node77 -->
<g id="edge49" class="edge"><title>Node108&#45;&gt;Node77</title>
<path fill="none" stroke="midnightblue" d="M1336.55,-168.324C1352.99,-159.703 1378.43,-146.364 1397.47,-136.386"/>
<polygon fill="midnightblue" stroke="midnightblue" points="1399.26,-139.398 1406.49,-131.655 1396.01,-133.198 1399.26,-139.398"/>
</g>
<!-- Node111&#45;&gt;Node9 -->
<g id="edge51" class="edge"><title>Node111&#45;&gt;Node9</title>
<path fill="none" stroke="midnightblue" d="M903.87,-112.324C920.709,-103.664 946.807,-90.2424 966.238,-80.249"/>
<polygon fill="midnightblue" stroke="midnightblue" points="967.88,-83.3405 975.172,-75.6545 964.678,-77.1155 967.88,-83.3405"/>
</g>
<!-- Node131&#45;&gt;Node10 -->
<g id="edge61" class="edge"><title>Node131&#45;&gt;Node10</title>
<path fill="none" stroke="midnightblue" d="M1302.22,-56.4435C1273.67,-47.3196 1228.27,-32.8133 1196.46,-22.6509"/>
<polygon fill="midnightblue" stroke="midnightblue" points="1197.24,-19.2262 1186.65,-19.5164 1195.11,-25.8941 1197.24,-19.2262"/>
</g>
</g>
</svg>
