<?xml version="1.0" encoding="UTF-8" standalone="no"?>
<!DOCTYPE svg PUBLIC "-//W3C//DTD SVG 1.1//EN"
 "http://www.w3.org/Graphics/SVG/1.1/DTD/svg11.dtd">
<!-- Generated by graphviz version 2.36.0 (20140111.2315)
 -->
<!-- Title: packet_io_stats.h Pages: 1 -->
<svg width="261pt" height="476pt"
 viewBox="0.00 0.00 261.00 476.00" xmlns="http://www.w3.org/2000/svg" xmlns:xlink="http://www.w3.org/1999/xlink">
<g id="graph0" class="graph" transform="scale(1 1) rotate(0) translate(4 472)">
<title>packet_io_stats.h</title>
<polygon fill="white" stroke="none" points="-4,4 -4,-472 257,-472 257,4 -4,4"/>
<!-- Node4 -->
<g id="node1" class="node"><title>Node4</title>
<polygon fill="#bfbfbf" stroke="black" points="82,-448.5 82,-467.5 176,-467.5 176,-448.5 82,-448.5"/>
<text text-anchor="middle" x="129" y="-455.5" font-family="Helvetica,sans-Serif" font-size="10.00">packet_io_stats.h</text>
</g>
<!-- Node5 -->
<g id="node2" class="node"><title>Node5</title>
<g id="a_node2"><a xlink:href="api_2spec_2packet__io_8h.html" target="_top" xlink:title="ODP Packet IO. ">
<polygon fill="white" stroke="black" points="95.5,-392.5 95.5,-411.5 162.5,-411.5 162.5,-392.5 95.5,-392.5"/>
<text text-anchor="middle" x="129" y="-399.5" font-family="Helvetica,sans-Serif" font-size="10.00">packet_io.h</text>
</a>
</g>
</g>
<!-- Node4&#45;&gt;Node5 -->
<g id="edge1" class="edge"><title>Node4&#45;&gt;Node5</title>
<path fill="none" stroke="midnightblue" d="M129,-437.805C129,-428.91 129,-418.78 129,-411.751"/>
<polygon fill="midnightblue" stroke="midnightblue" points="125.5,-438.083 129,-448.083 132.5,-438.083 125.5,-438.083"/>
</g>
<!-- Node6 -->
<g id="node3" class="node"><title>Node6</title>
<g id="a_node3"><a xlink:href="api_2packet__io_8h.html" target="_top" xlink:title="ODP Packet IO. ">
<polygon fill="white" stroke="black" points="95.5,-336.5 95.5,-355.5 162.5,-355.5 162.5,-336.5 95.5,-336.5"/>
<text text-anchor="middle" x="129" y="-343.5" font-family="Helvetica,sans-Serif" font-size="10.00">packet_io.h</text>
</a>
</g>
</g>
<!-- Node5&#45;&gt;Node6 -->
<g id="edge2" class="edge"><title>Node5&#45;&gt;Node6</title>
<path fill="none" stroke="midnightblue" d="M129,-381.805C129,-372.91 129,-362.78 129,-355.751"/>
<polygon fill="midnightblue" stroke="midnightblue" points="125.5,-382.083 129,-392.083 132.5,-382.083 125.5,-382.083"/>
</g>
<!-- Node7 -->
<g id="node4" class="node"><title>Node7</title>
<g id="a_node4"><a xlink:href="api_2spec_2classification_8h.html" target="_top" xlink:title="ODP classification descriptor. ">
<polygon fill="white" stroke="black" points="0,-280.5 0,-299.5 82,-299.5 82,-280.5 0,-280.5"/>
<text text-anchor="middle" x="41" y="-287.5" font-family="Helvetica,sans-Serif" font-size="10.00">classification.h</text>
</a>
</g>
</g>
<!-- Node6&#45;&gt;Node7 -->
<g id="edge3" class="edge"><title>Node6&#45;&gt;Node7</title>
<path fill="none" stroke="midnightblue" d="M106.023,-330.901C89.8866,-320.999 68.8187,-308.071 55.1036,-299.655"/>
<polygon fill="midnightblue" stroke="midnightblue" points="104.507,-334.077 114.861,-336.324 108.169,-328.111 104.507,-334.077"/>
</g>
<!-- Node9 -->
<g id="node6" class="node"><title>Node9</title>
<g id="a_node6"><a xlink:href="api_2spec_2ipsec_8h.html" target="_top" xlink:title="ODP IPSEC API. ">
<polygon fill="white" stroke="black" points="72,-168.5 72,-187.5 120,-187.5 120,-168.5 72,-168.5"/>
<text text-anchor="middle" x="96" y="-175.5" font-family="Helvetica,sans-Serif" font-size="10.00">ipsec.h</text>
</a>
</g>
</g>
<!-- Node6&#45;&gt;Node9 -->
<g id="edge10" class="edge"><title>Node6&#45;&gt;Node9</title>
<path fill="none" stroke="midnightblue" d="M125.209,-325.93C118.05,-289.92 102.805,-213.231 97.7033,-187.568"/>
<polygon fill="midnightblue" stroke="midnightblue" points="121.843,-326.95 127.226,-336.075 128.709,-325.585 121.843,-326.95"/>
</g>
<!-- Node11 -->
<g id="node8" class="node"><title>Node11</title>
<g id="a_node8"><a xlink:href="odp__api_8h.html" target="_top" xlink:title="The OpenDataPlane API. ">
<polygon fill="white" stroke="black" points="92.5,-56.5 92.5,-75.5 151.5,-75.5 151.5,-56.5 92.5,-56.5"/>
<text text-anchor="middle" x="122" y="-63.5" font-family="Helvetica,sans-Serif" font-size="10.00">odp_api.h</text>
</a>
</g>
</g>
<!-- Node6&#45;&gt;Node11 -->
<g id="edge14" class="edge"><title>Node6&#45;&gt;Node11</title>
<path fill="none" stroke="midnightblue" d="M134.216,-326.39C139.841,-304.65 148,-267.511 148,-235 148,-235 148,-235 148,-177 148,-138.342 132.603,-94.0414 125.506,-75.675"/>
<polygon fill="midnightblue" stroke="midnightblue" points="130.782,-325.683 131.562,-336.249 137.541,-327.502 130.782,-325.683"/>
</g>
<!-- Node13 -->
<g id="node10" class="node"><title>Node13</title>
<g id="a_node10"><a xlink:href="api_2spec_2traffic__mngr_8h.html" target="_top" xlink:title="Copyright (c) 2015&#45;2018, Linaro Limited All rights reserved. ">
<polygon fill="white" stroke="black" points="176.5,-224.5 176.5,-243.5 253.5,-243.5 253.5,-224.5 176.5,-224.5"/>
<text text-anchor="middle" x="215" y="-231.5" font-family="Helvetica,sans-Serif" font-size="10.00">traffic_mngr.h</text>
</a>
</g>
</g>
<!-- Node6&#45;&gt;Node13 -->
<g id="edge11" class="edge"><title>Node6&#45;&gt;Node13</title>
<path fill="none" stroke="midnightblue" d="M142.078,-328.272C160.668,-304.494 194.056,-261.789 208.283,-243.591"/>
<polygon fill="midnightblue" stroke="midnightblue" points="139.15,-326.335 135.748,-336.368 144.665,-330.646 139.15,-326.335"/>
</g>
<!-- Node8 -->
<g id="node5" class="node"><title>Node8</title>
<g id="a_node5"><a xlink:href="api_2classification_8h.html" target="_top" xlink:title="ODP classification descriptor. ">
<polygon fill="white" stroke="black" points="0,-224.5 0,-243.5 82,-243.5 82,-224.5 0,-224.5"/>
<text text-anchor="middle" x="41" y="-231.5" font-family="Helvetica,sans-Serif" font-size="10.00">classification.h</text>
</a>
</g>
</g>
<!-- Node7&#45;&gt;Node8 -->
<g id="edge4" class="edge"><title>Node7&#45;&gt;Node8</title>
<path fill="none" stroke="midnightblue" d="M41,-269.805C41,-260.91 41,-250.78 41,-243.751"/>
<polygon fill="midnightblue" stroke="midnightblue" points="37.5001,-270.083 41,-280.083 44.5001,-270.083 37.5001,-270.083"/>
</g>
<!-- Node8&#45;&gt;Node9 -->
<g id="edge5" class="edge"><title>Node8&#45;&gt;Node9</title>
<path fill="none" stroke="midnightblue" d="M57.2938,-217.002C67.0406,-207.433 79.053,-195.639 87.0869,-187.751"/>
<polygon fill="midnightblue" stroke="midnightblue" points="54.7657,-214.58 50.0821,-224.083 59.6699,-219.575 54.7657,-214.58"/>
</g>
<!-- Node8&#45;&gt;Node11 -->
<g id="edge9" class="edge"><title>Node8&#45;&gt;Node11</title>
<path fill="none" stroke="midnightblue" d="M40.3525,-214.341C40.3335,-189.24 43.3689,-144.053 63,-112 72.9579,-95.7412 91.1214,-83.2413 104.675,-75.5883"/>
<polygon fill="midnightblue" stroke="midnightblue" points="36.853,-214.404 40.5276,-224.341 43.8519,-214.282 36.853,-214.404"/>
</g>
<!-- Node10 -->
<g id="node7" class="node"><title>Node10</title>
<g id="a_node7"><a xlink:href="api_2ipsec_8h.html" target="_top" xlink:title="ODP IPSEC API &#45; platform specific header. ">
<polygon fill="white" stroke="black" points="72,-112.5 72,-131.5 120,-131.5 120,-112.5 72,-112.5"/>
<text text-anchor="middle" x="96" y="-119.5" font-family="Helvetica,sans-Serif" font-size="10.00">ipsec.h</text>
</a>
</g>
</g>
<!-- Node9&#45;&gt;Node10 -->
<g id="edge6" class="edge"><title>Node9&#45;&gt;Node10</title>
<path fill="none" stroke="midnightblue" d="M96,-157.805C96,-148.91 96,-138.78 96,-131.751"/>
<polygon fill="midnightblue" stroke="midnightblue" points="92.5001,-158.083 96,-168.083 99.5001,-158.083 92.5001,-158.083"/>
</g>
<!-- Node10&#45;&gt;Node11 -->
<g id="edge7" class="edge"><title>Node10&#45;&gt;Node11</title>
<path fill="none" stroke="midnightblue" d="M104.675,-102.983C109.088,-93.8168 114.252,-83.0922 117.787,-75.7511"/>
<polygon fill="midnightblue" stroke="midnightblue" points="101.478,-101.555 100.293,-112.083 107.785,-104.591 101.478,-101.555"/>
</g>
<!-- Node12 -->
<g id="node9" class="node"><title>Node12</title>
<g id="a_node9"><a xlink:href="odp_8h.html" target="_top" xlink:title="WARNING: THIS FILE IS DEPRECATED AND WILL BE REMOVED!!! ODP APPLICATIONS SHOULD NOW INCLUDE odp_api...">
<polygon fill="white" stroke="black" points="101.5,-0.5 101.5,-19.5 142.5,-19.5 142.5,-0.5 101.5,-0.5"/>
<text text-anchor="middle" x="122" y="-7.5" font-family="Helvetica,sans-Serif" font-size="10.00">odp.h</text>
</a>
</g>
</g>
<!-- Node11&#45;&gt;Node12 -->
<g id="edge8" class="edge"><title>Node11&#45;&gt;Node12</title>
<path fill="none" stroke="midnightblue" d="M122,-45.8045C122,-36.9102 122,-26.7798 122,-19.7511"/>
<polygon fill="midnightblue" stroke="midnightblue" points="118.5,-46.083 122,-56.083 125.5,-46.083 118.5,-46.083"/>
</g>
<!-- Node14 -->
<g id="node11" class="node"><title>Node14</title>
<g id="a_node11"><a xlink:href="api_2traffic__mngr_8h.html" target="_top" xlink:title="ODP Traffic manager. ">
<polygon fill="white" stroke="black" points="176.5,-168.5 176.5,-187.5 253.5,-187.5 253.5,-168.5 176.5,-168.5"/>
<text text-anchor="middle" x="215" y="-175.5" font-family="Helvetica,sans-Serif" font-size="10.00">traffic_mngr.h</text>
</a>
</g>
</g>
<!-- Node13&#45;&gt;Node14 -->
<g id="edge12" class="edge"><title>Node13&#45;&gt;Node14</title>
<path fill="none" stroke="midnightblue" d="M215,-213.805C215,-204.91 215,-194.78 215,-187.751"/>
<polygon fill="midnightblue" stroke="midnightblue" points="211.5,-214.083 215,-224.083 218.5,-214.083 211.5,-214.083"/>
</g>
<!-- Node14&#45;&gt;Node11 -->
<g id="edge13" class="edge"><title>Node14&#45;&gt;Node11</title>
<path fill="none" stroke="midnightblue" d="M201.741,-160.343C191.135,-147.116 175.805,-128.214 162,-112 151.022,-99.1071 137.92,-84.5114 129.778,-75.5311"/>
<polygon fill="midnightblue" stroke="midnightblue" points="199.275,-162.865 208.253,-168.491 204.744,-158.494 199.275,-162.865"/>
</g>
</g>
</svg>
