<?xml version="1.0" encoding="UTF-8" standalone="no"?>
<!DOCTYPE svg PUBLIC "-//W3C//DTD SVG 1.1//EN"
 "http://www.w3.org/Graphics/SVG/1.1/DTD/svg11.dtd">
<!-- Generated by graphviz version 2.36.0 (20140111.2315)
 -->
<!-- Title: packet_io_stats.h Pages: 1 -->
<svg width="233pt" height="152pt"
 viewBox="0.00 0.00 233.00 152.00" xmlns="http://www.w3.org/2000/svg" xmlns:xlink="http://www.w3.org/1999/xlink">
<g id="graph0" class="graph" transform="scale(1 1) rotate(0) translate(4 148)">
<title>packet_io_stats.h</title>
<polygon fill="white" stroke="none" points="-4,4 -4,-148 229,-148 229,4 -4,4"/>
<!-- Node0 -->
<g id="node1" class="node"><title>Node0</title>
<polygon fill="#bfbfbf" stroke="black" points="67,-124.5 67,-143.5 161,-143.5 161,-124.5 67,-124.5"/>
<text text-anchor="middle" x="114" y="-131.5" font-family="Helvetica,sans-Serif" font-size="10.00">packet_io_stats.h</text>
</g>
<!-- Node1 -->
<g id="node2" class="node"><title>Node1</title>
<g id="a_node2"><a xlink:href="spec_2packet__io__stats_8h.html" target="_top" xlink:title="ODP Packet IO. ">
<polygon fill="white" stroke="black" points="62,-57 62,-87 166,-87 166,-57 62,-57"/>
<text text-anchor="start" x="70" y="-75" font-family="Helvetica,sans-Serif" font-size="10.00">odp/api/spec/packet</text>
<text text-anchor="middle" x="114" y="-64" font-family="Helvetica,sans-Serif" font-size="10.00">_io_stats.h</text>
</a>
</g>
</g>
<!-- Node0&#45;&gt;Node1 -->
<g id="edge1" class="edge"><title>Node0&#45;&gt;Node1</title>
<path fill="none" stroke="midnightblue" d="M114,-124.403C114,-117.341 114,-106.975 114,-97.399"/>
<polygon fill="midnightblue" stroke="midnightblue" points="117.5,-97.1408 114,-87.1408 110.5,-97.1408 117.5,-97.1408"/>
</g>
<!-- Node2 -->
<g id="node3" class="node"><title>Node2</title>
<g id="a_node3"><a xlink:href="visibility__begin_8h_source.html" target="_top" xlink:title="odp/visibility_begin.h">
<polygon fill="white" stroke="black" points="-0.5,-0.5 -0.5,-19.5 106.5,-19.5 106.5,-0.5 -0.5,-0.5"/>
<text text-anchor="middle" x="53" y="-7.5" font-family="Helvetica,sans-Serif" font-size="10.00">odp/visibility_begin.h</text>
</a>
</g>
</g>
<!-- Node1&#45;&gt;Node2 -->
<g id="edge2" class="edge"><title>Node1&#45;&gt;Node2</title>
<path fill="none" stroke="midnightblue" d="M99.5439,-56.7808C90.4057,-47.7925 78.5814,-36.162 69.1376,-26.8731"/>
<polygon fill="midnightblue" stroke="midnightblue" points="71.4597,-24.2477 61.876,-19.7305 66.551,-29.2382 71.4597,-24.2477"/>
</g>
<!-- Node3 -->
<g id="node4" class="node"><title>Node3</title>
<g id="a_node4"><a xlink:href="visibility__end_8h_source.html" target="_top" xlink:title="odp/visibility_end.h">
<polygon fill="white" stroke="black" points="125,-0.5 125,-19.5 225,-19.5 225,-0.5 125,-0.5"/>
<text text-anchor="middle" x="175" y="-7.5" font-family="Helvetica,sans-Serif" font-size="10.00">odp/visibility_end.h</text>
</a>
</g>
</g>
<!-- Node1&#45;&gt;Node3 -->
<g id="edge3" class="edge"><title>Node1&#45;&gt;Node3</title>
<path fill="none" stroke="midnightblue" d="M128.456,-56.7808C137.594,-47.7925 149.419,-36.162 158.862,-26.8731"/>
<polygon fill="midnightblue" stroke="midnightblue" points="161.449,-29.2382 166.124,-19.7305 156.54,-24.2477 161.449,-29.2382"/>
</g>
</g>
</svg>
