<?xml version="1.0" encoding="UTF-8" standalone="no"?>
<!DOCTYPE svg PUBLIC "-//W3C//DTD SVG 1.1//EN"
 "http://www.w3.org/Graphics/SVG/1.1/DTD/svg11.dtd">
<!-- Generated by graphviz version 2.36.0 (20140111.2315)
 -->
<!-- Title: queue_types.h Pages: 1 -->
<svg width="406pt" height="320pt"
 viewBox="0.00 0.00 406.38 320.00" xmlns="http://www.w3.org/2000/svg" xmlns:xlink="http://www.w3.org/1999/xlink">
<g id="graph0" class="graph" transform="scale(1 1) rotate(0) translate(4 316)">
<title>queue_types.h</title>
<polygon fill="white" stroke="none" points="-4,4 -4,-316 402.384,-316 402.384,4 -4,4"/>
<!-- Node0 -->
<g id="node1" class="node"><title>Node0</title>
<polygon fill="#bfbfbf" stroke="black" points="122.384,-292.5 122.384,-311.5 202.384,-311.5 202.384,-292.5 122.384,-292.5"/>
<text text-anchor="middle" x="162.384" y="-299.5" font-family="Helvetica,sans-Serif" font-size="10.00">queue_types.h</text>
</g>
<!-- Node1 -->
<g id="node2" class="node"><title>Node1</title>
<g id="a_node2"><a xlink:href="visibility__begin_8h_source.html" target="_top" xlink:title="odp/visibility_begin.h">
<polygon fill="white" stroke="black" points="87.8839,-0.5 87.8839,-19.5 194.884,-19.5 194.884,-0.5 87.8839,-0.5"/>
<text text-anchor="middle" x="141.384" y="-7.5" font-family="Helvetica,sans-Serif" font-size="10.00">odp/visibility_begin.h</text>
</a>
</g>
</g>
<!-- Node0&#45;&gt;Node1 -->
<g id="edge1" class="edge"><title>Node0&#45;&gt;Node1</title>
<path fill="none" stroke="midnightblue" d="M122.219,-295.891C93.7813,-290.385 56.3968,-279.07 31.3839,-256 6.07329,-232.656 0.383937,-219.432 0.383937,-185 0.383937,-185 0.383937,-185 0.383937,-121 0.383937,-90.9022 -1.15181,-78.0036 19.3839,-56 34.8786,-39.3977 57.0337,-28.8948 78.2223,-22.2612"/>
<polygon fill="midnightblue" stroke="midnightblue" points="79.2257,-25.6145 87.8622,-19.4776 77.2837,-18.8893 79.2257,-25.6145"/>
</g>
<!-- Node2 -->
<g id="node3" class="node"><title>Node2</title>
<g id="a_node3"><a xlink:href="api_2schedule__types_8h.html" target="_top" xlink:title="ODP schedule. ">
<polygon fill="white" stroke="black" points="166.384,-236.5 166.384,-255.5 294.384,-255.5 294.384,-236.5 166.384,-236.5"/>
<text text-anchor="middle" x="230.384" y="-243.5" font-family="Helvetica,sans-Serif" font-size="10.00">odp/api/schedule_types.h</text>
</a>
</g>
</g>
<!-- Node0&#45;&gt;Node2 -->
<g id="edge2" class="edge"><title>Node0&#45;&gt;Node2</title>
<path fill="none" stroke="midnightblue" d="M173.309,-292.324C183.559,-284.185 199.105,-271.839 211.385,-262.087"/>
<polygon fill="midnightblue" stroke="midnightblue" points="213.605,-264.794 219.26,-255.834 209.252,-259.312 213.605,-264.794"/>
</g>
<!-- Node7 -->
<g id="node8" class="node"><title>Node7</title>
<g id="a_node8"><a xlink:href="visibility__end_8h_source.html" target="_top" xlink:title="odp/visibility_end.h">
<polygon fill="white" stroke="black" points="267.384,-0.5 267.384,-19.5 367.384,-19.5 367.384,-0.5 267.384,-0.5"/>
<text text-anchor="middle" x="317.384" y="-7.5" font-family="Helvetica,sans-Serif" font-size="10.00">odp/visibility_end.h</text>
</a>
</g>
</g>
<!-- Node0&#45;&gt;Node7 -->
<g id="edge15" class="edge"><title>Node0&#45;&gt;Node7</title>
<path fill="none" stroke="midnightblue" d="M202.418,-299.053C269.75,-293.392 398.384,-271.286 398.384,-185 398.384,-185 398.384,-185 398.384,-121 398.384,-80.4453 362.243,-44.9891 338.243,-25.9149"/>
<polygon fill="midnightblue" stroke="midnightblue" points="340.112,-22.9379 330.04,-19.6497 335.863,-28.501 340.112,-22.9379"/>
</g>
<!-- Node8 -->
<g id="node9" class="node"><title>Node8</title>
<g id="a_node9"><a xlink:href="deprecated_8h.html" target="_top" xlink:title="Control deprecated API definitions. ">
<polygon fill="white" stroke="black" points="40.8839,-236.5 40.8839,-255.5 147.884,-255.5 147.884,-236.5 40.8839,-236.5"/>
<text text-anchor="middle" x="94.3839" y="-243.5" font-family="Helvetica,sans-Serif" font-size="10.00">odp/api/deprecated.h</text>
</a>
</g>
</g>
<!-- Node0&#45;&gt;Node8 -->
<g id="edge11" class="edge"><title>Node0&#45;&gt;Node8</title>
<path fill="none" stroke="midnightblue" d="M151.459,-292.324C141.209,-284.185 125.663,-271.839 113.383,-262.087"/>
<polygon fill="midnightblue" stroke="midnightblue" points="115.516,-259.312 105.508,-255.834 111.163,-264.794 115.516,-259.312"/>
</g>
<!-- Node3 -->
<g id="node4" class="node"><title>Node3</title>
<polygon fill="white" stroke="#bfbfbf" points="264.384,-169 264.384,-199 370.384,-199 370.384,-169 264.384,-169"/>
<text text-anchor="start" x="272.384" y="-187" font-family="Helvetica,sans-Serif" font-size="10.00">odp/api/abi/schedule</text>
<text text-anchor="middle" x="317.384" y="-176" font-family="Helvetica,sans-Serif" font-size="10.00">_types.h</text>
</g>
<!-- Node2&#45;&gt;Node3 -->
<g id="edge3" class="edge"><title>Node2&#45;&gt;Node3</title>
<path fill="none" stroke="midnightblue" d="M242.849,-236.403C254.742,-228.201 273.093,-215.545 288.61,-204.844"/>
<polygon fill="midnightblue" stroke="midnightblue" points="290.635,-207.699 296.88,-199.141 286.661,-201.937 290.635,-207.699"/>
</g>
<!-- Node4 -->
<g id="node5" class="node"><title>Node4</title>
<g id="a_node5"><a xlink:href="api_2spec_2schedule__types_8h.html" target="_top" xlink:title="ODP schedule types. ">
<polygon fill="white" stroke="black" points="132.384,-169 132.384,-199 246.384,-199 246.384,-169 132.384,-169"/>
<text text-anchor="start" x="140.384" y="-187" font-family="Helvetica,sans-Serif" font-size="10.00">odp/api/spec/schedule</text>
<text text-anchor="middle" x="189.384" y="-176" font-family="Helvetica,sans-Serif" font-size="10.00">_types.h</text>
</a>
</g>
</g>
<!-- Node2&#45;&gt;Node4 -->
<g id="edge4" class="edge"><title>Node2&#45;&gt;Node4</title>
<path fill="none" stroke="midnightblue" d="M224.51,-236.403C219.372,-228.885 211.677,-217.624 204.798,-207.556"/>
<polygon fill="midnightblue" stroke="midnightblue" points="207.579,-205.423 199.047,-199.141 201.799,-209.372 207.579,-205.423"/>
</g>
<!-- Node4&#45;&gt;Node1 -->
<g id="edge5" class="edge"><title>Node4&#45;&gt;Node1</title>
<path fill="none" stroke="midnightblue" d="M188.771,-168.844C187.359,-144.911 182.798,-95.2263 168.384,-56 164.815,-46.2884 159.1,-36.3377 153.844,-28.2711"/>
<polygon fill="midnightblue" stroke="midnightblue" points="156.578,-26.0696 148.042,-19.7944 150.802,-30.0234 156.578,-26.0696"/>
</g>
<!-- Node5 -->
<g id="node6" class="node"><title>Node5</title>
<g id="a_node6"><a xlink:href="support_8h.html" target="_top" xlink:title="ODP support API &#45; platform specific header. ">
<polygon fill="white" stroke="black" points="222.384,-112.5 222.384,-131.5 314.384,-131.5 314.384,-112.5 222.384,-112.5"/>
<text text-anchor="middle" x="268.384" y="-119.5" font-family="Helvetica,sans-Serif" font-size="10.00">odp/api/support.h</text>
</a>
</g>
</g>
<!-- Node4&#45;&gt;Node5 -->
<g id="edge6" class="edge"><title>Node4&#45;&gt;Node5</title>
<path fill="none" stroke="midnightblue" d="M208.106,-168.781C220.296,-159.523 236.176,-147.462 248.577,-138.044"/>
<polygon fill="midnightblue" stroke="midnightblue" points="251.042,-140.566 256.889,-131.731 246.808,-134.992 251.042,-140.566"/>
</g>
<!-- Node4&#45;&gt;Node7 -->
<g id="edge10" class="edge"><title>Node4&#45;&gt;Node7</title>
<path fill="none" stroke="midnightblue" d="M239.666,-168.922C272.534,-158.797 311.495,-144.738 323.384,-132 347.001,-106.696 348.485,-89.6511 340.384,-56 338.077,-46.4183 333.367,-36.5813 328.806,-28.5579"/>
<polygon fill="midnightblue" stroke="midnightblue" points="331.673,-26.537 323.489,-19.8095 325.692,-30.1727 331.673,-26.537"/>
</g>
<!-- Node6 -->
<g id="node7" class="node"><title>Node6</title>
<g id="a_node7"><a xlink:href="spec_2support_8h.html" target="_top" xlink:title="ODP support API. ">
<polygon fill="white" stroke="black" points="216.384,-56.5 216.384,-75.5 332.384,-75.5 332.384,-56.5 216.384,-56.5"/>
<text text-anchor="middle" x="274.384" y="-63.5" font-family="Helvetica,sans-Serif" font-size="10.00">odp/api/spec/support.h</text>
</a>
</g>
</g>
<!-- Node5&#45;&gt;Node6 -->
<g id="edge7" class="edge"><title>Node5&#45;&gt;Node6</title>
<path fill="none" stroke="midnightblue" d="M269.375,-112.083C270.17,-104.927 271.313,-94.6353 272.307,-85.6911"/>
<polygon fill="midnightblue" stroke="midnightblue" points="275.786,-86.0765 273.412,-75.7511 268.829,-85.3034 275.786,-86.0765"/>
</g>
<!-- Node6&#45;&gt;Node1 -->
<g id="edge8" class="edge"><title>Node6&#45;&gt;Node1</title>
<path fill="none" stroke="midnightblue" d="M253.31,-56.4435C231.324,-47.5171 196.65,-33.4387 171.72,-23.3168"/>
<polygon fill="midnightblue" stroke="midnightblue" points="172.942,-20.0355 162.36,-19.5164 170.308,-26.5213 172.942,-20.0355"/>
</g>
<!-- Node6&#45;&gt;Node7 -->
<g id="edge9" class="edge"><title>Node6&#45;&gt;Node7</title>
<path fill="none" stroke="midnightblue" d="M281.485,-56.083C287.621,-48.3768 296.654,-37.0333 304.123,-27.6531"/>
<polygon fill="midnightblue" stroke="midnightblue" points="306.924,-29.7542 310.415,-19.7511 301.448,-25.3936 306.924,-29.7542"/>
</g>
<!-- Node9 -->
<g id="node10" class="node"><title>Node9</title>
<g id="a_node10"><a xlink:href="spec_2deprecated_8h.html" target="_top" xlink:title="Macro for deprecated API definitions. ">
<polygon fill="white" stroke="black" points="28.8839,-56.5 28.8839,-75.5 159.884,-75.5 159.884,-56.5 28.8839,-56.5"/>
<text text-anchor="middle" x="94.3839" y="-63.5" font-family="Helvetica,sans-Serif" font-size="10.00">odp/api/spec/deprecated.h</text>
</a>
</g>
</g>
<!-- Node8&#45;&gt;Node9 -->
<g id="edge12" class="edge"><title>Node8&#45;&gt;Node9</title>
<path fill="none" stroke="midnightblue" d="M94.3839,-236.415C94.3839,-209.227 94.3839,-124.563 94.3839,-86.2169"/>
<polygon fill="midnightblue" stroke="midnightblue" points="97.884,-85.9184 94.3839,-75.9185 90.884,-85.9185 97.884,-85.9184"/>
</g>
<!-- Node9&#45;&gt;Node1 -->
<g id="edge13" class="edge"><title>Node9&#45;&gt;Node1</title>
<path fill="none" stroke="midnightblue" d="M102.145,-56.083C108.921,-48.2982 118.927,-36.8015 127.139,-27.3665"/>
<polygon fill="midnightblue" stroke="midnightblue" points="129.842,-29.592 133.767,-19.7511 124.562,-24.9963 129.842,-29.592"/>
</g>
<!-- Node9&#45;&gt;Node7 -->
<g id="edge14" class="edge"><title>Node9&#45;&gt;Node7</title>
<path fill="none" stroke="midnightblue" d="M129.719,-56.4435C168.295,-47.1024 230.169,-32.1194 272.237,-21.9326"/>
<polygon fill="midnightblue" stroke="midnightblue" points="273.319,-25.2717 282.214,-19.5164 271.671,-18.4683 273.319,-25.2717"/>
</g>
</g>
</svg>
