<?xml version="1.0" encoding="UTF-8" standalone="no"?>
<!DOCTYPE svg PUBLIC "-//W3C//DTD SVG 1.1//EN"
 "http://www.w3.org/Graphics/SVG/1.1/DTD/svg11.dtd">
<!-- Generated by graphviz version 2.36.0 (20140111.2315)
 -->
<!-- Title: queue_types.h Pages: 1 -->
<svg width="409pt" height="588pt"
 viewBox="0.00 0.00 409.00 588.00" xmlns="http://www.w3.org/2000/svg" xmlns:xlink="http://www.w3.org/1999/xlink">
<g id="graph0" class="graph" transform="scale(1 1) rotate(0) translate(4 584)">
<title>queue_types.h</title>
<polygon fill="white" stroke="none" points="-4,4 -4,-584 405,-584 405,4 -4,4"/>
<!-- Node10 -->
<g id="node1" class="node"><title>Node10</title>
<polygon fill="#bfbfbf" stroke="black" points="91,-560.5 91,-579.5 171,-579.5 171,-560.5 91,-560.5"/>
<text text-anchor="middle" x="131" y="-567.5" font-family="Helvetica,sans-Serif" font-size="10.00">queue_types.h</text>
</g>
<!-- Node11 -->
<g id="node2" class="node"><title>Node11</title>
<g id="a_node2"><a xlink:href="api_2spec_2queue_8h.html" target="_top" xlink:title="ODP queue. ">
<polygon fill="white" stroke="black" points="105.5,-504.5 105.5,-523.5 156.5,-523.5 156.5,-504.5 105.5,-504.5"/>
<text text-anchor="middle" x="131" y="-511.5" font-family="Helvetica,sans-Serif" font-size="10.00">queue.h</text>
</a>
</g>
</g>
<!-- Node10&#45;&gt;Node11 -->
<g id="edge1" class="edge"><title>Node10&#45;&gt;Node11</title>
<path fill="none" stroke="midnightblue" d="M131,-549.805C131,-540.91 131,-530.78 131,-523.751"/>
<polygon fill="midnightblue" stroke="midnightblue" points="127.5,-550.083 131,-560.083 134.5,-550.083 127.5,-550.083"/>
</g>
<!-- Node12 -->
<g id="node3" class="node"><title>Node12</title>
<g id="a_node3"><a xlink:href="api_2queue_8h.html" target="_top" xlink:title="ODP queue. ">
<polygon fill="white" stroke="black" points="105.5,-448.5 105.5,-467.5 156.5,-467.5 156.5,-448.5 105.5,-448.5"/>
<text text-anchor="middle" x="131" y="-455.5" font-family="Helvetica,sans-Serif" font-size="10.00">queue.h</text>
</a>
</g>
</g>
<!-- Node11&#45;&gt;Node12 -->
<g id="edge2" class="edge"><title>Node11&#45;&gt;Node12</title>
<path fill="none" stroke="midnightblue" d="M131,-493.805C131,-484.91 131,-474.78 131,-467.751"/>
<polygon fill="midnightblue" stroke="midnightblue" points="127.5,-494.083 131,-504.083 134.5,-494.083 127.5,-494.083"/>
</g>
<!-- Node13 -->
<g id="node4" class="node"><title>Node13</title>
<g id="a_node4"><a xlink:href="api_2crypto_8h.html" target="_top" xlink:title="ODP crypto. ">
<polygon fill="white" stroke="black" points="28,-224.5 28,-243.5 80,-243.5 80,-224.5 28,-224.5"/>
<text text-anchor="middle" x="54" y="-231.5" font-family="Helvetica,sans-Serif" font-size="10.00">crypto.h</text>
</a>
</g>
</g>
<!-- Node12&#45;&gt;Node13 -->
<g id="edge3" class="edge"><title>Node12&#45;&gt;Node13</title>
<path fill="none" stroke="midnightblue" d="M124.613,-438.585C108.849,-393.135 68.5411,-276.924 57.0813,-243.884"/>
<polygon fill="midnightblue" stroke="midnightblue" points="121.398,-439.996 127.982,-448.297 128.011,-437.703 121.398,-439.996"/>
</g>
<!-- Node16 -->
<g id="node7" class="node"><title>Node16</title>
<g id="a_node7"><a xlink:href="odp__api_8h.html" target="_top" xlink:title="The OpenDataPlane API. ">
<polygon fill="white" stroke="black" points="161.5,-56.5 161.5,-75.5 220.5,-75.5 220.5,-56.5 161.5,-56.5"/>
<text text-anchor="middle" x="191" y="-63.5" font-family="Helvetica,sans-Serif" font-size="10.00">odp_api.h</text>
</a>
</g>
</g>
<!-- Node12&#45;&gt;Node16 -->
<g id="edge23" class="edge"><title>Node12&#45;&gt;Node16</title>
<path fill="none" stroke="midnightblue" d="M96.0074,-444.958C57.2015,-429.113 0,-397.238 0,-347 0,-347 0,-347 0,-177 0,-103.53 107.438,-78.3898 161.156,-70.4118"/>
<polygon fill="midnightblue" stroke="midnightblue" points="94.8429,-448.26 105.431,-448.642 97.3918,-441.741 94.8429,-448.26"/>
</g>
<!-- Node18 -->
<g id="node9" class="node"><title>Node18</title>
<g id="a_node9"><a xlink:href="api_2spec_2packet__io_8h.html" target="_top" xlink:title="ODP Packet IO. ">
<polygon fill="white" stroke="black" points="140.5,-392.5 140.5,-411.5 207.5,-411.5 207.5,-392.5 140.5,-392.5"/>
<text text-anchor="middle" x="174" y="-399.5" font-family="Helvetica,sans-Serif" font-size="10.00">packet_io.h</text>
</a>
</g>
</g>
<!-- Node12&#45;&gt;Node18 -->
<g id="edge9" class="edge"><title>Node12&#45;&gt;Node18</title>
<path fill="none" stroke="midnightblue" d="M144.422,-440.144C151.914,-430.736 160.937,-419.405 167.032,-411.751"/>
<polygon fill="midnightblue" stroke="midnightblue" points="141.592,-438.08 138.101,-448.083 147.068,-442.44 141.592,-438.08"/>
</g>
<!-- Node24 -->
<g id="node15" class="node"><title>Node24</title>
<g id="a_node15"><a xlink:href="api_2spec_2schedule_8h.html" target="_top" xlink:title="ODP schedule. ">
<polygon fill="white" stroke="black" points="304,-336.5 304,-355.5 368,-355.5 368,-336.5 304,-336.5"/>
<text text-anchor="middle" x="336" y="-343.5" font-family="Helvetica,sans-Serif" font-size="10.00">schedule.h</text>
</a>
</g>
</g>
<!-- Node12&#45;&gt;Node24 -->
<g id="edge20" class="edge"><title>Node12&#45;&gt;Node24</title>
<path fill="none" stroke="midnightblue" d="M156.541,-443.559C173.437,-434.648 196.066,-422.675 216,-412 253.387,-391.978 297.16,-368.177 320.109,-355.67"/>
<polygon fill="midnightblue" stroke="midnightblue" points="154.534,-440.661 147.32,-448.419 157.798,-446.853 154.534,-440.661"/>
</g>
<!-- Node14 -->
<g id="node5" class="node"><title>Node14</title>
<g id="a_node5"><a xlink:href="api_2spec_2ipsec_8h.html" target="_top" xlink:title="ODP IPSEC API. ">
<polygon fill="white" stroke="black" points="167,-168.5 167,-187.5 215,-187.5 215,-168.5 167,-168.5"/>
<text text-anchor="middle" x="191" y="-175.5" font-family="Helvetica,sans-Serif" font-size="10.00">ipsec.h</text>
</a>
</g>
</g>
<!-- Node13&#45;&gt;Node14 -->
<g id="edge4" class="edge"><title>Node13&#45;&gt;Node14</title>
<path fill="none" stroke="midnightblue" d="M85.0229,-220.772C110.757,-210.629 146.686,-196.467 169.394,-187.516"/>
<polygon fill="midnightblue" stroke="midnightblue" points="83.728,-217.52 75.7081,-224.444 86.2949,-224.033 83.728,-217.52"/>
</g>
<!-- Node13&#45;&gt;Node16 -->
<g id="edge8" class="edge"><title>Node13&#45;&gt;Node16</title>
<path fill="none" stroke="midnightblue" d="M66.4138,-215.91C83.9205,-192.073 117.176,-147.748 148,-112 159.29,-98.9062 173.265,-84.6015 182.158,-75.7143"/>
<polygon fill="midnightblue" stroke="midnightblue" points="63.3923,-214.113 60.3172,-224.252 69.0437,-218.244 63.3923,-214.113"/>
</g>
<!-- Node15 -->
<g id="node6" class="node"><title>Node15</title>
<g id="a_node6"><a xlink:href="api_2ipsec_8h.html" target="_top" xlink:title="ODP IPSEC API &#45; platform specific header. ">
<polygon fill="white" stroke="black" points="167,-112.5 167,-131.5 215,-131.5 215,-112.5 167,-112.5"/>
<text text-anchor="middle" x="191" y="-119.5" font-family="Helvetica,sans-Serif" font-size="10.00">ipsec.h</text>
</a>
</g>
</g>
<!-- Node14&#45;&gt;Node15 -->
<g id="edge5" class="edge"><title>Node14&#45;&gt;Node15</title>
<path fill="none" stroke="midnightblue" d="M191,-157.805C191,-148.91 191,-138.78 191,-131.751"/>
<polygon fill="midnightblue" stroke="midnightblue" points="187.5,-158.083 191,-168.083 194.5,-158.083 187.5,-158.083"/>
</g>
<!-- Node15&#45;&gt;Node16 -->
<g id="edge6" class="edge"><title>Node15&#45;&gt;Node16</title>
<path fill="none" stroke="midnightblue" d="M191,-101.805C191,-92.9102 191,-82.7798 191,-75.7511"/>
<polygon fill="midnightblue" stroke="midnightblue" points="187.5,-102.083 191,-112.083 194.5,-102.083 187.5,-102.083"/>
</g>
<!-- Node17 -->
<g id="node8" class="node"><title>Node17</title>
<g id="a_node8"><a xlink:href="odp_8h.html" target="_top" xlink:title="WARNING: THIS FILE IS DEPRECATED AND WILL BE REMOVED!!! ODP APPLICATIONS SHOULD NOW INCLUDE odp_api...">
<polygon fill="white" stroke="black" points="170.5,-0.5 170.5,-19.5 211.5,-19.5 211.5,-0.5 170.5,-0.5"/>
<text text-anchor="middle" x="191" y="-7.5" font-family="Helvetica,sans-Serif" font-size="10.00">odp.h</text>
</a>
</g>
</g>
<!-- Node16&#45;&gt;Node17 -->
<g id="edge7" class="edge"><title>Node16&#45;&gt;Node17</title>
<path fill="none" stroke="midnightblue" d="M191,-45.8045C191,-36.9102 191,-26.7798 191,-19.7511"/>
<polygon fill="midnightblue" stroke="midnightblue" points="187.5,-46.083 191,-56.083 194.5,-46.083 187.5,-46.083"/>
</g>
<!-- Node19 -->
<g id="node10" class="node"><title>Node19</title>
<g id="a_node10"><a xlink:href="api_2packet__io_8h.html" target="_top" xlink:title="ODP Packet IO. ">
<polygon fill="white" stroke="black" points="174.5,-336.5 174.5,-355.5 241.5,-355.5 241.5,-336.5 174.5,-336.5"/>
<text text-anchor="middle" x="208" y="-343.5" font-family="Helvetica,sans-Serif" font-size="10.00">packet_io.h</text>
</a>
</g>
</g>
<!-- Node18&#45;&gt;Node19 -->
<g id="edge10" class="edge"><title>Node18&#45;&gt;Node19</title>
<path fill="none" stroke="midnightblue" d="M184.977,-383.566C190.827,-374.275 197.77,-363.248 202.49,-355.751"/>
<polygon fill="midnightblue" stroke="midnightblue" points="181.981,-381.756 179.614,-392.083 187.904,-385.486 181.981,-381.756"/>
</g>
<!-- Node19&#45;&gt;Node14 -->
<g id="edge15" class="edge"><title>Node19&#45;&gt;Node14</title>
<path fill="none" stroke="midnightblue" d="M206.047,-325.93C202.359,-289.92 194.506,-213.231 191.877,-187.568"/>
<polygon fill="midnightblue" stroke="midnightblue" points="202.585,-326.484 207.086,-336.075 209.549,-325.771 202.585,-326.484"/>
</g>
<!-- Node19&#45;&gt;Node16 -->
<g id="edge19" class="edge"><title>Node19&#45;&gt;Node16</title>
<path fill="none" stroke="midnightblue" d="M218.143,-327.429C229.4,-306.236 246,-269.187 246,-235 246,-235 246,-235 246,-177 246,-135.365 214.088,-93.3346 198.88,-75.6684"/>
<polygon fill="midnightblue" stroke="midnightblue" points="215.053,-325.785 213.284,-336.231 221.181,-329.168 215.053,-325.785"/>
</g>
<!-- Node20 -->
<g id="node11" class="node"><title>Node20</title>
<g id="a_node11"><a xlink:href="api_2spec_2classification_8h.html" target="_top" xlink:title="ODP classification descriptor. ">
<polygon fill="white" stroke="black" points="98,-280.5 98,-299.5 180,-299.5 180,-280.5 98,-280.5"/>
<text text-anchor="middle" x="139" y="-287.5" font-family="Helvetica,sans-Serif" font-size="10.00">classification.h</text>
</a>
</g>
</g>
<!-- Node19&#45;&gt;Node20 -->
<g id="edge11" class="edge"><title>Node19&#45;&gt;Node20</title>
<path fill="none" stroke="midnightblue" d="M188.962,-330.101C176.544,-320.382 160.757,-308.027 150.288,-299.834"/>
<polygon fill="midnightblue" stroke="midnightblue" points="186.882,-332.917 196.914,-336.324 191.196,-327.405 186.882,-332.917"/>
</g>
<!-- Node22 -->
<g id="node13" class="node"><title>Node22</title>
<g id="a_node13"><a xlink:href="api_2spec_2traffic__mngr_8h.html" target="_top" xlink:title="Copyright (c) 2015&#45;2018, Linaro Limited All rights reserved. ">
<polygon fill="white" stroke="black" points="274.5,-280.5 274.5,-299.5 351.5,-299.5 351.5,-280.5 274.5,-280.5"/>
<text text-anchor="middle" x="313" y="-287.5" font-family="Helvetica,sans-Serif" font-size="10.00">traffic_mngr.h</text>
</a>
</g>
</g>
<!-- Node19&#45;&gt;Node22 -->
<g id="edge16" class="edge"><title>Node19&#45;&gt;Node22</title>
<path fill="none" stroke="midnightblue" d="M233.81,-331.726C253.253,-321.727 279.348,-308.307 296.172,-299.655"/>
<polygon fill="midnightblue" stroke="midnightblue" points="232.162,-328.638 224.87,-336.324 235.364,-334.863 232.162,-328.638"/>
</g>
<!-- Node21 -->
<g id="node12" class="node"><title>Node21</title>
<g id="a_node12"><a xlink:href="api_2classification_8h.html" target="_top" xlink:title="ODP classification descriptor. ">
<polygon fill="white" stroke="black" points="98,-224.5 98,-243.5 180,-243.5 180,-224.5 98,-224.5"/>
<text text-anchor="middle" x="139" y="-231.5" font-family="Helvetica,sans-Serif" font-size="10.00">classification.h</text>
</a>
</g>
</g>
<!-- Node20&#45;&gt;Node21 -->
<g id="edge12" class="edge"><title>Node20&#45;&gt;Node21</title>
<path fill="none" stroke="midnightblue" d="M139,-269.805C139,-260.91 139,-250.78 139,-243.751"/>
<polygon fill="midnightblue" stroke="midnightblue" points="135.5,-270.083 139,-280.083 142.5,-270.083 135.5,-270.083"/>
</g>
<!-- Node21&#45;&gt;Node14 -->
<g id="edge13" class="edge"><title>Node21&#45;&gt;Node14</title>
<path fill="none" stroke="midnightblue" d="M154.679,-216.718C163.845,-207.2 175.053,-195.561 182.573,-187.751"/>
<polygon fill="midnightblue" stroke="midnightblue" points="152.002,-214.452 147.587,-224.083 157.044,-219.308 152.002,-214.452"/>
</g>
<!-- Node21&#45;&gt;Node16 -->
<g id="edge14" class="edge"><title>Node21&#45;&gt;Node16</title>
<path fill="none" stroke="midnightblue" d="M139.219,-214.385C140.102,-189.976 143.756,-146.237 158,-112 163.88,-97.8672 175.072,-84.0381 182.78,-75.5214"/>
<polygon fill="midnightblue" stroke="midnightblue" points="135.719,-214.332 138.977,-224.414 142.717,-214.501 135.719,-214.332"/>
</g>
<!-- Node23 -->
<g id="node14" class="node"><title>Node23</title>
<g id="a_node14"><a xlink:href="api_2traffic__mngr_8h.html" target="_top" xlink:title="ODP Traffic manager. ">
<polygon fill="white" stroke="black" points="274.5,-168.5 274.5,-187.5 351.5,-187.5 351.5,-168.5 274.5,-168.5"/>
<text text-anchor="middle" x="313" y="-175.5" font-family="Helvetica,sans-Serif" font-size="10.00">traffic_mngr.h</text>
</a>
</g>
</g>
<!-- Node22&#45;&gt;Node23 -->
<g id="edge17" class="edge"><title>Node22&#45;&gt;Node23</title>
<path fill="none" stroke="midnightblue" d="M313,-270.348C313,-246.254 313,-205.308 313,-187.591"/>
<polygon fill="midnightblue" stroke="midnightblue" points="309.5,-270.368 313,-280.368 316.5,-270.369 309.5,-270.368"/>
</g>
<!-- Node23&#45;&gt;Node16 -->
<g id="edge18" class="edge"><title>Node23&#45;&gt;Node16</title>
<path fill="none" stroke="midnightblue" d="M301.191,-159.713C291.209,-145.849 276.011,-126.396 260,-112 243.516,-97.1788 221.698,-83.8085 207.048,-75.5655"/>
<polygon fill="midnightblue" stroke="midnightblue" points="298.602,-162.117 307.214,-168.288 304.33,-158.093 298.602,-162.117"/>
</g>
<!-- Node25 -->
<g id="node16" class="node"><title>Node25</title>
<g id="a_node16"><a xlink:href="api_2schedule_8h.html" target="_top" xlink:title="ODP schedule. ">
<polygon fill="white" stroke="black" points="337,-112.5 337,-131.5 401,-131.5 401,-112.5 337,-112.5"/>
<text text-anchor="middle" x="369" y="-119.5" font-family="Helvetica,sans-Serif" font-size="10.00">schedule.h</text>
</a>
</g>
</g>
<!-- Node24&#45;&gt;Node25 -->
<g id="edge21" class="edge"><title>Node24&#45;&gt;Node25</title>
<path fill="none" stroke="midnightblue" d="M347.527,-327.709C352.289,-319.638 357.314,-309.69 360,-300 377.341,-237.436 372.21,-157.762 369.871,-131.685"/>
<polygon fill="midnightblue" stroke="midnightblue" points="344.556,-325.859 342.216,-336.192 350.489,-329.574 344.556,-325.859"/>
</g>
<!-- Node25&#45;&gt;Node16 -->
<g id="edge22" class="edge"><title>Node25&#45;&gt;Node16</title>
<path fill="none" stroke="midnightblue" d="M330.883,-109.436C297.322,-99.2551 249.226,-84.664 219.073,-75.5164"/>
<polygon fill="midnightblue" stroke="midnightblue" points="330.21,-112.89 340.795,-112.444 332.242,-106.191 330.21,-112.89"/>
</g>
</g>
</svg>
