<?xml version="1.0" encoding="UTF-8" standalone="no"?>
<!DOCTYPE svg PUBLIC "-//W3C//DTD SVG 1.1//EN"
 "http://www.w3.org/Graphics/SVG/1.1/DTD/svg11.dtd">
<!-- Generated by graphviz version 2.36.0 (20140111.2315)
 -->
<!-- Title: deprecated.h Pages: 1 -->
<svg width="1016pt" height="700pt"
 viewBox="0.00 0.00 1016.00 700.00" xmlns="http://www.w3.org/2000/svg" xmlns:xlink="http://www.w3.org/1999/xlink">
<g id="graph0" class="graph" transform="scale(1 1) rotate(0) translate(4 696)">
<title>deprecated.h</title>
<polygon fill="white" stroke="none" points="-4,4 -4,-696 1012,-696 1012,4 -4,4"/>
<!-- Node3 -->
<g id="node1" class="node"><title>Node3</title>
<polygon fill="#bfbfbf" stroke="black" points="749.5,-672.5 749.5,-691.5 822.5,-691.5 822.5,-672.5 749.5,-672.5"/>
<text text-anchor="middle" x="786" y="-679.5" font-family="Helvetica,sans-Serif" font-size="10.00">deprecated.h</text>
</g>
<!-- Node4 -->
<g id="node2" class="node"><title>Node4</title>
<g id="a_node2"><a xlink:href="deprecated_8h.html" target="_top" xlink:title="Control deprecated API definitions. ">
<polygon fill="white" stroke="black" points="749.5,-616.5 749.5,-635.5 822.5,-635.5 822.5,-616.5 749.5,-616.5"/>
<text text-anchor="middle" x="786" y="-623.5" font-family="Helvetica,sans-Serif" font-size="10.00">deprecated.h</text>
</a>
</g>
</g>
<!-- Node3&#45;&gt;Node4 -->
<g id="edge1" class="edge"><title>Node3&#45;&gt;Node4</title>
<path fill="none" stroke="midnightblue" d="M786,-661.805C786,-652.91 786,-642.78 786,-635.751"/>
<polygon fill="midnightblue" stroke="midnightblue" points="782.5,-662.083 786,-672.083 789.5,-662.083 782.5,-662.083"/>
</g>
<!-- Node5 -->
<g id="node3" class="node"><title>Node5</title>
<g id="a_node3"><a xlink:href="api_2abi-default_2classification_8h_source.html" target="_top" xlink:title="classification.h">
<polygon fill="white" stroke="black" points="350,-448.5 350,-467.5 432,-467.5 432,-448.5 350,-448.5"/>
<text text-anchor="middle" x="391" y="-455.5" font-family="Helvetica,sans-Serif" font-size="10.00">classification.h</text>
</a>
</g>
</g>
<!-- Node4&#45;&gt;Node5 -->
<g id="edge2" class="edge"><title>Node4&#45;&gt;Node5</title>
<path fill="none" stroke="midnightblue" d="M756.03,-612.405C679.203,-580.118 476.694,-495.013 411.52,-467.624"/>
<polygon fill="midnightblue" stroke="midnightblue" points="755.02,-615.777 765.595,-616.425 757.732,-609.324 755.02,-615.777"/>
</g>
<!-- Node16 -->
<g id="node14" class="node"><title>Node16</title>
<g id="a_node14"><a xlink:href="odp__api_8h.html" target="_top" xlink:title="The OpenDataPlane API. ">
<polygon fill="white" stroke="black" points="742.5,-56.5 742.5,-75.5 801.5,-75.5 801.5,-56.5 742.5,-56.5"/>
<text text-anchor="middle" x="772" y="-63.5" font-family="Helvetica,sans-Serif" font-size="10.00">odp_api.h</text>
</a>
</g>
</g>
<!-- Node4&#45;&gt;Node16 -->
<g id="edge39" class="edge"><title>Node4&#45;&gt;Node16</title>
<path fill="none" stroke="midnightblue" d="M800.226,-608.294C816.225,-587.748 840,-551.137 840,-515 840,-515 840,-515 840,-177 840,-133.444 800.949,-92.7317 782.034,-75.5666"/>
<polygon fill="midnightblue" stroke="midnightblue" points="797.311,-606.332 793.737,-616.306 802.751,-610.738 797.311,-606.332"/>
</g>
<!-- Node22 -->
<g id="node20" class="node"><title>Node22</title>
<g id="a_node20"><a xlink:href="api_2spec_2crypto_8h.html" target="_top" xlink:title="ODP crypto. ">
<polygon fill="white" stroke="black" points="760,-504.5 760,-523.5 812,-523.5 812,-504.5 760,-504.5"/>
<text text-anchor="middle" x="786" y="-511.5" font-family="Helvetica,sans-Serif" font-size="10.00">crypto.h</text>
</a>
</g>
</g>
<!-- Node4&#45;&gt;Node22 -->
<g id="edge24" class="edge"><title>Node4&#45;&gt;Node22</title>
<path fill="none" stroke="midnightblue" d="M786,-606.348C786,-582.254 786,-541.308 786,-523.591"/>
<polygon fill="midnightblue" stroke="midnightblue" points="782.5,-606.368 786,-616.368 789.5,-606.369 782.5,-606.368"/>
</g>
<!-- Node24 -->
<g id="node22" class="node"><title>Node24</title>
<g id="a_node22"><a xlink:href="api_2spec_2packet__io_8h.html" target="_top" xlink:title="ODP Packet IO. ">
<polygon fill="white" stroke="black" points="700.5,-392.5 700.5,-411.5 767.5,-411.5 767.5,-392.5 700.5,-392.5"/>
<text text-anchor="middle" x="734" y="-399.5" font-family="Helvetica,sans-Serif" font-size="10.00">packet_io.h</text>
</a>
</g>
</g>
<!-- Node4&#45;&gt;Node24 -->
<g id="edge28" class="edge"><title>Node4&#45;&gt;Node24</title>
<path fill="none" stroke="midnightblue" d="M778.517,-606.869C770.558,-586.896 758.153,-553.667 751,-524 741.006,-482.549 736.226,-431.596 734.633,-411.616"/>
<polygon fill="midnightblue" stroke="midnightblue" points="775.321,-608.302 782.32,-616.256 781.809,-605.673 775.321,-608.302"/>
</g>
<!-- Node25 -->
<g id="node23" class="node"><title>Node25</title>
<g id="a_node23"><a xlink:href="queue__types_8h.html" target="_top" xlink:title="ODP queue types. ">
<polygon fill="white" stroke="black" points="868,-560.5 868,-579.5 948,-579.5 948,-560.5 868,-560.5"/>
<text text-anchor="middle" x="908" y="-567.5" font-family="Helvetica,sans-Serif" font-size="10.00">queue_types.h</text>
</a>
</g>
</g>
<!-- Node4&#45;&gt;Node25 -->
<g id="edge30" class="edge"><title>Node4&#45;&gt;Node25</title>
<path fill="none" stroke="midnightblue" d="M814.539,-612.368C837.386,-602.255 868.805,-588.349 888.759,-579.516"/>
<polygon fill="midnightblue" stroke="midnightblue" points="813.059,-609.196 805.331,-616.444 815.892,-615.597 813.059,-609.196"/>
</g>
<!-- Node6 -->
<g id="node4" class="node"><title>Node6</title>
<g id="a_node4"><a xlink:href="arch_2arm32-linux_2odp_2api_2abi_2classification_8h_source.html" target="_top" xlink:title="classification.h">
<polygon fill="white" stroke="black" points="200,-392.5 200,-411.5 282,-411.5 282,-392.5 200,-392.5"/>
<text text-anchor="middle" x="241" y="-399.5" font-family="Helvetica,sans-Serif" font-size="10.00">classification.h</text>
</a>
</g>
</g>
<!-- Node5&#45;&gt;Node6 -->
<g id="edge3" class="edge"><title>Node5&#45;&gt;Node6</title>
<path fill="none" stroke="midnightblue" d="M357.775,-445.039C329.552,-434.879 289.738,-420.546 264.657,-411.516"/>
<polygon fill="midnightblue" stroke="midnightblue" points="356.638,-448.349 367.232,-448.444 359.009,-441.763 356.638,-448.349"/>
</g>
<!-- Node7 -->
<g id="node5" class="node"><title>Node7</title>
<g id="a_node5"><a xlink:href="arch_2arm64-linux_2odp_2api_2abi_2classification_8h_source.html" target="_top" xlink:title="classification.h">
<polygon fill="white" stroke="black" points="300,-392.5 300,-411.5 382,-411.5 382,-392.5 300,-392.5"/>
<text text-anchor="middle" x="341" y="-399.5" font-family="Helvetica,sans-Serif" font-size="10.00">classification.h</text>
</a>
</g>
</g>
<!-- Node5&#45;&gt;Node7 -->
<g id="edge4" class="edge"><title>Node5&#45;&gt;Node7</title>
<path fill="none" stroke="midnightblue" d="M375.924,-440.718C367.111,-431.2 356.334,-419.561 349.103,-411.751"/>
<polygon fill="midnightblue" stroke="midnightblue" points="373.381,-443.123 382.744,-448.083 378.518,-438.367 373.381,-443.123"/>
</g>
<!-- Node8 -->
<g id="node6" class="node"><title>Node8</title>
<g id="a_node6"><a xlink:href="arch_2default-linux_2odp_2api_2abi_2classification_8h_source.html" target="_top" xlink:title="classification.h">
<polygon fill="white" stroke="black" points="400,-392.5 400,-411.5 482,-411.5 482,-392.5 400,-392.5"/>
<text text-anchor="middle" x="441" y="-399.5" font-family="Helvetica,sans-Serif" font-size="10.00">classification.h</text>
</a>
</g>
</g>
<!-- Node5&#45;&gt;Node8 -->
<g id="edge5" class="edge"><title>Node5&#45;&gt;Node8</title>
<path fill="none" stroke="midnightblue" d="M406.076,-440.718C414.889,-431.2 425.666,-419.561 432.897,-411.751"/>
<polygon fill="midnightblue" stroke="midnightblue" points="403.482,-438.367 399.256,-448.083 408.619,-443.123 403.482,-438.367"/>
</g>
<!-- Node9 -->
<g id="node7" class="node"><title>Node9</title>
<g id="a_node7"><a xlink:href="arch_2mips64-linux_2odp_2api_2abi_2classification_8h_source.html" target="_top" xlink:title="classification.h">
<polygon fill="white" stroke="black" points="500,-392.5 500,-411.5 582,-411.5 582,-392.5 500,-392.5"/>
<text text-anchor="middle" x="541" y="-399.5" font-family="Helvetica,sans-Serif" font-size="10.00">classification.h</text>
</a>
</g>
</g>
<!-- Node5&#45;&gt;Node9 -->
<g id="edge6" class="edge"><title>Node5&#45;&gt;Node9</title>
<path fill="none" stroke="midnightblue" d="M424.225,-445.039C452.448,-434.879 492.262,-420.546 517.343,-411.516"/>
<polygon fill="midnightblue" stroke="midnightblue" points="422.991,-441.763 414.768,-448.444 425.362,-448.349 422.991,-441.763"/>
</g>
<!-- Node10 -->
<g id="node8" class="node"><title>Node10</title>
<g id="a_node8"><a xlink:href="arch_2power64-linux_2odp_2api_2abi_2classification_8h_source.html" target="_top" xlink:title="classification.h">
<polygon fill="white" stroke="black" points="0,-392.5 0,-411.5 82,-411.5 82,-392.5 0,-392.5"/>
<text text-anchor="middle" x="41" y="-399.5" font-family="Helvetica,sans-Serif" font-size="10.00">classification.h</text>
</a>
</g>
</g>
<!-- Node5&#45;&gt;Node10 -->
<g id="edge7" class="edge"><title>Node5&#45;&gt;Node10</title>
<path fill="none" stroke="midnightblue" d="M339.749,-449.777C279.966,-441.244 178.191,-426.383 91,-412 88.1282,-411.526 85.1659,-411.025 82.1843,-410.511"/>
<polygon fill="midnightblue" stroke="midnightblue" points="339.299,-453.248 349.692,-451.193 340.286,-446.318 339.299,-453.248"/>
</g>
<!-- Node11 -->
<g id="node9" class="node"><title>Node11</title>
<g id="a_node9"><a xlink:href="arch_2x86__32-linux_2odp_2api_2abi_2classification_8h_source.html" target="_top" xlink:title="classification.h">
<polygon fill="white" stroke="black" points="100,-392.5 100,-411.5 182,-411.5 182,-392.5 100,-392.5"/>
<text text-anchor="middle" x="141" y="-399.5" font-family="Helvetica,sans-Serif" font-size="10.00">classification.h</text>
</a>
</g>
</g>
<!-- Node5&#45;&gt;Node11 -->
<g id="edge8" class="edge"><title>Node5&#45;&gt;Node11</title>
<path fill="none" stroke="midnightblue" d="M341.377,-446.281C294.134,-436.077 223.964,-420.92 180.428,-411.516"/>
<polygon fill="midnightblue" stroke="midnightblue" points="340.873,-449.753 351.387,-448.444 342.351,-442.911 340.873,-449.753"/>
</g>
<!-- Node12 -->
<g id="node10" class="node"><title>Node12</title>
<g id="a_node10"><a xlink:href="arch_2x86__64-linux_2odp_2api_2abi_2classification_8h_source.html" target="_top" xlink:title="classification.h">
<polygon fill="white" stroke="black" points="600,-392.5 600,-411.5 682,-411.5 682,-392.5 600,-392.5"/>
<text text-anchor="middle" x="641" y="-399.5" font-family="Helvetica,sans-Serif" font-size="10.00">classification.h</text>
</a>
</g>
</g>
<!-- Node5&#45;&gt;Node12 -->
<g id="edge9" class="edge"><title>Node5&#45;&gt;Node12</title>
<path fill="none" stroke="midnightblue" d="M440.623,-446.281C487.866,-436.077 558.036,-420.92 601.572,-411.516"/>
<polygon fill="midnightblue" stroke="midnightblue" points="439.649,-442.911 430.613,-448.444 441.127,-449.753 439.649,-442.911"/>
</g>
<!-- Node13 -->
<g id="node11" class="node"><title>Node13</title>
<g id="a_node11"><a xlink:href="api_2classification_8h.html" target="_top" xlink:title="ODP classification descriptor. ">
<polygon fill="white" stroke="black" points="556,-224.5 556,-243.5 638,-243.5 638,-224.5 556,-224.5"/>
<text text-anchor="middle" x="597" y="-231.5" font-family="Helvetica,sans-Serif" font-size="10.00">classification.h</text>
</a>
</g>
</g>
<!-- Node12&#45;&gt;Node13 -->
<g id="edge10" class="edge"><title>Node12&#45;&gt;Node13</title>
<path fill="none" stroke="midnightblue" d="M620.003,-386.271C597.057,-368.752 561.617,-337.161 547,-300 543.746,-291.728 543.384,-288.12 547,-280 554.127,-263.998 570.068,-251.298 582.048,-243.526"/>
<polygon fill="midnightblue" stroke="midnightblue" points="617.996,-389.14 628.116,-392.278 622.162,-383.514 617.996,-389.14"/>
</g>
<!-- Node18 -->
<g id="node16" class="node"><title>Node18</title>
<g id="a_node16"><a xlink:href="api_2packet__io_8h.html" target="_top" xlink:title="ODP Packet IO. ">
<polygon fill="white" stroke="black" points="619.5,-336.5 619.5,-355.5 686.5,-355.5 686.5,-336.5 619.5,-336.5"/>
<text text-anchor="middle" x="653" y="-343.5" font-family="Helvetica,sans-Serif" font-size="10.00">packet_io.h</text>
</a>
</g>
</g>
<!-- Node12&#45;&gt;Node18 -->
<g id="edge16" class="edge"><title>Node12&#45;&gt;Node18</title>
<path fill="none" stroke="midnightblue" d="M645.2,-382.101C647.192,-373.136 649.476,-362.858 651.055,-355.751"/>
<polygon fill="midnightblue" stroke="midnightblue" points="641.734,-381.562 642.982,-392.083 648.568,-383.08 641.734,-381.562"/>
</g>
<!-- Node14 -->
<g id="node12" class="node"><title>Node14</title>
<g id="a_node12"><a xlink:href="api_2spec_2ipsec_8h.html" target="_top" xlink:title="ODP IPSEC API. ">
<polygon fill="white" stroke="black" points="627,-168.5 627,-187.5 675,-187.5 675,-168.5 627,-168.5"/>
<text text-anchor="middle" x="651" y="-175.5" font-family="Helvetica,sans-Serif" font-size="10.00">ipsec.h</text>
</a>
</g>
</g>
<!-- Node13&#45;&gt;Node14 -->
<g id="edge11" class="edge"><title>Node13&#45;&gt;Node14</title>
<path fill="none" stroke="midnightblue" d="M612.998,-217.002C622.567,-207.433 634.361,-195.639 642.249,-187.751"/>
<polygon fill="midnightblue" stroke="midnightblue" points="610.513,-214.537 605.917,-224.083 615.463,-219.487 610.513,-214.537"/>
</g>
<!-- Node13&#45;&gt;Node16 -->
<g id="edge15" class="edge"><title>Node13&#45;&gt;Node16</title>
<path fill="none" stroke="midnightblue" d="M598.521,-214.037C601.663,-187.511 611.212,-139.499 640,-112 668.1,-85.1581 712.85,-74.2852 742.328,-69.9085"/>
<polygon fill="midnightblue" stroke="midnightblue" points="595.011,-213.968 597.505,-224.265 601.976,-214.66 595.011,-213.968"/>
</g>
<!-- Node15 -->
<g id="node13" class="node"><title>Node15</title>
<g id="a_node13"><a xlink:href="api_2ipsec_8h.html" target="_top" xlink:title="ODP IPSEC API &#45; platform specific header. ">
<polygon fill="white" stroke="black" points="649,-112.5 649,-131.5 697,-131.5 697,-112.5 649,-112.5"/>
<text text-anchor="middle" x="673" y="-119.5" font-family="Helvetica,sans-Serif" font-size="10.00">ipsec.h</text>
</a>
</g>
</g>
<!-- Node14&#45;&gt;Node15 -->
<g id="edge12" class="edge"><title>Node14&#45;&gt;Node15</title>
<path fill="none" stroke="midnightblue" d="M658.46,-158.69C662.167,-149.589 666.476,-139.014 669.435,-131.751"/>
<polygon fill="midnightblue" stroke="midnightblue" points="655.165,-157.502 654.633,-168.083 661.647,-160.143 655.165,-157.502"/>
</g>
<!-- Node15&#45;&gt;Node16 -->
<g id="edge13" class="edge"><title>Node15&#45;&gt;Node16</title>
<path fill="none" stroke="midnightblue" d="M697.837,-107.453C716.114,-97.4835 740.416,-84.2279 756.133,-75.6545"/>
<polygon fill="midnightblue" stroke="midnightblue" points="696.009,-104.463 688.906,-112.324 699.361,-110.608 696.009,-104.463"/>
</g>
<!-- Node17 -->
<g id="node15" class="node"><title>Node17</title>
<g id="a_node15"><a xlink:href="odp_8h.html" target="_top" xlink:title="WARNING: THIS FILE IS DEPRECATED AND WILL BE REMOVED!!! ODP APPLICATIONS SHOULD NOW INCLUDE odp_api...">
<polygon fill="white" stroke="black" points="751.5,-0.5 751.5,-19.5 792.5,-19.5 792.5,-0.5 751.5,-0.5"/>
<text text-anchor="middle" x="772" y="-7.5" font-family="Helvetica,sans-Serif" font-size="10.00">odp.h</text>
</a>
</g>
</g>
<!-- Node16&#45;&gt;Node17 -->
<g id="edge14" class="edge"><title>Node16&#45;&gt;Node17</title>
<path fill="none" stroke="midnightblue" d="M772,-45.8045C772,-36.9102 772,-26.7798 772,-19.7511"/>
<polygon fill="midnightblue" stroke="midnightblue" points="768.5,-46.083 772,-56.083 775.5,-46.083 768.5,-46.083"/>
</g>
<!-- Node18&#45;&gt;Node14 -->
<g id="edge19" class="edge"><title>Node18&#45;&gt;Node14</title>
<path fill="none" stroke="midnightblue" d="M652.77,-325.93C652.336,-289.92 651.412,-213.231 651.103,-187.568"/>
<polygon fill="midnightblue" stroke="midnightblue" points="649.272,-326.118 652.892,-336.075 656.272,-326.034 649.272,-326.118"/>
</g>
<!-- Node18&#45;&gt;Node16 -->
<g id="edge23" class="edge"><title>Node18&#45;&gt;Node16</title>
<path fill="none" stroke="midnightblue" d="M609.744,-335.945C588.153,-329.35 563.245,-318.267 547,-300 526.999,-277.509 528,-265.098 528,-235 528,-235 528,-235 528,-177 528,-84.0663 676.926,-69.2028 742.081,-67.1471"/>
<polygon fill="midnightblue" stroke="midnightblue" points="608.812,-339.319 619.387,-338.669 610.715,-332.582 608.812,-339.319"/>
</g>
<!-- Node19 -->
<g id="node17" class="node"><title>Node19</title>
<g id="a_node17"><a xlink:href="api_2spec_2classification_8h.html" target="_top" xlink:title="ODP classification descriptor. ">
<polygon fill="white" stroke="black" points="556,-280.5 556,-299.5 638,-299.5 638,-280.5 556,-280.5"/>
<text text-anchor="middle" x="597" y="-287.5" font-family="Helvetica,sans-Serif" font-size="10.00">classification.h</text>
</a>
</g>
</g>
<!-- Node18&#45;&gt;Node19 -->
<g id="edge17" class="edge"><title>Node18&#45;&gt;Node19</title>
<path fill="none" stroke="midnightblue" d="M636.67,-329.253C626.735,-319.673 614.412,-307.791 606.161,-299.834"/>
<polygon fill="midnightblue" stroke="midnightblue" points="634.375,-331.902 644.003,-336.324 639.234,-326.863 634.375,-331.902"/>
</g>
<!-- Node20 -->
<g id="node18" class="node"><title>Node20</title>
<g id="a_node18"><a xlink:href="api_2spec_2traffic__mngr_8h.html" target="_top" xlink:title="Copyright (c) 2015&#45;2018, Linaro Limited All rights reserved. ">
<polygon fill="white" stroke="black" points="694.5,-280.5 694.5,-299.5 771.5,-299.5 771.5,-280.5 694.5,-280.5"/>
<text text-anchor="middle" x="733" y="-287.5" font-family="Helvetica,sans-Serif" font-size="10.00">traffic_mngr.h</text>
</a>
</g>
</g>
<!-- Node18&#45;&gt;Node20 -->
<g id="edge20" class="edge"><title>Node18&#45;&gt;Node20</title>
<path fill="none" stroke="midnightblue" d="M674.301,-330.622C688.915,-320.757 707.827,-307.992 720.179,-299.655"/>
<polygon fill="midnightblue" stroke="midnightblue" points="672.184,-327.828 665.853,-336.324 676.1,-333.63 672.184,-327.828"/>
</g>
<!-- Node19&#45;&gt;Node13 -->
<g id="edge18" class="edge"><title>Node19&#45;&gt;Node13</title>
<path fill="none" stroke="midnightblue" d="M597,-269.805C597,-260.91 597,-250.78 597,-243.751"/>
<polygon fill="midnightblue" stroke="midnightblue" points="593.5,-270.083 597,-280.083 600.5,-270.083 593.5,-270.083"/>
</g>
<!-- Node21 -->
<g id="node19" class="node"><title>Node21</title>
<g id="a_node19"><a xlink:href="api_2traffic__mngr_8h.html" target="_top" xlink:title="ODP Traffic manager. ">
<polygon fill="white" stroke="black" points="693.5,-168.5 693.5,-187.5 770.5,-187.5 770.5,-168.5 693.5,-168.5"/>
<text text-anchor="middle" x="732" y="-175.5" font-family="Helvetica,sans-Serif" font-size="10.00">traffic_mngr.h</text>
</a>
</g>
</g>
<!-- Node20&#45;&gt;Node21 -->
<g id="edge21" class="edge"><title>Node20&#45;&gt;Node21</title>
<path fill="none" stroke="midnightblue" d="M732.83,-270.348C732.611,-246.254 732.239,-205.308 732.078,-187.591"/>
<polygon fill="midnightblue" stroke="midnightblue" points="729.331,-270.401 732.922,-280.368 736.33,-270.337 729.331,-270.401"/>
</g>
<!-- Node21&#45;&gt;Node16 -->
<g id="edge22" class="edge"><title>Node21&#45;&gt;Node16</title>
<path fill="none" stroke="midnightblue" d="M738.664,-158.674C747.409,-134.625 762.404,-93.3881 768.876,-75.5914"/>
<polygon fill="midnightblue" stroke="midnightblue" points="735.267,-157.774 735.139,-168.368 741.846,-160.167 735.267,-157.774"/>
</g>
<!-- Node23 -->
<g id="node21" class="node"><title>Node23</title>
<g id="a_node21"><a xlink:href="api_2crypto_8h.html" target="_top" xlink:title="ODP crypto. ">
<polygon fill="white" stroke="black" points="760,-224.5 760,-243.5 812,-243.5 812,-224.5 760,-224.5"/>
<text text-anchor="middle" x="786" y="-231.5" font-family="Helvetica,sans-Serif" font-size="10.00">crypto.h</text>
</a>
</g>
</g>
<!-- Node22&#45;&gt;Node23 -->
<g id="edge25" class="edge"><title>Node22&#45;&gt;Node23</title>
<path fill="none" stroke="midnightblue" d="M789.781,-494.644C793.927,-472.879 800,-435.459 800,-403 800,-403 800,-403 800,-345 800,-306.882 791.625,-261.925 787.83,-243.511"/>
<polygon fill="midnightblue" stroke="midnightblue" points="786.34,-494 787.83,-504.489 793.207,-495.36 786.34,-494"/>
</g>
<!-- Node23&#45;&gt;Node14 -->
<g id="edge26" class="edge"><title>Node23&#45;&gt;Node14</title>
<path fill="none" stroke="midnightblue" d="M755.094,-220.638C729.76,-210.504 694.569,-196.427 672.291,-187.516"/>
<polygon fill="midnightblue" stroke="midnightblue" points="754.024,-223.979 764.609,-224.444 756.624,-217.48 754.024,-223.979"/>
</g>
<!-- Node23&#45;&gt;Node16 -->
<g id="edge27" class="edge"><title>Node23&#45;&gt;Node16</title>
<path fill="none" stroke="midnightblue" d="M784.392,-213.93C781.355,-177.92 774.887,-101.231 772.723,-75.5681"/>
<polygon fill="midnightblue" stroke="midnightblue" points="780.919,-214.405 785.247,-224.075 787.894,-213.816 780.919,-214.405"/>
</g>
<!-- Node24&#45;&gt;Node18 -->
<g id="edge29" class="edge"><title>Node24&#45;&gt;Node18</title>
<path fill="none" stroke="midnightblue" d="M712.433,-386.622C697.636,-376.757 678.488,-363.992 665.982,-355.655"/>
<polygon fill="midnightblue" stroke="midnightblue" points="710.724,-389.689 720.986,-392.324 714.607,-383.865 710.724,-389.689"/>
</g>
<!-- Node26 -->
<g id="node24" class="node"><title>Node26</title>
<g id="a_node24"><a xlink:href="api_2spec_2queue_8h.html" target="_top" xlink:title="ODP queue. ">
<polygon fill="white" stroke="black" points="882.5,-504.5 882.5,-523.5 933.5,-523.5 933.5,-504.5 882.5,-504.5"/>
<text text-anchor="middle" x="908" y="-511.5" font-family="Helvetica,sans-Serif" font-size="10.00">queue.h</text>
</a>
</g>
</g>
<!-- Node25&#45;&gt;Node26 -->
<g id="edge31" class="edge"><title>Node25&#45;&gt;Node26</title>
<path fill="none" stroke="midnightblue" d="M908,-549.805C908,-540.91 908,-530.78 908,-523.751"/>
<polygon fill="midnightblue" stroke="midnightblue" points="904.5,-550.083 908,-560.083 911.5,-550.083 904.5,-550.083"/>
</g>
<!-- Node27 -->
<g id="node25" class="node"><title>Node27</title>
<g id="a_node25"><a xlink:href="api_2queue_8h.html" target="_top" xlink:title="ODP queue. ">
<polygon fill="white" stroke="black" points="882.5,-448.5 882.5,-467.5 933.5,-467.5 933.5,-448.5 882.5,-448.5"/>
<text text-anchor="middle" x="908" y="-455.5" font-family="Helvetica,sans-Serif" font-size="10.00">queue.h</text>
</a>
</g>
</g>
<!-- Node26&#45;&gt;Node27 -->
<g id="edge32" class="edge"><title>Node26&#45;&gt;Node27</title>
<path fill="none" stroke="midnightblue" d="M908,-493.805C908,-484.91 908,-474.78 908,-467.751"/>
<polygon fill="midnightblue" stroke="midnightblue" points="904.5,-494.083 908,-504.083 911.5,-494.083 904.5,-494.083"/>
</g>
<!-- Node27&#45;&gt;Node16 -->
<g id="edge38" class="edge"><title>Node27&#45;&gt;Node16</title>
<path fill="none" stroke="midnightblue" d="M910.193,-438.281C912.561,-416.416 916,-379.137 916,-347 916,-347 916,-347 916,-177 916,-120.058 844.015,-88.6474 801.837,-75.13"/>
<polygon fill="midnightblue" stroke="midnightblue" points="906.688,-438.128 909.046,-448.458 913.644,-438.913 906.688,-438.128"/>
</g>
<!-- Node27&#45;&gt;Node23 -->
<g id="edge33" class="edge"><title>Node27&#45;&gt;Node23</title>
<path fill="none" stroke="midnightblue" d="M899.156,-439.396C882.936,-407.329 847.054,-337.41 814,-280 806.562,-267.082 797.325,-252.493 791.545,-243.521"/>
<polygon fill="midnightblue" stroke="midnightblue" points="896.075,-441.06 903.703,-448.413 902.326,-437.908 896.075,-441.06"/>
</g>
<!-- Node27&#45;&gt;Node24 -->
<g id="edge34" class="edge"><title>Node27&#45;&gt;Node24</title>
<path fill="none" stroke="midnightblue" d="M872.664,-446.034C839.818,-435.84 791.566,-420.865 761.505,-411.536"/>
<polygon fill="midnightblue" stroke="midnightblue" points="871.738,-449.411 882.326,-449.032 873.812,-442.725 871.738,-449.411"/>
</g>
<!-- Node28 -->
<g id="node26" class="node"><title>Node28</title>
<g id="a_node26"><a xlink:href="api_2spec_2schedule_8h.html" target="_top" xlink:title="ODP schedule. ">
<polygon fill="white" stroke="black" points="944,-392.5 944,-411.5 1008,-411.5 1008,-392.5 944,-392.5"/>
<text text-anchor="middle" x="976" y="-399.5" font-family="Helvetica,sans-Serif" font-size="10.00">schedule.h</text>
</a>
</g>
</g>
<!-- Node27&#45;&gt;Node28 -->
<g id="edge35" class="edge"><title>Node27&#45;&gt;Node28</title>
<path fill="none" stroke="midnightblue" d="M926.762,-442.101C939,-432.382 954.559,-420.027 964.876,-411.834"/>
<polygon fill="midnightblue" stroke="midnightblue" points="924.58,-439.364 918.925,-448.324 928.933,-444.846 924.58,-439.364"/>
</g>
<!-- Node29 -->
<g id="node27" class="node"><title>Node29</title>
<g id="a_node27"><a xlink:href="api_2schedule_8h.html" target="_top" xlink:title="ODP schedule. ">
<polygon fill="white" stroke="black" points="944,-112.5 944,-131.5 1008,-131.5 1008,-112.5 944,-112.5"/>
<text text-anchor="middle" x="976" y="-119.5" font-family="Helvetica,sans-Serif" font-size="10.00">schedule.h</text>
</a>
</g>
</g>
<!-- Node28&#45;&gt;Node29 -->
<g id="edge36" class="edge"><title>Node28&#45;&gt;Node29</title>
<path fill="none" stroke="midnightblue" d="M976,-382.251C976,-360.357 976,-323.052 976,-291 976,-291 976,-291 976,-233 976,-195.188 976,-150.064 976,-131.558"/>
<polygon fill="midnightblue" stroke="midnightblue" points="972.5,-382.442 976,-392.442 979.5,-382.442 972.5,-382.442"/>
</g>
<!-- Node29&#45;&gt;Node16 -->
<g id="edge37" class="edge"><title>Node29&#45;&gt;Node16</title>
<path fill="none" stroke="midnightblue" d="M933.807,-109.831C894.303,-99.3743 836.292,-84.0186 801.524,-74.8151"/>
<polygon fill="midnightblue" stroke="midnightblue" points="933.113,-113.268 943.676,-112.444 934.904,-106.501 933.113,-113.268"/>
</g>
</g>
</svg>
