<?xml version="1.0" encoding="UTF-8" standalone="no"?>
<!DOCTYPE svg PUBLIC "-//W3C//DTD SVG 1.1//EN"
 "http://www.w3.org/Graphics/SVG/1.1/DTD/svg11.dtd">
<!-- Generated by graphviz version 2.36.0 (20140111.2315)
 -->
<!-- Title: odp_crypto_capability_t Pages: 1 -->
<svg width="283pt" height="106pt"
 viewBox="0.00 0.00 283.00 106.00" xmlns="http://www.w3.org/2000/svg" xmlns:xlink="http://www.w3.org/1999/xlink">
<g id="graph0" class="graph" transform="scale(1 1) rotate(0) translate(4 102)">
<title>odp_crypto_capability_t</title>
<polygon fill="white" stroke="none" points="-4,4 -4,-102 279,-102 279,4 -4,4"/>
<!-- Node1 -->
<g id="node1" class="node"><title>Node1</title>
<polygon fill="#bfbfbf" stroke="black" points="79.5,-0.5 79.5,-19.5 198.5,-19.5 198.5,-0.5 79.5,-0.5"/>
<text text-anchor="middle" x="139" y="-7.5" font-family="Helvetica,sans-Serif" font-size="10.00">odp_crypto_capability_t</text>
</g>
<!-- Node2 -->
<g id="node2" class="node"><title>Node2</title>
<g id="a_node2"><a xlink:href="unionodp__crypto__cipher__algos__t.html" target="_top" xlink:title="Cipher algorithms in a bit field structure. ">
<polygon fill="white" stroke="black" points="-0.5,-78.5 -0.5,-97.5 132.5,-97.5 132.5,-78.5 -0.5,-78.5"/>
<text text-anchor="middle" x="66" y="-85.5" font-family="Helvetica,sans-Serif" font-size="10.00">odp_crypto_cipher_algos_t</text>
</a>
</g>
</g>
<!-- Node2&#45;&gt;Node1 -->
<g id="edge1" class="edge"><title>Node2&#45;&gt;Node1</title>
<path fill="none" stroke="#9a32cd" stroke-dasharray="5,2" d="M81.4885,-70.875C96.5293,-55.2161 118.788,-32.0422 130.724,-19.6165"/>
<polygon fill="#9a32cd" stroke="#9a32cd" points="78.7772,-68.6453 74.374,-78.2818 83.8256,-73.4944 78.7772,-68.6453"/>
<text text-anchor="middle" x="138.5" y="-52" font-family="Helvetica,sans-Serif" font-size="10.00"> hw_ciphers</text>
<text text-anchor="middle" x="138.5" y="-41" font-family="Helvetica,sans-Serif" font-size="10.00">ciphers</text>
</g>
<!-- Node3 -->
<g id="node3" class="node"><title>Node3</title>
<g id="a_node3"><a xlink:href="unionodp__crypto__auth__algos__t.html" target="_top" xlink:title="Authentication algorithms in a bit field structure. ">
<polygon fill="white" stroke="black" points="150.5,-78.5 150.5,-97.5 275.5,-97.5 275.5,-78.5 150.5,-78.5"/>
<text text-anchor="middle" x="213" y="-85.5" font-family="Helvetica,sans-Serif" font-size="10.00">odp_crypto_auth_algos_t</text>
</a>
</g>
</g>
<!-- Node3&#45;&gt;Node1 -->
<g id="edge2" class="edge"><title>Node3&#45;&gt;Node1</title>
<path fill="none" stroke="#9a32cd" stroke-dasharray="5,2" d="M199.137,-70.7025C190.676,-60.9754 179.499,-48.5108 169,-38 162.661,-31.6543 155.161,-24.9043 149.246,-19.7407"/>
<polygon fill="#9a32cd" stroke="#9a32cd" points="196.612,-73.1336 205.789,-78.428 201.916,-68.5662 196.612,-73.1336"/>
<text text-anchor="middle" x="211" y="-52" font-family="Helvetica,sans-Serif" font-size="10.00"> hw_auths</text>
<text text-anchor="middle" x="211" y="-41" font-family="Helvetica,sans-Serif" font-size="10.00">auths</text>
</g>
</g>
</svg>
