<?xml version="1.0" encoding="UTF-8" standalone="no"?>
<!DOCTYPE svg PUBLIC "-//W3C//DTD SVG 1.1//EN"
 "http://www.w3.org/Graphics/SVG/1.1/DTD/svg11.dtd">
<!-- Generated by graphviz version 2.36.0 (20140111.2315)
 -->
<!-- Title: odp_pktin_queue_param_t Pages: 1 -->
<svg width="396pt" height="176pt"
 viewBox="0.00 0.00 396.00 176.00" xmlns="http://www.w3.org/2000/svg" xmlns:xlink="http://www.w3.org/1999/xlink">
<g id="graph0" class="graph" transform="scale(1 1) rotate(0) translate(4 172)">
<title>odp_pktin_queue_param_t</title>
<polygon fill="white" stroke="none" points="-4,4 -4,-172 392,-172 392,4 -4,4"/>
<!-- Node1 -->
<g id="node1" class="node"><title>Node1</title>
<polygon fill="#bfbfbf" stroke="black" points="123.5,-0.5 123.5,-19.5 254.5,-19.5 254.5,-0.5 123.5,-0.5"/>
<text text-anchor="middle" x="189" y="-7.5" font-family="Helvetica,sans-Serif" font-size="10.00">odp_pktin_queue_param_t</text>
</g>
<!-- Node2 -->
<g id="node2" class="node"><title>Node2</title>
<g id="a_node2"><a xlink:href="structodp__queue__param__t.html" target="_top" xlink:title="ODP Queue parameters. ">
<polygon fill="white" stroke="black" points="6,-74.5 6,-93.5 110,-93.5 110,-74.5 6,-74.5"/>
<text text-anchor="middle" x="58" y="-81.5" font-family="Helvetica,sans-Serif" font-size="10.00">odp_queue_param_t</text>
</a>
</g>
</g>
<!-- Node2&#45;&gt;Node1 -->
<g id="edge1" class="edge"><title>Node2&#45;&gt;Node1</title>
<path fill="none" stroke="#9a32cd" stroke-dasharray="5,2" d="M77.3202,-67.9662C89.8888,-58.6113 106.884,-46.7403 123,-38 136.277,-30.7996 151.889,-24.3301 164.594,-19.5301"/>
<polygon fill="#9a32cd" stroke="#9a32cd" points="74.8816,-65.4227 69.0263,-74.2526 79.11,-71.0013 74.8816,-65.4227"/>
<text text-anchor="middle" x="154" y="-41.5" font-family="Helvetica,sans-Serif" font-size="10.00"> queue_param</text>
</g>
<!-- Node3 -->
<g id="node3" class="node"><title>Node3</title>
<g id="a_node3"><a xlink:href="structodp__schedule__param__t.html" target="_top" xlink:title="Scheduler parameters. ">
<polygon fill="white" stroke="black" points="-0.5,-148.5 -0.5,-167.5 116.5,-167.5 116.5,-148.5 -0.5,-148.5"/>
<text text-anchor="middle" x="58" y="-155.5" font-family="Helvetica,sans-Serif" font-size="10.00">odp_schedule_param_t</text>
</a>
</g>
</g>
<!-- Node3&#45;&gt;Node2 -->
<g id="edge2" class="edge"><title>Node3&#45;&gt;Node2</title>
<path fill="none" stroke="#9a32cd" stroke-dasharray="5,2" d="M58,-138.156C58,-123.712 58,-104.459 58,-93.531"/>
<polygon fill="#9a32cd" stroke="#9a32cd" points="54.5001,-138.458 58,-148.458 61.5001,-138.458 54.5001,-138.458"/>
<text text-anchor="middle" x="73" y="-121.5" font-family="Helvetica,sans-Serif" font-size="10.00"> sched</text>
</g>
<!-- Node4 -->
<g id="node4" class="node"><title>Node4</title>
<g id="a_node4"><a xlink:href="structodp__pktin__queue__param__ovr__t.html" target="_top" xlink:title="Packet input queue parameters override. ">
<polygon fill="white" stroke="black" points="128,-69 128,-99 250,-99 250,-69 128,-69"/>
<text text-anchor="start" x="136" y="-87" font-family="Helvetica,sans-Serif" font-size="10.00">odp_pktin_queue_param</text>
<text text-anchor="middle" x="189" y="-76" font-family="Helvetica,sans-Serif" font-size="10.00">_ovr_t</text>
</a>
</g>
</g>
<!-- Node4&#45;&gt;Node1 -->
<g id="edge3" class="edge"><title>Node4&#45;&gt;Node1</title>
<path fill="none" stroke="#9a32cd" stroke-dasharray="5,2" d="M189,-58.6883C189,-45.2526 189,-29.3805 189,-19.7589"/>
<polygon fill="#9a32cd" stroke="#9a32cd" points="185.5,-58.7751 189,-68.7751 192.5,-58.7752 185.5,-58.7751"/>
<text text-anchor="middle" x="229.5" y="-41.5" font-family="Helvetica,sans-Serif" font-size="10.00"> queue_param_ovr</text>
</g>
<!-- Node5 -->
<g id="node5" class="node"><title>Node5</title>
<g id="a_node5"><a xlink:href="unionodp__pktin__hash__proto__t.html" target="_top" xlink:title="Packet input hash protocols. ">
<polygon fill="white" stroke="black" points="268,-74.5 268,-93.5 388,-93.5 388,-74.5 268,-74.5"/>
<text text-anchor="middle" x="328" y="-81.5" font-family="Helvetica,sans-Serif" font-size="10.00">odp_pktin_hash_proto_t</text>
</a>
</g>
</g>
<!-- Node5&#45;&gt;Node1 -->
<g id="edge4" class="edge"><title>Node5&#45;&gt;Node1</title>
<path fill="none" stroke="#9a32cd" stroke-dasharray="5,2" d="M312.339,-67.1235C302.162,-57.5614 288.188,-45.7722 274,-38 259.334,-29.966 241.914,-23.9053 226.675,-19.5828"/>
<polygon fill="#9a32cd" stroke="#9a32cd" points="310.007,-69.7376 319.618,-74.1953 314.884,-64.7168 310.007,-69.7376"/>
<text text-anchor="middle" x="317" y="-41.5" font-family="Helvetica,sans-Serif" font-size="10.00"> hash_proto</text>
</g>
</g>
</svg>
