<?xml version="1.0" encoding="UTF-8" standalone="no"?>
<!DOCTYPE svg PUBLIC "-//W3C//DTD SVG 1.1//EN"
 "http://www.w3.org/Graphics/SVG/1.1/DTD/svg11.dtd">
<!-- Generated by graphviz version 2.36.0 (20140111.2315)
 -->
<!-- Title: odp_packet_parse_result_t Pages: 1 -->
<svg width="142pt" height="108pt"
 viewBox="0.00 0.00 142.00 108.00" xmlns="http://www.w3.org/2000/svg" xmlns:xlink="http://www.w3.org/1999/xlink">
<g id="graph0" class="graph" transform="scale(1 1) rotate(0) translate(4 104)">
<title>odp_packet_parse_result_t</title>
<polygon fill="white" stroke="none" points="-4,4 -4,-104 138,-104 138,4 -4,4"/>
<!-- Node1 -->
<g id="node1" class="node"><title>Node1</title>
<polygon fill="#bfbfbf" stroke="black" points="0,-0.5 0,-19.5 134,-19.5 134,-0.5 0,-0.5"/>
<text text-anchor="middle" x="67" y="-7.5" font-family="Helvetica,sans-Serif" font-size="10.00">odp_packet_parse_result_t</text>
</g>
<!-- Node2 -->
<g id="node2" class="node"><title>Node2</title>
<g id="a_node2"><a xlink:href="structodp__packet__parse__result__flag__t.html" target="_top" xlink:title="Parse result flags. ">
<polygon fill="white" stroke="black" points="4.5,-69 4.5,-99 129.5,-99 129.5,-69 4.5,-69"/>
<text text-anchor="start" x="12.5" y="-87" font-family="Helvetica,sans-Serif" font-size="10.00">odp_packet_parse_result</text>
<text text-anchor="middle" x="67" y="-76" font-family="Helvetica,sans-Serif" font-size="10.00">_flag_t</text>
</a>
</g>
</g>
<!-- Node2&#45;&gt;Node1 -->
<g id="edge1" class="edge"><title>Node2&#45;&gt;Node1</title>
<path fill="none" stroke="#9a32cd" stroke-dasharray="5,2" d="M67,-58.6883C67,-45.2526 67,-29.3805 67,-19.7589"/>
<polygon fill="#9a32cd" stroke="#9a32cd" points="63.5001,-58.7751 67,-68.7751 70.5001,-58.7752 63.5001,-58.7751"/>
<text text-anchor="middle" x="76.5" y="-41.5" font-family="Helvetica,sans-Serif" font-size="10.00"> flag</text>
</g>
</g>
</svg>
