<?xml version="1.0" encoding="UTF-8" standalone="no"?>
<!DOCTYPE svg PUBLIC "-//W3C//DTD SVG 1.1//EN"
 "http://www.w3.org/Graphics/SVG/1.1/DTD/svg11.dtd">
<!-- Generated by graphviz version 2.36.0 (20140111.2315)
 -->
<!-- Title: odp_comp_packet_op_param_t Pages: 1 -->
<svg width="278pt" height="118pt"
 viewBox="0.00 0.00 278.00 118.00" xmlns="http://www.w3.org/2000/svg" xmlns:xlink="http://www.w3.org/1999/xlink">
<g id="graph0" class="graph" transform="scale(1 1) rotate(0) translate(4 114)">
<title>odp_comp_packet_op_param_t</title>
<polygon fill="white" stroke="none" points="-4,4 -4,-114 274,-114 274,4 -4,4"/>
<!-- Node1 -->
<g id="node1" class="node"><title>Node1</title>
<polygon fill="#bfbfbf" stroke="black" points="82,-1 82,-31 194,-31 194,-1 82,-1"/>
<text text-anchor="start" x="90" y="-19" font-family="Helvetica,sans-Serif" font-size="10.00">odp_comp_packet_op</text>
<text text-anchor="middle" x="138" y="-8" font-family="Helvetica,sans-Serif" font-size="10.00">_param_t</text>
</g>
<!-- Node2 -->
<g id="node2" class="node"><title>Node2</title>
<g id="a_node2"><a xlink:href="struct__odp__abi__comp__session__t.html" target="_top" xlink:title="_odp_abi_comp_session_t">
<polygon fill="white" stroke="black" points="0,-90.5 0,-109.5 132,-109.5 132,-90.5 0,-90.5"/>
<text text-anchor="middle" x="66" y="-97.5" font-family="Helvetica,sans-Serif" font-size="10.00">_odp_abi_comp_session_t</text>
</a>
</g>
</g>
<!-- Node2&#45;&gt;Node1 -->
<g id="edge1" class="edge"><title>Node2&#45;&gt;Node1</title>
<path fill="none" stroke="#9a32cd" stroke-dasharray="5,2" d="M80.3253,-82.6851C93.5399,-67.6351 112.962,-45.5158 125.546,-31.1839"/>
<polygon fill="#9a32cd" stroke="#9a32cd" points="77.6733,-80.4008 73.7053,-90.2246 82.9334,-85.0195 77.6733,-80.4008"/>
<text text-anchor="middle" x="127.5" y="-58.5" font-family="Helvetica,sans-Serif" font-size="10.00"> session</text>
</g>
<!-- Node3 -->
<g id="node3" class="node"><title>Node3</title>
<g id="a_node3"><a xlink:href="structodp__packet__data__range.html" target="_top" xlink:title="Packet API data range specifier. ">
<polygon fill="white" stroke="black" points="150,-90.5 150,-109.5 270,-109.5 270,-90.5 150,-90.5"/>
<text text-anchor="middle" x="210" y="-97.5" font-family="Helvetica,sans-Serif" font-size="10.00">odp_packet_data_range</text>
</a>
</g>
</g>
<!-- Node3&#45;&gt;Node1 -->
<g id="edge2" class="edge"><title>Node3&#45;&gt;Node1</title>
<path fill="none" stroke="#9a32cd" stroke-dasharray="5,2" d="M195.675,-82.6851C182.46,-67.6351 163.038,-45.5158 150.454,-31.1839"/>
<polygon fill="#9a32cd" stroke="#9a32cd" points="193.067,-85.0195 202.295,-90.2246 198.327,-80.4008 193.067,-85.0195"/>
<text text-anchor="middle" x="217.5" y="-64" font-family="Helvetica,sans-Serif" font-size="10.00"> in_data_range</text>
<text text-anchor="middle" x="217.5" y="-53" font-family="Helvetica,sans-Serif" font-size="10.00">out_data_range</text>
</g>
</g>
</svg>
