<?xml version="1.0" encoding="UTF-8" standalone="no"?>
<!DOCTYPE svg PUBLIC "-//W3C//DTD SVG 1.1//EN"
 "http://www.w3.org/Graphics/SVG/1.1/DTD/svg11.dtd">
<!-- Generated by graphviz version 2.36.0 (20140111.2315)
 -->
<!-- Title: odp_init_t Pages: 1 -->
<svg width="188pt" height="106pt"
 viewBox="0.00 0.00 188.00 106.00" xmlns="http://www.w3.org/2000/svg" xmlns:xlink="http://www.w3.org/1999/xlink">
<g id="graph0" class="graph" transform="scale(1 1) rotate(0) translate(4 102)">
<title>odp_init_t</title>
<polygon fill="white" stroke="none" points="-4,4 -4,-102 184,-102 184,4 -4,4"/>
<!-- Node1 -->
<g id="node1" class="node"><title>Node1</title>
<polygon fill="#bfbfbf" stroke="black" points="62.5,-0.5 62.5,-19.5 121.5,-19.5 121.5,-0.5 62.5,-0.5"/>
<text text-anchor="middle" x="92" y="-7.5" font-family="Helvetica,sans-Serif" font-size="10.00">odp_init_t</text>
</g>
<!-- Node2 -->
<g id="node2" class="node"><title>Node2</title>
<g id="a_node2"><a xlink:href="structodp__cpumask__t.html" target="_top" xlink:title="CPU mask. ">
<polygon fill="white" stroke="black" points="0,-78.5 0,-97.5 86,-97.5 86,-78.5 0,-78.5"/>
<text text-anchor="middle" x="43" y="-85.5" font-family="Helvetica,sans-Serif" font-size="10.00">odp_cpumask_t</text>
</a>
</g>
</g>
<!-- Node2&#45;&gt;Node1 -->
<g id="edge1" class="edge"><title>Node2&#45;&gt;Node1</title>
<path fill="none" stroke="#9a32cd" stroke-dasharray="5,2" d="M47.371,-68.6201C50.2377,-58.9485 54.6504,-47.2188 61,-38 65.9391,-30.8291 73.2111,-24.361 79.4707,-19.5543"/>
<polygon fill="#9a32cd" stroke="#9a32cd" points="43.9521,-67.8584 44.7705,-78.4216 50.718,-69.6536 43.9521,-67.8584"/>
<text text-anchor="middle" x="90.5" y="-52" font-family="Helvetica,sans-Serif" font-size="10.00"> control_cpus</text>
<text text-anchor="middle" x="90.5" y="-41" font-family="Helvetica,sans-Serif" font-size="10.00">worker_cpus</text>
</g>
<!-- Node3 -->
<g id="node3" class="node"><title>Node3</title>
<g id="a_node3"><a xlink:href="unionodp__feature__t.html" target="_top" xlink:title="Definition of ODP features. ">
<polygon fill="white" stroke="black" points="104,-78.5 104,-97.5 180,-97.5 180,-78.5 104,-78.5"/>
<text text-anchor="middle" x="142" y="-85.5" font-family="Helvetica,sans-Serif" font-size="10.00">odp_feature_t</text>
</a>
</g>
</g>
<!-- Node3&#45;&gt;Node1 -->
<g id="edge2" class="edge"><title>Node3&#45;&gt;Node1</title>
<path fill="none" stroke="#9a32cd" stroke-dasharray="5,2" d="M135.732,-68.7506C131.966,-59.1322 126.617,-47.4114 120,-38 115.184,-31.1499 108.464,-24.6011 102.815,-19.6689"/>
<polygon fill="#9a32cd" stroke="#9a32cd" points="132.452,-69.9715 139.183,-78.1535 139.023,-67.5599 132.452,-69.9715"/>
<text text-anchor="middle" x="153.5" y="-46.5" font-family="Helvetica,sans-Serif" font-size="10.00"> not_used</text>
</g>
</g>
</svg>
