<?xml version="1.0" encoding="UTF-8" standalone="no"?>
<!DOCTYPE svg PUBLIC "-//W3C//DTD SVG 1.1//EN"
 "http://www.w3.org/Graphics/SVG/1.1/DTD/svg11.dtd">
<!-- Generated by graphviz version 2.36.0 (20140111.2315)
 -->
<!-- Title: odp_pktio_info_t Pages: 1 -->
<svg width="211pt" height="96pt"
 viewBox="0.00 0.00 211.00 96.00" xmlns="http://www.w3.org/2000/svg" xmlns:xlink="http://www.w3.org/1999/xlink">
<g id="graph0" class="graph" transform="scale(1 1) rotate(0) translate(4 92)">
<title>odp_pktio_info_t</title>
<polygon fill="white" stroke="none" points="-4,4 -4,-92 207,-92 207,4 -4,4"/>
<!-- Node1 -->
<g id="node1" class="node"><title>Node1</title>
<polygon fill="#bfbfbf" stroke="black" points="54,-0.5 54,-19.5 142,-19.5 142,-0.5 54,-0.5"/>
<text text-anchor="middle" x="98" y="-7.5" font-family="Helvetica,sans-Serif" font-size="10.00">odp_pktio_info_t</text>
</g>
<!-- Node2 -->
<g id="node2" class="node"><title>Node2</title>
<g id="a_node2"><a xlink:href="struct__odp__abi__pool__t.html" target="_top" xlink:title="_odp_abi_pool_t">
<polygon fill="white" stroke="black" points="-0.5,-68.5 -0.5,-87.5 86.5,-87.5 86.5,-68.5 -0.5,-68.5"/>
<text text-anchor="middle" x="43" y="-75.5" font-family="Helvetica,sans-Serif" font-size="10.00">_odp_abi_pool_t</text>
</a>
</g>
</g>
<!-- Node2&#45;&gt;Node1 -->
<g id="edge1" class="edge"><title>Node2&#45;&gt;Node1</title>
<path fill="none" stroke="#9a32cd" stroke-dasharray="5,2" d="M56.6,-60.68C67.3527,-47.7768 81.9521,-30.2575 90.6324,-19.8411"/>
<polygon fill="#9a32cd" stroke="#9a32cd" points="53.9034,-58.4488 50.1903,-68.3717 59.281,-62.9301 53.9034,-58.4488"/>
<text text-anchor="middle" x="87" y="-41.5" font-family="Helvetica,sans-Serif" font-size="10.00"> pool</text>
</g>
<!-- Node3 -->
<g id="node3" class="node"><title>Node3</title>
<g id="a_node3"><a xlink:href="structodp__pktio__param__t.html" target="_top" xlink:title="Packet IO parameters. ">
<polygon fill="white" stroke="black" points="104.5,-68.5 104.5,-87.5 203.5,-87.5 203.5,-68.5 104.5,-68.5"/>
<text text-anchor="middle" x="154" y="-75.5" font-family="Helvetica,sans-Serif" font-size="10.00">odp_pktio_param_t</text>
</a>
</g>
</g>
<!-- Node3&#45;&gt;Node1 -->
<g id="edge2" class="edge"><title>Node3&#45;&gt;Node1</title>
<path fill="none" stroke="#9a32cd" stroke-dasharray="5,2" d="M140.153,-60.68C129.205,-47.7768 114.34,-30.2575 105.502,-19.8411"/>
<polygon fill="#9a32cd" stroke="#9a32cd" points="137.54,-63.011 146.679,-68.3717 142.878,-58.4821 137.54,-63.011"/>
<text text-anchor="middle" x="146.5" y="-41.5" font-family="Helvetica,sans-Serif" font-size="10.00"> param</text>
</g>
</g>
</svg>
