<?xml version="1.0" encoding="UTF-8" standalone="no"?>
<!DOCTYPE svg PUBLIC "-//W3C//DTD SVG 1.1//EN"
 "http://www.w3.org/Graphics/SVG/1.1/DTD/svg11.dtd">
<!-- Generated by graphviz version 2.36.0 (20140111.2315)
 -->
<!-- Title: odp_ticketlock_s Pages: 1 -->
<svg width="108pt" height="106pt"
 viewBox="0.00 0.00 108.00 106.00" xmlns="http://www.w3.org/2000/svg" xmlns:xlink="http://www.w3.org/1999/xlink">
<g id="graph0" class="graph" transform="scale(1 1) rotate(0) translate(4 102)">
<title>odp_ticketlock_s</title>
<polygon fill="white" stroke="none" points="-4,4 -4,-102 104,-102 104,4 -4,4"/>
<!-- Node1 -->
<g id="node1" class="node"><title>Node1</title>
<polygon fill="#bfbfbf" stroke="black" points="3,-0.5 3,-19.5 93,-19.5 93,-0.5 3,-0.5"/>
<text text-anchor="middle" x="48" y="-7.5" font-family="Helvetica,sans-Serif" font-size="10.00">odp_ticketlock_s</text>
</g>
<!-- Node2 -->
<g id="node2" class="node"><title>Node2</title>
<g id="a_node2"><a xlink:href="structodp__atomic__u32__s.html" target="_top" xlink:title="odp_atomic_u32_s">
<polygon fill="white" stroke="black" points="-1,-78.5 -1,-97.5 97,-97.5 97,-78.5 -1,-78.5"/>
<text text-anchor="middle" x="48" y="-85.5" font-family="Helvetica,sans-Serif" font-size="10.00">odp_atomic_u32_s</text>
</a>
</g>
</g>
<!-- Node2&#45;&gt;Node1 -->
<g id="edge1" class="edge"><title>Node2&#45;&gt;Node1</title>
<path fill="none" stroke="#9a32cd" stroke-dasharray="5,2" d="M48,-68.2239C48,-52.6974 48,-31.3582 48,-19.6165"/>
<polygon fill="#9a32cd" stroke="#9a32cd" points="44.5001,-68.2818 48,-78.2818 51.5001,-68.2819 44.5001,-68.2818"/>
<text text-anchor="middle" x="74" y="-52" font-family="Helvetica,sans-Serif" font-size="10.00"> next_ticket</text>
<text text-anchor="middle" x="74" y="-41" font-family="Helvetica,sans-Serif" font-size="10.00">cur_ticket</text>
</g>
</g>
</svg>
