<?xml version="1.0" encoding="UTF-8" standalone="no"?>
<!DOCTYPE svg PUBLIC "-//W3C//DTD SVG 1.1//EN"
 "http://www.w3.org/Graphics/SVG/1.1/DTD/svg11.dtd">
<!-- Generated by graphviz version 2.36.0 (20140111.2315)
 -->
<!-- Title: odp_rwlock_recursive_s Pages: 1 -->
<svg width="130pt" height="164pt"
 viewBox="0.00 0.00 130.00 164.00" xmlns="http://www.w3.org/2000/svg" xmlns:xlink="http://www.w3.org/1999/xlink">
<g id="graph0" class="graph" transform="scale(1 1) rotate(0) translate(4 160)">
<title>odp_rwlock_recursive_s</title>
<polygon fill="white" stroke="none" points="-4,4 -4,-160 126,-160 126,4 -4,4"/>
<!-- Node1 -->
<g id="node1" class="node"><title>Node1</title>
<polygon fill="#bfbfbf" stroke="black" points="0,-0.5 0,-19.5 122,-19.5 122,-0.5 0,-0.5"/>
<text text-anchor="middle" x="61" y="-7.5" font-family="Helvetica,sans-Serif" font-size="10.00">odp_rwlock_recursive_s</text>
</g>
<!-- Node2 -->
<g id="node2" class="node"><title>Node2</title>
<g id="a_node2"><a xlink:href="structodp__rwlock__s.html" target="_top" xlink:title="odp_rwlock_s">
<polygon fill="white" stroke="black" points="22.5,-68.5 22.5,-87.5 99.5,-87.5 99.5,-68.5 22.5,-68.5"/>
<text text-anchor="middle" x="61" y="-75.5" font-family="Helvetica,sans-Serif" font-size="10.00">odp_rwlock_s</text>
</a>
</g>
</g>
<!-- Node2&#45;&gt;Node1 -->
<g id="edge1" class="edge"><title>Node2&#45;&gt;Node1</title>
<path fill="none" stroke="#9a32cd" stroke-dasharray="5,2" d="M61,-58.0413C61,-45.4724 61,-29.5631 61,-19.8411"/>
<polygon fill="#9a32cd" stroke="#9a32cd" points="57.5001,-58.3716 61,-68.3717 64.5001,-58.3717 57.5001,-58.3716"/>
<text text-anchor="middle" x="72" y="-41.5" font-family="Helvetica,sans-Serif" font-size="10.00"> lock</text>
</g>
<!-- Node3 -->
<g id="node3" class="node"><title>Node3</title>
<g id="a_node3"><a xlink:href="structodp__atomic__u32__s.html" target="_top" xlink:title="odp_atomic_u32_s">
<polygon fill="white" stroke="black" points="12,-136.5 12,-155.5 110,-155.5 110,-136.5 12,-136.5"/>
<text text-anchor="middle" x="61" y="-143.5" font-family="Helvetica,sans-Serif" font-size="10.00">odp_atomic_u32_s</text>
</a>
</g>
</g>
<!-- Node3&#45;&gt;Node2 -->
<g id="edge2" class="edge"><title>Node3&#45;&gt;Node2</title>
<path fill="none" stroke="#9a32cd" stroke-dasharray="5,2" d="M61,-126.041C61,-113.472 61,-97.5631 61,-87.8411"/>
<polygon fill="#9a32cd" stroke="#9a32cd" points="57.5001,-126.372 61,-136.372 64.5001,-126.372 57.5001,-126.372"/>
<text text-anchor="middle" x="69.5" y="-109.5" font-family="Helvetica,sans-Serif" font-size="10.00"> cnt</text>
</g>
</g>
</svg>
