<?xml version="1.0" encoding="UTF-8" standalone="no"?>
<!DOCTYPE svg PUBLIC "-//W3C//DTD SVG 1.1//EN"
 "http://www.w3.org/Graphics/SVG/1.1/DTD/svg11.dtd">
<!-- Generated by graphviz version 2.36.0 (20140111.2315)
 -->
<!-- Title: odp_ipsec_inbound_config_t Pages: 1 -->
<svg width="233pt" height="96pt"
 viewBox="0.00 0.00 233.00 96.00" xmlns="http://www.w3.org/2000/svg" xmlns:xlink="http://www.w3.org/1999/xlink">
<g id="graph0" class="graph" transform="scale(1 1) rotate(0) translate(4 92)">
<title>odp_ipsec_inbound_config_t</title>
<polygon fill="white" stroke="none" points="-4,4 -4,-92 229,-92 229,4 -4,4"/>
<!-- Node1 -->
<g id="node1" class="node"><title>Node1</title>
<polygon fill="#bfbfbf" stroke="black" points="47,-0.5 47,-19.5 187,-19.5 187,-0.5 47,-0.5"/>
<text text-anchor="middle" x="117" y="-7.5" font-family="Helvetica,sans-Serif" font-size="10.00">odp_ipsec_inbound_config_t</text>
</g>
<!-- Node2 -->
<g id="node2" class="node"><title>Node2</title>
<g id="a_node2"><a xlink:href="unionodp__proto__chksums__t.html" target="_top" xlink:title="Flags to control packet data checksum checking. ">
<polygon fill="white" stroke="black" points="-0.5,-68.5 -0.5,-87.5 112.5,-87.5 112.5,-68.5 -0.5,-68.5"/>
<text text-anchor="middle" x="56" y="-75.5" font-family="Helvetica,sans-Serif" font-size="10.00">odp_proto_chksums_t</text>
</a>
</g>
</g>
<!-- Node2&#45;&gt;Node1 -->
<g id="edge1" class="edge"><title>Node2&#45;&gt;Node1</title>
<path fill="none" stroke="#9a32cd" stroke-dasharray="5,2" d="M71.0836,-60.68C83.0093,-47.7768 99.2014,-30.2575 108.829,-19.8411"/>
<polygon fill="#9a32cd" stroke="#9a32cd" points="68.1918,-58.6523 63.9747,-68.3717 73.3325,-63.4035 68.1918,-58.6523"/>
<text text-anchor="middle" x="113.5" y="-41.5" font-family="Helvetica,sans-Serif" font-size="10.00"> chksums</text>
</g>
<!-- Node3 -->
<g id="node3" class="node"><title>Node3</title>
<g id="a_node3"><a xlink:href="struct__odp__abi__queue__t.html" target="_top" xlink:title="_odp_abi_queue_t">
<polygon fill="white" stroke="black" points="130.5,-68.5 130.5,-87.5 225.5,-87.5 225.5,-68.5 130.5,-68.5"/>
<text text-anchor="middle" x="178" y="-75.5" font-family="Helvetica,sans-Serif" font-size="10.00">_odp_abi_queue_t</text>
</a>
</g>
</g>
<!-- Node3&#45;&gt;Node1 -->
<g id="edge2" class="edge"><title>Node3&#45;&gt;Node1</title>
<path fill="none" stroke="#9a32cd" stroke-dasharray="5,2" d="M162.916,-60.68C150.991,-47.7768 134.799,-30.2575 125.171,-19.8411"/>
<polygon fill="#9a32cd" stroke="#9a32cd" points="160.668,-63.4035 170.025,-68.3717 165.808,-58.6523 160.668,-63.4035"/>
<text text-anchor="middle" x="184" y="-41.5" font-family="Helvetica,sans-Serif" font-size="10.00"> default_queue</text>
</g>
</g>
</svg>
