<?xml version="1.0" encoding="UTF-8" standalone="no"?>
<!DOCTYPE svg PUBLIC "-//W3C//DTD SVG 1.1//EN"
 "http://www.w3.org/Graphics/SVG/1.1/DTD/svg11.dtd">
<!-- Generated by graphviz version 2.36.0 (20140111.2315)
 -->
<!-- Title: odp_ipsec_config_t Pages: 1 -->
<svg width="310pt" height="176pt"
 viewBox="0.00 0.00 310.00 176.00" xmlns="http://www.w3.org/2000/svg" xmlns:xlink="http://www.w3.org/1999/xlink">
<g id="graph0" class="graph" transform="scale(1 1) rotate(0) translate(4 172)">
<title>odp_ipsec_config_t</title>
<polygon fill="white" stroke="none" points="-4,4 -4,-172 306,-172 306,4 -4,4"/>
<!-- Node1 -->
<g id="node1" class="node"><title>Node1</title>
<polygon fill="#bfbfbf" stroke="black" points="53.5,-0.5 53.5,-19.5 154.5,-19.5 154.5,-0.5 53.5,-0.5"/>
<text text-anchor="middle" x="104" y="-7.5" font-family="Helvetica,sans-Serif" font-size="10.00">odp_ipsec_config_t</text>
</g>
<!-- Node2 -->
<g id="node2" class="node"><title>Node2</title>
<g id="a_node2"><a xlink:href="structodp__ipsec__outbound__config__t.html" target="_top" xlink:title="Configuration options for IPSEC outbound processing. ">
<polygon fill="white" stroke="black" points="0,-69 0,-99 106,-99 106,-69 0,-69"/>
<text text-anchor="start" x="8" y="-87" font-family="Helvetica,sans-Serif" font-size="10.00">odp_ipsec_outbound</text>
<text text-anchor="middle" x="53" y="-76" font-family="Helvetica,sans-Serif" font-size="10.00">_config_t</text>
</a>
</g>
</g>
<!-- Node2&#45;&gt;Node1 -->
<g id="edge1" class="edge"><title>Node2&#45;&gt;Node1</title>
<path fill="none" stroke="#9a32cd" stroke-dasharray="5,2" d="M69.0986,-60.2726C78.8403,-46.5196 90.7106,-29.7615 97.7958,-19.7589"/>
<polygon fill="#9a32cd" stroke="#9a32cd" points="66.0001,-58.5918 63.076,-68.7751 71.7123,-62.6379 66.0001,-58.5918"/>
<text text-anchor="middle" x="106.5" y="-41.5" font-family="Helvetica,sans-Serif" font-size="10.00"> outbound</text>
</g>
<!-- Node3 -->
<g id="node3" class="node"><title>Node3</title>
<g id="a_node3"><a xlink:href="structodp__ipsec__inbound__config__t.html" target="_top" xlink:title="Configuration options for IPSEC inbound processing. ">
<polygon fill="white" stroke="black" points="124,-74.5 124,-93.5 264,-93.5 264,-74.5 124,-74.5"/>
<text text-anchor="middle" x="194" y="-81.5" font-family="Helvetica,sans-Serif" font-size="10.00">odp_ipsec_inbound_config_t</text>
</a>
</g>
</g>
<!-- Node3&#45;&gt;Node1 -->
<g id="edge2" class="edge"><title>Node3&#45;&gt;Node1</title>
<path fill="none" stroke="#9a32cd" stroke-dasharray="5,2" d="M175.117,-67.8935C156.762,-53.2096 129.542,-31.4332 114.664,-19.531"/>
<polygon fill="#9a32cd" stroke="#9a32cd" points="173.327,-70.944 183.322,-74.4579 177.7,-65.4779 173.327,-70.944"/>
<text text-anchor="middle" x="169.5" y="-41.5" font-family="Helvetica,sans-Serif" font-size="10.00"> inbound</text>
</g>
<!-- Node4 -->
<g id="node4" class="node"><title>Node4</title>
<g id="a_node4"><a xlink:href="unionodp__proto__chksums__t.html" target="_top" xlink:title="Flags to control packet data checksum checking. ">
<polygon fill="white" stroke="black" points="76.5,-148.5 76.5,-167.5 189.5,-167.5 189.5,-148.5 76.5,-148.5"/>
<text text-anchor="middle" x="133" y="-155.5" font-family="Helvetica,sans-Serif" font-size="10.00">odp_proto_chksums_t</text>
</a>
</g>
</g>
<!-- Node4&#45;&gt;Node3 -->
<g id="edge3" class="edge"><title>Node4&#45;&gt;Node3</title>
<path fill="none" stroke="#9a32cd" stroke-dasharray="5,2" d="M146.83,-140.677C159.239,-126.029 176.964,-105.109 186.772,-93.531"/>
<polygon fill="#9a32cd" stroke="#9a32cd" points="144.031,-138.566 140.237,-148.458 149.372,-143.091 144.031,-138.566"/>
<text text-anchor="middle" x="186.5" y="-121.5" font-family="Helvetica,sans-Serif" font-size="10.00"> chksums</text>
</g>
<!-- Node5 -->
<g id="node5" class="node"><title>Node5</title>
<g id="a_node5"><a xlink:href="struct__odp__abi__queue__t.html" target="_top" xlink:title="_odp_abi_queue_t">
<polygon fill="white" stroke="black" points="207.5,-148.5 207.5,-167.5 302.5,-167.5 302.5,-148.5 207.5,-148.5"/>
<text text-anchor="middle" x="255" y="-155.5" font-family="Helvetica,sans-Serif" font-size="10.00">_odp_abi_queue_t</text>
</a>
</g>
</g>
<!-- Node5&#45;&gt;Node3 -->
<g id="edge4" class="edge"><title>Node5&#45;&gt;Node3</title>
<path fill="none" stroke="#9a32cd" stroke-dasharray="5,2" d="M241.17,-140.677C228.761,-126.029 211.036,-105.109 201.228,-93.531"/>
<polygon fill="#9a32cd" stroke="#9a32cd" points="238.628,-143.091 247.763,-148.458 243.969,-138.566 238.628,-143.091"/>
<text text-anchor="middle" x="263" y="-121.5" font-family="Helvetica,sans-Serif" font-size="10.00"> default_queue</text>
</g>
</g>
</svg>
