<?xml version="1.0" encoding="UTF-8" standalone="no"?>
<!DOCTYPE svg PUBLIC "-//W3C//DTD SVG 1.1//EN"
 "http://www.w3.org/Graphics/SVG/1.1/DTD/svg11.dtd">
<!-- Generated by graphviz version 2.36.0 (20140111.2315)
 -->
<!-- Title: odp_pktio_capability_t Pages: 1 -->
<svg width="414pt" height="164pt"
 viewBox="0.00 0.00 414.00 164.00" xmlns="http://www.w3.org/2000/svg" xmlns:xlink="http://www.w3.org/1999/xlink">
<g id="graph0" class="graph" transform="scale(1 1) rotate(0) translate(4 160)">
<title>odp_pktio_capability_t</title>
<polygon fill="white" stroke="none" points="-4,4 -4,-160 410,-160 410,4 -4,4"/>
<!-- Node1 -->
<g id="node1" class="node"><title>Node1</title>
<polygon fill="#bfbfbf" stroke="black" points="75.5,-0.5 75.5,-19.5 188.5,-19.5 188.5,-0.5 75.5,-0.5"/>
<text text-anchor="middle" x="132" y="-7.5" font-family="Helvetica,sans-Serif" font-size="10.00">odp_pktio_capability_t</text>
</g>
<!-- Node2 -->
<g id="node2" class="node"><title>Node2</title>
<g id="a_node2"><a xlink:href="unionodp__pktio__set__op__t.html" target="_top" xlink:title="Packet IO set operations. ">
<polygon fill="white" stroke="black" points="38.5,-68.5 38.5,-87.5 139.5,-87.5 139.5,-68.5 38.5,-68.5"/>
<text text-anchor="middle" x="89" y="-75.5" font-family="Helvetica,sans-Serif" font-size="10.00">odp_pktio_set_op_t</text>
</a>
</g>
</g>
<!-- Node2&#45;&gt;Node1 -->
<g id="edge1" class="edge"><title>Node2&#45;&gt;Node1</title>
<path fill="none" stroke="#9a32cd" stroke-dasharray="5,2" d="M100.116,-59.9377C108.473,-47.112 119.583,-30.0591 126.24,-19.8411"/>
<polygon fill="#9a32cd" stroke="#9a32cd" points="97.1478,-58.0824 94.6215,-68.3717 103.013,-61.9036 97.1478,-58.0824"/>
<text text-anchor="middle" x="131.5" y="-41.5" font-family="Helvetica,sans-Serif" font-size="10.00"> set_op</text>
</g>
<!-- Node3 -->
<g id="node3" class="node"><title>Node3</title>
<g id="a_node3"><a xlink:href="structodp__pktio__config__t.html" target="_top" xlink:title="Packet IO configuration options. ">
<polygon fill="white" stroke="black" points="158,-68.5 158,-87.5 256,-87.5 256,-68.5 158,-68.5"/>
<text text-anchor="middle" x="207" y="-75.5" font-family="Helvetica,sans-Serif" font-size="10.00">odp_pktio_config_t</text>
</a>
</g>
</g>
<!-- Node3&#45;&gt;Node1 -->
<g id="edge2" class="edge"><title>Node3&#45;&gt;Node1</title>
<path fill="none" stroke="#9a32cd" stroke-dasharray="5,2" d="M189.287,-61.4122C174.553,-48.4468 154.109,-30.4559 142.047,-19.8411"/>
<polygon fill="#9a32cd" stroke="#9a32cd" points="187.376,-64.3928 197.195,-68.3717 192,-59.1378 187.376,-64.3928"/>
<text text-anchor="middle" x="192" y="-41.5" font-family="Helvetica,sans-Serif" font-size="10.00"> config</text>
</g>
<!-- Node4 -->
<g id="node4" class="node"><title>Node4</title>
<g id="a_node4"><a xlink:href="structodp__pktio__parser__config__t.html" target="_top" xlink:title="Parser configuration. ">
<polygon fill="white" stroke="black" points="-0.5,-136.5 -0.5,-155.5 130.5,-155.5 130.5,-136.5 -0.5,-136.5"/>
<text text-anchor="middle" x="65" y="-143.5" font-family="Helvetica,sans-Serif" font-size="10.00">odp_pktio_parser_config_t</text>
</a>
</g>
</g>
<!-- Node4&#45;&gt;Node3 -->
<g id="edge3" class="edge"><title>Node4&#45;&gt;Node3</title>
<path fill="none" stroke="#9a32cd" stroke-dasharray="5,2" d="M92.8952,-132.035C121.159,-118.898 164.085,-98.9463 188.431,-87.6305"/>
<polygon fill="#9a32cd" stroke="#9a32cd" points="91.1572,-128.983 83.564,-136.372 94.1076,-135.331 91.1572,-128.983"/>
<text text-anchor="middle" x="164.5" y="-109.5" font-family="Helvetica,sans-Serif" font-size="10.00"> parser</text>
</g>
<!-- Node5 -->
<g id="node5" class="node"><title>Node5</title>
<g id="a_node5"><a xlink:href="unionodp__pktin__config__opt__t.html" target="_top" xlink:title="Packet input configuration options bit field. ">
<polygon fill="white" stroke="black" points="148.5,-136.5 148.5,-155.5 265.5,-155.5 265.5,-136.5 148.5,-136.5"/>
<text text-anchor="middle" x="207" y="-143.5" font-family="Helvetica,sans-Serif" font-size="10.00">odp_pktin_config_opt_t</text>
</a>
</g>
</g>
<!-- Node5&#45;&gt;Node3 -->
<g id="edge4" class="edge"><title>Node5&#45;&gt;Node3</title>
<path fill="none" stroke="#9a32cd" stroke-dasharray="5,2" d="M207,-126.041C207,-113.472 207,-97.5631 207,-87.8411"/>
<polygon fill="#9a32cd" stroke="#9a32cd" points="203.5,-126.372 207,-136.372 210.5,-126.372 203.5,-126.372"/>
<text text-anchor="middle" x="219.5" y="-109.5" font-family="Helvetica,sans-Serif" font-size="10.00"> pktin</text>
</g>
<!-- Node6 -->
<g id="node6" class="node"><title>Node6</title>
<g id="a_node6"><a xlink:href="unionodp__pktout__config__opt__t.html" target="_top" xlink:title="Packet output configuration options bit field. ">
<polygon fill="white" stroke="black" points="283.5,-136.5 283.5,-155.5 406.5,-155.5 406.5,-136.5 283.5,-136.5"/>
<text text-anchor="middle" x="345" y="-143.5" font-family="Helvetica,sans-Serif" font-size="10.00">odp_pktout_config_opt_t</text>
</a>
</g>
</g>
<!-- Node6&#45;&gt;Node3 -->
<g id="edge5" class="edge"><title>Node6&#45;&gt;Node3</title>
<path fill="none" stroke="#9a32cd" stroke-dasharray="5,2" d="M317.891,-132.035C290.423,-118.898 248.706,-98.9463 225.046,-87.6305"/>
<polygon fill="#9a32cd" stroke="#9a32cd" points="316.427,-135.215 326.959,-136.372 319.448,-128.9 316.427,-135.215"/>
<text text-anchor="middle" x="303.5" y="-109.5" font-family="Helvetica,sans-Serif" font-size="10.00"> pktout</text>
</g>
</g>
</svg>
