<?xml version="1.0" encoding="UTF-8" standalone="no"?>
<!DOCTYPE svg PUBLIC "-//W3C//DTD SVG 1.1//EN"
 "http://www.w3.org/Graphics/SVG/1.1/DTD/svg11.dtd">
<!-- Generated by graphviz version 2.36.0 (20140111.2315)
 -->
<!-- Title: odp_crypto_session_param_t Pages: 1 -->
<svg width="407pt" height="130pt"
 viewBox="0.00 0.00 407.00 130.00" xmlns="http://www.w3.org/2000/svg" xmlns:xlink="http://www.w3.org/1999/xlink">
<g id="graph0" class="graph" transform="scale(1 1) rotate(0) translate(4 126)">
<title>odp_crypto_session_param_t</title>
<polygon fill="white" stroke="none" points="-4,4 -4,-126 403,-126 403,4 -4,4"/>
<!-- Node1 -->
<g id="node1" class="node"><title>Node1</title>
<polygon fill="#bfbfbf" stroke="black" points="152,-1 152,-31 256,-31 256,-1 152,-1"/>
<text text-anchor="start" x="160" y="-19" font-family="Helvetica,sans-Serif" font-size="10.00">odp_crypto_session</text>
<text text-anchor="middle" x="204" y="-8" font-family="Helvetica,sans-Serif" font-size="10.00">_param_t</text>
</g>
<!-- Node2 -->
<g id="node2" class="node"><title>Node2</title>
<g id="a_node2"><a xlink:href="struct__odp__abi__pool__t.html" target="_top" xlink:title="_odp_abi_pool_t">
<polygon fill="white" stroke="black" points="-0.5,-102.5 -0.5,-121.5 86.5,-121.5 86.5,-102.5 -0.5,-102.5"/>
<text text-anchor="middle" x="43" y="-109.5" font-family="Helvetica,sans-Serif" font-size="10.00">_odp_abi_pool_t</text>
</a>
</g>
</g>
<!-- Node2&#45;&gt;Node1 -->
<g id="edge1" class="edge"><title>Node2&#45;&gt;Node1</title>
<path fill="none" stroke="#9a32cd" stroke-dasharray="5,2" d="M55.1971,-94.0849C65.8675,-80.4127 82.5191,-61.5951 101,-50 116.349,-40.3698 134.762,-33.3108 151.748,-28.2529"/>
<polygon fill="#9a32cd" stroke="#9a32cd" points="52.3072,-92.1045 49.0898,-102.199 57.9,-96.3141 52.3072,-92.1045"/>
<text text-anchor="middle" x="128" y="-64.5" font-family="Helvetica,sans-Serif" font-size="10.00"> output_pool</text>
</g>
<!-- Node3 -->
<g id="node3" class="node"><title>Node3</title>
<g id="a_node3"><a xlink:href="struct__odp__abi__queue__t.html" target="_top" xlink:title="_odp_abi_queue_t">
<polygon fill="white" stroke="black" points="104.5,-102.5 104.5,-121.5 199.5,-121.5 199.5,-102.5 104.5,-102.5"/>
<text text-anchor="middle" x="152" y="-109.5" font-family="Helvetica,sans-Serif" font-size="10.00">_odp_abi_queue_t</text>
</a>
</g>
</g>
<!-- Node3&#45;&gt;Node1 -->
<g id="edge2" class="edge"><title>Node3&#45;&gt;Node1</title>
<path fill="none" stroke="#9a32cd" stroke-dasharray="5,2" d="M156.207,-92.4126C159.563,-79.8469 165.034,-63.2028 173,-50 177.142,-43.1349 182.905,-36.5016 188.339,-31.0052"/>
<polygon fill="#9a32cd" stroke="#9a32cd" points="152.785,-91.6694 153.792,-102.216 159.582,-93.3434 152.785,-91.6694"/>
<text text-anchor="middle" x="203.5" y="-64.5" font-family="Helvetica,sans-Serif" font-size="10.00"> compl_queue</text>
</g>
<!-- Node4 -->
<g id="node4" class="node"><title>Node4</title>
<g id="a_node4"><a xlink:href="structodp__crypto__iv.html" target="_top" xlink:title="Crypto API IV structure. ">
<polygon fill="white" stroke="black" points="217.5,-102.5 217.5,-121.5 294.5,-121.5 294.5,-102.5 217.5,-102.5"/>
<text text-anchor="middle" x="256" y="-109.5" font-family="Helvetica,sans-Serif" font-size="10.00">odp_crypto_iv</text>
</a>
</g>
</g>
<!-- Node4&#45;&gt;Node1 -->
<g id="edge3" class="edge"><title>Node4&#45;&gt;Node1</title>
<path fill="none" stroke="#9a32cd" stroke-dasharray="5,2" d="M251.369,-92.4607C247.753,-79.9163 241.995,-63.2779 234,-50 229.926,-43.2342 224.336,-36.6211 219.085,-31.113"/>
<polygon fill="#9a32cd" stroke="#9a32cd" points="248.022,-93.4936 253.996,-102.243 254.782,-91.6777 248.022,-93.4936"/>
<text text-anchor="middle" x="270.5" y="-75.5" font-family="Helvetica,sans-Serif" font-size="10.00"> cipher_iv</text>
<text text-anchor="middle" x="270.5" y="-64.5" font-family="Helvetica,sans-Serif" font-size="10.00">iv</text>
<text text-anchor="middle" x="270.5" y="-53.5" font-family="Helvetica,sans-Serif" font-size="10.00">auth_iv</text>
</g>
<!-- Node5 -->
<g id="node5" class="node"><title>Node5</title>
<g id="a_node5"><a xlink:href="structodp__crypto__key.html" target="_top" xlink:title="Crypto API key structure. ">
<polygon fill="white" stroke="black" points="313,-102.5 313,-121.5 399,-121.5 399,-102.5 313,-102.5"/>
<text text-anchor="middle" x="356" y="-109.5" font-family="Helvetica,sans-Serif" font-size="10.00">odp_crypto_key</text>
</a>
</g>
</g>
<!-- Node5&#45;&gt;Node1 -->
<g id="edge4" class="edge"><title>Node5&#45;&gt;Node1</title>
<path fill="none" stroke="#9a32cd" stroke-dasharray="5,2" d="M343.155,-94.2697C331.981,-80.7082 314.683,-61.9496 296,-50 283.849,-42.2285 269.625,-35.9796 256.044,-31.0991"/>
<polygon fill="#9a32cd" stroke="#9a32cd" points="340.595,-96.6726 349.567,-102.307 346.067,-92.3073 340.595,-96.6726"/>
<text text-anchor="middle" x="358" y="-70" font-family="Helvetica,sans-Serif" font-size="10.00"> auth_key</text>
<text text-anchor="middle" x="358" y="-59" font-family="Helvetica,sans-Serif" font-size="10.00">cipher_key</text>
</g>
</g>
</svg>
