<?xml version="1.0" encoding="UTF-8" standalone="no"?>
<!DOCTYPE svg PUBLIC "-//W3C//DTD SVG 1.1//EN"
 "http://www.w3.org/Graphics/SVG/1.1/DTD/svg11.dtd">
<!-- Generated by graphviz version 2.36.0 (20140111.2315)
 -->
<!-- Title: odp_ipsec_tunnel_param_t Pages: 1 -->
<svg width="275pt" height="96pt"
 viewBox="0.00 0.00 275.00 96.00" xmlns="http://www.w3.org/2000/svg" xmlns:xlink="http://www.w3.org/1999/xlink">
<g id="graph0" class="graph" transform="scale(1 1) rotate(0) translate(4 92)">
<title>odp_ipsec_tunnel_param_t</title>
<polygon fill="white" stroke="none" points="-4,4 -4,-92 271,-92 271,4 -4,4"/>
<!-- Node1 -->
<g id="node1" class="node"><title>Node1</title>
<polygon fill="#bfbfbf" stroke="black" points="66.5,-0.5 66.5,-19.5 199.5,-19.5 199.5,-0.5 66.5,-0.5"/>
<text text-anchor="middle" x="133" y="-7.5" font-family="Helvetica,sans-Serif" font-size="10.00">odp_ipsec_tunnel_param_t</text>
</g>
<!-- Node2 -->
<g id="node2" class="node"><title>Node2</title>
<g id="a_node2"><a xlink:href="structodp__ipsec__ipv4__param__t.html" target="_top" xlink:title="IPv4 header parameters. ">
<polygon fill="white" stroke="black" points="-0.5,-68.5 -0.5,-87.5 124.5,-87.5 124.5,-68.5 -0.5,-68.5"/>
<text text-anchor="middle" x="62" y="-75.5" font-family="Helvetica,sans-Serif" font-size="10.00">odp_ipsec_ipv4_param_t</text>
</a>
</g>
</g>
<!-- Node2&#45;&gt;Node1 -->
<g id="edge1" class="edge"><title>Node2&#45;&gt;Node1</title>
<path fill="none" stroke="#9a32cd" stroke-dasharray="5,2" d="M78.7687,-61.4122C92.7164,-48.4468 112.07,-30.4559 123.489,-19.8411"/>
<polygon fill="#9a32cd" stroke="#9a32cd" points="76.2233,-58.9997 71.282,-68.3717 80.9893,-64.1267 76.2233,-58.9997"/>
<text text-anchor="middle" x="115" y="-41.5" font-family="Helvetica,sans-Serif" font-size="10.00"> ipv4</text>
</g>
<!-- Node3 -->
<g id="node3" class="node"><title>Node3</title>
<g id="a_node3"><a xlink:href="structodp__ipsec__ipv6__param__t.html" target="_top" xlink:title="IPv6 header parameters. ">
<polygon fill="white" stroke="black" points="142.5,-68.5 142.5,-87.5 267.5,-87.5 267.5,-68.5 142.5,-68.5"/>
<text text-anchor="middle" x="205" y="-75.5" font-family="Helvetica,sans-Serif" font-size="10.00">odp_ipsec_ipv6_param_t</text>
</a>
</g>
</g>
<!-- Node3&#45;&gt;Node1 -->
<g id="edge2" class="edge"><title>Node3&#45;&gt;Node1</title>
<path fill="none" stroke="#9a32cd" stroke-dasharray="5,2" d="M187.995,-61.4122C173.851,-48.4468 154.225,-30.4559 142.645,-19.8411"/>
<polygon fill="#9a32cd" stroke="#9a32cd" points="185.851,-64.1944 195.587,-68.3717 190.581,-59.0343 185.851,-64.1944"/>
<text text-anchor="middle" x="186" y="-41.5" font-family="Helvetica,sans-Serif" font-size="10.00"> ipv6</text>
</g>
</g>
</svg>
