<?xml version="1.0" encoding="UTF-8" standalone="no"?>
<!DOCTYPE svg PUBLIC "-//W3C//DTD SVG 1.1//EN"
 "http://www.w3.org/Graphics/SVG/1.1/DTD/svg11.dtd">
<!-- Generated by graphviz version 2.36.0 (20140111.2315)
 -->
<!-- Title: odp_pktio_config_t Pages: 1 -->
<svg width="414pt" height="96pt"
 viewBox="0.00 0.00 414.00 96.00" xmlns="http://www.w3.org/2000/svg" xmlns:xlink="http://www.w3.org/1999/xlink">
<g id="graph0" class="graph" transform="scale(1 1) rotate(0) translate(4 92)">
<title>odp_pktio_config_t</title>
<polygon fill="white" stroke="none" points="-4,4 -4,-92 410,-92 410,4 -4,4"/>
<!-- Node1 -->
<g id="node1" class="node"><title>Node1</title>
<polygon fill="#bfbfbf" stroke="black" points="158,-0.5 158,-19.5 256,-19.5 256,-0.5 158,-0.5"/>
<text text-anchor="middle" x="207" y="-7.5" font-family="Helvetica,sans-Serif" font-size="10.00">odp_pktio_config_t</text>
</g>
<!-- Node2 -->
<g id="node2" class="node"><title>Node2</title>
<g id="a_node2"><a xlink:href="structodp__pktio__parser__config__t.html" target="_top" xlink:title="Parser configuration. ">
<polygon fill="white" stroke="black" points="-0.5,-68.5 -0.5,-87.5 130.5,-87.5 130.5,-68.5 -0.5,-68.5"/>
<text text-anchor="middle" x="65" y="-75.5" font-family="Helvetica,sans-Serif" font-size="10.00">odp_pktio_parser_config_t</text>
</a>
</g>
</g>
<!-- Node2&#45;&gt;Node1 -->
<g id="edge1" class="edge"><title>Node2&#45;&gt;Node1</title>
<path fill="none" stroke="#9a32cd" stroke-dasharray="5,2" d="M92.8952,-64.0346C121.159,-50.898 164.085,-30.9463 188.431,-19.6305"/>
<polygon fill="#9a32cd" stroke="#9a32cd" points="91.1572,-60.9828 83.564,-68.3717 94.1076,-67.3307 91.1572,-60.9828"/>
<text text-anchor="middle" x="164.5" y="-41.5" font-family="Helvetica,sans-Serif" font-size="10.00"> parser</text>
</g>
<!-- Node3 -->
<g id="node3" class="node"><title>Node3</title>
<g id="a_node3"><a xlink:href="unionodp__pktin__config__opt__t.html" target="_top" xlink:title="Packet input configuration options bit field. ">
<polygon fill="white" stroke="black" points="148.5,-68.5 148.5,-87.5 265.5,-87.5 265.5,-68.5 148.5,-68.5"/>
<text text-anchor="middle" x="207" y="-75.5" font-family="Helvetica,sans-Serif" font-size="10.00">odp_pktin_config_opt_t</text>
</a>
</g>
</g>
<!-- Node3&#45;&gt;Node1 -->
<g id="edge2" class="edge"><title>Node3&#45;&gt;Node1</title>
<path fill="none" stroke="#9a32cd" stroke-dasharray="5,2" d="M207,-58.0413C207,-45.4724 207,-29.5631 207,-19.8411"/>
<polygon fill="#9a32cd" stroke="#9a32cd" points="203.5,-58.3716 207,-68.3717 210.5,-58.3717 203.5,-58.3716"/>
<text text-anchor="middle" x="219.5" y="-41.5" font-family="Helvetica,sans-Serif" font-size="10.00"> pktin</text>
</g>
<!-- Node4 -->
<g id="node4" class="node"><title>Node4</title>
<g id="a_node4"><a xlink:href="unionodp__pktout__config__opt__t.html" target="_top" xlink:title="Packet output configuration options bit field. ">
<polygon fill="white" stroke="black" points="283.5,-68.5 283.5,-87.5 406.5,-87.5 406.5,-68.5 283.5,-68.5"/>
<text text-anchor="middle" x="345" y="-75.5" font-family="Helvetica,sans-Serif" font-size="10.00">odp_pktout_config_opt_t</text>
</a>
</g>
</g>
<!-- Node4&#45;&gt;Node1 -->
<g id="edge3" class="edge"><title>Node4&#45;&gt;Node1</title>
<path fill="none" stroke="#9a32cd" stroke-dasharray="5,2" d="M317.891,-64.0346C290.423,-50.898 248.706,-30.9463 225.046,-19.6305"/>
<polygon fill="#9a32cd" stroke="#9a32cd" points="316.427,-67.2145 326.959,-68.3717 319.448,-60.8996 316.427,-67.2145"/>
<text text-anchor="middle" x="303.5" y="-41.5" font-family="Helvetica,sans-Serif" font-size="10.00"> pktout</text>
</g>
</g>
</svg>
