<?xml version="1.0" encoding="UTF-8" standalone="no"?>
<!DOCTYPE svg PUBLIC "-//W3C//DTD SVG 1.1//EN"
 "http://www.w3.org/Graphics/SVG/1.1/DTD/svg11.dtd">
<!-- Generated by graphviz version 2.36.0 (20140111.2315)
 -->
<!-- Title: odp_ipsec_out_inline_param_t Pages: 1 -->
<svg width="114pt" height="108pt"
 viewBox="0.00 0.00 114.00 108.00" xmlns="http://www.w3.org/2000/svg" xmlns:xlink="http://www.w3.org/1999/xlink">
<g id="graph0" class="graph" transform="scale(1 1) rotate(0) translate(4 104)">
<title>odp_ipsec_out_inline_param_t</title>
<polygon fill="white" stroke="none" points="-4,4 -4,-104 110,-104 110,4 -4,4"/>
<!-- Node1 -->
<g id="node1" class="node"><title>Node1</title>
<polygon fill="#bfbfbf" stroke="black" points="-0.5,-1 -0.5,-31 106.5,-31 106.5,-1 -0.5,-1"/>
<text text-anchor="start" x="7.5" y="-19" font-family="Helvetica,sans-Serif" font-size="10.00">odp_ipsec_out_inline</text>
<text text-anchor="middle" x="53" y="-8" font-family="Helvetica,sans-Serif" font-size="10.00">_param_t</text>
</g>
<!-- Node2 -->
<g id="node2" class="node"><title>Node2</title>
<g id="a_node2"><a xlink:href="struct__odp__abi__pktio__t.html" target="_top" xlink:title="_odp_abi_pktio_t">
<polygon fill="white" stroke="black" points="8,-80.5 8,-99.5 98,-99.5 98,-80.5 8,-80.5"/>
<text text-anchor="middle" x="53" y="-87.5" font-family="Helvetica,sans-Serif" font-size="10.00">_odp_abi_pktio_t</text>
</a>
</g>
</g>
<!-- Node2&#45;&gt;Node1 -->
<g id="edge1" class="edge"><title>Node2&#45;&gt;Node1</title>
<path fill="none" stroke="#9a32cd" stroke-dasharray="5,2" d="M53,-70.0846C53,-57.9148 53,-42.3538 53,-31.2316"/>
<polygon fill="#9a32cd" stroke="#9a32cd" points="49.5001,-70.4579 53,-80.4579 56.5001,-70.4579 49.5001,-70.4579"/>
<text text-anchor="middle" x="65.5" y="-53.5" font-family="Helvetica,sans-Serif" font-size="10.00"> pktio</text>
</g>
</g>
</svg>
