<?xml version="1.0" encoding="UTF-8" standalone="no"?>
<!DOCTYPE svg PUBLIC "-//W3C//DTD SVG 1.1//EN"
 "http://www.w3.org/Graphics/SVG/1.1/DTD/svg11.dtd">
<!-- Generated by graphviz version 2.36.0 (20140111.2315)
 -->
<!-- Title: odp_ipsec_capability_t Pages: 1 -->
<svg width="414pt" height="96pt"
 viewBox="0.00 0.00 414.00 96.00" xmlns="http://www.w3.org/2000/svg" xmlns:xlink="http://www.w3.org/1999/xlink">
<g id="graph0" class="graph" transform="scale(1 1) rotate(0) translate(4 92)">
<title>odp_ipsec_capability_t</title>
<polygon fill="white" stroke="none" points="-4,4 -4,-92 410,-92 410,4 -4,4"/>
<!-- Node1 -->
<g id="node1" class="node"><title>Node1</title>
<polygon fill="#bfbfbf" stroke="black" points="139,-0.5 139,-19.5 255,-19.5 255,-0.5 139,-0.5"/>
<text text-anchor="middle" x="197" y="-7.5" font-family="Helvetica,sans-Serif" font-size="10.00">odp_ipsec_capability_t</text>
</g>
<!-- Node2 -->
<g id="node2" class="node"><title>Node2</title>
<g id="a_node2"><a xlink:href="unionodp__proto__chksums__t.html" target="_top" xlink:title="Flags to control packet data checksum checking. ">
<polygon fill="white" stroke="black" points="-0.5,-68.5 -0.5,-87.5 112.5,-87.5 112.5,-68.5 -0.5,-68.5"/>
<text text-anchor="middle" x="56" y="-75.5" font-family="Helvetica,sans-Serif" font-size="10.00">odp_proto_chksums_t</text>
</a>
</g>
</g>
<!-- Node2&#45;&gt;Node1 -->
<g id="edge1" class="edge"><title>Node2&#45;&gt;Node1</title>
<path fill="none" stroke="#9a32cd" stroke-dasharray="5,2" d="M82.7847,-63.8892C98.5257,-56.2379 118.839,-46.4568 137,-38 150.565,-31.6834 165.959,-24.7613 177.757,-19.5075"/>
<polygon fill="#9a32cd" stroke="#9a32cd" points="81.0916,-60.8207 73.6347,-68.347 84.1575,-67.1136 81.0916,-60.8207"/>
<text text-anchor="middle" x="165" y="-41.5" font-family="Helvetica,sans-Serif" font-size="10.00"> chksums_in</text>
</g>
<!-- Node3 -->
<g id="node3" class="node"><title>Node3</title>
<g id="a_node3"><a xlink:href="unionodp__crypto__cipher__algos__t.html" target="_top" xlink:title="Cipher algorithms in a bit field structure. ">
<polygon fill="white" stroke="black" points="130.5,-68.5 130.5,-87.5 263.5,-87.5 263.5,-68.5 130.5,-68.5"/>
<text text-anchor="middle" x="197" y="-75.5" font-family="Helvetica,sans-Serif" font-size="10.00">odp_crypto_cipher_algos_t</text>
</a>
</g>
</g>
<!-- Node3&#45;&gt;Node1 -->
<g id="edge2" class="edge"><title>Node3&#45;&gt;Node1</title>
<path fill="none" stroke="#9a32cd" stroke-dasharray="5,2" d="M197,-58.0413C197,-45.4724 197,-29.5631 197,-19.8411"/>
<polygon fill="#9a32cd" stroke="#9a32cd" points="193.5,-58.3716 197,-68.3717 200.5,-58.3717 193.5,-58.3716"/>
<text text-anchor="middle" x="214.5" y="-41.5" font-family="Helvetica,sans-Serif" font-size="10.00"> ciphers</text>
</g>
<!-- Node4 -->
<g id="node4" class="node"><title>Node4</title>
<g id="a_node4"><a xlink:href="unionodp__crypto__auth__algos__t.html" target="_top" xlink:title="Authentication algorithms in a bit field structure. ">
<polygon fill="white" stroke="black" points="281.5,-68.5 281.5,-87.5 406.5,-87.5 406.5,-68.5 281.5,-68.5"/>
<text text-anchor="middle" x="344" y="-75.5" font-family="Helvetica,sans-Serif" font-size="10.00">odp_crypto_auth_algos_t</text>
</a>
</g>
</g>
<!-- Node4&#45;&gt;Node1 -->
<g id="edge3" class="edge"><title>Node4&#45;&gt;Node1</title>
<path fill="none" stroke="#9a32cd" stroke-dasharray="5,2" d="M315.505,-64.2063C286.252,-51.0724 241.536,-30.9957 216.222,-19.6305"/>
<polygon fill="#9a32cd" stroke="#9a32cd" points="314.226,-67.4686 324.782,-68.3717 317.093,-61.0827 314.226,-67.4686"/>
<text text-anchor="middle" x="297" y="-41.5" font-family="Helvetica,sans-Serif" font-size="10.00"> auths</text>
</g>
</g>
</svg>
