<?xml version="1.0" encoding="UTF-8" standalone="no"?>
<!DOCTYPE svg PUBLIC "-//W3C//DTD SVG 1.1//EN"
 "http://www.w3.org/Graphics/SVG/1.1/DTD/svg11.dtd">
<!-- Generated by graphviz version 2.36.0 (20140111.2315)
 -->
<!-- Title: odp_ipsec_op_status_t Pages: 1 -->
<svg width="215pt" height="96pt"
 viewBox="0.00 0.00 215.00 96.00" xmlns="http://www.w3.org/2000/svg" xmlns:xlink="http://www.w3.org/1999/xlink">
<g id="graph0" class="graph" transform="scale(1 1) rotate(0) translate(4 92)">
<title>odp_ipsec_op_status_t</title>
<polygon fill="white" stroke="none" points="-4,4 -4,-92 211,-92 211,4 -4,4"/>
<!-- Node1 -->
<g id="node1" class="node"><title>Node1</title>
<polygon fill="#bfbfbf" stroke="black" points="44.5,-0.5 44.5,-19.5 161.5,-19.5 161.5,-0.5 44.5,-0.5"/>
<text text-anchor="middle" x="103" y="-7.5" font-family="Helvetica,sans-Serif" font-size="10.00">odp_ipsec_op_status_t</text>
</g>
<!-- Node2 -->
<g id="node2" class="node"><title>Node2</title>
<g id="a_node2"><a xlink:href="structodp__ipsec__warn__t.html" target="_top" xlink:title="IPSEC warnings. ">
<polygon fill="white" stroke="black" points="-0.5,-68.5 -0.5,-87.5 94.5,-87.5 94.5,-68.5 -0.5,-68.5"/>
<text text-anchor="middle" x="47" y="-75.5" font-family="Helvetica,sans-Serif" font-size="10.00">odp_ipsec_warn_t</text>
</a>
</g>
</g>
<!-- Node2&#45;&gt;Node1 -->
<g id="edge1" class="edge"><title>Node2&#45;&gt;Node1</title>
<path fill="none" stroke="#9a32cd" stroke-dasharray="5,2" d="M60.8473,-60.68C71.7955,-47.7768 86.6603,-30.2575 95.4984,-19.8411"/>
<polygon fill="#9a32cd" stroke="#9a32cd" points="58.122,-58.4821 54.321,-68.3717 63.4596,-63.011 58.122,-58.4821"/>
<text text-anchor="middle" x="93.5" y="-41.5" font-family="Helvetica,sans-Serif" font-size="10.00"> warn</text>
</g>
<!-- Node3 -->
<g id="node3" class="node"><title>Node3</title>
<g id="a_node3"><a xlink:href="structodp__ipsec__error__t.html" target="_top" xlink:title="IPSEC errors. ">
<polygon fill="white" stroke="black" points="113,-68.5 113,-87.5 207,-87.5 207,-68.5 113,-68.5"/>
<text text-anchor="middle" x="160" y="-75.5" font-family="Helvetica,sans-Serif" font-size="10.00">odp_ipsec_error_t</text>
</a>
</g>
</g>
<!-- Node3&#45;&gt;Node1 -->
<g id="edge2" class="edge"><title>Node3&#45;&gt;Node1</title>
<path fill="none" stroke="#9a32cd" stroke-dasharray="5,2" d="M145.905,-60.68C134.762,-47.7768 119.632,-30.2575 110.636,-19.8411"/>
<polygon fill="#9a32cd" stroke="#9a32cd" points="143.363,-63.0911 152.548,-68.3717 148.661,-58.5157 143.363,-63.0911"/>
<text text-anchor="middle" x="148.5" y="-41.5" font-family="Helvetica,sans-Serif" font-size="10.00"> error</text>
</g>
</g>
</svg>
