<?xml version="1.0" encoding="UTF-8" standalone="no"?>
<!DOCTYPE svg PUBLIC "-//W3C//DTD SVG 1.1//EN"
 "http://www.w3.org/Graphics/SVG/1.1/DTD/svg11.dtd">
<!-- Generated by graphviz version 2.36.0 (20140111.2315)
 -->
<!-- Title: odp_ipsec_packet_result_t Pages: 1 -->
<svg width="420pt" height="164pt"
 viewBox="0.00 0.00 420.00 164.00" xmlns="http://www.w3.org/2000/svg" xmlns:xlink="http://www.w3.org/1999/xlink">
<g id="graph0" class="graph" transform="scale(1 1) rotate(0) translate(4 160)">
<title>odp_ipsec_packet_result_t</title>
<polygon fill="white" stroke="none" points="-4,4 -4,-160 416,-160 416,4 -4,4"/>
<!-- Node1 -->
<g id="node1" class="node"><title>Node1</title>
<polygon fill="#bfbfbf" stroke="black" points="111.5,-0.5 111.5,-19.5 244.5,-19.5 244.5,-0.5 111.5,-0.5"/>
<text text-anchor="middle" x="178" y="-7.5" font-family="Helvetica,sans-Serif" font-size="10.00">odp_ipsec_packet_result_t</text>
</g>
<!-- Node2 -->
<g id="node2" class="node"><title>Node2</title>
<g id="a_node2"><a xlink:href="structodp__ipsec__op__flag__t.html" target="_top" xlink:title="IPSEC operation flags. ">
<polygon fill="white" stroke="black" points="0,-68.5 0,-87.5 106,-87.5 106,-68.5 0,-68.5"/>
<text text-anchor="middle" x="53" y="-75.5" font-family="Helvetica,sans-Serif" font-size="10.00">odp_ipsec_op_flag_t</text>
</a>
</g>
</g>
<!-- Node2&#45;&gt;Node1 -->
<g id="edge1" class="edge"><title>Node2&#45;&gt;Node1</title>
<path fill="none" stroke="#9a32cd" stroke-dasharray="5,2" d="M78.2105,-63.6889C103.094,-50.5502 140.41,-30.8475 161.654,-19.6305"/>
<polygon fill="#9a32cd" stroke="#9a32cd" points="76.5504,-60.6074 69.3416,-68.3717 79.8188,-66.7975 76.5504,-60.6074"/>
<text text-anchor="middle" x="136.5" y="-41.5" font-family="Helvetica,sans-Serif" font-size="10.00"> flag</text>
</g>
<!-- Node3 -->
<g id="node3" class="node"><title>Node3</title>
<g id="a_node3"><a xlink:href="struct__odp__abi__ipsec__sa__t.html" target="_top" xlink:title="_odp_abi_ipsec_sa_t">
<polygon fill="white" stroke="black" points="124,-68.5 124,-87.5 232,-87.5 232,-68.5 124,-68.5"/>
<text text-anchor="middle" x="178" y="-75.5" font-family="Helvetica,sans-Serif" font-size="10.00">_odp_abi_ipsec_sa_t</text>
</a>
</g>
</g>
<!-- Node3&#45;&gt;Node1 -->
<g id="edge2" class="edge"><title>Node3&#45;&gt;Node1</title>
<path fill="none" stroke="#9a32cd" stroke-dasharray="5,2" d="M178,-58.0413C178,-45.4724 178,-29.5631 178,-19.8411"/>
<polygon fill="#9a32cd" stroke="#9a32cd" points="174.5,-58.3716 178,-68.3717 181.5,-58.3717 174.5,-58.3716"/>
<text text-anchor="middle" x="185" y="-41.5" font-family="Helvetica,sans-Serif" font-size="10.00"> sa</text>
</g>
<!-- Node4 -->
<g id="node4" class="node"><title>Node4</title>
<g id="a_node4"><a xlink:href="structodp__ipsec__op__status__t.html" target="_top" xlink:title="IPSEC operation status. ">
<polygon fill="white" stroke="black" points="250.5,-68.5 250.5,-87.5 367.5,-87.5 367.5,-68.5 250.5,-68.5"/>
<text text-anchor="middle" x="309" y="-75.5" font-family="Helvetica,sans-Serif" font-size="10.00">odp_ipsec_op_status_t</text>
</a>
</g>
</g>
<!-- Node4&#45;&gt;Node1 -->
<g id="edge3" class="edge"><title>Node4&#45;&gt;Node1</title>
<path fill="none" stroke="#9a32cd" stroke-dasharray="5,2" d="M282.923,-63.8621C256.846,-50.7239 217.492,-30.8969 195.13,-19.6305"/>
<polygon fill="#9a32cd" stroke="#9a32cd" points="281.369,-66.9979 291.874,-68.3717 284.518,-60.7465 281.369,-66.9979"/>
<text text-anchor="middle" x="270.5" y="-41.5" font-family="Helvetica,sans-Serif" font-size="10.00"> status</text>
</g>
<!-- Node5 -->
<g id="node5" class="node"><title>Node5</title>
<g id="a_node5"><a xlink:href="structodp__ipsec__warn__t.html" target="_top" xlink:title="IPSEC warnings. ">
<polygon fill="white" stroke="black" points="204.5,-136.5 204.5,-155.5 299.5,-155.5 299.5,-136.5 204.5,-136.5"/>
<text text-anchor="middle" x="252" y="-143.5" font-family="Helvetica,sans-Serif" font-size="10.00">odp_ipsec_warn_t</text>
</a>
</g>
</g>
<!-- Node5&#45;&gt;Node4 -->
<g id="edge4" class="edge"><title>Node5&#45;&gt;Node4</title>
<path fill="none" stroke="#9a32cd" stroke-dasharray="5,2" d="M266.095,-128.68C277.238,-115.777 292.368,-98.2575 301.364,-87.8411"/>
<polygon fill="#9a32cd" stroke="#9a32cd" points="263.339,-126.516 259.452,-136.372 268.637,-131.091 263.339,-126.516"/>
<text text-anchor="middle" x="297.5" y="-109.5" font-family="Helvetica,sans-Serif" font-size="10.00"> warn</text>
</g>
<!-- Node6 -->
<g id="node6" class="node"><title>Node6</title>
<g id="a_node6"><a xlink:href="structodp__ipsec__error__t.html" target="_top" xlink:title="IPSEC errors. ">
<polygon fill="white" stroke="black" points="318,-136.5 318,-155.5 412,-155.5 412,-136.5 318,-136.5"/>
<text text-anchor="middle" x="365" y="-143.5" font-family="Helvetica,sans-Serif" font-size="10.00">odp_ipsec_error_t</text>
</a>
</g>
</g>
<!-- Node6&#45;&gt;Node4 -->
<g id="edge5" class="edge"><title>Node6&#45;&gt;Node4</title>
<path fill="none" stroke="#9a32cd" stroke-dasharray="5,2" d="M351.153,-128.68C340.205,-115.777 325.34,-98.2575 316.502,-87.8411"/>
<polygon fill="#9a32cd" stroke="#9a32cd" points="348.54,-131.011 357.679,-136.372 353.878,-126.482 348.54,-131.011"/>
<text text-anchor="middle" x="353.5" y="-109.5" font-family="Helvetica,sans-Serif" font-size="10.00"> error</text>
</g>
</g>
</svg>
