<?xml version="1.0" encoding="UTF-8" standalone="no"?>
<!DOCTYPE svg PUBLIC "-//W3C//DTD SVG 1.1//EN"
 "http://www.w3.org/Graphics/SVG/1.1/DTD/svg11.dtd">
<!-- Generated by graphviz version 2.36.0 (20140111.2315)
 -->
<!-- Title: odp_crypto_op_result Pages: 1 -->
<svg width="237pt" height="106pt"
 viewBox="0.00 0.00 237.00 106.00" xmlns="http://www.w3.org/2000/svg" xmlns:xlink="http://www.w3.org/1999/xlink">
<g id="graph0" class="graph" transform="scale(1 1) rotate(0) translate(4 102)">
<title>odp_crypto_op_result</title>
<polygon fill="white" stroke="none" points="-4,4 -4,-102 233,-102 233,4 -4,4"/>
<!-- Node1 -->
<g id="node1" class="node"><title>Node1</title>
<polygon fill="#bfbfbf" stroke="black" points="56,-0.5 56,-19.5 166,-19.5 166,-0.5 56,-0.5"/>
<text text-anchor="middle" x="111" y="-7.5" font-family="Helvetica,sans-Serif" font-size="10.00">odp_crypto_op_result</text>
</g>
<!-- Node2 -->
<g id="node2" class="node"><title>Node2</title>
<g id="a_node2"><a xlink:href="struct__odp__abi__packet__t.html" target="_top" xlink:title="_odp_abi_packet_t">
<polygon fill="white" stroke="black" points="0,-78.5 0,-97.5 98,-97.5 98,-78.5 0,-78.5"/>
<text text-anchor="middle" x="49" y="-85.5" font-family="Helvetica,sans-Serif" font-size="10.00">_odp_abi_packet_t</text>
</a>
</g>
</g>
<!-- Node2&#45;&gt;Node1 -->
<g id="edge1" class="edge"><title>Node2&#45;&gt;Node1</title>
<path fill="none" stroke="#9a32cd" stroke-dasharray="5,2" d="M62.5077,-70.4421C75.2751,-54.7918 93.927,-31.9282 103.971,-19.6165"/>
<polygon fill="#9a32cd" stroke="#9a32cd" points="59.7215,-68.3207 56.1122,-78.2818 65.1455,-72.7456 59.7215,-68.3207"/>
<text text-anchor="middle" x="96.5" y="-46.5" font-family="Helvetica,sans-Serif" font-size="10.00"> pkt</text>
</g>
<!-- Node3 -->
<g id="node3" class="node"><title>Node3</title>
<g id="a_node3"><a xlink:href="structodp__crypto__op__status.html" target="_top" xlink:title="Cryto API per packet operation completion status. ">
<polygon fill="white" stroke="black" points="116.5,-78.5 116.5,-97.5 229.5,-97.5 229.5,-78.5 116.5,-78.5"/>
<text text-anchor="middle" x="173" y="-85.5" font-family="Helvetica,sans-Serif" font-size="10.00">odp_crypto_op_status</text>
</a>
</g>
</g>
<!-- Node3&#45;&gt;Node1 -->
<g id="edge2" class="edge"><title>Node3&#45;&gt;Node1</title>
<path fill="none" stroke="#9a32cd" stroke-dasharray="5,2" d="M159.492,-70.4421C146.725,-54.7918 128.073,-31.9282 118.029,-19.6165"/>
<polygon fill="#9a32cd" stroke="#9a32cd" points="156.854,-72.7456 165.888,-78.2818 162.279,-68.3207 156.854,-72.7456"/>
<text text-anchor="middle" x="181" y="-52" font-family="Helvetica,sans-Serif" font-size="10.00"> cipher_status</text>
<text text-anchor="middle" x="181" y="-41" font-family="Helvetica,sans-Serif" font-size="10.00">auth_status</text>
</g>
</g>
</svg>
