<?xml version="1.0" encoding="UTF-8" standalone="no"?>
<!DOCTYPE svg PUBLIC "-//W3C//DTD SVG 1.1//EN"
 "http://www.w3.org/Graphics/SVG/1.1/DTD/svg11.dtd">
<!-- Generated by graphviz version 2.36.0 (20140111.2315)
 -->
<!-- Title: odp_comp_packet_result_t Pages: 1 -->
<svg width="243pt" height="96pt"
 viewBox="0.00 0.00 243.00 96.00" xmlns="http://www.w3.org/2000/svg" xmlns:xlink="http://www.w3.org/1999/xlink">
<g id="graph0" class="graph" transform="scale(1 1) rotate(0) translate(4 92)">
<title>odp_comp_packet_result_t</title>
<polygon fill="white" stroke="none" points="-4,4 -4,-92 239,-92 239,4 -4,4"/>
<!-- Node1 -->
<g id="node1" class="node"><title>Node1</title>
<polygon fill="#bfbfbf" stroke="black" points="45,-0.5 45,-19.5 179,-19.5 179,-0.5 45,-0.5"/>
<text text-anchor="middle" x="112" y="-7.5" font-family="Helvetica,sans-Serif" font-size="10.00">odp_comp_packet_result_t</text>
</g>
<!-- Node2 -->
<g id="node2" class="node"><title>Node2</title>
<g id="a_node2"><a xlink:href="struct__odp__abi__packet__t.html" target="_top" xlink:title="_odp_abi_packet_t">
<polygon fill="white" stroke="black" points="0,-68.5 0,-87.5 98,-87.5 98,-68.5 0,-68.5"/>
<text text-anchor="middle" x="49" y="-75.5" font-family="Helvetica,sans-Serif" font-size="10.00">_odp_abi_packet_t</text>
</a>
</g>
</g>
<!-- Node2&#45;&gt;Node1 -->
<g id="edge1" class="edge"><title>Node2&#45;&gt;Node1</title>
<path fill="none" stroke="#9a32cd" stroke-dasharray="5,2" d="M64.2275,-61.0474C76.5757,-48.1111 93.5231,-30.3567 103.561,-19.8411"/>
<polygon fill="#9a32cd" stroke="#9a32cd" points="61.6092,-58.7214 57.2361,-68.3717 66.6727,-63.5547 61.6092,-58.7214"/>
<text text-anchor="middle" x="102" y="-41.5" font-family="Helvetica,sans-Serif" font-size="10.00"> pkt_in</text>
</g>
<!-- Node3 -->
<g id="node3" class="node"><title>Node3</title>
<g id="a_node3"><a xlink:href="structodp__packet__data__range.html" target="_top" xlink:title="Packet API data range specifier. ">
<polygon fill="white" stroke="black" points="116,-68.5 116,-87.5 236,-87.5 236,-68.5 116,-68.5"/>
<text text-anchor="middle" x="176" y="-75.5" font-family="Helvetica,sans-Serif" font-size="10.00">odp_packet_data_range</text>
</a>
</g>
</g>
<!-- Node3&#45;&gt;Node1 -->
<g id="edge2" class="edge"><title>Node3&#45;&gt;Node1</title>
<path fill="none" stroke="#9a32cd" stroke-dasharray="5,2" d="M160.531,-61.0474C147.987,-48.1111 130.77,-30.3567 120.573,-19.8411"/>
<polygon fill="#9a32cd" stroke="#9a32cd" points="158.159,-63.6291 167.633,-68.3717 163.184,-58.7561 158.159,-63.6291"/>
<text text-anchor="middle" x="192" y="-41.5" font-family="Helvetica,sans-Serif" font-size="10.00"> output_data_range</text>
</g>
</g>
</svg>
