<?xml version="1.0" encoding="UTF-8" standalone="no"?>
<!DOCTYPE svg PUBLIC "-//W3C//DTD SVG 1.1//EN"
 "http://www.w3.org/Graphics/SVG/1.1/DTD/svg11.dtd">
<!-- Generated by graphviz version 2.36.0 (20140111.2315)
 -->
<!-- Title: odp_ipsec_sa_param_t Pages: 1 -->
<svg width="590pt" height="237pt"
 viewBox="0.00 0.00 590.00 237.00" xmlns="http://www.w3.org/2000/svg" xmlns:xlink="http://www.w3.org/1999/xlink">
<g id="graph0" class="graph" transform="scale(1 1) rotate(0) translate(4 233)">
<title>odp_ipsec_sa_param_t</title>
<polygon fill="white" stroke="none" points="-4,4 -4,-233 586,-233 586,4 -4,4"/>
<!-- Node1 -->
<g id="node1" class="node"><title>Node1</title>
<polygon fill="#bfbfbf" stroke="black" points="464.5,-115.5 464.5,-134.5 581.5,-134.5 581.5,-115.5 464.5,-115.5"/>
<text text-anchor="middle" x="523" y="-122.5" font-family="Helvetica,sans-Serif" font-size="10.00">odp_ipsec_sa_param_t</text>
</g>
<!-- Node2 -->
<g id="node2" class="node"><title>Node2</title>
<g id="a_node2"><a xlink:href="struct__odp__abi__cos__t.html" target="_top" xlink:title="_odp_abi_cos_t">
<polygon fill="white" stroke="black" points="264.5,-209.5 264.5,-228.5 349.5,-228.5 349.5,-209.5 264.5,-209.5"/>
<text text-anchor="middle" x="307" y="-216.5" font-family="Helvetica,sans-Serif" font-size="10.00">_odp_abi_cos_t</text>
</a>
</g>
</g>
<!-- Node2&#45;&gt;Node1 -->
<g id="edge1" class="edge"><title>Node2&#45;&gt;Node1</title>
<path fill="none" stroke="#9a32cd" stroke-dasharray="5,2" d="M351.353,-206.628C358.909,-204.441 366.688,-202.17 374,-200 406.078,-190.482 415.911,-192.637 446,-178 470.736,-165.967 496.336,-146.362 510.609,-134.669"/>
<polygon fill="#9a32cd" stroke="#9a32cd" points="350.245,-203.305 341.607,-209.44 352.185,-210.031 350.245,-203.305"/>
<text text-anchor="middle" x="419" y="-198" font-family="Helvetica,sans-Serif" font-size="10.00"> dest_cos</text>
</g>
<!-- Node3 -->
<g id="node3" class="node"><title>Node3</title>
<g id="a_node3"><a xlink:href="structodp__ipsec__lifetime__t.html" target="_top" xlink:title="IPSEC SA lifetime limits. ">
<polygon fill="white" stroke="black" points="254,-171.5 254,-190.5 360,-190.5 360,-171.5 254,-171.5"/>
<text text-anchor="middle" x="307" y="-178.5" font-family="Helvetica,sans-Serif" font-size="10.00">odp_ipsec_lifetime_t</text>
</a>
</g>
</g>
<!-- Node3&#45;&gt;Node1 -->
<g id="edge2" class="edge"><title>Node3&#45;&gt;Node1</title>
<path fill="none" stroke="#9a32cd" stroke-dasharray="5,2" d="M365.848,-169.311C390.662,-163.96 419.892,-157.208 446,-150 462.469,-145.453 480.656,-139.504 495.11,-134.55"/>
<polygon fill="#9a32cd" stroke="#9a32cd" points="364.913,-165.931 355.863,-171.44 366.373,-172.777 364.913,-165.931"/>
<text text-anchor="middle" x="419" y="-166" font-family="Helvetica,sans-Serif" font-size="10.00"> lifetime</text>
</g>
<!-- Node4 -->
<g id="node4" class="node"><title>Node4</title>
<g id="a_node4"><a xlink:href="struct__odp__abi__queue__t.html" target="_top" xlink:title="_odp_abi_queue_t">
<polygon fill="white" stroke="black" points="259.5,-133.5 259.5,-152.5 354.5,-152.5 354.5,-133.5 259.5,-133.5"/>
<text text-anchor="middle" x="307" y="-140.5" font-family="Helvetica,sans-Serif" font-size="10.00">_odp_abi_queue_t</text>
</a>
</g>
</g>
<!-- Node4&#45;&gt;Node1 -->
<g id="edge3" class="edge"><title>Node4&#45;&gt;Node1</title>
<path fill="none" stroke="#9a32cd" stroke-dasharray="5,2" d="M364.831,-138.22C395.576,-135.634 433.464,-132.447 464.336,-129.85"/>
<polygon fill="#9a32cd" stroke="#9a32cd" points="364.37,-134.746 354.699,-139.072 364.957,-141.721 364.37,-134.746"/>
<text text-anchor="middle" x="419" y="-138" font-family="Helvetica,sans-Serif" font-size="10.00"> dest_queue</text>
</g>
<!-- Node5 -->
<g id="node5" class="node"><title>Node5</title>
<g id="a_node5"><a xlink:href="structodp__ipsec__crypto__param__t.html" target="_top" xlink:title="IPSEC crypto parameters. ">
<polygon fill="white" stroke="black" points="240,-95.5 240,-114.5 374,-114.5 374,-95.5 240,-95.5"/>
<text text-anchor="middle" x="307" y="-102.5" font-family="Helvetica,sans-Serif" font-size="10.00">odp_ipsec_crypto_param_t</text>
</a>
</g>
</g>
<!-- Node5&#45;&gt;Node1 -->
<g id="edge4" class="edge"><title>Node5&#45;&gt;Node1</title>
<path fill="none" stroke="#9a32cd" stroke-dasharray="5,2" d="M384.087,-110.539C404.23,-112.15 425.949,-114.014 446,-116 451.95,-116.589 458.156,-117.249 464.345,-117.937"/>
<polygon fill="#9a32cd" stroke="#9a32cd" points="384.273,-107.043 374.028,-109.746 383.722,-114.022 384.273,-107.043"/>
<text text-anchor="middle" x="419" y="-119" font-family="Helvetica,sans-Serif" font-size="10.00"> crypto</text>
</g>
<!-- Node6 -->
<g id="node6" class="node"><title>Node6</title>
<g id="a_node6"><a xlink:href="structodp__crypto__key.html" target="_top" xlink:title="Crypto API key structure. ">
<polygon fill="white" stroke="black" points="20,-95.5 20,-114.5 106,-114.5 106,-95.5 20,-95.5"/>
<text text-anchor="middle" x="63" y="-102.5" font-family="Helvetica,sans-Serif" font-size="10.00">odp_crypto_key</text>
</a>
</g>
</g>
<!-- Node6&#45;&gt;Node5 -->
<g id="edge5" class="edge"><title>Node6&#45;&gt;Node5</title>
<path fill="none" stroke="#9a32cd" stroke-dasharray="5,2" d="M116.478,-105C152.616,-105 200.917,-105 239.712,-105"/>
<polygon fill="#9a32cd" stroke="#9a32cd" points="116.153,-101.5 106.153,-105 116.153,-108.5 116.153,-101.5"/>
<text text-anchor="middle" x="183" y="-141" font-family="Helvetica,sans-Serif" font-size="10.00"> cipher_key_extra</text>
<text text-anchor="middle" x="183" y="-130" font-family="Helvetica,sans-Serif" font-size="10.00">auth_key</text>
<text text-anchor="middle" x="183" y="-119" font-family="Helvetica,sans-Serif" font-size="10.00">cipher_key</text>
<text text-anchor="middle" x="183" y="-108" font-family="Helvetica,sans-Serif" font-size="10.00">auth_key_extra</text>
</g>
<!-- Node7 -->
<g id="node7" class="node"><title>Node7</title>
<g id="a_node7"><a xlink:href="structodp__ipsec__sa__opt__t.html" target="_top" xlink:title="IPSEC SA option flags. ">
<polygon fill="white" stroke="black" points="255,-57.5 255,-76.5 359,-76.5 359,-57.5 255,-57.5"/>
<text text-anchor="middle" x="307" y="-64.5" font-family="Helvetica,sans-Serif" font-size="10.00">odp_ipsec_sa_opt_t</text>
</a>
</g>
</g>
<!-- Node7&#45;&gt;Node1 -->
<g id="edge6" class="edge"><title>Node7&#45;&gt;Node1</title>
<path fill="none" stroke="#9a32cd" stroke-dasharray="5,2" d="M369.356,-77.7417C393.46,-82.5198 421.234,-88.722 446,-96 464.427,-101.415 484.725,-109.261 499.705,-115.427"/>
<polygon fill="#9a32cd" stroke="#9a32cd" points="369.753,-74.2537 359.269,-75.7822 368.418,-81.1252 369.753,-74.2537"/>
<text text-anchor="middle" x="419" y="-99" font-family="Helvetica,sans-Serif" font-size="10.00"> opt</text>
</g>
<!-- Node8 -->
<g id="node8" class="node"><title>Node8</title>
<g id="a_node8"><a xlink:href="structodp__ipsec__tunnel__param__t.html" target="_top" xlink:title="IPSEC tunnel parameters. ">
<polygon fill="white" stroke="black" points="240.5,-19.5 240.5,-38.5 373.5,-38.5 373.5,-19.5 240.5,-19.5"/>
<text text-anchor="middle" x="307" y="-26.5" font-family="Helvetica,sans-Serif" font-size="10.00">odp_ipsec_tunnel_param_t</text>
</a>
</g>
</g>
<!-- Node8&#45;&gt;Node1 -->
<g id="edge7" class="edge"><title>Node8&#45;&gt;Node1</title>
<path fill="none" stroke="#9a32cd" stroke-dasharray="5,2" d="M370.674,-40.8888C394.962,-46.8586 422.519,-55.3578 446,-67 472.172,-79.9762 498.279,-102.524 512.041,-115.349"/>
<polygon fill="#9a32cd" stroke="#9a32cd" points="371.377,-37.4586 360.84,-38.5636 369.766,-44.2708 371.377,-37.4586"/>
<text text-anchor="middle" x="419" y="-70" font-family="Helvetica,sans-Serif" font-size="10.00"> tunnel</text>
</g>
<!-- Node9 -->
<g id="node9" class="node"><title>Node9</title>
<g id="a_node9"><a xlink:href="structodp__ipsec__ipv4__param__t.html" target="_top" xlink:title="IPv4 header parameters. ">
<polygon fill="white" stroke="black" points="0.5,-38.5 0.5,-57.5 125.5,-57.5 125.5,-38.5 0.5,-38.5"/>
<text text-anchor="middle" x="63" y="-45.5" font-family="Helvetica,sans-Serif" font-size="10.00">odp_ipsec_ipv4_param_t</text>
</a>
</g>
</g>
<!-- Node9&#45;&gt;Node8 -->
<g id="edge8" class="edge"><title>Node9&#45;&gt;Node8</title>
<path fill="none" stroke="#9a32cd" stroke-dasharray="5,2" d="M135.757,-42.3662C168.845,-39.7684 207.855,-36.7056 240.18,-34.1677"/>
<polygon fill="#9a32cd" stroke="#9a32cd" points="135.388,-38.8843 125.693,-43.1563 135.936,-45.8628 135.388,-38.8843"/>
<text text-anchor="middle" x="183" y="-44" font-family="Helvetica,sans-Serif" font-size="10.00"> ipv4</text>
</g>
<!-- Node10 -->
<g id="node10" class="node"><title>Node10</title>
<g id="a_node10"><a xlink:href="structodp__ipsec__ipv6__param__t.html" target="_top" xlink:title="IPv6 header parameters. ">
<polygon fill="white" stroke="black" points="0.5,-0.5 0.5,-19.5 125.5,-19.5 125.5,-0.5 0.5,-0.5"/>
<text text-anchor="middle" x="63" y="-7.5" font-family="Helvetica,sans-Serif" font-size="10.00">odp_ipsec_ipv6_param_t</text>
</a>
</g>
</g>
<!-- Node10&#45;&gt;Node8 -->
<g id="edge9" class="edge"><title>Node10&#45;&gt;Node8</title>
<path fill="none" stroke="#9a32cd" stroke-dasharray="5,2" d="M135.734,-13.8783C162.791,-15.515 193.831,-17.6006 222,-20 227.992,-20.5104 234.219,-21.0881 240.452,-21.6985"/>
<polygon fill="#9a32cd" stroke="#9a32cd" points="135.764,-10.374 125.574,-13.2733 135.348,-17.3616 135.764,-10.374"/>
<text text-anchor="middle" x="183" y="-23" font-family="Helvetica,sans-Serif" font-size="10.00"> ipv6</text>
</g>
</g>
</svg>
