<?xml version="1.0" encoding="UTF-8" standalone="no"?>
<!DOCTYPE svg PUBLIC "-//W3C//DTD SVG 1.1//EN"
 "http://www.w3.org/Graphics/SVG/1.1/DTD/svg11.dtd">
<!-- Generated by graphviz version 2.36.0 (20140111.2315)
 -->
<!-- Title: odp_ipsec_status_t Pages: 1 -->
<svg width="229pt" height="96pt"
 viewBox="0.00 0.00 229.00 96.00" xmlns="http://www.w3.org/2000/svg" xmlns:xlink="http://www.w3.org/1999/xlink">
<g id="graph0" class="graph" transform="scale(1 1) rotate(0) translate(4 92)">
<title>odp_ipsec_status_t</title>
<polygon fill="white" stroke="none" points="-4,4 -4,-92 225,-92 225,4 -4,4"/>
<!-- Node1 -->
<g id="node1" class="node"><title>Node1</title>
<polygon fill="#bfbfbf" stroke="black" points="56.5,-0.5 56.5,-19.5 157.5,-19.5 157.5,-0.5 56.5,-0.5"/>
<text text-anchor="middle" x="107" y="-7.5" font-family="Helvetica,sans-Serif" font-size="10.00">odp_ipsec_status_t</text>
</g>
<!-- Node2 -->
<g id="node2" class="node"><title>Node2</title>
<g id="a_node2"><a xlink:href="structodp__ipsec__warn__t.html" target="_top" xlink:title="IPSEC warnings. ">
<polygon fill="white" stroke="black" points="-0.5,-68.5 -0.5,-87.5 94.5,-87.5 94.5,-68.5 -0.5,-68.5"/>
<text text-anchor="middle" x="47" y="-75.5" font-family="Helvetica,sans-Serif" font-size="10.00">odp_ipsec_warn_t</text>
</a>
</g>
</g>
<!-- Node2&#45;&gt;Node1 -->
<g id="edge1" class="edge"><title>Node2&#45;&gt;Node1</title>
<path fill="none" stroke="#9a32cd" stroke-dasharray="5,2" d="M61.8364,-60.68C73.5666,-47.7768 89.4932,-30.2575 98.9626,-19.8411"/>
<polygon fill="#9a32cd" stroke="#9a32cd" points="58.9809,-58.6179 54.844,-68.3717 64.1605,-63.3266 58.9809,-58.6179"/>
<text text-anchor="middle" x="95.5" y="-41.5" font-family="Helvetica,sans-Serif" font-size="10.00"> warn</text>
</g>
<!-- Node3 -->
<g id="node3" class="node"><title>Node3</title>
<g id="a_node3"><a xlink:href="struct__odp__abi__ipsec__sa__t.html" target="_top" xlink:title="_odp_abi_ipsec_sa_t">
<polygon fill="white" stroke="black" points="113,-68.5 113,-87.5 221,-87.5 221,-68.5 113,-68.5"/>
<text text-anchor="middle" x="167" y="-75.5" font-family="Helvetica,sans-Serif" font-size="10.00">_odp_abi_ipsec_sa_t</text>
</a>
</g>
</g>
<!-- Node3&#45;&gt;Node1 -->
<g id="edge2" class="edge"><title>Node3&#45;&gt;Node1</title>
<path fill="none" stroke="#9a32cd" stroke-dasharray="5,2" d="M152.164,-60.68C140.433,-47.7768 124.507,-30.2575 115.037,-19.8411"/>
<polygon fill="#9a32cd" stroke="#9a32cd" points="149.839,-63.3266 159.156,-68.3717 155.019,-58.6179 149.839,-63.3266"/>
<text text-anchor="middle" x="150" y="-41.5" font-family="Helvetica,sans-Serif" font-size="10.00"> sa</text>
</g>
</g>
</svg>
