<?xml version="1.0" encoding="UTF-8" standalone="no"?>
<!DOCTYPE svg PUBLIC "-//W3C//DTD SVG 1.1//EN"
 "http://www.w3.org/Graphics/SVG/1.1/DTD/svg11.dtd">
<!-- Generated by graphviz version 2.36.0 (20140111.2315)
 -->
<!-- Title: odp_comp_session_param_t Pages: 1 -->
<svg width="245pt" height="164pt"
 viewBox="0.00 0.00 245.00 164.00" xmlns="http://www.w3.org/2000/svg" xmlns:xlink="http://www.w3.org/1999/xlink">
<g id="graph0" class="graph" transform="scale(1 1) rotate(0) translate(4 160)">
<title>odp_comp_session_param_t</title>
<polygon fill="white" stroke="none" points="-4,4 -4,-160 241,-160 241,4 -4,4"/>
<!-- Node1 -->
<g id="node1" class="node"><title>Node1</title>
<polygon fill="#bfbfbf" stroke="black" points="83.5,-0.5 83.5,-19.5 224.5,-19.5 224.5,-0.5 83.5,-0.5"/>
<text text-anchor="middle" x="154" y="-7.5" font-family="Helvetica,sans-Serif" font-size="10.00">odp_comp_session_param_t</text>
</g>
<!-- Node2 -->
<g id="node2" class="node"><title>Node2</title>
<g id="a_node2"><a xlink:href="unionodp__comp__alg__param__t.html" target="_top" xlink:title="Compression algorithm specific parameters. ">
<polygon fill="white" stroke="black" points="4,-68.5 4,-87.5 124,-87.5 124,-68.5 4,-68.5"/>
<text text-anchor="middle" x="64" y="-75.5" font-family="Helvetica,sans-Serif" font-size="10.00">odp_comp_alg_param_t</text>
</a>
</g>
</g>
<!-- Node2&#45;&gt;Node1 -->
<g id="edge1" class="edge"><title>Node2&#45;&gt;Node1</title>
<path fill="none" stroke="#9a32cd" stroke-dasharray="5,2" d="M83.6882,-62.047C93.3758,-54.7371 105.254,-45.8456 116,-38 124.497,-31.7964 134.164,-24.9307 141.621,-19.6751"/>
<polygon fill="#9a32cd" stroke="#9a32cd" points="81.3655,-59.4154 75.5024,-68.24 85.5889,-64.9977 81.3655,-59.4154"/>
<text text-anchor="middle" x="140.5" y="-41.5" font-family="Helvetica,sans-Serif" font-size="10.00"> alg_param</text>
</g>
<!-- Node3 -->
<g id="node3" class="node"><title>Node3</title>
<g id="a_node3"><a xlink:href="structodp__comp__deflate__param.html" target="_top" xlink:title="Compression DEFLATEe algorithm parameters. ">
<polygon fill="white" stroke="black" points="0,-136.5 0,-155.5 128,-155.5 128,-136.5 0,-136.5"/>
<text text-anchor="middle" x="64" y="-143.5" font-family="Helvetica,sans-Serif" font-size="10.00">odp_comp_deflate_param</text>
</a>
</g>
</g>
<!-- Node3&#45;&gt;Node2 -->
<g id="edge2" class="edge"><title>Node3&#45;&gt;Node2</title>
<path fill="none" stroke="#9a32cd" stroke-dasharray="5,2" d="M64,-126.041C64,-113.472 64,-97.5631 64,-87.8411"/>
<polygon fill="#9a32cd" stroke="#9a32cd" points="60.5001,-126.372 64,-136.372 67.5001,-126.372 60.5001,-126.372"/>
<text text-anchor="middle" x="80.5" y="-109.5" font-family="Helvetica,sans-Serif" font-size="10.00"> deflate</text>
</g>
<!-- Node4 -->
<g id="node4" class="node"><title>Node4</title>
<g id="a_node4"><a xlink:href="struct__odp__abi__queue__t.html" target="_top" xlink:title="_odp_abi_queue_t">
<polygon fill="white" stroke="black" points="142.5,-68.5 142.5,-87.5 237.5,-87.5 237.5,-68.5 142.5,-68.5"/>
<text text-anchor="middle" x="190" y="-75.5" font-family="Helvetica,sans-Serif" font-size="10.00">_odp_abi_queue_t</text>
</a>
</g>
</g>
<!-- Node4&#45;&gt;Node1 -->
<g id="edge3" class="edge"><title>Node4&#45;&gt;Node1</title>
<path fill="none" stroke="#9a32cd" stroke-dasharray="5,2" d="M180.489,-59.563C173.517,-46.7815 164.342,-29.9599 158.822,-19.8411"/>
<polygon fill="#9a32cd" stroke="#9a32cd" points="177.432,-61.2687 185.294,-68.3717 183.578,-57.9167 177.432,-61.2687"/>
<text text-anchor="middle" x="206.5" y="-41.5" font-family="Helvetica,sans-Serif" font-size="10.00"> compl_queue</text>
</g>
</g>
</svg>
