<?xml version="1.0" encoding="UTF-8" standalone="no"?>
<!DOCTYPE svg PUBLIC "-//W3C//DTD SVG 1.1//EN"
 "http://www.w3.org/Graphics/SVG/1.1/DTD/svg11.dtd">
<!-- Generated by graphviz version 2.36.0 (20140111.2315)
 -->
<!-- Title: odp_queue_info_t Pages: 1 -->
<svg width="124pt" height="164pt"
 viewBox="0.00 0.00 124.00 164.00" xmlns="http://www.w3.org/2000/svg" xmlns:xlink="http://www.w3.org/1999/xlink">
<g id="graph0" class="graph" transform="scale(1 1) rotate(0) translate(4 160)">
<title>odp_queue_info_t</title>
<polygon fill="white" stroke="none" points="-4,4 -4,-160 120,-160 120,4 -4,4"/>
<!-- Node1 -->
<g id="node1" class="node"><title>Node1</title>
<polygon fill="#bfbfbf" stroke="black" points="11.5,-0.5 11.5,-19.5 104.5,-19.5 104.5,-0.5 11.5,-0.5"/>
<text text-anchor="middle" x="58" y="-7.5" font-family="Helvetica,sans-Serif" font-size="10.00">odp_queue_info_t</text>
</g>
<!-- Node2 -->
<g id="node2" class="node"><title>Node2</title>
<g id="a_node2"><a xlink:href="structodp__queue__param__t.html" target="_top" xlink:title="ODP Queue parameters. ">
<polygon fill="white" stroke="black" points="6,-68.5 6,-87.5 110,-87.5 110,-68.5 6,-68.5"/>
<text text-anchor="middle" x="58" y="-75.5" font-family="Helvetica,sans-Serif" font-size="10.00">odp_queue_param_t</text>
</a>
</g>
</g>
<!-- Node2&#45;&gt;Node1 -->
<g id="edge1" class="edge"><title>Node2&#45;&gt;Node1</title>
<path fill="none" stroke="#9a32cd" stroke-dasharray="5,2" d="M58,-58.0413C58,-45.4724 58,-29.5631 58,-19.8411"/>
<polygon fill="#9a32cd" stroke="#9a32cd" points="54.5001,-58.3716 58,-68.3717 61.5001,-58.3717 54.5001,-58.3716"/>
<text text-anchor="middle" x="73.5" y="-41.5" font-family="Helvetica,sans-Serif" font-size="10.00"> param</text>
</g>
<!-- Node3 -->
<g id="node3" class="node"><title>Node3</title>
<g id="a_node3"><a xlink:href="structodp__schedule__param__t.html" target="_top" xlink:title="Scheduler parameters. ">
<polygon fill="white" stroke="black" points="-0.5,-136.5 -0.5,-155.5 116.5,-155.5 116.5,-136.5 -0.5,-136.5"/>
<text text-anchor="middle" x="58" y="-143.5" font-family="Helvetica,sans-Serif" font-size="10.00">odp_schedule_param_t</text>
</a>
</g>
</g>
<!-- Node3&#45;&gt;Node2 -->
<g id="edge2" class="edge"><title>Node3&#45;&gt;Node2</title>
<path fill="none" stroke="#9a32cd" stroke-dasharray="5,2" d="M58,-126.041C58,-113.472 58,-97.5631 58,-87.8411"/>
<polygon fill="#9a32cd" stroke="#9a32cd" points="54.5001,-126.372 58,-136.372 61.5001,-126.372 54.5001,-126.372"/>
<text text-anchor="middle" x="73" y="-109.5" font-family="Helvetica,sans-Serif" font-size="10.00"> sched</text>
</g>
</g>
</svg>
