<?xml version="1.0" encoding="UTF-8" standalone="no"?>
<!DOCTYPE svg PUBLIC "-//W3C//DTD SVG 1.1//EN"
 "http://www.w3.org/Graphics/SVG/1.1/DTD/svg11.dtd">
<!-- Generated by graphviz version 2.36.0 (20140111.2315)
 -->
<!-- Title: odp_crypto_packet_op_param_t Pages: 1 -->
<svg width="126pt" height="118pt"
 viewBox="0.00 0.00 126.00 118.00" xmlns="http://www.w3.org/2000/svg" xmlns:xlink="http://www.w3.org/1999/xlink">
<g id="graph0" class="graph" transform="scale(1 1) rotate(0) translate(4 114)">
<title>odp_crypto_packet_op_param_t</title>
<polygon fill="white" stroke="none" points="-4,4 -4,-114 122,-114 122,4 -4,4"/>
<!-- Node1 -->
<g id="node1" class="node"><title>Node1</title>
<polygon fill="#bfbfbf" stroke="black" points="1.5,-1 1.5,-31 116.5,-31 116.5,-1 1.5,-1"/>
<text text-anchor="start" x="9.5" y="-19" font-family="Helvetica,sans-Serif" font-size="10.00">odp_crypto_packet_op</text>
<text text-anchor="middle" x="59" y="-8" font-family="Helvetica,sans-Serif" font-size="10.00">_param_t</text>
</g>
<!-- Node2 -->
<g id="node2" class="node"><title>Node2</title>
<g id="a_node2"><a xlink:href="structodp__packet__data__range.html" target="_top" xlink:title="Packet API data range specifier. ">
<polygon fill="white" stroke="black" points="-1,-90.5 -1,-109.5 119,-109.5 119,-90.5 -1,-90.5"/>
<text text-anchor="middle" x="59" y="-97.5" font-family="Helvetica,sans-Serif" font-size="10.00">odp_packet_data_range</text>
</a>
</g>
</g>
<!-- Node2&#45;&gt;Node1 -->
<g id="edge1" class="edge"><title>Node2&#45;&gt;Node1</title>
<path fill="none" stroke="#9a32cd" stroke-dasharray="5,2" d="M59,-80.1139C59,-65.2014 59,-44.7195 59,-31.1839"/>
<polygon fill="#9a32cd" stroke="#9a32cd" points="55.5001,-80.2245 59,-90.2246 62.5001,-80.2246 55.5001,-80.2245"/>
<text text-anchor="middle" x="88.5" y="-64" font-family="Helvetica,sans-Serif" font-size="10.00"> cipher_range</text>
<text text-anchor="middle" x="88.5" y="-53" font-family="Helvetica,sans-Serif" font-size="10.00">auth_range</text>
</g>
</g>
</svg>
