<?xml version="1.0" encoding="UTF-8" standalone="no"?>
<!DOCTYPE svg PUBLIC "-//W3C//DTD SVG 1.1//EN"
 "http://www.w3.org/Graphics/SVG/1.1/DTD/svg11.dtd">
<!-- Generated by graphviz version 2.36.0 (20140111.2315)
 -->
<!-- Title: odp_cls_capability_t Pages: 1 -->
<svg width="389pt" height="106pt"
 viewBox="0.00 0.00 389.00 106.00" xmlns="http://www.w3.org/2000/svg" xmlns:xlink="http://www.w3.org/1999/xlink">
<g id="graph0" class="graph" transform="scale(1 1) rotate(0) translate(4 102)">
<title>odp_cls_capability_t</title>
<polygon fill="white" stroke="none" points="-4,4 -4,-102 385,-102 385,4 -4,4"/>
<!-- Node1 -->
<g id="node1" class="node"><title>Node1</title>
<polygon fill="#bfbfbf" stroke="black" points="140.5,-0.5 140.5,-19.5 245.5,-19.5 245.5,-0.5 140.5,-0.5"/>
<text text-anchor="middle" x="193" y="-7.5" font-family="Helvetica,sans-Serif" font-size="10.00">odp_cls_capability_t</text>
</g>
<!-- Node2 -->
<g id="node2" class="node"><title>Node2</title>
<g id="a_node2"><a xlink:href="unionodp__threshold__types__t.html" target="_top" xlink:title="Supported threshold types. ">
<polygon fill="white" stroke="black" points="-0.5,-78.5 -0.5,-97.5 114.5,-97.5 114.5,-78.5 -0.5,-78.5"/>
<text text-anchor="middle" x="57" y="-85.5" font-family="Helvetica,sans-Serif" font-size="10.00">odp_threshold_types_t</text>
</a>
</g>
</g>
<!-- Node2&#45;&gt;Node1 -->
<g id="edge1" class="edge"><title>Node2&#45;&gt;Node1</title>
<path fill="none" stroke="#9a32cd" stroke-dasharray="5,2" d="M76.0237,-71.9409C89.6938,-61.5628 108.841,-47.9092 127,-38 140.258,-30.7652 155.869,-24.2941 168.579,-19.5018"/>
<polygon fill="#9a32cd" stroke="#9a32cd" points="73.6733,-69.3339 67.8969,-78.2156 77.9512,-74.8746 73.6733,-69.3339"/>
<text text-anchor="middle" x="158" y="-52" font-family="Helvetica,sans-Serif" font-size="10.00"> threshold_red</text>
<text text-anchor="middle" x="158" y="-41" font-family="Helvetica,sans-Serif" font-size="10.00">threshold_bp</text>
</g>
<!-- Node3 -->
<g id="node3" class="node"><title>Node3</title>
<g id="a_node3"><a xlink:href="unionodp__pktin__hash__proto__t.html" target="_top" xlink:title="Packet input hash protocols. ">
<polygon fill="white" stroke="black" points="133,-78.5 133,-97.5 253,-97.5 253,-78.5 133,-78.5"/>
<text text-anchor="middle" x="193" y="-85.5" font-family="Helvetica,sans-Serif" font-size="10.00">odp_pktin_hash_proto_t</text>
</a>
</g>
</g>
<!-- Node3&#45;&gt;Node1 -->
<g id="edge2" class="edge"><title>Node3&#45;&gt;Node1</title>
<path fill="none" stroke="#9a32cd" stroke-dasharray="5,2" d="M193,-68.2239C193,-52.6974 193,-31.3582 193,-19.6165"/>
<polygon fill="#9a32cd" stroke="#9a32cd" points="189.5,-68.2818 193,-78.2818 196.5,-68.2819 189.5,-68.2818"/>
<text text-anchor="middle" x="228" y="-46.5" font-family="Helvetica,sans-Serif" font-size="10.00"> hash_protocols</text>
</g>
<!-- Node4 -->
<g id="node4" class="node"><title>Node4</title>
<g id="a_node4"><a xlink:href="unionodp__cls__pmr__terms__t.html" target="_top" xlink:title="Supported PMR term values. ">
<polygon fill="white" stroke="black" points="271,-78.5 271,-97.5 381,-97.5 381,-78.5 271,-78.5"/>
<text text-anchor="middle" x="326" y="-85.5" font-family="Helvetica,sans-Serif" font-size="10.00">odp_cls_pmr_terms_t</text>
</a>
</g>
</g>
<!-- Node4&#45;&gt;Node1 -->
<g id="edge3" class="edge"><title>Node4&#45;&gt;Node1</title>
<path fill="none" stroke="#9a32cd" stroke-dasharray="5,2" d="M310.205,-71.2923C298.926,-60.7567 282.979,-47.1803 267,-38 253.482,-30.2337 237.329,-24.0301 223.568,-19.5375"/>
<polygon fill="#9a32cd" stroke="#9a32cd" points="307.888,-73.92 317.526,-78.3201 312.735,-68.8701 307.888,-73.92"/>
<text text-anchor="middle" x="336" y="-46.5" font-family="Helvetica,sans-Serif" font-size="10.00"> supported_terms</text>
</g>
</g>
</svg>
