<?xml version="1.0" encoding="UTF-8" standalone="no"?>
<!DOCTYPE svg PUBLIC "-//W3C//DTD SVG 1.1//EN"
 "http://www.w3.org/Graphics/SVG/1.1/DTD/svg11.dtd">
<!-- Generated by graphviz version 2.36.0 (20140111.2315)
 -->
<!-- Title: odp_tm_egress_t Pages: 1 -->
<svg width="214pt" height="96pt"
 viewBox="0.00 0.00 214.00 96.00" xmlns="http://www.w3.org/2000/svg" xmlns:xlink="http://www.w3.org/1999/xlink">
<g id="graph0" class="graph" transform="scale(1 1) rotate(0) translate(4 92)">
<title>odp_tm_egress_t</title>
<polygon fill="white" stroke="none" points="-4,4 -4,-92 210,-92 210,4 -4,4"/>
<!-- Node1 -->
<g id="node1" class="node"><title>Node1</title>
<polygon fill="#bfbfbf" stroke="black" points="55,-0.5 55,-19.5 147,-19.5 147,-0.5 55,-0.5"/>
<text text-anchor="middle" x="101" y="-7.5" font-family="Helvetica,sans-Serif" font-size="10.00">odp_tm_egress_t</text>
</g>
<!-- Node2 -->
<g id="node2" class="node"><title>Node2</title>
<g id="a_node2"><a xlink:href="struct__odp__abi__pktio__t.html" target="_top" xlink:title="_odp_abi_pktio_t">
<polygon fill="white" stroke="black" points="0,-68.5 0,-87.5 90,-87.5 90,-68.5 0,-68.5"/>
<text text-anchor="middle" x="45" y="-75.5" font-family="Helvetica,sans-Serif" font-size="10.00">_odp_abi_pktio_t</text>
</a>
</g>
</g>
<!-- Node2&#45;&gt;Node1 -->
<g id="edge1" class="edge"><title>Node2&#45;&gt;Node1</title>
<path fill="none" stroke="#9a32cd" stroke-dasharray="5,2" d="M58.8473,-60.68C69.7955,-47.7768 84.6603,-30.2575 93.4984,-19.8411"/>
<polygon fill="#9a32cd" stroke="#9a32cd" points="56.122,-58.4821 52.321,-68.3717 61.4596,-63.011 56.122,-58.4821"/>
<text text-anchor="middle" x="91.5" y="-41.5" font-family="Helvetica,sans-Serif" font-size="10.00"> pktio</text>
</g>
<!-- Node3 -->
<g id="node3" class="node"><title>Node3</title>
<g id="a_node3"><a xlink:href="struct__odp__abi__packet__t.html" target="_top" xlink:title="_odp_abi_packet_t">
<polygon fill="white" stroke="black" points="108,-68.5 108,-87.5 206,-87.5 206,-68.5 108,-68.5"/>
<text text-anchor="middle" x="157" y="-75.5" font-family="Helvetica,sans-Serif" font-size="10.00">_odp_abi_packet_t</text>
</a>
</g>
</g>
<!-- Node3&#45;&gt;Node1 -->
<g id="edge2" class="edge"><title>Node3&#45;&gt;Node1</title>
<path fill="none" stroke="#9a32cd" stroke-dasharray="5,2" d="M143.153,-60.68C132.205,-47.7768 117.34,-30.2575 108.502,-19.8411"/>
<polygon fill="#9a32cd" stroke="#9a32cd" points="140.54,-63.011 149.679,-68.3717 145.878,-58.4821 140.54,-63.011"/>
<text text-anchor="middle" x="160" y="-41.5" font-family="Helvetica,sans-Serif" font-size="10.00"> egress_fcn</text>
</g>
</g>
</svg>
