<?xml version="1.0" encoding="UTF-8" standalone="no"?>
<!DOCTYPE svg PUBLIC "-//W3C//DTD SVG 1.1//EN"
 "http://www.w3.org/Graphics/SVG/1.1/DTD/svg11.dtd">
<!-- Generated by graphviz version 2.36.0 (20140111.2315)
 -->
<!-- Title: odp_ipsec_out_param_t Pages: 1 -->
<svg width="321pt" height="164pt"
 viewBox="0.00 0.00 321.00 164.00" xmlns="http://www.w3.org/2000/svg" xmlns:xlink="http://www.w3.org/1999/xlink">
<g id="graph0" class="graph" transform="scale(1 1) rotate(0) translate(4 160)">
<title>odp_ipsec_out_param_t</title>
<polygon fill="white" stroke="none" points="-4,4 -4,-160 317,-160 317,4 -4,4"/>
<!-- Node1 -->
<g id="node1" class="node"><title>Node1</title>
<polygon fill="#bfbfbf" stroke="black" points="34,-0.5 34,-19.5 154,-19.5 154,-0.5 34,-0.5"/>
<text text-anchor="middle" x="94" y="-7.5" font-family="Helvetica,sans-Serif" font-size="10.00">odp_ipsec_out_param_t</text>
</g>
<!-- Node2 -->
<g id="node2" class="node"><title>Node2</title>
<g id="a_node2"><a xlink:href="struct__odp__abi__ipsec__sa__t.html" target="_top" xlink:title="_odp_abi_ipsec_sa_t">
<polygon fill="white" stroke="black" points="0,-68.5 0,-87.5 108,-87.5 108,-68.5 0,-68.5"/>
<text text-anchor="middle" x="54" y="-75.5" font-family="Helvetica,sans-Serif" font-size="10.00">_odp_abi_ipsec_sa_t</text>
</a>
</g>
</g>
<!-- Node2&#45;&gt;Node1 -->
<g id="edge1" class="edge"><title>Node2&#45;&gt;Node1</title>
<path fill="none" stroke="#9a32cd" stroke-dasharray="5,2" d="M64.5679,-59.563C72.3143,-46.7815 82.5091,-29.9599 88.6417,-19.8411"/>
<polygon fill="#9a32cd" stroke="#9a32cd" points="61.4192,-58.0056 59.2293,-68.3717 67.4056,-61.6337 61.4192,-58.0056"/>
<text text-anchor="middle" x="85" y="-41.5" font-family="Helvetica,sans-Serif" font-size="10.00"> sa</text>
</g>
<!-- Node3 -->
<g id="node3" class="node"><title>Node3</title>
<g id="a_node3"><a xlink:href="structodp__ipsec__out__opt__t.html" target="_top" xlink:title="IPSEC outbound operation options. ">
<polygon fill="white" stroke="black" points="126.5,-68.5 126.5,-87.5 233.5,-87.5 233.5,-68.5 126.5,-68.5"/>
<text text-anchor="middle" x="180" y="-75.5" font-family="Helvetica,sans-Serif" font-size="10.00">odp_ipsec_out_opt_t</text>
</a>
</g>
</g>
<!-- Node3&#45;&gt;Node1 -->
<g id="edge2" class="edge"><title>Node3&#45;&gt;Node1</title>
<path fill="none" stroke="#9a32cd" stroke-dasharray="5,2" d="M160.58,-62.0961C143.517,-49.0012 119.282,-30.4028 105.246,-19.6305"/>
<polygon fill="#9a32cd" stroke="#9a32cd" points="158.693,-65.06 168.757,-68.3717 162.955,-59.5068 158.693,-65.06"/>
<text text-anchor="middle" x="153.5" y="-41.5" font-family="Helvetica,sans-Serif" font-size="10.00"> opt</text>
</g>
<!-- Node4 -->
<g id="node4" class="node"><title>Node4</title>
<g id="a_node4"><a xlink:href="structodp__ipsec__ipv4__param__t.html" target="_top" xlink:title="IPv4 header parameters. ">
<polygon fill="white" stroke="black" points="45.5,-136.5 45.5,-155.5 170.5,-155.5 170.5,-136.5 45.5,-136.5"/>
<text text-anchor="middle" x="108" y="-143.5" font-family="Helvetica,sans-Serif" font-size="10.00">odp_ipsec_ipv4_param_t</text>
</a>
</g>
</g>
<!-- Node4&#45;&gt;Node3 -->
<g id="edge3" class="edge"><title>Node4&#45;&gt;Node3</title>
<path fill="none" stroke="#9a32cd" stroke-dasharray="5,2" d="M125.005,-129.412C139.149,-116.447 158.775,-98.4559 170.355,-87.8411"/>
<polygon fill="#9a32cd" stroke="#9a32cd" points="122.419,-127.034 117.413,-136.372 127.149,-132.194 122.419,-127.034"/>
<text text-anchor="middle" x="162" y="-109.5" font-family="Helvetica,sans-Serif" font-size="10.00"> ipv4</text>
</g>
<!-- Node5 -->
<g id="node5" class="node"><title>Node5</title>
<g id="a_node5"><a xlink:href="structodp__ipsec__ipv6__param__t.html" target="_top" xlink:title="IPv6 header parameters. ">
<polygon fill="white" stroke="black" points="188.5,-136.5 188.5,-155.5 313.5,-155.5 313.5,-136.5 188.5,-136.5"/>
<text text-anchor="middle" x="251" y="-143.5" font-family="Helvetica,sans-Serif" font-size="10.00">odp_ipsec_ipv6_param_t</text>
</a>
</g>
</g>
<!-- Node5&#45;&gt;Node3 -->
<g id="edge4" class="edge"><title>Node5&#45;&gt;Node3</title>
<path fill="none" stroke="#9a32cd" stroke-dasharray="5,2" d="M234.231,-129.412C220.284,-116.447 200.93,-98.4559 189.511,-87.8411"/>
<polygon fill="#9a32cd" stroke="#9a32cd" points="232.011,-132.127 241.718,-136.372 236.777,-127 232.011,-132.127"/>
<text text-anchor="middle" x="232" y="-109.5" font-family="Helvetica,sans-Serif" font-size="10.00"> ipv6</text>
</g>
</g>
</svg>
