<?xml version="1.0" encoding="UTF-8" standalone="no"?>
<!DOCTYPE svg PUBLIC "-//W3C//DTD SVG 1.1//EN"
 "http://www.w3.org/Graphics/SVG/1.1/DTD/svg11.dtd">
<!-- Generated by graphviz version 2.36.0 (20140111.2315)
 -->
<!-- Title: odp_cls_cos_param Pages: 1 -->
<svg width="528pt" height="218pt"
 viewBox="0.00 0.00 528.00 218.00" xmlns="http://www.w3.org/2000/svg" xmlns:xlink="http://www.w3.org/1999/xlink">
<g id="graph0" class="graph" transform="scale(1 1) rotate(0) translate(4 214)">
<title>odp_cls_cos_param</title>
<polygon fill="white" stroke="none" points="-4,4 -4,-214 524,-214 524,4 -4,4"/>
<!-- Node1 -->
<g id="node1" class="node"><title>Node1</title>
<polygon fill="#bfbfbf" stroke="black" points="416,-94.5 416,-113.5 520,-113.5 520,-94.5 416,-94.5"/>
<text text-anchor="middle" x="468" y="-101.5" font-family="Helvetica,sans-Serif" font-size="10.00">odp_cls_cos_param</text>
</g>
<!-- Node2 -->
<g id="node2" class="node"><title>Node2</title>
<g id="a_node2"><a xlink:href="structodp__red__param__t.html" target="_top" xlink:title="Random Early Detection (RED) Random Early Detection is enabled to initiate a drop probability for the...">
<polygon fill="white" stroke="black" points="212,-190.5 212,-209.5 304,-209.5 304,-190.5 212,-190.5"/>
<text text-anchor="middle" x="258" y="-197.5" font-family="Helvetica,sans-Serif" font-size="10.00">odp_red_param_t</text>
</a>
</g>
</g>
<!-- Node2&#45;&gt;Node1 -->
<g id="edge1" class="edge"><title>Node2&#45;&gt;Node1</title>
<path fill="none" stroke="#9a32cd" stroke-dasharray="5,2" d="M313.881,-190.719C340.316,-184.843 371.87,-175.701 398,-162 422.393,-149.21 445.859,-126.592 458.143,-113.705"/>
<polygon fill="#9a32cd" stroke="#9a32cd" points="313.076,-187.312 304.022,-192.814 314.531,-194.159 313.076,-187.312"/>
<text text-anchor="middle" x="367" y="-187" font-family="Helvetica,sans-Serif" font-size="10.00"> red</text>
</g>
<!-- Node3 -->
<g id="node3" class="node"><title>Node3</title>
<g id="a_node3"><a xlink:href="structodp__threshold__t.html" target="_top" xlink:title="ODP Threshold. ">
<polygon fill="white" stroke="black" points="16,-170.5 16,-189.5 102,-189.5 102,-170.5 16,-170.5"/>
<text text-anchor="middle" x="59" y="-177.5" font-family="Helvetica,sans-Serif" font-size="10.00">odp_threshold_t</text>
</a>
</g>
</g>
<!-- Node3&#45;&gt;Node2 -->
<g id="edge2" class="edge"><title>Node3&#45;&gt;Node2</title>
<path fill="none" stroke="#9a32cd" stroke-dasharray="5,2" d="M112.428,-185.323C143.363,-188.463 182.124,-192.398 211.722,-195.403"/>
<polygon fill="#9a32cd" stroke="#9a32cd" points="112.564,-181.819 102.261,-184.291 111.857,-188.783 112.564,-181.819"/>
<text text-anchor="middle" x="158" y="-194" font-family="Helvetica,sans-Serif" font-size="10.00"> threshold</text>
</g>
<!-- Node9 -->
<g id="node9" class="node"><title>Node9</title>
<g id="a_node9"><a xlink:href="structodp__bp__param__t.html" target="_top" xlink:title="Back pressure (BP) When back pressure is enabled for a particular flow, the HW can send back pressure...">
<polygon fill="white" stroke="black" points="213.5,-152.5 213.5,-171.5 302.5,-171.5 302.5,-152.5 213.5,-152.5"/>
<text text-anchor="middle" x="258" y="-159.5" font-family="Helvetica,sans-Serif" font-size="10.00">odp_bp_param_t</text>
</a>
</g>
</g>
<!-- Node3&#45;&gt;Node9 -->
<g id="edge9" class="edge"><title>Node3&#45;&gt;Node9</title>
<path fill="none" stroke="#9a32cd" stroke-dasharray="5,2" d="M112.032,-169.355C120.031,-168.026 128.216,-166.841 136,-166 161.599,-163.235 190.405,-162.2 213.487,-161.873"/>
<polygon fill="#9a32cd" stroke="#9a32cd" points="111.294,-165.931 102.045,-171.099 112.499,-172.826 111.294,-165.931"/>
<text text-anchor="middle" x="158" y="-169" font-family="Helvetica,sans-Serif" font-size="10.00"> threshold</text>
</g>
<!-- Node4 -->
<g id="node4" class="node"><title>Node4</title>
<g id="a_node4"><a xlink:href="structodp__queue__param__t.html" target="_top" xlink:title="ODP Queue parameters. ">
<polygon fill="white" stroke="black" points="206,-114.5 206,-133.5 310,-133.5 310,-114.5 206,-114.5"/>
<text text-anchor="middle" x="258" y="-121.5" font-family="Helvetica,sans-Serif" font-size="10.00">odp_queue_param_t</text>
</a>
</g>
</g>
<!-- Node4&#45;&gt;Node1 -->
<g id="edge3" class="edge"><title>Node4&#45;&gt;Node1</title>
<path fill="none" stroke="#9a32cd" stroke-dasharray="5,2" d="M320.199,-118.116C350.555,-115.197 386.805,-111.711 415.688,-108.934"/>
<polygon fill="#9a32cd" stroke="#9a32cd" points="319.768,-114.641 310.149,-119.082 320.438,-121.609 319.768,-114.641"/>
<text text-anchor="middle" x="367" y="-120" font-family="Helvetica,sans-Serif" font-size="10.00"> queue_param</text>
</g>
<!-- Node5 -->
<g id="node5" class="node"><title>Node5</title>
<g id="a_node5"><a xlink:href="structodp__schedule__param__t.html" target="_top" xlink:title="Scheduler parameters. ">
<polygon fill="white" stroke="black" points="0.5,-114.5 0.5,-133.5 117.5,-133.5 117.5,-114.5 0.5,-114.5"/>
<text text-anchor="middle" x="59" y="-121.5" font-family="Helvetica,sans-Serif" font-size="10.00">odp_schedule_param_t</text>
</a>
</g>
</g>
<!-- Node5&#45;&gt;Node4 -->
<g id="edge4" class="edge"><title>Node5&#45;&gt;Node4</title>
<path fill="none" stroke="#9a32cd" stroke-dasharray="5,2" d="M127.534,-124C153.165,-124 181.911,-124 205.793,-124"/>
<polygon fill="#9a32cd" stroke="#9a32cd" points="127.51,-120.5 117.51,-124 127.51,-127.5 127.51,-120.5"/>
<text text-anchor="middle" x="158" y="-127" font-family="Helvetica,sans-Serif" font-size="10.00"> sched</text>
</g>
<!-- Node6 -->
<g id="node6" class="node"><title>Node6</title>
<g id="a_node6"><a xlink:href="struct__odp__abi__pool__t.html" target="_top" xlink:title="_odp_abi_pool_t">
<polygon fill="white" stroke="black" points="214.5,-76.5 214.5,-95.5 301.5,-95.5 301.5,-76.5 214.5,-76.5"/>
<text text-anchor="middle" x="258" y="-83.5" font-family="Helvetica,sans-Serif" font-size="10.00">_odp_abi_pool_t</text>
</a>
</g>
</g>
<!-- Node6&#45;&gt;Node1 -->
<g id="edge5" class="edge"><title>Node6&#45;&gt;Node1</title>
<path fill="none" stroke="#9a32cd" stroke-dasharray="5,2" d="M311.774,-84.7568C337.813,-84.7485 369.644,-85.6435 398,-89 408.226,-90.2104 419.17,-92.2415 429.26,-94.4244"/>
<polygon fill="#9a32cd" stroke="#9a32cd" points="311.716,-81.2569 301.732,-84.8042 311.749,-88.2568 311.716,-81.2569"/>
<text text-anchor="middle" x="367" y="-92" font-family="Helvetica,sans-Serif" font-size="10.00"> pool</text>
</g>
<!-- Node7 -->
<g id="node7" class="node"><title>Node7</title>
<g id="a_node7"><a xlink:href="struct__odp__abi__queue__t.html" target="_top" xlink:title="_odp_abi_queue_t">
<polygon fill="white" stroke="black" points="210.5,-38.5 210.5,-57.5 305.5,-57.5 305.5,-38.5 210.5,-38.5"/>
<text text-anchor="middle" x="258" y="-45.5" font-family="Helvetica,sans-Serif" font-size="10.00">_odp_abi_queue_t</text>
</a>
</g>
</g>
<!-- Node7&#45;&gt;Node1 -->
<g id="edge6" class="edge"><title>Node7&#45;&gt;Node1</title>
<path fill="none" stroke="#9a32cd" stroke-dasharray="5,2" d="M316.023,-53.7472C341.496,-57.2505 371.65,-62.7032 398,-71 416.745,-76.9023 436.878,-87.0096 450.529,-94.4872"/>
<polygon fill="#9a32cd" stroke="#9a32cd" points="316.152,-50.2344 305.783,-52.4079 315.245,-57.1753 316.152,-50.2344"/>
<text text-anchor="middle" x="367" y="-74" font-family="Helvetica,sans-Serif" font-size="10.00"> queue</text>
</g>
<!-- Node8 -->
<g id="node8" class="node"><title>Node8</title>
<g id="a_node8"><a xlink:href="unionodp__pktin__hash__proto__t.html" target="_top" xlink:title="Packet input hash protocols. ">
<polygon fill="white" stroke="black" points="198,-0.5 198,-19.5 318,-19.5 318,-0.5 198,-0.5"/>
<text text-anchor="middle" x="258" y="-7.5" font-family="Helvetica,sans-Serif" font-size="10.00">odp_pktin_hash_proto_t</text>
</a>
</g>
</g>
<!-- Node8&#45;&gt;Node1 -->
<g id="edge7" class="edge"><title>Node8&#45;&gt;Node1</title>
<path fill="none" stroke="#9a32cd" stroke-dasharray="5,2" d="M328.14,-19.4708C351.224,-24.4152 376.52,-31.8577 398,-43 423.264,-56.1051 446.754,-80.477 458.723,-94.1119"/>
<polygon fill="#9a32cd" stroke="#9a32cd" points="328.551,-15.9834 318.057,-17.436 327.167,-22.8451 328.551,-15.9834"/>
<text text-anchor="middle" x="367" y="-46" font-family="Helvetica,sans-Serif" font-size="10.00"> hash_proto</text>
</g>
<!-- Node9&#45;&gt;Node1 -->
<g id="edge8" class="edge"><title>Node9&#45;&gt;Node1</title>
<path fill="none" stroke="#9a32cd" stroke-dasharray="5,2" d="M312.748,-152.651C338.769,-147.556 370.3,-140.539 398,-132 414.555,-126.897 432.684,-119.464 446.203,-113.539"/>
<polygon fill="#9a32cd" stroke="#9a32cd" points="311.862,-149.257 302.699,-154.577 313.18,-156.132 311.862,-149.257"/>
<text text-anchor="middle" x="367" y="-150" font-family="Helvetica,sans-Serif" font-size="10.00"> bp</text>
</g>
</g>
</svg>
