<?xml version="1.0" encoding="UTF-8" standalone="no"?>
<!DOCTYPE svg PUBLIC "-//W3C//DTD SVG 1.1//EN"
 "http://www.w3.org/Graphics/SVG/1.1/DTD/svg11.dtd">
<!-- Generated by graphviz version 2.36.0 (20140111.2315)
 -->
<!-- Title: odp_comp_capability_t Pages: 1 -->
<svg width="249pt" height="96pt"
 viewBox="0.00 0.00 249.00 96.00" xmlns="http://www.w3.org/2000/svg" xmlns:xlink="http://www.w3.org/1999/xlink">
<g id="graph0" class="graph" transform="scale(1 1) rotate(0) translate(4 92)">
<title>odp_comp_capability_t</title>
<polygon fill="white" stroke="none" points="-4,4 -4,-92 245,-92 245,4 -4,4"/>
<!-- Node1 -->
<g id="node1" class="node"><title>Node1</title>
<polygon fill="#bfbfbf" stroke="black" points="56,-0.5 56,-19.5 172,-19.5 172,-0.5 56,-0.5"/>
<text text-anchor="middle" x="114" y="-7.5" font-family="Helvetica,sans-Serif" font-size="10.00">odp_comp_capability_t</text>
</g>
<!-- Node2 -->
<g id="node2" class="node"><title>Node2</title>
<g id="a_node2"><a xlink:href="unionodp__comp__algos__t.html" target="_top" xlink:title="Compression algorithms in a bit field structure. ">
<polygon fill="white" stroke="black" points="0,-68.5 0,-87.5 98,-87.5 98,-68.5 0,-68.5"/>
<text text-anchor="middle" x="49" y="-75.5" font-family="Helvetica,sans-Serif" font-size="10.00">odp_comp_algos_t</text>
</a>
</g>
</g>
<!-- Node2&#45;&gt;Node1 -->
<g id="edge1" class="edge"><title>Node2&#45;&gt;Node1</title>
<path fill="none" stroke="#9a32cd" stroke-dasharray="5,2" d="M64.7109,-61.0474C77.4512,-48.1111 94.9365,-30.3567 105.293,-19.8411"/>
<polygon fill="#9a32cd" stroke="#9a32cd" points="62.0208,-58.7909 57.4976,-68.3717 67.0082,-63.7027 62.0208,-58.7909"/>
<text text-anchor="middle" x="116" y="-41.5" font-family="Helvetica,sans-Serif" font-size="10.00"> comp_algos</text>
</g>
<!-- Node3 -->
<g id="node3" class="node"><title>Node3</title>
<g id="a_node3"><a xlink:href="unionodp__comp__hash__algos__t.html" target="_top" xlink:title="Hash algorithms in a bit field structure. ">
<polygon fill="white" stroke="black" points="116.5,-68.5 116.5,-87.5 241.5,-87.5 241.5,-68.5 116.5,-68.5"/>
<text text-anchor="middle" x="179" y="-75.5" font-family="Helvetica,sans-Serif" font-size="10.00">odp_comp_hash_algos_t</text>
</a>
</g>
</g>
<!-- Node3&#45;&gt;Node1 -->
<g id="edge2" class="edge"><title>Node3&#45;&gt;Node1</title>
<path fill="none" stroke="#9a32cd" stroke-dasharray="5,2" d="M166.979,-60.1884C161.532,-53.0346 154.796,-44.7929 148,-38 141.283,-31.2859 132.941,-24.6403 126.202,-19.6222"/>
<polygon fill="#9a32cd" stroke="#9a32cd" points="164.343,-62.511 173.099,-68.4772 169.975,-58.3533 164.343,-62.511"/>
<text text-anchor="middle" x="185.5" y="-41.5" font-family="Helvetica,sans-Serif" font-size="10.00"> hash_algos</text>
</g>
</g>
</svg>
