<?xml version="1.0" encoding="UTF-8" standalone="no"?>
<!DOCTYPE svg PUBLIC "-//W3C//DTD SVG 1.1//EN"
 "http://www.w3.org/Graphics/SVG/1.1/DTD/svg11.dtd">
<!-- Generated by graphviz version 2.36.0 (20140111.2315)
 -->
<!-- Title: support.h Pages: 1 -->
<svg width="573pt" height="756pt"
 viewBox="0.00 0.00 573.00 756.00" xmlns="http://www.w3.org/2000/svg" xmlns:xlink="http://www.w3.org/1999/xlink">
<g id="graph0" class="graph" transform="scale(1 1) rotate(0) translate(4 752)">
<title>support.h</title>
<polygon fill="white" stroke="none" points="-4,4 -4,-752 569,-752 569,4 -4,4"/>
<!-- Node4 -->
<g id="node1" class="node"><title>Node4</title>
<polygon fill="#bfbfbf" stroke="black" points="129.5,-728.5 129.5,-747.5 186.5,-747.5 186.5,-728.5 129.5,-728.5"/>
<text text-anchor="middle" x="158" y="-735.5" font-family="Helvetica,sans-Serif" font-size="10.00">support.h</text>
</g>
<!-- Node5 -->
<g id="node2" class="node"><title>Node5</title>
<g id="a_node2"><a xlink:href="api_2spec_2classification_8h.html" target="_top" xlink:title="ODP classification descriptor. ">
<polygon fill="white" stroke="black" points="28,-280.5 28,-299.5 110,-299.5 110,-280.5 28,-280.5"/>
<text text-anchor="middle" x="69" y="-287.5" font-family="Helvetica,sans-Serif" font-size="10.00">classification.h</text>
</a>
</g>
</g>
<!-- Node4&#45;&gt;Node5 -->
<g id="edge1" class="edge"><title>Node4&#45;&gt;Node5</title>
<path fill="none" stroke="midnightblue" d="M139.253,-721.682C117.623,-702.164 85,-666.224 85,-627 85,-627 85,-627 85,-401 85,-362.983 75.5251,-318.337 71.1578,-299.777"/>
<polygon fill="midnightblue" stroke="midnightblue" points="137.067,-724.419 146.913,-728.33 141.655,-719.132 137.067,-724.419"/>
</g>
<!-- Node7 -->
<g id="node4" class="node"><title>Node7</title>
<g id="a_node4"><a xlink:href="api_2spec_2ipsec_8h.html" target="_top" xlink:title="ODP IPSEC API. ">
<polygon fill="white" stroke="black" points="138,-168.5 138,-187.5 186,-187.5 186,-168.5 138,-168.5"/>
<text text-anchor="middle" x="162" y="-175.5" font-family="Helvetica,sans-Serif" font-size="10.00">ipsec.h</text>
</a>
</g>
</g>
<!-- Node4&#45;&gt;Node7 -->
<g id="edge15" class="edge"><title>Node4&#45;&gt;Node7</title>
<path fill="none" stroke="midnightblue" d="M152.509,-718.408C146.588,-696.685 138,-659.562 138,-627 138,-627 138,-627 138,-289 138,-250.493 152.212,-206.111 158.763,-187.699"/>
<polygon fill="midnightblue" stroke="midnightblue" points="149.207,-719.592 155.303,-728.258 155.942,-717.683 149.207,-719.592"/>
</g>
<!-- Node9 -->
<g id="node6" class="node"><title>Node9</title>
<g id="a_node6"><a xlink:href="odp__api_8h.html" target="_top" xlink:title="The OpenDataPlane API. ">
<polygon fill="white" stroke="black" points="251.5,-56.5 251.5,-75.5 310.5,-75.5 310.5,-56.5 251.5,-56.5"/>
<text text-anchor="middle" x="281" y="-63.5" font-family="Helvetica,sans-Serif" font-size="10.00">odp_api.h</text>
</a>
</g>
</g>
<!-- Node4&#45;&gt;Node9 -->
<g id="edge35" class="edge"><title>Node4&#45;&gt;Node9</title>
<path fill="none" stroke="midnightblue" d="M119.552,-728.216C72.7833,-714.988 0,-685.074 0,-627 0,-627 0,-627 0,-177 0,-123.432 179.314,-85.2533 251.459,-72.0603"/>
<polygon fill="midnightblue" stroke="midnightblue" points="118.821,-731.644 129.387,-730.863 120.64,-724.884 118.821,-731.644"/>
</g>
<!-- Node11 -->
<g id="node8" class="node"><title>Node11</title>
<g id="a_node8"><a xlink:href="api_2spec_2comp_8h.html" target="_top" xlink:title="ODP Compression. ">
<polygon fill="white" stroke="black" points="477.5,-616.5 477.5,-635.5 526.5,-635.5 526.5,-616.5 477.5,-616.5"/>
<text text-anchor="middle" x="502" y="-623.5" font-family="Helvetica,sans-Serif" font-size="10.00">comp.h</text>
</a>
</g>
</g>
<!-- Node4&#45;&gt;Node11 -->
<g id="edge8" class="edge"><title>Node4&#45;&gt;Node11</title>
<path fill="none" stroke="midnightblue" d="M196.94,-735.292C247.755,-731.906 338.605,-721.841 410,-692 443.742,-677.897 477.279,-649.715 492.906,-635.547"/>
<polygon fill="midnightblue" stroke="midnightblue" points="196.493,-731.813 186.726,-735.918 196.922,-738.8 196.493,-731.813"/>
</g>
<!-- Node13 -->
<g id="node10" class="node"><title>Node13</title>
<g id="a_node10"><a xlink:href="api_2spec_2crypto_8h.html" target="_top" xlink:title="ODP crypto. ">
<polygon fill="white" stroke="black" points="196,-504.5 196,-523.5 248,-523.5 248,-504.5 196,-504.5"/>
<text text-anchor="middle" x="222" y="-511.5" font-family="Helvetica,sans-Serif" font-size="10.00">crypto.h</text>
</a>
</g>
</g>
<!-- Node4&#45;&gt;Node13 -->
<g id="edge11" class="edge"><title>Node4&#45;&gt;Node13</title>
<path fill="none" stroke="midnightblue" d="M163.309,-718.585C176.412,-673.135 209.914,-556.924 219.439,-523.884"/>
<polygon fill="midnightblue" stroke="midnightblue" points="159.916,-717.719 160.509,-728.297 166.642,-719.658 159.916,-717.719"/>
</g>
<!-- Node15 -->
<g id="node12" class="node"><title>Node15</title>
<g id="a_node12"><a xlink:href="api_2spec_2schedule__types_8h.html" target="_top" xlink:title="ODP schedule types. ">
<polygon fill="white" stroke="black" points="308.5,-672.5 308.5,-691.5 401.5,-691.5 401.5,-672.5 308.5,-672.5"/>
<text text-anchor="middle" x="355" y="-679.5" font-family="Helvetica,sans-Serif" font-size="10.00">schedule_types.h</text>
</a>
</g>
</g>
<!-- Node4&#45;&gt;Node15 -->
<g id="edge16" class="edge"><title>Node4&#45;&gt;Node15</title>
<path fill="none" stroke="midnightblue" d="M196.606,-726.418C233.759,-716.233 289.239,-701.026 323.715,-691.576"/>
<polygon fill="midnightblue" stroke="midnightblue" points="195.364,-723.129 186.645,-729.148 197.215,-729.88 195.364,-723.129"/>
</g>
<!-- Node6 -->
<g id="node3" class="node"><title>Node6</title>
<g id="a_node3"><a xlink:href="api_2classification_8h.html" target="_top" xlink:title="ODP classification descriptor. ">
<polygon fill="white" stroke="black" points="28,-224.5 28,-243.5 110,-243.5 110,-224.5 28,-224.5"/>
<text text-anchor="middle" x="69" y="-231.5" font-family="Helvetica,sans-Serif" font-size="10.00">classification.h</text>
</a>
</g>
</g>
<!-- Node5&#45;&gt;Node6 -->
<g id="edge2" class="edge"><title>Node5&#45;&gt;Node6</title>
<path fill="none" stroke="midnightblue" d="M69,-269.805C69,-260.91 69,-250.78 69,-243.751"/>
<polygon fill="midnightblue" stroke="midnightblue" points="65.5001,-270.083 69,-280.083 72.5001,-270.083 65.5001,-270.083"/>
</g>
<!-- Node6&#45;&gt;Node7 -->
<g id="edge3" class="edge"><title>Node6&#45;&gt;Node7</title>
<path fill="none" stroke="midnightblue" d="M92.8057,-219.177C109.919,-209.241 132.465,-196.149 147.095,-187.655"/>
<polygon fill="midnightblue" stroke="midnightblue" points="90.8325,-216.276 83.9421,-224.324 94.3475,-222.329 90.8325,-216.276"/>
</g>
<!-- Node6&#45;&gt;Node9 -->
<g id="edge7" class="edge"><title>Node6&#45;&gt;Node9</title>
<path fill="none" stroke="midnightblue" d="M73.2561,-214.243C80.2714,-187.61 96.808,-139.068 129,-112 164.178,-82.4217 218.143,-72.284 251.415,-68.8101"/>
<polygon fill="midnightblue" stroke="midnightblue" points="69.7994,-213.644 70.8146,-224.19 76.5976,-215.313 69.7994,-213.644"/>
</g>
<!-- Node8 -->
<g id="node5" class="node"><title>Node8</title>
<g id="a_node5"><a xlink:href="api_2ipsec_8h.html" target="_top" xlink:title="ODP IPSEC API &#45; platform specific header. ">
<polygon fill="white" stroke="black" points="138,-112.5 138,-131.5 186,-131.5 186,-112.5 138,-112.5"/>
<text text-anchor="middle" x="162" y="-119.5" font-family="Helvetica,sans-Serif" font-size="10.00">ipsec.h</text>
</a>
</g>
</g>
<!-- Node7&#45;&gt;Node8 -->
<g id="edge4" class="edge"><title>Node7&#45;&gt;Node8</title>
<path fill="none" stroke="midnightblue" d="M162,-157.805C162,-148.91 162,-138.78 162,-131.751"/>
<polygon fill="midnightblue" stroke="midnightblue" points="158.5,-158.083 162,-168.083 165.5,-158.083 158.5,-158.083"/>
</g>
<!-- Node8&#45;&gt;Node9 -->
<g id="edge5" class="edge"><title>Node8&#45;&gt;Node9</title>
<path fill="none" stroke="midnightblue" d="M190.137,-108.232C212.396,-98.1312 242.856,-84.3091 262.232,-75.5164"/>
<polygon fill="midnightblue" stroke="midnightblue" points="188.516,-105.124 180.856,-112.444 191.409,-111.498 188.516,-105.124"/>
</g>
<!-- Node10 -->
<g id="node7" class="node"><title>Node10</title>
<g id="a_node7"><a xlink:href="odp_8h.html" target="_top" xlink:title="WARNING: THIS FILE IS DEPRECATED AND WILL BE REMOVED!!! ODP APPLICATIONS SHOULD NOW INCLUDE odp_api...">
<polygon fill="white" stroke="black" points="260.5,-0.5 260.5,-19.5 301.5,-19.5 301.5,-0.5 260.5,-0.5"/>
<text text-anchor="middle" x="281" y="-7.5" font-family="Helvetica,sans-Serif" font-size="10.00">odp.h</text>
</a>
</g>
</g>
<!-- Node9&#45;&gt;Node10 -->
<g id="edge6" class="edge"><title>Node9&#45;&gt;Node10</title>
<path fill="none" stroke="midnightblue" d="M281,-45.8045C281,-36.9102 281,-26.7798 281,-19.7511"/>
<polygon fill="midnightblue" stroke="midnightblue" points="277.5,-46.083 281,-56.083 284.5,-46.083 277.5,-46.083"/>
</g>
<!-- Node12 -->
<g id="node9" class="node"><title>Node12</title>
<g id="a_node9"><a xlink:href="api_2comp_8h.html" target="_top" xlink:title="ODP crypto. ">
<polygon fill="white" stroke="black" points="516.5,-560.5 516.5,-579.5 565.5,-579.5 565.5,-560.5 516.5,-560.5"/>
<text text-anchor="middle" x="541" y="-567.5" font-family="Helvetica,sans-Serif" font-size="10.00">comp.h</text>
</a>
</g>
</g>
<!-- Node11&#45;&gt;Node12 -->
<g id="edge9" class="edge"><title>Node11&#45;&gt;Node12</title>
<path fill="none" stroke="midnightblue" d="M514.382,-607.855C521.135,-598.505 529.209,-587.327 534.68,-579.751"/>
<polygon fill="midnightblue" stroke="midnightblue" points="511.458,-605.927 508.44,-616.083 517.132,-610.025 511.458,-605.927"/>
</g>
<!-- Node12&#45;&gt;Node9 -->
<g id="edge10" class="edge"><title>Node12&#45;&gt;Node9</title>
<path fill="none" stroke="midnightblue" d="M541.822,-550.255C542.711,-528.366 544,-491.064 544,-459 544,-459 544,-459 544,-177 544,-76.7776 379.439,-66.2825 310.658,-66.2731"/>
<polygon fill="midnightblue" stroke="midnightblue" points="538.317,-550.306 541.392,-560.444 545.311,-550.601 538.317,-550.306"/>
</g>
<!-- Node14 -->
<g id="node11" class="node"><title>Node14</title>
<g id="a_node11"><a xlink:href="api_2crypto_8h.html" target="_top" xlink:title="ODP crypto. ">
<polygon fill="white" stroke="black" points="333,-336.5 333,-355.5 385,-355.5 385,-336.5 333,-336.5"/>
<text text-anchor="middle" x="359" y="-343.5" font-family="Helvetica,sans-Serif" font-size="10.00">crypto.h</text>
</a>
</g>
</g>
<!-- Node13&#45;&gt;Node14 -->
<g id="edge12" class="edge"><title>Node13&#45;&gt;Node14</title>
<path fill="none" stroke="midnightblue" d="M225.696,-494.334C231.647,-468.539 245.571,-421.812 273,-392 289.202,-374.391 313.89,-362.472 332.665,-355.348"/>
<polygon fill="midnightblue" stroke="midnightblue" points="222.237,-493.775 223.56,-504.287 229.081,-495.244 222.237,-493.775"/>
</g>
<!-- Node14&#45;&gt;Node7 -->
<g id="edge13" class="edge"><title>Node14&#45;&gt;Node7</title>
<path fill="none" stroke="midnightblue" d="M353.426,-326.533C348.486,-312.528 340.154,-293.456 328,-280 286.394,-233.937 218.841,-201.913 184.133,-187.543"/>
<polygon fill="midnightblue" stroke="midnightblue" points="350.114,-327.663 356.55,-336.079 356.767,-325.486 350.114,-327.663"/>
</g>
<!-- Node14&#45;&gt;Node9 -->
<g id="edge14" class="edge"><title>Node14&#45;&gt;Node9</title>
<path fill="none" stroke="midnightblue" d="M366.303,-326.856C374.299,-305.318 386,-268.139 386,-235 386,-235 386,-235 386,-177 386,-127.366 329.373,-91.3084 299.29,-75.6546"/>
<polygon fill="midnightblue" stroke="midnightblue" points="362.978,-325.748 362.641,-336.338 369.509,-328.27 362.978,-325.748"/>
</g>
<!-- Node16 -->
<g id="node13" class="node"><title>Node16</title>
<g id="a_node13"><a xlink:href="api_2schedule__types_8h.html" target="_top" xlink:title="ODP schedule. ">
<polygon fill="white" stroke="black" points="347.5,-616.5 347.5,-635.5 440.5,-635.5 440.5,-616.5 347.5,-616.5"/>
<text text-anchor="middle" x="394" y="-623.5" font-family="Helvetica,sans-Serif" font-size="10.00">schedule_types.h</text>
</a>
</g>
</g>
<!-- Node15&#45;&gt;Node16 -->
<g id="edge17" class="edge"><title>Node15&#45;&gt;Node16</title>
<path fill="none" stroke="midnightblue" d="M367.382,-663.855C374.135,-654.505 382.209,-643.327 387.68,-635.751"/>
<polygon fill="midnightblue" stroke="midnightblue" points="364.458,-661.927 361.44,-672.083 370.132,-666.025 364.458,-661.927"/>
</g>
<!-- Node17 -->
<g id="node14" class="node"><title>Node17</title>
<g id="a_node14"><a xlink:href="queue__types_8h.html" target="_top" xlink:title="ODP queue types. ">
<polygon fill="white" stroke="black" points="354,-560.5 354,-579.5 434,-579.5 434,-560.5 354,-560.5"/>
<text text-anchor="middle" x="394" y="-567.5" font-family="Helvetica,sans-Serif" font-size="10.00">queue_types.h</text>
</a>
</g>
</g>
<!-- Node16&#45;&gt;Node17 -->
<g id="edge18" class="edge"><title>Node16&#45;&gt;Node17</title>
<path fill="none" stroke="midnightblue" d="M394,-605.805C394,-596.91 394,-586.78 394,-579.751"/>
<polygon fill="midnightblue" stroke="midnightblue" points="390.5,-606.083 394,-616.083 397.5,-606.083 390.5,-606.083"/>
</g>
<!-- Node24 -->
<g id="node21" class="node"><title>Node24</title>
<g id="a_node21"><a xlink:href="api_2spec_2schedule_8h.html" target="_top" xlink:title="ODP schedule. ">
<polygon fill="white" stroke="black" points="452,-392.5 452,-411.5 516,-411.5 516,-392.5 452,-392.5"/>
<text text-anchor="middle" x="484" y="-399.5" font-family="Helvetica,sans-Serif" font-size="10.00">schedule.h</text>
</a>
</g>
</g>
<!-- Node16&#45;&gt;Node24 -->
<g id="edge34" class="edge"><title>Node16&#45;&gt;Node24</title>
<path fill="none" stroke="midnightblue" d="M415.491,-610.046C425.27,-602.178 436.162,-591.731 443,-580 476.677,-522.228 482.694,-438.756 483.767,-411.769"/>
<polygon fill="midnightblue" stroke="midnightblue" points="413.155,-607.425 407.313,-616.264 417.391,-612.997 413.155,-607.425"/>
</g>
<!-- Node18 -->
<g id="node15" class="node"><title>Node18</title>
<g id="a_node15"><a xlink:href="api_2spec_2queue_8h.html" target="_top" xlink:title="ODP queue. ">
<polygon fill="white" stroke="black" points="368.5,-504.5 368.5,-523.5 419.5,-523.5 419.5,-504.5 368.5,-504.5"/>
<text text-anchor="middle" x="394" y="-511.5" font-family="Helvetica,sans-Serif" font-size="10.00">queue.h</text>
</a>
</g>
</g>
<!-- Node17&#45;&gt;Node18 -->
<g id="edge19" class="edge"><title>Node17&#45;&gt;Node18</title>
<path fill="none" stroke="midnightblue" d="M394,-549.805C394,-540.91 394,-530.78 394,-523.751"/>
<polygon fill="midnightblue" stroke="midnightblue" points="390.5,-550.083 394,-560.083 397.5,-550.083 390.5,-550.083"/>
</g>
<!-- Node19 -->
<g id="node16" class="node"><title>Node19</title>
<g id="a_node16"><a xlink:href="api_2queue_8h.html" target="_top" xlink:title="ODP queue. ">
<polygon fill="white" stroke="black" points="368.5,-448.5 368.5,-467.5 419.5,-467.5 419.5,-448.5 368.5,-448.5"/>
<text text-anchor="middle" x="394" y="-455.5" font-family="Helvetica,sans-Serif" font-size="10.00">queue.h</text>
</a>
</g>
</g>
<!-- Node18&#45;&gt;Node19 -->
<g id="edge20" class="edge"><title>Node18&#45;&gt;Node19</title>
<path fill="none" stroke="midnightblue" d="M394,-493.805C394,-484.91 394,-474.78 394,-467.751"/>
<polygon fill="midnightblue" stroke="midnightblue" points="390.5,-494.083 394,-504.083 397.5,-494.083 390.5,-494.083"/>
</g>
<!-- Node19&#45;&gt;Node9 -->
<g id="edge33" class="edge"><title>Node19&#45;&gt;Node9</title>
<path fill="none" stroke="midnightblue" d="M402.114,-438.933C410.999,-417.468 424,-380.36 424,-347 424,-347 424,-347 424,-177 424,-120.308 352.515,-88.7935 310.63,-75.1942"/>
<polygon fill="midnightblue" stroke="midnightblue" points="398.787,-437.81 398.046,-448.379 405.216,-440.579 398.787,-437.81"/>
</g>
<!-- Node19&#45;&gt;Node14 -->
<g id="edge21" class="edge"><title>Node19&#45;&gt;Node14</title>
<path fill="none" stroke="midnightblue" d="M388.169,-438.674C380.517,-414.625 367.396,-373.388 361.734,-355.591"/>
<polygon fill="midnightblue" stroke="midnightblue" points="384.886,-439.9 391.254,-448.368 391.557,-437.778 384.886,-439.9"/>
</g>
<!-- Node20 -->
<g id="node17" class="node"><title>Node20</title>
<g id="a_node17"><a xlink:href="api_2spec_2packet__io_8h.html" target="_top" xlink:title="ODP Packet IO. ">
<polygon fill="white" stroke="black" points="282.5,-392.5 282.5,-411.5 349.5,-411.5 349.5,-392.5 282.5,-392.5"/>
<text text-anchor="middle" x="316" y="-399.5" font-family="Helvetica,sans-Serif" font-size="10.00">packet_io.h</text>
</a>
</g>
</g>
<!-- Node19&#45;&gt;Node20 -->
<g id="edge22" class="edge"><title>Node19&#45;&gt;Node20</title>
<path fill="none" stroke="midnightblue" d="M373.232,-442.622C358.983,-432.757 340.544,-419.992 328.501,-411.655"/>
<polygon fill="midnightblue" stroke="midnightblue" points="371.254,-445.51 381.468,-448.324 375.238,-439.754 371.254,-445.51"/>
</g>
<!-- Node19&#45;&gt;Node24 -->
<g id="edge30" class="edge"><title>Node19&#45;&gt;Node24</title>
<path fill="none" stroke="midnightblue" d="M417.038,-443.177C433.599,-433.241 455.418,-420.149 469.576,-411.655"/>
<polygon fill="midnightblue" stroke="midnightblue" points="415.234,-440.178 408.46,-448.324 418.836,-446.18 415.234,-440.178"/>
</g>
<!-- Node21 -->
<g id="node18" class="node"><title>Node21</title>
<g id="a_node18"><a xlink:href="api_2packet__io_8h.html" target="_top" xlink:title="ODP Packet IO. ">
<polygon fill="white" stroke="black" points="180.5,-336.5 180.5,-355.5 247.5,-355.5 247.5,-336.5 180.5,-336.5"/>
<text text-anchor="middle" x="214" y="-343.5" font-family="Helvetica,sans-Serif" font-size="10.00">packet_io.h</text>
</a>
</g>
</g>
<!-- Node20&#45;&gt;Node21 -->
<g id="edge23" class="edge"><title>Node20&#45;&gt;Node21</title>
<path fill="none" stroke="midnightblue" d="M290.669,-387.59C271.81,-377.605 246.616,-364.267 230.347,-355.655"/>
<polygon fill="midnightblue" stroke="midnightblue" points="289.136,-390.738 299.612,-392.324 292.412,-384.552 289.136,-390.738"/>
</g>
<!-- Node21&#45;&gt;Node5 -->
<g id="edge24" class="edge"><title>Node21&#45;&gt;Node5</title>
<path fill="none" stroke="midnightblue" d="M181.525,-332.906C154.264,-322.754 116.008,-308.506 91.8682,-299.516"/>
<polygon fill="midnightblue" stroke="midnightblue" points="180.432,-336.233 191.024,-336.444 182.875,-329.674 180.432,-336.233"/>
</g>
<!-- Node21&#45;&gt;Node7 -->
<g id="edge25" class="edge"><title>Node21&#45;&gt;Node7</title>
<path fill="none" stroke="midnightblue" d="M208.172,-326.395C196.954,-290.585 172.758,-213.342 164.684,-187.568"/>
<polygon fill="midnightblue" stroke="midnightblue" points="204.875,-327.579 211.204,-336.075 211.555,-325.486 204.875,-327.579"/>
</g>
<!-- Node21&#45;&gt;Node9 -->
<g id="edge29" class="edge"><title>Node21&#45;&gt;Node9</title>
<path fill="none" stroke="midnightblue" d="M214,-326.251C214,-304.357 214,-267.052 214,-235 214,-235 214,-235 214,-177 214,-133.62 252.477,-92.817 271.114,-75.5975"/>
<polygon fill="midnightblue" stroke="midnightblue" points="210.5,-326.442 214,-336.442 217.5,-326.442 210.5,-326.442"/>
</g>
<!-- Node22 -->
<g id="node19" class="node"><title>Node22</title>
<g id="a_node19"><a xlink:href="api_2spec_2traffic__mngr_8h.html" target="_top" xlink:title="Copyright (c) 2015&#45;2018, Linaro Limited All rights reserved. ">
<polygon fill="white" stroke="black" points="242.5,-280.5 242.5,-299.5 319.5,-299.5 319.5,-280.5 242.5,-280.5"/>
<text text-anchor="middle" x="281" y="-287.5" font-family="Helvetica,sans-Serif" font-size="10.00">traffic_mngr.h</text>
</a>
</g>
</g>
<!-- Node21&#45;&gt;Node22 -->
<g id="edge26" class="edge"><title>Node21&#45;&gt;Node22</title>
<path fill="none" stroke="midnightblue" d="M232.835,-329.82C244.838,-320.145 259.972,-307.948 270.039,-299.834"/>
<polygon fill="midnightblue" stroke="midnightblue" points="230.354,-327.324 224.765,-336.324 234.747,-332.774 230.354,-327.324"/>
</g>
<!-- Node23 -->
<g id="node20" class="node"><title>Node23</title>
<g id="a_node20"><a xlink:href="api_2traffic__mngr_8h.html" target="_top" xlink:title="ODP Traffic manager. ">
<polygon fill="white" stroke="black" points="242.5,-168.5 242.5,-187.5 319.5,-187.5 319.5,-168.5 242.5,-168.5"/>
<text text-anchor="middle" x="281" y="-175.5" font-family="Helvetica,sans-Serif" font-size="10.00">traffic_mngr.h</text>
</a>
</g>
</g>
<!-- Node22&#45;&gt;Node23 -->
<g id="edge27" class="edge"><title>Node22&#45;&gt;Node23</title>
<path fill="none" stroke="midnightblue" d="M281,-270.348C281,-246.254 281,-205.308 281,-187.591"/>
<polygon fill="midnightblue" stroke="midnightblue" points="277.5,-270.368 281,-280.368 284.5,-270.369 277.5,-270.368"/>
</g>
<!-- Node23&#45;&gt;Node9 -->
<g id="edge28" class="edge"><title>Node23&#45;&gt;Node9</title>
<path fill="none" stroke="midnightblue" d="M281,-158.348C281,-134.254 281,-93.3079 281,-75.5914"/>
<polygon fill="midnightblue" stroke="midnightblue" points="277.5,-158.368 281,-168.368 284.5,-158.369 277.5,-158.368"/>
</g>
<!-- Node25 -->
<g id="node22" class="node"><title>Node25</title>
<g id="a_node22"><a xlink:href="api_2schedule_8h.html" target="_top" xlink:title="ODP schedule. ">
<polygon fill="white" stroke="black" points="452,-224.5 452,-243.5 516,-243.5 516,-224.5 452,-224.5"/>
<text text-anchor="middle" x="484" y="-231.5" font-family="Helvetica,sans-Serif" font-size="10.00">schedule.h</text>
</a>
</g>
</g>
<!-- Node24&#45;&gt;Node25 -->
<g id="edge31" class="edge"><title>Node24&#45;&gt;Node25</title>
<path fill="none" stroke="midnightblue" d="M484,-381.93C484,-345.92 484,-269.231 484,-243.568"/>
<polygon fill="midnightblue" stroke="midnightblue" points="480.5,-382.075 484,-392.075 487.5,-382.075 480.5,-382.075"/>
</g>
<!-- Node25&#45;&gt;Node9 -->
<g id="edge32" class="edge"><title>Node25&#45;&gt;Node9</title>
<path fill="none" stroke="midnightblue" d="M482.03,-213.943C478.255,-187.305 467.546,-139.159 438,-112 402.616,-79.4754 345.261,-70.293 310.542,-67.801"/>
<polygon fill="midnightblue" stroke="midnightblue" points="478.599,-214.719 483.289,-224.219 485.547,-213.867 478.599,-214.719"/>
</g>
</g>
</svg>
