<?xml version="1.0" encoding="UTF-8" standalone="no"?>
<!DOCTYPE svg PUBLIC "-//W3C//DTD SVG 1.1//EN"
 "http://www.w3.org/Graphics/SVG/1.1/DTD/svg11.dtd">
<!-- Generated by graphviz version 2.36.0 (20140111.2315)
 -->
<!-- Title: system_info.h Pages: 1 -->
<svg width="86pt" height="140pt"
 viewBox="0.00 0.00 86.00 140.00" xmlns="http://www.w3.org/2000/svg" xmlns:xlink="http://www.w3.org/1999/xlink">
<g id="graph0" class="graph" transform="scale(1 1) rotate(0) translate(4 136)">
<title>system_info.h</title>
<polygon fill="white" stroke="none" points="-4,4 -4,-136 82,-136 82,4 -4,4"/>
<!-- Node8 -->
<g id="node1" class="node"><title>Node8</title>
<polygon fill="#bfbfbf" stroke="black" points="0,-112.5 0,-131.5 78,-131.5 78,-112.5 0,-112.5"/>
<text text-anchor="middle" x="39" y="-119.5" font-family="Helvetica,sans-Serif" font-size="10.00">system_info.h</text>
</g>
<!-- Node9 -->
<g id="node2" class="node"><title>Node9</title>
<g id="a_node2"><a xlink:href="odp__api_8h.html" target="_top" xlink:title="The OpenDataPlane API. ">
<polygon fill="white" stroke="black" points="9.5,-56.5 9.5,-75.5 68.5,-75.5 68.5,-56.5 9.5,-56.5"/>
<text text-anchor="middle" x="39" y="-63.5" font-family="Helvetica,sans-Serif" font-size="10.00">odp_api.h</text>
</a>
</g>
</g>
<!-- Node8&#45;&gt;Node9 -->
<g id="edge1" class="edge"><title>Node8&#45;&gt;Node9</title>
<path fill="none" stroke="midnightblue" d="M39,-101.805C39,-92.9102 39,-82.7798 39,-75.7511"/>
<polygon fill="midnightblue" stroke="midnightblue" points="35.5001,-102.083 39,-112.083 42.5001,-102.083 35.5001,-102.083"/>
</g>
<!-- Node10 -->
<g id="node3" class="node"><title>Node10</title>
<g id="a_node3"><a xlink:href="odp_8h.html" target="_top" xlink:title="WARNING: THIS FILE IS DEPRECATED AND WILL BE REMOVED!!! ODP APPLICATIONS SHOULD NOW INCLUDE odp_api...">
<polygon fill="white" stroke="black" points="18.5,-0.5 18.5,-19.5 59.5,-19.5 59.5,-0.5 18.5,-0.5"/>
<text text-anchor="middle" x="39" y="-7.5" font-family="Helvetica,sans-Serif" font-size="10.00">odp.h</text>
</a>
</g>
</g>
<!-- Node9&#45;&gt;Node10 -->
<g id="edge2" class="edge"><title>Node9&#45;&gt;Node10</title>
<path fill="none" stroke="midnightblue" d="M39,-45.8045C39,-36.9102 39,-26.7798 39,-19.7511"/>
<polygon fill="midnightblue" stroke="midnightblue" points="35.5001,-46.083 39,-56.083 42.5001,-46.083 35.5001,-46.083"/>
</g>
</g>
</svg>
