<?xml version="1.0" encoding="UTF-8" standalone="no"?>
<!DOCTYPE svg PUBLIC "-//W3C//DTD SVG 1.1//EN"
 "http://www.w3.org/Graphics/SVG/1.1/DTD/svg11.dtd">
<!-- Generated by graphviz version 2.36.0 (20140111.2315)
 -->
<!-- Title: system_info.h Pages: 1 -->
<svg width="395pt" height="208pt"
 viewBox="0.00 0.00 395.00 208.00" xmlns="http://www.w3.org/2000/svg" xmlns:xlink="http://www.w3.org/1999/xlink">
<g id="graph0" class="graph" transform="scale(1 1) rotate(0) translate(4 204)">
<title>system_info.h</title>
<polygon fill="white" stroke="none" points="-4,4 -4,-204 391,-204 391,4 -4,4"/>
<!-- Node0 -->
<g id="node1" class="node"><title>Node0</title>
<polygon fill="#bfbfbf" stroke="black" points="213,-180.5 213,-199.5 291,-199.5 291,-180.5 213,-180.5"/>
<text text-anchor="middle" x="252" y="-187.5" font-family="Helvetica,sans-Serif" font-size="10.00">system_info.h</text>
</g>
<!-- Node1 -->
<g id="node2" class="node"><title>Node1</title>
<g id="a_node2"><a xlink:href="api_2std__types_8h.html" target="_top" xlink:title="Standard C language types and definitions for ODP. ">
<polygon fill="white" stroke="black" points="148,-124.5 148,-143.5 250,-143.5 250,-124.5 148,-124.5"/>
<text text-anchor="middle" x="199" y="-131.5" font-family="Helvetica,sans-Serif" font-size="10.00">odp/api/std_types.h</text>
</a>
</g>
</g>
<!-- Node0&#45;&gt;Node1 -->
<g id="edge1" class="edge"><title>Node0&#45;&gt;Node1</title>
<path fill="none" stroke="midnightblue" d="M243.248,-180.083C235.53,-172.22 224.095,-160.569 214.783,-151.081"/>
<polygon fill="midnightblue" stroke="midnightblue" points="217.092,-148.436 207.589,-143.751 212.096,-153.34 217.092,-148.436"/>
</g>
<!-- Node7 -->
<g id="node8" class="node"><title>Node7</title>
<g id="a_node8"><a xlink:href="spec_2system__info_8h.html" target="_top" xlink:title="ODP system information. ">
<polygon fill="white" stroke="black" points="280.5,-57 280.5,-87 387.5,-87 387.5,-57 280.5,-57"/>
<text text-anchor="start" x="288.5" y="-75" font-family="Helvetica,sans-Serif" font-size="10.00">odp/api/spec/system</text>
<text text-anchor="middle" x="334" y="-64" font-family="Helvetica,sans-Serif" font-size="10.00">_info.h</text>
</a>
</g>
</g>
<!-- Node0&#45;&gt;Node7 -->
<g id="edge7" class="edge"><title>Node0&#45;&gt;Node7</title>
<path fill="none" stroke="midnightblue" d="M258.163,-180.281C270.757,-162.465 299.793,-121.39 318.061,-95.5484"/>
<polygon fill="midnightblue" stroke="midnightblue" points="321.114,-97.2922 324.028,-87.1061 315.398,-93.2516 321.114,-97.2922"/>
</g>
<!-- Node2 -->
<g id="node3" class="node"><title>Node2</title>
<polygon fill="white" stroke="#bfbfbf" points="0,-62.5 0,-81.5 118,-81.5 118,-62.5 0,-62.5"/>
<text text-anchor="middle" x="59" y="-69.5" font-family="Helvetica,sans-Serif" font-size="10.00">odp/api/abi/std_types.h</text>
</g>
<!-- Node1&#45;&gt;Node2 -->
<g id="edge2" class="edge"><title>Node1&#45;&gt;Node2</title>
<path fill="none" stroke="midnightblue" d="M178.941,-124.403C155.238,-114.245 115.594,-97.2547 88.4172,-85.6074"/>
<polygon fill="midnightblue" stroke="midnightblue" points="89.5916,-82.3028 79.0214,-81.5806 86.8341,-88.7369 89.5916,-82.3028"/>
</g>
<!-- Node3 -->
<g id="node4" class="node"><title>Node3</title>
<g id="a_node4"><a xlink:href="api_2spec_2std__types_8h.html" target="_top" xlink:title="Standard C language types and definitions for ODP. ">
<polygon fill="white" stroke="black" points="136,-62.5 136,-81.5 262,-81.5 262,-62.5 136,-62.5"/>
<text text-anchor="middle" x="199" y="-69.5" font-family="Helvetica,sans-Serif" font-size="10.00">odp/api/spec/std_types.h</text>
</a>
</g>
</g>
<!-- Node1&#45;&gt;Node3 -->
<g id="edge3" class="edge"><title>Node1&#45;&gt;Node3</title>
<path fill="none" stroke="midnightblue" d="M199,-124.403C199,-115.938 199,-102.728 199,-91.8199"/>
<polygon fill="midnightblue" stroke="midnightblue" points="202.5,-91.5806 199,-81.5806 195.5,-91.5806 202.5,-91.5806"/>
</g>
<!-- Node4 -->
<g id="node5" class="node"><title>Node4</title>
<g id="a_node5"><a xlink:href="visibility__begin_8h_source.html" target="_top" xlink:title="odp/visibility_begin.h">
<polygon fill="white" stroke="black" points="280.5,-0.5 280.5,-19.5 387.5,-19.5 387.5,-0.5 280.5,-0.5"/>
<text text-anchor="middle" x="334" y="-7.5" font-family="Helvetica,sans-Serif" font-size="10.00">odp/visibility_begin.h</text>
</a>
</g>
</g>
<!-- Node3&#45;&gt;Node4 -->
<g id="edge4" class="edge"><title>Node3&#45;&gt;Node4</title>
<path fill="none" stroke="midnightblue" d="M218.342,-62.4035C241.099,-52.2896 279.092,-35.4036 305.288,-23.761"/>
<polygon fill="midnightblue" stroke="midnightblue" points="306.977,-26.8404 314.694,-19.5806 304.134,-20.4437 306.977,-26.8404"/>
</g>
<!-- Node5 -->
<g id="node6" class="node"><title>Node5</title>
<polygon fill="white" stroke="#bfbfbf" points="94.5,-0.5 94.5,-19.5 143.5,-19.5 143.5,-0.5 94.5,-0.5"/>
<text text-anchor="middle" x="119" y="-7.5" font-family="Helvetica,sans-Serif" font-size="10.00">stdint.h</text>
</g>
<!-- Node3&#45;&gt;Node5 -->
<g id="edge5" class="edge"><title>Node3&#45;&gt;Node5</title>
<path fill="none" stroke="midnightblue" d="M187.538,-62.4035C174.825,-52.8688 154.087,-37.3154 138.747,-25.8106"/>
<polygon fill="midnightblue" stroke="midnightblue" points="140.541,-22.7806 130.441,-19.5806 136.341,-28.3806 140.541,-22.7806"/>
</g>
<!-- Node6 -->
<g id="node7" class="node"><title>Node6</title>
<g id="a_node7"><a xlink:href="visibility__end_8h_source.html" target="_top" xlink:title="odp/visibility_end.h">
<polygon fill="white" stroke="black" points="162,-0.5 162,-19.5 262,-19.5 262,-0.5 162,-0.5"/>
<text text-anchor="middle" x="212" y="-7.5" font-family="Helvetica,sans-Serif" font-size="10.00">odp/visibility_end.h</text>
</a>
</g>
</g>
<!-- Node3&#45;&gt;Node6 -->
<g id="edge6" class="edge"><title>Node3&#45;&gt;Node6</title>
<path fill="none" stroke="midnightblue" d="M200.863,-62.4035C202.716,-53.849 205.619,-40.4497 207.997,-29.4762"/>
<polygon fill="midnightblue" stroke="midnightblue" points="211.444,-30.095 210.141,-19.5806 204.603,-28.6127 211.444,-30.095"/>
</g>
<!-- Node7&#45;&gt;Node4 -->
<g id="edge8" class="edge"><title>Node7&#45;&gt;Node4</title>
<path fill="none" stroke="midnightblue" d="M334,-56.7808C334,-48.7812 334,-38.6887 334,-30.0168"/>
<polygon fill="midnightblue" stroke="midnightblue" points="337.5,-29.7305 334,-19.7305 330.5,-29.7306 337.5,-29.7305"/>
</g>
<!-- Node7&#45;&gt;Node6 -->
<g id="edge9" class="edge"><title>Node7&#45;&gt;Node6</title>
<path fill="none" stroke="midnightblue" d="M305.396,-56.9327C285.181,-46.9907 258.279,-33.7601 238.54,-24.0526"/>
<polygon fill="midnightblue" stroke="midnightblue" points="240.005,-20.8726 229.487,-19.6 236.916,-27.154 240.005,-20.8726"/>
</g>
</g>
</svg>
