<?xml version="1.0" encoding="UTF-8" standalone="no"?>
<!DOCTYPE svg PUBLIC "-//W3C//DTD SVG 1.1//EN"
 "http://www.w3.org/Graphics/SVG/1.1/DTD/svg11.dtd">
<!-- Generated by graphviz version 2.36.0 (20140111.2315)
 -->
<!-- Title: threshold.h Pages: 1 -->
<svg width="364pt" height="252pt"
 viewBox="0.00 0.00 364.00 252.00" xmlns="http://www.w3.org/2000/svg" xmlns:xlink="http://www.w3.org/1999/xlink">
<g id="graph0" class="graph" transform="scale(1 1) rotate(0) translate(4 248)">
<title>threshold.h</title>
<polygon fill="white" stroke="none" points="-4,4 -4,-248 360,-248 360,4 -4,4"/>
<!-- Node0 -->
<g id="node1" class="node"><title>Node0</title>
<polygon fill="#bfbfbf" stroke="black" points="112.5,-224.5 112.5,-243.5 177.5,-243.5 177.5,-224.5 112.5,-224.5"/>
<text text-anchor="middle" x="145" y="-231.5" font-family="Helvetica,sans-Serif" font-size="10.00">threshold.h</text>
</g>
<!-- Node1 -->
<g id="node2" class="node"><title>Node1</title>
<g id="a_node2"><a xlink:href="spec_2threshold_8h.html" target="_top" xlink:title="ODP threshold descriptor. ">
<polygon fill="white" stroke="black" points="83.5,-168.5 83.5,-187.5 206.5,-187.5 206.5,-168.5 83.5,-168.5"/>
<text text-anchor="middle" x="145" y="-175.5" font-family="Helvetica,sans-Serif" font-size="10.00">odp/api/spec/threshold.h</text>
</a>
</g>
</g>
<!-- Node0&#45;&gt;Node1 -->
<g id="edge1" class="edge"><title>Node0&#45;&gt;Node1</title>
<path fill="none" stroke="midnightblue" d="M145,-224.083C145,-217.006 145,-206.861 145,-197.986"/>
<polygon fill="midnightblue" stroke="midnightblue" points="148.5,-197.751 145,-187.751 141.5,-197.751 148.5,-197.751"/>
</g>
<!-- Node2 -->
<g id="node3" class="node"><title>Node2</title>
<g id="a_node3"><a xlink:href="visibility__begin_8h_source.html" target="_top" xlink:title="odp/visibility_begin.h">
<polygon fill="white" stroke="black" points="-0.5,-0.5 -0.5,-19.5 106.5,-19.5 106.5,-0.5 -0.5,-0.5"/>
<text text-anchor="middle" x="53" y="-7.5" font-family="Helvetica,sans-Serif" font-size="10.00">odp/visibility_begin.h</text>
</a>
</g>
</g>
<!-- Node1&#45;&gt;Node2 -->
<g id="edge2" class="edge"><title>Node1&#45;&gt;Node2</title>
<path fill="none" stroke="midnightblue" d="M122.667,-168.413C90.2312,-154.569 31.313,-123.923 7,-76 -2.42765,-57.4172 15.1924,-38.1839 31.2783,-25.508"/>
<polygon fill="midnightblue" stroke="midnightblue" points="33.431,-28.2692 39.399,-19.5152 29.2745,-22.6369 33.431,-28.2692"/>
</g>
<!-- Node3 -->
<g id="node4" class="node"><title>Node3</title>
<g id="a_node4"><a xlink:href="api_2std__types_8h.html" target="_top" xlink:title="Standard C language types and definitions for ODP. ">
<polygon fill="white" stroke="black" points="94,-112.5 94,-131.5 196,-131.5 196,-112.5 94,-112.5"/>
<text text-anchor="middle" x="145" y="-119.5" font-family="Helvetica,sans-Serif" font-size="10.00">odp/api/std_types.h</text>
</a>
</g>
</g>
<!-- Node1&#45;&gt;Node3 -->
<g id="edge3" class="edge"><title>Node1&#45;&gt;Node3</title>
<path fill="none" stroke="midnightblue" d="M145,-168.083C145,-161.006 145,-150.861 145,-141.986"/>
<polygon fill="midnightblue" stroke="midnightblue" points="148.5,-141.751 145,-131.751 141.5,-141.751 148.5,-141.751"/>
</g>
<!-- Node7 -->
<g id="node8" class="node"><title>Node7</title>
<g id="a_node8"><a xlink:href="visibility__end_8h_source.html" target="_top" xlink:title="odp/visibility_end.h">
<polygon fill="white" stroke="black" points="256,-0.5 256,-19.5 356,-19.5 356,-0.5 256,-0.5"/>
<text text-anchor="middle" x="306" y="-7.5" font-family="Helvetica,sans-Serif" font-size="10.00">odp/visibility_end.h</text>
</a>
</g>
</g>
<!-- Node1&#45;&gt;Node7 -->
<g id="edge9" class="edge"><title>Node1&#45;&gt;Node7</title>
<path fill="none" stroke="midnightblue" d="M164.72,-168.289C195.489,-153.688 254.726,-121.354 287,-76 296.692,-62.3796 301.479,-43.8373 303.82,-30.0424"/>
<polygon fill="midnightblue" stroke="midnightblue" points="307.336,-30.1739 305.265,-19.7835 300.404,-29.1976 307.336,-30.1739"/>
</g>
<!-- Node4 -->
<g id="node5" class="node"><title>Node4</title>
<polygon fill="white" stroke="#bfbfbf" points="16,-56.5 16,-75.5 134,-75.5 134,-56.5 16,-56.5"/>
<text text-anchor="middle" x="75" y="-63.5" font-family="Helvetica,sans-Serif" font-size="10.00">odp/api/abi/std_types.h</text>
</g>
<!-- Node3&#45;&gt;Node4 -->
<g id="edge4" class="edge"><title>Node3&#45;&gt;Node4</title>
<path fill="none" stroke="midnightblue" d="M133.753,-112.324C123.203,-104.185 107.199,-91.8395 94.5578,-82.0874"/>
<polygon fill="midnightblue" stroke="midnightblue" points="96.507,-79.1707 86.4513,-75.8339 92.2314,-84.7132 96.507,-79.1707"/>
</g>
<!-- Node5 -->
<g id="node6" class="node"><title>Node5</title>
<g id="a_node6"><a xlink:href="api_2spec_2std__types_8h.html" target="_top" xlink:title="Standard C language types and definitions for ODP. ">
<polygon fill="white" stroke="black" points="152,-56.5 152,-75.5 278,-75.5 278,-56.5 152,-56.5"/>
<text text-anchor="middle" x="215" y="-63.5" font-family="Helvetica,sans-Serif" font-size="10.00">odp/api/spec/std_types.h</text>
</a>
</g>
</g>
<!-- Node3&#45;&gt;Node5 -->
<g id="edge5" class="edge"><title>Node3&#45;&gt;Node5</title>
<path fill="none" stroke="midnightblue" d="M156.247,-112.324C166.797,-104.185 182.801,-91.8395 195.442,-82.0874"/>
<polygon fill="midnightblue" stroke="midnightblue" points="197.769,-84.7132 203.549,-75.8339 193.493,-79.1707 197.769,-84.7132"/>
</g>
<!-- Node5&#45;&gt;Node2 -->
<g id="edge6" class="edge"><title>Node5&#45;&gt;Node2</title>
<path fill="none" stroke="midnightblue" d="M189.331,-56.4435C162.077,-47.3591 118.816,-32.9388 88.3494,-22.7831"/>
<polygon fill="midnightblue" stroke="midnightblue" points="89.1429,-19.3584 78.5493,-19.5164 86.9293,-25.9992 89.1429,-19.3584"/>
</g>
<!-- Node6 -->
<g id="node7" class="node"><title>Node6</title>
<polygon fill="white" stroke="#bfbfbf" points="188.5,-0.5 188.5,-19.5 237.5,-19.5 237.5,-0.5 188.5,-0.5"/>
<text text-anchor="middle" x="213" y="-7.5" font-family="Helvetica,sans-Serif" font-size="10.00">stdint.h</text>
</g>
<!-- Node5&#45;&gt;Node6 -->
<g id="edge7" class="edge"><title>Node5&#45;&gt;Node6</title>
<path fill="none" stroke="midnightblue" d="M214.67,-56.083C214.408,-49.0059 214.032,-38.8611 213.703,-29.9865"/>
<polygon fill="midnightblue" stroke="midnightblue" points="217.192,-29.6147 213.324,-19.7511 210.197,-29.8738 217.192,-29.6147"/>
</g>
<!-- Node5&#45;&gt;Node7 -->
<g id="edge8" class="edge"><title>Node5&#45;&gt;Node7</title>
<path fill="none" stroke="midnightblue" d="M229.621,-56.324C243.949,-47.8215 266.013,-34.7288 282.749,-24.7975"/>
<polygon fill="midnightblue" stroke="midnightblue" points="284.602,-27.7677 291.416,-19.6545 281.03,-21.7478 284.602,-27.7677"/>
</g>
</g>
</svg>
